<svg clip-rule="evenodd" fill-rule="evenodd" height="300" stroke-linejoin="round" stroke-miterlimit="2" viewBox="0 0 32 32" width="300" xmlns="http://www.w3.org/2000/svg" version="1.1" xmlns:xlink="http://www.w3.org/1999/xlink" xmlns:svgjs="http://svgjs.dev/svgjs"><g width="100%" height="100%" transform="matrix(1,0,0,1,0,0)"><g transform="translate(-74 -37)"><g id="Layer2"><path d="m83.573 59.642c-1.687.797-2.573 1.963-2.573 3.108 0 1.108.82 2.232 2.398 3.023 1.576.79 3.947 1.31 6.602 1.31 3.37 0 6.281-.855 7.733-2.022.848-.682 1.267-1.491 1.267-2.311 0-1.145-.886-2.311-2.573-3.108-.499-.236-1.096-.022-1.331.477-.236.499-.022 1.096.477 1.331.489.231.889.489 1.16.781.153.166.267.331.267.519 0 .153-.079.291-.189.429-.196.245-.489.465-.849.67-1.344.763-3.518 1.234-5.962 1.234-2.292 0-4.346-.416-5.706-1.098-.445-.223-.809-.469-1.054-.746-.138-.156-.24-.313-.24-.489 0-.188.114-.353.267-.519.271-.292.671-.55 1.16-.781.499-.235.713-.832.477-1.331-.235-.499-.832-.713-1.331-.477zm5.624 3.954c.189.254.487.404.803.404s.614-.15.803-.404c0 0 3.913-5.271 6.262-10.013 1.073-2.167 1.803-4.241 1.803-5.715 0-4.894-3.973-8.868-8.868-8.868s-8.868 3.974-8.868 8.868c0 1.474.73 3.548 1.803 5.715 2.349 4.742 6.262 10.013 6.262 10.013zm.803-2.308c-1.239-1.756-3.644-5.305-5.273-8.593-.91-1.838-1.595-3.576-1.595-4.827 0-3.79 3.077-6.868 6.868-6.868s6.868 3.078 6.868 6.868c0 1.251-.685 2.989-1.595 4.827-1.629 3.288-4.034 6.837-5.273 8.593zm0-16.716c-2.154 0-3.902 1.748-3.902 3.902 0 2.153 1.748 3.902 3.902 3.902s3.902-1.749 3.902-3.902c0-2.154-1.748-3.902-3.902-3.902zm0 2c1.05 0 1.902.852 1.902 1.902 0 1.049-.852 1.902-1.902 1.902s-1.902-.853-1.902-1.902c0-1.05.852-1.902 1.902-1.902z" fill="#c7bdbd" fill-opacity="1" data-original-color="#000000ff" stroke="none" stroke-opacity="1"/></g></g></g></svg>