<svg xmlns="http://www.w3.org/2000/svg" version="1.1" xmlns:xlink="http://www.w3.org/1999/xlink" xmlns:svgjs="http://svgjs.dev/svgjs" viewBox="0 0 800 800"><defs><filter id="bbburst-blur-1" x="-100%" y="-100%" width="400%" height="400%"><feGaussianBlur in="SourceGraphic" stdDeviation="1"></feGaussianBlur></filter><filter id="bbburst-blur-2" x="-100%" y="-100%" width="400%" height="400%"><feGaussianBlur in="SourceGraphic" stdDeviation="2"></feGaussianBlur></filter><filter id="bbburst-blur-3" x="-100%" y="-100%" width="400%" height="400%"><feGaussianBlur in="SourceGraphic" stdDeviation="4"></feGaussianBlur></filter><filter id="bbburst-blur-4" x="-100%" y="-100%" width="400%" height="400%"><feGaussianBlur in="SourceGraphic" stdDeviation="12"></feGaussianBlur></filter><symbol id="bbburst-shape-1" viewBox="0 0 194 167"><path d="m97 0 96.129 166.5H.871L97 0Z"></path></symbol><symbol id="bbburst-shape-4" viewBox="0 0 149 143"><path d="M71.647 2.781c.898-2.764 4.808-2.764 5.706 0l15.445 47.534a3 3 0 0 0 2.853 2.073h49.98c2.906 0 4.115 3.719 1.764 5.427L106.96 87.193a2.999 2.999 0 0 0-1.09 3.354l15.445 47.534c.898 2.764-2.266 5.062-4.617 3.354l-40.435-29.378a3 3 0 0 0-3.526 0l-40.435 29.378c-2.351 1.708-5.515-.59-4.617-3.354L43.13 90.547a3 3 0 0 0-1.09-3.354L1.605 57.815c-2.35-1.708-1.142-5.427 1.764-5.427h49.98a3 3 0 0 0 2.853-2.073L71.647 2.781Z"></path></symbol><symbol id="bbburst-shape-5" viewBox="0 0 145 145"><circle cx="72.5" cy="72.5" r="72.5"></circle></symbol><symbol id="bbburst-shape-8" viewBox="0 0 87 168"><path d="m12 12 31.2546 18.0749c16.4102 9.4902 20.014 31.6325 7.4603 45.8369L36.3296 92.1884c-12.5684 14.2206-8.9394 36.3916 7.5068 45.8636L75 156" stroke-width="14" stroke-linecap="round" stroke-linejoin="round"></path></symbol><symbol id="bbburst-shape-10" viewBox="0 0 145 145"><circle cx="72.5" cy="72.5" r="61.5" fill="none" stroke-width="22"></circle></symbol><symbol id="bbburst-shape-12" viewBox="0 0 170 151"><path d="M69.3728 54.2122 85 10.0031l15.627 44.2091c1.413 3.9958 5.19 6.6672 9.428 6.6673h49.312l-39.149 26.1447c-3.803 2.5401-5.399 7.3367-3.875 11.6488l15.179 42.94-40.9683-27.36c-3.3621-2.245-7.7453-2.245-11.1074 0l-40.9682 27.36 15.1785-42.94c1.5243-4.3121-.0712-9.1087-3.8746-11.6488L10.6333 60.8795h49.3112c4.2381-.0001 8.0159-2.6715 9.4283-6.6673Z" stroke-width="12"></path></symbol></defs><use xlink:href="#bbburst-shape-1" width="26.495871609030818" opacity="0.1546906345399479" transform="matrix(1.0347605097671964,0.7012636361785287,-0.7012636361785287,1.0347605097671964,298.3996036716429,71.6931180813416)" fill="#ff5c58" filter="url(#bbburst-blur-3)"></use><use xlink:href="#bbburst-shape-4" width="13.135155579077805" opacity="0.8689761331266284" transform="matrix(0.986437424969906,0.164137767191896,-0.164137767191896,0.986437424969906,500.0986456513625,46.80396591691107)" fill="#dc3545"></use><use xlink:href="#bbburst-shape-8" width="31.835568943581052" opacity="0.5587357470706802" transform="matrix(0.9838347670248874,0.1790786173530652,-0.1790786173530652,0.9838347670248874,654.5391731524329,4.143787852494597)" fill="none" stroke="#dc3545" filter="url(#bbburst-blur-1)"></use><use xlink:href="#bbburst-shape-8" width="31.803277257400616" opacity="0.1592073618161809" transform="matrix(1.2430369831077106,-0.1317537803119191,0.1317537803119191,1.2430369831077106,678.293279137712,46.72674540333463)" fill="none" stroke="#dc3545" filter="url(#bbburst-blur-3)"></use><use xlink:href="#bbburst-shape-4" width="36.45736068470074" opacity="0.3784636184528475" transform="matrix(0.801974990377187,0.5973576104893206,-0.5973576104893206,0.801974990377187,344.6174770629733,69.9464992091547)" fill="#dc3546b3" filter="url(#bbburst-blur-2)"></use><use xlink:href="#bbburst-shape-1" width="29.384553962410205" opacity="0.17285591561842029" transform="matrix(1.1919338239102188,-0.3765551213551119,0.3765551213551119,1.1919338239102188,325.20480158421753,-431.5212805567647)" fill="#dc3546b3" filter="url(#bbburst-blur-3)"></use><use xlink:href="#bbburst-shape-8" width="29.71327164770972" opacity="0.31776407054773936" transform="matrix(1.1731134967312142,0.4316303091617447,-0.4316303091617447,1.1731134967312142,848.4605826462894,-166.56920959461894)" fill="none" stroke="#dc3546b3" filter="url(#bbburst-blur-3)"></use><use xlink:href="#bbburst-shape-8" width="16.603022005739007" opacity="0.8561015617952715" transform="matrix(0.870187799132907,-0.4927201987337514,0.4927201987337514,0.870187799132907,189.96012012221536,-8.485265767157841)" fill="none" stroke="#dc3546b3"></use><use xlink:href="#bbburst-shape-4" width="27.48378743791211" opacity="0.49477914974820825" transform="matrix(0.9334248196327409,-0.3587730565323783,0.3587730565323783,0.9334248196327409,405.97759554918946,-127.61705864688105)" fill="#dc3545" filter="url(#bbburst-blur-2)"></use><use xlink:href="#bbburst-shape-8" width="25.509060859932497" opacity="0.6579500122215043" transform="matrix(0.7449685407351183,-0.667099597747584,0.667099597747584,0.7449685407351183,239.16404251711083,212.25896879250348)" fill="none" stroke="#dc3545" filter="url(#bbburst-blur-1)"></use><use xlink:href="#bbburst-shape-8" width="44.517011747665094" opacity="0.05331925832734796" transform="matrix(1.4192292932821942,1.0238594694047243,-1.0238594694047243,1.4192292932821942,538.2256112295809,-542.6343252960028)" fill="none" stroke="#dc3546b3" filter="url(#bbburst-blur-4)"></use><use xlink:href="#bbburst-shape-1" width="44.615743658381646" opacity="0.05617917712202325" transform="matrix(1.690395914872183,-0.4528373339107933,0.4528373339107933,1.690395914872183,-174.10407366821465,-33.23988757935126)" fill="#dc3546b3" filter="url(#bbburst-blur-4)"></use><use xlink:href="#bbburst-shape-4" width="31.305898561465597" opacity="0.4444457368974787" transform="matrix(0.8362242884023716,-0.5483875814475991,0.5483875814475991,0.8362242884023716,61.21326677698491,-152.1290667731269)" fill="#ff5c58" filter="url(#bbburst-blur-2)"></use><use xlink:href="#bbburst-shape-12" width="20.792864662274944" opacity="0.7707471420392695" transform="matrix(0.7246089392332445,-0.6891602753955512,0.6891602753955512,0.7246089392332445,172.19886860278018,204.30622003799937)" fill="none" stroke="#ff5c58" filter="url(#bbburst-blur-1)"></use><use xlink:href="#bbburst-shape-8" width="14.93919540429378" opacity="0.7558363528753979" transform="matrix(0.9596583807163885,0.281168619018551,-0.281168619018551,0.9596583807163885,598.5588323574946,72.1299316063687)" fill="none" stroke="#dc3545" filter="url(#bbburst-blur-1)"></use><use xlink:href="#bbburst-shape-10" width="16.069744503586147" opacity="0.8152740860148984" transform="matrix(0.9968540627044974,-0.07925892801153726,0.07925892801153726,0.9968540627044974,288.3903064195258,-39.829220421919615)" fill="none" stroke="#dc3546b3"></use><use xlink:href="#bbburst-shape-4" width="37.53066850508784" opacity="0.2082913404722886" transform="matrix(1.062425679343745,-0.6585982659185963,0.6585982659185963,1.062425679343745,469.96630188442214,33.16855514594124)" fill="#dc3545" filter="url(#bbburst-blur-3)"></use><use xlink:href="#bbburst-shape-4" width="15.680485318663639" opacity="0.8351562570595241" transform="matrix(0.8775086147422396,-0.4795608731466273,0.4795608731466273,0.8775086147422396,271.3335243990227,77.22888896122129)" fill="#dc3545"></use><use xlink:href="#bbburst-shape-8" width="30.638396810218374" opacity="0.328645373202622" transform="matrix(1.1846065803187273,0.39900783183487865,-0.39900783183487865,1.1846065803187273,784.280429176327,-259.6950686529028)" fill="none" stroke="#ff5c58" filter="url(#bbburst-blur-3)"></use><use xlink:href="#bbburst-shape-8" width="41.26814441039589" opacity="-0.08342101215748898" transform="matrix(1.661996215470297,0.547967681311964,-0.547967681311964,1.661996215470297,919.1706282061874,-631.0044578169204)" fill="none" stroke="#dc3545" filter="url(#bbburst-blur-4)"></use><use xlink:href="#bbburst-shape-1" width="12.702524451008244" opacity="0.9491911014772804" transform="matrix(0.7396303482874638,-0.6730133341117136,0.6730133341117136,0.7396303482874638,127.12262268602205,85.59296082537293)" fill="#dc3545"></use><use xlink:href="#bbburst-shape-10" width="43.29352284520316" opacity="-0.08235372510649164" transform="matrix(1.5869471078871413,0.7376305828588168,-0.7376305828588168,1.5869471078871413,311.14252813790125,-589.9160485941636)" fill="none" stroke="#dc3546b3" filter="url(#bbburst-blur-4)"></use><use xlink:href="#bbburst-shape-1" width="47.48098017783333" opacity="0.17827876060941783" transform="matrix(1.2185230535537663,0.27875000979014347,-0.27875000979014347,1.2185230535537663,737.064539780635,-362.2020539051072)" fill="#dc3545" filter="url(#bbburst-blur-3)"></use><use xlink:href="#bbburst-shape-12" width="36.6310255630429" opacity="0.29827151297572874" transform="matrix(1.1467316031036165,0.49750038235503863,-0.49750038235503863,1.1467316031036165,446.17563654702406,219.05132743292728)" fill="none" stroke="#dc3545" filter="url(#bbburst-blur-3)"></use><use xlink:href="#bbburst-shape-12" width="25.98845083833525" opacity="0.1932772183896071" transform="matrix(1.2319991588228458,0.21137188237748228,-0.21137188237748228,1.2319991588228458,479.267917200732,267.26269235123107)" fill="none" stroke="#ff5c58" filter="url(#bbburst-blur-3)"></use><use xlink:href="#bbburst-shape-8" width="32.28617754768389" opacity="0.22357599838024445" transform="matrix(0.9537130985832882,-0.8080416608013865,0.8080416608013865,0.9537130985832882,-260.0843173000392,168.41604325169783)" fill="none" stroke="#dc3546b3" filter="url(#bbburst-blur-3)"></use><use xlink:href="#bbburst-shape-12" width="14.365255817877557" opacity="0.9565895249450229" transform="matrix(0.9923311081509852,0.1236081380647632,-0.1236081380647632,0.9923311081509852,425.11805602672183,11.413275924806612)" fill="none" stroke="#dc3546b3"></use><use xlink:href="#bbburst-shape-10" width="28.99935331538431" opacity="0.5118995043623582" transform="matrix(0.9852132651482762,0.17133249013503654,-0.17133249013503654,0.9852132651482762,513.1599034918737,215.0276273431137)" fill="none" stroke="#dc3545" filter="url(#bbburst-blur-2)"></use><use xlink:href="#bbburst-shape-10" width="33.638268292643446" opacity="0.15875709181537823" transform="matrix(0.9204898032677076,-0.845694106684076,0.845694106684076,0.9204898032677076,-237.67800776556038,-204.3666151147787)" fill="none" stroke="#ff5c58" filter="url(#bbburst-blur-3)"></use><use xlink:href="#bbburst-shape-8" width="17.232900045064934" opacity="0.9357721100095305" transform="matrix(0.9886762546639736,-0.15006419780753075,0.15006419780753075,0.9886762546639736,360.3015021369952,7.628678361049765)" fill="none" stroke="#dc3546b3"></use><use xlink:href="#bbburst-shape-10" width="39.43997681904452" opacity="0.35886321403121446" transform="matrix(0.975103378280895,-0.22175076474543629,0.22175076474543629,0.975103378280895,440.4644876700259,261.7546677405621)" fill="none" stroke="#ff5c58" filter="url(#bbburst-blur-2)"></use><use xlink:href="#bbburst-shape-1" width="24.062988055723544" opacity="0.5905822153375486" transform="matrix(0.9856354749685002,-0.16888667941439017,0.16888667941439017,0.9856354749685002,494.29402830377063,69.21852873662544)" fill="#dc3546b3" filter="url(#bbburst-blur-1)"></use><use xlink:href="#bbburst-shape-4" width="17.920002197424893" opacity="0.7015494740375392" transform="matrix(0.8285941992603666,-0.5598496699579913,0.5598496699579913,0.8285941992603666,34.39214734788291,69.93237674259547)" fill="#dc3545" filter="url(#bbburst-blur-1)"></use><use xlink:href="#bbburst-shape-12" width="25.413370499989586" opacity="0.47441646423295925" transform="matrix(0.9893037798371451,0.14586991190762214,-0.14586991190762214,0.9893037798371451,257.3840855769501,145.36095842118868)" fill="none" stroke="#dc3545" filter="url(#bbburst-blur-2)"></use><use xlink:href="#bbburst-shape-10" width="23.065922988092524" opacity="0.746850779991143" transform="matrix(0.9076661872362334,0.41969285501189896,-0.41969285501189896,0.9076661872362334,543.4485059265302,-80.96524985037411)" fill="none" stroke="#dc3545" filter="url(#bbburst-blur-1)"></use><use xlink:href="#bbburst-shape-4" width="45.7964439915754" opacity="0.13417478597518784" transform="matrix(1.233263084218584,-0.2038680090246277,0.2038680090246277,1.233263084218584,37.19398625909065,207.69416498864092)" fill="#dc3545" filter="url(#bbburst-blur-3)"></use><use xlink:href="#bbburst-shape-1" width="22.651079198955756" opacity="0.7489355233162371" transform="matrix(0.8333247100387708,-0.552783798278132,0.552783798278132,0.8333247100387708,178.84982818935518,185.54355622665838)" fill="#dc3545" filter="url(#bbburst-blur-1)"></use><use xlink:href="#bbburst-shape-5" width="45.8669439492595" opacity="-0.08201071803669802" transform="matrix(1.6377018215708015,-0.6167923018518298,0.6167923018518298,1.6377018215708015,-223.00288500507446,108.83548277816544)" fill="#dc3546b3" filter="url(#bbburst-blur-4)"></use><use xlink:href="#bbburst-shape-4" width="18.16315323416762" opacity="0.7714913128258203" transform="matrix(0.8673051727432078,0.49777679469102853,-0.49777679469102853,0.8673051727432078,533.34728273594,-36.421587159411445)" fill="#ff5c58" filter="url(#bbburst-blur-1)"></use><use xlink:href="#bbburst-shape-10" width="49.76159611491926" opacity="0.06706453202576135" transform="matrix(1.749783403068806,-0.02753256880402423,0.02753256880402423,1.749783403068806,690.1811983613527,-59.62302618753688)" fill="none" stroke="#dc3546b3" filter="url(#bbburst-blur-4)"></use><use xlink:href="#bbburst-shape-4" width="37.36653219138684" opacity="0.1903013630758087" transform="matrix(1.135990670859724,-0.5215603471504272,0.5215603471504272,1.135990670859724,134.01300740772461,-407.1792778462406)" fill="#dc3546b3" filter="url(#bbburst-blur-3)"></use><use xlink:href="#bbburst-shape-8" width="27.17575318575726" opacity="0.5673604730900057" transform="matrix(0.7704003155741963,-0.6375604706717464,0.6375604706717464,0.7704003155741963,119.2517161609718,-93.58614667877188)" fill="none" stroke="#dc3545" filter="url(#bbburst-blur-1)"></use><use xlink:href="#bbburst-shape-8" width="39.31040310980372" opacity="0.35757762380620606" transform="matrix(0.8627891904758671,-0.5055638563010589,0.5055638563010589,0.8627891904758671,-0.9047070499647987,289.6558737447001)" fill="none" stroke="#dc3546b3" filter="url(#bbburst-blur-2)"></use><use xlink:href="#bbburst-shape-10" width="34.658287459916394" opacity="0.1925741299337551" transform="matrix(1.0377941689966144,0.6967662899399101,-0.6967662899399101,1.0377941689966144,900.5205598105136,245.78049664904432)" fill="none" stroke="#dc3546b3" filter="url(#bbburst-blur-3)"></use><use xlink:href="#bbburst-shape-10" width="30.17979118250839" opacity="0.2221034625987952" transform="matrix(1.1215699566217479,-0.5518884238716109,0.5518884238716109,1.1215699566217479,92.15142118364213,302.6485659018227)" fill="none" stroke="#dc3545" filter="url(#bbburst-blur-3)"></use><use xlink:href="#bbburst-shape-10" width="36.987522985930724" opacity="0.07943233822869356" transform="matrix(1.6322224736938094,0.6311495831962987,-0.6311495831962987,1.6322224736938094,262.4376246457161,-469.8060883447486)" fill="none" stroke="#dc3546b3" filter="url(#bbburst-blur-4)"></use><use xlink:href="#bbburst-shape-4" width="10.967030757810624" opacity="0.8644799047035614" transform="matrix(0.9132194973910011,0.4074679736923226,-0.4074679736923226,0.9132194973910011,540.9447027707006,91.04464469387739)" fill="#dc3545"></use><use xlink:href="#bbburst-shape-4" width="34.02081533694654" opacity="0.09230972353248024" transform="matrix(1.7065849459615068,-0.3873858828320423,0.3873858828320423,1.7065849459615068,30.524095472296864,87.91553158915156)" fill="#dc3546b3" filter="url(#bbburst-blur-4)"></use><use xlink:href="#bbburst-shape-8" width="31.141278402845238" opacity="0.49769948034735534" transform="matrix(0.8655445466533691,0.5008319456250906,-0.5008319456250906,0.8655445466533691,770.5397870528099,177.71118838680985)" fill="none" stroke="#dc3545" filter="url(#bbburst-blur-2)"></use><use xlink:href="#bbburst-shape-4" width="31.98902375388242" opacity="0.3570707115631486" transform="matrix(0.8602512134263963,0.5098704245182424,-0.5098704245182424,0.8602512134263963,638.2519110858553,333.06485501286795)" fill="#dc3545" filter="url(#bbburst-blur-2)"></use><use xlink:href="#bbburst-shape-8" width="16.168829614223792" opacity="0.6875119874561135" transform="matrix(0.9328628027079063,0.3602318577304759,-0.3602318577304759,0.9328628027079063,648.8718790753857,-60.66185757411375)" fill="none" stroke="#ff5c58" filter="url(#bbburst-blur-1)"></use><use xlink:href="#bbburst-shape-8" width="24.812947254553162" opacity="0.6239240362867868" transform="matrix(0.9811680325678016,0.19315613339221063,-0.19315613339221063,0.9811680325678016,401.1125925447291,-151.53888460978013)" fill="none" stroke="#dc3545" filter="url(#bbburst-blur-1)"></use><use xlink:href="#bbburst-shape-10" width="12.081761191723464" opacity="0.8388138185627434" transform="matrix(0.9813797034760596,0.192077790504892,-0.192077790504892,0.9813797034760596,423.17584022178164,60.907356281768614)" fill="none" stroke="#dc3545"></use><use xlink:href="#bbburst-shape-12" width="33.3848957673753" opacity="0.3291108965017777" transform="matrix(1.2389676913622432,0.1657077540747967,-0.1657077540747967,1.2389676913622432,592.4583921010457,-362.2077760736013)" fill="none" stroke="#ff5c58" filter="url(#bbburst-blur-3)"></use><use xlink:href="#bbburst-shape-5" width="25.341051894045265" opacity="0.6073276935630598" transform="matrix(0.8953237448118241,0.44541597633687524,-0.44541597633687524,0.8953237448118241,435.85919027680984,154.8543676456959)" fill="#dc3546b3" filter="url(#bbburst-blur-1)"></use><use xlink:href="#bbburst-shape-10" width="43.692135490238115" opacity="0.2708449177407942" transform="matrix(1.2419608421362989,-0.14153892256229433,0.14153892256229433,1.2419608421362989,54.40094549271669,104.03573315713066)" fill="none" stroke="#ff5c58" filter="url(#bbburst-blur-3)"></use><use xlink:href="#bbburst-shape-10" width="19.634069581278553" opacity="0.6505860455227268" transform="matrix(0.8196282317383783,0.572895768650301,-0.572895768650301,0.8196282317383783,539.1565019707149,200.7130396897279)" fill="none" stroke="#dc3545" filter="url(#bbburst-blur-1)"></use><use xlink:href="#bbburst-shape-12" width="31.25655200581776" opacity="0.37877908033465546" transform="matrix(0.7209575791400403,0.6929791981585973,-0.6929791981585973,0.7209575791400403,614.9596558522998,-174.1111647435722)" fill="none" stroke="#ff5c58" filter="url(#bbburst-blur-2)"></use><use xlink:href="#bbburst-shape-5" width="19.09951764616085" opacity="0.7933512379733266" transform="matrix(0.7825048006867141,-0.6226445510098405,0.6226445510098405,0.7825048006867141,225.16938413720743,48.529960368222646)" fill="#dc3545"></use><use xlink:href="#bbburst-shape-4" width="30.58167529476073" opacity="0.06152196602048743" transform="matrix(1.5576299494300891,-0.7976772158200448,0.7976772158200448,1.5576299494300891,280.9603398211708,147.31090423071373)" fill="#dc3546b3" filter="url(#bbburst-blur-4)"></use><use xlink:href="#bbburst-shape-10" width="24.476742479892735" opacity="0.6690459386684622" transform="matrix(0.8623481667142995,0.5063157506581113,-0.5063157506581113,0.8623481667142995,624.0793206133668,-96.56304396602738)" fill="none" stroke="#dc3545" filter="url(#bbburst-blur-1)"></use><use xlink:href="#bbburst-shape-4" width="19.360797474784896" opacity="0.8019759129195927" transform="matrix(0.8271041798958143,-0.5620486416662461,0.5620486416662461,0.8271041798958143,78.28320972336238,68.49441324791331)" fill="#dc3545"></use><use xlink:href="#bbburst-shape-5" width="26.94983672252636" opacity="0.45150190551057856" transform="matrix(0.8754940316042873,0.4832289319000582,-0.4832289319000582,0.8754940316042873,343.81921552395556,-23.287407587735004)" fill="#dc3546b3" filter="url(#bbburst-blur-2)"></use><use xlink:href="#bbburst-shape-8" width="18.394162898926403" opacity="0.6055076920662983" transform="matrix(0.7776852585931872,0.6286538304717849,-0.6286538304717849,0.7776852585931872,599.5988857558768,254.94310041649686)" fill="none" stroke="#ff5c58" filter="url(#bbburst-blur-1)"></use><use xlink:href="#bbburst-shape-10" width="13.686822784158878" opacity="0.8951922553310471" transform="matrix(0.9138203300673581,-0.40611870722189675,0.40611870722189675,0.9138203300673581,196.2991516063012,5.63760044978693)" fill="none" stroke="#dc3545"></use><use xlink:href="#bbburst-shape-8" width="20.86631989985929" opacity="0.6187887454783245" transform="matrix(0.7906243856833685,-0.6123014623229281,0.6123014623229281,0.7906243856833685,154.60202803855816,261.50742510042056)" fill="none" stroke="#dc3546b3" filter="url(#bbburst-blur-1)"></use><use xlink:href="#bbburst-shape-1" width="15.396605676063757" opacity="0.841633009159771" transform="matrix(0.9811632326183107,-0.19318051391894225,0.19318051391894225,0.9811632326183107,385.976116791251,0.8929874395117281)" fill="#dc3546b3"></use><use xlink:href="#bbburst-shape-4" width="34.055604619816194" opacity="0.3688801010490421" transform="matrix(0.7799329663323755,-0.6258630585263693,0.6258630585263693,0.7799329663323755,-93.55797072568075,-67.96694962445068)" fill="#dc3545" filter="url(#bbburst-blur-2)"></use><use xlink:href="#bbburst-shape-10" width="34.825736366460156" opacity="0.2894081296874004" transform="matrix(1.1182447200402652,-0.5585953330471611,0.5585953330471611,1.1182447200402652,-139.03058025977367,-158.24878868913783)" fill="none" stroke="#dc3545" filter="url(#bbburst-blur-3)"></use><use xlink:href="#bbburst-shape-4" width="44.21004305636562" opacity="0.291181718052255" transform="matrix(1.1436554524776916,-0.5045316699851918,0.5045316699851918,1.1436554524776916,-15.978178838937993,-303.2763476009733)" fill="#dc3546b3" filter="url(#bbburst-blur-3)"></use><use xlink:href="#bbburst-shape-4" width="14.39473982271211" opacity="0.8886486262957332" transform="matrix(0.9770544762439611,0.2129895547946867,-0.2129895547946867,0.9770544762439611,428.96228462925984,17.16211272803116)" fill="#dc3546b3"></use><use xlink:href="#bbburst-shape-4" width="32.42930595865708" opacity="0.21334546463269422" transform="matrix(0.9412998980955146,0.8224685415536412,-0.8224685415536412,0.9412998980955146,359.7621829927706,16.49099017844594)" fill="#dc3546b3" filter="url(#bbburst-blur-3)"></use><use xlink:href="#bbburst-shape-4" width="26.56701997395" opacity="0.17166556001650612" transform="matrix(1.247422706911139,-0.08022836332923027,0.08022836332923027,1.247422706911139,-11.093019735270246,-184.9649143998787)" fill="#dc3546b3" filter="url(#bbburst-blur-3)"></use><use xlink:href="#bbburst-shape-12" width="39.92610757912853" opacity="0.31829886272210706" transform="matrix(1.0097382693733858,-0.7368369068951687,0.7368369068951687,1.0097382693733858,332.4710808692587,192.09742378463648)" fill="none" stroke="#ff5c58" filter="url(#bbburst-blur-3)"></use><use xlink:href="#bbburst-shape-4" width="24.00928462862553" opacity="0.7026705116275884" transform="matrix(0.9272316409082408,-0.3744882963439726,0.3744882963439726,0.9272316409082408,118.54532661614758,-24.453965840539354)" fill="#ff5c58" filter="url(#bbburst-blur-1)"></use><use xlink:href="#bbburst-shape-5" width="33.44775712965165" opacity="0.08906763744532886" transform="matrix(1.5439889652223326,0.8237706448227389,-0.8237706448227389,1.5439889652223326,909.9033068957015,-585.644422052638)" fill="#dc3545" filter="url(#bbburst-blur-4)"></use><use xlink:href="#bbburst-shape-12" width="37.08121040489753" opacity="0.4446924054223199" transform="matrix(0.8899944127642991,0.4559714302983579,-0.4559714302983579,0.8899944127642991,532.040847571287,283.0698429383369)" fill="none" stroke="#dc3545" filter="url(#bbburst-blur-2)"></use><use xlink:href="#bbburst-shape-4" width="15.928104207788593" opacity="0.7504811665189056" transform="matrix(0.7124432218394692,-0.7017297597045439,0.7017297597045439,0.7124432218394692,78.31988274904637,227.2038335098469)" fill="#ff5c58" filter="url(#bbburst-blur-1)"></use><use xlink:href="#bbburst-shape-4" width="29.84178815474074" opacity="0.6612533540153354" transform="matrix(0.9588896611526934,-0.2837791707198977,0.2837791707198977,0.9588896611526934,334.02073738766575,160.03670681564046)" fill="#dc3545" filter="url(#bbburst-blur-1)"></use><use xlink:href="#bbburst-shape-4" width="26.958004088138413" opacity="0.49505401561068985" transform="matrix(0.8630726969668007,-0.5050797162334408,0.5050797162334408,0.8630726969668007,78.69712818489995,261.70751270319386)" fill="#dc3545" filter="url(#bbburst-blur-2)"></use><use xlink:href="#bbburst-shape-5" width="27.17892462417145" opacity="0.6516929456686869" transform="matrix(0.8844158166529817,0.46669975707518785,-0.46669975707518785,0.8844158166529817,468.76684071909216,-75.66475949368618)" fill="#ff5c58" filter="url(#bbburst-blur-1)"></use><use xlink:href="#bbburst-shape-5" width="20.041578882872564" opacity="0.786619213637606" transform="matrix(0.7688664960686101,0.6394093455863606,-0.6394093455863606,0.7688664960686101,693.1254730647586,1.257325924626798)" fill="#dc3545"></use><use xlink:href="#bbburst-shape-12" width="18.094577673817533" opacity="0.8429130901776849" transform="matrix(0.9060693277422388,-0.42312926313920607,0.42312926313920607,0.9060693277422388,237.7762922675004,110.39763442352387)" fill="none" stroke="#dc3545"></use><use xlink:href="#bbburst-shape-10" width="23.19003353507472" opacity="0.5980543966230591" transform="matrix(0.8854168439872168,0.46479781882418153,-0.46479781882418153,0.8854168439872168,407.0149808794961,105.84475462439673)" fill="none" stroke="#dc3545" filter="url(#bbburst-blur-1)"></use><use xlink:href="#bbburst-shape-8" width="23.217102063460164" opacity="0.4684282410692252" transform="matrix(0.9032818023796249,0.42904776597695554,-0.42904776597695554,0.9032818023796249,783.5943494115861,-54.22067730752576)" fill="none" stroke="#dc3545" filter="url(#bbburst-blur-2)"></use><use xlink:href="#bbburst-shape-5" width="49.450175388209786" opacity="-0.08134084980788003" transform="matrix(1.7476167679529722,-0.09129968438942043,0.09129968438942043,1.7476167679529722,662.8530502735315,48.782376574734144)" fill="#dc3545" filter="url(#bbburst-blur-4)"></use><use xlink:href="#bbburst-shape-12" width="22.252748722739938" opacity="0.6995486106843667" transform="matrix(0.8130069920556633,-0.582253923016928,0.582253923016928,0.8130069920556633,291.0343190901364,56.96305916383187)" fill="none" stroke="#ff5c58" filter="url(#bbburst-blur-1)"></use><use xlink:href="#bbburst-shape-12" width="37.14143411569593" opacity="0.14421609293727145" transform="matrix(0.9740060705695057,0.7834616611511703,-0.7834616611511703,0.9740060705695057,1044.6094449938048,-166.45661324145263)" fill="none" stroke="#dc3546b3" filter="url(#bbburst-blur-3)"></use><use xlink:href="#bbburst-shape-4" width="29.65734777391743" opacity="0.38756824856010375" transform="matrix(0.9129571900915651,0.40805535048583047,-0.40805535048583047,0.9129571900915651,291.9974597374787,126.54266946972615)" fill="#dc3546b3" filter="url(#bbburst-blur-2)"></use><use xlink:href="#bbburst-shape-1" width="23.971012075091934" opacity="0.583836090827669" transform="matrix(0.9966362254583738,-0.08195263329561395,0.08195263329561395,0.9966362254583738,168.6520259517103,-13.224905780302947)" fill="#dc3545" filter="url(#bbburst-blur-1)"></use><use xlink:href="#bbburst-shape-4" width="29.573678017207694" opacity="0.4994335723886897" transform="matrix(0.9650986716650064,-0.26188652876854907,0.26188652876854907,0.9650986716650064,129.53758193572475,-148.88781389648548)" fill="#dc3545" filter="url(#bbburst-blur-2)"></use><use xlink:href="#bbburst-shape-12" width="27.02656097256117" opacity="0.18523636502307494" transform="matrix(1.2080385045951734,-0.3211587947035815,0.3211587947035815,1.2080385045951734,618.0388870428795,-131.59101620629474)" fill="none" stroke="#dc3546b3" filter="url(#bbburst-blur-3)"></use><use xlink:href="#bbburst-shape-8" width="38.050412499813014" opacity="0.1795390221998423" transform="matrix(1.1705227990578346,-0.4386073151303024,0.4386073151303024,1.1705227990578346,319.1488652601853,290.3605265655208)" fill="none" stroke="#dc3546b3" filter="url(#bbburst-blur-3)"></use><use xlink:href="#bbburst-shape-10" width="28.8578363691145" opacity="0.5010569375472355" transform="matrix(0.9983008258913815,-0.05827058455675343,0.05827058455675343,0.9983008258913815,141.88097589417524,44.32479075567494)" fill="none" stroke="#dc3545" filter="url(#bbburst-blur-2)"></use><use xlink:href="#bbburst-shape-8" width="32.42352083727041" opacity="0.4674871719134862" transform="matrix(0.9689062715009539,-0.2474280441787468,0.2474280441787468,0.9689062715009539,327.2291578890446,-219.48901945812236)" fill="none" stroke="#ff5c58" filter="url(#bbburst-blur-2)"></use><use xlink:href="#bbburst-shape-5" width="32.6827678674554" opacity="0.5625697121601951" transform="matrix(0.9384652980532928,0.34537354321045544,-0.34537354321045544,0.9384652980532928,349.8067700652088,-74.92387258141758)" fill="#ff5c58" filter="url(#bbburst-blur-1)"></use><use xlink:href="#bbburst-shape-8" width="16.952718811846008" opacity="0.709102674072014" transform="matrix(0.9053367297001198,0.4246944853137278,-0.4246944853137278,0.9053367297001198,440.60035524095713,82.72569706430608)" fill="none" stroke="#dc3546b3" filter="url(#bbburst-blur-1)"></use><use xlink:href="#bbburst-shape-8" width="20.56411383335621" opacity="0.7225280743721567" transform="matrix(0.7700383274606315,0.6379976287116068,-0.6379976287116068,0.7700383274606315,770.1990419878557,107.37658441229348)" fill="none" stroke="#dc3545" filter="url(#bbburst-blur-1)"></use><use xlink:href="#bbburst-shape-12" width="29.86755658351781" opacity="0.38652725517519204" transform="matrix(0.8337254944385201,0.5521791375298829,-0.5521791375298829,0.8337254944385201,870.3269646903996,145.5771206665773)" fill="none" stroke="#dc3546b3" filter="url(#bbburst-blur-2)"></use><use xlink:href="#bbburst-shape-12" width="22.14030086313366" opacity="0.7402310497009423" transform="matrix(0.9998578150092927,0.016862673715725553,-0.016862673715725553,0.9998578150092927,312.16638163517405,81.62638106545091)" fill="none" stroke="#dc3545" filter="url(#bbburst-blur-1)"></use><use xlink:href="#bbburst-shape-10" width="16.770427340065048" opacity="0.8042050674997148" transform="matrix(0.9334344313221005,0.35874804866700943,-0.35874804866700943,0.9334344313221005,454.3272406419095,57.47023584519576)" fill="none" stroke="#dc3546b3"></use><use xlink:href="#bbburst-shape-5" width="18.48903120215455" opacity="0.8822633559774692" transform="matrix(0.9989640745893186,0.04550579831083521,-0.04550579831083521,0.9989640745893186,444.22247533836855,-39.555235205033796)" fill="#dc3546b3"></use><use xlink:href="#bbburst-shape-10" width="47.350504743219496" opacity="0.17783509829208088" transform="matrix(1.007798372168628,0.7394879586945708,-0.7394879586945708,1.007798372168628,536.3099746915384,-364.8458570903946)" fill="none" stroke="#ff5c58" filter="url(#bbburst-blur-3)"></use><use xlink:href="#bbburst-shape-8" width="25.15316197478104" opacity="0.5208914297218037" transform="matrix(0.8967303644766512,-0.44257728525713147,0.44257728525713147,0.8967303644766512,306.51574510234946,-146.7524341025621)" fill="none" stroke="#ff5c58" filter="url(#bbburst-blur-2)"></use><use xlink:href="#bbburst-shape-12" width="40.937638700096144" opacity="0.39397047669528973" transform="matrix(0.8748738645506984,-0.484350824430109,0.484350824430109,0.8748738645506984,461.0225526783606,57.96991952587837)" fill="none" stroke="#dc3545" filter="url(#bbburst-blur-2)"></use><use xlink:href="#bbburst-shape-12" width="25.04816876170543" opacity="0.5981767393227495" transform="matrix(0.9968623568456205,-0.07915454190502755,0.07915454190502755,0.9968623568456205,521.5328261345327,-70.22234773326562)" fill="none" stroke="#dc3546b3" filter="url(#bbburst-blur-1)"></use><use xlink:href="#bbburst-shape-8" width="35.806505692467404" opacity="0.026157304091537603" transform="matrix(1.4548092979529026,-0.97264068729916,0.97264068729916,1.4548092979529026,338.6620191053201,-423.1525120606328)" fill="none" stroke="#ff5c58" filter="url(#bbburst-blur-4)"></use><use xlink:href="#bbburst-shape-10" width="33.203831854258475" opacity="0.3133229333997176" transform="matrix(1.213675038528861,0.2991536408803467,-0.2991536408803467,1.213675038528861,536.1678351680567,-397.2593700388396)" fill="none" stroke="#dc3545" filter="url(#bbburst-blur-3)"></use><use xlink:href="#bbburst-shape-12" width="31.175770895793804" opacity="0.5301936813919229" transform="matrix(0.9985096656964177,-0.05457515470274132,0.05457515470274132,0.9985096656964177,487.1030222930498,172.25566883466706)" fill="none" stroke="#dc3545" filter="url(#bbburst-blur-2)"></use><use xlink:href="#bbburst-shape-4" width="11.718917933679522" opacity="0.9330973292824719" transform="matrix(0.9800801110422839,0.1986025577361592,-0.1986025577361592,0.9800801110422839,479.7646033917052,36.30293311611342)" fill="#dc3545"></use><use xlink:href="#bbburst-shape-12" width="25.05708971917618" opacity="0.6508816147785499" transform="matrix(0.8985236081891367,0.43892519354301684,-0.43892519354301684,0.8985236081891367,654.2485976959975,-93.77708982751983)" fill="none" stroke="#dc3545" filter="url(#bbburst-blur-1)"></use></svg>