<svg xmlns="http://www.w3.org/2000/svg" xmlns:xlink="http://www.w3.org/1999/xlink" width="100" zoomAndPan="magnify" viewBox="0 0 75 74.999997" height="100" preserveAspectRatio="xMidYMid meet" version="1.0"><path fill="#231f20" d="M 50 14.0625 L 40.625 14.0625 L 40.625 12.5 C 40.625 9.921875 38.515625 7.8125 35.9375 7.8125 L 26.5625 7.8125 C 23.984375 7.8125 21.875 9.921875 21.875 12.5 L 21.875 14.0625 L 12.5 14.0625 C 9.921875 14.0625 7.8125 16.171875 7.8125 18.75 L 7.8125 62.5 C 7.8125 65.078125 9.921875 67.1875 12.5 67.1875 L 50 67.1875 C 52.578125 67.1875 54.6875 65.078125 54.6875 62.5 L 54.6875 18.75 C 54.6875 16.171875 52.578125 14.0625 50 14.0625 Z M 25 12.5 C 25 11.640625 25.703125 10.9375 26.5625 10.9375 L 35.9375 10.9375 C 36.796875 10.9375 37.5 11.640625 37.5 12.5 L 37.5 14.0625 L 25 14.0625 Z M 20.3125 17.1875 L 42.1875 17.1875 L 42.1875 20.3125 L 20.3125 20.3125 Z M 45.3125 23.4375 L 45.3125 57.8125 L 17.1875 57.8125 L 17.1875 23.4375 Z M 51.5625 62.5 C 51.5625 63.359375 50.859375 64.0625 50 64.0625 L 12.5 64.0625 C 11.640625 64.0625 10.9375 63.359375 10.9375 62.5 L 10.9375 18.75 C 10.9375 17.890625 11.640625 17.1875 12.5 17.1875 L 17.1875 17.1875 L 17.1875 20.3125 L 15.625 20.3125 C 14.765625 20.3125 14.0625 21.015625 14.0625 21.875 L 14.0625 59.375 C 14.0625 60.234375 14.765625 60.9375 15.625 60.9375 L 46.875 60.9375 C 47.734375 60.9375 48.4375 60.234375 48.4375 59.375 L 48.4375 21.875 C 48.4375 21.015625 47.734375 20.3125 46.875 20.3125 L 45.3125 20.3125 L 45.3125 17.1875 L 50 17.1875 C 50.859375 17.1875 51.5625 17.890625 51.5625 18.75 Z M 51.5625 62.5 " fill-opacity="1" fill-rule="nonzero"/><path fill="#231f20" d="M 62.5 15.625 C 59.914062 15.625 57.8125 17.726562 57.8125 20.3125 L 57.8125 59.375 C 57.8125 59.617188 57.867188 59.855469 57.976562 60.074219 L 61.101562 66.324219 C 61.367188 66.851562 61.90625 67.1875 62.5 67.1875 C 63.09375 67.1875 63.632812 66.851562 63.898438 66.324219 L 67.023438 60.074219 C 67.132812 59.855469 67.1875 59.617188 67.1875 59.375 L 67.1875 20.3125 C 67.1875 17.726562 65.085938 15.625 62.5 15.625 Z M 60.9375 25 L 64.0625 25 L 64.0625 35.9375 L 60.9375 35.9375 Z M 60.9375 39.0625 L 64.0625 39.0625 L 64.0625 54.6875 L 60.9375 54.6875 Z M 62.5 18.75 C 63.363281 18.75 64.0625 19.449219 64.0625 20.3125 L 64.0625 21.875 L 60.9375 21.875 L 60.9375 20.3125 C 60.9375 19.449219 61.636719 18.75 62.5 18.75 Z M 62.5 62.132812 L 60.9375 59.007812 L 60.9375 57.8125 L 64.0625 57.8125 L 64.0625 59.007812 Z M 62.5 62.132812 " fill-opacity="1" fill-rule="nonzero"/><path fill="#231f20" d="M 34.375 29.6875 L 40.625 29.6875 C 41.488281 29.6875 42.1875 28.988281 42.1875 28.125 C 42.1875 27.261719 41.488281 26.5625 40.625 26.5625 L 34.375 26.5625 C 33.511719 26.5625 32.8125 27.261719 32.8125 28.125 C 32.8125 28.988281 33.511719 29.6875 34.375 29.6875 Z M 34.375 29.6875 " fill-opacity="1" fill-rule="nonzero"/><path fill="#231f20" d="M 34.375 35.9375 L 40.625 35.9375 C 41.488281 35.9375 42.1875 35.238281 42.1875 34.375 C 42.1875 33.511719 41.488281 32.8125 40.625 32.8125 L 34.375 32.8125 C 33.511719 32.8125 32.8125 33.511719 32.8125 34.375 C 32.8125 35.238281 33.511719 35.9375 34.375 35.9375 Z M 34.375 35.9375 " fill-opacity="1" fill-rule="nonzero"/><path fill="#231f20" d="M 34.375 42.1875 L 40.625 42.1875 C 41.488281 42.1875 42.1875 41.488281 42.1875 40.625 C 42.1875 39.761719 41.488281 39.0625 40.625 39.0625 L 34.375 39.0625 C 33.511719 39.0625 32.8125 39.761719 32.8125 40.625 C 32.8125 41.488281 33.511719 42.1875 34.375 42.1875 Z M 34.375 42.1875 " fill-opacity="1" fill-rule="nonzero"/><path fill="#231f20" d="M 34.375 48.4375 L 40.625 48.4375 C 41.488281 48.4375 42.1875 47.738281 42.1875 46.875 C 42.1875 46.011719 41.488281 45.3125 40.625 45.3125 L 34.375 45.3125 C 33.511719 45.3125 32.8125 46.011719 32.8125 46.875 C 32.8125 47.738281 33.511719 48.4375 34.375 48.4375 Z M 34.375 48.4375 " fill-opacity="1" fill-rule="nonzero"/><path fill="#231f20" d="M 40.625 51.5625 L 21.875 51.5625 C 21.011719 51.5625 20.3125 52.261719 20.3125 53.125 C 20.3125 53.988281 21.011719 54.6875 21.875 54.6875 L 40.625 54.6875 C 41.488281 54.6875 42.1875 53.988281 42.1875 53.125 C 42.1875 52.261719 41.488281 51.5625 40.625 51.5625 Z M 40.625 51.5625 " fill-opacity="1" fill-rule="nonzero"/><path fill="#231f20" d="M 23.113281 33.917969 C 23.417969 34.222656 23.820312 34.375 24.21875 34.375 C 24.617188 34.375 25.019531 34.222656 25.324219 33.917969 L 30.011719 29.230469 C 30.621094 28.621094 30.621094 27.628906 30.011719 27.019531 C 29.402344 26.410156 28.410156 26.410156 27.800781 27.019531 L 24.21875 30.601562 L 22.199219 28.582031 C 21.589844 27.972656 20.597656 27.972656 19.988281 28.582031 C 19.378906 29.191406 19.378906 30.183594 19.988281 30.792969 Z M 23.113281 33.917969 " fill-opacity="1" fill-rule="nonzero"/><path fill="#231f20" d="M 23.113281 47.980469 C 23.417969 48.285156 23.820312 48.4375 24.21875 48.4375 C 24.617188 48.4375 25.019531 48.285156 25.324219 47.980469 L 30.011719 43.292969 C 30.621094 42.683594 30.621094 41.691406 30.011719 41.082031 C 29.402344 40.472656 28.410156 40.472656 27.800781 41.082031 L 24.21875 44.664062 L 22.199219 42.644531 C 21.589844 42.035156 20.597656 42.035156 19.988281 42.644531 C 19.378906 43.253906 19.378906 44.246094 19.988281 44.855469 Z M 23.113281 47.980469 " fill-opacity="1" fill-rule="nonzero"/></svg>