<svg id="Layer_1" enable-background="new 0 0 65 65" viewBox="0 0 65 65" xmlns="http://www.w3.org/2000/svg" xmlns:xlink="http://www.w3.org/1999/xlink"><linearGradient id="SVGID_1_" gradientUnits="userSpaceOnUse" x1="2.595" x2="44.538" y1="56.752" y2="14.809"><stop offset="0" stop-color="#4656a1"/><stop offset="1" stop-color="#84c8d3"/></linearGradient><linearGradient id="lg1"><stop offset="0" stop-color="#f3aa0f"/><stop offset="1" stop-color="#fed46e"/></linearGradient><linearGradient id="SVGID_2_" gradientUnits="userSpaceOnUse" x1="7.974" x2="45.773" xlink:href="#lg1" y1="43.608" y2="43.608"/><linearGradient id="SVGID_3_" gradientUnits="userSpaceOnUse" x1="36.879" x2="57.5" xlink:href="#lg1" y1="44.355" y2="44.355"/><g><path d="m54.87.5h-44.74c-5.32 0-9.63 4.31-9.63 9.63v44.75c0 5.32 4.31 9.63 9.63 9.63h44.75c5.32 0 9.63-4.31 9.63-9.63v-44.75c-.01-5.32-4.32-9.63-9.64-9.63z" fill="#f4f4f6"/><g><path d="m36.88 45.02 10.98-13.81 9.64 13.76v-35.39c0-1.15-.93-2.08-2.08-2.08h-45.84c-1.15 0-2.08.93-2.08 2.08v45.83c0 .5.18.95.47 1.31 5-7.26 18-27.01 18-27.01z" fill="url(#SVGID_1_)"/><path d="m25.97 29.72s-13 19.75-18 27.01c.38.47.96.78 1.61.78h36.19z" fill="url(#SVGID_2_)"/><path d="m47.86 31.21-10.98 13.81 8.89 12.48h9.64c1.15 0 2.08-.93 2.08-2.08v-10.45z" fill="url(#SVGID_3_)"/><circle cx="36.41" cy="21.82" fill="#fff" r="6.18"/></g></g></svg>