<svg xmlns="http://www.w3.org/2000/svg" xmlns:xlink="http://www.w3.org/1999/xlink" width="200" zoomAndPan="magnify" viewBox="0 0 150 74.999997" height="100" preserveAspectRatio="xMidYMid meet" version="1.0"><defs><clipPath id="4a13317213"><path d="M 24.359375 2.757812 L 126.226562 2.757812 L 126.226562 71.675781 L 24.359375 71.675781 Z M 24.359375 2.757812 " clip-rule="nonzero"/></clipPath><clipPath id="bcb7577ffc"><path d="M 100.222656 9.308594 L 116.964844 9.308594 L 116.964844 65.125 L 100.222656 65.125 Z M 100.222656 9.308594 " clip-rule="nonzero"/></clipPath><clipPath id="bcb5e5e30b"><path d="M 0.222656 0.308594 L 16.964844 0.308594 L 16.964844 56.125 L 0.222656 56.125 Z M 0.222656 0.308594 " clip-rule="nonzero"/></clipPath><clipPath id="a183eb5ea7"><rect x="0" width="17" y="0" height="57"/></clipPath><clipPath id="ca7fa6a7a0"><path d="M 75 9 L 113 9 L 113 47 L 75 47 Z M 75 9 " clip-rule="nonzero"/></clipPath><clipPath id="69e3869a71"><path d="M 100.273438 9.3125 L 112.113281 21.152344 L 87.132812 46.136719 L 75.292969 34.296875 Z M 100.273438 9.3125 " clip-rule="nonzero"/></clipPath><clipPath id="237be30503"><path d="M 0.121094 0.121094 L 37.320312 0.121094 L 37.320312 37.320312 L 0.121094 37.320312 Z M 0.121094 0.121094 " clip-rule="nonzero"/></clipPath><clipPath id="5173448c77"><path d="M 25.273438 0.3125 L 37.113281 12.152344 L 12.132812 37.136719 L 0.292969 25.296875 Z M 25.273438 0.3125 " clip-rule="nonzero"/></clipPath><clipPath id="b057db449a"><rect x="0" width="38" y="0" height="38"/></clipPath><clipPath id="4d0749acb3"><path d="M 75.289062 33.75 L 87.390625 33.75 L 87.390625 58.042969 L 75.289062 58.042969 Z M 75.289062 33.75 " clip-rule="nonzero"/></clipPath><clipPath id="9bb319e3f9"><path d="M 87.390625 45.894531 L 75.289062 58.039062 L 75.289062 33.75 Z M 87.390625 45.894531 " clip-rule="nonzero"/></clipPath><clipPath id="4ceaa76b45"><path d="M 0.289062 0.75 L 12.390625 0.75 L 12.390625 25.042969 L 0.289062 25.042969 Z M 0.289062 0.75 " clip-rule="nonzero"/></clipPath><clipPath id="cba8fd1038"><path d="M 12.390625 12.894531 L 0.289062 25.039062 L 0.289062 0.75 Z M 12.390625 12.894531 " clip-rule="nonzero"/></clipPath><clipPath id="75881f5d1f"><rect x="0" width="13" y="0" height="26"/></clipPath></defs><g clip-path="url(#4a13317213)"><path stroke-linecap="butt" transform="matrix(0.75, 0, 0, 0.75, 24.357937, 2.756273)" fill="none" stroke-linejoin="miter" d="M 0.00191668 0.00205261 L 135.824836 0.00205261 L 135.824836 91.892679 L 0.00191668 91.892679 Z M 0.00191668 0.00205261 " stroke="#c7bdbd" stroke-width="4" stroke-opacity="1" stroke-miterlimit="4"/></g><g clip-path="url(#bcb7577ffc)"><g transform="matrix(1, 0, 0, 1, 100, 9)"><g clip-path="url(#a183eb5ea7)"><g clip-path="url(#bcb5e5e30b)"><path fill="#c7bdbd" d="M 0.222656 0.308594 L 16.964844 0.308594 L 16.964844 56.101562 L 0.222656 56.101562 Z M 0.222656 0.308594 " fill-opacity="1" fill-rule="nonzero"/></g></g></g></g><g clip-path="url(#ca7fa6a7a0)"><g clip-path="url(#69e3869a71)"><g transform="matrix(1, 0, 0, 1, 75, 9)"><g clip-path="url(#b057db449a)"><g clip-path="url(#237be30503)"><g clip-path="url(#5173448c77)"><path fill="#c7bdbd" d="M 25.273438 0.3125 L 37.113281 12.152344 L 12.136719 37.128906 L 0.296875 25.289062 Z M 25.273438 0.3125 " fill-opacity="1" fill-rule="nonzero"/></g></g></g></g></g></g><g clip-path="url(#4d0749acb3)"><g clip-path="url(#9bb319e3f9)"><g transform="matrix(1, 0, 0, 1, 75, 33)"><g clip-path="url(#75881f5d1f)"><g clip-path="url(#4ceaa76b45)"><g clip-path="url(#cba8fd1038)"><path fill="#c7bdbd" d="M 12.390625 0.75 L 12.390625 25.042969 L 0.289062 25.042969 L 0.289062 0.75 Z M 12.390625 0.75 " fill-opacity="1" fill-rule="nonzero"/></g></g></g></g></g></g><path stroke-linecap="butt" transform="matrix(0.75, 0, 0, 0.75, 31.419474, 64.750203)" fill="none" stroke-linejoin="miter" d="M -0.00200726 0.499729 L 28.57612 0.499729 " stroke="#c7bdbd" stroke-width="1" stroke-opacity="1" stroke-miterlimit="4"/><path stroke-linecap="butt" transform="matrix(0.75, 0, 0, 0.75, 31.419474, 8.935425)" fill="none" stroke-linejoin="miter" d="M -0.00200726 0.497558 L 28.57612 0.497558 " stroke="#c7bdbd" stroke-width="1" stroke-opacity="1" stroke-miterlimit="4"/><path stroke-linecap="butt" transform="matrix(-0.530433, -0.530227, 0.530227, -0.530433, 75.02643, 58.301325)" fill="none" stroke-linejoin="miter" d="M -0.000446354 0.502241 L 50.443527 0.500997 " stroke="#c7bdbd" stroke-width="1" stroke-opacity="1" stroke-miterlimit="4"/><path stroke-linecap="butt" transform="matrix(0, -0.75, 0.75, 0, 49.977205, 66.919995)" fill="none" stroke-linejoin="miter" d="M -0.00250649 0.499143 L 49.252706 0.499143 " stroke="#c7bdbd" stroke-width="1" stroke-opacity="1" stroke-miterlimit="4"/><path stroke-linecap="butt" transform="matrix(-0.53033, -0.53033, 0.53033, -0.53033, 76.114106, 35.647068)" fill="none" stroke-linejoin="miter" d="M -0.000514281 0.498799 L 52.5169 0.498799 " stroke="#c7bdbd" stroke-width="1" stroke-opacity="1" stroke-miterlimit="4"/><path stroke-linecap="butt" transform="matrix(0, -0.75, 0.75, 0, 33.228351, 66.915565)" fill="none" stroke-linejoin="miter" d="M 0.00200298 0.497615 L 79.574926 0.497615 " stroke="#c7bdbd" stroke-width="1" stroke-opacity="1" stroke-miterlimit="4"/><path stroke-linecap="butt" transform="matrix(0.75, 0, 0, 0.75, 22.191298, 2.867811)" fill="none" stroke-linejoin="miter" d="M 0.000144243 0.999168 L 5.776186 0.999168 " stroke="#c7bdbd" stroke-width="2" stroke-opacity="1" stroke-miterlimit="4"/><path stroke-linecap="butt" transform="matrix(0, 0.75, -0.75, 0, 25.964946, 0.766471)" fill="none" stroke-linejoin="miter" d="M -0.00112861 1.000136 L 5.774914 1.000136 " stroke="#c7bdbd" stroke-width="2" stroke-opacity="1" stroke-miterlimit="4"/><path stroke-linecap="butt" transform="matrix(0, -0.75, 0.75, 0, 24.464946, 74.013773)" fill="none" stroke-linejoin="miter" d="M -0.00246939 0.999864 L 5.778781 0.999864 " stroke="#c7bdbd" stroke-width="2" stroke-opacity="1" stroke-miterlimit="4"/><path stroke-linecap="butt" transform="matrix(0.75, 0, 0, 0.75, 22.191298, 70.067813)" fill="none" stroke-linejoin="miter" d="M 0.000144243 0.998124 L 5.776186 0.998124 " stroke="#c7bdbd" stroke-width="2" stroke-opacity="1" stroke-miterlimit="4"/></svg>