<svg xmlns="http://www.w3.org/2000/svg" xmlns:xlink="http://www.w3.org/1999/xlink" width="100" zoomAndPan="magnify" viewBox="0 0 75 74.999997" height="100" preserveAspectRatio="xMidYMid meet" version="1.0"><defs><clipPath id="e28c0e5248"><path d="M 2.851562 26.25 L 25.351562 26.25 L 25.351562 48.75 L 2.851562 48.75 Z M 2.851562 26.25 " clip-rule="nonzero"/></clipPath><clipPath id="ff89765bfa"><path d="M 5.851562 26.25 L 22.351562 26.25 C 23.144531 26.25 23.910156 26.566406 24.472656 27.128906 C 25.035156 27.691406 25.351562 28.453125 25.351562 29.25 L 25.351562 45.75 C 25.351562 46.546875 25.035156 47.308594 24.472656 47.871094 C 23.910156 48.433594 23.144531 48.75 22.351562 48.75 L 5.851562 48.75 C 5.054688 48.75 4.292969 48.433594 3.730469 47.871094 C 3.164062 47.308594 2.851562 46.546875 2.851562 45.75 L 2.851562 29.25 C 2.851562 28.453125 3.164062 27.691406 3.730469 27.128906 C 4.292969 26.566406 5.054688 26.25 5.851562 26.25 Z M 5.851562 26.25 " clip-rule="nonzero"/></clipPath><clipPath id="7a78a2b354"><path d="M 2.851562 49.5 L 25.351562 49.5 L 25.351562 72 L 2.851562 72 Z M 2.851562 49.5 " clip-rule="nonzero"/></clipPath><clipPath id="eced510712"><path d="M 4.875 62.25 L 12.601562 62.25 L 12.601562 69.976562 L 4.875 69.976562 Z M 4.875 62.25 " clip-rule="nonzero"/></clipPath><clipPath id="aeeb5d9ee8"><path d="M 8.738281 62.25 C 6.605469 62.25 4.875 63.980469 4.875 66.113281 C 4.875 68.246094 6.605469 69.976562 8.738281 69.976562 C 10.871094 69.976562 12.601562 68.246094 12.601562 66.113281 C 12.601562 63.980469 10.871094 62.25 8.738281 62.25 Z M 8.738281 62.25 " clip-rule="nonzero"/></clipPath><clipPath id="229ced63f1"><path d="M 15.636719 62.25 L 23.363281 62.25 L 23.363281 69.976562 L 15.636719 69.976562 Z M 15.636719 62.25 " clip-rule="nonzero"/></clipPath><clipPath id="1d3f929b53"><path d="M 19.5 62.25 C 17.367188 62.25 15.636719 63.980469 15.636719 66.113281 C 15.636719 68.246094 17.367188 69.976562 19.5 69.976562 C 21.632812 69.976562 23.363281 68.246094 23.363281 66.113281 C 23.363281 63.980469 21.632812 62.25 19.5 62.25 Z M 19.5 62.25 " clip-rule="nonzero"/></clipPath><clipPath id="f0d6fabc5d"><path d="M 4.855469 51.636719 L 12.582031 51.636719 L 12.582031 59.363281 L 4.855469 59.363281 Z M 4.855469 51.636719 " clip-rule="nonzero"/></clipPath><clipPath id="2eca57163b"><path d="M 8.71875 51.636719 C 6.585938 51.636719 4.855469 53.367188 4.855469 55.5 C 4.855469 57.632812 6.585938 59.363281 8.71875 59.363281 C 10.851562 59.363281 12.582031 57.632812 12.582031 55.5 C 12.582031 53.367188 10.851562 51.636719 8.71875 51.636719 Z M 8.71875 51.636719 " clip-rule="nonzero"/></clipPath><clipPath id="5a191568f4"><path d="M 15.617188 51.636719 L 23.34375 51.636719 L 23.34375 59.363281 L 15.617188 59.363281 Z M 15.617188 51.636719 " clip-rule="nonzero"/></clipPath><clipPath id="5a9b8eaf3d"><path d="M 19.480469 51.636719 C 17.347656 51.636719 15.617188 53.367188 15.617188 55.5 C 15.617188 57.632812 17.347656 59.363281 19.480469 59.363281 C 21.613281 59.363281 23.34375 57.632812 23.34375 55.5 C 23.34375 53.367188 21.613281 51.636719 19.480469 51.636719 Z M 19.480469 51.636719 " clip-rule="nonzero"/></clipPath><clipPath id="75ad854903"><path d="M 16.820312 34.820312 L 22.070312 34.820312 L 22.070312 40.070312 L 16.820312 40.070312 Z M 16.820312 34.820312 " clip-rule="nonzero"/></clipPath><clipPath id="044a308bc4"><path d="M 19.496094 34.820312 C 18.015625 34.820312 16.820312 36.019531 16.820312 37.496094 C 16.820312 38.976562 18.015625 40.175781 19.496094 40.175781 C 20.976562 40.175781 22.175781 38.976562 22.175781 37.496094 C 22.175781 36.019531 20.976562 34.820312 19.496094 34.820312 Z M 19.496094 34.820312 " clip-rule="nonzero"/></clipPath><clipPath id="b2b809352c"><path d="M 2.851562 3 L 25.351562 3 L 25.351562 25.5 L 2.851562 25.5 Z M 2.851562 3 " clip-rule="nonzero"/></clipPath><clipPath id="f032859fbe"><path d="M 49.648438 3 L 72.148438 3 L 72.148438 72 L 49.648438 72 Z M 49.648438 3 " clip-rule="nonzero"/></clipPath></defs><g clip-path="url(#e28c0e5248)"><g clip-path="url(#ff89765bfa)"><path stroke-linecap="butt" transform="matrix(0.75, 0, 0, 0.75, 2.849911, 26.249997)" fill="none" stroke-linejoin="miter" d="M 4.002202 0.00000419167 L 26.002203 0.00000419167 C 27.059494 0.00000419167 28.080328 0.421879 28.830328 1.171879 C 29.580328 1.921879 30.002203 2.937504 30.002203 4.000004 L 30.002203 26.000005 C 30.002203 27.062505 29.580328 28.07813 28.830328 28.82813 C 28.080328 29.57813 27.059494 30.000005 26.002203 30.000005 L 4.002202 30.000005 C 2.939702 30.000005 1.924077 29.57813 1.174077 28.82813 C 0.418869 28.07813 0.00220219 27.062505 0.00220219 26.000005 L 0.00220219 4.000004 C 0.00220219 2.937504 0.418869 1.921879 1.174077 1.171879 C 1.924077 0.421879 2.939702 0.00000419167 4.002202 0.00000419167 Z M 4.002202 0.00000419167 " stroke="#000000" stroke-width="4" stroke-opacity="1" stroke-miterlimit="4"/></g></g><g clip-path="url(#7a78a2b354)"><path stroke-linecap="butt" transform="matrix(0.75, 0, 0, 0.75, 2.849911, 49.499995)" fill="none" stroke-linejoin="miter" d="M 0.00220219 0.00000672333 L 30.002203 0.00000672333 L 30.002203 30.000007 L 0.00220219 30.000007 Z M 0.00220219 0.00000672333 " stroke="#000000" stroke-width="4" stroke-opacity="1" stroke-miterlimit="4"/></g><g clip-path="url(#eced510712)"><g clip-path="url(#aeeb5d9ee8)"><path fill="#000000" d="M 4.875 62.25 L 12.601562 62.25 L 12.601562 69.976562 L 4.875 69.976562 Z M 4.875 62.25 " fill-opacity="1" fill-rule="nonzero"/></g></g><g clip-path="url(#229ced63f1)"><g clip-path="url(#1d3f929b53)"><path fill="#000000" d="M 15.636719 62.25 L 23.363281 62.25 L 23.363281 69.976562 L 15.636719 69.976562 Z M 15.636719 62.25 " fill-opacity="1" fill-rule="nonzero"/></g></g><g clip-path="url(#f0d6fabc5d)"><g clip-path="url(#2eca57163b)"><path fill="#000000" d="M 4.855469 51.636719 L 12.582031 51.636719 L 12.582031 59.363281 L 4.855469 59.363281 Z M 4.855469 51.636719 " fill-opacity="1" fill-rule="nonzero"/></g></g><g clip-path="url(#5a191568f4)"><g clip-path="url(#5a9b8eaf3d)"><path fill="#000000" d="M 15.617188 51.636719 L 23.34375 51.636719 L 23.34375 59.363281 L 15.617188 59.363281 Z M 15.617188 51.636719 " fill-opacity="1" fill-rule="nonzero"/></g></g><g clip-path="url(#75ad854903)"><g clip-path="url(#044a308bc4)"><path stroke-linecap="butt" transform="matrix(0.75, 0, 0, 0.75, 16.818692, 34.818882)" fill="none" stroke-linejoin="miter" d="M 3.56987 0.00190766 C 1.595911 0.00190766 0.00216124 1.600866 0.00216124 3.569616 C 0.00216124 5.543575 1.595911 7.142533 3.56987 7.142533 C 5.543828 7.142533 7.142787 5.543575 7.142787 3.569616 C 7.142787 1.600866 5.543828 0.00190766 3.56987 0.00190766 Z M 3.56987 0.00190766 " stroke="#000000" stroke-width="4" stroke-opacity="1" stroke-miterlimit="4"/></g></g><path stroke-linecap="round" transform="matrix(0.75, 0, 0, 0.75, 3.84377, 36.749996)" fill="none" stroke-linejoin="miter" d="M 0.999973 1.000005 L 11.999974 1.000005 " stroke="#000000" stroke-width="2" stroke-opacity="1" stroke-miterlimit="4"/><g clip-path="url(#b2b809352c)"><path stroke-linecap="butt" transform="matrix(0.75, 0, 0, 0.75, 2.849911, 2.999999)" fill="none" stroke-linejoin="miter" d="M 0.00220219 0.00000166 L 30.002203 0.00000166 L 30.002203 30.000002 L 0.00220219 30.000002 Z M 0.00220219 0.00000166 " stroke="#000000" stroke-width="4" stroke-opacity="1" stroke-miterlimit="4"/></g><g clip-path="url(#f032859fbe)"><path stroke-linecap="butt" transform="matrix(0.75, 0, 0, 0.75, 49.650086, 2.999999)" fill="none" stroke-linejoin="miter" d="M -0.00219833 0.000000732 L 29.997802 0.000000732 L 29.997802 92.000002 L -0.00219833 92.000002 Z M -0.00219833 0.000000732 " stroke="#000000" stroke-width="4" stroke-opacity="1" stroke-miterlimit="4"/></g></svg>