<svg enable-background="new 0 0 1000 1000" viewBox="0 0 1000 1000" xmlns="http://www.w3.org/2000/svg"><g><g transform="matrix(.1 0 0 -.1 0 511)"><path d="m924.7 4963.6c-102.8-70.6-155.3-159.3-169.4-302.5-24.2-227.9-2-2480.2 24.2-2524.6 18.1-32.3 18.1-50.4 0-80.7-18.2-30.2-24.2-818.7-24.2-3147.7v-3105.3l54.4-84.7c96.8-145.2 133.1-155.3 586.8-161.3l397.3-8.1v-169.4-169.3h161.3 161.3v171.4 171.4h786.4 786.4v-171.4-171.4h161.3 161.3v169.4 169.4l399.3 8.1c395.2 6 401.3 6 481.9 60.5 161.3 106.9 149.2-185.5 141.2 3327.2-4 1722.1-8.1 3141.6-8.1 3151.7 0 12.1 4 619.1 8.1 1353l6 1330.9-46.4 68.6c-24.2 38.3-76.6 90.7-112.9 114.9l-68.6 46.4h-1909.4-1909.6zm3788.9-1490.1 4-1205.8h-1814.7-1814.9v1195.8c0 659.4 6 1203.8 14.1 1209.9 6 8.1 820.7 12.1 1808.8 10.1l1796.7-6zm4.1-4563.3v-3014.6h-1814.8-1814.9v3014.6 3014.6h1814.8 1814.8v-3014.6z"/><path d="m4032.1 3477.5v-685.6h161.3 161.3v685.6 685.6h-161.3-161.3z"/><path d="m4032.1 372.1v-685.6h161.3 161.3v685.6 685.6h-161.3-161.3z"/><path d="m7000.3 2382.6c-28.2-30.2-44.4-72.6-44.4-117 0-60.5 28.2-96.8 252.1-320.6l254.1-254.1-6-334.7-6-336.7-284.3 163.3-282.3 161.3-88.7 336.7c-96.8 363-131.1 425.5-237.9 425.5-32.3 0-82.7-18.1-112.9-42.3-66.5-52.4-68.6-133.1-12.1-330.7 22.2-76.6 40.3-143.2 40.3-147.2 0-2-34.3 14.1-76.6 38.3-129.1 74.6-266.2 6-266.2-133.1 0-70.6 28.2-112.9 119-173.4 48.4-30.2 44.3-32.3-125-76.6-231.9-60.5-296.4-135.1-233.9-272.2 14.1-26.2 50.4-60.5 80.7-74.6 62.5-24.2 78.6-22.2 526.3 100.8l215.8 58.5 197.6-110.9c108.9-62.5 205.7-119 213.7-127 10.1-8.1-78.6-70.6-195.6-139.1l-211.7-123-354.9 94.8-352.9 94.8-56.5-42.3c-74.6-54.4-96.8-127-66.5-203.7 30.2-70.6 36.3-74.6 250-133.1l157.3-44.4-82.7-64.5c-66.5-54.4-80.7-78.7-80.7-137.1 0-137.1 139.2-209.7 262.1-139.1 28.2 16.1 56.5 28.2 64.5 30.2 8 0-4-62.5-26.2-141.1-54.5-197.6-50.4-270.2 14.1-320.6 30.2-24.2 78.6-42.3 108.9-42.3 110.9 0 139.1 50.4 235.9 403.3 48.4 183.5 96.8 340.8 108.9 352.9 10.1 10.1 139.1 88.7 286.3 173.4l266.1 154.9 6-334.7 6-334.7-254-254.1c-227.9-227.9-252.1-260.1-252.1-324.6 0-92.8 66.5-159.3 161.3-159.3 58.5 0 90.7 22.2 203.7 133.1l133.1 133 12.1-94.8c12.1-121 68.6-179.5 167.4-179.5 100.8 0 169.4 78.7 169.4 195.6v82.7l137.1-135.1c119-119 145.2-135.1 211.7-135.1 98.8 0 155.3 56.5 155.3 157.3 0 70.6-18.2 92.8-252.1 326.7l-252.1 252v246c0 137.1 6 248 16.1 248 8.1-2 104.9-54.4 213.8-119l201.7-117 90.7-334.7c50.4-185.5 108.9-354.9 127-377.1 50.4-58.5 177.5-54.5 233.9 6 54.4 58.5 56.4 114.9 4 300.5-22.2 78.6-36.3 149.2-32.3 153.2 6 4 30.2-6 56.5-24.2 108.9-76.6 278.3-8.1 278.3 112.9 0 82.7-20.2 114.9-96.8 167.4-48.4 34.3-62.5 52.4-42.4 58.5 16.2 6.1 82.7 24.2 149.2 42.3 161.3 42.3 203.7 64.5 229.9 125 34.3 72.6 26.2 119-24.2 177.4-62.5 74.6-123 70.6-483.9-28.2-165.3-46.1-306.4-82.4-316.5-82.4-8.1 0-143.2 74.6-300.5 165.4l-284.3 163.2 56.5 34.3c32.3 20.2 163.3 96.8 292.4 169.4l231.9 135.1 342.8-92.8c369-98.8 411.4-98.8 475.9-6 86.7 123-2 229.9-233.9 288.3-86.7 20.2-157.3 46.4-157.3 54.4 0 8.1 8.1 16.1 18.2 16.1s46.4 24.2 80.7 52.4c171.4 143.2-24.2 379.1-211.7 258.1-26.2-18.1-54.5-30.2-58.5-24.2-6 4 8.1 72.6 30.3 149.2s40.3 165.3 40.3 195.6c0 129.1-187.5 207.7-274.2 112.9-22.2-24.2-76.6-181.5-129.1-377.1l-92.7-334.7-215.8-125-215.8-125v244 242l252.1 258.1c235.9 240 252.1 262.1 252.1 334.7 0 100.8-64.5 167.4-159.3 167.4-54.4 0-90.7-24.2-205.7-135.1l-139.1-133.1v84.7c0 139.1-121 221.8-252.1 171.4-44.4-18.1-90.8-114.9-90.8-191.6v-64.5l-139.1 133.1c-116.9 112.9-151.2 135.1-207.7 135.1-46.6.1-84.9-16-113.1-46.2z"/></g></g></svg>