<svg id="Layer_1" height="512" viewBox="0 0 512 512" width="512" xmlns="http://www.w3.org/2000/svg" data-name="Layer 1"><g fill-rule="evenodd"><path d="m157.04 270.171v-138.191l326.96 30.2v107.991a48.064 48.064 0 0 1 -48.011 48.005h-230.945a48.06 48.06 0 0 1 -48.004-48.005z" fill="#00b4ff"/><path d="m453.8 479.385a28.2 28.2 0 1 1 28.2-28.2 28.233 28.233 0 0 1 -28.2 28.2zm-222.9-28.201a28.2 28.2 0 1 1 -28.259-28.184h.115a28.222 28.222 0 0 1 28.144 28.184zm251.1-287.184v106.171a46.063 46.063 0 0 1 -46.011 46.005h-230.945a46.058 46.058 0 0 1 -46-46v-136zm-28.2 228.984c-.7 0-1.389.03-2.081.06-.33-.03-.669-.051-1.01-.051h-247.953c-.019 0-.037-.009-.058-.009s-.039.009-.057.009h-20.2a23.4 23.4 0 0 1 0-46.8h253.55a76.1 76.1 0 0 0 76.009-76.022v-111a24.57 24.57 0 0 0 -22.409-24.583l-330.551-30.542v-53.222a24.732 24.732 0 0 0 -19.947-24.217l-121.211-23.707a15 15 0 1 0 -5.76 29.44l116.916 22.883v214.948a75.691 75.691 0 0 0 23.692 55.054 53.37 53.37 0 0 0 3.558 90.9 58.2 58.2 0 1 0 97.3 6.871h149.324a58.183 58.183 0 1 0 50.89-30.011z" fill="#3e6679"/></g></svg>