<svg id="Outline" height="512" viewBox="0 0 64 64" width="512" xmlns="http://www.w3.org/2000/svg"><path d="m61 28c0-1.6543-1.3457-3-3-3h-19v-2c0-1.103-.897-2-2-2h-2v-11c0-.5513.4487-1 1-1s1 .4487 1 1v2c0 .5522.4478 1 1 1h4c.5522 0 1-.4478 1-1v-2c0-3.8599-3.1401-7-7-7-1.8784 0-3.6367.73-4.9443 2.0493-1.3257 1.314-2.0557 3.0723-2.0557 4.9507v4h-2v-1c0-.5522-.4478-1-1-1s-1 .4478-1 1v4c0 .5522.4478 1 1 1s1-.4478 1-1v-1h2v5h-2c-1.103 0-2 .897-2 2v2h-19c-1.6543 0-3 1.3457-3 3 0 1.3019.8385 2.4016 2 2.8157v11.1843c0 3.8594 3.1401 7 7 7h9v2c0 1.1025.897 2 2 2h4v7c0 .5527.4478 1 1 1h8c.5522 0 1-.4473 1-1v-7h4c1.103 0 2-.8975 2-2v-2h9c3.8599 0 7-3.1406 7-7v-11.1843c1.1615-.4141 2-1.5138 2-2.8157zm-30-18c0-1.3408.52-2.5947 1.4702-3.5361.9351-.9438 2.189-1.4639 3.5298-1.4639 2.7568 0 5 2.2432 5 5v1h-2v-1c0-1.6543-1.3457-3-3-3s-3 1.3457-3 3v11h-2zm-4 13h10v2h-10zm8 36h-6v-6h6zm6-8h-18v-2h18zm16-9c0 2.7568-2.2432 5-5 5h-40c-2.7568 0-5-2.2432-5-5v-11h50zm1-13h-52c-.5513 0-1-.4487-1-1s.4487-1 1-1h52c.5513 0 1 .4487 1 1s-.4487 1-1 1z"/></svg>