<svg id="Layer_1" viewBox="0 0 512 512" xmlns="http://www.w3.org/2000/svg" data-name="Layer 1"><circle cx="276.08" cy="254.493" fill="#ccc" r="136.26" transform="matrix(.707 -.707 .707 .707 -99.091 269.757)"/><g fill-rule="evenodd"><path d="m290.58 119.001c68.436 7.24 121.76 65.136 121.76 135.491s-53.324 128.251-121.76 135.491c-68.436-7.24-121.76-65.136-121.76-135.491s53.324-128.251 121.76-135.491z" fill="#e6e6e6"/><path d="m362.773 87.226c20.2 10.422 37.976 24.246 52.793 40.539 2.965 3.261 7.672 3.995 11.489 1.79l15.83-9.139c4.107-2.371 9.283-1.289 12.095 2.53 9.838 13.356 18.163 27.778 24.812 42.975 1.901 4.346.251 9.369-3.857 11.74l-15.833 9.141c-3.817 2.204-5.535 6.646-4.194 10.845 6.699 20.979 9.784 43.283 8.708 65.987-.208 4.402 2.601 8.249 6.859 9.39l17.653 4.73c4.582 1.228 7.476 5.655 6.763 10.344-1.232 8.103-2.921 16.22-5.093 24.322-2.17 8.101-4.765 15.975-7.75 23.608-1.727 4.417-6.447 6.804-11.029 5.576l-17.647-4.728c-4.257-1.14-8.612.785-10.634 4.702-10.423 20.2-24.246 37.977-40.54 52.795-88.064 80.142-249.797 96.746-306.956-82.245-6.7-20.98-9.782-43.287-8.706-65.992.208-4.403-2.6-8.249-6.857-9.39l-17.648-4.728c-4.583-1.228-7.477-5.655-6.764-10.344 1.233-8.102 2.922-16.219 5.093-24.32 2.17-8.102 4.767-15.975 7.75-23.608 1.728-4.417 6.447-6.805 11.029-5.578l17.646 4.728c4.257 1.141 8.613-.785 10.634-4.701 10.423-20.2 24.246-37.976 40.541-52.795 3.26-2.967 3.993-7.673 1.79-11.49l-9.14-15.829c-2.371-4.108-1.288-9.283 2.53-12.096 13.356-9.838 27.779-18.163 42.977-24.811 4.345-1.902 9.368-.25 11.739 3.856l9.137 15.825c2.203 3.817 6.645 5.535 10.845 4.195 20.98-6.7 43.286-9.783 65.992-8.707 4.402.209 8.248-2.6 9.389-6.857l4.728-17.65c1.228-4.582 5.655-7.475 10.344-6.762 8.102 1.231 16.219 2.921 24.321 5.092 8.101 2.17 15.975 4.766 23.608 7.75 4.418 1.727 6.804 6.447 5.576 11.029l-4.728 17.648c-1.14 4.257.786 8.613 4.703 10.634zm-150.242 57.588c-60.79 35.098-81.619 112.83-46.522 173.621 35.098 60.79 112.83 81.619 173.62 46.522 60.79-35.098 81.619-112.83 46.522-173.621-35.098-60.79-112.829-81.619-173.621-46.522z" fill="#00ade6"/><path d="m362.773 87.226c20.2 10.422 37.976 24.246 52.793 40.539 2.965 3.261 7.672 3.995 11.489 1.79l4.024-2.323.487.533c2.965 3.261 7.672 3.995 11.489 1.79l11.78-6.801c.049.063.097.127.145.192 9.838 13.356 18.163 27.778 24.812 42.975 1.901 4.346.251 9.369-3.857 11.74l-15.833 9.141c-3.817 2.204-5.535 6.646-4.194 10.845 6.699 20.979 9.784 43.283 8.708 65.987-.208 4.402 2.601 8.249 6.859 9.39l17.653 4.73c4.582 1.228 7.476 5.655 6.763 10.344-1.232 8.103-2.921 16.22-5.093 24.322-2.17 8.101-4.765 15.975-7.75 23.608-.555 1.42-1.42 2.629-2.489 3.577l-10.186-2.729c-3.113-.834-6.279-.028-8.546 1.997l-7.454-1.997c-4.257-1.14-8.612.785-10.634 4.702-10.423 20.2-24.246 37.977-40.54 52.795-36.279 33.015-85.061 55.227-133.883 57.444-64.166-2.994-126.037-42.498-157.073-139.689-6.7-20.98-9.782-43.287-8.706-65.992.208-4.403-2.6-8.249-6.858-9.39l-17.648-4.728c-4.583-1.228-7.477-5.655-6.764-10.344 1.233-8.102 2.922-16.219 5.093-24.32 2.17-8.102 4.767-15.975 7.75-23.608.556-1.42 1.42-2.63 2.49-3.578l10.185 2.729c3.114.834 6.28.028 8.547-1.997l7.453 1.997c4.257 1.141 8.613-.785 10.634-4.701 10.423-20.2 24.246-37.976 40.541-52.795 3.26-2.967 3.993-7.673 1.79-11.49l-9.14-15.829c-2.371-4.108-1.288-9.283 2.53-12.096 11.795-8.688 24.422-16.195 37.68-22.411.384.444.732.93 1.036 1.456l9.137 15.825c2.203 3.817 6.645 5.535 10.845 4.195 2.268-.724 4.552-1.406 6.85-2.045 2.396 2.262 5.848 3.099 9.15 2.045 15.758-5.032 32.264-8.024 49.127-8.746l.865.039c.741.035 1.466-.016 2.165-.144 4.59-.122 9.204-.076 13.835.144 4.402.209 8.248-2.6 9.389-6.857l4.728-17.65c.58-2.165 1.875-3.953 3.573-5.161 5.032.982 10.065 2.144 15.092 3.491 8.101 2.17 15.975 4.766 23.608 7.75 4.418 1.727 6.804 6.447 5.576 11.029l-4.728 17.648c-1.14 4.257.786 8.613 4.703 10.634zm-78.797 40.8c-24.122-1.524-48.944 3.797-71.445 16.788-60.79 35.098-81.619 112.83-46.522 173.621 24.967 43.242 71.506 66.255 118.175 63.31 24.122 1.524 48.944-3.797 71.445-16.788 60.79-35.098 81.619-112.83 46.522-173.621-24.967-43.243-71.506-66.255-118.175-63.31z" fill="#11bef7"/><path d="m276.08 361.359h-31.601c-7.242 0-13.167-5.926-13.167-13.167v-12.508c0-22.998-12.626-20.101-24.435-38.405-8.283-12.839-13.091-28.132-13.091-44.548 0-45.45 36.844-82.294 82.294-82.294s82.294 36.844 82.294 82.294c0 16.416-4.808 31.709-13.091 44.548-11.809 18.304-24.435 15.407-24.435 38.405v12.508c0 7.242-5.925 13.167-13.167 13.167z" fill="#faa845"/><path d="m276.08 361.359h-17.601c-7.242 0-13.167-5.926-13.167-13.167v-12.508c0-22.998-12.626-20.101-24.435-38.405-8.283-12.839-13.091-28.132-13.091-44.548 0-43.092 33.121-78.442 75.294-81.995 42.173 3.553 75.294 38.904 75.294 81.995 0 16.416-4.808 31.709-13.091 44.548-11.809 18.304-24.435 15.407-24.435 38.405v12.508c0 7.242-5.925 13.167-13.167 13.167z" fill="#f7b84e"/><path d="m306.699 361.359v36.704c0 10.953-9.923 19.915-22.052 19.915h-17.134c-12.129 0-22.052-8.961-22.052-19.915v-36.704z" fill="#cd212d"/><path d="m306.699 361.359v36.704c0 10.953-9.923 19.915-22.052 19.915h-6.534c-12.129 0-22.052-8.961-22.052-19.915v-36.704z" fill="#ee2b39"/><path d="m230.006 262.386c-2.733-2.733-2.733-7.165 0-9.898s7.165-2.733 9.898 0l24.426 24.426 47.926-47.925c2.733-2.733 7.165-2.733 9.898 0s2.733 7.165 0 9.898l-52.875 52.874c-2.733 2.733-7.165 2.733-9.898 0z" fill="#fff"/><path d="m56.368 329.779v70.408s21.182 2.369 21.182 2.369c22.468 2.513 25.391 4.873 45.766 14.576 44.18 21.041 72.606 34.578 94.596 45.05 43.488 20.71 38.067 18.134 87.591 2.277 68.903-22.062 110.565-35.402 124.985-40.019 1.66-.532 2.888-1.619 3.618-3.202.73-1.584.758-3.223.084-4.831-7.462-17.801-27.751-30.06-53.903-23.031l-68.33 15.826-20.201 4.819c-.058.014-6.346-5.947-6.362-13.162-.016-7.233 6.224-15.728-5.822-19.725 0 0-16.838-8.004-50.514-24.011-34.682-58.488-116.721-42.805-172.69-27.345z" fill="#e2b698"/><path d="m56.368 329.779v60.159s21.182 2.369 21.182 2.369c22.468 2.513 25.391 4.873 45.766 14.576 44.18 21.041 72.606 34.578 94.596 45.051 43.488 20.71 38.067 18.134 87.591 2.277 68.903-22.062 110.565-35.402 124.985-40.019.803-.257 1.506-.644 2.099-1.155-8.502-15.93-27.835-26.235-52.3-19.659l-68.33 15.826-20.201 4.819c3.76-3.447 9.415-25.72-12.185-32.887 0 0-16.838-8.004-50.514-24.011-34.682-58.488-116.721-42.805-172.69-27.345z" fill="#efc9ae"/><path d="m303.418 411.24-11.661 2.782c-.347.084-4.456 3.937-9.346 5.607-3.899 1.331-8.309 1.211-12.214-.645l-78.751-37.891c-3.488-1.646-7.651-.153-9.297 3.336-1.646 3.488-.153 7.651 3.336 9.297l78.751 37.891c7.286 3.463 15.465 3.704 22.659 1.247 7.192-2.456 13.444-7.603 16.925-14.926 1.055-2.235.82-4.748-.403-6.697z" fill="#e2b698"/></g><rect fill="#9da6f1" height="128.246" rx="10" width="47.062" x="16" y="303.294"/><path d="m16 390.686v-77.393c0-5.508 4.492-10 10-10h27.063c5.508 0 10 4.492 10 10v77.393z" fill="#b6bafa" fill-rule="evenodd"/></svg>