<svg id="flat" height="512" viewBox="0 0 64 64" width="512" xmlns="http://www.w3.org/2000/svg"><path d="m31.6 17.86c.22-.48.79-.71 1.28-.51l.12.05 2.93 1.17.21.09c.49.19.74.72.59 1.22l-1.47 4.76-5.86-2.07z" fill="#33b1ff"/><path d="m35.26 24.64-2.26 7.36h-8l4.4-9.43z" fill="#0087ea"/><path d="m55.48 15.04-8.48 16.96h-7l11.07-19.77z" fill="#a67c52"/><path d="m53.752 13.939c-1.116 5.454-5.366 10.061-10.447 12.159l-3.305 5.902h7l8.48-16.96z" fill="#8c6239"/><path d="m48 39v4c0 .55-.45 1-1 1h-2c-.55 0-1-.45-1-1v-4-2c0-.55.45-1 1-1h2c.55 0 1 .45 1 1z" fill="#5b4760"/><path d="m20 39v4c0 .55-.45 1-1 1h-2c-.55 0-1-.45-1-1v-4-2c0-.55.45-1 1-1h2c.55 0 1 .45 1 1z" fill="#5b4760"/><path d="m23.06 32h1.94 8 7 7 8c1.1 0 2 .9 2 2v5h-9v-2c0-.55-.45-1-1-1h-2c-.55 0-1 .45-1 1v2h-24v-2c0-.55-.45-1-1-1h-2c-.55 0-1 .45-1 1v2h-9v-5c0-1.1.9-2 2-2h8.14z" fill="#ffd066"/><g fill="#847588"><path d="m16 20 7.06 12h-5.92l-5.14-9h-2.76c-.76 0-1.45-.43-1.79-1.11l-.93-1.85c-.32-.64-.27-1.41.12-2.01l1.36-2.03 2 3 2-.5 1-1.5-2-3h2.93c.67 0 1.29.33 1.66.89l.87 1.3c.34.51.43 1.15.23 1.74z"/><path d="m42 2v4l-2 2-4.07 10.57-2.93-1.17 4-10.4v-3l3-3z"/><path d="m59.43 11.14c1.03.39 3.57 1.67 3.57 4.86v2.61l-2-1.61-1-2-1.87-1.25z"/></g><path d="m55.48 15.04-4.41-2.81 2.93-5.23 5.11 2.55c.49.25.69.85.44 1.34l-.12.25-1.3 2.61-.63 1.26c-.27.53-.93.71-1.44.4z" fill="#5b4760"/><path d="m54 7-2.93 5.23-5.41-2.03c-.57-.22-.82-.9-.51-1.43l3.2-5.63c.33-.57 1.11-.68 1.58-.21z" fill="#847588"/><path d="m57 39v19.33c0 .44-.14.86-.4 1.2l-2 2.67c-.38.5-.97.8-1.6.8h-42c-.63 0-1.22-.3-1.6-.8l-2-2.67c-.26-.34-.4-.76-.4-1.2v-19.33h9v4c0 .55.45 1 1 1h2c.55 0 1-.45 1-1v-4h24v4c0 .55.45 1 1 1h2c.55 0 1-.45 1-1v-4z" fill="#ffb000"/><path d="m57 39v19.33c0 .44-.14.86-.4 1.2l-2 2.67c-.38.5-.97.8-1.6.8h-42c-.63 0-1.22-.3-1.6-.8l-2-2.67c-.12-.16-.22-.34-.29-.53h39.89c.63 0 1.22-.3 1.6-.8l2-2.67c.26-.34.4-.76.4-1.2v-15.33z" fill="#ff8939"/><ellipse cx="10.25" cy="43.5" fill="#ffd066" rx="1.25" ry="2.5"/></svg>