<svg xmlns="http://www.w3.org/2000/svg" xmlns:xlink="http://www.w3.org/1999/xlink" width="100" zoomAndPan="magnify" viewBox="0 0 75 74.999997" height="100" preserveAspectRatio="xMidYMid meet" version="1.0"><defs><clipPath id="b3afca6782"><path d="M 2.851562 26.25 L 25.351562 26.25 L 25.351562 48.75 L 2.851562 48.75 Z M 2.851562 26.25 " clip-rule="nonzero"/></clipPath><clipPath id="0866da4b46"><path d="M 5.851562 26.25 L 22.351562 26.25 C 23.144531 26.25 23.910156 26.566406 24.472656 27.128906 C 25.035156 27.691406 25.351562 28.453125 25.351562 29.25 L 25.351562 45.75 C 25.351562 46.546875 25.035156 47.308594 24.472656 47.871094 C 23.910156 48.433594 23.144531 48.75 22.351562 48.75 L 5.851562 48.75 C 5.054688 48.75 4.292969 48.433594 3.730469 47.871094 C 3.164062 47.308594 2.851562 46.546875 2.851562 45.75 L 2.851562 29.25 C 2.851562 28.453125 3.164062 27.691406 3.730469 27.128906 C 4.292969 26.566406 5.054688 26.25 5.851562 26.25 Z M 5.851562 26.25 " clip-rule="nonzero"/></clipPath><clipPath id="71c767dbfd"><path d="M 2.851562 49.5 L 25.351562 49.5 L 25.351562 72 L 2.851562 72 Z M 2.851562 49.5 " clip-rule="nonzero"/></clipPath><clipPath id="f6c2c924c7"><path d="M 4.875 62.25 L 12.601562 62.25 L 12.601562 69.976562 L 4.875 69.976562 Z M 4.875 62.25 " clip-rule="nonzero"/></clipPath><clipPath id="10d25c9abb"><path d="M 8.738281 62.25 C 6.605469 62.25 4.875 63.980469 4.875 66.113281 C 4.875 68.246094 6.605469 69.976562 8.738281 69.976562 C 10.871094 69.976562 12.601562 68.246094 12.601562 66.113281 C 12.601562 63.980469 10.871094 62.25 8.738281 62.25 Z M 8.738281 62.25 " clip-rule="nonzero"/></clipPath><clipPath id="51e79cac1b"><path d="M 15.636719 62.25 L 23.363281 62.25 L 23.363281 69.976562 L 15.636719 69.976562 Z M 15.636719 62.25 " clip-rule="nonzero"/></clipPath><clipPath id="fecdc3a2d8"><path d="M 19.5 62.25 C 17.367188 62.25 15.636719 63.980469 15.636719 66.113281 C 15.636719 68.246094 17.367188 69.976562 19.5 69.976562 C 21.632812 69.976562 23.363281 68.246094 23.363281 66.113281 C 23.363281 63.980469 21.632812 62.25 19.5 62.25 Z M 19.5 62.25 " clip-rule="nonzero"/></clipPath><clipPath id="b1aff91f5f"><path d="M 4.855469 51.636719 L 12.582031 51.636719 L 12.582031 59.363281 L 4.855469 59.363281 Z M 4.855469 51.636719 " clip-rule="nonzero"/></clipPath><clipPath id="3ba2bbe095"><path d="M 8.71875 51.636719 C 6.585938 51.636719 4.855469 53.367188 4.855469 55.5 C 4.855469 57.632812 6.585938 59.363281 8.71875 59.363281 C 10.851562 59.363281 12.582031 57.632812 12.582031 55.5 C 12.582031 53.367188 10.851562 51.636719 8.71875 51.636719 Z M 8.71875 51.636719 " clip-rule="nonzero"/></clipPath><clipPath id="234c92d552"><path d="M 15.617188 51.636719 L 23.34375 51.636719 L 23.34375 59.363281 L 15.617188 59.363281 Z M 15.617188 51.636719 " clip-rule="nonzero"/></clipPath><clipPath id="5c9d001636"><path d="M 19.480469 51.636719 C 17.347656 51.636719 15.617188 53.367188 15.617188 55.5 C 15.617188 57.632812 17.347656 59.363281 19.480469 59.363281 C 21.613281 59.363281 23.34375 57.632812 23.34375 55.5 C 23.34375 53.367188 21.613281 51.636719 19.480469 51.636719 Z M 19.480469 51.636719 " clip-rule="nonzero"/></clipPath><clipPath id="34e11de3cc"><path d="M 16.820312 34.820312 L 22.070312 34.820312 L 22.070312 40.070312 L 16.820312 40.070312 Z M 16.820312 34.820312 " clip-rule="nonzero"/></clipPath><clipPath id="4faf16156e"><path d="M 19.445312 34.820312 C 17.992188 34.820312 16.820312 35.992188 16.820312 37.445312 C 16.820312 38.894531 17.992188 40.070312 19.445312 40.070312 C 20.894531 40.070312 22.070312 38.894531 22.070312 37.445312 C 22.070312 35.992188 20.894531 34.820312 19.445312 34.820312 Z M 19.445312 34.820312 " clip-rule="nonzero"/></clipPath><clipPath id="237944b54b"><path d="M 2.851562 3 L 71.851562 3 L 71.851562 25.402344 L 2.851562 25.402344 Z M 2.851562 3 " clip-rule="nonzero"/></clipPath><clipPath id="4c4bc4d8d3"><path d="M 49.648438 26.25 L 72.148438 26.25 L 72.148438 72 L 49.648438 72 Z M 49.648438 26.25 " clip-rule="nonzero"/></clipPath></defs><g clip-path="url(#b3afca6782)"><g clip-path="url(#0866da4b46)"><path stroke-linecap="butt" transform="matrix(0.75, 0, 0, 0.75, 2.849911, 26.249997)" fill="none" stroke-linejoin="miter" d="M 4.002202 0.00000419167 L 26.002203 0.00000419167 C 27.059494 0.00000419167 28.080328 0.421879 28.830328 1.171879 C 29.580328 1.921879 30.002203 2.937504 30.002203 4.000004 L 30.002203 26.000005 C 30.002203 27.062505 29.580328 28.07813 28.830328 28.82813 C 28.080328 29.57813 27.059494 30.000005 26.002203 30.000005 L 4.002202 30.000005 C 2.939702 30.000005 1.924077 29.57813 1.174077 28.82813 C 0.418869 28.07813 0.00220219 27.062505 0.00220219 26.000005 L 0.00220219 4.000004 C 0.00220219 2.937504 0.418869 1.921879 1.174077 1.171879 C 1.924077 0.421879 2.939702 0.00000419167 4.002202 0.00000419167 Z M 4.002202 0.00000419167 " stroke="#000000" stroke-width="4" stroke-opacity="1" stroke-miterlimit="4"/></g></g><g clip-path="url(#71c767dbfd)"><path stroke-linecap="butt" transform="matrix(0.75, 0, 0, 0.75, 2.849911, 49.499995)" fill="none" stroke-linejoin="miter" d="M 0.00220219 0.00000672333 L 30.002203 0.00000672333 L 30.002203 30.000007 L 0.00220219 30.000007 Z M 0.00220219 0.00000672333 " stroke="#000000" stroke-width="4" stroke-opacity="1" stroke-miterlimit="4"/></g><g clip-path="url(#f6c2c924c7)"><g clip-path="url(#10d25c9abb)"><path fill="#000000" d="M 4.875 62.25 L 12.601562 62.25 L 12.601562 69.976562 L 4.875 69.976562 Z M 4.875 62.25 " fill-opacity="1" fill-rule="nonzero"/></g></g><g clip-path="url(#51e79cac1b)"><g clip-path="url(#fecdc3a2d8)"><path fill="#000000" d="M 15.636719 62.25 L 23.363281 62.25 L 23.363281 69.976562 L 15.636719 69.976562 Z M 15.636719 62.25 " fill-opacity="1" fill-rule="nonzero"/></g></g><g clip-path="url(#b1aff91f5f)"><g clip-path="url(#3ba2bbe095)"><path fill="#000000" d="M 4.855469 51.636719 L 12.582031 51.636719 L 12.582031 59.363281 L 4.855469 59.363281 Z M 4.855469 51.636719 " fill-opacity="1" fill-rule="nonzero"/></g></g><g clip-path="url(#234c92d552)"><g clip-path="url(#5c9d001636)"><path fill="#000000" d="M 15.617188 51.636719 L 23.34375 51.636719 L 23.34375 59.363281 L 15.617188 59.363281 Z M 15.617188 51.636719 " fill-opacity="1" fill-rule="nonzero"/></g></g><g clip-path="url(#34e11de3cc)"><g clip-path="url(#4faf16156e)"><path stroke-linecap="butt" transform="matrix(0.73523, 0, 0, 0.73523, 16.818692, 34.818878)" fill="none" stroke-linejoin="miter" d="M 3.572517 0.0019512 C 1.596094 0.0019512 0.00220466 1.595841 0.00220466 3.572264 C 0.00220466 5.543374 1.596094 7.142577 3.572517 7.142577 C 5.543628 7.142577 7.14283 5.543374 7.14283 3.572264 C 7.14283 1.595841 5.543628 0.0019512 3.572517 0.0019512 Z M 3.572517 0.0019512 " stroke="#000000" stroke-width="4" stroke-opacity="1" stroke-miterlimit="4"/></g></g><path stroke-linecap="round" transform="matrix(0.75, 0, 0, 0.75, 3.84377, 36.749996)" fill="none" stroke-linejoin="miter" d="M 0.999973 1.000005 L 11.999974 1.000005 " stroke="#000000" stroke-width="2" stroke-opacity="1" stroke-miterlimit="4"/><g clip-path="url(#237944b54b)"><path stroke-linecap="butt" transform="matrix(0.746829, 0, 0, 0.746829, 2.849911, 3.001165)" fill="none" stroke-linejoin="miter" d="M 0.00221154 -0.00155949 L 92.392844 -0.00155949 L 92.392844 29.995059 L 0.00221154 29.995059 Z M 0.00221154 -0.00155949 " stroke="#000000" stroke-width="4" stroke-opacity="1" stroke-miterlimit="4"/></g><g clip-path="url(#4c4bc4d8d3)"><path stroke-linecap="butt" transform="matrix(0.75, 0, 0, 0.75, 49.650086, 26.249997)" fill="none" stroke-linejoin="miter" d="M -0.00219833 0.00000419167 L 29.997802 0.00000419167 L 29.997802 61.000005 L -0.00219833 61.000005 Z M -0.00219833 0.00000419167 " stroke="#000000" stroke-width="4" stroke-opacity="1" stroke-miterlimit="4"/></g></svg>