<svg xmlns="http://www.w3.org/2000/svg" xmlns:xlink="http://www.w3.org/1999/xlink" width="2000" zoomAndPan="magnify" viewBox="0 0 1500 749.999995" height="1000" preserveAspectRatio="xMidYMid meet" version="1.2"><defs><filter x="0%" y="0%" width="100%" filterUnits="objectBoundingBox" id="eb83002457" height="100%"><feColorMatrix values="0 0 0 0 1 0 0 0 0 1 0 0 0 0 1 0 0 0 1 0" type="matrix" in="SourceGraphic"/></filter><clipPath id="04d51410ee"><path d="M 0.480469 0.121094 L 1500 0.121094 L 1500 453.960938 L 0.480469 453.960938 Z M 0.480469 0.121094 "/></clipPath><clipPath id="ba61fde9b9"><rect x="0" width="1500" y="0" height="454"/></clipPath><clipPath id="d78596bba2"><rect x="0" width="1500" y="0" height="437"/></clipPath><clipPath id="ae81b2cdb8"><rect x="0" width="1500" y="0" height="420"/></clipPath><clipPath id="cc5789df9e"><path d="M 0 0.519531 L 1500 0.519531 L 1500 404.679688 L 0 404.679688 Z M 0 0.519531 "/></clipPath><clipPath id="c46dffdb07"><rect x="0" width="1500" y="0" height="405"/></clipPath><clipPath id="7a06ff27f9"><path d="M 0 0.558594 L 1500 0.558594 L 1500 408.558594 L 0 408.558594 Z M 0 0.558594 "/></clipPath><clipPath id="a0f921c3a9"><rect x="0" width="1500" y="0" height="409"/></clipPath><clipPath id="99613aa782"><path d="M 0 0.121094 L 1500 0.121094 L 1500 412.679688 L 0 412.679688 Z M 0 0.121094 "/></clipPath><clipPath id="30b14e8813"><rect x="0" width="1500" y="0" height="413"/></clipPath><clipPath id="676910bb87"><path d="M 0 0.441406 L 1500 0.441406 L 1500 418 L 0 418 Z M 0 0.441406 "/></clipPath><clipPath id="e6bd1cccf7"><rect x="0" width="1500" y="0" height="419"/></clipPath><clipPath id="0ff9d45e8b"><rect x="0" width="1500" y="0" height="425"/></clipPath><clipPath id="d9c2c2b5f9"><path d="M 0 0.078125 L 1500 0.078125 L 1500 428.480469 L 0 428.480469 Z M 0 0.078125 "/></clipPath><clipPath id="43ffb7e3d8"><rect x="0" width="1500" y="0" height="429"/></clipPath><clipPath id="825c323498"><rect x="0" width="1500" y="0" height="437"/></clipPath><clipPath id="02ea6da97b"><path d="M 0 0.480469 L 1500 0.480469 L 1500 441 L 0 441 Z M 0 0.480469 "/></clipPath><clipPath id="ccd67d4adc"><rect x="0" width="1500" y="0" height="442"/></clipPath><clipPath id="99e2c1796a"><path d="M 0 0.078125 L 1500 0.078125 L 1500 447.679688 L 0 447.679688 Z M 0 0.078125 "/></clipPath><clipPath id="4e6054c299"><rect x="0" width="1500" y="0" height="448"/></clipPath><clipPath id="507d7b1478"><rect x="0" width="1500" y="0" height="455"/></clipPath><clipPath id="1949001bf0"><rect x="0" width="1500" y="0" height="462"/></clipPath><clipPath id="5e0458ef37"><path d="M 0 0.601562 L 1500 0.601562 L 1500 469 L 0 469 Z M 0 0.601562 "/></clipPath><clipPath id="8135c06823"><rect x="0" width="1500" y="0" height="470"/></clipPath><clipPath id="ab414d11d2"><path d="M 0 1 L 1500 1 L 1500 476.640625 L 0 476.640625 Z M 0 1 "/></clipPath><clipPath id="67c27ed898"><rect x="0" width="1500" y="0" height="477"/></clipPath><clipPath id="6d2eda1657"><path d="M 0 136 L 1500 136 L 1500 619.625 L 0 619.625 Z M 0 136 "/></clipPath></defs><g id="716aab69e1"><g mask="url(#d6a9dbfc2e)" transform="matrix(1,0,0,1,0,165)"><g clip-path="url(#ba61fde9b9)"><g clip-rule="nonzero" clip-path="url(#04d51410ee)"><path style=" stroke:none;fill-rule:nonzero;fill:#4e6376;fill-opacity:1;" d="M 1.109375 453.839844 C 0.964844 453.839844 0.816406 453.773438 0.722656 453.648438 C 0.550781 453.433594 0.585938 453.117188 0.800781 452.945312 C 23.964844 434.574219 50.140625 420.5 80.824219 409.921875 C 107.984375 400.554688 137.96875 394.199219 172.484375 390.5 C 236.304688 383.65625 304.324219 387.226562 370.105469 390.679688 C 469.640625 395.90625 563.648438 400.84375 627.519531 368.464844 C 673.617188 345.097656 743.195312 346.800781 799.097656 348.160156 C 829.925781 348.914062 856.550781 349.566406 875.074219 346.292969 C 914.628906 339.308594 940.371094 326.242188 953.765625 306.339844 C 973.097656 277.625 964.648438 238.171875 955.707031 196.398438 C 949.445312 167.167969 942.976562 136.9375 945.527344 108.355469 C 948.421875 75.917969 962.863281 50.453125 989.683594 30.5 C 1031.203125 -0.398438 1070.4375 -7.230469 1113.152344 8.992188 C 1151.667969 23.625 1189.796875 55.90625 1230.171875 90.085938 C 1266.335938 120.703125 1303.730469 152.367188 1347.523438 177.871094 C 1397.511719 206.992188 1447 222.425781 1498.820312 225.066406 C 1499.09375 225.082031 1499.308594 225.316406 1499.292969 225.59375 C 1499.277344 225.867188 1499.042969 226.082031 1498.769531 226.066406 C 1446.785156 223.421875 1397.152344 207.9375 1347.019531 178.734375 C 1303.152344 153.179688 1265.726562 121.492188 1229.527344 90.847656 C 1189.222656 56.722656 1151.152344 24.492188 1112.796875 9.925781 C 1070.433594 -6.167969 1031.503906 0.625 990.28125 31.296875 C 963.707031 51.074219 949.394531 76.308594 946.523438 108.4375 C 943.988281 136.875 950.445312 167.023438 956.683594 196.183594 C 965.675781 238.167969 974.160156 277.824219 954.59375 306.890625 C 941.035156 327.03125 915.082031 340.234375 875.25 347.269531 C 856.625 350.558594 829.957031 349.902344 799.074219 349.148438 C 743.285156 347.789062 673.847656 346.089844 627.972656 369.34375 C 563.867188 401.84375 469.722656 396.894531 370.054688 391.664062 C 304.316406 388.214844 236.335938 384.644531 172.59375 391.480469 C 138.152344 395.175781 108.246094 401.507812 81.152344 410.855469 C 50.578125 421.398438 24.5 435.417969 1.429688 453.71875 C 1.332031 453.804688 1.222656 453.839844 1.109375 453.839844 Z M 1.109375 453.839844 "/></g></g><mask id="d6a9dbfc2e"><g filter="url(#eb83002457)"><rect x="0" width="1500" y="0" height="749.999995" style="fill:#000000;fill-opacity:0.2;stroke:none;"/></g></mask></g><g mask="url(#a714ea1b71)" transform="matrix(1,0,0,1,0,163)"><g clip-path="url(#d78596bba2)"><path style=" stroke:none;fill-rule:nonzero;fill:#4e6376;fill-opacity:1;" d="M 1.109375 436.878906 C 0.945312 436.878906 0.785156 436.800781 0.683594 436.65625 C 0.507812 436.421875 0.5625 436.089844 0.796875 435.917969 C 24.371094 418.691406 50.585938 405.820312 80.941406 396.570312 C 107.835938 388.378906 137.28125 383.265625 170.957031 380.945312 C 233.261719 376.652344 299.230469 382.8125 363.023438 388.773438 C 461.65625 397.984375 554.816406 406.683594 621.324219 375.683594 C 668.367188 353.78125 733.828125 351.878906 791.582031 350.203125 C 823.394531 349.277344 850.875 348.480469 870.734375 344.4375 C 897.8125 338.925781 918.5 330.972656 933.984375 320.125 C 947.816406 310.429688 957.203125 298.582031 962.679688 283.90625 C 972.910156 256.472656 967.847656 223.667969 962.480469 188.9375 C 958.0625 160.328125 953.496094 130.742188 957.699219 103.160156 C 962.449219 71.957031 978.105469 47.636719 1005.554688 28.804688 C 1047.503906 0.0234375 1086.851562 -5.925781 1129.386719 10.074219 C 1167.648438 24.46875 1205 55.402344 1244.542969 88.164062 C 1312.558594 144.5 1389.652344 208.355469 1498.804688 214.558594 C 1499.097656 214.570312 1499.316406 214.828125 1499.304688 215.117188 C 1499.289062 215.410156 1499.035156 215.628906 1498.742188 215.617188 C 1389.242188 209.394531 1312.007812 145.417969 1243.863281 88.976562 C 1204.390625 56.277344 1167.101562 25.394531 1129.007812 11.066406 C 1086.824219 -4.796875 1047.789062 1.113281 1006.148438 29.679688 C 978.953125 48.335938 963.449219 72.421875 958.742188 103.320312 C 954.5625 130.738281 959.117188 160.242188 963.523438 188.773438 C 974.136719 257.511719 984.160156 322.433594 870.9375 345.480469 C 850.988281 349.539062 823.464844 350.335938 791.601562 351.265625 C 733.949219 352.941406 668.605469 354.839844 621.757812 376.644531 C 586.472656 393.089844 543.773438 398.417969 496.777344 398.417969 C 454.84375 398.417969 409.488281 394.179688 362.910156 389.832031 C 299.152344 383.875 233.230469 377.71875 171.011719 382.007812 C 137.414062 384.324219 108.046875 389.421875 81.230469 397.59375 C 50.992188 406.808594 24.878906 419.628906 1.40625 436.78125 C 1.332031 436.847656 1.222656 436.878906 1.109375 436.878906 Z M 1.109375 436.878906 "/></g><mask id="a714ea1b71"><g filter="url(#eb83002457)"><rect x="0" width="1500" y="0" height="749.999995" style="fill:#000000;fill-opacity:0.25;stroke:none;"/></g></mask></g><g mask="url(#9fceded879)" transform="matrix(1,0,0,1,0,162)"><g clip-path="url(#ae81b2cdb8)"><path style=" stroke:none;fill-rule:nonzero;fill:#4e6376;fill-opacity:1;" d="M 1.109375 418.921875 C 0.929688 418.921875 0.75 418.835938 0.640625 418.671875 C 0.46875 418.414062 0.535156 418.066406 0.796875 417.894531 C 24.765625 401.804688 51.007812 390.117188 81.03125 382.179688 C 107.644531 375.140625 136.550781 371.246094 169.394531 370.28125 C 230.179688 368.488281 294.09375 377.203125 355.902344 385.625 C 453.621094 398.9375 545.910156 411.511719 615.140625 381.898438 C 663.050781 361.457031 727.265625 356.160156 783.921875 351.488281 C 815.402344 348.890625 845.136719 346.4375 866.40625 341.578125 C 894.28125 335.207031 915.828125 326.484375 932.28125 314.921875 C 946.953125 304.609375 957.238281 292.226562 963.722656 277.0625 C 975.824219 248.777344 972.71875 215.8125 969.429688 180.910156 C 964.097656 124.277344 958.582031 65.71875 1021.445312 26.101562 C 1063.777344 -0.578125 1103.21875 -5.667969 1145.5625 10.074219 C 1183.5625 24.207031 1220.136719 53.789062 1258.855469 85.105469 C 1323.449219 137.347656 1396.667969 196.566406 1498.8125 203.035156 C 1499.125 203.054688 1499.359375 203.320312 1499.335938 203.628906 C 1499.316406 203.941406 1499.0625 204.175781 1498.742188 204.15625 C 1396.246094 197.660156 1322.886719 138.328125 1258.160156 85.972656 C 1219.515625 54.714844 1183.007812 25.191406 1145.183594 11.125 C 1103.191406 -4.492188 1064.066406 0.570312 1022.054688 27.050781 C 959.773438 66.296875 965.257812 124.507812 970.558594 180.804688 C 973.859375 215.851562 976.976562 248.957031 964.765625 277.507812 C 958.195312 292.867188 947.78125 305.40625 932.9375 315.847656 C 916.363281 327.5 894.683594 336.273438 866.664062 342.675781 C 845.316406 347.550781 815.542969 350.007812 784.023438 352.609375 C 727.449219 357.273438 663.328125 362.558594 615.589844 382.933594 C 546.074219 412.667969 453.628906 400.070312 355.757812 386.738281 C 293.992188 378.320312 230.125 369.617188 169.433594 371.40625 C 136.675781 372.367188 107.855469 376.246094 81.328125 383.265625 C 51.421875 391.175781 25.292969 402.808594 1.429688 418.832031 C 1.324219 418.890625 1.222656 418.921875 1.109375 418.921875 Z M 1.109375 418.921875 "/></g><mask id="9fceded879"><g filter="url(#eb83002457)"><rect x="0" width="1500" y="0" height="749.999995" style="fill:#000000;fill-opacity:0.3;stroke:none;"/></g></mask></g><g mask="url(#3cf7c9d24b)" transform="matrix(1,0,0,1,0,161)"><g clip-path="url(#c46dffdb07)"><g clip-rule="nonzero" clip-path="url(#cc5789df9e)"><path style=" stroke:none;fill-rule:nonzero;fill:#4e6376;fill-opacity:1;" d="M 516.941406 404.46875 C 464.921875 404.46875 407.753906 394.105469 348.578125 383.382812 C 288.804688 372.550781 226.992188 361.347656 167.8125 360.683594 C 135.882812 360.324219 107.605469 363.011719 81.363281 368.894531 C 51.796875 375.519531 25.652344 385.984375 1.425781 400.882812 C 1.144531 401.050781 0.78125 400.964844 0.613281 400.6875 C 0.441406 400.40625 0.527344 400.042969 0.808594 399.871094 C 25.148438 384.90625 51.414062 374.398438 81.105469 367.742188 C 107.441406 361.835938 135.808594 359.144531 167.832031 359.503906 C 227.109375 360.167969 288.96875 371.382812 348.796875 382.226562 C 445.558594 399.761719 536.957031 416.328125 608.96875 388.121094 C 657.589844 369.144531 720.429688 360.613281 775.878906 353.082031 C 808.484375 348.652344 839.28125 344.46875 862.089844 338.722656 C 890.722656 331.507812 913.101562 322.046875 930.519531 309.800781 C 946.019531 298.90625 957.21875 286.015625 964.742188 270.402344 C 978.75 241.34375 977.597656 206.753906 976.484375 173.304688 C 975.566406 145.726562 974.613281 117.210938 981.976562 91.394531 C 985.949219 77.460938 991.949219 65.457031 1000.320312 54.679688 C 1009.722656 42.578125 1021.832031 32.347656 1037.355469 23.402344 C 1130.628906 -30.375 1196.667969 21.664062 1273.128906 81.921875 C 1304.410156 106.574219 1336.753906 132.0625 1373.554688 152.519531 C 1415.347656 175.753906 1456.328125 188.515625 1498.839844 191.519531 C 1499.164062 191.546875 1499.414062 191.824219 1499.386719 192.15625 C 1499.363281 192.480469 1499.09375 192.730469 1498.753906 192.703125 C 1456.070312 189.683594 1414.929688 176.878906 1372.980469 153.558594 C 1336.097656 133.054688 1303.710938 107.535156 1272.394531 82.855469 C 1196.257812 22.859375 1130.515625 -28.953125 1037.9375 24.421875 C 1022.550781 33.292969 1010.550781 43.421875 1001.25 55.398438 C 992.972656 66.050781 987.039062 77.933594 983.109375 91.714844 C 975.800781 117.351562 976.742188 145.777344 977.660156 173.257812 C 978.78125 206.851562 979.945312 241.589844 965.804688 270.914062 C 958.191406 286.707031 946.871094 299.75 931.199219 310.765625 C 913.660156 323.097656 891.144531 332.617188 862.375 339.867188 C 839.5 345.625 808.675781 349.816406 776.035156 354.25 C 720.652344 361.765625 657.882812 370.292969 609.398438 389.214844 C 581.222656 400.253906 550.125 404.46875 516.941406 404.46875 Z M 516.941406 404.46875 "/></g></g><mask id="3cf7c9d24b"><g filter="url(#eb83002457)"><rect x="0" width="1500" y="0" height="749.999995" style="fill:#000000;fill-opacity:0.35;stroke:none;"/></g></mask></g><g mask="url(#20a3082702)" transform="matrix(1,0,0,1,0,160)"><g clip-path="url(#a0f921c3a9)"><g clip-rule="nonzero" clip-path="url(#7a06ff27f9)"><path style=" stroke:none;fill-rule:nonzero;fill:#4e6376;fill-opacity:1;" d="M 522.394531 408.226562 C 509.035156 408.226562 494.84375 407.433594 479.664062 405.855469 C 435.519531 401.265625 389.824219 390.828125 341.449219 379.769531 C 224.648438 353.078125 103.875 325.480469 1.414062 382.929688 C 1.117188 383.101562 0.738281 382.992188 0.566406 382.691406 C 0.398438 382.390625 0.507812 382.011719 0.808594 381.84375 C 103.6875 324.15625 224.699219 351.8125 341.726562 378.558594 C 437.476562 400.4375 527.910156 421.105469 602.777344 394.332031 C 651.734375 376.90625 712.828125 365.351562 766.730469 355.164062 C 800.855469 348.707031 833.089844 342.617188 857.753906 335.863281 C 887.082031 327.832031 910.277344 317.65625 928.648438 304.761719 C 944.972656 293.304688 957.082031 279.945312 965.664062 263.929688 C 981.617188 234.160156 982.589844 199.554688 983.527344 166.09375 C 984.292969 138.917969 985.082031 110.824219 993.976562 85.777344 C 998.773438 72.277344 1005.480469 60.695312 1014.46875 50.371094 C 1024.550781 38.804688 1037.230469 29.09375 1053.234375 20.699219 C 1075.929688 8.785156 1097.460938 2.320312 1119.0625 0.921875 C 1138.511719 -0.328125 1157.71875 2.582031 1177.777344 9.828125 C 1215.238281 23.367188 1250.257812 50.195312 1287.34375 78.601562 C 1316.984375 101.3125 1347.644531 124.796875 1382.128906 143.632812 C 1421.230469 164.988281 1459.40625 176.886719 1498.832031 180 C 1499.179688 180.023438 1499.433594 180.328125 1499.40625 180.667969 C 1499.382812 181.015625 1499.078125 181.269531 1498.738281 181.242188 C 1459.128906 178.113281 1420.792969 166.167969 1381.535156 144.726562 C 1346.960938 125.839844 1316.265625 102.332031 1286.582031 79.589844 C 1249.582031 51.246094 1214.632812 24.476562 1177.351562 11.003906 C 1135.75 -4.035156 1096.496094 -0.597656 1053.8125 21.800781 C 1037.949219 30.128906 1025.386719 39.742188 1015.410156 51.191406 C 1006.515625 61.394531 999.890625 72.839844 995.148438 86.191406 C 986.320312 111.050781 985.535156 139.050781 984.769531 166.121094 C 983.828125 199.730469 982.855469 234.484375 966.757812 264.515625 C 958.082031 280.710938 945.847656 294.207031 929.355469 305.78125 C 910.867188 318.761719 887.546875 328.996094 858.074219 337.066406 C 833.367188 343.832031 801.105469 349.933594 766.953125 356.390625 C 713.097656 366.574219 652.050781 378.117188 603.1875 395.511719 C 579.328125 404.039062 553.039062 408.226562 522.394531 408.226562 Z M 522.394531 408.226562 "/></g></g><mask id="20a3082702"><g filter="url(#eb83002457)"><rect x="0" width="1500" y="0" height="749.999995" style="fill:#000000;fill-opacity:0.4;stroke:none;"/></g></mask></g><g mask="url(#be927b7a88)" transform="matrix(1,0,0,1,0,159)"><g clip-path="url(#30b14e8813)"><g clip-rule="nonzero" clip-path="url(#99613aa782)"><path style=" stroke:none;fill-rule:nonzero;fill:#4e6376;fill-opacity:1;" d="M 525.566406 412.375 C 508.839844 412.375 490.921875 410.957031 471.46875 408.136719 C 427.320312 401.738281 382.199219 389.183594 334.429688 375.886719 C 221.765625 344.53125 105.257812 312.113281 1.40625 364.976562 C 1.082031 365.140625 0.6875 365.011719 0.523438 364.691406 C 0.355469 364.367188 0.488281 363.972656 0.808594 363.808594 C 105.113281 310.714844 221.867188 343.203125 334.777344 374.628906 C 382.503906 387.914062 427.585938 400.460938 471.652344 406.84375 C 521.484375 414.070312 561.183594 412.066406 596.59375 400.546875 C 644.554688 385.023438 702.421875 371.011719 753.472656 358.644531 C 790.683594 349.632812 825.828125 341.121094 853.414062 333 C 978.175781 296.273438 984.453125 226.601562 990.523438 159.222656 C 993.054688 131.144531 995.445312 104.617188 1005.863281 80.277344 C 1011.472656 67.171875 1018.882812 55.988281 1028.519531 46.101562 C 1039.296875 35.035156 1052.582031 25.835938 1069.125 17.984375 C 1091.996094 7.125 1113.636719 1.363281 1135.292969 0.371094 C 1154.761719 -0.523438 1173.917969 2.480469 1193.851562 9.5625 C 1231.042969 22.769531 1265.296875 48.210938 1301.558594 75.148438 C 1329.550781 95.941406 1358.5 117.445312 1390.6875 134.691406 C 1427.105469 154.207031 1462.480469 165.261719 1498.839844 168.476562 C 1499.199219 168.503906 1499.460938 168.824219 1499.433594 169.183594 C 1499.402344 169.542969 1499.09375 169.8125 1498.722656 169.777344 C 1462.1875 166.546875 1426.644531 155.445312 1390.066406 135.84375 C 1357.796875 118.550781 1328.8125 97.019531 1300.78125 76.199219 C 1264.597656 49.324219 1230.425781 23.9375 1193.417969 10.792969 C 1173.648438 3.769531 1154.652344 0.789062 1135.355469 1.679688 C 1113.875 2.667969 1092.398438 8.386719 1069.6875 19.167969 C 1053.285156 26.953125 1040.125 36.066406 1029.457031 47.011719 C 1019.9375 56.78125 1012.613281 67.832031 1007.066406 80.789062 C 996.726562 104.941406 994.347656 131.367188 991.824219 159.34375 C 985.714844 227.152344 979.394531 297.273438 853.777344 334.257812 C 826.160156 342.390625 791 350.902344 753.773438 359.917969 C 702.742188 372.277344 644.902344 386.28125 596.988281 401.792969 C 575.234375 408.871094 551.871094 412.375 525.566406 412.375 Z M 525.566406 412.375 "/></g></g><mask id="be927b7a88"><g filter="url(#eb83002457)"><rect x="0" width="1500" y="0" height="749.999995" style="fill:#000000;fill-opacity:0.45;stroke:none;"/></g></mask></g><g mask="url(#73a92f5c3f)" transform="matrix(1,0,0,1,0,157)"><g clip-path="url(#e6bd1cccf7)"><g clip-rule="nonzero" clip-path="url(#676910bb87)"><path style=" stroke:none;fill-rule:nonzero;fill:#4e6376;fill-opacity:1;" d="M 527.125 417.785156 C 507.429688 417.785156 486.539062 415.667969 463.304688 411.320312 C 419.191406 403.0625 374.691406 388.347656 327.574219 372.761719 C 218.945312 336.832031 106.617188 299.679688 1.402344 348.023438 C 1.054688 348.183594 0.648438 348.03125 0.492188 347.683594 C 0.332031 347.339844 0.488281 346.929688 0.832031 346.777344 C 106.539062 298.207031 219.128906 335.445312 328.007812 371.457031 C 375.082031 387.027344 419.542969 401.730469 463.558594 409.96875 C 487.203125 414.390625 508.410156 416.5 528.375 416.410156 C 550.722656 416.308594 571.015625 413.476562 590.417969 407.757812 C 609.667969 402.117188 629.601562 396.304688 650.703125 390.148438 C 722.171875 369.316406 796.074219 347.769531 849.089844 331.136719 C 879.667969 321.546875 904.371094 310.023438 924.609375 295.925781 C 942.535156 283.433594 956.464844 269.230469 967.1875 252.503906 C 987.0625 221.503906 992.328125 187.039062 997.417969 153.707031 C 1005.824219 98.660156 1013.761719 46.667969 1085.03125 16.269531 C 1108.074219 6.4375 1129.835938 1.367188 1151.558594 0.753906 C 1171.046875 0.203125 1190.15625 3.289062 1209.976562 10.1875 C 1246.910156 23.042969 1280.394531 47.097656 1315.835938 72.558594 C 1369.226562 110.902344 1424.433594 150.554688 1498.855469 157.945312 C 1499.234375 157.980469 1499.507812 158.320312 1499.46875 158.691406 C 1499.433594 159.074219 1499.082031 159.347656 1498.71875 159.308594 C 1465.242188 155.980469 1432.496094 145.714844 1398.605469 127.910156 C 1368.644531 112.175781 1341.394531 92.601562 1315.039062 73.671875 C 1279.671875 48.269531 1246.269531 24.277344 1209.527344 11.488281 C 1189.871094 4.640625 1170.925781 1.582031 1151.597656 2.125 C 1130.050781 2.730469 1108.453125 7.773438 1085.570312 17.53125 C 1015.003906 47.628906 1007.121094 99.253906 998.773438 153.910156 C 993.664062 187.382812 988.375 222 968.339844 253.242188 C 957.511719 270.125 943.464844 284.453125 925.386719 297.046875 C 905.03125 311.230469 880.207031 322.808594 849.496094 332.445312 C 796.464844 349.082031 722.550781 370.628906 651.078125 391.46875 C 629.976562 397.617188 610.042969 403.429688 590.792969 409.070312 C 571.265625 414.824219 550.847656 417.675781 528.363281 417.777344 C 527.960938 417.785156 527.539062 417.785156 527.125 417.785156 Z M 527.125 417.785156 "/></g></g><mask id="73a92f5c3f"><g filter="url(#eb83002457)"><rect x="0" width="1500" y="0" height="749.999995" style="fill:#000000;fill-opacity:0.5;stroke:none;"/></g></mask></g><g mask="url(#08f34a9e84)" transform="matrix(1,0,0,1,0,155)"><g clip-path="url(#0ff9d45e8b)"><path style=" stroke:none;fill-rule:nonzero;fill:#4e6376;fill-opacity:1;" d="M 528.117188 423.5 C 525.644531 423.5 523.148438 423.464844 520.625 423.390625 C 500.289062 422.804688 478.878906 419.867188 455.191406 414.40625 C 411.160156 404.25 365.277344 386.53125 320.90625 369.398438 C 216.207031 328.976562 107.941406 287.171875 1.386719 331.078125 C 1.019531 331.230469 0.601562 331.054688 0.445312 330.6875 C 0.296875 330.324219 0.472656 329.90625 0.835938 329.75 C 107.921875 285.625 216.457031 327.535156 321.425781 368.0625 C 367.789062 385.964844 411.578125 402.871094 455.515625 413.007812 C 479.113281 418.449219 500.425781 421.378906 520.671875 421.957031 C 543.332031 422.605469 564.125 420.324219 584.238281 414.980469 C 645.410156 398.820312 713.921875 374.785156 774.367188 353.578125 C 799.703125 344.691406 823.636719 336.296875 844.761719 329.28125 C 902.753906 310.03125 942.976562 283.308594 967.722656 247.578125 C 989.558594 216.050781 996.96875 181.71875 1004.132812 148.515625 C 1015.878906 94.070312 1026.96875 42.644531 1100.9375 14.570312 C 1197.449219 -22.070312 1261.9375 22.582031 1330.199219 69.855469 C 1379.914062 104.277344 1431.320312 139.875 1498.867188 147.429688 C 1499.261719 147.472656 1499.546875 147.828125 1499.503906 148.222656 C 1499.457031 148.617188 1499.097656 148.902344 1498.710938 148.855469 C 1430.800781 141.257812 1379.246094 105.558594 1329.382812 71.03125 C 1261.433594 23.980469 1197.25 -20.460938 1101.441406 15.90625 C 1068.027344 28.59375 1045.464844 46.511719 1030.445312 72.300781 C 1017.085938 95.238281 1011.46875 121.257812 1005.527344 148.8125 C 998.335938 182.148438 990.894531 216.625 968.894531 248.386719 C 943.964844 284.382812 903.503906 311.285156 845.207031 330.632812 C 824.09375 337.644531 800.167969 346.035156 774.835938 354.921875 C 714.367188 376.132812 645.828125 400.175781 584.601562 416.351562 C 566.59375 421.152344 548.046875 423.5 528.117188 423.5 Z M 528.117188 423.5 "/></g><mask id="08f34a9e84"><g filter="url(#eb83002457)"><rect x="0" width="1500" y="0" height="749.999995" style="fill:#000000;fill-opacity:0.55;stroke:none;"/></g></mask></g><g mask="url(#070b17700e)" transform="matrix(1,0,0,1,0,154)"><g clip-path="url(#43ffb7e3d8)"><g clip-rule="nonzero" clip-path="url(#d9c2c2b5f9)"><path style=" stroke:none;fill-rule:nonzero;fill:#4e6376;fill-opacity:1;" d="M 528.242188 428.445312 C 523.203125 428.445312 518.09375 428.285156 512.898438 427.960938 C 492.289062 426.6875 470.789062 422.902344 447.15625 416.394531 C 403.246094 404.296875 358.113281 384.234375 314.46875 364.824219 C 264.273438 342.503906 212.367188 319.421875 160.246094 307.203125 C 132.171875 300.621094 106.40625 297.667969 81.488281 298.175781 C 53.476562 298.746094 27.265625 303.636719 1.367188 313.132812 C 0.976562 313.273438 0.546875 313.078125 0.40625 312.6875 C 0.261719 312.300781 0.460938 311.871094 0.851562 311.730469 C 109.3125 271.972656 213.917969 318.484375 315.078125 363.464844 C 358.671875 382.851562 403.75 402.894531 447.554688 414.960938 C 471.082031 421.441406 492.488281 425.210938 512.992188 426.472656 C 535.953125 427.890625 557.234375 426.167969 578.054688 421.199219 C 636.816406 407.289062 700.769531 381.457031 757.199219 358.664062 C 787.027344 346.617188 815.203125 335.234375 840.425781 326.425781 C 899.277344 305.878906 941.023438 278.210938 968.046875 241.847656 C 991.824219 209.847656 1001.363281 175.679688 1010.585938 142.632812 C 1018.289062 115.027344 1025.566406 88.957031 1040.59375 66.335938 C 1057.488281 40.90625 1081.714844 23.597656 1116.832031 11.871094 C 1140.292969 4.03125 1162.359375 0.277344 1184.246094 0.382812 C 1203.824219 0.476562 1222.875 3.6875 1242.484375 10.1875 C 1278.949219 22.277344 1310.890625 43.53125 1344.703125 66.03125 C 1390.65625 96.609375 1438.175781 128.230469 1498.875 135.914062 C 1499.28125 135.964844 1499.574219 136.335938 1499.523438 136.75 C 1499.472656 137.160156 1499.101562 137.449219 1498.683594 137.402344 C 1437.636719 129.671875 1389.972656 97.953125 1343.871094 67.28125 C 1310.140625 44.835938 1278.28125 23.636719 1242.011719 11.609375 C 1222.550781 5.160156 1203.65625 1.976562 1184.238281 1.878906 C 1162.484375 1.777344 1140.609375 5.503906 1117.304688 13.289062 C 1082.523438 24.90625 1058.542969 42.023438 1041.84375 67.164062 C 1026.945312 89.585938 1019.695312 115.550781 1012.027344 143.035156 C 1002.769531 176.214844 993.191406 210.515625 969.246094 242.742188 C 942.039062 279.355469 900.058594 307.191406 840.914062 327.839844 C 815.726562 336.636719 787.566406 348.007812 757.753906 360.046875 C 701.277344 382.855469 637.261719 408.710938 578.394531 422.648438 C 562.152344 426.527344 545.617188 428.445312 528.242188 428.445312 Z M 528.242188 428.445312 "/></g></g><mask id="070b17700e"><g filter="url(#eb83002457)"><rect x="0" width="1500" y="0" height="749.999995" style="fill:#000000;fill-opacity:0.6;stroke:none;"/></g></mask></g><g mask="url(#b5aa3c3682)" transform="matrix(1,0,0,1,0,151)"><g clip-path="url(#825c323498)"><path style=" stroke:none;fill-rule:nonzero;fill:#4e6376;fill-opacity:1;" d="M 527.710938 435.578125 C 520.332031 435.578125 512.835938 435.214844 505.191406 434.488281 C 484.332031 432.511719 462.746094 427.871094 439.207031 420.300781 C 395.476562 406.238281 351.148438 383.785156 308.285156 362.066406 C 259.886719 337.546875 209.832031 312.1875 158.972656 297.765625 C 131.589844 290 106.269531 285.976562 81.566406 285.457031 C 53.808594 284.875 27.570312 288.710938 1.347656 297.175781 C 0.9375 297.308594 0.496094 297.082031 0.363281 296.671875 C 0.226562 296.265625 0.457031 295.824219 0.867188 295.691406 C 27.253906 287.167969 53.660156 283.308594 81.597656 283.894531 C 106.433594 284.414062 131.878906 288.457031 159.394531 296.257812 C 210.40625 310.726562 260.519531 336.117188 308.988281 360.667969 C 351.796875 382.355469 396.070312 404.785156 439.679688 418.808594 C 463.113281 426.347656 484.585938 430.964844 505.335938 432.933594 C 528.566406 435.132812 550.335938 433.980469 571.875 429.40625 C 630.714844 417 692.839844 388.585938 747.652344 363.507812 C 779.101562 349.128906 808.804688 335.539062 836.097656 325.5625 C 969.542969 276.800781 994.621094 203.601562 1016.746094 139.027344 C 1026.222656 111.378906 1035.167969 85.261719 1051.78125 63.101562 C 1070.398438 38.265625 1096.128906 21.757812 1132.746094 11.15625 C 1156.484375 4.285156 1178.734375 1.160156 1200.777344 1.601562 C 1220.441406 1.996094 1239.496094 5.246094 1259.027344 11.535156 C 1295.300781 23.21875 1327.910156 43.996094 1359.449219 64.089844 C 1401.535156 90.902344 1445.050781 118.628906 1498.898438 126.386719 C 1499.324219 126.445312 1499.621094 126.839844 1499.558594 127.269531 C 1499.496094 127.695312 1499.097656 127.996094 1498.675781 127.929688 C 1444.492188 120.121094 1400.832031 92.304688 1358.605469 65.402344 C 1327.148438 45.363281 1294.625 24.640625 1258.546875 13.019531 C 1239.160156 6.773438 1220.253906 3.546875 1200.742188 3.160156 C 1178.851562 2.71875 1156.757812 5.824219 1133.175781 12.648438 C 1096.898438 23.148438 1071.429688 39.476562 1053.03125 64.027344 C 1036.566406 85.996094 1027.652344 111.996094 1018.222656 139.527344 C 995.984375 204.4375 970.777344 278.003906 836.628906 327.019531 C 809.398438 336.976562 779.71875 350.550781 748.300781 364.917969 C 693.417969 390.023438 631.203125 418.484375 572.199219 430.921875 C 557.601562 434.035156 542.894531 435.578125 527.710938 435.578125 Z M 527.710938 435.578125 "/></g><mask id="b5aa3c3682"><g filter="url(#eb83002457)"><rect x="0" width="1500" y="0" height="749.999995" style="fill:#000000;fill-opacity:0.65;stroke:none;"/></g></mask></g><g mask="url(#f38df272d6)" transform="matrix(1,0,0,1,0,150)"><g clip-path="url(#ccd67d4adc)"><g clip-rule="nonzero" clip-path="url(#02ea6da97b)"><path style=" stroke:none;fill-rule:nonzero;fill:#4e6376;fill-opacity:1;" d="M 526.691406 440.882812 C 517.125 440.882812 507.429688 440.246094 497.515625 438.984375 C 476.417969 436.292969 454.777344 430.78125 431.359375 422.136719 C 387.855469 406.074219 344.398438 381.203125 302.367188 357.152344 C 255.710938 330.449219 207.464844 302.839844 157.8125 286.234375 C 131.085938 277.300781 106.183594 272.210938 81.6875 270.691406 C 54.164062 268.976562 27.878906 271.773438 1.332031 279.230469 C 0.902344 279.351562 0.453125 279.101562 0.332031 278.671875 C 0.210938 278.242188 0.460938 277.792969 0.890625 277.675781 C 27.621094 270.160156 54.085938 267.351562 81.785156 269.074219 C 106.421875 270.605469 131.464844 275.71875 158.328125 284.703125 C 208.136719 301.359375 256.449219 329.011719 303.171875 355.753906 C 345.144531 379.769531 388.539062 404.613281 431.917969 420.621094 C 455.222656 429.222656 476.75 434.710938 497.722656 437.386719 C 521.214844 440.382812 543.457031 439.8125 565.699219 435.640625 C 625.152344 424.570312 683.441406 394.773438 739.8125 365.957031 C 772.226562 349.386719 802.839844 333.738281 831.761719 322.71875 C 966.652344 271.34375 996.34375 198.222656 1022.539062 133.710938 C 1045.34375 77.542969 1065.042969 29.03125 1148.65625 8.46875 C 1172.75 2.542969 1195.273438 0.03125 1217.503906 0.796875 C 1237.300781 1.484375 1256.394531 4.761719 1275.875 10.832031 C 1312.003906 22.089844 1343.785156 41.40625 1374.523438 60.082031 C 1412.574219 83.207031 1451.917969 107.113281 1498.917969 114.886719 C 1499.363281 114.960938 1499.664062 115.375 1499.585938 115.820312 C 1499.511719 116.265625 1499.09375 116.558594 1498.652344 116.488281 C 1451.335938 108.667969 1411.859375 84.671875 1373.679688 61.46875 C 1343.023438 42.84375 1311.328125 23.578125 1275.390625 12.378906 C 1256.050781 6.355469 1237.09375 3.09375 1217.449219 2.417969 C 1195.371094 1.652344 1172.992188 4.148438 1149.046875 10.039062 C 1066.234375 30.40625 1046.683594 78.5625 1024.042969 134.320312 C 1010.730469 167.117188 996.960938 201.027344 969.230469 234.027344 C 937.570312 271.703125 892.792969 301.207031 832.34375 324.230469 C 803.496094 335.21875 772.925781 350.851562 740.550781 367.398438 C 684.078125 396.269531 625.683594 426.121094 566 437.230469 C 552.976562 439.664062 539.957031 440.882812 526.691406 440.882812 Z M 526.691406 440.882812 "/></g></g><mask id="f38df272d6"><g filter="url(#eb83002457)"><rect x="0" width="1500" y="0" height="749.999995" style="fill:#000000;fill-opacity:0.7;stroke:none;"/></g></mask></g><g mask="url(#cdf833f85a)" transform="matrix(1,0,0,1,0,148)"><g clip-path="url(#4e6054c299)"><g clip-rule="nonzero" clip-path="url(#99e2c1796a)"><path style=" stroke:none;fill-rule:nonzero;fill:#4e6376;fill-opacity:1;" d="M 525.296875 447.339844 C 513.640625 447.339844 501.890625 446.375 489.875 444.453125 C 468.554688 441.039062 446.878906 434.648438 423.609375 424.914062 C 380.394531 406.835938 337.855469 379.523438 296.71875 353.109375 C 251.757812 324.242188 205.265625 294.390625 156.765625 275.625 C 130.660156 265.527344 106.160156 259.390625 81.847656 256.871094 C 54.539062 254.039062 28.195312 255.804688 1.304688 262.28125 C 0.851562 262.390625 0.398438 262.113281 0.289062 261.65625 C 0.175781 261.203125 0.457031 260.75 0.910156 260.640625 C 27.984375 254.125 54.511719 252.339844 82.015625 255.191406 C 106.476562 257.726562 131.125 263.898438 157.367188 274.054688 C 206.027344 292.878906 252.589844 322.777344 297.621094 351.691406 C 338.699219 378.066406 381.167969 405.335938 424.253906 423.355469 C 447.402344 433.035156 468.957031 439.398438 490.136719 442.785156 C 513.871094 446.589844 536.566406 446.605469 559.523438 442.839844 C 619.800781 433.035156 677.164062 400.617188 732.640625 369.265625 C 765.753906 350.550781 797.035156 332.871094 827.433594 320.851562 C 888.082031 296.863281 933.910156 266.769531 967.53125 228.847656 C 996.917969 195.710938 1013.382812 160.605469 1027.910156 129.632812 C 1054.363281 73.226562 1077.210938 24.515625 1164.570312 6.746094 C 1266.984375 -14.074219 1329.566406 22.054688 1390.085938 56.996094 C 1425.425781 77.398438 1458.804688 96.667969 1498.949219 104.355469 C 1499.40625 104.445312 1499.707031 104.886719 1499.617188 105.339844 C 1499.53125 105.800781 1499.089844 106.09375 1498.632812 106.007812 C 1458.210938 98.265625 1424.714844 78.925781 1389.25 58.453125 C 1328.996094 23.667969 1266.695312 -12.304688 1164.910156 8.394531 C 1125.273438 16.457031 1096.597656 31.183594 1074.675781 54.75 C 1054.9375 75.96875 1042.550781 102.378906 1029.4375 130.339844 C 1014.863281 161.417969 998.34375 196.636719 968.796875 229.960938 C 934.992188 268.082031 888.960938 298.324219 828.058594 322.414062 C 797.769531 334.394531 766.539062 352.042969 733.476562 370.726562 C 677.871094 402.15625 620.371094 434.648438 559.800781 444.5 C 548.289062 446.394531 536.839844 447.339844 525.296875 447.339844 Z M 525.296875 447.339844 "/></g></g><mask id="cdf833f85a"><g filter="url(#eb83002457)"><rect x="0" width="1500" y="0" height="749.999995" style="fill:#000000;fill-opacity:0.75;stroke:none;"/></g></mask></g><g mask="url(#af4f9baf03)" transform="matrix(1,0,0,1,0,145)"><g clip-path="url(#507d7b1478)"><path style=" stroke:none;fill-rule:nonzero;fill:#4e6376;fill-opacity:1;" d="M 523.625 454.921875 C 509.9375 454.921875 496.242188 453.578125 482.269531 450.886719 C 460.753906 446.746094 439.0625 439.460938 415.96875 428.632812 C 373.078125 408.523438 331.523438 378.753906 291.335938 349.96875 C 248.023438 318.941406 203.234375 286.863281 155.835938 265.945312 C 130.332031 254.6875 106.199219 247.515625 82.050781 244.007812 C 54.933594 240.070312 28.515625 240.828125 1.285156 246.324219 C 0.8125 246.421875 0.351562 246.117188 0.257812 245.640625 C 0.164062 245.167969 0.46875 244.707031 0.941406 244.613281 C 28.367188 239.078125 54.984375 238.3125 82.300781 242.277344 C 106.601562 245.804688 130.886719 253.027344 156.539062 264.347656 C 204.101562 285.335938 248.96875 317.46875 292.355469 348.550781 C 332.480469 377.292969 373.972656 407.015625 416.710938 427.054688 C 439.675781 437.824219 461.226562 445.058594 482.605469 449.175781 C 506.558594 453.789062 529.695312 454.40625 553.355469 451.0625 C 614.550781 442.476562 671.121094 407.445312 725.828125 373.570312 C 759.503906 352.710938 791.316406 333.015625 823.101562 319.996094 C 884.070312 295.03125 931.058594 264.261719 966.757812 225.941406 C 997.902344 192.507812 1016.4375 157.609375 1032.796875 126.816406 C 1047.933594 98.324219 1062.226562 71.417969 1083.886719 50.292969 C 1107.910156 26.871094 1138.601562 12.8125 1180.488281 6.046875 C 1227.585938 -1.554688 1270.34375 0.472656 1311.21875 12.25 C 1347.289062 22.644531 1377.335938 39.0625 1406.398438 54.941406 C 1436.925781 71.625 1465.761719 87.382812 1498.984375 94.847656 C 1499.453125 94.949219 1499.753906 95.417969 1499.644531 95.890625 C 1499.539062 96.359375 1499.074219 96.65625 1498.597656 96.546875 C 1465.140625 89.035156 1436.199219 73.21875 1405.558594 56.476562 C 1376.582031 40.640625 1346.621094 24.265625 1310.734375 13.925781 C 1270.113281 2.21875 1227.597656 0.207031 1180.765625 7.769531 C 1139.257812 14.476562 1108.859375 28.382812 1085.109375 51.542969 C 1063.644531 72.46875 1049.410156 99.265625 1034.34375 127.628906 C 1017.933594 158.515625 999.339844 193.523438 968.042969 227.125 C 932.171875 265.640625 884.980469 296.542969 823.769531 321.609375 C 792.121094 334.570312 760.367188 354.234375 726.75 375.046875 C 671.886719 409.019531 615.160156 444.148438 553.597656 452.785156 C 543.550781 454.214844 533.589844 454.921875 523.625 454.921875 Z M 523.625 454.921875 "/></g><mask id="af4f9baf03"><g filter="url(#eb83002457)"><rect x="0" width="1500" y="0" height="749.999995" style="fill:#000000;fill-opacity:0.8;stroke:none;"/></g></mask></g><g mask="url(#e2e8b870b3)" transform="matrix(1,0,0,1,0,144)"><g clip-path="url(#1949001bf0)"><path style=" stroke:none;fill-rule:nonzero;fill:#4e6376;fill-opacity:1;" d="M 521.738281 460.628906 C 506.058594 460.628906 490.503906 458.863281 474.707031 455.308594 C 453 450.425781 431.324219 442.253906 408.429688 430.320312 C 365.925781 408.171875 325.398438 375.9375 286.203125 344.765625 C 244.488281 311.585938 201.355469 277.273438 155.011719 254.21875 C 130.078125 241.8125 106.289062 233.601562 82.296875 229.113281 C 55.34375 224.078125 28.839844 223.832031 1.261719 228.375 C 0.765625 228.453125 0.300781 228.121094 0.222656 227.632812 C 0.144531 227.136719 0.476562 226.671875 0.964844 226.59375 C 28.753906 222.019531 55.46875 222.257812 82.625 227.339844 C 106.789062 231.859375 130.730469 240.121094 155.816406 252.601562 C 202.328125 275.746094 245.542969 310.113281 287.328125 343.351562 C 326.457031 374.472656 366.914062 406.652344 409.261719 428.722656 C 432.019531 440.582031 453.550781 448.703125 475.101562 453.550781 C 499.25 458.984375 522.828125 460.207031 547.175781 457.289062 C 609.34375 449.890625 665.203125 412.269531 719.222656 375.886719 C 753.375 352.882812 785.632812 331.15625 818.769531 317.148438 C 879.921875 291.292969 927.96875 259.925781 965.644531 221.25 C 998.464844 187.5625 1019.023438 152.855469 1037.164062 122.234375 C 1054.363281 93.203125 1070.601562 65.789062 1094.070312 44.910156 C 1120 21.839844 1152.519531 8.636719 1196.402344 3.359375 C 1305.988281 -9.820312 1368.625 22.523438 1423.894531 51.058594 C 1449.074219 64.058594 1472.859375 76.339844 1499.023438 83.351562 C 1499.507812 83.480469 1499.792969 83.972656 1499.664062 84.457031 C 1499.53125 84.941406 1499.039062 85.226562 1498.554688 85.097656 C 1472.199219 78.039062 1448.332031 65.71875 1423.0625 52.667969 C 1368.027344 24.25 1305.652344 -7.957031 1196.617188 5.15625 C 1153.121094 10.386719 1120.917969 23.449219 1095.273438 46.261719 C 1072.015625 66.949219 1056.585938 93 1038.722656 123.160156 C 1020.53125 153.867188 999.914062 188.671875 966.945312 222.515625 C 929.09375 261.367188 880.855469 292.871094 819.472656 318.816406 C 786.503906 332.753906 754.3125 354.433594 720.230469 377.390625 C 666.03125 413.890625 609.988281 451.640625 547.390625 459.085938 C 538.761719 460.109375 530.230469 460.628906 521.738281 460.628906 Z M 521.738281 460.628906 "/></g><mask id="e2e8b870b3"><g filter="url(#eb83002457)"><rect x="0" width="1500" y="0" height="749.999995" style="fill:#000000;fill-opacity:0.85;stroke:none;"/></g></mask></g><g mask="url(#f989fff688)" transform="matrix(1,0,0,1,0,141)"><g clip-path="url(#8135c06823)"><g clip-rule="nonzero" clip-path="url(#5e0458ef37)"><path style=" stroke:none;fill-rule:nonzero;fill:#4e6376;fill-opacity:1;" d="M 519.691406 468.4375 C 502.023438 468.4375 484.691406 466.207031 467.183594 461.707031 C 445.308594 456.085938 423.65625 447.015625 400.992188 433.984375 C 358.917969 409.792969 319.460938 375.082031 281.3125 341.515625 C 241.152344 306.183594 199.628906 269.644531 154.292969 244.449219 C 129.902344 230.890625 106.441406 221.648438 82.578125 216.1875 C 55.777344 210.058594 29.167969 208.824219 1.230469 212.417969 C 0.71875 212.484375 0.246094 212.125 0.183594 211.609375 C 0.117188 211.097656 0.476562 210.628906 0.992188 210.5625 C 29.152344 206.9375 55.976562 208.179688 83 214.363281 C 107.035156 219.859375 130.65625 229.164062 155.207031 242.808594 C 200.722656 268.101562 242.320312 304.707031 282.554688 340.101562 C 320.636719 373.609375 360.015625 408.253906 401.929688 432.351562 C 424.445312 445.296875 445.941406 454.308594 467.652344 459.886719 C 491.980469 466.140625 515.972656 467.972656 541.007812 465.488281 C 604.1875 459.257812 659.386719 419.070312 712.773438 380.203125 C 747.339844 355.039062 779.992188 331.269531 814.441406 316.273438 C 875.644531 289.625 924.628906 257.722656 964.1875 218.75 C 998.597656 184.847656 1021.113281 150.316406 1040.980469 119.851562 C 1080.777344 58.824219 1112.207031 10.617188 1212.328125 2.640625 C 1264.203125 -1.492188 1309.792969 1.875 1351.707031 12.933594 C 1388.339844 22.605469 1417.632812 36.964844 1443.484375 49.636719 C 1462.421875 58.921875 1480.308594 67.6875 1499.089844 73.824219 C 1499.578125 73.984375 1499.847656 74.511719 1499.6875 75.003906 C 1499.527344 75.492188 1499 75.761719 1498.507812 75.601562 C 1479.601562 69.425781 1461.660156 60.628906 1442.664062 51.3125 C 1415.636719 38.066406 1387.691406 24.359375 1351.238281 14.742188 C 1309.53125 3.734375 1264.140625 0.382812 1212.488281 4.503906 C 1113.285156 12.40625 1082.074219 60.269531 1042.5625 120.871094 C 1022.648438 151.414062 1000.070312 186.03125 965.515625 220.078125 C 925.789062 259.21875 876.617188 291.242188 815.203125 317.984375 C 780.941406 332.902344 748.371094 356.617188 713.890625 381.71875 C 660.304688 420.726562 604.890625 461.070312 541.207031 467.347656 C 533.945312 468.078125 526.792969 468.4375 519.691406 468.4375 Z M 519.691406 468.4375 "/></g></g><mask id="f989fff688"><g filter="url(#eb83002457)"><rect x="0" width="1500" y="0" height="749.999995" style="fill:#000000;fill-opacity:0.9;stroke:none;"/></g></mask></g><g mask="url(#11b5800d01)" transform="matrix(1,0,0,1,0,138)"><g clip-path="url(#67c27ed898)"><g clip-rule="nonzero" clip-path="url(#ab414d11d2)"><path style=" stroke:none;fill-rule:nonzero;fill:#4e6376;fill-opacity:1;" d="M 517.519531 476.351562 C 497.867188 476.351562 478.804688 473.621094 459.695312 468.097656 C 437.667969 461.734375 416.0625 451.769531 393.652344 437.628906 C 352.046875 411.390625 313.714844 374.203125 276.648438 338.242188 C 238.007812 300.757812 198.050781 261.992188 153.679688 234.65625 C 129.808594 219.949219 106.65625 209.671875 82.910156 203.242188 C 56.234375 196.023438 29.507812 193.808594 1.195312 196.46875 C 0.660156 196.519531 0.191406 196.128906 0.144531 195.59375 C 0.09375 195.0625 0.480469 194.589844 1.015625 194.542969 C 29.558594 191.855469 56.511719 194.09375 83.414062 201.375 C 107.347656 207.851562 130.660156 218.199219 154.691406 233.007812 C 199.242188 260.453125 239.277344 299.292969 277.992188 336.855469 C 314.988281 372.75 353.246094 409.863281 394.679688 435.996094 C 416.9375 450.035156 438.378906 459.925781 460.230469 466.242188 C 484.714844 473.316406 509.117188 475.761719 534.828125 473.71875 C 599.089844 468.625 653.730469 425.875 706.574219 384.523438 C 741.464844 357.222656 774.417969 331.433594 810.101562 315.425781 C 871.292969 288.117188 921.128906 255.777344 962.46875 216.546875 C 998.394531 182.460938 1022.792969 148.0625 1044.3125 117.714844 C 1066.910156 85.855469 1086.421875 58.34375 1113.730469 37.789062 C 1143.679688 15.246094 1180.066406 3.859375 1228.242188 1.949219 C 1285.535156 -0.316406 1334.300781 3.941406 1377.3125 14.96875 C 1414.746094 24.566406 1442.585938 37.925781 1467.152344 49.710938 C 1478.179688 55.003906 1488.59375 60 1499.148438 64.34375 C 1499.644531 64.546875 1499.878906 65.113281 1499.671875 65.605469 C 1499.46875 66.101562 1498.902344 66.335938 1498.410156 66.132812 C 1487.804688 61.769531 1477.367188 56.761719 1466.3125 51.453125 C 1441.832031 39.707031 1414.082031 26.390625 1376.828125 16.84375 C 1334 5.859375 1285.417969 1.621094 1228.3125 3.882812 C 1180.546875 5.773438 1144.507812 17.035156 1114.890625 39.335938 C 1087.828125 59.710938 1068.390625 87.113281 1045.886719 118.839844 C 1002.664062 179.773438 948.875 255.617188 810.878906 317.195312 C 775.410156 333.113281 742.546875 358.828125 707.753906 386.050781 C 654.6875 427.574219 599.808594 470.515625 534.96875 475.652344 C 529.101562 476.117188 523.285156 476.351562 517.519531 476.351562 Z M 517.519531 476.351562 "/></g></g><mask id="11b5800d01"><g filter="url(#eb83002457)"><rect x="0" width="1500" y="0" height="749.999995" style="fill:#000000;fill-opacity:0.95;stroke:none;"/></g></mask></g><g clip-rule="nonzero" clip-path="url(#6d2eda1657)"><path style=" stroke:none;fill-rule:nonzero;fill:#4e6376;fill-opacity:1;" d="M 515.265625 619.34375 C 493.601562 619.34375 472.875 616.085938 452.25 609.472656 C 430.085938 602.363281 408.542969 591.5 386.402344 576.265625 C 345.308594 547.984375 308.136719 508.320312 272.191406 469.96875 C 235.035156 430.320312 196.609375 389.320312 153.164062 359.835938 C 129.792969 343.972656 106.9375 332.667969 83.285156 325.273438 C 56.726562 316.964844 29.863281 313.769531 1.171875 315.507812 C 0.621094 315.542969 0.148438 315.125 0.113281 314.570312 C 0.078125 314.019531 0.496094 313.546875 1.050781 313.511719 C 29.992188 311.757812 57.085938 314.980469 83.882812 323.355469 C 107.722656 330.808594 130.75 342.195312 154.289062 358.171875 C 197.917969 387.78125 236.417969 428.863281 273.648438 468.589844 C 309.523438 506.867188 346.617188 546.449219 387.535156 574.613281 C 409.511719 589.734375 430.878906 600.515625 452.859375 607.566406 C 477.488281 615.464844 502.277344 618.527344 528.65625 616.929688 C 593.90625 612.976562 647.921875 567.742188 700.164062 523.996094 C 733.875 495.757812 768.742188 466.5625 805.777344 449.566406 C 942.746094 386.691406 1000.457031 311.320312 1046.824219 250.753906 C 1071.996094 217.875 1093.730469 189.484375 1123.113281 169.019531 C 1155.207031 146.660156 1193.675781 136.246094 1244.179688 136.246094 C 1313.890625 136.246094 1369.183594 141.96875 1413.222656 153.746094 C 1451.847656 164.066406 1477.042969 177.773438 1499.273438 189.863281 C 1499.757812 190.128906 1499.9375 190.730469 1499.671875 191.214844 C 1499.40625 191.699219 1498.804688 191.878906 1498.320312 191.617188 C 1476.1875 179.578125 1451.101562 165.933594 1412.707031 155.671875 C 1368.839844 143.945312 1313.714844 138.242188 1244.179688 138.242188 C 1194.105469 138.242188 1156 148.542969 1124.253906 170.65625 C 1095.136719 190.941406 1073.484375 219.222656 1048.414062 251.96875 C 1001.910156 312.707031 944.027344 388.300781 806.613281 451.382812 C 769.820312 468.269531 735.058594 497.382812 701.445312 525.527344 C 648.960938 569.484375 594.6875 614.933594 528.78125 618.929688 C 524.230469 619.203125 519.726562 619.34375 515.265625 619.34375 Z M 515.265625 619.34375 "/></g></g></svg>