<svg xmlns="http://www.w3.org/2000/svg" version="1.1" xmlns:xlink="http://www.w3.org/1999/xlink" xmlns:svgjs="http://svgjs.dev/svgjs" viewBox="0 0 800 800" opacity="0.34" width="800" height="800"><g stroke-width="3" stroke="hsl(262, 85%, 50%)" fill="none"><rect width="12.894736842105264" height="12.894736842105264" x="-6.447368421052632" y="-6.447368421052632" fill="hsl(262, 85%, 50%)" stroke="none"></rect><rect width="12.894736842105264" height="12.894736842105264" x="126.88596491228071" y="-6.447368421052632" fill="hsl(262, 85%, 50%)" stroke="none"></rect><rect width="12.894736842105264" height="12.894736842105264" x="260.219298245614" y="-6.447368421052632" fill="hsl(262, 85%, 50%)" stroke="none"></rect><rect width="12.894736842105264" height="12.894736842105264" x="393.55263157894734" y="-6.447368421052632" fill="hsl(262, 85%, 50%)" stroke="none"></rect><rect width="12.894736842105264" height="12.894736842105264" x="526.8859649122808" y="-6.447368421052632" fill="hsl(262, 85%, 50%)" stroke="none"></rect><rect width="12.894736842105264" height="12.894736842105264" x="660.2192982456141" y="-6.447368421052632" fill="hsl(262, 85%, 50%)" stroke="none"></rect><rect width="12.894736842105264" height="12.894736842105264" x="793.5526315789475" y="-6.447368421052632" fill="hsl(262, 85%, 50%)" stroke="none"></rect><rect width="12.894736842105264" height="12.894736842105264" x="-6.447368421052632" y="126.88596491228071" fill="hsl(262, 85%, 50%)" stroke="none"></rect><rect width="12.894736842105264" height="12.894736842105264" x="126.88596491228071" y="126.88596491228071" fill="hsl(262, 85%, 50%)" stroke="none"></rect><rect width="12.894736842105264" height="12.894736842105264" x="260.219298245614" y="126.88596491228071"></rect><rect width="12.894736842105264" height="12.894736842105264" x="393.55263157894734" y="126.88596491228071" fill="hsl(262, 85%, 50%)" stroke="none"></rect><rect width="12.894736842105264" height="12.894736842105264" x="526.8859649122808" y="126.88596491228071"></rect><rect width="12.894736842105264" height="12.894736842105264" x="660.2192982456141" y="126.88596491228071" fill="hsl(262, 85%, 50%)" stroke="none"></rect><rect width="12.894736842105264" height="12.894736842105264" x="793.5526315789475" y="126.88596491228071" fill="hsl(262, 85%, 50%)" stroke="none"></rect><rect width="12.894736842105264" height="12.894736842105264" x="-6.447368421052632" y="260.219298245614" fill="hsl(262, 85%, 50%)" stroke="none"></rect><rect width="12.894736842105264" height="12.894736842105264" x="126.88596491228071" y="260.219298245614" fill="hsl(262, 85%, 50%)" stroke="none"></rect><rect width="12.894736842105264" height="12.894736842105264" x="260.219298245614" y="260.219298245614" fill="hsl(262, 85%, 50%)" stroke="none"></rect><rect width="12.894736842105264" height="12.894736842105264" x="393.55263157894734" y="260.219298245614" fill="hsl(262, 85%, 50%)" stroke="none"></rect><rect width="12.894736842105264" height="12.894736842105264" x="526.8859649122808" y="260.219298245614" fill="hsl(262, 85%, 50%)" stroke="none"></rect><rect width="12.894736842105264" height="12.894736842105264" x="660.2192982456141" y="260.219298245614" fill="hsl(262, 85%, 50%)" stroke="none"></rect><rect width="12.894736842105264" height="12.894736842105264" x="793.5526315789475" y="260.219298245614" fill="hsl(262, 85%, 50%)" stroke="none"></rect><rect width="12.894736842105264" height="12.894736842105264" x="-6.447368421052632" y="393.55263157894734" fill="hsl(262, 85%, 50%)" stroke="none"></rect><rect width="12.894736842105264" height="12.894736842105264" x="126.88596491228071" y="393.55263157894734" fill="hsl(262, 85%, 50%)" stroke="none"></rect><rect width="12.894736842105264" height="12.894736842105264" x="260.219298245614" y="393.55263157894734" fill="hsl(262, 85%, 50%)" stroke="none"></rect><rect width="12.894736842105264" height="12.894736842105264" x="393.55263157894734" y="393.55263157894734" fill="hsl(262, 85%, 50%)" stroke="none"></rect><rect width="12.894736842105264" height="12.894736842105264" x="526.8859649122808" y="393.55263157894734"></rect><rect width="12.894736842105264" height="12.894736842105264" x="660.2192982456141" y="393.55263157894734" fill="hsl(262, 85%, 50%)" stroke="none"></rect><rect width="12.894736842105264" height="12.894736842105264" x="793.5526315789475" y="393.55263157894734" fill="hsl(262, 85%, 50%)" stroke="none"></rect><rect width="12.894736842105264" height="12.894736842105264" x="-6.447368421052632" y="526.8859649122808" fill="hsl(262, 85%, 50%)" stroke="none"></rect><rect width="12.894736842105264" height="12.894736842105264" x="126.88596491228071" y="526.8859649122808" fill="hsl(262, 85%, 50%)" stroke="none"></rect><rect width="12.894736842105264" height="12.894736842105264" x="260.219298245614" y="526.8859649122808" fill="hsl(262, 85%, 50%)" stroke="none"></rect><rect width="12.894736842105264" height="12.894736842105264" x="393.55263157894734" y="526.8859649122808" fill="hsl(262, 85%, 50%)" stroke="none"></rect><rect width="12.894736842105264" height="12.894736842105264" x="526.8859649122808" y="526.8859649122808" fill="hsl(262, 85%, 50%)" stroke="none"></rect><rect width="12.894736842105264" height="12.894736842105264" x="660.2192982456141" y="526.8859649122808"></rect><rect width="12.894736842105264" height="12.894736842105264" x="793.5526315789475" y="526.8859649122808" fill="hsl(262, 85%, 50%)" stroke="none"></rect><rect width="12.894736842105264" height="12.894736842105264" x="-6.447368421052632" y="660.2192982456141" fill="hsl(262, 85%, 50%)" stroke="none"></rect><rect width="12.894736842105264" height="12.894736842105264" x="126.88596491228071" y="660.2192982456141" fill="hsl(262, 85%, 50%)" stroke="none"></rect><rect width="12.894736842105264" height="12.894736842105264" x="260.219298245614" y="660.2192982456141"></rect><rect width="12.894736842105264" height="12.894736842105264" x="393.55263157894734" y="660.2192982456141" fill="hsl(262, 85%, 50%)" stroke="none"></rect><rect width="12.894736842105264" height="12.894736842105264" x="526.8859649122808" y="660.2192982456141"></rect><rect width="12.894736842105264" height="12.894736842105264" x="660.2192982456141" y="660.2192982456141"></rect><rect width="12.894736842105264" height="12.894736842105264" x="793.5526315789475" y="660.2192982456141" fill="hsl(262, 85%, 50%)" stroke="none"></rect><rect width="12.894736842105264" height="12.894736842105264" x="-6.447368421052632" y="793.5526315789475" fill="hsl(262, 85%, 50%)" stroke="none"></rect><rect width="12.894736842105264" height="12.894736842105264" x="126.88596491228071" y="793.5526315789475" fill="hsl(262, 85%, 50%)" stroke="none"></rect><rect width="12.894736842105264" height="12.894736842105264" x="260.219298245614" y="793.5526315789475" fill="hsl(262, 85%, 50%)" stroke="none"></rect><rect width="12.894736842105264" height="12.894736842105264" x="393.55263157894734" y="793.5526315789475" fill="hsl(262, 85%, 50%)" stroke="none"></rect><rect width="12.894736842105264" height="12.894736842105264" x="526.8859649122808" y="793.5526315789475" fill="hsl(262, 85%, 50%)" stroke="none"></rect><rect width="12.894736842105264" height="12.894736842105264" x="660.2192982456141" y="793.5526315789475" fill="hsl(262, 85%, 50%)" stroke="none"></rect><rect width="12.894736842105264" height="12.894736842105264" x="793.5526315789475" y="793.5526315789475" fill="hsl(262, 85%, 50%)" stroke="none"></rect></g></svg>