<svg clip-rule="evenodd" fill-rule="evenodd" stroke-linejoin="round" stroke-miterlimit="2" viewBox="0 0 510 510" xmlns="http://www.w3.org/2000/svg"><g><g><g><path d="m309.842 299.561c-58.79-34.566-167.044-113.894-168.49-193.005-1.591-88.078 97.406-128.067 171.889-52.282 74.483-75.713 173.553-35.796 171.962 52.282-1.446 79.111-109.7 158.439-168.491 193.005-2.169 1.302-4.7 1.302-6.87 0z" fill="#fe646f"/><path d="m222.627 14.402c27.354-1.461 60.313 9.327 90.614 39.872-1.679 1.569-3.346 3.195-5.002 4.878-25.667-26.115-59.242-43.361-85.612-44.75zm171.256.032c50.171-2.639 92.363 34.399 91.32 92.122-1.446 79.111-109.7 158.439-168.491 193.005-2.169 1.302-4.7 1.302-6.87 0-.517-.304-1.039-.612-1.565-.924 59.125-35.039 165.492-113.667 166.926-192.081.972-53.842-35.672-89.688-81.32-92.122z" fill="#fd4755"/></g><g><path d="m60.284 370.347 84.884-49.17c15.938-9.235 32.132-15.784 49.656-10.105 19.52 6.345 51.396 19.929 83.912 25.788 12.075 3.914 19.596 15.989 16.322 28.243-3.3 12.254-13.636 18.573-28.269 16.322l11.384 1.816c13.022 2.098 24.969.307 36.379-6.344l81.609-47.533c63.445-36.942 72.758 19.903 51.677 32.899l-148.124 91.203c-13.61 8.366-28.525 10.336-43.977 6.191l-107.422-28.781-39.807 22.974c-7.65 4.4-17.473 1.765-21.899-5.884l-32.183-55.72c-4.401-7.649-1.766-17.473 5.858-21.899z" fill="#f6dccd"/><path d="m60.284 370.347 84.884-49.17c15.938-9.235 32.132-15.784 49.656-10.105 10.438 3.377 24.432 8.852 40.14 14.096l-164.447 94.964-16.091-27.886c-4.401-7.649-1.766-17.473 5.858-21.899z" fill="#f1cbbc"/><path d="m70.133 345.89 67.334 118.96c3.249 5.757 1.203 13.124-4.528 16.373l-22.922 12.971c-5.73 3.249-13.098 1.202-16.373-4.554l-67.308-118.96c-3.275-5.756-1.228-13.124 4.528-16.373l22.896-12.971c5.757-3.249 13.124-1.202 16.373 4.554z" fill="#d1d1d6"/><path d="m105.566 427.627 11.896 21.055 11.793 20.825c3.249 5.73 1.228 13.072-4.502 16.347l8.186-4.631c5.731-3.249 7.777-10.616 4.528-16.373l-11.819-20.901-23.741-41.956-23.766-41.981-8.008-14.122c-2.814-4.988-8.723-7.189-13.993-5.577l13.84 24.457 23.741 41.956 11.819 20.876z" fill="#b1b1b5"/></g><g><path d="m250.805 204.536c-.11.745.11 1.502.602 2.072.493.57 1.209.898 1.962.898 17.058.007 102.756.007 119.809.007.755 0 1.473-.328 1.967-.9.494-.571.714-1.329.605-2.077-4.704-30.271-30.878-53.441-62.477-53.441-31.582 0-57.756 23.17-62.468 53.441z" fill="#8ac9fe"/><path d="m364.674 207.513c.755 0 1.473-.328 1.967-.9.494-.571.715-1.329.605-2.077-4.491-28.901-28.554-51.33-58.224-53.3 1.405-.093 2.822-.141 4.251-.141 31.599 0 57.773 23.17 62.477 53.441.109.748-.111 1.506-.605 2.077-.494.572-1.212.9-1.967.9-1.981 0-4.887 0-8.504 0z" fill="#60b7ff"/><path d="m313.273 151.095c17.62 0 31.969-14.365 31.969-31.969 0-17.603-14.349-31.969-31.969-31.969-17.603 0-31.952 14.366-31.952 31.969 0 17.604 14.349 31.969 31.952 31.969z" fill="#f6dccd"/><path d="m311.148 151.025c16.633-1.1 29.842-15.009 29.842-31.899 0-16.889-13.209-30.798-29.842-31.899.702-.046 1.411-.07 2.125-.07 17.62 0 31.969 14.366 31.969 31.969 0 17.604-14.349 31.969-31.969 31.969-.714 0-1.423-.023-2.125-.07z" fill="#f1cbbc"/></g></g><path d="m137.544 448.715 6.535 11.548c.004.007.008.014.011.02 5.391 9.589 1.973 21.824-7.561 27.209l-22.823 12.935c-.008.005-.016.009-.024.014-9.588 5.391-21.824 1.973-27.211-7.566l-67.114-118.588c-5.439-9.597-2.021-21.844 7.525-27.235l22.849-12.936.007-.004c9.542-5.389 21.781-2.001 27.215 7.54l.01.019 5.318 9.396 59.843-34.647c17.946-10.379 36.281-17.157 55.991-10.757 19.217 6.231 50.59 19.663 82.609 25.449.352.063.7.151 1.041.261 16.112 5.217 25.91 21.504 21.511 37.865-.699 2.603-1.633 5.016-2.787 7.219 3.569-.992 7.059-2.467 10.489-4.465l81.378-47.395c29.354-17.101 48.92-15.271 59.997-7.84 9.518 6.386 13.925 17.289 13.641 27.991-.287 10.812-5.435 21.141-13.913 26.362l-147.664 90.916c-15.512 9.573-32.504 11.82-50.107 7.124l-.009-.002-103.914-27.849zm-47.382-83.723 39.501 69.798 15.594-9.005c1.837-1.061 4.021-1.348 6.071-.799l107.109 28.705c13.197 3.521 25.946 1.897 37.577-5.281l.007-.005 147.67-90.918c3.845-2.368 5.843-7.129 6.245-12.003.62-7.514-2.904-15.813-12.199-17.761-8.633-1.809-20.785 1.062-37.327 10.699l-81.376 47.394c-13.031 7.594-26.689 9.693-41.574 7.324-.009-.002-.018-.003-.027-.005l-10.089-1.642c-.004 0-.007-.001-.01-.001-.108-.018-.216-.038-.324-.06-.003 0-.007-.001-.011-.002-18.363-3.77-35.394-9.317-54.293-14.396-4.264-1.146-6.795-5.538-5.649-9.802s5.538-6.796 9.802-5.65c18.464 4.962 35.108 10.404 53.033 14.108 9.141 1.014 15.83-2.774 17.932-10.603l.001-.004c2.131-7.922-2.831-15.607-10.529-18.333-32.615-5.985-64.54-19.519-84.119-25.868l-.003-.001c-15.229-4.945-29.174 1.37-43.039 9.389zm-27.115-15.427-.006-.009c-1.091-1.899-3.528-2.588-5.433-1.513l-22.843 12.932-.007.004c-1.899 1.073-2.562 3.511-1.481 5.418l.002.005 67.117 118.593.003.006c1.076 1.904 3.521 2.569 5.436 1.497l22.804-12.926.011-.006c1.905-1.076 2.569-3.522 1.496-5.437zm-8.639 12.517c5.18-.771 9.989 2.806 10.76 7.986.74 5.18-2.836 10.02-8.016 10.76-5.18.771-9.99-2.836-10.761-8.016-.74-5.18 2.837-9.99 8.017-10.73zm251.368-54.904c-35.851-21.08-89.75-58.568-127.481-102.517-26.072-30.368-44.322-63.897-44.931-97.224v-.002c-.867-48.002 25.928-82.735 62.836-95.307 34.548-11.768 78.488-4.116 117.055 31.725 38.565-35.803 82.519-43.456 117.082-31.699 36.929 12.563 63.743 47.278 62.876 95.281v.002c-.61 33.327-18.859 66.856-44.931 97.224-37.731 43.949-91.63 81.437-127.451 102.5-4.754 2.848-10.298 2.854-15.055.017zm7.512-14.144c34.699-20.466 86.544-56.501 122.854-98.796 23.44-27.302 40.525-57.13 41.073-87.093.724-40.074-21.202-69.356-52.031-79.843-31.478-10.709-71.626-1.858-106.229 33.316-1.504 1.53-3.56 2.391-5.705 2.39-2.145 0-4.2-.862-5.703-2.392-34.601-35.206-74.728-44.058-106.188-33.342-30.813 10.496-52.721 39.796-51.997 79.871.548 29.963 17.633 59.791 41.073 87.093 36.31 42.295 88.154 78.33 122.853 98.796zm27.05-143.88c23.467 9.702 40.579 31.651 43.381 57.877.241 2.257-.488 4.51-2.005 6.198s-3.68 2.652-5.95 2.652h-124.952c-2.27 0-4.433-.965-5.951-2.654-1.517-1.689-2.245-3.943-2.003-6.2 2.817-26.226 19.933-48.174 43.395-57.875-7.819-7.272-12.722-17.642-12.722-29.119 0-21.903 17.855-39.775 39.757-39.775 21.922 0 39.775 17.874 39.775 39.775 0 11.477-4.903 21.848-12.725 29.121zm-27.05 10.653c-25.165 0-46.373 16.958-52.824 40.074h105.654c-6.44-23.116-27.651-40.074-52.83-40.074zm0-16c13.104 0 23.775-10.683 23.775-23.774s-10.671-23.775-23.775-23.775c-13.089 0-23.757 10.685-23.757 23.775 0 13.089 10.668 23.774 23.757 23.774z"/></g></svg>