<svg enable-background="new 0 0 520 520" height="512" viewBox="0 0 520 520" width="512" xmlns="http://www.w3.org/2000/svg"><g id="_x31__x2C__Chart_x2C__Digital_x2C__Graph_x2C__Marketing_x2C__Mobile"><g><g><path d="m485.65 257.88v10.22l-39.26 5.881c-1.141 7.42-3.08 14.56-5.721 21.39l31.051 24.73-10.18 17.679-36.97-14.561c-4.65 5.761-9.9 11.011-15.66 15.66l14.561 36.97-17.681 10.181-24.739-31.05c-6.82 2.649-13.961 4.579-21.381 5.72l-5.88 39.3h-17.29v-82.62c2.32.28 4.68.44 7.07.44 33.02 0 59.93-26.91 59.93-59.94 0-32.98-26.91-59.93-59.93-59.93-2.391 0-4.75.16-7.07.44v-82.58h17.29l5.88 39.26c7.42 1.18 14.561 3.11 21.381 5.72l24.739-31.05 17.681 10.22-14.561 36.96c5.76 4.66 11.01 9.91 15.66 15.63l36.97-14.52 10.181 17.64-31.051 24.73c2.641 6.83 4.58 13.97 5.721 21.39l39.26 5.92v10.17z" fill="#f0582f"/><path d="m77.5 90v340h260v-30-82.62-118.99-82.58-25.81z" fill="#f2f2f2"/><path d="m102.5 115v265 25h210v-25-265z" fill="#87c7ff"/><path d="m412.5 415c13.801 0 25 11.19 25 25s-11.199 25-25 25c-13.81 0-25-11.19-25-25s11.19-25 25-25z" fill="#87c7ff"/><path d="m47.5 200c8.28 0 15 6.72 15 15s-6.72 15-15 15c-8.29 0-15-6.72-15-15s6.71-15 15-15z" fill="#87c7ff"/><path d="m442.5 65c8.28 0 15 6.72 15 15s-6.72 15-15 15c-8.289 0-15-6.72-15-15s6.711-15 15-15z" fill="#87c7ff"/><path d="m260.33 290.26-12.47 4.54-57.2 20.851 21.31-56.66 4.67-12.42c20.07 7.679 36.01 23.619 43.69 43.689z" fill="#f5ea0a"/><path d="m247.93 294.99c2.95 6.49 4.13 14.16 4.13 22.43 0 4.441-.47 8.78-1.36 12.97l-1.79-.39-58.25-14.35 57.2-20.851z" fill="#07cc66"/><path d="m211.97 258.99-21.31 56.66-18.22-57.75c5.59-1.61 11.5-2.47 17.63-2.47 7.68 0 14.77 1.18 21.85 3.539z" fill="#07cc66"/><path d="m248.91 330 1.79.39c-2.52 11.971-8.48 22.74-16.79 31.16-11.22 11.37-26.72 18.45-43.84 18.45-34.83 0-62.57-28.34-62.57-62.58 0-28.21 18.83-52.01 44.94-59.52l18.22 57.75z" fill="#f0582f"/><path d="m480 375c4.141 0 7.5 3.36 7.5 7.5s-3.359 7.5-7.5 7.5c-4.15 0-7.5-3.36-7.5-7.5s3.35-7.5 7.5-7.5z" fill="#ff7058"/><path d="m470 125c4.141 0 7.5 3.36 7.5 7.5s-3.359 7.5-7.5 7.5c-4.15 0-7.5-3.36-7.5-7.5s3.35-7.5 7.5-7.5z" fill="#ff7058"/><path d="m380 60c4.141 0 7.5 3.36 7.5 7.5s-3.359 7.5-7.5 7.5c-4.15 0-7.5-3.36-7.5-7.5s3.35-7.5 7.5-7.5z" fill="#ff7058"/><path d="m370 455c4.141 0 7.5 3.36 7.5 7.5s-3.359 7.5-7.5 7.5c-4.15 0-7.5-3.36-7.5-7.5s3.35-7.5 7.5-7.5z" fill="#ff7058"/><g fill="#f2f2f2"><circle cx="187.5" cy="135" r="5"/><circle cx="187.5" cy="155" r="5"/><circle cx="187.5" cy="175" r="5"/><circle cx="187.5" cy="195" r="5"/><circle cx="187.5" cy="215" r="5"/></g><path d="m60 120c4.14 0 7.5 3.36 7.5 7.5s-3.36 7.5-7.5 7.5c-4.15 0-7.5-3.36-7.5-7.5s3.35-7.5 7.5-7.5z" fill="#ff7058"/><path d="m50 350c4.14 0 7.5 3.36 7.5 7.5s-3.36 7.5-7.5 7.5c-4.15 0-7.5-3.36-7.5-7.5s3.35-7.5 7.5-7.5z" fill="#ff7058"/><path d="m287.5 220h-85c-2.761 0-5-2.239-5-5s2.239-5 5-5h85c2.762 0 5 2.239 5 5s-2.238 5-5 5z" fill="#f2f2f2"/><path d="m287.5 200h-85c-2.761 0-5-2.239-5-5s2.239-5 5-5h85c2.762 0 5 2.239 5 5s-2.238 5-5 5z" fill="#f2f2f2"/><path d="m287.5 180h-85c-2.761 0-5-2.239-5-5s2.239-5 5-5h85c2.762 0 5 2.239 5 5s-2.238 5-5 5z" fill="#f2f2f2"/><path d="m287.5 160h-85c-2.761 0-5-2.239-5-5s2.239-5 5-5h85c2.762 0 5 2.239 5 5s-2.238 5-5 5z" fill="#f2f2f2"/><path d="m287.5 140h-85c-2.761 0-5-2.239-5-5s2.239-5 5-5h85c2.762 0 5 2.239 5 5s-2.238 5-5 5z" fill="#f2f2f2"/><g><g fill="#65b1fc"><path d="m312.5 375h-70c-2.761 0-5 2.238-5 5s2.239 5 5 5h70v-5z"/><path d="m142.5 380c0-2.762-2.239-5-5-5h-35v5 5h35c2.761 0 5-2.238 5-5z"/></g></g><path d="m337.5 71.33v19.67h-260v-19.67c0-22.27 18.05-40.33 40.33-40.33h179.33c22.28 0 40.34 18.06 40.34 40.33z" fill="#555a66"/><path d="m227.5 66h-40.34c-2.761 0-5-2.239-5-5s2.239-5 5-5h40.34c2.761 0 5 2.239 5 5s-2.239 5-5 5z" fill="#404651"/><path d="m77.5 429v19.67c0 22.271 18.05 40.33 40.33 40.33h179.33c22.28 0 40.34-18.06 40.34-40.33v-19.67z" fill="#555a66"/><path d="m207.5 444c8.28 0 15 6.72 15 15s-6.72 15-15 15c-8.29 0-15-6.72-15-15s6.71-15 15-15z" fill="#404651"/></g></g></g></svg>