<svg height="512" viewBox="0 0 64 64" width="512" xmlns="http://www.w3.org/2000/svg"><g id="tall_window-2" data-name="tall window"><path d="m8 1h48v62h-48z" fill="#9d5d41"/><g fill="#edeeed"><path d="m11 4h42v17h-42z"/><path d="m11 24h19v36h-19z"/><path d="m34 24h19v36h-19z"/></g><g opacity=".1"><path d="m13 15v-14h-5v62h48v-5a43 43 0 0 1 -43-43z"/></g><path d="m56 0h-48a1 1 0 0 0 -1 1v62a1 1 0 0 0 1 1h48a1 1 0 0 0 1-1v-62a1 1 0 0 0 -1-1zm-1 62h-46v-60h46z"/><path d="m11 22h42a1 1 0 0 0 1-1v-17a1 1 0 0 0 -1-1h-42a1 1 0 0 0 -1 1v17a1 1 0 0 0 1 1zm1-17h40v15h-40z"/><path d="m11 61h19a1 1 0 0 0 1-1v-36a1 1 0 0 0 -1-1h-19a1 1 0 0 0 -1 1v36a1 1 0 0 0 1 1zm1-2v-7.586l17-17v3.172l-8.707 8.707 1.414 1.414 7.293-7.293v18.586zm17-34v6.586l-17 17v-3.172l9.707-9.707-1.414-1.414-8.293 8.293v-17.586z"/><path d="m53 23h-19a1 1 0 0 0 -1 1v36a1 1 0 0 0 1 1h19a1 1 0 0 0 1-1v-36a1 1 0 0 0 -1-1zm-1 2v6.586l-17 17v-3.172l9.707-9.707-1.414-1.414-8.293 8.293v-17.586zm-17 34v-7.586l17-17v3.172l-8.707 8.707 1.414 1.414 7.293-7.293v18.586z"/></g></svg>