<svg id="Layer_1" enable-background="new 0 0 512 512" viewBox="0 0 512 512" xmlns="http://www.w3.org/2000/svg"><g><g><path clip-rule="evenodd" d="m64.8 5.3h411.6c16.7 0 30.3 13.6 30.3 30.3v411.6c0 16.7-13.6 30.3-30.3 30.3h-411.6c-16.7 0-30.3-13.6-30.3-30.3v-411.7c0-16.6 13.7-30.2 30.3-30.2z" fill="#00aec7" fill-rule="evenodd"/></g><g><path clip-rule="evenodd" d="m64.8.4h411.6c19.4 0 35.2 15.9 35.2 35.2v411.6c0 9.7-4 18.5-10.3 24.8-6.4 6.4-15.2 10.3-24.9 10.3h-411.6c-9.8 0-18.8-4-25.1-10.6-6.2-6.4-10.1-15-10.1-24.6v-411.6c0-9.7 4-18.5 10.3-24.8 6.5-6.4 15.3-10.3 24.9-10.3zm411.6 9.8h-411.6c-7 0-13.3 2.9-17.9 7.5s-7.5 10.9-7.5 17.9v411.6c0 14 11.4 25.4 25.4 25.4h411.6c14 0 25.4-11.4 25.4-25.4v-411.7c0-13.9-11.4-25.3-25.4-25.3z" fill="#2a2927" fill-rule="evenodd"/></g><g><path clip-rule="evenodd" d="m80.2 31.6h380.8c10.7 0 19.4 8.7 19.4 19.4v380.8c0 10.7-8.7 19.4-19.4 19.4h-380.8c-10.7 0-19.4-8.7-19.4-19.4v-380.9c0-10.6 8.8-19.3 19.4-19.3z" fill="#f9f8f4" fill-rule="evenodd"/></g><g><path clip-rule="evenodd" d="m80.2 26.7h380.8c6.8 0 13 2.8 17.4 7.4 4.2 4.4 6.8 10.3 6.8 16.8v380.8c0 6.7-2.7 12.7-7.1 17.1s-10.5 7.2-17.2 7.2h-380.7c-6.7 0-12.7-2.7-17.1-7.1-4.4-4.4-7.1-10.5-7.1-17.2v-380.8c-.1-13.3 10.9-24.2 24.2-24.2zm380.8 9.7h-380.8c-4 0-7.6 1.6-10.2 4.3-2.6 2.6-4.3 6.3-4.3 10.2v380.8c0 8 6.5 14.5 14.5 14.5h380.8c8 0 14.5-6.5 14.5-14.5v-380.8c0-7.9-6.5-14.4-14.5-14.5z" fill="#2a2927" fill-rule="evenodd"/></g><g><path clip-rule="evenodd" d="m272.8 86.2c4.5-4.5 11.4 2.4 6.9 6.9l-10.9 10.9c-4.5 4.5-11.4-2.4-6.9-6.9z" fill="#2a2927" fill-rule="evenodd"/></g><g><path clip-rule="evenodd" d="m237.2 93.1c-4.5-4.5 2.4-11.4 6.9-6.9l10.9 10.9c1.9 1.9 1.9 5 0 6.9s-5 1.9-6.9 0z" fill="#2a2927" fill-rule="evenodd"/></g><g><path clip-rule="evenodd" d="m248.1 110.9c4.5-4.5 11.4 2.4 6.9 6.9l-10.9 10.9c-4.5 4.5-11.4-2.4-6.9-6.9z" fill="#2a2927" fill-rule="evenodd"/></g><g><path clip-rule="evenodd" d="m261.9 117.8c-4.5-4.5 2.4-11.4 6.9-6.9l10.9 10.9c1.9 1.9 1.9 5 0 6.9s-5 1.9-6.9 0z" fill="#2a2927" fill-rule="evenodd"/></g><g><path clip-rule="evenodd" d="m410.6 63.9c4.5-4.5 11.4 2.4 6.9 6.9l-10.9 10.9c-1.9 1.9-5 1.9-6.9 0s-1.9-5 0-6.9z" fill="#2a2927" fill-rule="evenodd"/></g><g><path clip-rule="evenodd" d="m375 70.8c-4.5-4.5 2.4-11.4 6.9-6.9l10.9 10.9c4.5 4.5-2.4 11.4-6.9 6.9z" fill="#2a2927" fill-rule="evenodd"/></g><g><path clip-rule="evenodd" d="m385.9 88.6c4.5-4.5 11.4 2.4 6.9 6.9l-10.8 10.9c-4.5 4.5-11.4-2.4-6.9-6.9z" fill="#2a2927" fill-rule="evenodd"/></g><g><path clip-rule="evenodd" d="m399.7 95.5c-4.5-4.5 2.4-11.4 6.9-6.9l10.9 10.9c1.9 1.9 1.9 5 0 6.9s-5 1.9-6.9 0z" fill="#2a2927" fill-rule="evenodd"/></g><g><path clip-rule="evenodd" d="m97.5 332.5h134.1v29.9h-134.1z" fill="#fccb30" fill-rule="evenodd" transform="matrix(.707 -.707 .707 .707 -197.487 218.102)"/></g><g><path clip-rule="evenodd" d="m204.8 286 21.1 21.1c1.9 1.9 1.9 5 0 6.9l-94.8 94.8c-1.9 1.9-5 1.9-6.9 0l-21.1-21.1c-1.9-1.9-1.9-5 0-6.9l94.8-94.8c1.9-1.9 5-1.9 6.9 0zm10.8 24.6-14.2-14.2-87.9 87.9 14.2 14.2z" fill="#2a2927" fill-rule="evenodd"/></g><g><path clip-rule="evenodd" d="m123.2 145.5 242.6 242.6-38.5 27.3-231.3-231.4c5.3-7.5 22.2-31.3 27.2-38.5z" fill="#fccb30" fill-rule="evenodd"/></g><g><path clip-rule="evenodd" d="m126.7 142.1 242.6 242.6c1.9 1.9 1.9 5 0 6.9-.3.3-.7.6-1.1.8l-38.1 27c-2 1.4-4.6 1.1-6.3-.5l-231.3-231.4c-1.8-1.8-1.9-4.8-.2-6.7l27-38.1c1.7-2.4 5.3-2.7 7.4-.6zm231.6 245.4-234.4-234.4-21.5 30.4 225.4 225.5z" fill="#2a2927" fill-rule="evenodd"/></g><g><path clip-rule="evenodd" d="m166.3 345.7c10.6 10.6 10.6 28 0 38.7l-114.4 114.4c-10.6 10.6-28 10.6-38.7 0-10.6-10.6-10.6-28 0-38.7l114.4-114.4c10.7-10.6 28.1-10.6 38.7 0z" fill="#fccb30" fill-rule="evenodd"/></g><g><path clip-rule="evenodd" d="m169.7 342.2c12.5 12.5 12.5 33 0 45.6 0 1.1-104.7 105.5-114.7 114.7-6.2 6.1-14.4 9.1-22.5 9.1-27.9.7-43.2-35.4-22.8-55 0 0 114.7-114.7 114.7-114.7 12.7-12.2 32.9-12.1 45.3.3zm-.3 22.8c.7-19.1-24.6-30-38-16.1-9.5 10.1-113.5 114.7-114.8 114.7-20.2 21.3 9.9 51.8 31.5 32 0 0 114.6-114.7 114.6-114.7 4.5-4.4 6.7-10.1 6.7-15.9z" fill="#2a2927" fill-rule="evenodd"/></g><g><path clip-rule="evenodd" d="m141.5 119.7 250.1 250.1c-.1.3-25.6 18.1-25.8 18.3l-242.6-242.6z" fill="#00beae" fill-rule="evenodd"/></g><g><path clip-rule="evenodd" d="m145 116.2 250.1 250.1c1.9 1.9 1.9 5 0 6.9-.4.4-.8.8-1.3 1l-25.2 17.8c-2 1.4-4.6 1.1-6.3-.5l-242.5-242.5c-1.8-1.8-1.9-4.8-.2-6.7l18-25.4c1.6-2.5 5.3-2.8 7.4-.7zm239.1 253-241.9-242-12.6 17.8 236.8 236.8z" fill="#2a2927" fill-rule="evenodd"/></g><g><path clip-rule="evenodd" d="m163.6 113.3c-4.5 4.5-11.4-2.4-6.9-6.9l64.6-64.6c1.9-1.9 5-1.9 6.9 0s1.9 5 0 6.9c-21.4 21.5-42.9 43.2-64.6 64.6z" fill="#2a2927" fill-rule="evenodd"/></g><g><path clip-rule="evenodd" d="m462.4 283.2c4.5-4.5 11.5 2.4 6.9 6.9l-64.6 64.6c-4.5 4.5-11.5-2.4-6.9-6.9z" fill="#2a2927" fill-rule="evenodd"/></g><g><path clip-rule="evenodd" d="m401.4 216.9c4.5-4.5 11.4 2.4 6.9 6.9l-10.9 10.9c-1.9 1.9-5 1.9-6.9 0s-1.9-5 0-6.9z" fill="#2a2927" fill-rule="evenodd"/></g><g><path clip-rule="evenodd" d="m365.8 223.8c-4.5-4.5 2.4-11.4 6.9-6.9l10.9 10.9c4.5 4.5-2.4 11.4-6.9 6.9z" fill="#2a2927" fill-rule="evenodd"/></g><g><path clip-rule="evenodd" d="m376.7 241.6c4.5-4.5 11.4 2.4 6.9 6.9l-10.9 10.9c-1.9 1.9-5 1.9-6.9 0s-1.9-5 0-6.9z" fill="#2a2927" fill-rule="evenodd"/></g><g><path clip-rule="evenodd" d="m390.5 248.5c-4.5-4.5 2.4-11.4 6.9-6.9l10.9 10.9c4.5 4.5-2.4 11.4-6.9 6.9z" fill="#2a2927" fill-rule="evenodd"/></g></g></svg>