<svg xmlns="http://www.w3.org/2000/svg" xmlns:xlink="http://www.w3.org/1999/xlink" width="100" zoomAndPan="magnify" viewBox="0 0 75 74.999997" height="100" preserveAspectRatio="xMidYMid meet" version="1.0"><path stroke-linecap="round" transform="matrix(1.171875, 0, 0, 1.171875, 0.0000015, -0.000001)" fill="none" stroke-linejoin="round" d="M 4.399999 55.400005 L 59.600004 55.400005 L 59.600004 60.500006 L 4.399999 60.500006 Z M 4.399999 55.400005 " stroke="#231f20" stroke-width="2" stroke-opacity="1" stroke-miterlimit="10"/><path stroke-linecap="round" transform="matrix(1.171875, 0, 0, 1.171875, 0.0000015, -0.000001)" fill="none" stroke-linejoin="round" d="M 4.399999 41.600004 L 59.600004 41.600004 L 59.600004 55.500005 L 4.399999 55.500005 Z M 4.399999 41.600004 " stroke="#231f20" stroke-width="2" stroke-opacity="1" stroke-miterlimit="10"/><path stroke-linecap="round" transform="matrix(1.171875, 0, 0, 1.171875, 0.0000015, -0.000001)" fill="none" stroke-linejoin="round" d="M 47.300003 55.400005 L 47.300003 7.200001 L 16.7 7.200001 L 16.7 22.900003 " stroke="#231f20" stroke-width="2" stroke-opacity="1" stroke-miterlimit="10"/><path stroke-linecap="round" transform="matrix(1.171875, 0, 0, 1.171875, 0.0000015, -0.000001)" fill="none" stroke-linejoin="round" d="M 32.000001 7.200001 L 32.000001 55.400005 " stroke="#231f20" stroke-width="2" stroke-opacity="1" stroke-miterlimit="10"/><path stroke-linecap="round" transform="matrix(1.171875, 0, 0, 1.171875, 0.0000015, -0.000001)" fill="none" stroke-linejoin="round" d="M 51.100003 55.400005 L 51.100003 3.400001 L 12.9 3.400001 L 12.9 15.700002 " stroke="#231f20" stroke-width="2" stroke-opacity="1" stroke-miterlimit="10"/><path stroke-linecap="round" transform="matrix(1.171875, 0, 0, 1.171875, 0.0000015, -0.000001)" fill="none" stroke-linejoin="round" d="M 18.7 55.400005 L 10.8 55.400005 L 10.1 45.900005 L 19.4 45.900005 Z M 18.7 55.400005 " stroke="#231f20" stroke-width="2" stroke-opacity="1" stroke-miterlimit="10"/><path stroke-linecap="round" transform="matrix(1.171875, 0, 0, 1.171875, 0.0000015, -0.000001)" fill="none" stroke-linejoin="round" d="M 12.1 45.900005 C 12.1 45.900005 7.699999 42.600004 7.699999 34.900004 C 7.699999 34.900004 14.7 35.800004 14.8 45.900005 " stroke="#231f20" stroke-width="2" stroke-opacity="1" stroke-miterlimit="10"/><path stroke-linecap="round" transform="matrix(1.171875, 0, 0, 1.171875, 0.0000015, -0.000001)" fill="none" stroke-linejoin="round" d="M 13.7 40.100004 C 13.7 40.100004 13.5 32.800004 20.4 26.600003 C 20.4 26.600003 22.300001 37.900004 17.1 45.900005 " stroke="#231f20" stroke-width="2" stroke-opacity="1" stroke-miterlimit="10"/><path stroke-linecap="round" transform="matrix(1.171875, 0, 0, 1.171875, 0.0000015, -0.000001)" fill="none" stroke-linejoin="round" d="M 10.7 36.300004 C 10.7 36.300004 8.599999 29.000003 10.7 18.800002 C 10.7 18.800002 16.5 24.300003 15.2 33.500004 " stroke="#231f20" stroke-width="2" stroke-opacity="1" stroke-miterlimit="10"/></svg>