<svg xmlns="http://www.w3.org/2000/svg" xmlns:xlink="http://www.w3.org/1999/xlink" width="100" zoomAndPan="magnify" viewBox="0 0 75 74.999997" height="100" preserveAspectRatio="xMidYMid meet" version="1.0"><path fill="#231f20" d="M 28.546875 52.722656 C 29.355469 52.722656 30.011719 52.070312 30.011719 51.261719 L 30.011719 45.40625 C 30.011719 44.597656 29.355469 43.941406 28.546875 43.941406 C 27.738281 43.941406 27.082031 44.597656 27.082031 45.40625 L 27.082031 51.261719 C 27.082031 52.070312 27.738281 52.722656 28.546875 52.722656 Z M 28.546875 52.722656 " fill-opacity="1" fill-rule="nonzero"/><path fill="#231f20" d="M 44.648438 45.40625 L 44.648438 51.261719 C 44.648438 52.070312 45.304688 52.722656 46.113281 52.722656 C 46.921875 52.722656 47.578125 52.070312 47.578125 51.261719 L 47.578125 45.40625 C 47.578125 44.597656 46.921875 43.941406 46.113281 43.941406 C 45.304688 43.941406 44.648438 44.597656 44.648438 45.40625 Z M 44.648438 45.40625 " fill-opacity="1" fill-rule="nonzero"/><path fill="#231f20" d="M 73.535156 35.15625 L 54.835938 35.15625 C 56.769531 33.632812 58.273438 31.589844 59.152344 29.300781 L 59.433594 29.300781 C 61.855469 29.300781 63.824219 27.332031 63.824219 24.910156 C 63.824219 22.488281 61.855469 20.519531 59.433594 20.519531 L 50.652344 20.519531 L 50.652344 19.054688 C 50.652344 16.632812 48.679688 14.664062 46.257812 14.664062 C 43.835938 14.664062 41.867188 16.632812 41.867188 19.054688 L 41.867188 9.417969 C 41.867188 9.082031 42.140625 8.808594 42.476562 8.808594 L 46.257812 8.808594 C 47.066406 8.808594 47.722656 8.152344 47.722656 7.34375 L 47.722656 1.488281 C 47.722656 0.679688 47.066406 0.0234375 46.257812 0.0234375 L 40.402344 0.0234375 C 36.367188 0.0234375 33.085938 3.308594 33.085938 7.34375 L 33.085938 19.054688 C 33.085938 16.632812 31.113281 14.664062 28.691406 14.664062 C 26.269531 14.664062 24.300781 16.632812 24.300781 19.054688 L 24.300781 20.519531 L 15.515625 20.519531 C 13.097656 20.519531 11.125 22.488281 11.125 24.910156 C 11.125 27.332031 13.097656 29.300781 15.515625 29.300781 L 15.800781 29.300781 C 16.679688 31.589844 18.183594 33.632812 20.117188 35.15625 L 1.464844 35.15625 C 0.65625 35.15625 0 35.8125 0 36.621094 L 0 65.898438 C 0 66.707031 0.65625 67.363281 1.464844 67.363281 L 4.375 67.363281 L 3.46875 69 C 3.132812 69.597656 2.957031 70.273438 2.957031 70.949219 C 2.957031 73.171875 4.765625 74.976562 6.984375 74.976562 C 8.445312 74.976562 9.792969 74.183594 10.503906 72.90625 L 13.582031 67.363281 L 61.253906 67.363281 L 64.332031 72.90625 C 65.042969 74.183594 66.390625 74.976562 67.851562 74.976562 C 70.070312 74.976562 71.878906 73.171875 71.878906 70.949219 C 71.878906 70.273438 71.699219 69.597656 71.367188 69 L 70.457031 67.363281 L 73.535156 67.363281 C 74.34375 67.363281 75 66.707031 75 65.898438 L 75 36.621094 C 75 35.8125 74.34375 35.15625 73.535156 35.15625 Z M 46.257812 17.589844 C 47.066406 17.589844 47.722656 18.246094 47.722656 19.054688 L 47.722656 20.519531 L 44.796875 20.519531 L 44.796875 19.054688 C 44.796875 18.246094 45.453125 17.589844 46.257812 17.589844 Z M 40.402344 2.953125 L 44.796875 2.953125 L 44.796875 5.878906 L 42.476562 5.878906 C 40.527344 5.878906 38.941406 7.464844 38.941406 9.417969 L 38.941406 20.519531 L 36.011719 20.519531 L 36.011719 7.34375 C 36.011719 4.921875 37.980469 2.953125 40.402344 2.953125 Z M 27.230469 19.054688 C 27.230469 18.246094 27.886719 17.589844 28.691406 17.589844 C 29.5 17.589844 30.15625 18.246094 30.15625 19.054688 L 30.15625 20.519531 L 27.230469 20.519531 Z M 19.003906 29.300781 L 21.199219 29.300781 C 22.007812 29.300781 22.664062 28.648438 22.664062 27.839844 C 22.664062 27.03125 22.007812 26.375 21.199219 26.375 L 15.515625 26.375 C 14.710938 26.375 14.054688 25.71875 14.054688 24.910156 C 14.054688 24.101562 14.710938 23.445312 15.515625 23.445312 L 59.433594 23.445312 C 60.242188 23.445312 60.898438 24.101562 60.898438 24.910156 C 60.898438 25.71875 60.242188 26.375 59.433594 26.375 L 35.839844 26.375 C 35.03125 26.375 34.375 27.03125 34.375 27.839844 C 34.375 28.648438 35.03125 29.300781 35.839844 29.300781 L 55.949219 29.300781 C 54.136719 32.828125 50.445312 35.15625 46.382812 35.15625 L 28.566406 35.15625 C 24.503906 35.15625 20.8125 32.828125 19.003906 29.300781 Z M 2.929688 38.085938 L 35.867188 38.085938 L 35.867188 64.4375 L 2.929688 64.4375 Z M 7.945312 71.484375 C 7.75 71.832031 7.382812 72.046875 6.984375 72.046875 C 6.304688 72.046875 5.886719 71.476562 5.886719 70.949219 C 5.886719 70.765625 5.933594 70.589844 6.027344 70.421875 L 7.726562 67.363281 L 10.230469 67.363281 Z M 68.808594 70.421875 C 68.902344 70.589844 68.949219 70.769531 68.949219 70.949219 C 68.949219 71.476562 68.53125 72.046875 67.851562 72.046875 C 67.453125 72.046875 67.085938 71.832031 66.894531 71.484375 L 64.601562 67.363281 L 67.109375 67.363281 Z M 72.070312 64.4375 L 38.792969 64.4375 L 38.792969 38.085938 L 72.070312 38.085938 Z M 72.070312 64.4375 " fill-opacity="1" fill-rule="nonzero"/><path fill="#231f20" d="M 29.984375 27.839844 C 29.984375 28.03125 29.949219 28.21875 29.875 28.398438 C 29.800781 28.578125 29.695312 28.738281 29.554688 28.875 C 29.417969 29.011719 29.261719 29.117188 29.082031 29.191406 C 28.902344 29.265625 28.714844 29.304688 28.519531 29.304688 C 28.328125 29.304688 28.140625 29.265625 27.960938 29.191406 C 27.78125 29.117188 27.621094 29.011719 27.484375 28.875 C 27.347656 28.738281 27.242188 28.578125 27.167969 28.398438 C 27.09375 28.21875 27.054688 28.03125 27.054688 27.839844 C 27.054688 27.644531 27.09375 27.457031 27.167969 27.277344 C 27.242188 27.097656 27.347656 26.941406 27.484375 26.800781 C 27.621094 26.664062 27.78125 26.558594 27.960938 26.484375 C 28.140625 26.410156 28.328125 26.375 28.519531 26.375 C 28.714844 26.375 28.902344 26.410156 29.082031 26.484375 C 29.261719 26.558594 29.417969 26.664062 29.554688 26.800781 C 29.695312 26.941406 29.800781 27.097656 29.875 27.277344 C 29.949219 27.457031 29.984375 27.644531 29.984375 27.839844 Z M 29.984375 27.839844 " fill-opacity="1" fill-rule="nonzero"/></svg>