<svg xmlns="http://www.w3.org/2000/svg" xmlns:xlink="http://www.w3.org/1999/xlink" width="100" zoomAndPan="magnify" viewBox="0 0 75 74.999997" height="100" preserveAspectRatio="xMidYMid meet" version="1.0"><path stroke-linecap="round" transform="matrix(1.171875, 0, 0, 1.171875, 0.0000015, -0.000001)" fill="none" stroke-linejoin="round" d="M 33.200001 39.600004 C 33.200001 39.600004 28.100001 39.900004 19.2 37.500004 C 13.3 35.900004 7.999999 35.700004 5.199999 35.800004 C 3.999999 35.800004 2.999999 34.800004 2.999999 33.600004 C 2.999999 32.400003 3.899999 31.400003 5.099999 31.400003 C 7.899999 31.300003 13.2 31.500003 19.2 33.100004 C 28.100001 35.500004 33.200001 35.200004 33.200001 35.200004 " stroke="#231f20" stroke-width="2" stroke-opacity="1" stroke-miterlimit="10"/><path stroke-linecap="round" transform="matrix(1.171875, 0, 0, 1.171875, 0.0000015, -0.000001)" fill="none" stroke-linejoin="round" d="M 5.199999 35.800004 C 5.199999 35.800004 8.099999 39.300004 8.199999 46.600005 C 8.299999 53.900005 10.8 54.200005 33.200001 54.200005 " stroke="#231f20" stroke-width="2" stroke-opacity="1" stroke-miterlimit="10"/><path stroke-linecap="round" transform="matrix(1.171875, 0, 0, 1.171875, 0.0000015, -0.000001)" fill="none" stroke-linejoin="round" d="M 33.200001 56.500005 L 33.200001 6.400001 C 33.200001 6.400001 38.000002 15.800002 42.300002 6.400001 C 42.300002 6.400001 46.300003 16.300002 50.600003 6.400001 C 50.600003 6.400001 54.500003 15.000002 58.300003 6.400001 L 58.300003 56.500005 C 58.300003 56.500005 55.400003 58.800006 50.200003 56.500005 C 46.300003 54.800005 45.100002 57.800006 41.500002 56.600005 C 37.900002 55.300005 36.400002 56.700005 34.700002 57.500006 C 34.000001 57.800006 33.200001 57.300006 33.200001 56.500005 Z M 33.200001 56.500005 " stroke="#231f20" stroke-width="2" stroke-opacity="1" stroke-miterlimit="10"/><path stroke-linecap="round" transform="matrix(1.171875, 0, 0, 1.171875, 0.0000015, -0.000001)" fill="none" stroke-linejoin="round" d="M 50.300003 56.500005 L 50.300003 43.600004 " stroke="#231f20" stroke-width="2" stroke-opacity="1" stroke-miterlimit="10"/><path stroke-linecap="round" transform="matrix(1.171875, 0, 0, 1.171875, 0.0000015, -0.000001)" fill="none" stroke-linejoin="round" d="M 61.000004 6.400001 L 29.000001 6.400001 " stroke="#231f20" stroke-width="2" stroke-opacity="1" stroke-miterlimit="10"/><path stroke-linecap="round" transform="matrix(1.171875, 0, 0, 1.171875, 0.0000015, -0.000001)" fill="none" stroke-linejoin="round" d="M 39.700002 56.100005 L 39.700002 49.600005 " stroke="#231f20" stroke-width="2" stroke-opacity="1" stroke-miterlimit="10"/><path stroke-linecap="round" transform="matrix(1.171875, 0, 0, 1.171875, 0.0000015, -0.000001)" fill="none" stroke-linejoin="round" d="M 45.400002 10.400002 L 45.400002 28.700003 " stroke="#231f20" stroke-width="2" stroke-opacity="1" stroke-miterlimit="10"/><path stroke-linecap="round" transform="matrix(1.171875, 0, 0, 1.171875, 0.0000015, -0.000001)" fill="none" stroke-linejoin="round" d="M 18.9 54.000005 L 18.1 56.000005 C 17.8 56.700005 17.2 57.100006 16.4 57.100006 L 13.6 57.100006 C 12.7 57.100006 11.9 56.500005 11.8 55.600005 L 11.3 52.900005 " stroke="#231f20" stroke-width="2" stroke-opacity="1" stroke-miterlimit="10"/></svg>