<svg xmlns="http://www.w3.org/2000/svg" xmlns:xlink="http://www.w3.org/1999/xlink" width="100" zoomAndPan="magnify" viewBox="0 0 75 74.999997" height="100" preserveAspectRatio="xMidYMid meet" version="1.0"><path fill="#231f20" d="M 70.214844 36.839844 L 70.214844 13.265625 C 70.214844 7.53125 65.550781 2.867188 59.816406 2.867188 L 14.882812 2.867188 C 9.152344 2.867188 4.484375 7.53125 4.484375 13.265625 L 4.484375 37.144531 C 1.707031 40.046875 0 43.980469 0 48.308594 L 0 66.179688 C 0 69.460938 2.667969 72.132812 5.949219 72.132812 C 9.230469 72.132812 11.902344 69.460938 11.902344 66.183594 L 11.902344 64.335938 L 63.097656 64.335938 L 63.097656 66.183594 C 63.097656 69.460938 65.769531 72.132812 69.050781 72.132812 C 72.332031 72.132812 75 69.460938 75 66.183594 L 75 48.308594 C 75 43.828125 73.167969 39.769531 70.214844 36.839844 Z M 14.882812 5.796875 L 59.816406 5.796875 C 63.933594 5.796875 67.285156 9.148438 67.285156 13.265625 L 67.285156 34.535156 C 66.386719 33.980469 65.433594 33.515625 64.433594 33.144531 L 64.433594 28.273438 C 64.433594 23.953125 60.917969 20.441406 56.601562 20.441406 L 43.867188 20.441406 C 41.246094 20.441406 38.921875 21.738281 37.5 23.71875 C 36.078125 21.738281 33.753906 20.441406 31.132812 20.441406 L 18.398438 20.441406 C 14.082031 20.441406 10.566406 23.953125 10.566406 28.273438 L 10.566406 33.144531 C 9.453125 33.554688 8.398438 34.085938 7.414062 34.722656 L 7.414062 13.265625 C 7.414062 9.148438 10.765625 5.796875 14.882812 5.796875 Z M 16.160156 32.144531 C 15.253906 32.144531 14.363281 32.222656 13.496094 32.367188 L 13.496094 28.273438 C 13.496094 25.570312 15.695312 23.371094 18.398438 23.371094 L 31.132812 23.371094 C 33.835938 23.371094 36.035156 25.570312 36.035156 28.273438 L 36.035156 32.144531 Z M 38.964844 28.273438 C 38.964844 25.570312 41.164062 23.371094 43.867188 23.371094 L 56.601562 23.371094 C 59.304688 23.371094 61.503906 25.570312 61.503906 28.273438 L 61.503906 32.367188 C 60.636719 32.222656 59.746094 32.144531 58.835938 32.144531 L 38.964844 32.144531 Z M 16.160156 35.074219 L 58.835938 35.074219 C 66.132812 35.074219 72.070312 41.011719 72.070312 48.308594 L 72.070312 52.652344 L 57.378906 52.652344 C 56.570312 52.652344 55.914062 53.308594 55.914062 54.117188 C 55.914062 54.925781 56.570312 55.582031 57.378906 55.582031 L 72.070312 55.582031 L 72.070312 61.40625 L 2.929688 61.40625 L 2.929688 55.582031 L 42.730469 55.582031 C 43.539062 55.582031 44.195312 54.925781 44.195312 54.117188 C 44.195312 53.308594 43.539062 52.652344 42.730469 52.652344 L 2.929688 52.652344 L 2.929688 48.308594 C 2.929688 41.011719 8.867188 35.074219 16.160156 35.074219 Z M 8.972656 66.179688 C 8.972656 67.847656 7.617188 69.203125 5.949219 69.203125 C 4.285156 69.203125 2.929688 67.847656 2.929688 66.179688 L 2.929688 64.335938 L 8.972656 64.335938 Z M 69.050781 69.203125 C 67.382812 69.203125 66.027344 67.847656 66.027344 66.179688 L 66.027344 64.335938 L 72.070312 64.335938 L 72.070312 66.179688 C 72.070312 67.847656 70.714844 69.203125 69.050781 69.203125 Z M 69.050781 69.203125 " fill-opacity="1" fill-rule="nonzero"/><path fill="#231f20" d="M 51.519531 54.117188 C 51.519531 54.3125 51.480469 54.5 51.40625 54.679688 C 51.332031 54.859375 51.226562 55.015625 51.089844 55.152344 C 50.953125 55.292969 50.792969 55.398438 50.613281 55.472656 C 50.433594 55.546875 50.246094 55.582031 50.054688 55.582031 C 49.859375 55.582031 49.671875 55.546875 49.492188 55.472656 C 49.3125 55.398438 49.15625 55.292969 49.015625 55.152344 C 48.878906 55.015625 48.773438 54.859375 48.699219 54.679688 C 48.625 54.5 48.585938 54.3125 48.585938 54.117188 C 48.585938 53.921875 48.625 53.738281 48.699219 53.558594 C 48.773438 53.378906 48.878906 53.21875 49.015625 53.082031 C 49.15625 52.945312 49.3125 52.839844 49.492188 52.765625 C 49.671875 52.6875 49.859375 52.652344 50.054688 52.652344 C 50.246094 52.652344 50.433594 52.6875 50.613281 52.765625 C 50.792969 52.839844 50.953125 52.945312 51.089844 53.082031 C 51.226562 53.21875 51.332031 53.378906 51.40625 53.558594 C 51.480469 53.738281 51.519531 53.921875 51.519531 54.117188 Z M 51.519531 54.117188 " fill-opacity="1" fill-rule="nonzero"/></svg>