<svg xmlns="http://www.w3.org/2000/svg" xmlns:xlink="http://www.w3.org/1999/xlink" width="100" zoomAndPan="magnify" viewBox="0 0 75 74.999997" height="100" preserveAspectRatio="xMidYMid meet" version="1.0"><path fill="#231f20" d="M 70.203125 0 L 4.796875 0 C 2.152344 0 0 2.152344 0 4.796875 L 0 65.515625 C 0 67.527344 1.246094 69.25 3.003906 69.964844 L 3.003906 70.605469 C 3.003906 73.027344 4.972656 75 7.398438 75 C 9.820312 75 11.792969 73.027344 11.792969 70.605469 L 11.792969 70.3125 L 63.0625 70.3125 L 63.0625 70.605469 C 63.0625 73.027344 65.03125 75 67.457031 75 C 69.878906 75 71.851562 73.027344 71.851562 70.605469 L 71.851562 70.019531 C 73.6875 69.347656 75 67.582031 75 65.515625 L 75 4.796875 C 75 2.152344 72.847656 0 70.203125 0 Z M 2.929688 4.796875 C 2.929688 3.765625 3.769531 2.929688 4.796875 2.929688 L 35.96875 2.929688 L 36.050781 22.460938 L 32.300781 22.460938 L 32.300781 11.535156 C 32.300781 10.726562 31.644531 10.070312 30.835938 10.070312 L 26.441406 10.070312 L 26.441406 7.324219 C 26.441406 6.515625 25.785156 5.859375 24.976562 5.859375 L 7.398438 5.859375 C 6.589844 5.859375 5.933594 6.515625 5.933594 7.324219 L 5.933594 22.460938 L 2.929688 22.460938 Z M 29.371094 13 L 29.371094 22.460938 L 26.441406 22.460938 L 26.441406 13 Z M 23.511719 8.789062 L 23.511719 22.460938 L 20.582031 22.460938 L 20.582031 8.789062 Z M 17.652344 8.789062 L 17.652344 22.460938 L 14.722656 22.460938 L 14.722656 8.789062 Z M 11.792969 8.789062 L 11.792969 22.460938 L 8.863281 22.460938 L 8.863281 8.789062 Z M 8.863281 70.605469 C 8.863281 71.414062 8.207031 72.070312 7.398438 72.070312 C 6.589844 72.070312 5.933594 71.414062 5.933594 70.605469 L 5.933594 70.3125 L 8.863281 70.3125 Z M 11.792969 67.382812 L 8.863281 67.382812 L 8.863281 54.6875 L 11.792969 54.6875 Z M 17.652344 67.382812 L 14.722656 67.382812 L 14.722656 54.6875 L 17.652344 54.6875 Z M 23.511719 67.382812 L 20.582031 67.382812 L 20.582031 57.617188 L 23.511719 57.617188 Z M 29.371094 67.382812 L 26.441406 67.382812 L 26.441406 54.6875 L 29.371094 54.6875 Z M 35.96875 67.382812 L 32.300781 67.382812 L 32.300781 53.222656 C 32.300781 52.414062 31.644531 51.757812 30.835938 51.757812 L 24.976562 51.757812 C 24.167969 51.757812 23.511719 52.414062 23.511719 53.222656 L 23.511719 54.6875 L 20.582031 54.6875 L 20.582031 53.222656 C 20.582031 52.414062 19.925781 51.757812 19.117188 51.757812 L 7.398438 51.757812 C 6.589844 51.757812 5.933594 52.414062 5.933594 53.222656 L 5.933594 67.382812 L 4.796875 67.382812 C 3.769531 67.382812 2.929688 66.542969 2.929688 65.515625 L 2.929688 47.851562 L 36.050781 47.851562 Z M 7.992188 42.132812 C 7.992188 41.433594 8.167969 40.742188 8.496094 40.132812 C 9.851562 37.621094 10.640625 34.910156 10.800781 32.230469 L 13.605469 32.230469 C 13.636719 32.765625 13.691406 33.300781 13.773438 33.832031 C 13.78125 33.894531 13.789062 33.949219 13.800781 34.007812 C 14.140625 36.097656 14.851562 38.175781 15.90625 40.132812 C 16.238281 40.742188 16.410156 41.433594 16.410156 42.132812 C 16.410156 43.164062 16.027344 44.15625 15.347656 44.921875 L 9.054688 44.921875 C 8.375 44.15625 7.992188 43.164062 7.992188 42.132812 Z M 18.484375 38.742188 C 17.859375 37.582031 17.375 36.375 17.042969 35.15625 L 29.957031 35.15625 L 29.957031 44.921875 L 18.769531 44.921875 C 19.140625 44.046875 19.339844 43.101562 19.339844 42.132812 C 19.339844 40.949219 19.042969 39.777344 18.484375 38.742188 Z M 48.414062 67.382812 L 45.484375 67.382812 L 45.484375 55.746094 C 45.484375 54.9375 46.140625 54.28125 46.949219 54.28125 C 47.757812 54.28125 48.414062 54.9375 48.414062 55.746094 Z M 57.203125 67.382812 L 57.203125 61.523438 L 65.992188 61.523438 L 65.992188 67.382812 Z M 60.132812 58.59375 L 60.132812 57.128906 C 60.132812 56.320312 60.789062 55.664062 61.597656 55.664062 C 61.988281 55.664062 62.355469 55.816406 62.632812 56.09375 C 62.910156 56.371094 63.0625 56.738281 63.0625 57.128906 L 63.0625 58.59375 Z M 68.921875 70.605469 C 68.921875 71.414062 68.265625 72.070312 67.457031 72.070312 C 66.648438 72.070312 65.992188 71.414062 65.992188 70.605469 L 65.992188 70.3125 L 68.921875 70.3125 Z M 72.070312 65.515625 C 72.070312 66.542969 71.230469 67.382812 70.203125 67.382812 L 68.921875 67.382812 L 68.921875 60.058594 C 68.921875 59.25 68.265625 58.59375 67.457031 58.59375 L 65.992188 58.59375 L 65.992188 57.128906 C 65.992188 55.957031 65.535156 54.851562 64.703125 54.023438 C 63.875 53.191406 62.769531 52.734375 61.597656 52.734375 C 59.171875 52.734375 57.203125 54.707031 57.203125 57.128906 L 57.203125 58.59375 L 55.738281 58.59375 C 54.929688 58.59375 54.273438 59.25 54.273438 60.058594 L 54.273438 67.382812 L 51.34375 67.382812 L 51.34375 55.746094 C 51.34375 53.320312 49.371094 51.351562 46.949219 51.351562 C 44.523438 51.351562 42.554688 53.320312 42.554688 55.746094 L 42.554688 67.382812 L 38.898438 67.382812 L 38.980469 47.851562 L 72.070312 47.851562 Z M 45.484375 44.921875 L 45.484375 32.226562 L 48.414062 32.226562 L 48.414062 44.921875 Z M 51.34375 44.921875 L 51.34375 35.15625 L 54.273438 35.15625 L 54.273438 44.921875 Z M 57.203125 44.921875 L 57.203125 32.226562 L 60.132812 32.226562 L 60.132812 44.921875 Z M 63.0625 44.921875 L 63.0625 32.226562 L 65.992188 32.226562 L 65.992188 44.921875 Z M 72.070312 44.921875 L 68.921875 44.921875 L 68.921875 30.761719 C 68.921875 29.953125 68.265625 29.296875 67.457031 29.296875 L 55.738281 29.296875 C 54.929688 29.296875 54.273438 29.953125 54.273438 30.761719 L 54.273438 32.226562 L 51.34375 32.226562 L 51.34375 30.761719 C 51.34375 29.953125 50.6875 29.296875 49.878906 29.296875 L 44.019531 29.296875 C 43.210938 29.296875 42.554688 29.953125 42.554688 30.761719 L 42.554688 44.921875 L 38.992188 44.921875 L 39.003906 42.777344 C 39.007812 41.96875 38.351562 41.3125 37.542969 41.308594 C 37.542969 41.308594 37.539062 41.308594 37.539062 41.308594 C 36.730469 41.308594 36.078125 41.960938 36.074219 42.765625 L 36.0625 44.921875 L 32.886719 44.921875 L 32.886719 33.691406 C 32.886719 32.882812 32.230469 32.226562 31.421875 32.226562 L 16.539062 32.226562 C 16.515625 31.890625 16.503906 31.558594 16.503906 31.226562 L 16.503906 30.765625 C 16.503906 29.957031 15.847656 29.300781 15.039062 29.300781 L 9.363281 29.300781 C 8.554688 29.300781 7.898438 29.957031 7.898438 30.765625 L 7.898438 31.226562 C 7.898438 33.742188 7.214844 36.339844 5.917969 38.742188 C 5.359375 39.777344 5.0625 40.949219 5.0625 42.132812 C 5.0625 43.101562 5.261719 44.046875 5.632812 44.921875 L 2.929688 44.921875 L 2.929688 25.390625 L 36.0625 25.390625 L 36.074219 28.128906 C 36.078125 28.9375 36.730469 29.589844 37.539062 29.589844 L 37.542969 29.589844 C 38.351562 29.585938 39.007812 28.925781 39.003906 28.117188 L 38.992188 25.390625 L 72.070312 25.390625 Z M 44.027344 19.980469 C 44.027344 19.171875 44.683594 18.515625 45.492188 18.515625 L 54.273438 18.515625 L 54.273438 21.445312 L 45.492188 21.445312 C 44.683594 21.445312 44.027344 20.785156 44.027344 19.980469 Z M 57.203125 22.460938 L 57.203125 10.757812 L 60.132812 10.757812 L 60.132812 22.460938 Z M 63.0625 22.460938 L 63.0625 10.757812 L 65.992188 10.757812 L 65.992188 22.460938 Z M 72.070312 22.460938 L 68.921875 22.460938 L 68.921875 9.292969 C 68.921875 8.484375 68.265625 7.828125 67.457031 7.828125 L 55.738281 7.828125 C 54.929688 7.828125 54.273438 8.484375 54.273438 9.292969 L 54.273438 15.585938 L 45.492188 15.585938 C 43.066406 15.585938 41.097656 17.554688 41.097656 19.980469 C 41.097656 20.898438 41.382812 21.753906 41.867188 22.460938 L 38.980469 22.460938 L 38.898438 2.929688 L 70.203125 2.929688 C 71.230469 2.929688 72.070312 3.765625 72.070312 4.796875 Z M 72.070312 22.460938 " fill-opacity="1" fill-rule="nonzero"/><path fill="#231f20" d="M 38.269531 34.179688 C 37.632812 33.808594 36.816406 33.972656 36.371094 34.5625 C 36.109375 34.90625 36.015625 35.347656 36.109375 35.765625 C 36.128906 35.867188 36.164062 35.964844 36.207031 36.058594 C 36.445312 36.582031 36.96875 36.914062 37.539062 36.914062 C 37.570312 36.914062 37.601562 36.910156 37.636719 36.910156 C 38.238281 36.871094 38.753906 36.464844 38.933594 35.886719 C 39.140625 35.238281 38.871094 34.523438 38.269531 34.179688 Z M 38.269531 34.179688 " fill-opacity="1" fill-rule="nonzero"/></svg>