<svg xmlns="http://www.w3.org/2000/svg" xmlns:xlink="http://www.w3.org/1999/xlink" width="100" zoomAndPan="magnify" viewBox="0 0 75 74.999997" height="100" preserveAspectRatio="xMidYMid meet" version="1.0"><path fill="#231f20" d="M 57 20.144531 L 53.402344 15.070312 C 52.984375 14.480469 52.359375 14.085938 51.644531 13.964844 C 50.929688 13.84375 50.210938 14.003906 49.621094 14.425781 L 48.5 15.21875 C 45.617188 13.144531 42.71875 12.679688 40.804688 14.035156 C 39.277344 15.117188 38.617188 17.128906 38.945312 19.703125 C 39 20.132812 39.082031 20.570312 39.1875 21.011719 C 38.003906 22.113281 37.019531 23.292969 36.25 24.355469 L 36.25 15.472656 C 36.933594 14.140625 40.988281 6.808594 47.585938 6.207031 C 48.191406 6.152344 48.636719 5.617188 48.582031 5.015625 C 48.527344 4.410156 47.992188 3.964844 47.386719 4.019531 C 43.851562 4.339844 40.4375 6.3125 37.507812 9.71875 C 37 10.3125 36.546875 10.898438 36.152344 11.453125 C 35.890625 10.425781 35.128906 9.597656 34.144531 9.25 L 34.144531 1.097656 C 34.144531 0.492188 33.652344 0 33.042969 0 C 32.4375 0 31.945312 0.492188 31.945312 1.097656 L 31.945312 9.25 C 30.960938 9.601562 30.199219 10.425781 29.9375 11.453125 C 29.542969 10.898438 29.089844 10.3125 28.578125 9.71875 C 25.652344 6.3125 22.238281 4.339844 18.699219 4.019531 C 18.097656 3.964844 17.5625 4.410156 17.507812 5.015625 C 17.453125 5.617188 17.898438 6.152344 18.503906 6.207031 C 25.082031 6.804688 29.152344 14.140625 29.839844 15.476562 L 29.839844 24.355469 C 29.46875 23.84375 29.046875 23.304688 28.578125 22.757812 C 25.652344 19.351562 22.238281 17.382812 18.703125 17.058594 C 18.09375 17.003906 17.5625 17.449219 17.507812 18.054688 C 17.453125 18.660156 17.898438 19.191406 18.503906 19.246094 C 25.707031 19.902344 29.902344 28.632812 29.945312 28.722656 C 30.261719 29.585938 31.996094 29.621094 32.039062 28.253906 L 32.039062 12.230469 C 32.039062 11.695312 32.472656 11.261719 33.003906 11.261719 L 33.085938 11.261719 C 33.617188 11.261719 34.050781 11.695312 34.050781 12.230469 L 34.050781 66.878906 L 32.039062 66.878906 L 32.039062 33.402344 C 32.039062 32.796875 31.546875 32.304688 30.9375 32.304688 C 30.332031 32.304688 29.839844 32.796875 29.839844 33.402344 L 29.839844 38.609375 C 27.726562 40.609375 24.929688 41.164062 23.007812 38.417969 C 22.644531 37.929688 21.957031 37.828125 21.46875 38.1875 C 20.984375 38.550781 20.878906 39.238281 21.242188 39.726562 C 23.371094 42.871094 27.050781 43.234375 29.839844 41.363281 L 29.839844 66.878906 L 22.574219 66.878906 C 20.367188 66.878906 18.570312 68.675781 18.570312 70.882812 L 18.570312 70.996094 C 18.570312 73.203125 20.367188 75 22.574219 75 L 43.515625 75 C 45.722656 75 47.519531 73.203125 47.519531 70.996094 L 47.519531 70.882812 C 47.519531 68.675781 45.722656 66.878906 43.515625 66.878906 L 40.289062 66.878906 C 39.683594 66.878906 39.191406 67.371094 39.191406 67.976562 C 39.191406 68.585938 39.683594 69.078125 40.289062 69.078125 L 43.515625 69.078125 C 44.511719 69.078125 45.320312 69.886719 45.320312 70.882812 L 45.320312 70.996094 C 45.320312 71.992188 44.511719 72.804688 43.515625 72.804688 L 22.574219 72.804688 C 21.578125 72.804688 20.769531 71.992188 20.769531 70.996094 L 20.769531 70.882812 C 20.769531 69.886719 21.578125 69.078125 22.574219 69.078125 L 35.152344 69.078125 C 35.757812 69.078125 36.25 68.585938 36.25 67.976562 L 36.25 41.363281 C 37.15625 41.9375 38.710938 42.617188 40.203125 42.53125 C 41.972656 42.4375 43.535156 41.496094 44.847656 39.726562 C 45.210938 39.238281 45.105469 38.550781 44.617188 38.1875 C 44.132812 37.828125 43.441406 37.929688 43.082031 38.417969 C 42.183594 39.632812 41.179688 40.277344 40.097656 40.335938 C 38.433594 40.425781 36.875 39.183594 36.25 38.609375 L 36.25 28.511719 C 36.605469 27.820312 37.875 25.492188 39.957031 23.335938 C 40.472656 24.5625 41.15625 25.792969 41.988281 26.96875 C 44.734375 30.839844 48.351562 33.140625 51.242188 33.140625 C 52.191406 33.140625 53.0625 32.894531 53.796875 32.371094 C 55.710938 31.015625 56.234375 28.128906 55.230469 24.722656 L 56.351562 23.925781 C 57.574219 23.0625 57.863281 21.367188 57 20.144531 Z M 52.527344 30.578125 C 51.707031 31.160156 50.351562 31.054688 48.816406 30.28125 C 45.21875 28.464844 41.714844 23.710938 41.125 19.429688 C 40.910156 17.722656 41.253906 16.410156 42.074219 15.828125 C 43.066406 15.128906 44.757812 15.429688 46.585938 16.574219 L 45.796875 17.132812 C 44.902344 17.769531 44.507812 18.902344 44.6875 20.328125 C 44.839844 21.507812 45.378906 22.800781 46.210938 23.976562 C 47.042969 25.152344 48.085938 26.089844 49.148438 26.621094 C 49.796875 26.945312 50.421875 27.109375 50.996094 27.109375 C 51.566406 27.109375 52.085938 26.949219 52.53125 26.636719 L 53.316406 26.078125 C 53.792969 28.183594 53.515625 29.878906 52.527344 30.578125 Z M 55.082031 22.132812 L 51.261719 24.84375 C 51.105469 24.953125 50.695312 24.9375 50.132812 24.65625 C 49.398438 24.289062 48.621094 23.578125 48.003906 22.707031 C 47.386719 21.832031 46.972656 20.867188 46.867188 20.050781 C 46.789062 19.425781 46.910156 19.035156 47.070312 18.925781 L 50.890625 16.21875 C 50.941406 16.1875 51.253906 15.984375 51.609375 16.339844 L 55.207031 21.414062 C 55.371094 21.648438 55.316406 21.96875 55.082031 22.132812 Z M 55.082031 22.132812 " fill-opacity="1" fill-rule="nonzero"/></svg>