<svg xmlns="http://www.w3.org/2000/svg" xmlns:xlink="http://www.w3.org/1999/xlink" width="100" zoomAndPan="magnify" viewBox="0 0 75 74.999997" height="100" preserveAspectRatio="xMidYMid meet" version="1.0"><path fill="#231f20" d="M 70.605469 19.191406 L 60.203125 19.191406 C 59.394531 19.191406 58.738281 19.84375 58.738281 20.65625 C 58.738281 21.464844 59.394531 22.121094 60.203125 22.121094 L 70.605469 22.121094 C 71.414062 22.121094 72.070312 22.777344 72.070312 23.585938 C 72.070312 24.390625 71.414062 25.050781 70.605469 25.050781 L 4.394531 25.050781 C 3.585938 25.050781 2.929688 24.390625 2.929688 23.585938 C 2.929688 22.777344 3.585938 22.121094 4.394531 22.121094 L 45.675781 22.121094 C 46.484375 22.121094 47.140625 21.464844 47.140625 20.65625 C 47.140625 19.84375 46.484375 19.191406 45.675781 19.191406 L 4.394531 19.191406 C 1.972656 19.191406 0 21.160156 0 23.585938 C 0 26.007812 1.972656 27.980469 4.394531 27.980469 L 6.738281 27.980469 L 6.738281 51.417969 C 6.738281 53.839844 8.710938 55.8125 11.132812 55.8125 C 13.554688 55.8125 15.527344 53.839844 15.527344 51.417969 L 15.527344 49.953125 L 59.472656 49.953125 L 59.472656 51.417969 C 59.472656 53.839844 61.445312 55.8125 63.867188 55.8125 C 66.289062 55.8125 68.261719 53.839844 68.261719 51.417969 L 68.261719 27.980469 L 70.605469 27.980469 C 73.027344 27.980469 75 26.007812 75 23.585938 C 75 21.160156 73.027344 19.191406 70.605469 19.191406 Z M 59.472656 35.304688 L 15.527344 35.304688 L 15.527344 27.980469 L 59.472656 27.980469 Z M 12.597656 51.417969 C 12.597656 52.222656 11.941406 52.882812 11.132812 52.882812 C 10.324219 52.882812 9.667969 52.222656 9.667969 51.417969 L 9.667969 27.980469 L 12.597656 27.980469 Z M 15.527344 38.234375 L 36.035156 38.234375 L 36.035156 47.023438 L 15.527344 47.023438 Z M 38.964844 47.023438 L 38.964844 38.234375 L 59.472656 38.234375 L 59.472656 47.023438 Z M 65.332031 51.417969 C 65.332031 52.222656 64.675781 52.882812 63.867188 52.882812 C 63.058594 52.882812 62.402344 52.222656 62.402344 51.417969 L 62.402344 27.980469 L 65.332031 27.980469 Z M 65.332031 51.417969 " fill-opacity="1" fill-rule="nonzero"/><path fill="#231f20" d="M 28.417969 41.164062 L 22.558594 41.164062 C 21.75 41.164062 21.09375 41.816406 21.09375 42.628906 C 21.09375 43.4375 21.75 44.09375 22.558594 44.09375 L 28.417969 44.09375 C 29.226562 44.09375 29.882812 43.4375 29.882812 42.628906 C 29.882812 41.816406 29.226562 41.164062 28.417969 41.164062 Z M 28.417969 41.164062 " fill-opacity="1" fill-rule="nonzero"/><path fill="#231f20" d="M 52.585938 41.164062 L 46.726562 41.164062 C 45.917969 41.164062 45.261719 41.816406 45.261719 42.628906 C 45.261719 43.4375 45.917969 44.09375 46.726562 44.09375 L 52.585938 44.09375 C 53.398438 44.09375 54.050781 43.4375 54.050781 42.628906 C 54.050781 41.816406 53.398438 41.164062 52.585938 41.164062 Z M 52.585938 41.164062 " fill-opacity="1" fill-rule="nonzero"/><path fill="#231f20" d="M 54.46875 20.65625 C 54.46875 20.847656 54.429688 21.035156 54.355469 21.214844 C 54.28125 21.394531 54.175781 21.554688 54.039062 21.691406 C 53.902344 21.828125 53.742188 21.933594 53.5625 22.007812 C 53.382812 22.082031 53.195312 22.121094 53 22.121094 C 52.808594 22.121094 52.621094 22.082031 52.441406 22.007812 C 52.261719 21.933594 52.101562 21.828125 51.964844 21.691406 C 51.828125 21.554688 51.722656 21.394531 51.648438 21.214844 C 51.574219 21.035156 51.535156 20.847656 51.535156 20.65625 C 51.535156 20.460938 51.574219 20.273438 51.648438 20.09375 C 51.722656 19.914062 51.828125 19.753906 51.964844 19.617188 C 52.101562 19.480469 52.261719 19.375 52.441406 19.300781 C 52.621094 19.226562 52.808594 19.1875 53 19.1875 C 53.195312 19.1875 53.382812 19.226562 53.5625 19.300781 C 53.742188 19.375 53.902344 19.480469 54.039062 19.617188 C 54.175781 19.753906 54.28125 19.914062 54.355469 20.09375 C 54.429688 20.273438 54.46875 20.460938 54.46875 20.65625 Z M 54.46875 20.65625 " fill-opacity="1" fill-rule="nonzero"/></svg>