<svg xmlns="http://www.w3.org/2000/svg" xmlns:xlink="http://www.w3.org/1999/xlink" width="100" zoomAndPan="magnify" viewBox="0 0 75 74.999997" height="100" preserveAspectRatio="xMidYMid meet" version="1.0"><path fill="#231f20" d="M 70.605469 11.71875 L 58.007812 11.71875 C 57.199219 11.71875 56.542969 12.375 56.542969 13.183594 C 56.542969 13.992188 57.199219 14.648438 58.007812 14.648438 L 70.605469 14.648438 C 71.414062 14.648438 72.070312 15.304688 72.070312 16.113281 C 72.070312 16.921875 71.414062 17.578125 70.605469 17.578125 L 4.394531 17.578125 C 3.585938 17.578125 2.929688 16.921875 2.929688 16.113281 C 2.929688 15.304688 3.585938 14.648438 4.394531 14.648438 L 43.359375 14.648438 C 44.167969 14.648438 44.824219 13.992188 44.824219 13.183594 C 44.824219 12.375 44.167969 11.71875 43.359375 11.71875 L 4.394531 11.71875 C 1.972656 11.71875 0 13.691406 0 16.113281 C 0 18.535156 1.972656 20.507812 4.394531 20.507812 L 6.738281 20.507812 L 6.738281 58.886719 C 6.738281 61.308594 8.710938 63.28125 11.132812 63.28125 C 13.554688 63.28125 15.527344 61.308594 15.527344 58.886719 L 15.527344 32.226562 L 59.472656 32.226562 L 59.472656 58.886719 C 59.472656 61.308594 61.445312 63.28125 63.867188 63.28125 C 66.289062 63.28125 68.261719 61.308594 68.261719 58.886719 L 68.261719 20.507812 L 70.605469 20.507812 C 73.027344 20.507812 75 18.535156 75 16.113281 C 75 13.691406 73.027344 11.71875 70.605469 11.71875 Z M 33.105469 20.507812 L 41.894531 20.507812 L 41.894531 21.929688 C 41.894531 22.753906 41.222656 23.429688 40.394531 23.429688 L 34.605469 23.429688 C 33.777344 23.429688 33.105469 22.753906 33.105469 21.929688 Z M 34.605469 26.359375 L 40.394531 26.359375 C 42.835938 26.359375 44.824219 24.371094 44.824219 21.929688 L 44.824219 20.507812 L 49.21875 20.507812 L 49.21875 29.296875 L 25.78125 29.296875 L 25.78125 20.507812 L 30.175781 20.507812 L 30.175781 21.929688 C 30.175781 24.371094 32.164062 26.359375 34.605469 26.359375 Z M 12.597656 58.886719 C 12.597656 59.695312 11.941406 60.351562 11.132812 60.351562 C 10.324219 60.351562 9.667969 59.695312 9.667969 58.886719 L 9.667969 20.507812 L 12.597656 20.507812 Z M 15.527344 20.507812 L 22.851562 20.507812 L 22.851562 29.296875 L 15.527344 29.296875 Z M 52.148438 29.296875 L 52.148438 20.507812 L 59.472656 20.507812 L 59.472656 29.296875 Z M 65.332031 58.886719 C 65.332031 59.695312 64.675781 60.351562 63.867188 60.351562 C 63.058594 60.351562 62.402344 59.695312 62.402344 58.886719 L 62.402344 20.507812 L 65.332031 20.507812 Z M 65.332031 58.886719 " fill-opacity="1" fill-rule="nonzero"/><path fill="#231f20" d="M 52.125 13.207031 C 52.125 13.402344 52.085938 13.589844 52.011719 13.769531 C 51.9375 13.949219 51.832031 14.105469 51.695312 14.246094 C 51.558594 14.382812 51.398438 14.488281 51.21875 14.5625 C 51.039062 14.636719 50.851562 14.675781 50.65625 14.675781 C 50.464844 14.675781 50.277344 14.636719 50.097656 14.5625 C 49.917969 14.488281 49.757812 14.382812 49.621094 14.246094 C 49.484375 14.105469 49.378906 13.949219 49.304688 13.769531 C 49.230469 13.589844 49.191406 13.402344 49.191406 13.207031 C 49.191406 13.015625 49.230469 12.828125 49.304688 12.648438 C 49.378906 12.46875 49.484375 12.308594 49.621094 12.171875 C 49.757812 12.035156 49.917969 11.929688 50.097656 11.855469 C 50.277344 11.78125 50.464844 11.742188 50.65625 11.742188 C 50.851562 11.742188 51.039062 11.78125 51.21875 11.855469 C 51.398438 11.929688 51.558594 12.035156 51.695312 12.171875 C 51.832031 12.308594 51.9375 12.46875 52.011719 12.648438 C 52.085938 12.828125 52.125 13.015625 52.125 13.207031 Z M 52.125 13.207031 " fill-opacity="1" fill-rule="nonzero"/></svg>