<svg xmlns="http://www.w3.org/2000/svg" xmlns:xlink="http://www.w3.org/1999/xlink" width="100" zoomAndPan="magnify" viewBox="0 0 75 74.999997" height="100" preserveAspectRatio="xMidYMid meet" version="1.0"><path fill="#231f20" d="M 69.140625 35.449219 L 68.992188 35.449219 L 68.992188 24.902344 C 68.992188 24.09375 68.339844 23.4375 67.527344 23.4375 L 56.980469 23.4375 C 56.171875 23.4375 55.515625 24.09375 55.515625 24.902344 L 55.515625 35.449219 L 35.300781 35.449219 L 35.300781 29.296875 L 46.363281 29.296875 C 48.339844 29.296875 49.949219 27.6875 49.949219 25.707031 L 49.949219 3.589844 C 49.949219 1.609375 48.339844 0 46.363281 0 L 12.523438 0 C 10.546875 0 8.9375 1.609375 8.9375 3.589844 L 8.9375 25.707031 C 8.9375 27.6875 10.546875 29.296875 12.523438 29.296875 L 23.582031 29.296875 L 23.582031 35.449219 L 5.859375 35.449219 C 2.628906 35.449219 0 38.078125 0 41.308594 C 0 44.085938 1.941406 46.417969 4.542969 47.015625 L 4.542969 70.605469 C 4.542969 73.027344 6.511719 75 8.9375 75 C 11.359375 75 13.332031 73.027344 13.332031 70.605469 L 13.332031 47.167969 L 49.949219 47.167969 L 49.949219 73.535156 C 49.949219 74.34375 50.605469 75 51.414062 75 L 73.535156 75 C 74.34375 75 75 74.34375 75 73.535156 L 75 41.308594 C 75 38.078125 72.371094 35.449219 69.140625 35.449219 Z M 58.445312 26.367188 L 66.0625 26.367188 L 66.0625 35.449219 L 58.445312 35.449219 Z M 12.523438 26.367188 C 12.160156 26.367188 11.867188 26.070312 11.867188 25.707031 L 11.867188 23.4375 L 28.125 23.4375 C 28.933594 23.4375 29.589844 22.78125 29.589844 21.972656 C 29.589844 21.164062 28.933594 20.507812 28.125 20.507812 L 11.867188 20.507812 L 11.867188 3.589844 C 11.867188 3.226562 12.160156 2.929688 12.523438 2.929688 L 46.363281 2.929688 C 46.726562 2.929688 47.019531 3.226562 47.019531 3.589844 L 47.019531 20.507812 L 42.773438 20.507812 C 41.964844 20.507812 41.308594 21.164062 41.308594 21.972656 C 41.308594 22.78125 41.964844 23.4375 42.773438 23.4375 L 47.019531 23.4375 L 47.019531 25.707031 C 47.019531 26.070312 46.726562 26.367188 46.363281 26.367188 Z M 32.371094 29.296875 L 32.371094 35.449219 L 26.511719 35.449219 L 26.511719 29.296875 Z M 10.402344 70.605469 C 10.402344 71.414062 9.742188 72.070312 8.9375 72.070312 C 8.128906 72.070312 7.472656 71.414062 7.472656 70.605469 L 7.472656 47.167969 L 10.402344 47.167969 Z M 72.070312 72.070312 L 52.878906 72.070312 L 52.878906 61.523438 L 72.070312 61.523438 Z M 72.070312 58.59375 L 52.878906 58.59375 L 52.878906 47.167969 L 72.070312 47.167969 Z M 72.070312 44.238281 L 5.859375 44.238281 C 4.242188 44.238281 2.929688 42.925781 2.929688 41.308594 C 2.929688 39.691406 4.242188 38.378906 5.859375 38.378906 L 69.140625 38.378906 C 70.757812 38.378906 72.070312 39.691406 72.070312 41.308594 Z M 72.070312 44.238281 " fill-opacity="1" fill-rule="nonzero"/><path fill="#231f20" d="M 60.222656 52.734375 L 64.726562 52.734375 C 65.535156 52.734375 66.191406 52.078125 66.191406 51.269531 C 66.191406 50.460938 65.535156 49.804688 64.726562 49.804688 L 60.222656 49.804688 C 59.414062 49.804688 58.757812 50.460938 58.757812 51.269531 C 58.757812 52.078125 59.414062 52.734375 60.222656 52.734375 Z M 60.222656 52.734375 " fill-opacity="1" fill-rule="nonzero"/><path fill="#231f20" d="M 60.222656 67.382812 L 64.726562 67.382812 C 65.535156 67.382812 66.191406 66.726562 66.191406 65.917969 C 66.191406 65.109375 65.535156 64.453125 64.726562 64.453125 L 60.222656 64.453125 C 59.414062 64.453125 58.757812 65.109375 58.757812 65.917969 C 58.757812 66.726562 59.414062 67.382812 60.222656 67.382812 Z M 60.222656 67.382812 " fill-opacity="1" fill-rule="nonzero"/><path fill="#231f20" d="M 36.914062 21.972656 C 36.914062 22.167969 36.875 22.355469 36.800781 22.535156 C 36.726562 22.714844 36.621094 22.871094 36.484375 23.007812 C 36.347656 23.144531 36.1875 23.253906 36.007812 23.328125 C 35.828125 23.402344 35.644531 23.4375 35.449219 23.4375 C 35.253906 23.4375 35.066406 23.402344 34.886719 23.328125 C 34.707031 23.253906 34.550781 23.144531 34.414062 23.007812 C 34.273438 22.871094 34.167969 22.714844 34.09375 22.535156 C 34.019531 22.355469 33.984375 22.167969 33.984375 21.972656 C 33.984375 21.777344 34.019531 21.589844 34.09375 21.410156 C 34.167969 21.230469 34.273438 21.074219 34.414062 20.9375 C 34.550781 20.800781 34.707031 20.691406 34.886719 20.617188 C 35.066406 20.542969 35.253906 20.507812 35.449219 20.507812 C 35.644531 20.507812 35.828125 20.542969 36.007812 20.617188 C 36.1875 20.691406 36.347656 20.800781 36.484375 20.9375 C 36.621094 21.074219 36.726562 21.230469 36.800781 21.410156 C 36.875 21.589844 36.914062 21.777344 36.914062 21.972656 Z M 36.914062 21.972656 " fill-opacity="1" fill-rule="nonzero"/></svg>