<svg xmlns="http://www.w3.org/2000/svg" xmlns:xlink="http://www.w3.org/1999/xlink" width="100" zoomAndPan="magnify" viewBox="0 0 75 74.999997" height="100" preserveAspectRatio="xMidYMid meet" version="1.0"><path fill="#231f20" d="M 70.601562 14.625 C 69.433594 14.625 68.332031 15.082031 67.503906 15.910156 C 66.675781 16.738281 66.21875 17.839844 66.21875 19.011719 L 66.21875 46.785156 L 54.304688 46.785156 C 51.828125 46.785156 49.632812 48.359375 48.839844 50.695312 C 48.632812 51.292969 48.53125 51.917969 48.53125 52.5625 L 48.53125 57.007812 C 48.53125 57.011719 48.527344 57.015625 48.527344 57.019531 L 48.527344 66.46875 C 47.78125 66.214844 46.992188 66.082031 46.191406 66.082031 L 43.28125 66.082031 L 43.28125 64.109375 C 43.28125 62.882812 42.710938 61.792969 41.820312 61.082031 L 41.820312 54.199219 C 41.820312 53.390625 41.164062 52.738281 40.359375 52.738281 C 39.550781 52.738281 38.894531 53.390625 38.894531 54.199219 L 38.894531 60.234375 L 35.972656 60.234375 L 35.972656 35.09375 L 38.894531 35.09375 L 38.894531 39.582031 C 38.894531 40.386719 39.550781 41.042969 40.359375 41.042969 C 41.164062 41.042969 41.820312 40.386719 41.820312 39.582031 L 41.820312 35.09375 L 61.699219 35.09375 C 62.507812 35.09375 63.160156 34.4375 63.160156 33.628906 C 63.160156 29.601562 59.882812 26.320312 55.851562 26.320312 L 44.128906 26.320312 C 44.527344 25.410156 44.742188 24.414062 44.742188 23.398438 C 44.742188 22.1875 44.441406 20.984375 43.867188 19.925781 C 42.527344 17.445312 41.820312 14.761719 41.820312 12.160156 L 41.820312 11.6875 C 41.820312 10.878906 41.164062 10.226562 40.359375 10.226562 L 38.859375 10.226562 L 38.859375 8.917969 C 38.859375 7.222656 40.234375 5.847656 41.929688 5.847656 L 42.035156 5.847656 C 42.636719 7.546875 44.261719 8.769531 46.167969 8.769531 C 48.585938 8.769531 50.554688 6.804688 50.554688 4.386719 C 50.554688 1.96875 48.585938 0 46.167969 0 C 44.261719 0 42.636719 1.222656 42.035156 2.921875 L 41.929688 2.921875 C 39.746094 2.921875 37.832031 4.097656 36.785156 5.847656 C 35.730469 4.9375 34.363281 4.382812 32.867188 4.382812 C 32.058594 4.382812 31.402344 5.039062 31.402344 5.84375 C 31.402344 6.652344 32.058594 7.308594 32.867188 7.308594 C 34.507812 7.308594 35.847656 8.601562 35.925781 10.226562 L 34.511719 10.226562 C 33.703125 10.226562 33.046875 10.878906 33.046875 11.6875 L 33.046875 12.160156 C 33.046875 14.761719 32.339844 17.445312 31 19.925781 C 30.425781 20.984375 30.125 22.1875 30.125 23.398438 C 30.125 24.414062 30.339844 25.410156 30.738281 26.320312 L 19.015625 26.320312 C 14.984375 26.320312 11.707031 29.601562 11.707031 33.628906 C 11.707031 34.4375 12.359375 35.09375 13.167969 35.09375 L 33.046875 35.09375 L 33.046875 61.082031 C 32.160156 61.792969 31.585938 62.882812 31.585938 64.109375 L 31.585938 66.082031 L 28.675781 66.082031 C 27.925781 66.082031 27.179688 66.203125 26.46875 66.425781 L 26.46875 52.5625 C 26.46875 51.917969 26.367188 51.292969 26.160156 50.703125 C 25.367188 48.359375 23.171875 46.785156 20.695312 46.785156 L 8.78125 46.785156 L 8.78125 19.011719 C 8.78125 17.839844 8.324219 16.738281 7.496094 15.910156 C 6.667969 15.082031 5.566406 14.625 4.394531 14.625 C 1.976562 14.625 0.0117188 16.59375 0.0117188 19.011719 L 0.0117188 70.613281 C 0.0117188 71.785156 0.46875 72.886719 1.296875 73.714844 C 2.125 74.542969 3.226562 75 4.394531 75 C 6.816406 75 8.78125 73.03125 8.78125 70.613281 L 8.78125 58.480469 L 17.699219 58.480469 L 17.699219 70.613281 C 17.699219 71.785156 18.15625 72.886719 18.984375 73.714844 C 19.8125 74.542969 20.914062 75 22.085938 75 L 52.914062 75 C 54.085938 75 55.1875 74.542969 56.015625 73.714844 C 56.84375 72.886719 57.300781 71.785156 57.300781 70.613281 L 57.300781 58.480469 L 66.21875 58.480469 L 66.21875 70.613281 C 66.21875 73.03125 68.183594 75 70.601562 75 C 71.773438 75 72.875 74.542969 73.703125 73.714844 C 74.53125 72.886719 74.988281 71.785156 74.988281 70.613281 L 74.988281 19.011719 C 74.988281 16.59375 73.023438 14.625 70.601562 14.625 Z M 46.167969 2.921875 C 46.972656 2.921875 47.628906 3.578125 47.628906 4.386719 C 47.628906 5.191406 46.972656 5.847656 46.167969 5.847656 C 45.363281 5.847656 44.707031 5.191406 44.707031 4.386719 C 44.707031 3.578125 45.363281 2.921875 46.167969 2.921875 Z M 33.046875 23.398438 C 33.046875 22.671875 33.230469 21.949219 33.574219 21.316406 C 34.976562 18.722656 35.785156 15.917969 35.945312 13.148438 L 38.925781 13.148438 C 39.082031 15.917969 39.894531 18.722656 41.296875 21.316406 C 41.636719 21.949219 41.820312 22.671875 41.820312 23.398438 C 41.820312 24.484375 41.417969 25.523438 40.699219 26.320312 L 34.167969 26.320312 C 33.453125 25.523438 33.046875 24.484375 33.046875 23.398438 Z M 19.015625 29.246094 L 55.851562 29.246094 C 57.757812 29.246094 59.382812 30.464844 59.988281 32.167969 L 14.878906 32.167969 C 15.484375 30.464844 17.109375 29.246094 19.015625 29.246094 Z M 69.140625 19.011719 C 69.140625 18.621094 69.292969 18.253906 69.570312 17.980469 C 69.847656 17.703125 70.214844 17.550781 70.601562 17.550781 C 71.410156 17.550781 72.066406 18.207031 72.066406 19.011719 L 72.066406 46.785156 L 69.140625 46.785156 Z M 51.453125 52.5625 C 51.453125 52.246094 51.503906 51.9375 51.605469 51.640625 C 52 50.484375 53.082031 49.710938 54.304688 49.710938 L 72.066406 49.710938 L 72.066406 55.558594 L 51.453125 55.558594 Z M 34.511719 64.109375 C 34.511719 63.722656 34.742188 63.390625 35.074219 63.242188 C 35.082031 63.238281 35.089844 63.234375 35.09375 63.230469 C 35.207031 63.183594 35.332031 63.160156 35.460938 63.160156 L 39.40625 63.160156 C 39.535156 63.160156 39.660156 63.183594 39.773438 63.230469 C 39.777344 63.234375 39.785156 63.238281 39.792969 63.242188 C 40.125 63.390625 40.359375 63.722656 40.359375 64.109375 L 40.359375 66.082031 L 34.511719 66.082031 Z M 23.394531 51.648438 C 23.496094 51.9375 23.546875 52.246094 23.546875 52.5625 L 23.546875 55.558594 L 2.933594 55.558594 L 2.933594 49.710938 L 20.695312 49.710938 C 21.917969 49.710938 23 50.484375 23.394531 51.648438 Z M 4.394531 17.550781 C 4.785156 17.550781 5.152344 17.703125 5.429688 17.980469 C 5.707031 18.253906 5.859375 18.621094 5.859375 19.011719 L 5.859375 46.785156 L 2.933594 46.785156 L 2.933594 19.011719 C 2.933594 18.207031 3.589844 17.550781 4.394531 17.550781 Z M 5.859375 70.613281 C 5.859375 71.421875 5.203125 72.078125 4.394531 72.078125 C 4.007812 72.078125 3.640625 71.925781 3.363281 71.648438 C 3.085938 71.371094 2.933594 71.003906 2.933594 70.613281 L 2.933594 58.480469 L 5.859375 58.480469 Z M 20.621094 70.613281 L 20.621094 58.480469 L 23.546875 58.480469 L 23.546875 68.1875 C 22.496094 69.21875 21.792969 70.53125 21.511719 71.957031 C 21.339844 71.886719 21.1875 71.78125 21.050781 71.648438 C 20.773438 71.371094 20.621094 71.003906 20.621094 70.613281 Z M 24.539062 71.929688 C 24.808594 71.171875 25.28125 70.496094 25.925781 69.976562 C 26.714844 69.34375 27.664062 69.007812 28.675781 69.007812 L 46.191406 69.007812 C 47.234375 69.007812 48.246094 69.378906 49.039062 70.058594 C 49.632812 70.566406 50.070312 71.214844 50.324219 71.929688 Z M 54.375 70.613281 C 54.375 71.003906 54.222656 71.371094 53.949219 71.648438 C 53.78125 71.8125 53.582031 71.933594 53.363281 72.003906 C 53.097656 70.621094 52.4375 69.34375 51.453125 68.324219 L 51.453125 58.480469 L 54.375 58.480469 Z M 71.636719 71.648438 C 71.359375 71.925781 70.992188 72.078125 70.605469 72.078125 C 69.796875 72.078125 69.140625 71.421875 69.140625 70.613281 L 69.140625 58.480469 L 72.066406 58.480469 L 72.066406 70.613281 C 72.066406 71.003906 71.914062 71.371094 71.636719 71.648438 Z M 71.636719 71.648438 " fill-opacity="1" fill-rule="nonzero"/><path fill="#231f20" d="M 41.820312 46.890625 C 41.820312 47.082031 41.78125 47.269531 41.707031 47.449219 C 41.632812 47.628906 41.527344 47.785156 41.390625 47.921875 C 41.253906 48.058594 41.097656 48.164062 40.917969 48.238281 C 40.738281 48.3125 40.550781 48.351562 40.359375 48.351562 C 40.164062 48.351562 39.976562 48.3125 39.796875 48.238281 C 39.617188 48.164062 39.460938 48.058594 39.324219 47.921875 C 39.1875 47.785156 39.082031 47.628906 39.007812 47.449219 C 38.933594 47.269531 38.894531 47.082031 38.894531 46.890625 C 38.894531 46.695312 38.933594 46.507812 39.007812 46.328125 C 39.082031 46.148438 39.1875 45.992188 39.324219 45.855469 C 39.460938 45.71875 39.617188 45.613281 39.796875 45.539062 C 39.976562 45.464844 40.164062 45.425781 40.359375 45.425781 C 40.550781 45.425781 40.738281 45.464844 40.917969 45.539062 C 41.097656 45.613281 41.253906 45.71875 41.390625 45.855469 C 41.527344 45.992188 41.632812 46.148438 41.707031 46.328125 C 41.78125 46.507812 41.820312 46.695312 41.820312 46.890625 Z M 41.820312 46.890625 " fill-opacity="1" fill-rule="nonzero"/></svg>