<svg xmlns="http://www.w3.org/2000/svg" xmlns:xlink="http://www.w3.org/1999/xlink" width="100" zoomAndPan="magnify" viewBox="0 0 75 74.999997" height="100" preserveAspectRatio="xMidYMid meet" version="1.0"><path fill="#231f20" d="M 55.042969 40.070312 L 55.042969 17.542969 C 55.042969 7.871094 47.171875 0 37.5 0 C 27.828125 0 19.957031 7.871094 19.957031 17.542969 L 19.957031 40.070312 C 18.144531 42.027344 17.03125 44.644531 17.03125 47.515625 L 17.03125 70.613281 C 17.03125 73.03125 19 75 21.417969 75 C 23.835938 75 25.804688 73.03125 25.804688 70.613281 L 25.804688 55.554688 L 49.195312 55.554688 L 49.195312 70.613281 C 49.195312 73.03125 51.164062 75 53.582031 75 C 56 75 57.96875 73.03125 57.96875 70.613281 L 57.96875 47.515625 C 57.96875 44.644531 56.855469 42.027344 55.042969 40.070312 Z M 37.5 2.925781 C 45.5625 2.925781 52.121094 9.484375 52.121094 17.542969 L 52.121094 37.820312 C 51.214844 37.339844 50.234375 36.980469 49.199219 36.769531 L 49.199219 17.570312 C 49.199219 17.566406 49.199219 17.558594 49.199219 17.554688 C 49.199219 17.550781 49.199219 17.546875 49.199219 17.542969 C 49.199219 17.535156 49.199219 17.527344 49.199219 17.515625 C 49.167969 11.089844 43.933594 5.871094 37.5 5.871094 C 31.066406 5.871094 25.832031 11.089844 25.800781 17.515625 C 25.800781 17.527344 25.800781 17.535156 25.800781 17.542969 C 25.800781 17.546875 25.800781 17.550781 25.800781 17.554688 C 25.800781 17.558594 25.800781 17.566406 25.800781 17.570312 L 25.800781 36.769531 C 24.765625 36.980469 23.785156 37.339844 22.878906 37.820312 L 22.878906 17.542969 C 22.878906 9.484375 29.4375 2.925781 37.5 2.925781 Z M 28.722656 36.550781 L 28.722656 19.003906 L 30.679688 19.003906 C 33.429688 19.003906 35.691406 21.136719 35.902344 23.835938 C 35.894531 23.972656 35.890625 24.109375 35.890625 24.246094 C 35.890625 24.339844 35.902344 24.433594 35.917969 24.527344 L 35.917969 36.550781 Z M 37.367188 19.570312 C 35.890625 17.464844 33.445312 16.082031 30.679688 16.082031 L 28.851562 16.082031 C 29.5625 11.949219 33.167969 8.792969 37.5 8.792969 C 41.832031 8.792969 45.4375 11.949219 46.148438 16.082031 L 44.054688 16.082031 C 41.289062 16.082031 38.84375 17.464844 37.367188 19.570312 Z M 38.832031 23.835938 C 39.042969 21.136719 41.304688 19.003906 44.054688 19.003906 L 46.277344 19.003906 L 46.277344 36.550781 L 38.84375 36.550781 L 38.84375 24.246094 C 38.84375 24.105469 38.839844 23.972656 38.832031 23.835938 Z M 22.878906 70.613281 C 22.878906 71.421875 22.222656 72.074219 21.417969 72.074219 C 20.613281 72.074219 19.957031 71.421875 19.957031 70.613281 L 19.957031 49.746094 L 22.878906 49.746094 Z M 25.804688 52.632812 L 25.804688 49.746094 L 30.292969 49.746094 C 31.101562 49.746094 31.753906 49.089844 31.753906 48.28125 C 31.753906 47.476562 31.101562 46.820312 30.292969 46.820312 L 19.984375 46.820312 C 20.339844 42.710938 23.796875 39.472656 27.996094 39.472656 L 47.003906 39.472656 C 51.203125 39.472656 54.660156 42.710938 55.015625 46.820312 L 44.914062 46.820312 C 44.105469 46.820312 43.449219 47.476562 43.449219 48.28125 C 43.449219 49.089844 44.105469 49.746094 44.914062 49.746094 L 49.195312 49.746094 L 49.195312 52.632812 Z M 53.582031 72.074219 C 52.777344 72.074219 52.121094 71.421875 52.121094 70.613281 L 52.121094 49.746094 L 55.042969 49.746094 L 55.042969 70.613281 C 55.042969 71.421875 54.386719 72.074219 53.582031 72.074219 Z M 53.582031 72.074219 " fill-opacity="1" fill-rule="nonzero"/><path fill="#231f20" d="M 39.066406 48.28125 C 39.066406 48.476562 39.027344 48.664062 38.953125 48.84375 C 38.878906 49.019531 38.773438 49.179688 38.636719 49.316406 C 38.5 49.453125 38.339844 49.558594 38.160156 49.632812 C 37.984375 49.707031 37.796875 49.746094 37.601562 49.746094 C 37.40625 49.746094 37.222656 49.707031 37.042969 49.632812 C 36.863281 49.558594 36.703125 49.453125 36.566406 49.316406 C 36.429688 49.179688 36.324219 49.019531 36.25 48.84375 C 36.175781 48.664062 36.140625 48.476562 36.140625 48.28125 C 36.140625 48.089844 36.175781 47.902344 36.25 47.722656 C 36.324219 47.542969 36.429688 47.386719 36.566406 47.246094 C 36.703125 47.109375 36.863281 47.003906 37.042969 46.929688 C 37.222656 46.855469 37.40625 46.820312 37.601562 46.820312 C 37.796875 46.820312 37.984375 46.855469 38.160156 46.929688 C 38.339844 47.003906 38.5 47.109375 38.636719 47.246094 C 38.773438 47.386719 38.878906 47.542969 38.953125 47.722656 C 39.027344 47.902344 39.066406 48.089844 39.066406 48.28125 Z M 39.066406 48.28125 " fill-opacity="1" fill-rule="nonzero"/></svg>