<svg xmlns="http://www.w3.org/2000/svg" xmlns:xlink="http://www.w3.org/1999/xlink" width="100" zoomAndPan="magnify" viewBox="0 0 75 74.999997" height="100" preserveAspectRatio="xMidYMid meet" version="1.0"><path fill="#231f20" d="M 55.960938 0 L 19.039062 0 C 15.808594 0 13.175781 2.628906 13.175781 5.863281 L 13.175781 67.675781 C 13.175781 68.484375 13.832031 69.140625 14.640625 69.140625 L 17.027344 69.140625 L 17.9375 73.816406 C 18.074219 74.503906 18.675781 75 19.375 75 L 23.640625 75 C 24.339844 75 24.945312 74.503906 25.078125 73.816406 L 25.988281 69.140625 L 49.011719 69.140625 L 49.921875 73.816406 C 50.054688 74.503906 50.660156 75 51.359375 75 L 55.625 75 C 56.324219 75 56.925781 74.503906 57.0625 73.816406 L 57.972656 69.140625 L 60.355469 69.140625 C 61.167969 69.140625 61.820312 68.484375 61.820312 67.675781 L 61.820312 5.863281 C 61.820312 2.628906 59.191406 0 55.960938 0 Z M 38.964844 8.789062 L 53.03125 8.789062 L 53.03125 46.578125 L 38.964844 46.578125 Z M 22.433594 72.070312 L 20.582031 72.070312 L 20.011719 69.140625 L 23.003906 69.140625 Z M 36.035156 66.210938 L 16.105469 66.210938 L 16.105469 55.367188 L 36.035156 55.367188 Z M 36.035156 46.578125 L 21.964844 46.578125 L 21.964844 8.789062 L 36.035156 8.789062 Z M 36.035156 5.859375 L 20.503906 5.859375 C 19.691406 5.859375 19.039062 6.515625 19.039062 7.324219 L 19.039062 48.042969 C 19.039062 48.851562 19.691406 49.507812 20.503906 49.507812 L 36.035156 49.507812 L 36.035156 52.4375 L 16.105469 52.4375 L 16.105469 5.863281 C 16.105469 4.246094 17.421875 2.929688 19.039062 2.929688 L 36.035156 2.929688 Z M 54.417969 72.070312 L 52.566406 72.070312 L 51.996094 69.140625 L 54.988281 69.140625 Z M 38.964844 66.210938 L 38.964844 55.367188 L 58.890625 55.367188 L 58.890625 66.210938 Z M 58.890625 52.4375 L 38.964844 52.4375 L 38.964844 49.507812 L 54.496094 49.507812 C 55.308594 49.507812 55.960938 48.851562 55.960938 48.042969 L 55.960938 7.324219 C 55.960938 6.515625 55.308594 5.859375 54.496094 5.859375 L 38.964844 5.859375 L 38.964844 2.929688 L 55.960938 2.929688 C 57.578125 2.929688 58.890625 4.246094 58.890625 5.863281 Z M 58.890625 52.4375 " fill-opacity="1" fill-rule="nonzero"/><path fill="#231f20" d="M 34.226562 36.703125 C 34.207031 36.609375 34.179688 36.519531 34.140625 36.429688 C 34.105469 36.339844 34.058594 36.257812 34.007812 36.175781 C 33.953125 36.097656 33.894531 36.023438 33.824219 35.953125 C 33.757812 35.886719 33.683594 35.824219 33.601562 35.773438 C 33.523438 35.71875 33.4375 35.675781 33.351562 35.636719 C 33.261719 35.601562 33.167969 35.570312 33.074219 35.554688 C 32.886719 35.515625 32.691406 35.515625 32.503906 35.554688 C 32.410156 35.570312 32.316406 35.601562 32.230469 35.636719 C 32.140625 35.675781 32.054688 35.71875 31.976562 35.773438 C 31.894531 35.824219 31.820312 35.886719 31.753906 35.953125 C 31.6875 36.023438 31.625 36.097656 31.570312 36.175781 C 31.519531 36.257812 31.472656 36.339844 31.4375 36.429688 C 31.398438 36.519531 31.371094 36.609375 31.351562 36.703125 C 31.335938 36.796875 31.324219 36.894531 31.324219 36.988281 C 31.324219 37.085938 31.335938 37.183594 31.351562 37.277344 C 31.371094 37.371094 31.398438 37.460938 31.4375 37.550781 C 31.472656 37.640625 31.519531 37.722656 31.570312 37.804688 C 31.625 37.882812 31.6875 37.957031 31.753906 38.027344 C 31.820312 38.09375 31.894531 38.15625 31.976562 38.210938 C 32.054688 38.261719 32.140625 38.304688 32.230469 38.34375 C 32.316406 38.378906 32.410156 38.410156 32.503906 38.425781 C 32.597656 38.445312 32.695312 38.453125 32.789062 38.453125 C 33.175781 38.453125 33.550781 38.296875 33.824219 38.027344 C 33.890625 37.957031 33.953125 37.882812 34.007812 37.804688 C 34.058594 37.722656 34.105469 37.640625 34.140625 37.550781 C 34.179688 37.460938 34.207031 37.371094 34.226562 37.277344 C 34.246094 37.183594 34.253906 37.085938 34.253906 36.988281 C 34.253906 36.894531 34.246094 36.796875 34.226562 36.703125 Z M 34.226562 36.703125 " fill-opacity="1" fill-rule="nonzero"/><path fill="#231f20" d="M 32.789062 18.375 C 31.980469 18.375 31.324219 19.03125 31.324219 19.839844 L 31.324219 30.90625 C 31.324219 31.714844 31.980469 32.371094 32.789062 32.371094 C 33.597656 32.371094 34.253906 31.714844 34.253906 30.90625 L 34.253906 19.839844 C 34.253906 19.03125 33.597656 18.375 32.789062 18.375 Z M 32.789062 18.375 " fill-opacity="1" fill-rule="nonzero"/><path fill="#231f20" d="M 43.644531 36.703125 C 43.628906 36.609375 43.597656 36.519531 43.5625 36.429688 C 43.527344 36.339844 43.480469 36.257812 43.429688 36.175781 C 43.375 36.097656 43.3125 36.023438 43.246094 35.953125 C 43.179688 35.886719 43.105469 35.824219 43.023438 35.773438 C 42.945312 35.71875 42.859375 35.675781 42.769531 35.636719 C 42.683594 35.601562 42.589844 35.570312 42.496094 35.554688 C 42.308594 35.515625 42.113281 35.515625 41.921875 35.554688 C 41.832031 35.570312 41.738281 35.601562 41.648438 35.636719 C 41.5625 35.675781 41.476562 35.71875 41.398438 35.773438 C 41.316406 35.824219 41.242188 35.886719 41.175781 35.953125 C 41.109375 36.023438 41.046875 36.097656 40.992188 36.175781 C 40.9375 36.257812 40.894531 36.339844 40.855469 36.429688 C 40.820312 36.519531 40.792969 36.609375 40.773438 36.703125 C 40.757812 36.796875 40.746094 36.894531 40.746094 36.988281 C 40.746094 37.085938 40.757812 37.183594 40.773438 37.277344 C 40.792969 37.371094 40.820312 37.460938 40.859375 37.550781 C 40.894531 37.640625 40.9375 37.722656 40.992188 37.804688 C 41.046875 37.882812 41.109375 37.957031 41.175781 38.027344 C 41.242188 38.09375 41.316406 38.15625 41.398438 38.207031 C 41.476562 38.261719 41.5625 38.304688 41.648438 38.34375 C 41.738281 38.378906 41.832031 38.40625 41.921875 38.425781 C 42.019531 38.445312 42.117188 38.453125 42.210938 38.453125 C 42.304688 38.453125 42.402344 38.445312 42.496094 38.425781 C 42.589844 38.40625 42.683594 38.378906 42.769531 38.34375 C 42.859375 38.304688 42.945312 38.261719 43.023438 38.207031 C 43.105469 38.15625 43.179688 38.09375 43.246094 38.027344 C 43.3125 37.957031 43.375 37.882812 43.429688 37.804688 C 43.480469 37.722656 43.527344 37.640625 43.5625 37.550781 C 43.597656 37.460938 43.628906 37.371094 43.644531 37.277344 C 43.664062 37.183594 43.675781 37.085938 43.675781 36.988281 C 43.675781 36.894531 43.664062 36.796875 43.644531 36.703125 Z M 43.644531 36.703125 " fill-opacity="1" fill-rule="nonzero"/><path fill="#231f20" d="M 42.210938 18.375 C 41.402344 18.375 40.746094 19.03125 40.746094 19.839844 L 40.746094 30.90625 C 40.746094 31.714844 41.402344 32.371094 42.210938 32.371094 C 43.019531 32.371094 43.675781 31.714844 43.675781 30.90625 L 43.675781 19.839844 C 43.675781 19.03125 43.019531 18.375 42.210938 18.375 Z M 42.210938 18.375 " fill-opacity="1" fill-rule="nonzero"/><path fill="#231f20" d="M 29.246094 57.722656 C 28.4375 57.722656 27.78125 58.378906 27.78125 59.1875 L 27.78125 60.796875 L 24.363281 60.796875 L 24.363281 59.1875 C 24.363281 58.378906 23.707031 57.722656 22.898438 57.722656 C 22.089844 57.722656 21.433594 58.378906 21.433594 59.1875 L 21.433594 62.261719 C 21.433594 63.074219 22.089844 63.726562 22.898438 63.726562 L 29.246094 63.726562 C 30.054688 63.726562 30.710938 63.074219 30.710938 62.261719 L 30.710938 59.1875 C 30.710938 58.378906 30.054688 57.722656 29.246094 57.722656 Z M 29.246094 57.722656 " fill-opacity="1" fill-rule="nonzero"/><path fill="#231f20" d="M 52.101562 57.722656 C 51.292969 57.722656 50.636719 58.378906 50.636719 59.1875 L 50.636719 60.796875 L 47.21875 60.796875 L 47.21875 59.1875 C 47.21875 58.378906 46.5625 57.722656 45.753906 57.722656 C 44.945312 57.722656 44.289062 58.378906 44.289062 59.1875 L 44.289062 62.261719 C 44.289062 63.074219 44.945312 63.726562 45.753906 63.726562 L 52.101562 63.726562 C 52.910156 63.726562 53.566406 63.074219 53.566406 62.261719 L 53.566406 59.1875 C 53.566406 58.378906 52.910156 57.722656 52.101562 57.722656 Z M 52.101562 57.722656 " fill-opacity="1" fill-rule="nonzero"/></svg>