<svg xmlns="http://www.w3.org/2000/svg" xmlns:xlink="http://www.w3.org/1999/xlink" width="100" zoomAndPan="magnify" viewBox="0 0 75 74.999997" height="100" preserveAspectRatio="xMidYMid meet" version="1.0"><path fill="#231f20" d="M 57.390625 7.542969 L 17.609375 7.542969 C 16.800781 7.542969 16.144531 8.199219 16.144531 9.007812 L 16.144531 44.605469 C 16.144531 45.414062 16.800781 46.070312 17.609375 46.070312 L 57.390625 46.070312 C 58.199219 46.070312 58.855469 45.414062 58.855469 44.605469 L 58.855469 9.007812 C 58.855469 8.199219 58.199219 7.542969 57.390625 7.542969 Z M 55.925781 43.140625 L 19.074219 43.140625 L 19.074219 10.472656 L 55.925781 10.472656 Z M 55.925781 43.140625 " fill-opacity="1" fill-rule="nonzero"/><path fill="#231f20" d="M 73.535156 49.121094 L 64.839844 49.121094 L 64.839844 3.027344 C 64.839844 2.21875 64.183594 1.5625 63.375 1.5625 L 11.625 1.5625 C 10.816406 1.5625 10.160156 2.21875 10.160156 3.027344 L 10.160156 49.121094 L 1.464844 49.121094 C 0.65625 49.121094 0 49.777344 0 50.585938 L 0 71.972656 C 0 72.78125 0.65625 73.4375 1.464844 73.4375 L 73.535156 73.4375 C 74.34375 73.4375 75 72.78125 75 71.972656 L 75 50.585938 C 75 49.777344 74.34375 49.121094 73.535156 49.121094 Z M 13.089844 4.492188 L 61.910156 4.492188 L 61.910156 49.121094 L 13.089844 49.121094 Z M 72.070312 70.507812 L 2.929688 70.507812 L 2.929688 52.050781 L 72.070312 52.050781 Z M 72.070312 70.507812 " fill-opacity="1" fill-rule="nonzero"/><path fill="#231f20" d="M 22.839844 55.105469 L 7.195312 55.105469 C 6.382812 55.105469 5.730469 55.761719 5.730469 56.570312 L 5.730469 65.992188 C 5.730469 66.800781 6.382812 67.457031 7.195312 67.457031 L 22.839844 67.457031 C 23.648438 67.457031 24.304688 66.800781 24.304688 65.992188 L 24.304688 56.570312 C 24.304688 55.761719 23.648438 55.105469 22.839844 55.105469 Z M 8.660156 64.527344 L 8.660156 58.035156 L 21.375 58.035156 L 21.375 64.527344 Z M 8.660156 64.527344 " fill-opacity="1" fill-rule="nonzero"/><path fill="#231f20" d="M 45.324219 55.105469 L 29.675781 55.105469 C 28.867188 55.105469 28.210938 55.761719 28.210938 56.570312 L 28.210938 65.992188 C 28.210938 66.800781 28.867188 67.457031 29.675781 67.457031 L 45.324219 67.457031 C 46.132812 67.457031 46.789062 66.800781 46.789062 65.992188 L 46.789062 56.570312 C 46.789062 55.761719 46.132812 55.105469 45.324219 55.105469 Z M 43.859375 64.527344 L 31.140625 64.527344 L 31.140625 58.035156 L 43.859375 58.035156 Z M 43.859375 64.527344 " fill-opacity="1" fill-rule="nonzero"/><path fill="#231f20" d="M 67.804688 55.105469 L 52.160156 55.105469 C 51.351562 55.105469 50.695312 55.761719 50.695312 56.570312 L 50.695312 65.992188 C 50.695312 66.800781 51.351562 67.457031 52.160156 67.457031 L 67.804688 67.457031 C 68.617188 67.457031 69.269531 66.800781 69.269531 65.992188 L 69.269531 56.570312 C 69.269531 55.761719 68.617188 55.105469 67.804688 55.105469 Z M 66.339844 64.527344 L 53.625 64.527344 L 53.625 58.035156 L 66.339844 58.035156 Z M 66.339844 64.527344 " fill-opacity="1" fill-rule="nonzero"/><path fill="#231f20" d="M 38.367188 14.648438 C 38.351562 14.554688 38.320312 14.460938 38.285156 14.371094 C 38.25 14.285156 38.203125 14.199219 38.152344 14.121094 C 38.097656 14.039062 38.035156 13.964844 37.96875 13.898438 C 37.898438 13.828125 37.824219 13.769531 37.746094 13.714844 C 37.664062 13.664062 37.582031 13.617188 37.492188 13.582031 C 37.402344 13.542969 37.3125 13.515625 37.21875 13.496094 C 37.03125 13.457031 36.835938 13.457031 36.644531 13.496094 C 36.550781 13.515625 36.460938 13.542969 36.371094 13.582031 C 36.28125 13.617188 36.199219 13.664062 36.117188 13.714844 C 36.039062 13.769531 35.964844 13.828125 35.894531 13.898438 C 35.828125 13.964844 35.765625 14.039062 35.714844 14.121094 C 35.660156 14.199219 35.617188 14.285156 35.578125 14.371094 C 35.542969 14.460938 35.515625 14.554688 35.496094 14.648438 C 35.476562 14.742188 35.464844 14.835938 35.464844 14.933594 C 35.464844 15.027344 35.476562 15.125 35.496094 15.21875 C 35.515625 15.3125 35.542969 15.40625 35.578125 15.492188 C 35.617188 15.582031 35.660156 15.667969 35.714844 15.746094 C 35.765625 15.824219 35.828125 15.902344 35.894531 15.96875 C 35.964844 16.035156 36.039062 16.097656 36.117188 16.152344 C 36.199219 16.203125 36.28125 16.25 36.371094 16.285156 C 36.460938 16.324219 36.550781 16.351562 36.644531 16.371094 C 36.738281 16.386719 36.835938 16.398438 36.933594 16.398438 C 37.320312 16.398438 37.695312 16.242188 37.96875 15.96875 C 38.035156 15.902344 38.097656 15.824219 38.152344 15.746094 C 38.203125 15.667969 38.25 15.582031 38.285156 15.492188 C 38.320312 15.40625 38.351562 15.3125 38.367188 15.21875 C 38.386719 15.125 38.398438 15.027344 38.398438 14.933594 C 38.398438 14.835938 38.386719 14.742188 38.367188 14.648438 Z M 38.367188 14.648438 " fill-opacity="1" fill-rule="nonzero"/><path fill="#231f20" d="M 33.738281 18.128906 C 33.164062 17.554688 32.238281 17.554688 31.664062 18.128906 L 21.960938 27.832031 C 21.386719 28.40625 21.386719 29.332031 21.960938 29.90625 C 22.246094 30.191406 22.621094 30.335938 22.996094 30.335938 C 23.371094 30.335938 23.746094 30.191406 24.03125 29.90625 L 33.738281 20.199219 C 34.308594 19.628906 34.308594 18.699219 33.738281 18.128906 Z M 33.738281 18.128906 " fill-opacity="1" fill-rule="nonzero"/><path fill="#231f20" d="M 31.042969 12.34375 C 30.46875 11.773438 29.542969 11.773438 28.96875 12.34375 L 21.492188 19.820312 C 20.921875 20.394531 20.921875 21.320312 21.492188 21.894531 C 21.777344 22.179688 22.152344 22.324219 22.527344 22.324219 C 22.902344 22.324219 23.277344 22.179688 23.5625 21.894531 L 31.042969 14.414062 C 31.613281 13.84375 31.613281 12.917969 31.042969 12.34375 Z M 31.042969 12.34375 " fill-opacity="1" fill-rule="nonzero"/><path fill="#231f20" d="M 15.6875 59.890625 L 14.34375 59.890625 C 13.535156 59.890625 12.878906 60.546875 12.878906 61.355469 C 12.878906 62.164062 13.535156 62.820312 14.34375 62.820312 L 15.6875 62.820312 C 16.496094 62.820312 17.152344 62.164062 17.152344 61.355469 C 17.152344 60.546875 16.496094 59.890625 15.6875 59.890625 Z M 15.6875 59.890625 " fill-opacity="1" fill-rule="nonzero"/><path fill="#231f20" d="M 38.171875 59.890625 L 36.828125 59.890625 C 36.019531 59.890625 35.363281 60.546875 35.363281 61.355469 C 35.363281 62.164062 36.019531 62.820312 36.828125 62.820312 L 38.171875 62.820312 C 38.980469 62.820312 39.636719 62.164062 39.636719 61.355469 C 39.636719 60.546875 38.980469 59.890625 38.171875 59.890625 Z M 38.171875 59.890625 " fill-opacity="1" fill-rule="nonzero"/><path fill="#231f20" d="M 60.65625 59.890625 L 59.3125 59.890625 C 58.503906 59.890625 57.847656 60.546875 57.847656 61.355469 C 57.847656 62.164062 58.503906 62.820312 59.3125 62.820312 L 60.65625 62.820312 C 61.464844 62.820312 62.121094 62.164062 62.121094 61.355469 C 62.121094 60.546875 61.464844 59.890625 60.65625 59.890625 Z M 60.65625 59.890625 " fill-opacity="1" fill-rule="nonzero"/></svg>