<svg xmlns="http://www.w3.org/2000/svg" xmlns:xlink="http://www.w3.org/1999/xlink" width="100" zoomAndPan="magnify" viewBox="0 0 75 74.999997" height="100" preserveAspectRatio="xMidYMid meet" version="1.0"><path fill="#231f20" d="M 62.402344 0 L 12.597656 0 C 11.789062 0 11.132812 0.65625 11.132812 1.464844 L 11.132812 70.605469 C 11.132812 73.027344 13.105469 75 15.527344 75 C 17.949219 75 19.921875 73.027344 19.921875 70.605469 L 19.921875 67.382812 L 55.078125 67.382812 L 55.078125 70.605469 C 55.078125 73.027344 57.050781 75 59.472656 75 C 61.894531 75 63.867188 73.027344 63.867188 70.605469 L 63.867188 1.464844 C 63.867188 0.65625 63.210938 0 62.402344 0 Z M 32.371094 2.929688 L 41.160156 2.929688 L 41.160156 4.351562 C 41.160156 5.175781 40.488281 5.851562 39.660156 5.851562 L 33.875 5.851562 C 33.046875 5.851562 32.371094 5.175781 32.371094 4.351562 Z M 19.921875 2.929688 L 29.441406 2.929688 L 29.441406 4.351562 C 29.441406 6.792969 31.429688 8.78125 33.875 8.78125 L 39.660156 8.78125 C 42.105469 8.78125 44.089844 6.792969 44.089844 4.351562 L 44.089844 2.929688 L 55.078125 2.929688 L 55.078125 19.042969 L 19.921875 19.042969 Z M 41.160156 21.972656 L 41.160156 23.402344 C 41.160156 24.230469 40.488281 24.902344 39.660156 24.902344 L 33.875 24.902344 C 33.046875 24.902344 32.371094 24.230469 32.371094 23.402344 L 32.371094 21.972656 Z M 19.921875 21.972656 L 29.441406 21.972656 L 29.441406 23.402344 C 29.441406 25.84375 31.429688 27.832031 33.875 27.832031 L 39.660156 27.832031 C 42.105469 27.832031 44.089844 25.84375 44.089844 23.402344 L 44.089844 21.972656 L 55.078125 21.972656 L 55.078125 36.621094 L 19.921875 36.621094 Z M 41.160156 39.550781 L 41.160156 40.972656 C 41.160156 41.796875 40.488281 42.472656 39.660156 42.472656 L 33.875 42.472656 C 33.046875 42.472656 32.371094 41.796875 32.371094 40.972656 L 32.371094 39.550781 Z M 16.992188 70.605469 C 16.992188 71.414062 16.335938 72.070312 15.527344 72.070312 C 14.71875 72.070312 14.0625 71.414062 14.0625 70.605469 L 14.0625 67.382812 L 16.992188 67.382812 Z M 60.9375 70.605469 C 60.9375 71.414062 60.28125 72.070312 59.472656 72.070312 C 58.664062 72.070312 58.007812 71.414062 58.007812 70.605469 L 58.007812 67.382812 L 60.9375 67.382812 Z M 60.9375 64.453125 L 14.0625 64.453125 L 14.0625 2.929688 L 16.992188 2.929688 L 16.992188 57.128906 C 16.992188 57.9375 17.648438 58.59375 18.457031 58.59375 L 36.179688 58.59375 C 36.992188 58.59375 37.644531 57.9375 37.644531 57.128906 C 37.644531 56.320312 36.992188 55.664062 36.179688 55.664062 L 19.921875 55.664062 L 19.921875 39.550781 L 29.441406 39.550781 L 29.441406 40.972656 C 29.441406 43.414062 31.429688 45.402344 33.875 45.402344 L 39.660156 45.402344 C 42.105469 45.402344 44.089844 43.414062 44.089844 40.972656 L 44.089844 39.550781 L 55.078125 39.550781 L 55.078125 55.664062 L 50.828125 55.664062 C 50.019531 55.664062 49.363281 56.320312 49.363281 57.128906 C 49.363281 57.9375 50.019531 58.59375 50.828125 58.59375 L 56.542969 58.59375 C 57.351562 58.59375 58.007812 57.9375 58.007812 57.128906 L 58.007812 2.929688 L 60.9375 2.929688 Z M 60.9375 64.453125 " fill-opacity="1" fill-rule="nonzero"/><path fill="#231f20" d="M 44.96875 57.128906 C 44.96875 57.324219 44.933594 57.511719 44.859375 57.691406 C 44.785156 57.871094 44.679688 58.027344 44.542969 58.164062 C 44.402344 58.300781 44.246094 58.410156 44.066406 58.484375 C 43.886719 58.558594 43.699219 58.59375 43.503906 58.59375 C 43.3125 58.59375 43.125 58.558594 42.945312 58.484375 C 42.765625 58.410156 42.605469 58.300781 42.46875 58.164062 C 42.332031 58.027344 42.226562 57.871094 42.152344 57.691406 C 42.078125 57.511719 42.039062 57.324219 42.039062 57.128906 C 42.039062 56.933594 42.078125 56.746094 42.152344 56.566406 C 42.226562 56.386719 42.332031 56.230469 42.46875 56.09375 C 42.605469 55.957031 42.765625 55.847656 42.945312 55.773438 C 43.125 55.699219 43.3125 55.664062 43.503906 55.664062 C 43.699219 55.664062 43.886719 55.699219 44.066406 55.773438 C 44.246094 55.847656 44.402344 55.957031 44.542969 56.09375 C 44.679688 56.230469 44.785156 56.386719 44.859375 56.566406 C 44.933594 56.746094 44.96875 56.933594 44.96875 57.128906 Z M 44.96875 57.128906 " fill-opacity="1" fill-rule="nonzero"/></svg>