<svg xmlns="http://www.w3.org/2000/svg" xmlns:xlink="http://www.w3.org/1999/xlink" width="100" zoomAndPan="magnify" viewBox="0 0 75 74.999997" height="100" preserveAspectRatio="xMidYMid meet" version="1.0"><path fill="#231f20" d="M 74.898438 42.648438 L 74.003906 39.652344 C 73.707031 38.652344 72.769531 37.953125 71.722656 37.953125 L 63.316406 37.953125 L 63.316406 31.332031 L 68.773438 31.332031 C 70.128906 31.332031 71.234375 30.230469 71.234375 28.875 L 71.234375 26.121094 C 71.234375 24.769531 70.128906 23.664062 68.773438 23.664062 L 63.316406 23.664062 L 63.316406 21.40625 L 68.773438 21.40625 C 70.128906 21.40625 71.234375 20.300781 71.234375 18.945312 L 71.234375 16.199219 C 71.234375 14.839844 70.128906 13.738281 68.773438 13.738281 L 63.316406 13.738281 L 63.316406 12.367188 C 63.316406 10.660156 61.925781 9.273438 60.222656 9.273438 L 60.148438 9.273438 C 58.445312 9.273438 57.054688 10.660156 57.054688 12.367188 L 57.054688 19.207031 L 17.945312 19.207031 L 17.945312 15.933594 L 52.945312 15.933594 C 53.550781 15.933594 54.042969 15.441406 54.042969 14.835938 C 54.042969 14.230469 53.550781 13.738281 52.945312 13.738281 L 17.945312 13.738281 L 17.945312 12.367188 C 17.945312 10.660156 16.554688 9.273438 14.851562 9.273438 L 14.777344 9.273438 C 13.074219 9.273438 11.683594 10.660156 11.683594 12.367188 L 11.683594 13.738281 L 6.226562 13.738281 C 4.871094 13.738281 3.765625 14.839844 3.765625 16.199219 L 3.765625 18.945312 C 3.765625 20.300781 4.871094 21.40625 6.226562 21.40625 L 11.683594 21.40625 L 11.683594 23.664062 L 6.226562 23.664062 C 4.871094 23.664062 3.765625 24.769531 3.765625 26.121094 L 3.765625 28.875 C 3.765625 30.230469 4.871094 31.332031 6.226562 31.332031 L 11.683594 31.332031 L 11.683594 37.953125 L 3.277344 37.953125 C 2.230469 37.953125 1.292969 38.652344 0.996094 39.652344 L 0.101562 42.648438 C -0.117188 43.378906 0.0195312 44.144531 0.472656 44.753906 C 0.929688 45.363281 1.625 45.714844 2.382812 45.714844 L 5.742188 45.714844 L 5.742188 50.914062 C 5.742188 53.402344 6.78125 55.824219 8.585938 57.554688 C 9.34375 58.277344 10.019531 58.984375 10.597656 59.65625 C 8.988281 59.730469 7.703125 61.0625 7.703125 62.691406 C 7.703125 64.363281 9.0625 65.726562 10.738281 65.726562 L 12.652344 65.726562 C 14.527344 65.726562 16.242188 64.699219 17.121094 63.042969 C 18.003906 61.386719 17.898438 59.394531 16.851562 57.839844 C 15.867188 56.375 14.5 54.804688 12.785156 53.164062 C 12.171875 52.574219 11.816406 51.753906 11.816406 50.914062 L 11.816406 49.589844 L 18.421875 49.589844 C 20.09375 49.589844 21.457031 48.226562 21.457031 46.554688 C 21.457031 46.261719 21.414062 45.980469 21.335938 45.714844 L 53.664062 45.714844 C 53.585938 45.980469 53.542969 46.261719 53.542969 46.554688 C 53.542969 48.226562 54.90625 49.589844 56.578125 49.589844 L 63.183594 49.589844 L 63.183594 50.914062 C 63.183594 51.753906 62.828125 52.574219 62.214844 53.164062 C 60.5 54.804688 59.132812 56.375 58.148438 57.839844 C 57.101562 59.394531 56.996094 61.386719 57.878906 63.042969 C 58.757812 64.699219 60.472656 65.726562 62.347656 65.726562 L 64.261719 65.726562 C 65.9375 65.726562 67.296875 64.363281 67.296875 62.691406 C 67.296875 61.0625 66.011719 59.730469 64.402344 59.65625 C 64.980469 58.984375 65.65625 58.277344 66.410156 57.554688 C 68.21875 55.824219 69.253906 53.402344 69.253906 50.914062 L 69.253906 45.714844 L 72.613281 45.714844 C 73.375 45.714844 74.070312 45.363281 74.527344 44.753906 C 74.980469 44.144531 75.117188 43.378906 74.898438 42.648438 Z M 63.316406 15.933594 L 68.773438 15.933594 C 68.917969 15.933594 69.035156 16.054688 69.035156 16.199219 L 69.035156 18.945312 C 69.035156 19.089844 68.917969 19.207031 68.773438 19.207031 L 63.316406 19.207031 Z M 63.316406 25.863281 L 68.773438 25.863281 C 68.917969 25.863281 69.035156 25.980469 69.035156 26.121094 L 69.035156 28.875 C 69.035156 29.015625 68.917969 29.132812 68.773438 29.132812 L 63.316406 29.132812 Z M 59.253906 12.367188 C 59.253906 11.871094 59.65625 11.46875 60.148438 11.46875 L 60.222656 11.46875 C 60.714844 11.46875 61.117188 11.875 61.117188 12.367188 L 61.117188 16.472656 L 59.253906 16.472656 Z M 59.253906 18.671875 L 61.117188 18.671875 L 61.117188 26.398438 L 59.253906 26.398438 Z M 59.253906 28.597656 L 61.117188 28.597656 L 61.117188 37.953125 L 59.253906 37.953125 Z M 17.945312 21.40625 L 57.054688 21.40625 L 57.054688 23.664062 L 17.945312 23.664062 Z M 17.945312 25.863281 L 57.054688 25.863281 L 57.054688 29.132812 L 17.945312 29.132812 Z M 13.882812 12.367188 C 13.882812 11.871094 14.285156 11.46875 14.777344 11.46875 L 14.851562 11.46875 C 15.34375 11.46875 15.746094 11.875 15.746094 12.367188 L 15.746094 16.472656 L 13.882812 16.472656 Z M 13.882812 24.769531 C 13.882812 24.765625 13.882812 24.765625 13.882812 24.761719 C 13.882812 24.761719 13.882812 24.757812 13.882812 24.757812 L 13.882812 18.671875 L 15.746094 18.671875 L 15.746094 26.398438 L 13.882812 26.398438 Z M 13.882812 28.597656 L 15.746094 28.597656 L 15.746094 37.953125 L 13.882812 37.953125 Z M 6.226562 19.207031 C 6.082031 19.207031 5.964844 19.089844 5.964844 18.945312 L 5.964844 16.199219 C 5.964844 16.054688 6.082031 15.933594 6.226562 15.933594 L 11.683594 15.933594 L 11.683594 19.207031 Z M 6.226562 29.132812 C 6.082031 29.132812 5.964844 29.015625 5.964844 28.875 L 5.964844 26.121094 C 5.964844 25.980469 6.082031 25.863281 6.226562 25.863281 L 11.683594 25.863281 L 11.683594 29.132812 Z M 18.421875 47.394531 L 10.71875 47.394531 C 10.113281 47.394531 9.621094 47.886719 9.621094 48.492188 L 9.621094 50.914062 C 9.621094 52.351562 10.222656 53.75 11.269531 54.753906 C 12.867188 56.28125 14.132812 57.734375 15.03125 59.066406 C 15.621094 59.945312 15.679688 61.074219 15.183594 62.011719 C 14.683594 62.949219 13.714844 63.53125 12.652344 63.53125 L 10.738281 63.53125 C 10.277344 63.53125 9.898438 63.152344 9.898438 62.691406 C 9.898438 62.226562 10.277344 61.851562 10.738281 61.851562 L 12.601562 61.851562 C 13.039062 61.875 13.472656 61.640625 13.695312 61.226562 C 13.921875 60.8125 13.878906 60.316406 13.609375 59.960938 C 12.789062 58.757812 11.582031 57.375 10.105469 55.964844 C 8.730469 54.648438 7.941406 52.808594 7.941406 50.914062 L 7.941406 46.554688 C 7.941406 46.089844 8.316406 45.714844 8.78125 45.714844 L 18.421875 45.714844 C 18.882812 45.714844 19.261719 46.089844 19.261719 46.554688 C 19.261719 47.015625 18.882812 47.394531 18.421875 47.394531 Z M 67.058594 50.914062 C 67.058594 52.808594 66.269531 54.648438 64.894531 55.964844 C 63.417969 57.375 62.210938 58.757812 61.390625 59.960938 C 61.121094 60.316406 61.078125 60.8125 61.304688 61.226562 C 61.527344 61.640625 61.953125 61.875 62.398438 61.851562 L 64.261719 61.851562 C 64.722656 61.851562 65.101562 62.226562 65.101562 62.691406 C 65.101562 63.152344 64.722656 63.53125 64.261719 63.53125 L 62.347656 63.53125 C 61.285156 63.53125 60.316406 62.949219 59.816406 62.011719 C 59.320312 61.074219 59.378906 59.945312 59.96875 59.066406 C 60.867188 57.734375 62.132812 56.28125 63.730469 54.753906 C 64.777344 53.75 65.378906 52.351562 65.378906 50.914062 L 65.378906 48.492188 C 65.378906 47.882812 64.886719 47.394531 64.28125 47.394531 L 56.578125 47.394531 C 56.117188 47.394531 55.738281 47.015625 55.738281 46.554688 C 55.738281 46.089844 56.117188 45.714844 56.578125 45.714844 L 66.21875 45.714844 C 66.683594 45.714844 67.058594 46.089844 67.058594 46.554688 Z M 72.765625 43.441406 C 72.726562 43.492188 72.675781 43.515625 72.613281 43.515625 L 2.386719 43.515625 C 2.324219 43.515625 2.273438 43.492188 2.234375 43.441406 C 2.199219 43.390625 2.1875 43.335938 2.207031 43.277344 L 3.101562 40.28125 C 3.125 40.203125 3.195312 40.148438 3.277344 40.148438 L 16.847656 40.148438 C 17.453125 40.148438 17.945312 39.65625 17.945312 39.050781 L 17.945312 31.332031 L 57.054688 31.332031 L 57.054688 37.953125 L 21.980469 37.953125 C 21.371094 37.953125 20.882812 38.441406 20.882812 39.050781 C 20.882812 39.65625 21.371094 40.148438 21.980469 40.148438 L 71.722656 40.148438 C 71.804688 40.148438 71.875 40.203125 71.898438 40.28125 L 72.792969 43.277344 C 72.8125 43.335938 72.800781 43.390625 72.765625 43.441406 Z M 72.765625 43.441406 " fill-opacity="1" fill-rule="nonzero"/></svg>