<svg xmlns="http://www.w3.org/2000/svg" xmlns:xlink="http://www.w3.org/1999/xlink" width="100" zoomAndPan="magnify" viewBox="0 0 75 74.999997" height="100" preserveAspectRatio="xMidYMid meet" version="1.0"><path stroke-linecap="round" transform="matrix(1.171875, 0, 0, 1.171875, 0.0000015, -0.000001)" fill="none" stroke-linejoin="round" d="M 27.100001 24.300003 L 37.000002 24.300003 L 37.000002 41.200004 L 27.100001 41.200004 Z M 27.100001 24.300003 " stroke="#231f20" stroke-width="2" stroke-opacity="1" stroke-miterlimit="10"/><path stroke-linecap="round" transform="matrix(1.171875, 0, 0, 1.171875, 0.0000015, -0.000001)" fill="none" stroke-linejoin="round" d="M 9.299999 54.200005 L 16 46.300005 L 16 23.300003 L 9.299999 20.400003 Z M 9.299999 54.200005 " stroke="#231f20" stroke-width="2" stroke-opacity="1" stroke-miterlimit="10"/><path stroke-linecap="round" transform="matrix(1.171875, 0, 0, 1.171875, 0.0000015, -0.000001)" fill="none" stroke-linejoin="round" d="M 43.700002 14.400002 L 59.600004 3.900001 L 59.600004 60.100006 L 43.700002 41.200004 L 20.3 41.200004 L 4.399999 60.100006 L 4.399999 3.900001 L 20.3 14.400002 Z M 43.700002 14.400002 " stroke="#231f20" stroke-width="2" stroke-opacity="1" stroke-miterlimit="10"/><path stroke-linecap="round" transform="matrix(1.171875, 0, 0, 1.171875, 0.0000015, -0.000001)" fill="none" stroke-linejoin="round" d="M 54.400003 60.100006 L 41.500002 44.700005 L 22.500001 44.700005 L 9.6 60.100006 " stroke="#231f20" stroke-width="2" stroke-opacity="1" stroke-miterlimit="10"/><path stroke-linecap="round" transform="matrix(1.171875, 0, 0, 1.171875, 0.0000015, -0.000001)" fill="none" stroke-linejoin="round" d="M 54.700003 54.200005 L 48.000003 46.300005 L 48.000003 23.300003 L 54.700003 20.400003 Z M 54.700003 54.200005 " stroke="#231f20" stroke-width="2" stroke-opacity="1" stroke-miterlimit="10"/><path stroke-linecap="round" transform="matrix(1.171875, 0, 0, 1.171875, 0.0000015, -0.000001)" fill="none" stroke-linejoin="round" d="M 4.399999 3.900001 L 59.600004 3.900001 " stroke="#231f20" stroke-width="2" stroke-opacity="1" stroke-miterlimit="10"/><path stroke-linecap="round" transform="matrix(1.171875, 0, 0, 1.171875, 0.0000015, -0.000001)" fill="none" stroke-linejoin="round" d="M 59.600004 60.100006 L 4.399999 60.100006 " stroke="#231f20" stroke-width="2" stroke-opacity="1" stroke-miterlimit="10"/><path stroke-linecap="round" transform="matrix(1.171875, 0, 0, 1.171875, 0.0000015, -0.000001)" fill="none" stroke-linejoin="round" d="M 43.700002 41.200004 L 43.700002 14.400002 " stroke="#231f20" stroke-width="2" stroke-opacity="1" stroke-miterlimit="10"/><path stroke-linecap="round" transform="matrix(1.171875, 0, 0, 1.171875, 0.0000015, -0.000001)" fill="none" stroke-linejoin="round" d="M 20.3 41.200004 L 20.3 14.400002 " stroke="#231f20" stroke-width="2" stroke-opacity="1" stroke-miterlimit="10"/></svg>