<svg xmlns="http://www.w3.org/2000/svg" xmlns:xlink="http://www.w3.org/1999/xlink" width="100" zoomAndPan="magnify" viewBox="0 0 75 74.999997" height="100" preserveAspectRatio="xMidYMid meet" version="1.0"><path fill="#231f20" d="M 73.535156 2.136719 L 1.464844 2.136719 C 0.65625 2.136719 0 2.792969 0 3.601562 L 0 8.722656 C 0 9.53125 0.65625 10.1875 1.464844 10.1875 L 3.386719 10.1875 L 3.386719 71.398438 C 3.386719 72.207031 4.042969 72.863281 4.851562 72.863281 L 9.84375 72.863281 C 10.652344 72.863281 11.308594 72.207031 11.308594 71.398438 L 11.308594 67.566406 L 62.664062 67.566406 L 62.664062 71.398438 C 62.664062 72.207031 63.320312 72.863281 64.128906 72.863281 L 69.121094 72.863281 C 69.929688 72.863281 70.585938 72.207031 70.585938 71.398438 L 70.585938 10.1875 L 73.535156 10.1875 C 74.34375 10.1875 75 9.53125 75 8.722656 L 75 3.601562 C 75 2.792969 74.34375 2.136719 73.535156 2.136719 Z M 8.378906 69.933594 L 6.316406 69.933594 L 6.316406 67.566406 L 8.378906 67.566406 Z M 67.65625 69.933594 L 65.59375 69.933594 L 65.59375 67.566406 L 67.65625 67.566406 Z M 67.65625 64.636719 L 6.316406 64.636719 L 6.316406 62.441406 L 67.65625 62.441406 Z M 6.316406 59.511719 L 6.316406 10.1875 L 8.351562 10.1875 L 8.351562 59.511719 Z M 62.664062 33.820312 L 62.664062 35.882812 L 11.308594 35.882812 L 11.308594 33.820312 Z M 11.308594 30.890625 L 11.308594 10.1875 L 33.027344 10.1875 L 33.027344 30.890625 Z M 35.957031 30.890625 L 35.957031 10.1875 L 38.015625 10.1875 L 38.015625 30.890625 Z M 40.945312 30.890625 L 40.945312 10.1875 L 62.664062 10.1875 L 62.664062 30.890625 Z M 62.664062 38.8125 L 62.664062 59.511719 L 40.945312 59.511719 L 40.945312 38.8125 Z M 38.015625 38.8125 L 38.015625 59.511719 L 35.957031 59.511719 L 35.957031 38.8125 Z M 33.027344 38.8125 L 33.027344 59.511719 L 11.308594 59.511719 L 11.308594 38.8125 Z M 67.65625 59.511719 L 65.621094 59.511719 L 65.621094 10.1875 L 67.65625 10.1875 Z M 72.070312 7.257812 L 2.929688 7.257812 L 2.929688 5.066406 L 72.070312 5.066406 Z M 72.070312 7.257812 " fill-opacity="1" fill-rule="nonzero"/><path fill="#231f20" d="M 31.34375 14.460938 C 31.324219 14.367188 31.296875 14.277344 31.257812 14.1875 C 31.222656 14.101562 31.179688 14.015625 31.125 13.933594 C 31.070312 13.855469 31.011719 13.78125 30.941406 13.710938 C 30.875 13.644531 30.800781 13.582031 30.71875 13.53125 C 30.640625 13.476562 30.554688 13.433594 30.46875 13.394531 C 30.378906 13.359375 30.285156 13.332031 30.191406 13.3125 C 30.003906 13.273438 29.8125 13.273438 29.621094 13.3125 C 29.527344 13.332031 29.4375 13.359375 29.347656 13.394531 C 29.257812 13.433594 29.175781 13.476562 29.09375 13.53125 C 29.015625 13.582031 28.9375 13.644531 28.871094 13.710938 C 28.804688 13.78125 28.742188 13.855469 28.691406 13.933594 C 28.636719 14.015625 28.59375 14.101562 28.554688 14.1875 C 28.519531 14.277344 28.488281 14.367188 28.472656 14.460938 C 28.453125 14.554688 28.441406 14.652344 28.441406 14.746094 C 28.441406 14.84375 28.453125 14.941406 28.472656 15.035156 C 28.488281 15.128906 28.519531 15.222656 28.554688 15.308594 C 28.59375 15.398438 28.636719 15.480469 28.691406 15.5625 C 28.742188 15.640625 28.804688 15.714844 28.871094 15.785156 C 28.9375 15.851562 29.015625 15.914062 29.09375 15.964844 C 29.171875 16.019531 29.257812 16.066406 29.347656 16.101562 C 29.4375 16.136719 29.527344 16.164062 29.621094 16.183594 C 29.714844 16.203125 29.8125 16.214844 29.90625 16.214844 C 30.003906 16.214844 30.097656 16.203125 30.191406 16.183594 C 30.285156 16.164062 30.378906 16.136719 30.46875 16.101562 C 30.554688 16.066406 30.640625 16.019531 30.71875 15.964844 C 30.800781 15.914062 30.875 15.851562 30.941406 15.785156 C 31.011719 15.714844 31.070312 15.640625 31.125 15.5625 C 31.179688 15.480469 31.222656 15.398438 31.257812 15.308594 C 31.296875 15.222656 31.324219 15.128906 31.34375 15.035156 C 31.363281 14.941406 31.371094 14.84375 31.371094 14.746094 C 31.371094 14.652344 31.363281 14.554688 31.34375 14.460938 Z M 31.34375 14.460938 " fill-opacity="1" fill-rule="nonzero"/><path fill="#231f20" d="M 24.1875 13.285156 L 17.472656 13.285156 C 16.660156 13.285156 16.007812 13.941406 16.007812 14.75 C 16.007812 15.558594 16.660156 16.214844 17.472656 16.214844 L 24.1875 16.214844 C 24.996094 16.214844 25.652344 15.558594 25.652344 14.75 C 25.652344 13.941406 24.996094 13.285156 24.1875 13.285156 Z M 24.1875 13.285156 " fill-opacity="1" fill-rule="nonzero"/><path fill="#231f20" d="M 58.964844 14.460938 C 58.945312 14.367188 58.917969 14.277344 58.882812 14.1875 C 58.847656 14.101562 58.800781 14.015625 58.746094 13.933594 C 58.695312 13.855469 58.632812 13.78125 58.566406 13.710938 C 58.496094 13.644531 58.421875 13.582031 58.34375 13.53125 C 58.261719 13.476562 58.179688 13.433594 58.089844 13.394531 C 58 13.359375 57.90625 13.332031 57.816406 13.3125 C 57.625 13.273438 57.433594 13.273438 57.242188 13.3125 C 57.148438 13.332031 57.058594 13.359375 56.96875 13.394531 C 56.878906 13.433594 56.792969 13.476562 56.714844 13.53125 C 56.636719 13.582031 56.5625 13.644531 56.492188 13.710938 C 56.425781 13.78125 56.363281 13.855469 56.3125 13.933594 C 56.257812 14.015625 56.214844 14.101562 56.175781 14.1875 C 56.140625 14.277344 56.113281 14.367188 56.09375 14.460938 C 56.074219 14.558594 56.0625 14.652344 56.0625 14.75 C 56.0625 14.84375 56.074219 14.941406 56.09375 15.035156 C 56.113281 15.128906 56.140625 15.222656 56.175781 15.308594 C 56.214844 15.398438 56.257812 15.480469 56.3125 15.5625 C 56.363281 15.640625 56.425781 15.714844 56.492188 15.785156 C 56.5625 15.851562 56.636719 15.914062 56.714844 15.964844 C 56.796875 16.019531 56.878906 16.066406 56.96875 16.101562 C 57.058594 16.136719 57.148438 16.164062 57.242188 16.183594 C 57.335938 16.203125 57.433594 16.214844 57.527344 16.214844 C 57.625 16.214844 57.722656 16.203125 57.816406 16.183594 C 57.90625 16.164062 58 16.136719 58.089844 16.101562 C 58.179688 16.066406 58.261719 16.019531 58.34375 15.964844 C 58.421875 15.914062 58.496094 15.851562 58.566406 15.785156 C 58.632812 15.714844 58.695312 15.640625 58.746094 15.5625 C 58.800781 15.480469 58.847656 15.398438 58.882812 15.308594 C 58.917969 15.222656 58.945312 15.128906 58.964844 15.035156 C 58.984375 14.941406 58.992188 14.84375 58.992188 14.75 C 58.992188 14.652344 58.984375 14.558594 58.964844 14.460938 Z M 58.964844 14.460938 " fill-opacity="1" fill-rule="nonzero"/><path fill="#231f20" d="M 51.808594 13.285156 L 45.09375 13.285156 C 44.285156 13.285156 43.628906 13.941406 43.628906 14.75 C 43.628906 15.558594 44.285156 16.214844 45.09375 16.214844 L 51.808594 16.214844 C 52.617188 16.214844 53.273438 15.558594 53.273438 14.75 C 53.273438 13.941406 52.617188 13.285156 51.808594 13.285156 Z M 51.808594 13.285156 " fill-opacity="1" fill-rule="nonzero"/><path fill="#231f20" d="M 52.277344 40.292969 C 50.171875 40.292969 48.460938 42.003906 48.460938 44.105469 C 48.460938 46.207031 50.171875 47.917969 52.277344 47.917969 C 54.378906 47.917969 56.089844 46.207031 56.089844 44.105469 C 56.089844 42.003906 54.378906 40.292969 52.277344 40.292969 Z M 52.277344 44.988281 C 51.789062 44.988281 51.390625 44.59375 51.390625 44.105469 C 51.390625 43.617188 51.789062 43.222656 52.277344 43.222656 C 52.761719 43.222656 53.160156 43.617188 53.160156 44.105469 C 53.160156 44.59375 52.761719 44.988281 52.277344 44.988281 Z M 52.277344 44.988281 " fill-opacity="1" fill-rule="nonzero"/><path fill="#231f20" d="M 22.722656 40.292969 C 20.621094 40.292969 18.910156 42.003906 18.910156 44.105469 C 18.910156 46.207031 20.621094 47.917969 22.722656 47.917969 C 24.828125 47.917969 26.539062 46.207031 26.539062 44.105469 C 26.539062 42.003906 24.828125 40.292969 22.722656 40.292969 Z M 22.722656 44.988281 C 22.238281 44.988281 21.839844 44.59375 21.839844 44.105469 C 21.839844 43.617188 22.238281 43.222656 22.722656 43.222656 C 23.210938 43.222656 23.609375 43.617188 23.609375 44.105469 C 23.609375 44.59375 23.210938 44.988281 22.722656 44.988281 Z M 22.722656 44.988281 " fill-opacity="1" fill-rule="nonzero"/></svg>