<svg xmlns="http://www.w3.org/2000/svg" xmlns:xlink="http://www.w3.org/1999/xlink" width="100" zoomAndPan="magnify" viewBox="0 0 75 74.999997" height="100" preserveAspectRatio="xMidYMid meet" version="1.0"><path fill="#231f20" d="M 68.800781 0 L 6.199219 0 C 4.871094 0 3.789062 1.082031 3.789062 2.410156 L 3.789062 19.007812 C 3.789062 20.335938 4.871094 21.414062 6.199219 21.414062 L 47.617188 21.414062 L 46.460938 23.105469 C 46.027344 23.734375 45.980469 24.550781 46.335938 25.230469 C 46.695312 25.90625 47.390625 26.328125 48.160156 26.328125 L 59.945312 26.328125 C 60.710938 26.328125 61.410156 25.90625 61.765625 25.230469 C 62.125 24.550781 62.078125 23.734375 61.644531 23.105469 L 60.488281 21.414062 L 68.800781 21.414062 C 70.128906 21.414062 71.210938 20.335938 71.210938 19.007812 L 71.210938 2.410156 C 71.210938 1.082031 70.128906 0 68.800781 0 Z M 52.707031 13.40625 L 46.75 13.40625 L 46.75 11.996094 C 46.75 11.390625 46.261719 10.898438 45.652344 10.898438 C 45.046875 10.898438 44.554688 11.390625 44.554688 11.996094 L 44.554688 13.40625 L 38.597656 13.40625 L 38.597656 2.195312 L 52.707031 2.195312 Z M 5.988281 19.007812 L 5.988281 2.410156 C 5.988281 2.292969 6.082031 2.195312 6.199219 2.195312 L 20.097656 2.195312 L 20.097656 19.21875 L 6.199219 19.21875 C 6.082031 19.21875 5.988281 19.125 5.988281 19.007812 Z M 22.292969 2.195312 L 36.402344 2.195312 L 36.402344 19.21875 L 22.292969 19.21875 Z M 38.597656 15.605469 L 52.707031 15.605469 L 52.707031 19.21875 L 38.597656 19.21875 Z M 59.683594 24.128906 L 48.417969 24.128906 L 50.28125 21.414062 L 57.824219 21.414062 Z M 69.011719 19.007812 C 69.011719 19.125 68.917969 19.21875 68.800781 19.21875 L 54.902344 19.21875 L 54.902344 2.195312 L 68.800781 2.195312 C 68.917969 2.195312 69.011719 2.292969 69.011719 2.410156 Z M 69.011719 19.007812 " fill-opacity="1" fill-rule="nonzero"/><path fill="#231f20" d="M 64.785156 36.902344 L 62.914062 36.902344 C 62.453125 35.296875 61.003906 34.4375 60.171875 34.1875 C 59.59375 34.015625 58.976562 34.34375 58.800781 34.921875 C 58.625 35.503906 58.949219 36.117188 59.53125 36.289062 C 59.617188 36.316406 60.105469 36.488281 60.46875 36.902344 L 48.277344 36.902344 C 48.632812 36.492188 49.121094 36.320312 49.210938 36.289062 C 49.785156 36.113281 50.109375 35.503906 49.9375 34.925781 C 49.761719 34.34375 49.152344 34.015625 48.570312 34.1875 C 47.738281 34.4375 46.289062 35.296875 45.832031 36.902344 L 42.828125 36.902344 C 40.542969 36.902344 38.539062 38.097656 37.398438 39.894531 C 37.035156 39.683594 36.609375 39.558594 36.15625 39.558594 L 6.253906 39.558594 C 4.894531 39.558594 3.789062 40.660156 3.789062 42.019531 L 3.789062 73.902344 C 3.789062 74.507812 4.28125 75 4.890625 75 C 5.496094 75 5.988281 74.507812 5.988281 73.902344 L 5.988281 71.011719 L 20.097656 71.011719 L 20.097656 73.902344 C 20.097656 74.507812 20.585938 75 21.195312 75 C 21.800781 75 22.292969 74.507812 22.292969 73.902344 L 22.292969 71.011719 L 36.402344 71.011719 L 36.402344 73.902344 C 36.402344 74.507812 36.894531 75 37.5 75 C 38.105469 75 38.597656 74.507812 38.597656 73.902344 L 38.597656 71.011719 L 52.707031 71.011719 L 52.707031 73.902344 C 52.707031 74.507812 53.199219 75 53.804688 75 C 54.414062 75 54.902344 74.507812 54.902344 73.902344 L 54.902344 71.011719 L 69.011719 71.011719 L 69.011719 73.902344 C 69.011719 74.507812 69.503906 75 70.109375 75 C 70.71875 75 71.210938 74.507812 71.210938 73.902344 L 71.210938 50.21875 C 71.210938 49.609375 70.71875 49.121094 70.109375 49.121094 C 69.503906 49.121094 69.011719 49.609375 69.011719 50.21875 L 69.011719 51.777344 L 54.902344 51.777344 L 54.902344 50.4375 C 54.902344 49.828125 54.414062 49.339844 53.804688 49.339844 C 53.199219 49.339844 52.707031 49.828125 52.707031 50.4375 L 52.707031 51.777344 L 38.597656 51.777344 L 38.597656 46.167969 L 70.109375 46.167969 C 70.71875 46.167969 71.210938 45.675781 71.210938 45.070312 L 71.210938 43.328125 C 71.210938 39.785156 68.328125 36.902344 64.785156 36.902344 Z M 36.402344 51.777344 L 22.304688 51.777344 L 22.304688 50.4375 C 22.304688 49.828125 21.8125 49.339844 21.207031 49.339844 C 20.597656 49.339844 20.105469 49.828125 20.105469 50.4375 L 20.105469 51.777344 L 5.988281 51.777344 L 5.988281 46.167969 L 36.402344 46.167969 Z M 5.988281 42.019531 C 5.988281 41.871094 6.105469 41.753906 6.253906 41.753906 L 36.15625 41.753906 C 36.304688 41.753906 36.421875 41.871094 36.421875 42.019531 L 36.402344 43.972656 L 5.988281 43.972656 Z M 5.988281 53.972656 L 36.402344 53.972656 L 36.402344 68.816406 L 22.292969 68.816406 L 22.292969 58.015625 C 22.292969 57.40625 21.800781 56.914062 21.195312 56.914062 C 20.585938 56.914062 20.097656 57.40625 20.097656 58.015625 L 20.097656 68.816406 L 5.988281 68.816406 Z M 69.011719 68.816406 L 54.902344 68.816406 L 54.902344 53.972656 L 69.011719 53.972656 Z M 52.707031 53.972656 L 52.707031 68.816406 L 38.597656 68.816406 L 38.597656 53.972656 Z M 38.621094 43.972656 L 38.621094 42.902344 C 38.832031 40.769531 40.636719 39.097656 42.828125 39.097656 L 64.785156 39.097656 C 67.117188 39.097656 69.011719 40.996094 69.011719 43.328125 L 69.011719 43.972656 Z M 38.621094 43.972656 " fill-opacity="1" fill-rule="nonzero"/><path fill="#231f20" d="M 58.285156 62.488281 C 58.890625 62.488281 59.378906 62 59.378906 61.394531 C 59.378906 60.789062 58.890625 60.300781 58.285156 60.300781 C 57.679688 60.300781 57.1875 60.789062 57.1875 61.394531 C 57.1875 62 57.679688 62.488281 58.285156 62.488281 Z M 58.285156 62.488281 " fill-opacity="1" fill-rule="nonzero"/><path fill="#231f20" d="M 48.886719 62.488281 C 49.488281 62.488281 49.980469 62 49.980469 61.394531 C 49.980469 60.789062 49.488281 60.300781 48.886719 60.300781 C 48.28125 60.300781 47.789062 60.789062 47.789062 61.394531 C 47.789062 62 48.28125 62.488281 48.886719 62.488281 Z M 48.886719 62.488281 " fill-opacity="1" fill-rule="nonzero"/><path fill="#231f20" d="M 58.285156 9.613281 C 57.679688 9.613281 57.1875 10.101562 57.1875 10.707031 C 57.1875 11.3125 57.679688 11.804688 58.285156 11.804688 C 58.890625 11.804688 59.378906 11.3125 59.378906 10.707031 C 59.378906 10.101562 58.890625 9.613281 58.285156 9.613281 Z M 58.285156 9.613281 " fill-opacity="1" fill-rule="nonzero"/><path fill="#231f20" d="M 25.894531 62.488281 C 26.5 62.488281 26.988281 62 26.988281 61.394531 C 26.988281 60.789062 26.5 60.300781 25.894531 60.300781 C 25.289062 60.300781 24.800781 60.789062 24.800781 61.394531 C 24.800781 62 25.289062 62.488281 25.894531 62.488281 Z M 25.894531 62.488281 " fill-opacity="1" fill-rule="nonzero"/><path fill="#231f20" d="M 17.589844 61.394531 C 17.589844 61.539062 17.5625 61.679688 17.507812 61.8125 C 17.449219 61.949219 17.371094 62.066406 17.269531 62.167969 C 17.167969 62.273438 17.046875 62.351562 16.914062 62.40625 C 16.78125 62.460938 16.640625 62.488281 16.496094 62.488281 C 16.351562 62.488281 16.210938 62.460938 16.074219 62.40625 C 15.941406 62.351562 15.824219 62.273438 15.71875 62.167969 C 15.617188 62.066406 15.539062 61.949219 15.484375 61.8125 C 15.425781 61.679688 15.398438 61.539062 15.398438 61.394531 C 15.398438 61.25 15.425781 61.109375 15.484375 60.976562 C 15.539062 60.84375 15.617188 60.722656 15.71875 60.621094 C 15.824219 60.519531 15.941406 60.4375 16.074219 60.382812 C 16.210938 60.328125 16.351562 60.300781 16.496094 60.300781 C 16.640625 60.300781 16.78125 60.328125 16.914062 60.382812 C 17.046875 60.4375 17.167969 60.519531 17.269531 60.621094 C 17.371094 60.722656 17.449219 60.84375 17.507812 60.976562 C 17.5625 61.109375 17.589844 61.25 17.589844 61.394531 Z M 17.589844 61.394531 " fill-opacity="1" fill-rule="nonzero"/><path fill="#231f20" d="M 25.894531 9.613281 C 25.289062 9.613281 24.800781 10.101562 24.800781 10.707031 C 24.800781 11.3125 25.289062 11.804688 25.894531 11.804688 C 26.5 11.804688 26.988281 11.3125 26.988281 10.707031 C 26.988281 10.101562 26.5 9.613281 25.894531 9.613281 Z M 25.894531 9.613281 " fill-opacity="1" fill-rule="nonzero"/><path fill="#231f20" d="M 16.496094 9.613281 C 15.890625 9.613281 15.398438 10.101562 15.398438 10.707031 C 15.398438 11.3125 15.890625 11.804688 16.496094 11.804688 C 17.101562 11.804688 17.589844 11.3125 17.589844 10.707031 C 17.589844 10.101562 17.097656 9.613281 16.496094 9.613281 Z M 16.496094 9.613281 " fill-opacity="1" fill-rule="nonzero"/></svg>