<svg xmlns="http://www.w3.org/2000/svg" xmlns:xlink="http://www.w3.org/1999/xlink" width="100" zoomAndPan="magnify" viewBox="0 0 75 74.999997" height="100" preserveAspectRatio="xMidYMid meet" version="1.0"><path fill="#231f20" d="M 1.484375 25.726562 L 37.574219 25.726562 C 38.382812 25.726562 39.039062 25.070312 39.039062 24.261719 L 39.039062 19.769531 C 39.039062 19.277344 38.792969 18.820312 38.378906 18.546875 L 25.410156 9.996094 L 25.410156 1.464844 C 25.410156 0.65625 24.753906 0 23.945312 0 L 14.960938 0 C 14.152344 0 13.496094 0.65625 13.496094 1.464844 L 13.496094 10 L 0.671875 18.550781 C 0.265625 18.824219 0.0195312 19.28125 0.0195312 19.769531 L 0.0195312 24.261719 C 0.0195312 25.070312 0.675781 25.726562 1.484375 25.726562 Z M 22.484375 2.929688 L 22.484375 9.320312 L 16.425781 9.320312 L 16.425781 2.929688 Z M 2.949219 20.554688 L 15.40625 12.25 L 23.507812 12.25 L 36.109375 20.558594 L 36.109375 22.800781 L 2.949219 22.800781 Z M 2.949219 20.554688 " fill-opacity="1" fill-rule="nonzero"/><path fill="#231f20" d="M 73.515625 33.640625 L 1.484375 33.640625 C 0.675781 33.640625 0.0195312 34.296875 0.0195312 35.105469 L 0.0195312 73.535156 C 0.0195312 74.34375 0.675781 75 1.484375 75 L 73.515625 75 C 74.324219 75 74.980469 74.34375 74.980469 73.535156 L 74.980469 35.105469 C 74.980469 34.296875 74.324219 33.640625 73.515625 33.640625 Z M 72.050781 52.710938 L 39.769531 52.710938 L 39.769531 36.570312 L 48.441406 36.570312 L 48.441406 37.980469 C 48.441406 40.421875 50.429688 42.410156 52.871094 42.410156 L 58.65625 42.410156 C 61.097656 42.410156 63.082031 40.421875 63.082031 37.980469 L 63.082031 36.570312 L 72.050781 36.570312 Z M 51.371094 55.636719 L 60.15625 55.636719 L 60.15625 57.015625 C 60.15625 57.839844 59.480469 58.515625 58.65625 58.515625 L 52.871094 58.515625 C 52.042969 58.515625 51.371094 57.839844 51.371094 57.015625 Z M 51.371094 36.570312 L 60.15625 36.570312 L 60.15625 37.980469 C 60.15625 38.808594 59.480469 39.480469 58.65625 39.480469 L 52.871094 39.480469 C 52.042969 39.480469 51.371094 38.808594 51.371094 37.980469 Z M 36.839844 36.570312 L 36.839844 45.355469 L 2.949219 45.355469 L 2.949219 36.570312 Z M 2.949219 48.28125 L 36.839844 48.28125 L 36.839844 72.070312 L 2.949219 72.070312 Z M 39.769531 72.070312 L 39.769531 55.636719 L 48.441406 55.636719 L 48.441406 57.015625 C 48.441406 59.457031 50.429688 61.441406 52.871094 61.441406 L 58.65625 61.441406 C 61.097656 61.441406 63.082031 59.457031 63.082031 57.015625 L 63.082031 55.636719 L 72.050781 55.636719 L 72.050781 72.070312 Z M 39.769531 72.070312 " fill-opacity="1" fill-rule="nonzero"/><path fill="#231f20" d="M 9.410156 41.511719 C 9.445312 41.597656 9.492188 41.683594 9.542969 41.761719 C 9.597656 41.84375 9.65625 41.917969 9.726562 41.984375 C 9.792969 42.054688 9.867188 42.113281 9.949219 42.167969 C 10.027344 42.222656 10.113281 42.265625 10.199219 42.304688 C 10.289062 42.339844 10.382812 42.367188 10.472656 42.386719 C 10.566406 42.40625 10.664062 42.414062 10.761719 42.414062 C 10.855469 42.414062 10.953125 42.40625 11.046875 42.386719 C 11.140625 42.367188 11.230469 42.339844 11.320312 42.304688 C 11.410156 42.265625 11.492188 42.222656 11.574219 42.167969 C 11.652344 42.113281 11.726562 42.054688 11.796875 41.984375 C 11.863281 41.917969 11.925781 41.84375 11.976562 41.761719 C 12.03125 41.683594 12.074219 41.597656 12.113281 41.511719 C 12.148438 41.421875 12.175781 41.332031 12.195312 41.238281 C 12.214844 41.144531 12.222656 41.046875 12.222656 40.949219 C 12.222656 40.855469 12.214844 40.757812 12.195312 40.664062 C 12.175781 40.570312 12.148438 40.480469 12.113281 40.390625 C 12.074219 40.304688 12.03125 40.21875 11.976562 40.136719 C 11.925781 40.058594 11.863281 39.984375 11.796875 39.914062 C 11.726562 39.847656 11.652344 39.785156 11.574219 39.734375 C 11.492188 39.679688 11.410156 39.636719 11.320312 39.597656 C 11.230469 39.5625 11.140625 39.535156 11.046875 39.515625 C 10.859375 39.476562 10.664062 39.476562 10.472656 39.515625 C 10.382812 39.535156 10.289062 39.5625 10.199219 39.597656 C 10.113281 39.636719 10.027344 39.679688 9.949219 39.734375 C 9.867188 39.785156 9.792969 39.847656 9.726562 39.914062 C 9.65625 39.984375 9.597656 40.058594 9.542969 40.136719 C 9.492188 40.21875 9.445312 40.304688 9.410156 40.390625 C 9.371094 40.480469 9.34375 40.570312 9.324219 40.664062 C 9.304688 40.757812 9.296875 40.855469 9.296875 40.949219 C 9.296875 41.046875 9.304688 41.144531 9.324219 41.238281 C 9.34375 41.332031 9.371094 41.421875 9.410156 41.511719 Z M 9.410156 41.511719 " fill-opacity="1" fill-rule="nonzero"/><path fill="#231f20" d="M 18.175781 41.511719 C 18.210938 41.597656 18.257812 41.683594 18.308594 41.765625 C 18.363281 41.84375 18.421875 41.917969 18.492188 41.988281 C 18.558594 42.054688 18.632812 42.113281 18.714844 42.167969 C 18.792969 42.222656 18.875 42.265625 18.964844 42.304688 C 19.054688 42.339844 19.144531 42.367188 19.238281 42.386719 C 19.332031 42.40625 19.429688 42.414062 19.527344 42.414062 C 19.621094 42.414062 19.71875 42.40625 19.8125 42.386719 C 19.90625 42.367188 19.996094 42.339844 20.085938 42.304688 C 20.175781 42.265625 20.257812 42.222656 20.339844 42.167969 C 20.417969 42.113281 20.492188 42.054688 20.5625 41.988281 C 20.628906 41.917969 20.6875 41.84375 20.742188 41.765625 C 20.796875 41.683594 20.839844 41.597656 20.878906 41.511719 C 20.914062 41.421875 20.941406 41.332031 20.960938 41.238281 C 20.980469 41.144531 20.988281 41.046875 20.988281 40.949219 C 20.988281 40.855469 20.980469 40.757812 20.960938 40.664062 C 20.941406 40.570312 20.914062 40.480469 20.878906 40.390625 C 20.839844 40.304688 20.796875 40.21875 20.742188 40.136719 C 20.6875 40.058594 20.628906 39.984375 20.5625 39.914062 C 20.492188 39.847656 20.417969 39.785156 20.339844 39.734375 C 20.257812 39.679688 20.175781 39.636719 20.085938 39.597656 C 19.996094 39.5625 19.90625 39.535156 19.8125 39.515625 C 19.625 39.476562 19.429688 39.476562 19.238281 39.515625 C 19.144531 39.535156 19.054688 39.5625 18.964844 39.597656 C 18.875 39.636719 18.792969 39.679688 18.714844 39.734375 C 18.632812 39.785156 18.558594 39.847656 18.492188 39.914062 C 18.421875 39.984375 18.363281 40.058594 18.308594 40.136719 C 18.257812 40.21875 18.210938 40.304688 18.175781 40.390625 C 18.136719 40.480469 18.109375 40.570312 18.089844 40.664062 C 18.070312 40.757812 18.0625 40.855469 18.0625 40.949219 C 18.0625 41.046875 18.070312 41.144531 18.089844 41.238281 C 18.109375 41.332031 18.136719 41.421875 18.175781 41.511719 Z M 18.175781 41.511719 " fill-opacity="1" fill-rule="nonzero"/><path fill="#231f20" d="M 26.941406 41.511719 C 26.976562 41.597656 27.023438 41.683594 27.074219 41.761719 C 27.128906 41.84375 27.1875 41.917969 27.253906 41.984375 C 27.527344 42.261719 27.90625 42.414062 28.289062 42.414062 C 28.675781 42.414062 29.054688 42.261719 29.328125 41.984375 C 29.394531 41.917969 29.457031 41.84375 29.507812 41.761719 C 29.5625 41.683594 29.605469 41.597656 29.644531 41.511719 C 29.679688 41.421875 29.707031 41.332031 29.726562 41.238281 C 29.746094 41.144531 29.757812 41.046875 29.757812 40.949219 C 29.757812 40.855469 29.746094 40.761719 29.726562 40.664062 C 29.707031 40.570312 29.679688 40.480469 29.644531 40.390625 C 29.605469 40.304688 29.5625 40.21875 29.507812 40.136719 C 29.457031 40.058594 29.394531 39.984375 29.328125 39.914062 C 29.054688 39.644531 28.675781 39.488281 28.289062 39.488281 C 27.90625 39.488281 27.53125 39.644531 27.253906 39.914062 C 27.1875 39.984375 27.128906 40.058594 27.074219 40.136719 C 27.023438 40.21875 26.976562 40.304688 26.941406 40.390625 C 26.902344 40.480469 26.875 40.570312 26.855469 40.664062 C 26.835938 40.761719 26.828125 40.855469 26.828125 40.949219 C 26.828125 41.046875 26.835938 41.144531 26.855469 41.238281 C 26.875 41.332031 26.902344 41.421875 26.941406 41.511719 Z M 26.941406 41.511719 " fill-opacity="1" fill-rule="nonzero"/><path fill="#231f20" d="M 22.128906 52.695312 C 22.128906 52.890625 22.089844 53.078125 22.015625 53.257812 C 21.941406 53.4375 21.835938 53.59375 21.699219 53.734375 C 21.5625 53.871094 21.402344 53.976562 21.222656 54.050781 C 21.042969 54.125 20.855469 54.160156 20.664062 54.160156 C 20.46875 54.160156 20.28125 54.125 20.101562 54.050781 C 19.921875 53.976562 19.765625 53.871094 19.625 53.734375 C 19.488281 53.59375 19.382812 53.4375 19.308594 53.257812 C 19.234375 53.078125 19.199219 52.890625 19.199219 52.695312 C 19.199219 52.503906 19.234375 52.316406 19.308594 52.136719 C 19.382812 51.957031 19.488281 51.796875 19.625 51.660156 C 19.765625 51.523438 19.921875 51.417969 20.101562 51.34375 C 20.28125 51.269531 20.46875 51.230469 20.664062 51.230469 C 20.855469 51.230469 21.042969 51.269531 21.222656 51.34375 C 21.402344 51.417969 21.5625 51.523438 21.699219 51.660156 C 21.835938 51.796875 21.941406 51.957031 22.015625 52.136719 C 22.089844 52.316406 22.128906 52.503906 22.128906 52.695312 Z M 22.128906 52.695312 " fill-opacity="1" fill-rule="nonzero"/><path fill="#231f20" d="M 32.421875 51.210938 L 27.984375 51.210938 C 27.175781 51.210938 26.519531 51.867188 26.519531 52.675781 C 26.519531 53.484375 27.175781 54.136719 27.984375 54.136719 L 30.957031 54.136719 L 30.957031 66.214844 L 8.800781 66.214844 L 8.800781 54.136719 L 13.34375 54.136719 C 14.152344 54.136719 14.808594 53.484375 14.808594 52.675781 C 14.808594 51.867188 14.152344 51.210938 13.34375 51.210938 L 7.339844 51.210938 C 6.53125 51.210938 5.875 51.867188 5.875 52.675781 L 5.875 67.679688 C 5.875 68.488281 6.53125 69.144531 7.339844 69.144531 L 32.421875 69.144531 C 33.230469 69.144531 33.886719 68.488281 33.886719 67.679688 L 33.886719 52.675781 C 33.886719 51.867188 33.230469 51.210938 32.421875 51.210938 Z M 32.421875 51.210938 " fill-opacity="1" fill-rule="nonzero"/></svg>