<svg xmlns="http://www.w3.org/2000/svg" xmlns:xlink="http://www.w3.org/1999/xlink" width="100" zoomAndPan="magnify" viewBox="0 0 75 74.999997" height="100" preserveAspectRatio="xMidYMid meet" version="1.0"><path stroke-linecap="round" transform="matrix(1.171875, 0, 0, 1.171875, 0.0000015, -0.000001)" fill="none" stroke-linejoin="round" d="M 22.100001 59.100006 L 14.8 59.100006 L 14.8 43.300004 C 14.8 42.000004 15.9 41.000004 17.1 41.000004 L 22.100001 41.000004 Z M 22.100001 59.100006 " stroke="#231f20" stroke-width="2" stroke-opacity="1" stroke-miterlimit="10"/><path stroke-linecap="round" transform="matrix(1.171875, 0, 0, 1.171875, 0.0000015, -0.000001)" fill="none" stroke-linejoin="round" d="M 51.000003 51.400005 L 22.000001 51.400005 L 22.000001 37.700004 C 22.000001 35.500004 23.800001 33.800004 25.900001 33.800004 L 47.000003 33.800004 C 49.200003 33.800004 50.900003 35.600004 50.900003 37.700004 L 50.900003 51.400005 Z M 51.000003 51.400005 " stroke="#231f20" stroke-width="2" stroke-opacity="1" stroke-miterlimit="10"/><path stroke-linecap="round" transform="matrix(1.171875, 0, 0, 1.171875, 0.0000015, -0.000001)" fill="none" stroke-linejoin="round" d="M 58.300003 59.100006 L 51.000003 59.100006 L 51.000003 40.900004 L 56.000003 40.900004 C 57.300003 40.900004 58.300003 42.000004 58.300003 43.200004 Z M 58.300003 59.100006 " stroke="#231f20" stroke-width="2" stroke-opacity="1" stroke-miterlimit="10"/><path stroke-linecap="round" transform="matrix(1.171875, 0, 0, 1.171875, 0.0000015, -0.000001)" fill="none" stroke-linejoin="round" d="M 22.100001 51.400005 L 51.100003 51.400005 L 51.100003 59.100006 L 22.100001 59.100006 Z M 22.100001 51.400005 " stroke="#231f20" stroke-width="2" stroke-opacity="1" stroke-miterlimit="10"/><path stroke-linecap="round" transform="matrix(1.171875, 0, 0, 1.171875, 0.0000015, -0.000001)" fill="none" stroke-linejoin="round" d="M 8.999999 59.100006 L 8.999999 28.500003 " stroke="#231f20" stroke-width="2" stroke-opacity="1" stroke-miterlimit="10"/><path stroke-linecap="round" transform="matrix(1.171875, 0, 0, 1.171875, 0.0000015, -0.000001)" fill="none" stroke-linejoin="round" d="M 14.8 28.500003 L 3.299999 28.500003 L 5.699999 16.500002 L 12.4 16.500002 Z M 14.8 28.500003 " stroke="#231f20" stroke-width="2" stroke-opacity="1" stroke-miterlimit="10"/><path stroke-linecap="round" transform="matrix(1.171875, 0, 0, 1.171875, 0.0000015, -0.000001)" fill="none" stroke-linejoin="round" d="M 21.6 10.900002 L 51.400003 10.900002 L 51.400003 24.300003 L 21.6 24.300003 Z M 21.6 10.900002 " stroke="#231f20" stroke-width="2" stroke-opacity="1" stroke-miterlimit="10"/><path stroke-linecap="round" transform="matrix(1.171875, 0, 0, 1.171875, 0.0000015, -0.000001)" fill="none" stroke-linejoin="round" d="M 25.200001 10.900002 L 36.600002 4.900001 L 48.800003 10.900002 " stroke="#231f20" stroke-width="2" stroke-opacity="1" stroke-miterlimit="10"/></svg>