<svg xmlns="http://www.w3.org/2000/svg" xmlns:xlink="http://www.w3.org/1999/xlink" width="100" zoomAndPan="magnify" viewBox="0 0 75 74.999997" height="100" preserveAspectRatio="xMidYMid meet" version="1.0"><path fill="#231f20" d="M 63.832031 52.75 C 63.898438 52.515625 63.933594 52.269531 63.933594 52.015625 L 63.933594 2.734375 C 63.933594 1.226562 62.707031 0 61.199219 0 L 13.800781 0 C 12.292969 0 11.066406 1.226562 11.066406 2.734375 L 11.066406 36.359375 C 11.066406 36.964844 11.558594 37.457031 12.164062 37.457031 C 12.769531 37.457031 13.261719 36.964844 13.261719 36.359375 L 13.261719 2.734375 C 13.261719 2.4375 13.503906 2.195312 13.800781 2.195312 L 61.199219 2.195312 C 61.496094 2.195312 61.738281 2.4375 61.738281 2.734375 L 61.738281 52.015625 C 61.738281 52.3125 61.496094 52.550781 61.199219 52.550781 L 51.089844 52.550781 C 51.097656 52.476562 51.101562 52.402344 51.101562 52.328125 L 51.101562 45.117188 C 51.101562 44.367188 50.910156 43.625 50.546875 42.96875 C 49.765625 41.566406 48.285156 40.695312 46.679688 40.695312 L 46.65625 40.695312 L 46.65625 37.953125 L 48.003906 37.953125 C 48.609375 37.953125 49.101562 37.464844 49.101562 36.855469 C 49.101562 36.25 48.609375 35.757812 48.003906 35.757812 L 42.210938 35.757812 C 41.773438 35.757812 41.382812 36.015625 41.207031 36.414062 L 40.621094 37.742188 C 40.375 38.296875 40.625 38.945312 41.179688 39.1875 C 41.324219 39.253906 41.476562 39.28125 41.625 39.28125 C 42.046875 39.28125 42.449219 39.039062 42.628906 38.628906 L 42.925781 37.953125 L 44.460938 37.953125 L 44.460938 40.695312 L 44.4375 40.695312 C 42.832031 40.695312 41.351562 41.566406 40.574219 42.96875 C 40.207031 43.625 40.015625 44.367188 40.015625 45.117188 L 40.015625 52.328125 C 40.015625 52.402344 40.019531 52.476562 40.027344 52.550781 L 13.800781 52.550781 C 13.503906 52.550781 13.261719 52.3125 13.261719 52.015625 L 13.261719 41.039062 C 13.261719 40.433594 12.769531 39.941406 12.164062 39.941406 C 11.558594 39.941406 11.066406 40.433594 11.066406 41.039062 L 11.066406 52.015625 C 11.066406 52.269531 11.101562 52.515625 11.167969 52.75 C 10.199219 53.144531 9.515625 54.09375 9.515625 55.199219 L 9.515625 56.84375 C 9.515625 58.273438 10.660156 59.441406 12.082031 59.484375 L 12.082031 65.734375 C 12.082031 70.84375 16.238281 75 21.347656 75 L 53.796875 75 C 58.90625 75 63.066406 70.84375 63.066406 65.734375 L 63.066406 59.476562 C 64.417969 59.363281 65.484375 58.226562 65.484375 56.84375 L 65.484375 55.199219 C 65.484375 54.09375 64.800781 53.144531 63.832031 52.75 Z M 42.214844 52.328125 L 42.214844 45.117188 C 42.214844 44.742188 42.308594 44.367188 42.492188 44.039062 C 42.886719 43.332031 43.628906 42.894531 44.4375 42.894531 L 46.679688 42.894531 C 47.488281 42.894531 48.234375 43.332031 48.625 44.039062 C 48.808594 44.367188 48.90625 44.742188 48.90625 45.117188 L 48.90625 52.328125 C 48.90625 52.453125 48.804688 52.550781 48.683594 52.550781 L 42.4375 52.550781 C 42.3125 52.550781 42.214844 52.453125 42.214844 52.328125 Z M 63.285156 56.84375 C 63.285156 57.089844 63.085938 57.292969 62.835938 57.292969 L 57.140625 57.292969 C 56.535156 57.292969 56.042969 57.785156 56.042969 58.390625 C 56.042969 58.996094 56.535156 59.488281 57.140625 59.488281 L 60.867188 59.488281 L 60.867188 65.734375 C 60.867188 69.632812 57.695312 72.804688 53.796875 72.804688 L 21.347656 72.804688 C 17.449219 72.804688 14.277344 69.632812 14.277344 65.734375 L 14.277344 59.488281 L 52.460938 59.488281 C 53.066406 59.488281 53.558594 58.996094 53.558594 58.390625 C 53.558594 57.785156 53.066406 57.292969 52.460938 57.292969 L 12.164062 57.292969 C 11.914062 57.292969 11.714844 57.089844 11.714844 56.84375 L 11.714844 55.199219 C 11.714844 54.949219 11.914062 54.75 12.164062 54.75 L 62.835938 54.75 C 63.085938 54.75 63.285156 54.949219 63.285156 55.199219 Z M 63.285156 56.84375 " fill-opacity="1" fill-rule="nonzero"/><path fill="#231f20" d="M 48.625 6.589844 C 49.230469 6.589844 49.722656 6.097656 49.722656 5.492188 C 49.722656 4.882812 49.230469 4.394531 48.625 4.394531 L 16.558594 4.394531 C 15.949219 4.394531 15.457031 4.882812 15.457031 5.492188 L 15.457031 49.257812 C 15.457031 49.863281 15.949219 50.355469 16.558594 50.355469 L 36.722656 50.355469 C 37.328125 50.355469 37.820312 49.863281 37.820312 49.257812 C 37.820312 48.652344 37.328125 48.160156 36.722656 48.160156 L 17.65625 48.160156 L 17.65625 6.589844 Z M 48.625 6.589844 " fill-opacity="1" fill-rule="nonzero"/><path fill="#231f20" d="M 54.398438 48.160156 C 53.789062 48.160156 53.300781 48.652344 53.300781 49.257812 C 53.300781 49.863281 53.789062 50.355469 54.398438 50.355469 L 58.441406 50.355469 C 59.050781 50.355469 59.542969 49.863281 59.542969 49.257812 L 59.542969 5.492188 C 59.542969 4.882812 59.050781 4.394531 58.441406 4.394531 L 53.304688 4.394531 C 52.699219 4.394531 52.207031 4.882812 52.207031 5.492188 C 52.207031 6.097656 52.699219 6.589844 53.304688 6.589844 L 57.34375 6.589844 L 57.34375 48.160156 Z M 54.398438 48.160156 " fill-opacity="1" fill-rule="nonzero"/></svg>