<svg xmlns="http://www.w3.org/2000/svg" xmlns:xlink="http://www.w3.org/1999/xlink" width="100" zoomAndPan="magnify" viewBox="0 0 75 74.999997" height="100" preserveAspectRatio="xMidYMid meet" version="1.0"><path fill="#231f20" d="M 54.175781 49.90625 C 54.15625 49.8125 54.128906 49.722656 54.089844 49.632812 C 54.054688 49.542969 54.007812 49.457031 53.957031 49.378906 C 53.902344 49.300781 53.839844 49.222656 53.773438 49.15625 C 53.707031 49.089844 53.628906 49.027344 53.550781 48.976562 C 53.472656 48.921875 53.386719 48.878906 53.296875 48.839844 C 53.207031 48.804688 53.117188 48.777344 53.023438 48.757812 C 52.835938 48.71875 52.640625 48.71875 52.453125 48.757812 C 52.359375 48.777344 52.265625 48.804688 52.175781 48.839844 C 52.089844 48.878906 52.003906 48.921875 51.925781 48.976562 C 51.84375 49.027344 51.769531 49.089844 51.703125 49.15625 C 51.632812 49.222656 51.574219 49.300781 51.519531 49.378906 C 51.46875 49.457031 51.421875 49.542969 51.386719 49.632812 C 51.347656 49.722656 51.320312 49.8125 51.300781 49.90625 C 51.28125 50 51.273438 50.097656 51.273438 50.191406 C 51.273438 50.289062 51.28125 50.382812 51.300781 50.480469 C 51.320312 50.574219 51.347656 50.664062 51.386719 50.753906 C 51.421875 50.839844 51.46875 50.925781 51.519531 51.003906 C 51.574219 51.085938 51.632812 51.160156 51.703125 51.226562 C 51.769531 51.296875 51.84375 51.355469 51.925781 51.410156 C 52.003906 51.464844 52.089844 51.507812 52.175781 51.546875 C 52.265625 51.582031 52.359375 51.609375 52.453125 51.628906 C 52.546875 51.648438 52.640625 51.65625 52.738281 51.65625 C 52.832031 51.65625 52.929688 51.648438 53.023438 51.628906 C 53.117188 51.609375 53.207031 51.582031 53.296875 51.546875 C 53.386719 51.507812 53.472656 51.464844 53.550781 51.410156 C 53.628906 51.355469 53.707031 51.296875 53.773438 51.226562 C 54.046875 50.957031 54.203125 50.578125 54.203125 50.191406 C 54.203125 50.097656 54.195312 50 54.175781 49.90625 Z M 54.175781 49.90625 " fill-opacity="1" fill-rule="nonzero"/><path fill="#231f20" d="M 68.476562 27.644531 L 64.613281 27.644531 L 64.613281 24.667969 C 64.613281 23.859375 63.957031 23.203125 63.148438 23.203125 L 42.328125 23.203125 C 41.515625 23.203125 40.863281 23.859375 40.863281 24.667969 L 40.863281 27.644531 L 29.65625 27.644531 C 30.175781 26.410156 30.460938 24.949219 30.460938 23.398438 C 30.460938 21.886719 30.179688 20.453125 29.679688 19.242188 L 36.097656 19.242188 C 36.554688 19.242188 36.988281 19.03125 37.261719 18.667969 C 37.539062 18.304688 37.632812 17.832031 37.511719 17.390625 L 33.019531 1.074219 C 32.84375 0.441406 32.265625 0 31.609375 0 L 16.144531 0 C 15.488281 0 14.910156 0.441406 14.734375 1.074219 L 10.242188 17.390625 C 10.121094 17.832031 10.214844 18.304688 10.492188 18.667969 C 10.769531 19.03125 11.199219 19.242188 11.65625 19.242188 L 18.074219 19.242188 C 17.574219 20.453125 17.292969 21.886719 17.292969 23.398438 C 17.292969 24.949219 17.578125 26.410156 18.097656 27.644531 L 6.523438 27.644531 C 5.714844 27.644531 5.058594 28.300781 5.058594 29.109375 L 5.058594 37.113281 C 5.058594 37.921875 5.714844 38.578125 6.523438 38.578125 L 8.804688 38.578125 L 8.804688 73.535156 C 8.804688 74.34375 9.460938 75 10.269531 75 L 16.738281 75 C 17.546875 75 18.203125 74.34375 18.203125 73.535156 L 18.203125 65.675781 L 56.796875 65.675781 L 56.796875 73.535156 C 56.796875 74.34375 57.453125 75 58.261719 75 L 64.730469 75 C 65.539062 75 66.195312 74.34375 66.195312 73.535156 L 66.195312 38.578125 L 68.476562 38.578125 C 69.285156 38.578125 69.941406 37.921875 69.941406 37.113281 L 69.941406 29.109375 C 69.941406 28.300781 69.285156 27.644531 68.476562 27.644531 Z M 43.792969 26.132812 L 61.683594 26.132812 L 61.683594 27.644531 L 43.792969 27.644531 Z M 13.578125 16.3125 L 17.261719 2.929688 L 30.492188 2.929688 L 34.175781 16.3125 Z M 27.53125 23.398438 C 27.53125 25.113281 27.058594 26.710938 26.296875 27.644531 L 21.457031 27.644531 C 20.695312 26.710938 20.222656 25.113281 20.222656 23.398438 C 20.222656 21.472656 20.789062 20.007812 21.429688 19.242188 L 26.324219 19.242188 C 26.964844 20.007812 27.53125 21.472656 27.53125 23.398438 Z M 15.273438 72.070312 L 11.734375 72.070312 L 11.734375 38.578125 L 15.273438 38.578125 Z M 56.796875 62.746094 L 18.203125 62.746094 L 18.203125 51.65625 L 47 51.65625 C 47.808594 51.65625 48.464844 51.003906 48.464844 50.191406 C 48.464844 49.382812 47.808594 48.726562 47 48.726562 L 18.203125 48.726562 L 18.203125 38.578125 L 56.796875 38.578125 Z M 63.265625 72.070312 L 59.726562 72.070312 L 59.726562 38.578125 L 63.265625 38.578125 Z M 67.011719 35.648438 L 7.988281 35.648438 L 7.988281 30.574219 L 67.011719 30.574219 Z M 67.011719 35.648438 " fill-opacity="1" fill-rule="nonzero"/><path fill="#231f20" d="M 42.945312 53.222656 L 32.054688 53.222656 C 31.246094 53.222656 30.589844 53.878906 30.589844 54.6875 L 30.589844 59.042969 C 30.589844 59.855469 31.246094 60.507812 32.054688 60.507812 L 42.945312 60.507812 C 43.753906 60.507812 44.410156 59.855469 44.410156 59.042969 L 44.410156 54.6875 C 44.410156 53.878906 43.753906 53.222656 42.945312 53.222656 Z M 41.480469 57.578125 L 33.519531 57.578125 L 33.519531 56.152344 L 41.480469 56.152344 Z M 41.480469 57.578125 " fill-opacity="1" fill-rule="nonzero"/><path fill="#231f20" d="M 42.945312 39.730469 L 32.054688 39.730469 C 31.246094 39.730469 30.589844 40.386719 30.589844 41.195312 L 30.589844 45.550781 C 30.589844 46.359375 31.246094 47.015625 32.054688 47.015625 L 42.945312 47.015625 C 43.753906 47.015625 44.410156 46.359375 44.410156 45.550781 L 44.410156 41.195312 C 44.410156 40.386719 43.753906 39.730469 42.945312 39.730469 Z M 41.480469 44.085938 L 33.519531 44.085938 L 33.519531 42.660156 L 41.480469 42.660156 Z M 41.480469 44.085938 " fill-opacity="1" fill-rule="nonzero"/></svg>