<svg xmlns="http://www.w3.org/2000/svg" xmlns:xlink="http://www.w3.org/1999/xlink" width="100" zoomAndPan="magnify" viewBox="0 0 75 74.999997" height="100" preserveAspectRatio="xMidYMid meet" version="1.0"><path fill="#231f20" d="M 67.863281 32.550781 C 67.863281 29.316406 65.234375 26.6875 62 26.6875 C 58.765625 26.6875 56.132812 29.316406 56.132812 32.550781 C 56.132812 35.785156 58.765625 38.417969 62 38.417969 C 63.066406 38.417969 64.066406 38.128906 64.929688 37.628906 L 64.929688 40.5 C 64.929688 43.152344 62.773438 45.308594 60.125 45.308594 L 56.5625 45.308594 L 56.5625 43.839844 C 56.5625 41.460938 55.746094 39.273438 54.382812 37.53125 L 54.382812 13.058594 C 54.382812 5.859375 48.523438 0 41.324219 0 L 33.675781 0 C 26.476562 0 20.617188 5.859375 20.617188 13.058594 L 20.617188 37.53125 C 19.253906 39.273438 18.4375 41.460938 18.4375 43.839844 L 18.4375 45.308594 L 14.875 45.308594 C 12.226562 45.308594 10.070312 43.152344 10.070312 40.5 L 10.070312 37.628906 C 10.933594 38.128906 11.933594 38.417969 13 38.417969 C 16.234375 38.417969 18.867188 35.785156 18.867188 32.550781 C 18.867188 29.316406 16.234375 26.6875 13 26.6875 C 9.765625 26.6875 7.136719 29.316406 7.136719 32.550781 L 7.136719 40.5 C 7.136719 44.769531 10.609375 48.242188 14.875 48.242188 L 18.675781 48.242188 C 19.265625 49.945312 20.886719 51.171875 22.789062 51.171875 L 33.101562 51.171875 L 33.101562 54.042969 L 28.796875 54.042969 C 27.988281 54.042969 27.332031 54.699219 27.332031 55.507812 C 27.332031 56.316406 27.988281 56.972656 28.796875 56.972656 L 33.101562 56.972656 L 33.101562 61.4375 L 24.671875 61.4375 C 21.664062 61.4375 19.148438 63.574219 18.566406 66.410156 C 16.792969 66.980469 15.507812 68.640625 15.507812 70.601562 C 15.507812 73.027344 17.480469 75 19.90625 75 C 22.332031 75 24.304688 73.027344 24.304688 70.601562 C 24.304688 70.476562 24.296875 70.355469 24.285156 70.234375 L 33.117188 70.234375 C 33.109375 70.355469 33.101562 70.476562 33.101562 70.601562 C 33.101562 73.027344 35.074219 75 37.5 75 C 39.925781 75 41.898438 73.027344 41.898438 70.601562 C 41.898438 70.476562 41.890625 70.355469 41.882812 70.234375 L 50.714844 70.234375 C 50.703125 70.355469 50.695312 70.476562 50.695312 70.601562 C 50.695312 73.027344 52.671875 75 55.09375 75 C 57.519531 75 59.496094 73.027344 59.496094 70.601562 C 59.496094 68.640625 58.207031 66.980469 56.433594 66.410156 C 55.851562 63.574219 53.335938 61.4375 50.328125 61.4375 L 41.898438 61.4375 L 41.898438 51.171875 L 52.210938 51.171875 C 54.113281 51.171875 55.734375 49.945312 56.324219 48.242188 L 60.125 48.242188 C 64.390625 48.242188 67.863281 44.769531 67.863281 40.5 L 67.863281 33.578125 C 67.863281 33.460938 67.847656 33.347656 67.824219 33.238281 C 67.847656 33.011719 67.863281 32.785156 67.863281 32.550781 Z M 13 29.617188 C 14.617188 29.617188 15.933594 30.933594 15.933594 32.550781 C 15.933594 34.167969 14.617188 35.484375 13 35.484375 C 11.382812 35.484375 10.070312 34.167969 10.070312 32.550781 C 10.070312 30.933594 11.382812 29.617188 13 29.617188 Z M 33.675781 2.933594 L 41.324219 2.933594 C 46.90625 2.933594 51.449219 7.476562 51.449219 13.058594 L 51.449219 34.96875 C 49.933594 34.085938 48.175781 33.578125 46.296875 33.578125 L 28.703125 33.578125 C 26.824219 33.578125 25.066406 34.085938 23.550781 34.96875 L 23.550781 13.058594 C 23.550781 7.476562 28.09375 2.933594 33.675781 2.933594 Z M 19.90625 72.066406 C 19.097656 72.066406 18.4375 71.410156 18.4375 70.601562 C 18.4375 69.792969 19.097656 69.136719 19.90625 69.136719 C 20.714844 69.136719 21.371094 69.792969 21.371094 70.601562 C 21.371094 71.410156 20.714844 72.066406 19.90625 72.066406 Z M 37.5 72.066406 C 36.691406 72.066406 36.035156 71.410156 36.035156 70.601562 C 36.035156 69.792969 36.691406 69.136719 37.5 69.136719 C 38.308594 69.136719 38.964844 69.792969 38.964844 70.601562 C 38.964844 71.410156 38.308594 72.066406 37.5 72.066406 Z M 55.09375 72.066406 C 54.285156 72.066406 53.628906 71.410156 53.628906 70.601562 C 53.628906 69.792969 54.285156 69.136719 55.09375 69.136719 C 55.902344 69.136719 56.5625 69.792969 56.5625 70.601562 C 56.5625 71.410156 55.902344 72.066406 55.09375 72.066406 Z M 53.425781 66.53125 C 52.972656 66.71875 52.554688 66.980469 52.191406 67.300781 L 40.40625 67.300781 C 39.628906 66.617188 38.613281 66.203125 37.5 66.203125 C 36.386719 66.203125 35.371094 66.617188 34.59375 67.300781 L 22.808594 67.300781 C 22.445312 66.980469 22.027344 66.71875 21.574219 66.53125 C 22.039062 65.269531 23.25 64.371094 24.671875 64.371094 L 50.332031 64.371094 C 51.75 64.371094 52.964844 65.269531 53.425781 66.53125 Z M 38.964844 61.4375 L 36.035156 61.4375 L 36.035156 51.171875 L 38.964844 51.171875 Z M 53.628906 46.824219 C 53.628906 47.605469 52.992188 48.242188 52.210938 48.242188 L 22.789062 48.242188 C 22.007812 48.242188 21.371094 47.605469 21.371094 46.824219 L 21.371094 45.308594 L 35.695312 45.308594 C 36.507812 45.308594 37.164062 44.652344 37.164062 43.839844 C 37.164062 43.03125 36.507812 42.375 35.695312 42.375 L 21.519531 42.375 C 22.199219 39.03125 25.160156 36.511719 28.703125 36.511719 L 46.296875 36.511719 C 49.839844 36.511719 52.800781 39.03125 53.480469 42.375 L 50.359375 42.375 C 49.550781 42.375 48.894531 43.03125 48.894531 43.839844 C 48.894531 44.652344 49.550781 45.308594 50.359375 45.308594 L 53.628906 45.308594 Z M 62 35.484375 C 60.382812 35.484375 59.066406 34.167969 59.066406 32.550781 C 59.066406 30.933594 60.382812 29.617188 62 29.617188 C 63.617188 29.617188 64.929688 30.933594 64.929688 32.550781 C 64.929688 34.167969 63.617188 35.484375 62 35.484375 Z M 62 35.484375 " fill-opacity="1" fill-rule="nonzero"/><path fill="#231f20" d="M 44.496094 43.839844 C 44.496094 44.035156 44.457031 44.222656 44.382812 44.402344 C 44.308594 44.582031 44.203125 44.742188 44.066406 44.878906 C 43.925781 45.015625 43.769531 45.121094 43.589844 45.195312 C 43.410156 45.269531 43.222656 45.308594 43.027344 45.308594 C 42.832031 45.308594 42.644531 45.269531 42.464844 45.195312 C 42.285156 45.121094 42.128906 45.015625 41.988281 44.878906 C 41.851562 44.742188 41.746094 44.582031 41.671875 44.402344 C 41.597656 44.222656 41.5625 44.035156 41.5625 43.839844 C 41.5625 43.648438 41.597656 43.460938 41.671875 43.28125 C 41.746094 43.101562 41.851562 42.941406 41.988281 42.804688 C 42.128906 42.667969 42.285156 42.5625 42.464844 42.484375 C 42.644531 42.410156 42.832031 42.375 43.027344 42.375 C 43.222656 42.375 43.410156 42.410156 43.589844 42.484375 C 43.769531 42.5625 43.925781 42.667969 44.066406 42.804688 C 44.203125 42.941406 44.308594 43.101562 44.382812 43.28125 C 44.457031 43.460938 44.496094 43.648438 44.496094 43.839844 Z M 44.496094 43.839844 " fill-opacity="1" fill-rule="nonzero"/></svg>