<svg xmlns="http://www.w3.org/2000/svg" xmlns:xlink="http://www.w3.org/1999/xlink" width="100" zoomAndPan="magnify" viewBox="0 0 75 74.999997" height="100" preserveAspectRatio="xMidYMid meet" version="1.0"><path stroke-linecap="round" transform="matrix(1.171875, 0, 0, 1.171875, 0.0000015, -0.000001)" fill="none" stroke-linejoin="round" d="M 28.300001 38.500004 L 31.300001 38.500004 C 32.400001 38.500004 33.300001 37.600004 33.300001 36.500004 L 34.300002 18.300002 C 34.300002 16.800002 33.100001 15.500002 31.500001 15.500002 L 20.4 15.500002 C 18.9 15.500002 17.6 16.700002 17.6 18.300002 L 18.6 36.500004 C 18.6 37.600004 19.5 38.500004 20.6 38.500004 L 24.400001 38.500004 " stroke="#231f20" stroke-width="2" stroke-opacity="1" stroke-miterlimit="10"/><path stroke-linecap="round" transform="matrix(1.171875, 0, 0, 1.171875, 0.0000015, -0.000001)" fill="none" stroke-linejoin="round" d="M 18.1 26.700003 L 7.899999 26.700003 L 7.899999 58.000006 L 3.499999 58.000006 L 3.499999 22.300003 L 17.9 22.300003 Z M 18.1 26.700003 " stroke="#231f20" stroke-width="2" stroke-opacity="1" stroke-miterlimit="10"/><path stroke-linecap="round" transform="matrix(1.171875, 0, 0, 1.171875, 0.0000015, -0.000001)" fill="none" stroke-linejoin="round" d="M 60.500004 26.700003 L 33.900001 26.700003 L 34.200002 22.300003 L 60.500004 22.300003 Z M 60.500004 26.700003 " stroke="#231f20" stroke-width="2" stroke-opacity="1" stroke-miterlimit="10"/><path stroke-linecap="round" transform="matrix(1.171875, 0, 0, 1.171875, 0.0000015, -0.000001)" fill="none" stroke-linejoin="round" d="M 44.500002 26.700003 L 60.500004 26.700003 L 60.500004 35.000004 L 44.500002 35.000004 Z M 44.500002 26.700003 " stroke="#231f20" stroke-width="2" stroke-opacity="1" stroke-miterlimit="10"/><path stroke-linecap="round" transform="matrix(1.171875, 0, 0, 1.171875, 0.0000015, -0.000001)" fill="none" stroke-linejoin="round" d="M 44.500002 35.000004 L 60.500004 35.000004 L 60.500004 58.000006 L 44.500002 58.000006 Z M 44.500002 35.000004 " stroke="#231f20" stroke-width="2" stroke-opacity="1" stroke-miterlimit="10"/><path stroke-linecap="round" transform="matrix(1.171875, 0, 0, 1.171875, 0.0000015, -0.000001)" fill="none" stroke-linejoin="round" d="M 33.200001 45.800005 L 18.9 45.800005 C 17.9 45.800005 17.1 45.000005 17.1 44.000004 L 17.1 43.400004 C 17.1 42.400004 17.9 41.600004 18.9 41.600004 L 33.200001 41.600004 C 34.200002 41.600004 35.000002 42.400004 35.000002 43.400004 L 35.000002 44.000004 C 35.000002 45.000005 34.200002 45.800005 33.200001 45.800005 Z M 33.200001 45.800005 " stroke="#231f20" stroke-width="2" stroke-opacity="1" stroke-miterlimit="10"/><path stroke-linecap="round" transform="matrix(1.171875, 0, 0, 1.171875, 0.0000015, -0.000001)" fill="none" stroke-linejoin="round" d="M 17.1 43.300004 C 17.1 43.300004 13.3 42.900004 13.3 36.800004 " stroke="#231f20" stroke-width="2" stroke-opacity="1" stroke-miterlimit="10"/><path stroke-linecap="round" transform="matrix(1.171875, 0, 0, 1.171875, 0.0000015, -0.000001)" fill="none" stroke-linejoin="round" d="M 14.7 36.800004 L 12 36.800004 C 11.5 36.800004 11.1 36.400004 11.1 35.900004 L 11.1 35.000004 C 11.1 34.500004 11.5 34.100004 12 34.100004 L 14.7 34.100004 C 15.2 34.100004 15.6 34.500004 15.6 35.000004 L 15.6 36.000004 C 15.5 36.500004 15.2 36.800004 14.7 36.800004 Z M 14.7 36.800004 " stroke="#231f20" stroke-width="2" stroke-opacity="1" stroke-miterlimit="10"/><path stroke-linecap="round" transform="matrix(1.171875, 0, 0, 1.171875, 0.0000015, -0.000001)" fill="none" stroke-linejoin="round" d="M 35.000002 43.300004 C 35.000002 43.300004 38.800002 42.900004 38.800002 36.800004 " stroke="#231f20" stroke-width="2" stroke-opacity="1" stroke-miterlimit="10"/><path stroke-linecap="round" transform="matrix(1.171875, 0, 0, 1.171875, 0.0000015, -0.000001)" fill="none" stroke-linejoin="round" d="M 37.400002 36.800004 L 40.100002 36.800004 C 40.600002 36.800004 41.000002 36.400004 41.000002 35.900004 L 41.000002 35.000004 C 41.000002 34.500004 40.600002 34.100004 40.100002 34.100004 L 37.400002 34.100004 C 36.900002 34.100004 36.500002 34.500004 36.500002 35.000004 L 36.500002 36.000004 C 36.500002 36.500004 36.900002 36.800004 37.400002 36.800004 Z M 37.400002 36.800004 " stroke="#231f20" stroke-width="2" stroke-opacity="1" stroke-miterlimit="10"/><path stroke-linecap="round" transform="matrix(1.171875, 0, 0, 1.171875, 0.0000015, -0.000001)" fill="none" stroke-linejoin="round" d="M 28.300001 41.600004 L 24.500001 41.600004 L 24.500001 36.700004 C 24.500001 36.300004 24.900001 35.900004 25.300001 35.900004 L 27.500001 35.900004 C 27.900001 35.900004 28.300001 36.300004 28.300001 36.700004 Z M 28.300001 41.600004 " stroke="#231f20" stroke-width="2" stroke-opacity="1" stroke-miterlimit="10"/><path stroke-linecap="round" transform="matrix(1.171875, 0, 0, 1.171875, 0.0000015, -0.000001)" fill="none" stroke-linejoin="round" d="M 25.100001 45.800005 L 27.800001 45.800005 L 27.800001 54.700005 L 25.100001 54.700005 Z M 25.100001 45.800005 " stroke="#231f20" stroke-width="2" stroke-opacity="1" stroke-miterlimit="10"/><path stroke-linecap="round" transform="matrix(1.171875, 0, 0, 1.171875, 0.0000015, -0.000001)" fill="none" stroke-linejoin="round" d="M 19.3 58.000006 L 19.3 57.100006 C 19.3 55.800005 20.4 54.700005 21.7 54.700005 L 31.200001 54.700005 C 32.500001 54.700005 33.600001 55.800005 33.600001 57.100006 L 33.600001 58.000006 " stroke="#231f20" stroke-width="2" stroke-opacity="1" stroke-miterlimit="10"/><path stroke-linecap="round" transform="matrix(1.171875, 0, 0, 1.171875, 0.0000015, -0.000001)" fill="none" stroke-linejoin="round" d="M 26.400001 54.700005 L 26.400001 58.000006 " stroke="#231f20" stroke-width="2" stroke-opacity="1" stroke-miterlimit="10"/><path stroke-linecap="round" transform="matrix(1.171875, 0, 0, 1.171875, 0.0000015, -0.000001)" fill="none" stroke-linejoin="round" d="M 45.000002 18.200002 L 58.600004 18.200002 L 58.600004 22.300003 L 45.000002 22.300003 Z M 45.000002 18.200002 " stroke="#231f20" stroke-width="2" stroke-opacity="1" stroke-miterlimit="10"/><path stroke-linecap="round" transform="matrix(1.171875, 0, 0, 1.171875, 0.0000015, -0.000001)" fill="none" stroke-linejoin="round" d="M 43.400002 14.100002 L 57.000003 14.100002 L 57.000003 18.200002 L 43.400002 18.200002 Z M 43.400002 14.100002 " stroke="#231f20" stroke-width="2" stroke-opacity="1" stroke-miterlimit="10"/><path stroke-linecap="round" transform="matrix(1.171875, 0, 0, 1.171875, 0.0000015, -0.000001)" fill="none" stroke-linejoin="round" d="M 45.000002 10.100002 L 58.600004 10.100002 L 58.600004 14.200002 L 45.000002 14.200002 Z M 45.000002 10.100002 " stroke="#231f20" stroke-width="2" stroke-opacity="1" stroke-miterlimit="10"/><path stroke-linecap="round" transform="matrix(1.171875, 0, 0, 1.171875, 0.0000015, -0.000001)" fill="none" stroke-linejoin="round" d="M 43.400002 6.000001 L 57.000003 6.000001 L 57.000003 10.100002 L 43.400002 10.100002 Z M 43.400002 6.000001 " stroke="#231f20" stroke-width="2" stroke-opacity="1" stroke-miterlimit="10"/><path stroke-linecap="round" transform="matrix(-0.000000000000000215, 1.171875, -1.171875, -0.000000000000000215, 33.398554, 4.120545)" fill="none" stroke-linejoin="round" d="M 6.200468 14.0001 L 18.700469 14.0001 L 18.700469 18.100101 L 6.200468 18.100101 Z M 6.200468 14.0001 " stroke="#231f20" stroke-width="2" stroke-opacity="1" stroke-miterlimit="10"/><path stroke-linecap="round" transform="matrix(-0.000000000000000215, 1.171875, -1.171875, -0.000000000000000215, 28.634648, 8.884451)" fill="none" stroke-linejoin="round" d="M 2.198602 14.001567 L 14.698603 14.001567 L 14.698603 18.101567 L 2.198602 18.101567 Z M 2.198602 14.001567 " stroke="#231f20" stroke-width="2" stroke-opacity="1" stroke-miterlimit="10"/></svg>