<svg xmlns="http://www.w3.org/2000/svg" xmlns:xlink="http://www.w3.org/1999/xlink" width="100" zoomAndPan="magnify" viewBox="0 0 75 74.999997" height="100" preserveAspectRatio="xMidYMid meet" version="1.0"><path fill="#231f20" d="M 65.792969 41.386719 L 41.039062 41.386719 L 41.039062 22.941406 C 42.621094 22.53125 44.367188 22.160156 45.5 22.160156 C 47.859375 22.160156 50.042969 22.734375 51.335938 23.691406 C 51.765625 24.007812 52.351562 24.007812 52.78125 23.691406 C 54.074219 22.734375 56.257812 22.160156 58.621094 22.160156 C 60.980469 22.160156 63.164062 22.734375 64.460938 23.691406 C 65.011719 24.101562 65.902344 23.996094 66.3125 23.441406 C 66.542969 23.136719 66.613281 22.742188 66.503906 22.375 C 66.453125 22.191406 65.140625 17.863281 60.890625 13.527344 C 57.382812 9.945312 51.179688 5.75 41.039062 4.957031 L 41.039062 3.539062 C 41.039062 1.589844 39.453125 0 37.5 0 C 35.546875 0 33.960938 1.589844 33.960938 3.539062 L 33.960938 4.96875 C 28.132812 5.4375 23.039062 7.070312 18.777344 9.84375 C 18.21875 10.207031 18.058594 10.960938 18.421875 11.519531 C 18.789062 12.082031 19.539062 12.242188 20.101562 11.875 C 24.273438 9.164062 29.355469 7.632812 35.230469 7.3125 C 35.230469 7.3125 35.234375 7.3125 35.238281 7.3125 C 35.25 7.3125 35.265625 7.3125 35.277344 7.3125 C 36.039062 7.269531 36.804688 7.25 37.570312 7.25 C 37.574219 7.25 37.578125 7.25 37.582031 7.25 C 38.308594 7.25 39.039062 7.269531 39.765625 7.304688 C 39.769531 7.304688 39.777344 7.304688 39.78125 7.304688 C 47.832031 7.707031 54.3125 10.332031 59.070312 15.136719 C 60.910156 16.996094 62.15625 18.875 62.953125 20.332031 C 61.648438 19.945312 60.167969 19.734375 58.617188 19.734375 C 56.09375 19.734375 53.757812 20.289062 52.058594 21.269531 C 50.359375 20.289062 48.023438 19.734375 45.496094 19.734375 C 43.03125 19.734375 38.800781 21.023438 37.5 21.441406 C 36.199219 21.023438 31.96875 19.734375 29.5 19.734375 C 26.976562 19.734375 24.640625 20.289062 22.941406 21.269531 C 21.242188 20.289062 18.90625 19.734375 16.378906 19.734375 C 14.90625 19.734375 13.496094 19.925781 12.238281 20.277344 C 13.09375 18.726562 14.445312 16.722656 16.46875 14.765625 C 16.953125 14.300781 16.964844 13.53125 16.5 13.050781 C 16.035156 12.566406 15.265625 12.554688 14.785156 13.019531 C 10.128906 17.515625 8.714844 22.175781 8.65625 22.375 C 8.507812 22.875 8.695312 23.414062 9.125 23.710938 C 9.535156 24 10.125 24 10.539062 23.691406 C 11.835938 22.734375 14.019531 22.164062 16.378906 22.164062 C 18.742188 22.164062 20.921875 22.734375 22.21875 23.691406 C 22.648438 24.007812 23.234375 24.007812 23.664062 23.691406 C 24.957031 22.734375 27.140625 22.164062 29.5 22.164062 C 30.628906 22.164062 32.375 22.53125 33.960938 22.941406 L 33.960938 41.386719 L 20.570312 41.386719 C 19.902344 41.386719 19.359375 41.929688 19.359375 42.601562 C 19.359375 43.273438 19.902344 43.816406 20.570312 43.816406 L 64.582031 43.816406 L 64.582031 49.351562 L 10.417969 49.351562 L 10.417969 43.816406 L 15.71875 43.816406 C 16.390625 43.816406 16.933594 43.273438 16.933594 42.601562 C 16.933594 41.929688 16.390625 41.386719 15.71875 41.386719 L 9.207031 41.386719 C 8.535156 41.386719 7.992188 41.929688 7.992188 42.601562 L 7.992188 50.5625 C 7.992188 51.234375 8.535156 51.777344 9.207031 51.777344 L 17.269531 51.777344 C 17.269531 51.777344 9.527344 73.363281 9.523438 73.378906 C 9.246094 74.15625 9.839844 75 10.664062 75 L 19.238281 75 C 19.753906 75 20.210938 74.675781 20.382812 74.191406 L 22.28125 68.796875 L 52.71875 68.796875 L 54.617188 74.191406 C 54.789062 74.675781 55.246094 75 55.761719 75 C 55.761719 75 64.328125 75 64.335938 75 C 65.160156 75 65.753906 74.152344 65.476562 73.378906 L 57.730469 51.777344 L 65.792969 51.777344 C 66.464844 51.777344 67.007812 51.234375 67.007812 50.5625 L 67.007812 42.601562 C 67.007812 41.929688 66.464844 41.386719 65.792969 41.386719 Z M 38.613281 4.835938 C 38.351562 4.738281 37.859375 4.824219 37.582031 4.824219 C 37.5625 4.824219 37.542969 4.824219 37.523438 4.824219 C 37.492188 4.824219 37.460938 4.824219 37.429688 4.824219 C 37.082031 4.824219 36.730469 4.828125 36.386719 4.839844 L 36.386719 3.539062 C 36.386719 2.925781 36.886719 2.425781 37.5 2.425781 C 38.113281 2.425781 38.613281 2.925781 38.613281 3.539062 C 38.613281 3.539062 38.613281 4.835938 38.613281 4.835938 Z M 36.386719 41.386719 L 36.386719 23.636719 C 36.65625 23.71875 36.921875 23.8125 37.195312 23.886719 C 37.417969 23.949219 37.664062 23.9375 37.886719 23.867188 C 37.890625 23.867188 38.164062 23.773438 38.613281 23.636719 L 38.613281 41.386719 Z M 22.226562 61.640625 C 22.226562 61.640625 22.226562 61.640625 22.222656 61.640625 L 20.277344 67.179688 C 20.277344 67.179688 20.277344 67.179688 20.277344 67.183594 L 18.378906 72.574219 L 12.390625 72.574219 L 19.847656 51.777344 L 25.695312 51.777344 Z M 23.132812 66.371094 L 24.226562 63.257812 L 39.765625 63.257812 C 40.4375 63.257812 40.980469 62.714844 40.980469 62.046875 C 40.980469 61.375 40.4375 60.832031 39.765625 60.832031 L 25.082031 60.832031 L 28.265625 51.777344 L 46.734375 51.777344 L 49.917969 60.832031 L 44.621094 60.832031 C 43.949219 60.832031 43.40625 61.375 43.40625 62.046875 C 43.40625 62.714844 43.949219 63.257812 44.621094 63.257812 L 50.773438 63.257812 L 51.867188 66.371094 Z M 62.609375 72.574219 L 56.621094 72.574219 L 54.726562 67.183594 C 54.722656 67.183594 54.722656 67.179688 54.722656 67.179688 L 52.777344 61.640625 L 49.304688 51.777344 L 55.152344 51.777344 Z M 62.609375 72.574219 " fill-opacity="1" fill-rule="nonzero"/></svg>