<svg xmlns="http://www.w3.org/2000/svg" xmlns:xlink="http://www.w3.org/1999/xlink" width="100" zoomAndPan="magnify" viewBox="0 0 75 74.999997" height="100" preserveAspectRatio="xMidYMid meet" version="1.0"><path fill="#231f20" d="M 72.664062 23.5 L 61.734375 23.5 C 61.808594 23.304688 63.058594 16.484375 63.058594 16.484375 C 63.203125 15.679688 62.984375 14.859375 62.460938 14.230469 C 61.9375 13.605469 61.167969 13.242188 60.351562 13.242188 L 56.765625 13.242188 L 56.765625 9.007812 C 57.164062 9.296875 57.605469 9.546875 58.085938 9.746094 C 59.933594 10.507812 61.371094 10.78125 62.25 10.878906 C 62.660156 10.917969 63.144531 10.820312 63.65625 10.402344 C 64.035156 10.042969 64.234375 9.539062 64.207031 9.019531 C 64.101562 7.164062 63.65625 3.824219 61.839844 2.292969 C 59.160156 0.171875 56.902344 0.726562 55.230469 2.769531 L 55.234375 2.769531 C 54.910156 3.207031 54.578125 4.054688 54.566406 4.917969 L 54.566406 9.382812 C 52.726562 6.664062 50.671875 5.8125 49.75 5.554688 C 47.957031 3.757812 46.019531 3.445312 43.414062 5.417969 C 41.597656 6.949219 41.152344 10.289062 41.046875 12.144531 C 41.019531 12.664062 41.21875 13.167969 41.597656 13.527344 C 41.925781 13.84375 42.363281 14.011719 42.8125 14.011719 C 42.875 14.011719 42.9375 14.011719 43.003906 14.003906 C 43.882812 13.90625 45.320312 13.632812 47.167969 12.871094 C 49.097656 12.003906 50.472656 10.539062 50.675781 8.414062 C 51.714844 9.148438 53.046875 10.558594 54.113281 13.242188 L 50.59375 13.242188 C 49.777344 13.242188 49.007812 13.605469 48.480469 14.230469 C 47.957031 14.859375 47.742188 15.679688 47.886719 16.484375 C 47.886719 16.484375 49.136719 23.304688 49.207031 23.5 L 36.433594 23.5 C 35.144531 23.5 34.097656 24.546875 34.097656 25.835938 L 34.097656 28.5625 C 34.097656 29.851562 35.144531 30.898438 36.433594 30.898438 L 39.300781 30.898438 L 39.300781 38.621094 C 39.300781 39.773438 40.234375 40.710938 41.386719 40.710938 L 43.304688 40.710938 C 44.457031 40.710938 45.394531 39.773438 45.394531 38.621094 L 45.394531 35.605469 L 46.667969 34.691406 C 47.476562 34.113281 47.957031 33.175781 47.957031 32.179688 L 47.957031 30.898438 L 61.578125 30.898438 L 61.578125 38.621094 C 61.578125 39.773438 62.515625 40.710938 63.667969 40.710938 L 65.585938 40.710938 C 66.738281 40.710938 67.671875 39.773438 67.671875 38.621094 L 67.671875 35.605469 L 68.945312 34.691406 C 69.753906 34.113281 70.238281 33.175781 70.238281 32.179688 L 70.238281 30.898438 L 72.664062 30.898438 C 73.953125 30.898438 75 29.851562 75 28.5625 L 75 25.835938 C 75 24.546875 73.953125 23.5 72.664062 23.5 Z M 57.011719 4.058594 C 57.703125 3.007812 59.175781 2.851562 60.421875 3.972656 C 61.203125 4.632812 61.785156 6.386719 61.976562 8.621094 C 61.234375 8.5 60.203125 8.242188 58.925781 7.714844 C 57.472656 7.113281 57.003906 6.132812 56.855469 5.601562 C 56.753906 5.261719 56.679688 4.582031 57.011719 4.058594 Z M 48.398438 8.726562 C 48.25 9.257812 47.777344 10.238281 46.328125 10.839844 C 45.046875 11.367188 44.015625 11.625 43.277344 11.746094 C 43.46875 9.515625 44.050781 7.757812 44.832031 7.097656 C 45.730469 6.21875 47.441406 5.902344 48.242188 7.183594 C 48.503906 7.546875 48.566406 8.136719 48.398438 8.726562 Z M 50.167969 15.640625 C 50.230469 15.566406 50.367188 15.441406 50.59375 15.441406 L 60.347656 15.441406 C 60.574219 15.441406 60.710938 15.566406 60.773438 15.640625 C 60.835938 15.714844 60.933594 15.871094 60.894531 16.09375 L 59.738281 22.507812 C 59.636719 23.082031 59.136719 23.5 58.550781 23.5 L 52.390625 23.5 C 51.804688 23.5 51.304688 23.082031 51.203125 22.507812 L 50.046875 16.09375 C 50.007812 15.871094 50.105469 15.714844 50.167969 15.640625 Z M 45.761719 32.179688 C 45.761719 32.46875 45.621094 32.738281 45.386719 32.90625 L 43.65625 34.148438 C 43.367188 34.355469 43.195312 34.6875 43.195312 35.042969 L 43.195312 38.511719 L 41.496094 38.511719 L 41.496094 30.898438 L 45.761719 30.898438 Z M 68.039062 32.179688 C 68.039062 32.46875 67.898438 32.738281 67.667969 32.90625 L 65.933594 34.148438 C 65.648438 34.355469 65.476562 34.6875 65.476562 35.042969 L 65.476562 38.511719 L 63.773438 38.511719 L 63.773438 30.898438 L 68.039062 30.898438 Z M 72.800781 28.5625 C 72.800781 28.640625 72.738281 28.703125 72.664062 28.703125 L 36.433594 28.703125 C 36.355469 28.703125 36.292969 28.640625 36.292969 28.5625 L 36.292969 25.835938 C 36.292969 25.757812 36.355469 25.695312 36.433594 25.695312 L 72.664062 25.695312 C 72.738281 25.695312 72.800781 25.757812 72.800781 25.835938 Z M 72.800781 28.5625 " fill-opacity="1" fill-rule="nonzero"/><path fill="#231f20" d="M 72.664062 56.84375 L 64.914062 56.84375 L 64.914062 54.484375 C 64.914062 53.894531 64.722656 53.351562 64.398438 52.910156 C 64.722656 52.46875 64.914062 51.925781 64.914062 51.335938 L 64.914062 49.449219 C 64.914062 47.976562 63.71875 46.777344 62.242188 46.777344 L 59.386719 46.777344 C 58.78125 46.777344 58.289062 47.269531 58.289062 47.875 C 58.289062 48.484375 58.78125 48.976562 59.386719 48.976562 L 62.242188 48.976562 C 62.503906 48.976562 62.71875 49.1875 62.71875 49.449219 L 62.71875 51.335938 C 62.71875 51.597656 62.503906 51.808594 62.242188 51.808594 L 45.773438 51.808594 C 45.511719 51.808594 45.296875 51.597656 45.296875 51.335938 L 45.296875 49.449219 C 45.296875 49.1875 45.511719 48.976562 45.773438 48.976562 L 54.261719 48.976562 C 54.867188 48.976562 55.359375 48.484375 55.359375 47.875 C 55.359375 47.269531 54.867188 46.777344 54.261719 46.777344 L 45.773438 46.777344 C 44.296875 46.777344 43.101562 47.976562 43.101562 49.449219 L 43.101562 51.335938 C 43.101562 51.925781 43.292969 52.46875 43.617188 52.910156 C 43.292969 53.351562 43.101562 53.894531 43.101562 54.484375 L 43.101562 56.84375 L 28.738281 56.84375 L 28.738281 41.667969 C 28.738281 40.28125 27.609375 39.152344 26.222656 39.152344 L 13.320312 39.152344 C 11.933594 39.152344 10.804688 40.28125 10.804688 41.667969 L 10.804688 56.84375 L 2.335938 56.84375 C 1.046875 56.84375 0 57.890625 0 59.179688 L 0 61.90625 C 0 63.195312 1.046875 64.242188 2.335938 64.242188 L 5.203125 64.242188 L 5.203125 71.964844 C 5.203125 73.117188 6.140625 74.054688 7.292969 74.054688 L 9.210938 74.054688 C 10.363281 74.054688 11.296875 73.117188 11.296875 71.964844 L 11.296875 68.949219 L 12.574219 68.035156 C 13.378906 67.457031 13.863281 66.519531 13.863281 65.523438 L 13.863281 63.144531 C 13.863281 62.539062 13.371094 62.046875 12.761719 62.046875 L 2.335938 62.046875 C 2.261719 62.046875 2.195312 61.980469 2.195312 61.90625 L 2.195312 59.179688 C 2.195312 59.101562 2.261719 59.039062 2.335938 59.039062 L 72.664062 59.039062 C 72.738281 59.039062 72.800781 59.101562 72.800781 59.179688 L 72.800781 61.90625 C 72.800781 61.980469 72.738281 62.046875 72.664062 62.046875 L 17.902344 62.046875 C 17.296875 62.046875 16.804688 62.539062 16.804688 63.144531 C 16.804688 63.75 17.296875 64.242188 17.902344 64.242188 L 61.578125 64.242188 L 61.578125 71.964844 C 61.578125 73.117188 62.515625 74.054688 63.667969 74.054688 L 65.585938 74.054688 C 66.734375 74.054688 67.671875 73.117188 67.671875 71.964844 L 67.671875 68.949219 L 68.945312 68.035156 C 69.753906 67.457031 70.234375 66.519531 70.234375 65.523438 L 70.234375 64.242188 L 72.664062 64.242188 C 73.953125 64.242188 75 63.195312 75 61.90625 L 75 59.179688 C 75 57.890625 73.953125 56.84375 72.664062 56.84375 Z M 7.402344 64.242188 L 11.664062 64.242188 L 11.664062 65.523438 C 11.664062 65.8125 11.523438 66.082031 11.292969 66.25 L 9.558594 67.492188 C 9.273438 67.699219 9.101562 68.03125 9.101562 68.386719 L 9.101562 71.855469 L 7.402344 71.855469 Z M 26.542969 56.523438 C 26.542969 56.699219 26.398438 56.84375 26.222656 56.84375 L 13.320312 56.84375 C 13.144531 56.84375 13 56.699219 13 56.523438 L 13 41.667969 C 13 41.492188 13.144531 41.347656 13.320312 41.347656 L 26.222656 41.347656 C 26.398438 41.347656 26.542969 41.492188 26.542969 41.667969 Z M 62.71875 56.367188 C 62.71875 56.628906 62.503906 56.84375 62.242188 56.84375 L 45.773438 56.84375 C 45.511719 56.84375 45.296875 56.628906 45.296875 56.367188 L 45.296875 54.484375 C 45.296875 54.222656 45.511719 54.007812 45.773438 54.007812 L 62.242188 54.007812 C 62.503906 54.007812 62.71875 54.222656 62.71875 54.484375 Z M 68.039062 65.523438 C 68.039062 65.8125 67.898438 66.082031 67.667969 66.25 L 65.933594 67.492188 C 65.648438 67.699219 65.476562 68.03125 65.476562 68.386719 L 65.476562 71.855469 L 63.773438 71.855469 L 63.773438 64.242188 L 68.039062 64.242188 Z M 68.039062 65.523438 " fill-opacity="1" fill-rule="nonzero"/><path fill="#231f20" d="M 23.832031 42.960938 L 15.710938 42.960938 C 15.105469 42.960938 14.613281 43.453125 14.613281 44.058594 L 14.613281 54.132812 C 14.613281 54.738281 15.105469 55.230469 15.710938 55.230469 L 23.832031 55.230469 C 24.4375 55.230469 24.929688 54.738281 24.929688 54.132812 L 24.929688 44.058594 C 24.929688 43.453125 24.4375 42.960938 23.832031 42.960938 Z M 22.734375 53.035156 L 16.808594 53.035156 L 16.808594 45.15625 L 22.734375 45.15625 Z M 22.734375 53.035156 " fill-opacity="1" fill-rule="nonzero"/></svg>