<svg xmlns="http://www.w3.org/2000/svg" xmlns:xlink="http://www.w3.org/1999/xlink" width="100" zoomAndPan="magnify" viewBox="0 0 75 74.999997" height="100" preserveAspectRatio="xMidYMid meet" version="1.0"><path fill="#231f20" d="M 60.65625 0 L 14.34375 0 C 13.535156 0 12.878906 0.65625 12.878906 1.464844 L 12.878906 67.804688 C 12.878906 68.613281 13.535156 69.269531 14.34375 69.269531 L 15.269531 69.269531 C 15.261719 69.382812 15.257812 69.496094 15.257812 69.605469 C 15.257812 72.582031 17.679688 75 20.652344 75 C 23.625 75 26.046875 72.582031 26.046875 69.605469 C 26.046875 69.496094 26.042969 69.382812 26.035156 69.269531 L 48.964844 69.269531 C 48.957031 69.382812 48.953125 69.496094 48.953125 69.605469 C 48.953125 72.582031 51.375 75 54.347656 75 C 57.320312 75 59.742188 72.582031 59.742188 69.605469 C 59.742188 69.496094 59.738281 69.382812 59.730469 69.269531 L 60.65625 69.269531 C 61.464844 69.269531 62.121094 68.613281 62.121094 67.804688 L 62.121094 1.464844 C 62.121094 0.65625 61.464844 0 60.65625 0 Z M 20.652344 72.070312 C 19.292969 72.070312 18.1875 70.964844 18.1875 69.605469 C 18.1875 69.492188 18.195312 69.378906 18.210938 69.269531 L 23.09375 69.269531 C 23.109375 69.378906 23.117188 69.492188 23.117188 69.605469 C 23.117188 70.964844 22.011719 72.070312 20.652344 72.070312 Z M 54.347656 72.070312 C 52.988281 72.070312 51.882812 70.964844 51.882812 69.605469 C 51.882812 69.492188 51.890625 69.378906 51.90625 69.269531 L 56.789062 69.269531 C 56.804688 69.378906 56.8125 69.492188 56.8125 69.605469 C 56.8125 70.964844 55.707031 72.070312 54.347656 72.070312 Z M 59.191406 66.339844 L 15.808594 66.339844 L 15.808594 35.25 L 59.191406 35.25 Z M 59.191406 32.246094 L 15.808594 32.246094 L 15.808594 19.089844 L 59.191406 19.089844 Z M 59.191406 16.160156 L 15.808594 16.160156 L 15.808594 2.929688 L 59.191406 2.929688 Z M 59.191406 16.160156 " fill-opacity="1" fill-rule="nonzero"/><path fill="#231f20" d="M 54.78125 5.582031 L 20.21875 5.582031 C 19.410156 5.582031 18.753906 6.238281 18.753906 7.046875 L 18.753906 12.042969 C 18.753906 12.851562 19.410156 13.507812 20.21875 13.507812 L 54.78125 13.507812 C 55.589844 13.507812 56.246094 12.851562 56.246094 12.042969 L 56.246094 7.046875 C 56.246094 6.238281 55.589844 5.582031 54.78125 5.582031 Z M 53.316406 10.578125 L 21.683594 10.578125 L 21.683594 8.511719 L 53.316406 8.511719 Z M 53.316406 10.578125 " fill-opacity="1" fill-rule="nonzero"/><path fill="#231f20" d="M 54.78125 21.742188 L 20.21875 21.742188 C 19.410156 21.742188 18.753906 22.398438 18.753906 23.207031 L 18.753906 28.203125 C 18.753906 29.011719 19.410156 29.667969 20.21875 29.667969 L 54.78125 29.667969 C 55.589844 29.667969 56.246094 29.011719 56.246094 28.203125 L 56.246094 23.207031 C 56.246094 22.398438 55.589844 21.742188 54.78125 21.742188 Z M 21.683594 26.738281 L 21.683594 24.671875 L 53.316406 24.671875 L 53.316406 26.738281 Z M 21.683594 26.738281 " fill-opacity="1" fill-rule="nonzero"/><path fill="#231f20" d="M 54.78125 38.121094 L 20.21875 38.121094 C 19.410156 38.121094 18.753906 38.777344 18.753906 39.585938 L 18.753906 61.929688 C 18.753906 62.738281 19.410156 63.394531 20.21875 63.394531 L 54.78125 63.394531 C 55.589844 63.394531 56.246094 62.738281 56.246094 61.929688 L 56.246094 39.585938 C 56.246094 38.777344 55.589844 38.121094 54.78125 38.121094 Z M 53.316406 60.464844 L 21.683594 60.464844 L 21.683594 41.050781 L 53.316406 41.050781 Z M 53.316406 60.464844 " fill-opacity="1" fill-rule="nonzero"/><path fill="#231f20" d="M 51.207031 43.71875 C 51.1875 43.625 51.160156 43.53125 51.121094 43.445312 C 51.085938 43.355469 51.039062 43.273438 50.988281 43.191406 C 50.933594 43.113281 50.871094 43.035156 50.804688 42.96875 C 50.738281 42.902344 50.660156 42.839844 50.582031 42.785156 C 50.503906 42.734375 50.417969 42.6875 50.328125 42.652344 C 50.238281 42.617188 50.148438 42.585938 50.054688 42.570312 C 49.867188 42.53125 49.671875 42.53125 49.484375 42.570312 C 49.390625 42.585938 49.296875 42.617188 49.207031 42.652344 C 49.121094 42.6875 49.035156 42.734375 48.957031 42.785156 C 48.875 42.839844 48.800781 42.902344 48.734375 42.96875 C 48.664062 43.035156 48.605469 43.113281 48.550781 43.191406 C 48.5 43.273438 48.453125 43.355469 48.417969 43.445312 C 48.378906 43.53125 48.351562 43.625 48.332031 43.71875 C 48.3125 43.8125 48.304688 43.910156 48.304688 44.003906 C 48.304688 44.101562 48.3125 44.195312 48.332031 44.292969 C 48.351562 44.386719 48.378906 44.476562 48.417969 44.566406 C 48.453125 44.652344 48.5 44.738281 48.550781 44.820312 C 48.605469 44.898438 48.664062 44.972656 48.734375 45.042969 C 48.800781 45.109375 48.875 45.167969 48.957031 45.222656 C 49.035156 45.277344 49.121094 45.320312 49.207031 45.359375 C 49.296875 45.394531 49.390625 45.421875 49.484375 45.441406 C 49.578125 45.460938 49.671875 45.46875 49.769531 45.46875 C 49.863281 45.46875 49.960938 45.460938 50.054688 45.441406 C 50.148438 45.421875 50.238281 45.394531 50.328125 45.359375 C 50.417969 45.320312 50.503906 45.277344 50.582031 45.222656 C 50.660156 45.167969 50.738281 45.109375 50.804688 45.042969 C 50.871094 44.972656 50.933594 44.898438 50.988281 44.820312 C 51.039062 44.738281 51.085938 44.652344 51.121094 44.566406 C 51.160156 44.476562 51.1875 44.386719 51.207031 44.292969 C 51.222656 44.195312 51.234375 44.101562 51.234375 44.003906 C 51.234375 43.910156 51.222656 43.8125 51.207031 43.71875 Z M 51.207031 43.71875 " fill-opacity="1" fill-rule="nonzero"/><path fill="#231f20" d="M 43.890625 42.539062 L 25.230469 42.539062 C 24.421875 42.539062 23.765625 43.195312 23.765625 44.003906 C 23.765625 44.8125 24.421875 45.46875 25.230469 45.46875 L 43.890625 45.46875 C 44.699219 45.46875 45.355469 44.8125 45.355469 44.003906 C 45.355469 43.195312 44.699219 42.539062 43.890625 42.539062 Z M 43.890625 42.539062 " fill-opacity="1" fill-rule="nonzero"/></svg>