<svg xmlns="http://www.w3.org/2000/svg" xmlns:xlink="http://www.w3.org/1999/xlink" width="100" zoomAndPan="magnify" viewBox="0 0 75 74.999997" height="100" preserveAspectRatio="xMidYMid meet" version="1.0"><path fill="#231f20" d="M 67.050781 0 L 66.46875 0 C 65.863281 0 65.371094 0.492188 65.371094 1.097656 L 65.371094 6.90625 L 56.507812 6.90625 C 55.898438 6.90625 55.40625 7.398438 55.40625 8.003906 C 55.40625 8.609375 55.898438 9.101562 56.507812 9.101562 L 65.371094 9.101562 L 65.371094 22.5 L 9.628906 22.5 L 9.628906 9.101562 L 27.59375 9.101562 L 29.691406 12.789062 C 30.527344 14.253906 32.09375 15.167969 33.785156 15.167969 L 39.453125 15.167969 C 41.144531 15.167969 42.710938 14.257812 43.546875 12.789062 L 45.644531 9.101562 L 51.363281 9.101562 C 51.96875 9.101562 52.460938 8.609375 52.460938 8.003906 C 52.460938 7.398438 51.96875 6.90625 51.363281 6.90625 L 9.628906 6.90625 L 9.628906 1.097656 C 9.628906 0.492188 9.136719 0 8.53125 0 L 7.949219 0 C 4.644531 0 1.957031 2.6875 1.957031 5.988281 L 1.957031 72.699219 C 1.957031 73.96875 2.992188 75 4.257812 75 L 7.328125 75 C 8.597656 75 9.628906 73.96875 9.628906 72.699219 L 9.628906 63.1875 L 65.371094 63.1875 L 65.371094 66.660156 L 13.664062 66.660156 C 13.058594 66.660156 12.566406 67.152344 12.566406 67.757812 C 12.566406 68.363281 13.058594 68.855469 13.664062 68.855469 L 65.371094 68.855469 L 65.371094 72.699219 C 65.371094 73.96875 66.402344 75 67.671875 75 L 70.742188 75 C 72.007812 75 73.042969 73.96875 73.042969 72.699219 L 73.042969 5.988281 C 73.042969 2.6875 70.355469 0 67.050781 0 Z M 43.117188 9.101562 L 41.636719 11.703125 C 41.191406 12.484375 40.355469 12.96875 39.453125 12.96875 L 33.785156 12.96875 C 32.882812 12.96875 32.046875 12.484375 31.601562 11.703125 L 30.121094 9.101562 Z M 9.628906 45.617188 L 9.628906 42.148438 L 65.371094 42.148438 L 65.371094 45.617188 Z M 15.796875 39.640625 C 15.714844 39.53125 15.589844 39.304688 15.675781 39.003906 C 16.226562 37.085938 17.703125 34.710938 21.5625 33.914062 L 22.5625 36.304688 C 22.742188 36.726562 23.148438 36.976562 23.578125 36.976562 C 23.71875 36.976562 23.863281 36.949219 24.003906 36.894531 C 24.5625 36.65625 24.824219 36.015625 24.589844 35.453125 L 23.773438 33.507812 C 24.363281 33.367188 24.945312 33.183594 25.519531 32.960938 L 26.53125 35.167969 C 26.714844 35.574219 27.113281 35.8125 27.53125 35.8125 C 27.683594 35.8125 27.839844 35.777344 27.984375 35.710938 C 28.539062 35.460938 28.78125 34.808594 28.527344 34.253906 L 27.503906 32.015625 L 30.199219 30.542969 C 30.300781 30.484375 30.410156 30.460938 30.519531 30.460938 C 30.753906 30.460938 30.984375 30.582031 31.117188 30.804688 C 31.742188 31.855469 33.011719 33.105469 35.507812 33.105469 C 38.683594 33.105469 40.84375 31.085938 41.847656 29.882812 C 41.851562 29.875 41.859375 29.867188 41.867188 29.859375 C 42.070312 29.601562 42.394531 29.695312 42.488281 29.726562 C 42.582031 29.761719 42.886719 29.898438 42.875 30.222656 C 42.875 30.234375 42.875 30.246094 42.875 30.257812 L 42.875 39.191406 C 42.875 39.609375 42.535156 39.949219 42.117188 39.949219 L 16.414062 39.949219 C 16.167969 39.949219 15.945312 39.839844 15.796875 39.640625 Z M 65.371094 24.699219 L 65.371094 39.949219 L 44.972656 39.949219 C 45.035156 39.707031 45.074219 39.453125 45.074219 39.191406 L 45.074219 30.273438 C 45.101562 29.101562 44.382812 28.078125 43.238281 27.664062 C 42.089844 27.246094 40.878906 27.570312 40.148438 28.488281 C 39.390625 29.398438 37.78125 30.910156 35.507812 30.910156 C 34.316406 30.910156 33.496094 30.507812 33.003906 29.679688 C 32.203125 28.335938 30.507812 27.867188 29.144531 28.613281 L 26.207031 30.21875 C 24.886719 30.945312 23.5 31.40625 22.089844 31.597656 C 19.539062 31.945312 15.035156 33.289062 13.5625 38.398438 C 13.414062 38.914062 13.414062 39.449219 13.546875 39.949219 L 9.628906 39.949219 L 9.628906 24.699219 Z M 7.429688 72.699219 C 7.429688 72.757812 7.382812 72.800781 7.328125 72.800781 L 4.257812 72.800781 C 4.203125 72.800781 4.15625 72.757812 4.15625 72.699219 L 4.15625 5.988281 C 4.15625 4.074219 5.582031 2.484375 7.429688 2.234375 Z M 9.628906 47.816406 L 41.496094 47.816406 L 40.949219 49.816406 C 40.785156 50.40625 40.417969 50.902344 39.929688 51.234375 C 39.921875 51.242188 39.910156 51.25 39.898438 51.257812 C 39.601562 51.449219 39.265625 51.585938 38.902344 51.640625 L 32.402344 52.640625 C 32.398438 52.640625 32.398438 52.640625 32.398438 52.640625 L 32.386719 52.640625 C 29.835938 52.988281 25.351562 54.332031 23.875 59.417969 C 23.726562 59.941406 23.722656 60.484375 23.859375 60.992188 L 9.628906 60.992188 Z M 26.109375 60.6875 C 26.023438 60.574219 25.898438 60.339844 25.988281 60.03125 C 26.539062 58.125 28.003906 55.773438 31.8125 54.96875 L 32.660156 57.386719 C 32.816406 57.839844 33.242188 58.125 33.695312 58.125 C 33.816406 58.125 33.9375 58.105469 34.058594 58.0625 C 34.628906 57.863281 34.933594 57.234375 34.734375 56.664062 L 34.015625 54.613281 L 35.84375 54.332031 L 36.84375 56.769531 C 37.015625 57.195312 37.425781 57.453125 37.859375 57.453125 C 37.996094 57.453125 38.136719 57.429688 38.273438 57.371094 C 38.835938 57.144531 39.105469 56.5 38.875 55.941406 L 38.078125 53.988281 L 39.234375 53.8125 C 39.480469 53.773438 39.71875 53.714844 39.949219 53.644531 L 40.828125 55.792969 C 41.003906 56.21875 41.414062 56.476562 41.847656 56.476562 C 41.984375 56.476562 42.125 56.449219 42.261719 56.394531 C 42.824219 56.164062 43.09375 55.523438 42.863281 54.960938 L 41.851562 52.484375 C 42.417969 51.917969 42.847656 51.203125 43.066406 50.398438 L 43.707031 48.070312 C 43.746094 47.921875 43.882812 47.816406 44.039062 47.816406 L 52.835938 47.816406 C 53.027344 47.816406 53.183594 47.972656 53.183594 48.160156 L 53.183594 54.773438 C 52.480469 54.941406 51.484375 55.25 50.484375 55.796875 C 48.320312 56.980469 47.039062 58.761719 46.722656 60.992188 L 26.71875 60.992188 C 26.476562 60.992188 26.253906 60.878906 26.109375 60.6875 Z M 48.957031 60.992188 C 49.484375 58.515625 51.738281 57.464844 53.183594 57.039062 L 53.183594 60.230469 C 53.183594 60.652344 52.839844 60.992188 52.421875 60.992188 Z M 55.277344 60.992188 L 55.351562 47.816406 L 65.371094 47.816406 L 65.371094 60.992188 Z M 70.84375 72.699219 C 70.84375 72.757812 70.796875 72.800781 70.742188 72.800781 L 67.671875 72.800781 C 67.617188 72.800781 67.570312 72.757812 67.570312 72.699219 L 67.570312 2.234375 C 69.417969 2.484375 70.84375 4.074219 70.84375 5.988281 Z M 70.84375 72.699219 " fill-opacity="1" fill-rule="nonzero"/></svg>