<svg xmlns="http://www.w3.org/2000/svg" xmlns:xlink="http://www.w3.org/1999/xlink" width="100" zoomAndPan="magnify" viewBox="0 0 75 74.999997" height="100" preserveAspectRatio="xMidYMid meet" version="1.0"><path fill="#231f20" d="M 73.535156 38.085938 L 55.972656 38.085938 L 54.507812 35.15625 L 60.921875 35.15625 C 61.730469 35.15625 62.386719 34.503906 62.386719 33.695312 L 62.386719 1.488281 C 62.386719 0.679688 61.730469 0.0234375 60.921875 0.0234375 L 14.078125 0.0234375 C 13.269531 0.0234375 12.613281 0.679688 12.613281 1.488281 L 12.613281 33.695312 C 12.613281 34.503906 13.269531 35.15625 14.078125 35.15625 L 20.492188 35.15625 L 19.027344 38.085938 L 1.464844 38.085938 C 0.65625 38.085938 0 38.742188 0 39.550781 L 0 62.972656 C 0 63.78125 0.65625 64.4375 1.464844 64.4375 L 4.976562 64.4375 L 2.441406 69 C 1.742188 70.257812 1.761719 71.75 2.492188 72.992188 C 3.222656 74.234375 4.519531 74.976562 5.960938 74.976562 C 7.421875 74.976562 8.769531 74.183594 9.476562 72.90625 L 14.183594 64.4375 L 61.089844 64.4375 L 65.796875 72.90625 C 66.507812 74.183594 67.855469 74.976562 69.316406 74.976562 C 70.753906 74.976562 72.050781 74.234375 72.78125 72.992188 C 73.511719 71.75 73.53125 70.257812 72.832031 69 L 70.296875 64.4375 L 73.535156 64.4375 C 74.34375 64.4375 75 63.78125 75 62.972656 L 75 39.550781 C 75 38.742188 74.34375 38.085938 73.535156 38.085938 Z M 72.070312 49.796875 L 38.964844 49.796875 L 38.964844 41.011719 L 72.070312 41.011719 Z M 15.542969 29.300781 L 39.796875 29.300781 C 40.605469 29.300781 41.261719 28.648438 41.261719 27.839844 C 41.261719 27.03125 40.605469 26.375 39.796875 26.375 L 15.542969 26.375 L 15.542969 2.953125 L 59.457031 2.953125 L 59.457031 26.375 L 54.4375 26.375 C 53.628906 26.375 52.972656 27.03125 52.972656 27.839844 C 52.972656 28.648438 53.628906 29.300781 54.4375 29.300781 L 59.457031 29.300781 L 59.457031 32.230469 L 15.542969 32.230469 Z M 23.765625 35.15625 L 51.234375 35.15625 L 52.699219 38.085938 L 22.300781 38.085938 Z M 36.035156 41.011719 L 36.035156 49.796875 L 2.929688 49.796875 L 2.929688 41.011719 Z M 2.929688 52.722656 L 36.035156 52.722656 L 36.035156 61.507812 L 2.929688 61.507812 Z M 6.917969 71.484375 C 6.722656 71.832031 6.359375 72.046875 5.960938 72.046875 C 5.394531 72.046875 5.109375 71.671875 5.015625 71.507812 C 4.921875 71.347656 4.726562 70.914062 5.003906 70.421875 L 8.328125 64.4375 L 10.832031 64.4375 Z M 70.273438 70.421875 C 70.546875 70.914062 70.355469 71.34375 70.257812 71.507812 C 70.164062 71.671875 69.878906 72.046875 69.316406 72.046875 C 68.917969 72.046875 68.550781 71.832031 68.355469 71.484375 L 64.441406 64.4375 L 66.945312 64.4375 Z M 38.964844 61.507812 L 38.964844 52.722656 L 72.070312 52.722656 L 72.070312 61.507812 Z M 38.964844 61.507812 " fill-opacity="1" fill-rule="nonzero"/><path fill="#231f20" d="M 16.246094 46.914062 L 22.007812 46.914062 C 22.816406 46.914062 23.472656 46.257812 23.472656 45.449219 C 23.472656 44.644531 22.816406 43.988281 22.007812 43.988281 L 16.246094 43.988281 C 15.4375 43.988281 14.78125 44.644531 14.78125 45.449219 C 14.78125 46.257812 15.4375 46.914062 16.246094 46.914062 Z M 16.246094 46.914062 " fill-opacity="1" fill-rule="nonzero"/><path fill="#231f20" d="M 16.246094 58.535156 L 22.007812 58.535156 C 22.816406 58.535156 23.472656 57.878906 23.472656 57.070312 C 23.472656 56.261719 22.816406 55.605469 22.007812 55.605469 L 16.246094 55.605469 C 15.4375 55.605469 14.78125 56.261719 14.78125 57.070312 C 14.78125 57.878906 15.4375 58.535156 16.246094 58.535156 Z M 16.246094 58.535156 " fill-opacity="1" fill-rule="nonzero"/><path fill="#231f20" d="M 52.84375 43.988281 C 52.035156 43.988281 51.378906 44.644531 51.378906 45.449219 C 51.378906 46.257812 52.035156 46.914062 52.84375 46.914062 L 58.605469 46.914062 C 59.414062 46.914062 60.070312 46.257812 60.070312 45.449219 C 60.070312 44.644531 59.414062 43.988281 58.605469 43.988281 Z M 52.84375 43.988281 " fill-opacity="1" fill-rule="nonzero"/><path fill="#231f20" d="M 58.605469 55.605469 L 52.84375 55.605469 C 52.035156 55.605469 51.378906 56.261719 51.378906 57.070312 C 51.378906 57.878906 52.035156 58.535156 52.84375 58.535156 L 58.605469 58.535156 C 59.414062 58.535156 60.070312 57.878906 60.070312 57.070312 C 60.070312 56.261719 59.414062 55.605469 58.605469 55.605469 Z M 58.605469 55.605469 " fill-opacity="1" fill-rule="nonzero"/><path fill="#231f20" d="M 48.582031 27.839844 C 48.582031 28.03125 48.546875 28.21875 48.46875 28.398438 C 48.394531 28.578125 48.289062 28.738281 48.152344 28.875 C 48.015625 29.011719 47.859375 29.117188 47.679688 29.191406 C 47.5 29.265625 47.3125 29.304688 47.117188 29.304688 C 46.921875 29.304688 46.738281 29.265625 46.558594 29.191406 C 46.378906 29.117188 46.21875 29.011719 46.082031 28.875 C 45.945312 28.738281 45.839844 28.578125 45.765625 28.398438 C 45.691406 28.21875 45.652344 28.03125 45.652344 27.839844 C 45.652344 27.644531 45.691406 27.457031 45.765625 27.277344 C 45.839844 27.097656 45.945312 26.941406 46.082031 26.800781 C 46.21875 26.664062 46.378906 26.558594 46.558594 26.484375 C 46.738281 26.410156 46.921875 26.375 47.117188 26.375 C 47.3125 26.375 47.5 26.410156 47.679688 26.484375 C 47.859375 26.558594 48.015625 26.664062 48.152344 26.800781 C 48.289062 26.941406 48.394531 27.097656 48.46875 27.277344 C 48.546875 27.457031 48.582031 27.644531 48.582031 27.839844 Z M 48.582031 27.839844 " fill-opacity="1" fill-rule="nonzero"/></svg>