<svg xmlns="http://www.w3.org/2000/svg" xmlns:xlink="http://www.w3.org/1999/xlink" width="100" zoomAndPan="magnify" viewBox="0 0 75 74.999997" height="100" preserveAspectRatio="xMidYMid meet" version="1.0"><path fill="#231f20" d="M 69.675781 0 L 5.324219 0 C 4.515625 0 3.859375 0.65625 3.859375 1.464844 L 3.859375 67.5625 C 3.859375 68.375 4.515625 69.027344 5.324219 69.027344 L 7.511719 69.027344 L 7.511719 73.535156 C 7.511719 74.34375 8.167969 75 8.976562 75 L 66.023438 75 C 66.832031 75 67.488281 74.34375 67.488281 73.535156 L 67.488281 69.027344 L 69.675781 69.027344 C 70.484375 69.027344 71.140625 68.375 71.140625 67.5625 L 71.140625 1.464844 C 71.140625 0.65625 70.484375 0 69.675781 0 Z M 49.691406 2.929688 L 68.210938 2.929688 L 68.210938 45.230469 L 49.691406 45.230469 Z M 49.691406 48.160156 L 68.210938 48.160156 L 68.210938 55.957031 L 49.691406 55.957031 Z M 28.238281 2.929688 L 46.761719 2.929688 L 46.761719 66.097656 L 28.238281 66.097656 Z M 6.789062 66.097656 L 6.789062 2.929688 L 25.308594 2.929688 L 25.308594 66.097656 Z M 10.441406 72.070312 L 10.441406 69.027344 L 64.558594 69.027344 L 64.558594 72.070312 Z M 49.691406 66.097656 L 49.691406 58.886719 L 68.210938 58.886719 L 68.210938 66.097656 Z M 49.691406 66.097656 " fill-opacity="1" fill-rule="nonzero"/><path fill="#231f20" d="M 52.734375 29.347656 C 51.925781 29.347656 51.269531 30.003906 51.269531 30.8125 L 51.269531 36.085938 C 51.269531 36.894531 51.925781 37.550781 52.734375 37.550781 C 53.542969 37.550781 54.199219 36.894531 54.199219 36.085938 L 54.199219 30.8125 C 54.199219 30.003906 53.542969 29.347656 52.734375 29.347656 Z M 52.734375 29.347656 " fill-opacity="1" fill-rule="nonzero"/><path fill="#231f20" d="M 22.332031 29.347656 C 21.523438 29.347656 20.867188 30.003906 20.867188 30.8125 L 20.867188 36.085938 C 20.867188 36.894531 21.523438 37.550781 22.332031 37.550781 C 23.140625 37.550781 23.796875 36.894531 23.796875 36.085938 L 23.796875 30.8125 C 23.796875 30.003906 23.140625 29.347656 22.332031 29.347656 Z M 22.332031 29.347656 " fill-opacity="1" fill-rule="nonzero"/><path fill="#231f20" d="M 32.636719 11.6875 C 32.617188 11.59375 32.589844 11.5 32.554688 11.414062 C 32.515625 11.324219 32.472656 11.238281 32.417969 11.160156 C 32.367188 11.078125 32.304688 11.003906 32.238281 10.9375 C 32.167969 10.867188 32.09375 10.808594 32.015625 10.753906 C 31.933594 10.703125 31.851562 10.65625 31.761719 10.621094 C 31.671875 10.582031 31.582031 10.554688 31.488281 10.535156 C 31.296875 10.5 31.101562 10.5 30.914062 10.535156 C 30.820312 10.554688 30.730469 10.582031 30.640625 10.621094 C 30.550781 10.65625 30.46875 10.703125 30.386719 10.753906 C 30.308594 10.808594 30.234375 10.867188 30.164062 10.9375 C 30.097656 11.003906 30.035156 11.078125 29.980469 11.160156 C 29.929688 11.238281 29.886719 11.324219 29.847656 11.414062 C 29.8125 11.5 29.78125 11.59375 29.765625 11.6875 C 29.746094 11.78125 29.738281 11.875 29.738281 11.972656 C 29.738281 12.070312 29.746094 12.164062 29.765625 12.257812 C 29.78125 12.351562 29.8125 12.445312 29.847656 12.53125 C 29.886719 12.621094 29.929688 12.707031 29.980469 12.785156 C 30.035156 12.867188 30.097656 12.941406 30.164062 13.007812 C 30.234375 13.078125 30.308594 13.136719 30.386719 13.191406 C 30.46875 13.242188 30.550781 13.289062 30.640625 13.324219 C 30.730469 13.363281 30.820312 13.390625 30.914062 13.410156 C 31.007812 13.429688 31.105469 13.4375 31.199219 13.4375 C 31.296875 13.4375 31.394531 13.429688 31.488281 13.410156 C 31.582031 13.390625 31.671875 13.363281 31.761719 13.324219 C 31.851562 13.289062 31.933594 13.242188 32.015625 13.191406 C 32.09375 13.136719 32.167969 13.078125 32.238281 13.007812 C 32.304688 12.941406 32.367188 12.867188 32.417969 12.785156 C 32.472656 12.707031 32.515625 12.621094 32.554688 12.53125 C 32.589844 12.445312 32.617188 12.351562 32.636719 12.257812 C 32.65625 12.164062 32.664062 12.070312 32.664062 11.972656 C 32.664062 11.875 32.65625 11.78125 32.636719 11.6875 Z M 32.636719 11.6875 " fill-opacity="1" fill-rule="nonzero"/><path fill="#231f20" d="M 31.199219 16.367188 C 30.390625 16.367188 29.734375 17.023438 29.734375 17.832031 L 29.734375 58.1875 C 29.734375 58.996094 30.390625 59.652344 31.199219 59.652344 C 32.011719 59.652344 32.664062 58.996094 32.664062 58.1875 L 32.664062 17.832031 C 32.664062 17.023438 32.011719 16.367188 31.199219 16.367188 Z M 31.199219 16.367188 " fill-opacity="1" fill-rule="nonzero"/><path fill="#231f20" d="M 60.488281 49.625 L 57.414062 49.625 C 56.605469 49.625 55.949219 50.277344 55.949219 51.089844 C 55.949219 51.898438 56.605469 52.554688 57.414062 52.554688 L 60.488281 52.554688 C 61.296875 52.554688 61.953125 51.898438 61.953125 51.089844 C 61.953125 50.277344 61.296875 49.625 60.488281 49.625 Z M 60.488281 49.625 " fill-opacity="1" fill-rule="nonzero"/><path fill="#231f20" d="M 60.488281 60.351562 L 57.414062 60.351562 C 56.605469 60.351562 55.949219 61.007812 55.949219 61.816406 C 55.949219 62.625 56.605469 63.28125 57.414062 63.28125 L 60.488281 63.28125 C 61.296875 63.28125 61.953125 62.625 61.953125 61.816406 C 61.953125 61.007812 61.296875 60.351562 60.488281 60.351562 Z M 60.488281 60.351562 " fill-opacity="1" fill-rule="nonzero"/></svg>