<?xml version="1.0"?>
<svg xmlns="http://www.w3.org/2000/svg" viewBox="0 0 64 64" width="512" height="512"><g id="_19-Painted" data-name="19-Painted"><path d="M39,60H29a1,1,0,0,1-1-1V39a1,1,0,0,1,1-1H39a1,1,0,0,1,.707.293l2,2A1,1,0,0,1,42,41V57a1,1,0,0,1-.293.707l-2,2A1,1,0,0,1,39,60Zm-9-2h8.586L40,56.586V41.414L38.586,40H30Z"/><path d="M60.819,53.8c-.03,0-.06,0-.09,0L40.909,52A1,1,0,0,1,40,51V47a1,1,0,0,1,.909-1l19.82-1.8a1,1,0,0,1,.765.258l2.181,1.992A1,1,0,0,1,64,47.19v3.62a1,1,0,0,1-.325.738L61.494,53.54A1,1,0,0,1,60.819,53.8ZM42,50.087l18.471,1.679L62,50.369V47.631l-1.529-1.4L42,47.913Z"/><rect x="32" y="39" width="2" height="20"/><path d="M29,60c-9.532,0-17-3.953-17-9V31a1,1,0,0,1,2,0c0,3.794,6.869,7,15,7v2c-6.571,0-12.161-1.879-15-4.7V51c0,3.794,6.869,7,15,7Z"/><path d="M29,45c-8.241,0-17-2.453-17-7h2c0,2.36,6.415,5,15,5Z"/><path d="M29,50c-8.241,0-17-2.453-17-7h2c0,2.36,6.415,5,15,5Z"/><path d="M29,55c-8.241,0-17-2.453-17-7h2c0,2.36,6.415,5,15,5Z"/><path d="M7,64H1a1,1,0,0,1-1-1V1A1,1,0,0,1,1,0H7A1,1,0,0,1,8,1V63A1,1,0,0,1,7,64ZM2,62H6V2H2Z"/><path d="M38,36H36V2H7V0H37a1,1,0,0,1,1,1Z"/><path d="M37,64H7V62H38v1A1,1,0,0,1,37,64Z"/><path d="M14,31H12V17a4,4,0,0,1,8,0v5H18V17a2,2,0,0,0-4,0Z"/><path d="M28,33H26V11a3,3,0,0,0-6,0v6H18V11a5,5,0,0,1,10,0Z"/><path d="M34,39H32V15a2,2,0,0,0-2-2H27V11h3a4,4,0,0,1,4,4Z"/><rect x="18" y="24" width="2" height="9"/><rect x="50" y="38" width="2" height="4"/><rect x="50" y="20" width="2" height="16"/><rect x="54" y="36" width="2" height="4"/><rect x="54" y="18" width="2" height="16"/><rect x="46" y="36" width="2" height="4"/><rect x="46" y="18" width="2" height="16"/><rect x="58" y="20" width="2" height="4"/><rect x="58" y="26" width="2" height="16"/><rect x="46" y="14" width="2" height="2"/></g></svg>
