<svg id="Capa_1" enable-background="new 0 0 497 497" height="512" viewBox="0 0 497 497" width="512" xmlns="http://www.w3.org/2000/svg"><g><path d="m432.942 367.523v104.477c0 13.807-11.193 25-25 25h-328.884c-13.807 0-25-11.193-25-25v-104.835z" fill="#f3f0f3"/><path d="m54.058 367.165v.037l348.885.32v104.478c0 13.807-11.193 25-25 25h40c13.807 0 25-11.193 25-25v-104.477z" fill="#e2dee2"/><path d="m140.489 466.488h-4.275c-5.523 0-10-4.477-10-10v-15.938l10-14.02c0-5.523-5.523-10 0-10h4.275c5.523 0 10 4.477 10 10v29.959c0 5.522-4.477 9.999-10 9.999z" fill="#cbc4cc"/><path d="m246.136 466.488h-8.275c-5.523 0-10-4.477-10-10v-15.938l10-14.02c0-5.523 4.477-10 10-10h-1.725c5.523 0 10 4.477 10 10v29.959c0 5.522-4.477 9.999-10 9.999z" fill="#cbc4cc"/><path d="m259.14 426.53 10 14.02v15.94c0 5.52-4.48 10-10 10h-19c5.52 0 10-4.48 10-10v-15.94l-10-14.02c0-5.52-4.48-10-10-10h19c5.52 0 10 4.48 10 10z" fill="#b5adb6"/><path d="m258.137 416.53-7.997 24.02h-22.283v-24.02c0-5.52 4.48-10 10-10h10.28c5.52 0 10 4.48 10 10z" fill="#ffe177"/><path d="m269.14 416.53v24.02h-19v-24.02c0-5.52-4.48-10-10-10h19c5.52 0 10 4.48 10 10z" fill="#ffd15b"/><path d="m157.489 426.53 10 14.02v15.94c0 5.52-4.48 10-10 10h-19c5.52 0 10-4.48 10-10v-15.94l-10-14.02c0-5.52-4.48-10-10-10h19c5.52 0 10 4.48 10 10z" fill="#b5adb6"/><path d="m157.49 416.53-9.001 24.02h-22.279v-24.02c0-5.52 4.48-10 10-10h11.28c5.52 0 10 4.48 10 10z" fill="#ffe177"/><path d="m167.489 416.53v24.02h-19v-24.02c0-5.52-4.48-10-10-10h19c5.52 0 10 4.48 10 10z" fill="#ffd15b"/><path d="m353.786 456.488h-4.275c-5.523 0-10-4.477-10-10l-10-14.688v-15.27c0-5.523 4.477-10 10-10h4.275c5.523 0 10 4.477 10 10l10 29.959c0 5.522-4.477 9.999-10 9.999z" fill="#cbc4cc"/><path d="m370.79 416.53v15.27l-10 14.69c0 5.52-4.48 10-10 10h-19c5.52 0 10-4.48 10-10l10-14.69v-15.27c0-5.52-4.48-10-10-10h19c5.52 0 10 4.48 10 10z" fill="#b5adb6"/><path d="m351.79 431.8 9 24.69c0 5.52 5.52 8 0 8l-18.47 2h-2.81c-5.52 0-10-4.48-10-10v-24.69z" fill="#fd8087"/><path d="m370.79 431.8v24.69c0 5.52-4.48 10-10 10h-19c5.52 0 10-4.48 10-10v-24.69z" fill="#fe646f"/><path d="m447.707 375.868h-408.414c-13.807 0-25-11.193-25-25v-325.868c0-13.807 11.193-25 25-25h408.414c13.807 0 25 11.193 25 25v325.868c0 13.807-11.193 25-25 25z" fill="#7a6d79"/><path d="m420.97 337.867h-344.94c-11.383 0-20.61-9.228-20.61-20.61v-258.646c0-11.383 9.227-20.61 20.61-20.61h344.94c11.383 0 20.61 9.227 20.61 20.61l10 121.847-10 136.799c0 11.382-9.227 20.61-20.61 20.61z" fill="#f3f0f3"/><path d="m389.039 273.696c0 12.656-8.26 20.916-20.916 20.916-3.604 0-7.014 1.168-10.047-.314-7.62-3.723-12.869-11.55-12.869-20.602 0-9.021 5.212-16.824 12.789-20.563 3.054-1.507 6.492-.354 10.128-.354 12.655.001 20.915 8.261 20.915 20.917z" fill="#ffe177"/><path d="m391.04 273.7c0 12.65-10.26 22.91-22.92 22.91-3.58 0-6.97-.82-9.99-2.29 7.64-3.72 12.91-11.56 12.91-20.62 0-9.07-5.27-16.91-12.91-20.63 3.02-1.47 6.41-2.29 9.99-2.29 12.66 0 22.92 10.26 22.92 22.92z" fill="#ffd15b"/><path d="m306.366 281.196h-217.362c-4.142 0-7.5-3.358-7.5-7.5s3.358-7.5 7.5-7.5h217.362c4.142 0 7.5 3.358 7.5 7.5s-3.358 7.5-7.5 7.5z" fill="#7a6d79"/><path d="m272.155 304.112c-4.142 0-7.5-3.358-7.5-7.5v-45.832c0-4.142 3.358-7.5 7.5-7.5s7.5 3.358 7.5 7.5v45.833c0 4.141-3.358 7.499-7.5 7.499z" fill="#fd8087"/><path d="m335.748 213.095h-231.744c-8.284 0-15-6.716-15-15v-98.329c0-8.284 6.716-15 15-15h231.744c8.284 0 22.248 6.716 22.248 15v98.328c0 8.285-13.964 15.001-22.248 15.001z" fill="#cbc4cc"/><g fill="#f3f0f3"><path d="m168.752 244.05c-4.142 0-7.5-3.358-7.5-7.5v-177.095c0-4.142 3.358-7.5 7.5-7.5s7.5 3.358 7.5 7.5v177.095c0 4.142-3.358 7.5-7.5 7.5z"/><path d="m248.5 244.05c-4.142 0-7.5-3.358-7.5-7.5v-177.095c0-4.142 3.358-7.5 7.5-7.5s7.5 3.358 7.5 7.5v177.095c0 4.142-3.358 7.5-7.5 7.5z"/><path d="m328.248 244.05c-4.142 0-7.5-3.358-7.5-7.5v-177.095c0-4.142 3.358-7.5 7.5-7.5s7.5 3.358 7.5 7.5v177.095c0 4.142-3.358 7.5-7.5 7.5z"/></g><path d="m392.996 213.095h-57.248v-128.329h57.248c8.284 0 15 6.716 15 15v98.328c0 8.285-6.715 15.001-15 15.001z" fill="#fd8087"/><g><g><path d="m368.122 180.458c-11.498 0-20.852-9.354-20.852-20.852v-21.353c0-11.498 9.354-20.852 20.852-20.852 11.497 0 20.852 9.354 20.852 20.852v21.353c0 11.498-9.354 20.852-20.852 20.852zm0-48.056c-3.227 0-5.852 2.625-5.852 5.852v21.353c0 3.227 2.625 5.852 5.852 5.852s5.852-2.625 5.852-5.852v-21.353c0-3.227-2.625-5.852-5.852-5.852z" fill="#f3f0f3"/></g></g><path d="m457.707 0h-41.127c13.807 0 25 11.193 25 25v325.868c0 13.807-11.193 25-25 25h41.127c13.807 0 25-11.193 25-25v-325.868c0-13.807-11.193-25-25-25z" fill="#685e68"/></g></svg>