<svg id="Line" height="512" viewBox="0 0 64 64" width="512" xmlns="http://www.w3.org/2000/svg"><path d="m54 27h-37v-4h1a1 1 0 0 0 1-1v-3h21a1 1 0 0 0 1-1v-6a1 1 0 0 0 -1-1h-24a1 1 0 0 0 0 2h23v4h-21a1 1 0 0 0 -1 1v3h-12v-3a5.0059 5.0059 0 0 1 5-5 1 1 0 0 0 0-2 7.0078 7.0078 0 0 0 -7 7v4a1 1 0 0 0 1 1h1v6.11a6.9735 6.9735 0 0 0 -2 4.89v8a1 1 0 0 0 2 0v-8a5.0059 5.0059 0 0 1 5-5h44a5.0059 5.0059 0 0 1 5 5v1h-1a1 1 0 0 0 -1 1v5h-8v-4h3a1 1 0 0 0 0-2h-20a13.0144 13.0144 0 0 0 -13 13v3h-14v-3a1 1 0 0 0 -2 0v4a1 1 0 0 0 1 1h16a1 1 0 0 0 1-1v-4a11.0125 11.0125 0 0 1 11-11h15v5a1 1 0 0 0 1 1h10a1 1 0 0 0 1-1v-5h1a1 1 0 0 0 1-1v-2a7.0078 7.0078 0 0 0 -7-7zm-47 .685v-4.685h8v4h-5a6.9459 6.9459 0 0 0 -3 .685z"/></svg>