<?xml version="1.0"?>
<svg xmlns="http://www.w3.org/2000/svg" viewBox="0 0 72 72"><g id="home_renovation" data-name="home renovation"><path d="M60,48a1,1,0,0,0,1-1V26.88c.48.27,1.5,1.33,2.12,1.12a1,1,0,0,0,.66-.46l2.07-3.39a1,1,0,0,0-.27-1.34L61,19.56V11h1a1,1,0,0,0,1-1V6a1,1,0,0,0-1-1H52a1,1,0,0,0-1,1v4a1,1,0,0,0,1,1h1v2.85L36.58,2.21a1,1,0,0,0-1.16,0L25.84,9A1,1,0,0,0,27,10.65l9-6.4L63.66,23.9l-1,1.68L36.58,7a1,1,0,0,0-1.16,0L9.37,25.58l-1-1.68L24.61,12.34a1,1,0,0,0-1.16-1.63l-17,12.1a1,1,0,0,0-.27,1.34l2.07,3.39a1,1,0,0,0,1.44.3l1.34-1V60H9a1,1,0,0,0-1,1v4a1,1,0,0,0,1,1H32c.14,5.28,7.87,5.27,8,0H63a1,1,0,0,0,1-1V61a1,1,0,0,0-1-1H61V50a1,1,0,0,0-2,0V60H40V57.85A3,3,0,0,0,42,55V53a1,1,0,0,0-1-1H37V48.74a1,1,0,0,1,.85-1l16.6-2.49a3,3,0,0,0,2.55-3V33a3,3,0,0,0-3-3H53V28a3,3,0,0,0-3-3H18a3,3,0,0,0-3,3v6a3,3,0,0,0,3,3h1V47a3,3,0,1,0,6-.1c.06-.73-.21-2.23.31-2.61a1,1,0,0,1,1.4,0A.94.94,0,0,1,27,45a3,3,0,1,0,6-.1V43.85a3.07,3.07,0,0,0,4-3V37H50a3,3,0,0,0,3-3V32h1a1,1,0,0,1,1,1V42.3a1,1,0,0,1-.85,1l-16.6,2.49a3,3,0,0,0-2.55,3V52H31a1,1,0,0,0-1,1v2a3,3,0,0,0,2,2.83V60H13V25.45L36,9.05l23,16.4V47A1,1,0,0,0,60,48ZM53,7h8V9H53Zm2,4h4v7.12l-4-2.85ZM18,35a1,1,0,0,1-1-1V28a1,1,0,0,1,1-1h1v8Zm17,5.86c-.06,1.25-1.55,1.56-2,.46a1.05,1.05,0,0,0-2,.31v3.27a1,1,0,0,1-1.58.92A1,1,0,0,1,29,45a3,3,0,0,0-.87-2.11,3.07,3.07,0,0,0-4.24,0A3,3,0,0,0,23,45c-.08.91.34,2.63-.66,2.94A1,1,0,0,1,21,47V27H39v3.84A1.13,1.13,0,0,1,38.15,32a1,1,0,0,1-1.1-.67,1.05,1.05,0,0,0-2,.31ZM51,34a1,1,0,0,1-1,1H37V33.85a3,3,0,0,0,4-3V27h9a1,1,0,0,1,1,1Zm9,28h2v2H40V62ZM32,54h8v1a1,1,0,0,1-1,1,1,1,0,0,0-1,1v9a2,2,0,0,1-4,0V57a1,1,0,0,0-1-1,1,1,0,0,1-1-1Zm0,8v2H10V62H32Z"/><path d="M25,56c0-1.28-1.52-3.62-2.18-4.57a1,1,0,0,0-1.64,0C20.52,52.4,19,54.74,19,56A3,3,0,0,0,25,56Zm-4,0a7.46,7.46,0,0,1,1-2.14A7.46,7.46,0,0,1,23,56,1,1,0,0,1,21,56Z"/></g></svg>
