<svg id="Layer_1" enable-background="new 0 0 24 24" viewBox="0 0 24 24" xmlns="http://www.w3.org/2000/svg"><g><g><path d="m22.002 22.737h-20.004c-.826 0-1.498-.672-1.498-1.498v-18.092c0-.826.672-1.498 1.498-1.498h20.005c.826 0 1.498.672 1.498 1.498v18.092c-.001.826-.673 1.498-1.499 1.498zm-20.004-20.087c-.275 0-.498.223-.498.497v18.092c0 .274.223.498.498.498h20.005c.274 0 .498-.223.498-.498v-18.092c0-.274-.223-.498-.498-.498h-20.005z"/></g><g><path d="m12 20.65c-4.687 0-8.5-3.813-8.5-8.5s3.813-8.5 8.5-8.5 8.5 3.813 8.5 8.5-3.813 8.5-8.5 8.5zm0-16c-4.136 0-7.5 3.364-7.5 7.5s3.364 7.5 7.5 7.5 7.5-3.364 7.5-7.5-3.364-7.5-7.5-7.5z"/></g><g><path d="m8 13.65c-.827 0-1.5-.673-1.5-1.5s.673-1.5 1.5-1.5 1.5.673 1.5 1.5-.673 1.5-1.5 1.5zm0-2c-.276 0-.5.224-.5.5s.224.5.5.5.5-.224.5-.5-.224-.5-.5-.5z"/></g><g><path d="m16 13.65c-.827 0-1.5-.673-1.5-1.5s.673-1.5 1.5-1.5 1.5.673 1.5 1.5-.673 1.5-1.5 1.5zm0-2c-.276 0-.5.224-.5.5s.224.5.5.5.5-.224.5-.5-.224-.5-.5-.5z"/></g><g><path d="m13 20.15c-.276 0-.5-.224-.5-.5v-1h-1v1c0 .276-.224.5-.5.5s-.5-.224-.5-.5v-1.5c0-.276.224-.5.5-.5h2c.276 0 .5.224.5.5v1.5c0 .276-.224.5-.5.5z"/></g><g><path d="m13 6.65h-2c-.276 0-.5-.224-.5-.5v-1.5c0-.276.224-.5.5-.5s.5.224.5.5v1h1v-1c0-.276.224-.5.5-.5s.5.224.5.5v1.5c0 .276-.224.5-.5.5z"/></g></g><g/><g/><g/><g/><g/><g/><g/><g/><g/><g/><g/><g/><g/><g/><g/></svg>