<svg enable-background="new 0 0 512 512" viewBox="0 0 512 512" xmlns="http://www.w3.org/2000/svg"><g id="_x30_8_Wallpaper"><g><path d="m483.888 132.01c-7.102.204-7.912-.462-10.114.658-2.4-15.064-15.374-26.646-31.099-26.646h-15.255v-56.637c0-17.427-14.177-31.604-31.608-31.604h-276.282c-17.423 0-31.601 14.177-31.601 31.604v357.925h-38.561c-23.959 0-43.368 19.305-43.368 43.28 0 23.911 19.453 43.364 43.368 43.364 355.851.266 335.734.443 340.362-.026 21.49-2.484 37.689-20.717 37.689-42.408v-230.424l61.472-12.256c10.075-2.341 17.109-11.199 17.109-21.538v-33.183c0-12.192-9.921-22.109-22.112-22.109zm-20.867 5.616c0 11.217-9.129 20.347-20.347 20.347h-108.401c-11.217 0-20.347-9.129-20.347-20.347 0-11.221 9.129-20.35 20.347-20.35h108.401c11.217 0 20.347 9.129 20.347 20.35zm-413.653 345.074c-17.709 0-32.114-14.405-32.114-32.11 0-17.759 14.353-32.026 32.114-32.026h304.951c-8.69 8.001-14.068 19.449-14.068 32.026 0 12.613 5.385 24.094 14.09 32.11zm366.797-31.18c0 15.471-11.322 29.307-28.1 31.179h-8.202c-16.176-2.017-28.357-15.774-28.357-32.11 0-16.354 12.272-30.135 28.545-32.066 2.96-.348 5.136-2.945 4.96-5.916-.176-2.975-2.638-5.297-5.62-5.297h-280.208v-357.925c0-11.221 9.129-20.35 20.347-20.35h276.281c11.225 0 20.354 9.129 20.354 20.35v56.637h-81.892c-17.423 0-31.601 14.177-31.601 31.604 0 17.423 14.177 31.601 31.601 31.601h81.892v42.642l-36.803 7.338c-10.074 2.341-17.108 11.199-17.108 21.534v26.143c-10.239 2.352-17.914 11.494-17.914 22.438v64.949c0 12.719 10.346 23.065 23.065 23.065s23.065-10.346 23.065-23.065v-64.949c0-10.593-7.216-19.446-16.962-22.141v-26.439c0-5.074 3.458-9.422 8.228-10.536l34.429-6.865zm-48.76-174.009c6.514 0 11.811 5.297 11.811 11.811v64.949c0 6.514-5.297 11.811-11.811 11.811s-11.811-5.297-11.811-11.811v-64.949c0-6.514 5.297-11.811 11.811-11.811zm127.341-90.209c0 5.078-3.458 9.426-8.228 10.54l-59.098 11.783v-40.399h15.255c15.718 0 28.688-11.57 31.097-26.622 2.208 1.123 3.017.454 10.117.659 5.986 0 10.858 4.869 10.858 10.855v33.184z"/><path d="m150.376 65.852c-3.107 0-5.627 2.52-5.627 5.627v8.213c0 3.107 2.52 5.627 5.627 5.627s5.627-2.52 5.627-5.627v-8.213c0-3.106-2.521-5.627-5.627-5.627z"/><path d="m150.376 99.42c-3.107 0-5.627 2.52-5.627 5.627v8.213c0 3.107 2.52 5.627 5.627 5.627s5.627-2.52 5.627-5.627v-8.213c0-3.106-2.521-5.627-5.627-5.627z"/><path d="m137.7 86.745h-8.213c-3.107 0-5.627 2.52-5.627 5.627s2.52 5.627 5.627 5.627h8.213c3.107 0 5.627-2.52 5.627-5.627s-2.52-5.627-5.627-5.627z"/><path d="m171.272 86.745h-8.213c-3.107 0-5.627 2.52-5.627 5.627s2.52 5.627 5.627 5.627h8.213c3.107 0 5.627-2.52 5.627-5.627s-2.52-5.627-5.627-5.627z"/><path d="m225.667 65.852c-3.107 0-5.627 2.52-5.627 5.627v8.213c0 3.107 2.52 5.627 5.627 5.627s5.627-2.52 5.627-5.627v-8.213c0-3.106-2.521-5.627-5.627-5.627z"/><path d="m225.667 99.42c-3.107 0-5.627 2.52-5.627 5.627v8.213c0 3.107 2.52 5.627 5.627 5.627s5.627-2.52 5.627-5.627v-8.213c0-3.106-2.521-5.627-5.627-5.627z"/><path d="m212.991 86.745h-8.213c-3.107 0-5.627 2.52-5.627 5.627s2.52 5.627 5.627 5.627h8.213c3.107 0 5.627-2.52 5.627-5.627s-2.52-5.627-5.627-5.627z"/><path d="m246.556 86.745h-8.213c-3.107 0-5.627 2.52-5.627 5.627s2.52 5.627 5.627 5.627h8.213c3.107 0 5.627-2.52 5.627-5.627s-2.521-5.627-5.627-5.627z"/><path d="m150.376 151.419c-3.107 0-5.627 2.52-5.627 5.627v8.213c0 3.107 2.52 5.627 5.627 5.627s5.627-2.52 5.627-5.627v-8.213c0-3.106-2.521-5.627-5.627-5.627z"/><path d="m150.376 184.983c-3.107 0-5.627 2.52-5.627 5.627v8.213c0 3.107 2.52 5.627 5.627 5.627s5.627-2.52 5.627-5.627v-8.213c0-3.106-2.521-5.627-5.627-5.627z"/><path d="m137.7 172.308h-8.213c-3.107 0-5.627 2.52-5.627 5.627s2.52 5.627 5.627 5.627h8.213c3.107 0 5.627-2.52 5.627-5.627s-2.52-5.627-5.627-5.627z"/><path d="m171.272 172.308h-8.213c-3.107 0-5.627 2.52-5.627 5.627s2.52 5.627 5.627 5.627h8.213c3.107 0 5.627-2.52 5.627-5.627s-2.52-5.627-5.627-5.627z"/><path d="m225.667 151.419c-3.107 0-5.627 2.52-5.627 5.627v8.213c0 3.107 2.52 5.627 5.627 5.627s5.627-2.52 5.627-5.627v-8.213c0-3.106-2.521-5.627-5.627-5.627z"/><path d="m225.667 184.983c-3.107 0-5.627 2.52-5.627 5.627v8.213c0 3.107 2.52 5.627 5.627 5.627s5.627-2.52 5.627-5.627v-8.213c0-3.106-2.521-5.627-5.627-5.627z"/><path d="m212.991 172.308h-8.213c-3.107 0-5.627 2.52-5.627 5.627s2.52 5.627 5.627 5.627h8.213c3.107 0 5.627-2.52 5.627-5.627s-2.52-5.627-5.627-5.627z"/><path d="m246.556 172.308h-8.213c-3.107 0-5.627 2.52-5.627 5.627s2.52 5.627 5.627 5.627h8.213c3.107 0 5.627-2.52 5.627-5.627s-2.521-5.627-5.627-5.627z"/><path d="m150.376 236.982c-3.107 0-5.627 2.52-5.627 5.627v8.217c0 3.107 2.52 5.627 5.627 5.627s5.627-2.52 5.627-5.627v-8.217c0-3.106-2.521-5.627-5.627-5.627z"/><path d="m150.376 270.55c-3.107 0-5.627 2.52-5.627 5.627v8.213c0 3.107 2.52 5.627 5.627 5.627s5.627-2.52 5.627-5.627v-8.213c0-3.106-2.521-5.627-5.627-5.627z"/><path d="m137.7 257.875h-8.213c-3.107 0-5.627 2.52-5.627 5.627s2.52 5.627 5.627 5.627h8.213c3.107 0 5.627-2.52 5.627-5.627s-2.52-5.627-5.627-5.627z"/><path d="m171.272 257.875h-8.213c-3.107 0-5.627 2.52-5.627 5.627s2.52 5.627 5.627 5.627h8.213c3.107 0 5.627-2.52 5.627-5.627s-2.52-5.627-5.627-5.627z"/><path d="m225.667 236.982c-3.107 0-5.627 2.52-5.627 5.627v8.217c0 3.107 2.52 5.627 5.627 5.627s5.627-2.52 5.627-5.627v-8.217c0-3.106-2.521-5.627-5.627-5.627z"/><path d="m225.667 270.55c-3.107 0-5.627 2.52-5.627 5.627v8.213c0 3.107 2.52 5.627 5.627 5.627s5.627-2.52 5.627-5.627v-8.213c0-3.106-2.521-5.627-5.627-5.627z"/><path d="m212.991 257.875h-8.213c-3.107 0-5.627 2.52-5.627 5.627s2.52 5.627 5.627 5.627h8.213c3.107 0 5.627-2.52 5.627-5.627s-2.52-5.627-5.627-5.627z"/><path d="m246.556 257.875h-8.213c-3.107 0-5.627 2.52-5.627 5.627s2.52 5.627 5.627 5.627h8.213c3.107 0 5.627-2.52 5.627-5.627s-2.521-5.627-5.627-5.627z"/><path d="m300.95 236.982c-3.107 0-5.627 2.52-5.627 5.627v8.217c0 3.107 2.52 5.627 5.627 5.627s5.627-2.52 5.627-5.627v-8.217c0-3.106-2.52-5.627-5.627-5.627z"/><path d="m300.95 270.55c-3.107 0-5.627 2.52-5.627 5.627v8.213c0 3.107 2.52 5.627 5.627 5.627s5.627-2.52 5.627-5.627v-8.213c0-3.106-2.52-5.627-5.627-5.627z"/><path d="m288.275 257.875h-8.213c-3.107 0-5.627 2.52-5.627 5.627s2.52 5.627 5.627 5.627h8.213c3.107 0 5.627-2.52 5.627-5.627s-2.521-5.627-5.627-5.627z"/><path d="m321.839 257.875h-8.213c-3.107 0-5.627 2.52-5.627 5.627s2.52 5.627 5.627 5.627h8.213c3.107 0 5.627-2.52 5.627-5.627s-2.52-5.627-5.627-5.627z"/><path d="m150.376 322.549c-3.107 0-5.627 2.52-5.627 5.627v8.213c0 3.107 2.52 5.627 5.627 5.627s5.627-2.52 5.627-5.627v-8.213c0-3.107-2.521-5.627-5.627-5.627z"/><path d="m150.376 356.117c-3.107 0-5.627 2.52-5.627 5.627v8.213c0 3.107 2.52 5.627 5.627 5.627s5.627-2.52 5.627-5.627v-8.213c0-3.106-2.521-5.627-5.627-5.627z"/><path d="m137.7 343.438h-8.213c-3.107 0-5.627 2.52-5.627 5.627s2.52 5.627 5.627 5.627h8.213c3.107 0 5.627-2.52 5.627-5.627s-2.52-5.627-5.627-5.627z"/><path d="m171.272 343.438h-8.213c-3.107 0-5.627 2.52-5.627 5.627s2.52 5.627 5.627 5.627h8.213c3.107 0 5.627-2.52 5.627-5.627s-2.52-5.627-5.627-5.627z"/><path d="m225.667 322.549c-3.107 0-5.627 2.52-5.627 5.627v8.213c0 3.107 2.52 5.627 5.627 5.627s5.627-2.52 5.627-5.627v-8.213c0-3.107-2.521-5.627-5.627-5.627z"/><path d="m225.667 356.117c-3.107 0-5.627 2.52-5.627 5.627v8.213c0 3.107 2.52 5.627 5.627 5.627s5.627-2.52 5.627-5.627v-8.213c0-3.106-2.521-5.627-5.627-5.627z"/><path d="m212.991 343.438h-8.213c-3.107 0-5.627 2.52-5.627 5.627s2.52 5.627 5.627 5.627h8.213c3.107 0 5.627-2.52 5.627-5.627s-2.52-5.627-5.627-5.627z"/><path d="m246.556 343.438h-8.213c-3.107 0-5.627 2.52-5.627 5.627s2.52 5.627 5.627 5.627h8.213c3.107 0 5.627-2.52 5.627-5.627s-2.521-5.627-5.627-5.627z"/><path d="m300.95 322.549c-3.107 0-5.627 2.52-5.627 5.627v8.213c0 3.107 2.52 5.627 5.627 5.627s5.627-2.52 5.627-5.627v-8.213c0-3.107-2.52-5.627-5.627-5.627z"/><path d="m300.95 356.117c-3.107 0-5.627 2.52-5.627 5.627v8.213c0 3.107 2.52 5.627 5.627 5.627s5.627-2.52 5.627-5.627v-8.213c0-3.106-2.52-5.627-5.627-5.627z"/><path d="m288.275 343.438h-8.213c-3.107 0-5.627 2.52-5.627 5.627s2.52 5.627 5.627 5.627h8.213c3.107 0 5.627-2.52 5.627-5.627s-2.521-5.627-5.627-5.627z"/><path d="m321.839 343.438h-8.213c-3.107 0-5.627 2.52-5.627 5.627s2.52 5.627 5.627 5.627h8.213c3.107 0 5.627-2.52 5.627-5.627s-2.52-5.627-5.627-5.627z"/></g></g><g id="Layer_1"/></svg>