<svg id="&#x421;&#x43B;&#x43E;&#x439;_1" enable-background="new 0 0 300 300" viewBox="0 0 300 300" xmlns="http://www.w3.org/2000/svg"><g fill="#333"><path d="m39.687 268.423h205.917c1.134 0 2.054-.919 2.054-2.054v-145.293l13.367-4.943c.806-.298 1.342-1.066 1.342-1.926v-24.013c0-1.134-.919-2.054-2.054-2.054h-12.655v-1.247c0-8.746-7.115-15.862-15.862-15.862h-102.789v-19.982c0-10.736-8.735-19.471-19.471-19.471-7.069 0-13.542 3.885-16.952 9.928-1.951-1.513-4.372-2.366-6.89-2.366-6.206 0-11.255 5.049-11.255 11.255v1.389c0 3.941-3.207 7.148-7.149 7.148-3.941 0-7.147-3.207-7.147-7.148v-1.389c0-6.206-5.049-11.255-11.255-11.255-6.205 0-11.255 5.049-11.255 11.255v215.975c.001 1.133.92 2.053 2.054 2.053zm2.054-218.029c0-3.941 3.207-7.148 7.148-7.148s7.148 3.207 7.148 7.148v1.389c0 6.206 5.049 11.255 11.255 11.255s11.256-5.049 11.256-11.255v-1.389c0-3.941 3.206-7.148 7.147-7.148 2.102 0 4.09.946 5.445 2.545v33.539c0 1.134.919 2.054 2.054 2.054s2.054-.919 2.054-2.054v-33.856c2.291-5.867 7.987-9.79 14.29-9.79 8.471 0 15.364 6.893 15.364 15.364v20.099c-7.875.922-14.009 7.626-14.009 15.745v6.901c0 8.12 6.136 14.825 14.013 15.745v48.716c0 1.136.917 2.054 2.054 2.054 1.123 0 2.054-.917 2.054-2.054v-48.599h14.854v13.004c0 1.136.918 2.054 2.054 2.054s2.054-.917 2.054-2.054v-13.004h11.418v25.325c0 1.136.931 2.054 2.054 2.054 1.136 0 2.054-.917 2.054-2.054v-25.325h35.567v7.528c0 1.136.918 2.054 2.054 2.054s2.054-.917 2.054-2.054v-7.528h28.624c4.663 0 8.85-2.036 11.755-5.25v13.81l-59.435 21.98c-.806.298-1.342 1.066-1.342 1.926v10.854h-1.554c-.786 0-1.503.449-1.846 1.156l-7.97 16.39c-1.437 2.417-1.513 5.459-.192 7.966 1.093 2.075 1.671 3.921 1.671 5.34v25.211c0 1.531-.509 3.046-1.433 4.266l-2.846 3.755c-1.461 1.931-2.266 4.326-2.266 6.869 0 6.16 5.012 11.172 11.172 11.172h14.485c6.159 0 11.172-5.012 11.172-11.172v-.123c0-2.42-.805-4.816-2.267-6.746l-2.844-3.755c-.924-1.221-1.434-2.735-1.434-4.266v-25.211c0-1.419.578-3.265 1.672-5.34 1.321-2.507 1.245-5.55-.193-7.966l-7.969-16.39c-.344-.707-1.061-1.156-1.847-1.156h-1.408v-9.424l56.67-20.957v141.72h-170.329v-31.267c0-1.134-.919-2.054-2.054-2.054-1.134 0-2.054.919-2.054 2.054v31.267h-27.374zm201.81 41.853v1.547c0 6.482-5.273 11.755-11.755 11.755h-30.658c-.007 0-.013-.002-.02-.002s-.013.002-.019.002h-39.636c-.007 0-.013-.002-.019-.002-.007 0-.013.002-.02.002h-15.485c-.007 0-.013-.002-.02-.002s-.013.002-.02.002h-18.921c-.007 0-.013-.002-.02-.002s-.013.002-.019.002h-.184c-6.482 0-11.756-5.274-11.756-11.755v-6.901c0-6.482 5.274-11.755 11.756-11.755h105.042c6.482 0 11.755 5.274 11.755 11.755v5.354zm-51.032 91.581v25.211c0 2.42.805 4.816 2.267 6.746l2.844 3.755c.925 1.221 1.434 2.735 1.434 4.266v.123c0 3.895-3.17 7.064-7.064 7.064h-14.49c-3.895 0-7.064-3.169-7.064-7.188 0-1.531.509-3.046 1.433-4.266l2.845-3.755c1.462-1.931 2.267-4.326 2.267-6.746v-25.211c0-2.074-.705-4.468-2.076-7.11h19.681c-1.372 2.644-2.077 5.038-2.077 7.111zm-17.572-11.217c.006-.011.009-.023.015-.034.035-.057.067-.116.096-.176l7.447-15.318h4.5l7.448 15.318c.029.06.062.119.096.176.007.011.009.023.015.034zm83.312-59.834-10.601 3.92v-22.903-1.547h10.601z"/><path d="m145.921 212.463c-1.134 0-2.054.919-2.054 2.054v18.532c0 1.134.92 2.054 2.054 2.054s2.054-.919 2.054-2.054v-18.532c-.001-1.135-.921-2.054-2.054-2.054z"/><path d="m56.354 80.518c-1.134 0-2.054.919-2.054 2.054v19.444c0 1.134.919 2.054 2.054 2.054s2.054-.919 2.054-2.054v-19.445c0-1.134-.919-2.053-2.054-2.053z"/><path d="m126.957 168.524c1.123 0 2.054-.917 2.054-2.054 0-1.136-.931-2.054-2.054-2.054-1.136 0-2.054.917-2.054 2.054.001 1.136.918 2.054 2.054 2.054z"/><circle cx="145.919" cy="130.875" r="2.054"/><circle cx="201.118" cy="125.399" r="2.054"/><path d="m161.444 145.25c1.136 0 2.054-.917 2.054-2.054s-.917-2.054-2.054-2.054c-1.123 0-2.054.917-2.054 2.054s.931 2.054 2.054 2.054z"/></g></svg>