<svg height="512" viewBox="0 0 60 60" width="512" xmlns="http://www.w3.org/2000/svg"><g id="Icons_copy" data-name="Icons copy"><rect fill="#00bcd4" height="6" rx="2" width="14" x="23" y="1"/><path d="m35 1h-3a2 2 0 0 1 2 2v2a2 2 0 0 1 -2 2h3a2 2 0 0 0 2-2v-2a2 2 0 0 0 -2-2z" fill="#00838f"/><path d="m25 7h10v4.67h-10z" fill="#607d8b"/><path d="m32 7h3v4.67h-3z" fill="#37474f"/><rect fill="#00bcd4" height="6" rx="2" width="14" x="23" y="53"/><path d="m35 53h-3a2 2 0 0 1 2 2v2a2 2 0 0 1 -2 2h3a2 2 0 0 0 2-2v-2a2 2 0 0 0 -2-2z" fill="#00838f"/><path d="m25 48.33h10v4.67h-10z" fill="#607d8b"/><path d="m32 48.33h3v4.67h-3z" fill="#37474f"/><circle cx="30" cy="30" fill="#3f51b5" r="19"/><path d="m30 11c-.506 0-1 .037-1.5.076a18.982 18.982 0 0 1 0 37.848c.5.039.994.076 1.5.076a19 19 0 0 0 0-38z" fill="#283593"/><circle cx="30" cy="30" fill="#00bcd4" r="15"/><path d="m30 15c-.506 0-1.006.027-1.5.076a15 15 0 0 1 0 29.848c.494.049.994.076 1.5.076a15 15 0 0 0 0-30z" fill="#00838f"/><rect fill="#f5f5f5" height="6" rx="1" width="18" x="21" y="23"/><path d="m38 23h-3a1 1 0 0 1 1 1v4a1 1 0 0 1 -1 1h3a1 1 0 0 0 1-1v-4a1 1 0 0 0 -1-1z" fill="#cfd8dc"/><path d="m33 37.96a3 3 0 0 1 -5.974.408c-.254-2.034 1.41-2.952 2.54-6.067a.463.463 0 0 1 .869 0c1.052 2.899 2.565 3.899 2.565 5.659z" fill="#02a9f4"/><path d="m30.435 32.3a.463.463 0 0 0 -.869 0 13.386 13.386 0 0 1 -1.066 2.243c.787 1.348 1.5 2.208 1.5 3.417a3.029 3.029 0 0 1 -1.52 2.628 2.777 2.777 0 0 0 .75.316 3.013 3.013 0 0 0 3.77-2.944c0-1.76-1.513-2.76-2.565-5.66z" fill="#0377bc"/><path d="m24 49.078v3.106a3 3 0 0 0 -2 2.816v2a3 3 0 0 0 3 3h10a3 3 0 0 0 3-3v-2a3 3 0 0 0 -2-2.816v-3.106a20 20 0 0 0 0-38.156v-3.106a3 3 0 0 0 2-2.816v-2a3 3 0 0 0 -3-3h-10a3 3 0 0 0 -3 3v2a3 3 0 0 0 2 2.816v3.106a20 20 0 0 0 0 38.156zm12 7.922a1 1 0 0 1 -1 1h-10a1 1 0 0 1 -1-1v-2a1 1 0 0 1 1-1h10a1 1 0 0 1 1 1zm-2-5h-8v-2.4a20.053 20.053 0 0 0 8 0zm-10-49a1 1 0 0 1 1-1h10a1 1 0 0 1 1 1v2a1 1 0 0 1 -1 1h-10a1 1 0 0 1 -1-1zm2 5h8v2.4a20.053 20.053 0 0 0 -8 0zm4 4a18 18 0 1 1 -18 18 18.021 18.021 0 0 1 18-18z"/><path d="m30 46a16 16 0 1 0 -16-16 16.019 16.019 0 0 0 16 16zm0-30a14 14 0 1 1 -14 14 14.015 14.015 0 0 1 14-14z"/><path d="m22 30h16a2 2 0 0 0 2-2v-4a2 2 0 0 0 -2-2h-16a2 2 0 0 0 -2 2v4a2 2 0 0 0 2 2zm0-6h16v4h-16z"/><path d="m31.375 31.962a1.463 1.463 0 0 0 -2.749 0 14.408 14.408 0 0 1 -1.437 2.826 5.385 5.385 0 0 0 -1.155 3.706 4 4 0 0 0 2.954 3.382 4.147 4.147 0 0 0 1.012.124 3.966 3.966 0 0 0 2.451-.841 4.029 4.029 0 0 0 1.549-3.199 5.891 5.891 0 0 0 -1.189-3.174 14.362 14.362 0 0 1 -1.436-2.824zm-.159 7.62a1.988 1.988 0 0 1 -3.2-1.338c-.1-.793.213-1.341.872-2.406a19.282 19.282 0 0 0 1.112-1.982 19.338 19.338 0 0 0 1.11 1.981 4.126 4.126 0 0 1 .89 2.123 2.042 2.042 0 0 1 -.784 1.622z"/></g></svg>