<svg xmlns="http://www.w3.org/2000/svg" xmlns:xlink="http://www.w3.org/1999/xlink" width="2000" zoomAndPan="magnify" viewBox="0 0 1500 749.999995" height="1000" preserveAspectRatio="xMidYMid meet" version="1.0"><defs><clipPath id="f822d9c3f6"><path d="M 10 325 L 677 325 L 677 736 L 10 736 Z M 10 325 " clip-rule="nonzero"/></clipPath><clipPath id="76034d052a"><path d="M -29.433594 422.226562 L 673.359375 314.492188 L 724.839844 650.320312 L 22.050781 758.054688 Z M -29.433594 422.226562 " clip-rule="nonzero"/></clipPath><clipPath id="6bf713c992"><path d="M -29.433594 422.226562 L 673.359375 314.492188 L 724.839844 650.320312 L 22.050781 758.054688 Z M -29.433594 422.226562 " clip-rule="nonzero"/></clipPath><clipPath id="0e203c7f45"><path d="M 864 14 L 1489 14 L 1489 512 L 864 512 Z M 864 14 " clip-rule="nonzero"/></clipPath><clipPath id="bffc51771e"><path d="M 1551.441406 298.238281 L 877.640625 525.210938 L 769.183594 203.234375 L 1442.980469 -23.734375 Z M 1551.441406 298.238281 " clip-rule="nonzero"/></clipPath><clipPath id="05ea72a966"><path d="M 1551.441406 298.238281 L 877.640625 525.210938 L 769.183594 203.234375 L 1442.980469 -23.734375 Z M 1551.441406 298.238281 " clip-rule="nonzero"/></clipPath></defs><g clip-path="url(#f822d9c3f6)"><g clip-path="url(#76034d052a)"><g clip-path="url(#6bf713c992)"><path fill="#09515a" d="M 674.414062 347.128906 C 671.648438 336.074219 666.917969 329.34375 659.96875 326.550781 C 642.292969 319.457031 611.644531 338.761719 569.246094 365.484375 C 518.652344 397.375 449.363281 441.046875 365.4375 462.046875 C 282.933594 482.6875 201.601562 478.335938 136.261719 474.816406 C 80.070312 471.804688 39.46875 469.617188 26.128906 485.796875 C 21.425781 491.503906 20.316406 499.242188 22.722656 509.410156 C 19.9375 514.570312 19.5625 521.132812 21.640625 529.375 C 18.691406 534.417969 18.324219 540.90625 20.511719 549.109375 C 20.539062 549.210938 20.570312 549.308594 20.597656 549.410156 C 17.527344 554.265625 17.105469 560.546875 19.320312 568.582031 C 19.398438 568.859375 19.496094 569.140625 19.578125 569.414062 C 16.367188 574.085938 15.875 580.183594 18.140625 588.054688 C 18.269531 588.511719 18.425781 588.949219 18.566406 589.394531 C 18.550781 589.414062 18.53125 589.429688 18.515625 589.453125 C 15.15625 593.929688 14.640625 599.835938 16.945312 607.53125 C 17.144531 608.1875 17.371094 608.839844 17.597656 609.496094 C 17.394531 609.730469 17.164062 609.9375 16.988281 610.183594 C 13.921875 614.386719 13.511719 619.886719 15.757812 627.003906 C 16.023438 627.851562 16.324219 628.699219 16.644531 629.539062 C 16.222656 629.972656 15.828125 630.429688 15.46875 630.914062 C 12.703125 634.839844 12.402344 639.929688 14.574219 646.476562 C 14.914062 647.515625 15.320312 648.542969 15.761719 649.566406 C 15.082031 650.191406 14.476562 650.882812 13.945312 651.640625 C 11.46875 655.292969 11.285156 659.972656 13.390625 665.949219 C 13.839844 667.207031 14.355469 668.4375 14.9375 669.640625 C 13.960938 670.421875 13.125 671.332031 12.425781 672.371094 C 10.230469 675.75 10.160156 680.019531 12.195312 685.425781 C 19.632812 705.160156 47.5625 722.363281 85.078125 730.3125 C 98.636719 733.109375 112.335938 734.675781 126.171875 735.007812 C 140.011719 735.335938 153.769531 734.429688 167.445312 732.285156 C 182.855469 729.9375 197.894531 726.125 212.5625 720.84375 C 227.234375 715.5625 241.253906 708.917969 254.625 700.902344 C 263.902344 696.804688 272.917969 692.195312 281.667969 687.070312 C 291.015625 682.933594 300.121094 678.316406 308.980469 673.21875 C 318.398438 669.03125 327.597656 664.398438 336.515625 659.332031 C 345.660156 655.238281 354.597656 650.75 363.316406 645.878906 C 372.785156 641.644531 382.023438 636.96875 391.050781 631.957031 C 400.425781 627.738281 409.597656 623.164062 418.574219 618.230469 C 427.835938 614.042969 436.917969 609.53125 445.820312 604.695312 C 455.292969 600.410156 464.582031 595.796875 473.695312 590.859375 C 486.453125 585.113281 498.90625 578.769531 511.050781 571.820312 C 523.199219 564.875 534.980469 557.359375 546.40625 549.277344 C 557.828125 541.195312 568.835938 532.582031 579.425781 523.4375 C 590.019531 514.292969 600.144531 504.660156 609.808594 494.539062 C 659.285156 442.089844 684.042969 385.605469 674.414062 347.128906 Z M 23.140625 511.070312 C 24.269531 515.25 25.769531 519.289062 27.644531 523.191406 C 25.921875 524.320312 24.398438 525.679688 23.082031 527.261719 C 22.867188 527.535156 22.691406 527.832031 22.496094 528.109375 C 21.664062 525.308594 21.304688 522.453125 21.414062 519.535156 C 21.523438 516.617188 22.097656 513.796875 23.140625 511.070312 Z M 255.753906 696.34375 C 204.875 713.207031 149.394531 715.511719 99.53125 702.832031 C 67.4375 694.664062 41.609375 680.96875 26.886719 664.992188 C 29.261719 664.40625 31.871094 663.894531 34.710938 663.464844 C 37.757812 663 41.078125 662.609375 44.613281 662.265625 C 60.492188 673.6875 81.730469 683.417969 106.488281 690.128906 C 116.523438 692.777344 126.667969 694.902344 136.921875 696.503906 C 147.179688 698.101562 157.488281 699.167969 167.855469 699.695312 C 178.21875 700.226562 188.585938 700.222656 198.949219 699.679688 C 209.316406 699.136719 219.625 698.058594 229.878906 696.445312 C 245.519531 694.050781 260.890625 690.484375 275.988281 685.746094 L 276.070312 685.71875 C 273.042969 688.007812 269.964844 690.234375 266.832031 692.382812 C 263.152344 693.777344 259.476562 695.109375 255.753906 696.34375 Z M 264.195312 694.140625 C 261.105469 696.195312 257.976562 698.195312 254.789062 700.117188 C 248.546875 702.878906 242.207031 705.429688 235.757812 707.699219 C 224.304688 711.761719 212.628906 715.003906 200.722656 717.421875 C 188.816406 719.839844 176.796875 721.414062 164.671875 722.140625 C 152.542969 722.867188 140.421875 722.742188 128.3125 721.761719 C 116.203125 720.78125 104.222656 718.960938 92.367188 716.292969 C 54.195312 707.324219 25.425781 689.738281 15.699219 669.773438 C 18.867188 667.558594 22.339844 666.039062 26.117188 665.210938 C 40.910156 681.40625 66.957031 695.289062 99.351562 703.53125 C 117.292969 707.976562 135.496094 710.601562 153.960938 711.40625 C 172.425781 712.210938 190.789062 711.175781 209.046875 708.304688 C 225.011719 705.863281 240.65625 702.105469 255.984375 697.027344 C 258.738281 696.113281 261.46875 695.136719 264.195312 694.140625 Z M 113.855469 675.917969 C 99.714844 671.949219 86.050781 666.726562 72.867188 660.253906 C 82.792969 659.640625 93.347656 658.957031 104.371094 657.914062 C 109.664062 659.851562 115.125 661.664062 120.761719 663.355469 C 132.964844 666.898438 145.324219 669.761719 157.839844 671.949219 C 170.355469 674.136719 182.953125 675.632812 195.632812 676.433594 C 208.316406 677.238281 221 677.347656 233.695312 676.761719 C 246.386719 676.171875 259.007812 674.890625 271.5625 672.917969 C 280.003906 671.625 288.410156 669.992188 296.757812 668.101562 C 294.050781 670.699219 291.277344 673.234375 288.4375 675.714844 C 230.769531 691.539062 169.082031 691.691406 113.855469 675.925781 Z M 286.933594 677 C 284.019531 679.488281 281.003906 681.894531 277.972656 684.246094 C 277.226562 684.484375 276.496094 684.753906 275.753906 684.988281 C 220.449219 702.375 160.402344 703.933594 106.691406 689.371094 C 82.390625 682.785156 61.5 673.289062 45.78125 662.148438 C 52.984375 661.476562 61.109375 660.96875 69.964844 660.421875 L 71.183594 660.347656 C 84.808594 667.160156 98.953125 672.625 113.621094 676.742188 C 124.742188 679.835938 135.996094 682.328125 147.382812 684.214844 C 158.769531 686.105469 170.222656 687.382812 181.746094 688.046875 C 193.269531 688.710938 204.796875 688.761719 216.324219 688.195312 C 227.851562 687.625 239.316406 686.445312 250.71875 684.652344 C 262.933594 682.773438 275.003906 680.222656 286.933594 677.003906 Z M 81.90625 578.371094 C 93.683594 585.78125 105.941406 592.292969 118.683594 597.894531 C 109.460938 598.066406 100.554688 598.117188 92.046875 598.160156 L 87.539062 598.1875 C 77.398438 592.519531 67.796875 586.046875 58.738281 578.773438 C 65.769531 578.457031 73.511719 578.363281 81.90625 578.371094 Z M 57.75 577.960938 C 51.125 572.558594 45.054688 566.59375 39.53125 560.066406 C 40.722656 559.832031 41.949219 559.617188 43.226562 559.421875 C 46.839844 558.867188 50.804688 558.46875 55.074219 558.183594 C 63.066406 565.3125 71.574219 571.757812 80.601562 577.519531 C 72.339844 577.527344 64.671875 577.625 57.75 577.960938 Z M 141.722656 652.875 C 151.40625 651.101562 161.234375 648.851562 171.09375 646.011719 C 194.492188 650.835938 218.132812 653.542969 242.019531 654.136719 C 265.902344 654.734375 289.648438 653.203125 313.257812 649.550781 C 313.5625 649.503906 313.867188 649.457031 314.175781 649.410156 C 311.851562 652.21875 309.453125 654.972656 306.976562 657.671875 C 293.332031 660.347656 279.578125 662.261719 265.71875 663.40625 C 251.859375 664.550781 237.980469 664.921875 224.082031 664.519531 C 210.179688 664.113281 196.34375 662.9375 182.578125 660.992188 C 168.808594 659.046875 155.1875 656.339844 141.722656 652.875 Z M 305.867188 658.878906 C 303.347656 661.589844 300.75 664.238281 298.078125 666.832031 C 239.035156 680.535156 176.832031 679.117188 121.023438 662.484375 C 116.039062 661 111.183594 659.410156 106.457031 657.71875 C 117.109375 656.675781 128.15625 655.277344 139.414062 653.289062 C 151.855469 656.578125 164.429688 659.21875 177.144531 661.210938 C 189.859375 663.199219 202.640625 664.527344 215.492188 665.195312 C 228.34375 665.863281 241.195312 665.863281 254.046875 665.199219 C 266.898438 664.539062 279.679688 663.214844 292.394531 661.226562 C 296.90625 660.523438 301.390625 659.722656 305.867188 658.875 Z M 164.957031 614.640625 C 176.054688 617.867188 187.328125 620.671875 198.757812 622.976562 C 189.289062 625.859375 179.832031 628.199219 170.457031 630.101562 C 161.007812 627.785156 151.691406 625.121094 142.515625 622.113281 C 138.347656 620.746094 134.257812 619.320312 130.253906 617.832031 C 141.5 617.148438 153.109375 616.152344 164.957031 614.632812 Z M 128.617188 617.214844 C 114.933594 612.121094 101.707031 606.039062 88.929688 598.976562 L 92.042969 598.957031 C 101.074219 598.902344 110.570312 598.839844 120.398438 598.644531 C 129.5625 602.648438 139.195312 606.355469 149.300781 609.773438 C 153.902344 611.316406 158.550781 612.757812 163.222656 614.140625 C 151.40625 615.605469 139.832031 616.5625 128.621094 617.210938 Z M 173.25 645.394531 C 178.992188 643.6875 184.742188 641.789062 190.472656 639.628906 C 192.839844 638.734375 195.167969 637.796875 197.480469 636.839844 C 218.023438 640.34375 238.714844 642.328125 259.550781 642.796875 C 280.382812 643.261719 301.140625 642.203125 321.824219 639.621094 C 321.507812 640.050781 321.21875 640.484375 320.898438 640.914062 C 319.0625 643.371094 317.152344 645.78125 315.207031 648.171875 C 291.652344 651.945312 267.953125 653.59375 244.101562 653.128906 C 220.253906 652.660156 196.636719 650.082031 173.25 645.390625 Z M 199.359375 636.058594 C 206.273438 633.132812 212.929688 629.933594 219.339844 626.554688 C 255.6875 632.019531 292.15625 633.019531 328.75 629.550781 C 326.886719 632.460938 324.875 635.390625 322.753906 638.320312 C 302.242188 640.945312 281.648438 642.070312 260.972656 641.6875 C 240.296875 641.308594 219.757812 639.429688 199.359375 636.050781 Z M 319.746094 555.449219 C 326.945312 550.964844 332.839844 548.757812 337.449219 550.019531 C 341.09375 551.011719 343.871094 554.160156 345.933594 559.636719 C 352.289062 576.496094 346.003906 601.972656 329.535156 628.269531 C 293.277344 631.792969 257.128906 630.917969 221.085938 625.652344 C 250.03125 610.15625 273.816406 591.015625 292.441406 576.027344 L 295.664062 573.4375 C 304.359375 567.203125 312.390625 561.109375 319.746094 555.449219 Z M 220.089844 625.5 C 214.191406 624.617188 208.328125 623.617188 202.496094 622.5 C 204.976562 621.707031 207.460938 620.894531 209.941406 620.019531 C 239.84375 609.492188 265.894531 594.101562 288 578.835938 C 269.886719 593.390625 247.246094 611.0625 220.089844 625.5 Z M 218.351562 626.398438 C 211.910156 629.773438 205.242188 632.964844 198.300781 635.875 C 189.445312 634.367188 180.683594 632.558594 172.011719 630.449219 C 181.34375 628.511719 190.753906 626.144531 200.175781 623.234375 C 206.195312 624.425781 212.261719 625.460938 218.351562 626.398438 Z M 329.492188 629.46875 C 336.6875 628.777344 343.867188 627.886719 351.039062 626.851562 C 348.796875 629.648438 346.484375 632.394531 344.105469 635.097656 C 337.277344 636.3125 330.425781 637.332031 323.558594 638.214844 C 325.644531 635.296875 327.648438 632.378906 329.492188 629.46875 Z M 330.265625 628.199219 C 346.652344 601.875 352.871094 576.371094 346.484375 559.429688 C 344.347656 553.761719 341.441406 550.496094 337.601562 549.449219 C 333.6875 548.378906 328.914062 549.714844 323.277344 552.734375 C 346.28125 535.035156 362.894531 522.238281 373.226562 525.3125 C 377.195312 526.488281 380.160156 530.003906 382.289062 536.058594 C 389.898438 557.671875 378.636719 591.582031 352.886719 624.558594 C 352.632812 624.882812 352.355469 625.199219 352.101562 625.527344 C 344.84375 626.59375 337.566406 627.484375 330.265625 628.199219 Z M 353.414062 624.957031 C 379.296875 591.808594 390.605469 557.660156 382.933594 535.839844 C 380.726562 529.570312 377.621094 525.917969 373.433594 524.679688 C 367.753906 523 360.328125 525.902344 351.125 531.65625 L 354.089844 529.464844 C 379.492188 510.652344 397.847656 497.0625 409.027344 500.601562 C 413.320312 501.960938 416.476562 505.84375 418.679688 512.480469 C 426.523438 536.152344 413.585938 572.832031 384.90625 608.207031 C 381.078125 612.929688 377.058594 617.527344 372.855469 621.996094 C 366.285156 623.277344 359.691406 624.410156 353.074219 625.382812 C 353.183594 625.230469 353.292969 625.101562 353.414062 624.957031 Z M 322.859375 552.230469 C 321.539062 553.246094 320.167969 554.296875 318.804688 555.347656 C 311.007812 560.570312 303.5 566.183594 296.285156 572.183594 C 272.460938 589.332031 243.566406 607.488281 209.734375 619.398438 C 206.886719 620.402344 204.035156 621.347656 201.183594 622.246094 C 189.90625 620.035156 178.785156 617.367188 167.820312 614.242188 C 188.785156 611.546875 209.320312 606.933594 229.421875 600.40625 C 267.332031 587.832031 299.75 568.070312 326.375 549.523438 Z M 142.164062 623.167969 C 150.644531 625.949219 159.269531 628.402344 167.988281 630.597656 C 156.882812 632.765625 145.917969 634.34375 135.21875 635.515625 C 121.222656 631.085938 107.628906 625.652344 94.429688 619.226562 C 104.964844 618.980469 116.046875 618.640625 127.550781 617.996094 C 132.3125 619.796875 137.183594 621.519531 142.164062 623.167969 Z M 169.480469 630.964844 C 178.347656 633.160156 187.316406 635.054688 196.382812 636.644531 C 194.363281 637.472656 192.34375 638.296875 190.265625 639.078125 C 184.195312 641.363281 178.109375 643.351562 172.03125 645.128906 C 160.140625 642.675781 148.398438 639.628906 136.8125 636 C 147.476562 634.792969 158.417969 633.171875 169.480469 630.964844 Z M 135.035156 636.5625 C 146.410156 640.195312 158.039062 643.242188 169.839844 645.757812 C 159.921875 648.566406 150.046875 650.777344 140.316406 652.523438 C 136.242188 651.425781 132.195312 650.257812 128.179688 649.019531 C 118.765625 646.117188 109.519531 642.746094 100.445312 638.910156 C 111.253906 638.335938 122.570312 637.539062 134.207031 636.289062 C 134.484375 636.378906 134.753906 636.472656 135.03125 636.558594 Z M 315.070312 649.25 C 321.445312 648.242188 327.800781 647.089844 334.128906 645.785156 C 331.550781 648.382812 328.898438 650.925781 326.183594 653.410156 C 320.128906 654.914062 314.046875 656.269531 307.929688 657.480469 C 310.375 654.785156 312.753906 652.039062 315.066406 649.246094 Z M 316.105469 648.015625 C 317.90625 645.796875 319.660156 643.546875 321.367188 641.265625 C 321.804688 640.683594 322.199219 640.097656 322.625 639.511719 C 326.460938 639.03125 330.289062 638.5 334.113281 637.917969 C 337.050781 637.46875 339.980469 636.96875 342.910156 636.457031 C 340.519531 639.136719 338.078125 641.78125 335.558594 644.359375 C 329.09375 645.722656 322.609375 646.964844 316.101562 648.011719 Z M 343.929688 636.289062 C 350.074219 635.199219 356.199219 633.957031 362.292969 632.597656 C 359.65625 635.109375 356.96875 637.570312 354.230469 639.980469 C 348.410156 641.503906 342.558594 642.863281 336.683594 644.125 C 339.164062 641.558594 341.578125 638.9375 343.929688 636.285156 Z M 345.121094 634.933594 C 347.476562 632.238281 349.765625 629.503906 351.988281 626.726562 C 352.976562 626.574219 353.972656 626.464844 354.964844 626.3125 C 360.492188 625.464844 366.003906 624.484375 371.5 623.433594 C 369.027344 626.039062 366.488281 628.589844 363.890625 631.089844 C 357.65625 632.503906 351.398438 633.785156 345.117188 634.929688 Z M 372.730469 623.199219 C 378.632812 622.054688 384.511719 620.785156 390.367188 619.398438 C 387.742188 621.785156 385.066406 624.128906 382.347656 626.425781 C 380.152344 627.03125 377.964844 627.683594 375.757812 628.25 C 372.28125 629.148438 368.785156 629.945312 365.289062 630.753906 C 367.828125 628.277344 370.308594 625.753906 372.726562 623.1875 Z M 374.046875 621.75 C 378.007812 617.496094 381.832031 613.140625 385.464844 608.660156 C 414.300781 573.09375 427.289062 536.152344 419.351562 512.253906 C 417.078125 505.390625 413.769531 501.355469 409.238281 499.921875 C 397.703125 496.269531 379.230469 509.953125 353.65625 528.890625 C 323.132812 551.492188 281.332031 582.4375 229.183594 599.734375 C 208.597656 606.417969 187.5625 611.089844 166.082031 613.757812 C 160.566406 612.167969 155.097656 610.464844 149.675781 608.652344 C 140.472656 605.5625 131.652344 602.203125 123.21875 598.582031 C 161.679688 597.707031 205.316406 594.511719 248.886719 580.8125 C 305.695312 562.953125 351.484375 530.140625 384.921875 506.179688 C 412.703125 486.269531 432.769531 471.871094 444.816406 475.894531 C 449.433594 477.4375 452.78125 481.6875 455.046875 488.898438 C 463.140625 514.628906 448.523438 554.066406 416.917969 591.851562 C 409.207031 601.019531 400.949219 609.660156 392.136719 617.773438 C 386.128906 619.222656 380.097656 620.546875 374.042969 621.746094 Z M 417.515625 592.359375 C 449.296875 554.382812 463.964844 514.648438 455.800781 488.664062 C 453.460938 481.199219 449.9375 476.78125 445.0625 475.15625 C 432.648438 471.011719 412.441406 485.496094 384.460938 505.546875 C 351.070312 529.472656 305.34375 562.246094 248.652344 580.066406 C 204.53125 593.941406 160.308594 597.019531 121.488281 597.835938 C 108.558594 592.269531 96.105469 585.78125 84.132812 578.375 C 89.03125 578.386719 94.109375 578.421875 99.410156 578.460938 C 147.8125 578.828125 208.046875 579.285156 268.367188 561.210938 C 329.71875 542.820312 379.445312 508.1875 415.75 482.898438 C 445.925781 461.882812 467.722656 446.691406 480.605469 451.1875 C 485.550781 452.910156 489.09375 457.53125 491.421875 465.316406 C 499.753906 493.109375 483.46875 535.324219 448.914062 575.496094 C 437.128906 589.136719 424.242188 601.640625 410.25 613.003906 C 405.4375 614.378906 400.605469 615.675781 395.75 616.898438 C 395.058594 617.070312 394.382812 617.226562 393.699219 617.390625 C 402.152344 609.535156 410.089844 601.1875 417.515625 592.355469 Z M 85.347656 598.210938 C 76.292969 598.273438 67.925781 598.375 60.320312 598.671875 C 52.980469 593.277344 46.222656 587.230469 40.046875 580.535156 C 40.429688 580.476562 40.789062 580.394531 41.179688 580.335938 C 45.894531 579.613281 51.257812 579.164062 57.113281 578.863281 C 65.988281 586.09375 75.402344 592.539062 85.347656 598.210938 Z M 86.695312 598.988281 C 99.308594 606.089844 112.382812 612.214844 125.910156 617.367188 C 114.484375 617.988281 103.472656 618.300781 93.019531 618.542969 C 81.910156 613.070312 71.347656 606.699219 61.328125 599.421875 C 69.03125 599.132812 77.535156 599.046875 86.695312 598.988281 Z M 90.824219 618.589844 L 84.660156 618.726562 C 77.113281 618.890625 70.042969 619.046875 63.457031 619.289062 C 55.316406 613.941406 47.78125 607.847656 40.851562 601.003906 C 46.375 600.242188 52.6875 599.773438 59.675781 599.488281 C 69.515625 606.742188 79.898438 613.109375 90.824219 618.589844 Z M 84.6875 619.445312 C 87.144531 619.394531 89.644531 619.339844 92.171875 619.28125 C 105.28125 625.785156 118.792969 631.289062 132.710938 635.796875 C 121.105469 637.011719 109.835938 637.773438 99.078125 638.328125 C 87.019531 633.210938 75.496094 627.089844 64.503906 619.964844 C 70.789062 619.742188 77.535156 619.597656 84.6875 619.445312 Z M 96.847656 638.433594 C 90.117188 638.765625 83.582031 639.035156 77.300781 639.285156 C 73.855469 639.421875 70.53125 639.554688 67.296875 639.695312 C 58.246094 634.476562 49.820312 628.390625 42.019531 621.441406 C 48.128906 620.742188 55.125 620.320312 62.832031 620.03125 C 73.636719 627.152344 84.976562 633.289062 96.847656 638.433594 Z M 77.324219 639.9375 C 84.015625 639.671875 91.007812 639.390625 98.214844 639.023438 C 107.910156 643.203125 117.804688 646.847656 127.894531 649.953125 C 131.257812 650.992188 134.640625 651.980469 138.050781 652.914062 C 126.816406 654.855469 115.800781 656.222656 105.191406 657.238281 C 92.421875 652.664062 80.144531 647.015625 68.363281 640.296875 C 71.273438 640.179688 74.246094 640.058594 77.324219 639.9375 Z M 103.082031 657.433594 C 92.136719 658.441406 81.648438 659.117188 71.8125 659.722656 C 61.789062 654.761719 52.394531 648.804688 43.628906 641.859375 C 50.421875 641.175781 58.152344 640.746094 66.664062 640.371094 C 78.304688 647.125 90.441406 652.8125 103.082031 657.433594 Z M 297.886719 667.820312 C 303.4375 666.539062 308.960938 665.144531 314.445312 663.59375 C 311.519531 665.976562 308.523438 668.28125 305.488281 670.539062 C 302.261719 671.617188 299.023438 672.667969 295.757812 673.644531 C 293.761719 674.242188 291.742188 674.773438 289.730469 675.332031 C 292.515625 672.890625 295.234375 670.386719 297.886719 667.820312 Z M 315.753906 662.292969 C 310.273438 663.867188 304.746094 665.257812 299.199219 666.5625 C 301.816406 663.992188 304.363281 661.363281 306.839844 658.679688 C 312.789062 657.527344 318.71875 656.273438 324.617188 654.839844 C 321.863281 657.332031 319.066406 659.78125 316.199219 662.15625 C 316.042969 662.203125 315.902344 662.253906 315.753906 662.292969 Z M 325.941406 654.511719 C 329.308594 653.683594 332.667969 652.816406 336.015625 651.894531 C 338.027344 651.347656 340.015625 650.710938 342.015625 650.121094 C 339.121094 652.386719 336.175781 654.59375 333.175781 656.742188 C 328.078125 658.496094 322.945312 660.15625 317.773438 661.675781 C 320.554688 659.335938 323.277344 656.949219 325.941406 654.515625 Z M 335.753906 650.945312 C 333.023438 651.699219 330.277344 652.367188 327.53125 653.058594 C 330.179688 650.59375 332.785156 648.097656 335.3125 645.53125 C 341.070312 644.320312 346.792969 642.957031 352.5 641.492188 C 349.746094 643.871094 346.949219 646.199219 344.101562 648.480469 C 341.324219 649.320312 338.550781 650.175781 335.753906 650.949219 Z M 354.019531 641.109375 C 354.6875 640.9375 355.359375 640.785156 356.027344 640.605469 C 360.496094 639.417969 364.941406 638.148438 369.363281 636.796875 C 366.511719 638.953125 363.613281 641.058594 360.664062 643.117188 C 355.773438 644.839844 350.835938 646.4375 345.875 647.957031 C 348.640625 645.726562 351.355469 643.445312 354.023438 641.113281 Z M 355.753906 639.59375 L 355.738281 639.597656 C 358.425781 637.210938 361.066406 634.777344 363.652344 632.296875 C 367.789062 631.359375 371.917969 630.382812 376.03125 629.324219 C 377.476562 628.949219 378.898438 628.519531 380.339844 628.128906 C 377.566406 630.425781 374.753906 632.679688 371.890625 634.886719 C 366.542969 636.558594 361.171875 638.152344 355.753906 639.597656 Z M 382.128906 627.636719 C 387.097656 626.273438 392.035156 624.824219 396.945312 623.285156 C 394.160156 625.328125 391.34375 627.328125 388.496094 629.285156 C 383.707031 631.011719 378.882812 632.648438 374.027344 634.199219 C 376.769531 632.054688 379.46875 629.867188 382.128906 627.636719 Z M 384.132812 625.921875 C 386.777344 623.664062 389.378906 621.363281 391.933594 619.015625 C 393.300781 618.6875 394.675781 618.382812 396.042969 618.042969 C 400.050781 617.039062 404.042969 615.960938 408.023438 614.847656 C 405.308594 617.011719 402.554688 619.140625 399.757812 621.234375 C 394.582031 622.898438 389.375 624.460938 384.132812 625.925781 Z M 410.042969 614.285156 C 414.792969 612.929688 419.519531 611.5 424.21875 609.984375 C 421.539062 611.894531 418.839844 613.789062 416.109375 615.625 C 411.472656 617.324219 406.804688 618.949219 402.109375 620.492188 C 404.789062 618.457031 407.4375 616.398438 410.042969 614.289062 Z M 412.300781 612.40625 C 425.753906 601.347656 438.175781 589.230469 449.5625 576.050781 C 484.292969 535.660156 500.644531 493.136719 492.230469 465.070312 C 489.804688 457.007812 486.097656 452.203125 480.878906 450.382812 C 467.597656 445.738281 445.636719 461.03125 415.253906 482.199219 C 378.996094 507.453125 329.34375 542.042969 268.125 560.394531 C 207.941406 578.425781 147.765625 577.976562 99.421875 577.605469 C 93.628906 577.5625 88.074219 577.53125 82.761719 577.515625 C 73.546875 571.742188 64.855469 565.265625 56.691406 558.082031 C 70.5 557.273438 87.457031 557.59375 106.769531 557.964844 C 158.574219 558.964844 223.050781 560.207031 287.839844 541.605469 C 353.746094 522.675781 407.402344 486.230469 446.578125 459.613281 C 479.128906 437.492188 502.652344 421.507812 516.390625 426.476562 C 521.664062 428.382812 525.390625 433.375 527.792969 441.734375 C 536.367188 471.582031 518.40625 516.570312 480.929688 559.128906 C 464.882812 577.269531 447.058594 593.457031 427.457031 607.6875 C 422.433594 609.355469 417.382812 610.925781 412.300781 612.410156 Z M 481.609375 559.738281 C 519.289062 516.941406 537.320312 471.625 528.667969 441.476562 C 526.179688 432.816406 522.265625 427.625 516.691406 425.609375 C 502.507812 420.484375 478.832031 436.574219 446.050781 458.859375 C 406.925781 485.441406 353.339844 521.847656 287.578125 540.730469 C 222.925781 559.289062 158.523438 558.054688 106.773438 557.058594 C 87.058594 556.675781 69.777344 556.347656 55.753906 557.246094 C 49.742188 551.875 44.253906 546.019531 39.285156 539.671875 C 41.195312 539.226562 43.195312 538.835938 45.34375 538.507812 C 61.980469 535.957031 85.667969 536.652344 114.113281 537.492188 C 169.328125 539.121094 238.035156 541.144531 307.300781 522.019531 C 377.761719 502.566406 435.34375 464.292969 477.390625 436.347656 C 512.335938 413.121094 537.574219 396.347656 552.164062 401.785156 C 557.765625 403.875 561.683594 409.234375 564.152344 418.171875 C 572.960938 450.082031 553.332031 497.835938 512.925781 542.804688 C 492.398438 565.507812 469.328125 585.238281 443.71875 601.996094 C 439.234375 603.664062 434.726562 605.265625 430.191406 606.792969 C 448.988281 592.921875 466.128906 577.238281 481.609375 559.738281 Z M 513.660156 543.4375 C 554.289062 498.222656 574 450.113281 565.101562 417.886719 C 562.546875 408.625 558.425781 403.046875 552.511719 400.84375 C 537.464844 395.222656 512.039062 412.117188 476.851562 435.503906 C 434.851562 463.414062 377.351562 501.636719 307.042969 521.046875 C 237.925781 540.132812 169.292969 538.109375 114.144531 536.484375 C 81.742188 535.53125 55.492188 534.761719 38.628906 538.808594 C 34.945312 534.003906 31.757812 528.890625 29.070312 523.464844 C 34.824219 520.25 40.976562 518.273438 47.527344 517.535156 C 65.261719 514.816406 90.753906 515.796875 121.476562 516.980469 C 180.09375 519.234375 253.039062 522.035156 326.785156 502.394531 C 401.789062 482.410156 463.308594 442.320312 508.222656 413.035156 C 545.550781 388.707031 572.53125 371.125 587.957031 377.046875 C 593.882812 379.320312 597.992188 385.050781 600.527344 394.5625 C 609.570312 428.53125 588.269531 479.058594 544.933594 526.417969 C 532.40625 540.007812 518.960938 552.617188 504.597656 564.253906 C 490.238281 575.886719 475.109375 586.421875 459.21875 595.855469 C 455.375 597.453125 451.507812 599 447.621094 600.496094 C 471.980469 584.195312 493.992188 565.179688 513.660156 543.449219 Z M 37.410156 539.144531 C 34.097656 539.960938 30.9375 541.179688 27.9375 542.800781 C 25.75 538.550781 24.046875 534.113281 22.820312 529.496094 C 23.148438 528.945312 23.511719 528.421875 23.902344 527.917969 C 25.105469 526.441406 26.496094 525.167969 28.070312 524.097656 C 30.707031 529.40625 33.820312 534.421875 37.410156 539.144531 Z M 38.039062 539.953125 C 42.90625 546.226562 48.28125 552.027344 54.164062 557.359375 C 49.03125 557.683594 43.9375 558.332031 38.886719 559.316406 C 34.84375 554.441406 31.335938 549.210938 28.367188 543.617188 C 31.433594 541.972656 34.65625 540.75 38.039062 539.949219 Z M 37.6875 559.566406 C 34.097656 560.304688 30.648438 561.457031 27.339844 563.03125 C 24.945312 558.734375 23.070312 554.222656 21.71875 549.496094 C 21.921875 549.195312 22.101562 548.878906 22.328125 548.589844 C 23.769531 546.824219 25.472656 545.359375 27.433594 544.199219 C 30.34375 549.664062 33.761719 554.792969 37.6875 559.578125 Z M 38.316406 560.332031 C 43.722656 566.78125 49.671875 572.6875 56.160156 578.046875 C 50.535156 578.3125 44.941406 578.898438 39.382812 579.800781 C 34.941406 574.890625 31.070312 569.5625 27.773438 563.820312 C 31.144531 562.222656 34.660156 561.0625 38.316406 560.339844 Z M 38.191406 580.003906 C 34.273438 580.671875 30.488281 581.78125 26.828125 583.324219 C 24.1875 578.964844 22.121094 574.351562 20.628906 569.484375 C 20.675781 569.417969 20.710938 569.34375 20.761719 569.277344 C 22.4375 567.1875 24.460938 565.527344 26.835938 564.292969 C 30.070312 569.925781 33.855469 575.164062 38.191406 580.003906 Z M 38.832031 580.742188 C 44.878906 587.363281 51.492188 593.363281 58.671875 598.730469 C 51.800781 599.03125 45.613281 599.523438 40.164062 600.308594 C 35.25 595.367188 30.949219 589.9375 27.261719 584.023438 C 30.992188 582.480469 34.847656 581.390625 38.832031 580.746094 Z M 38.996094 600.46875 C 34.707031 601.066406 30.527344 602.109375 26.464844 603.597656 C 23.546875 599.210938 21.25 594.527344 19.570312 589.539062 C 21.460938 587.335938 23.730469 585.640625 26.382812 584.457031 C 29.992188 590.261719 34.191406 595.601562 38.984375 600.480469 Z M 39.242188 601.203125 C 39.375 601.183594 39.519531 601.164062 39.652344 601.140625 C 46.449219 607.933594 53.84375 614 61.835938 619.332031 C 54.25 619.628906 47.375 620.074219 41.339844 620.800781 C 35.871094 615.859375 31.054688 610.34375 26.894531 604.261719 C 30.898438 602.804688 35.011719 601.789062 39.234375 601.214844 Z M 40.15625 620.957031 C 35.425781 621.496094 30.796875 622.484375 26.261719 623.925781 C 23.011719 619.515625 20.441406 614.742188 18.542969 609.601562 C 20.65625 607.371094 23.148438 605.703125 26.019531 604.605469 C 30.097656 610.605469 34.808594 616.054688 40.15625 620.957031 Z M 37.460938 622.046875 C 38.550781 621.878906 39.710938 621.738281 40.867188 621.59375 C 48.515625 628.496094 56.785156 634.550781 65.667969 639.761719 C 57.269531 640.136719 49.660156 640.582031 42.953125 641.28125 C 36.835938 636.363281 31.414062 630.769531 26.6875 624.503906 C 30.203125 623.386719 33.785156 622.570312 37.4375 622.050781 Z M 41.789062 641.40625 C 36.527344 641.90625 31.34375 642.847656 26.238281 644.230469 C 22.59375 639.796875 19.691406 634.921875 17.535156 629.601562 C 19.960938 627.390625 22.734375 625.792969 25.863281 624.808594 C 30.488281 630.988281 35.789062 636.523438 41.769531 641.40625 Z M 35.898438 642.8125 C 37.960938 642.496094 40.1875 642.226562 42.484375 641.984375 C 51.082031 648.902344 60.308594 654.847656 70.15625 659.824219 L 69.953125 659.839844 C 60.808594 660.402344 52.464844 660.917969 45.074219 661.632812 C 38.203125 656.8125 32.066406 651.191406 26.664062 644.773438 C 29.691406 643.925781 32.761719 643.273438 35.871094 642.816406 Z M 43.910156 661.75 C 38.03125 662.257812 32.222656 663.183594 26.476562 664.519531 C 22.375 660.121094 19.082031 655.183594 16.597656 649.703125 C 19.34375 647.476562 22.429688 645.910156 25.847656 645.003906 C 31.140625 651.363281 37.152344 656.945312 43.886719 661.753906 Z M 277.792969 685.148438 C 282.28125 683.707031 286.726562 682.144531 291.140625 680.5 C 288.078125 682.472656 284.976562 684.378906 281.832031 686.21875 C 277.664062 688.070312 273.453125 689.820312 269.203125 691.460938 C 272.101562 689.425781 274.957031 687.316406 277.773438 685.152344 Z M 279.695312 683.683594 C 282.617188 681.386719 285.496094 679.046875 288.296875 676.628906 C 290.875 675.921875 293.457031 675.226562 296.023438 674.457031 C 298.484375 673.71875 300.921875 672.910156 303.367188 672.117188 C 300.363281 674.304688 297.304688 676.449219 294.195312 678.519531 C 289.398438 680.367188 284.558594 682.089844 279.675781 683.6875 Z M 305.300781 671.496094 C 309.511719 670.09375 313.703125 668.632812 317.851562 667.066406 C 315.046875 668.824219 312.210938 670.53125 309.332031 672.191406 C 305.191406 674.042969 301.023438 675.835938 296.789062 677.511719 C 299.671875 675.5625 302.511719 673.554688 305.300781 671.496094 Z M 307.5 669.875 C 310.386719 667.695312 313.226562 665.460938 316.015625 663.175781 C 320.882812 661.777344 325.707031 660.242188 330.507812 658.636719 C 327.5625 660.707031 324.574219 662.726562 321.542969 664.695312 C 316.894531 666.515625 312.21875 668.265625 307.492188 669.878906 Z M 332.9375 657.796875 C 336.980469 656.414062 341 654.957031 344.988281 653.429688 C 342.238281 655.117188 339.449219 656.75 336.640625 658.355469 C 332.753906 660.101562 328.828125 661.773438 324.871094 663.367188 C 327.589844 661.554688 330.277344 659.699219 332.929688 657.796875 Z M 335.609375 655.90625 C 338.425781 653.835938 341.199219 651.722656 343.929688 649.558594 C 348.554688 648.171875 353.152344 646.699219 357.722656 645.140625 C 354.820312 647.121094 351.886719 649.054688 348.914062 650.9375 C 344.511719 652.683594 340.074219 654.34375 335.59375 655.90625 Z M 360.433594 644.226562 C 364.199219 642.910156 367.9375 641.515625 371.660156 640.078125 C 369.007812 641.675781 366.316406 643.207031 363.613281 644.726562 C 360.074219 646.320312 356.507812 647.851562 352.910156 649.324219 C 355.441406 647.671875 357.945312 645.96875 360.425781 644.234375 Z M 363.5625 642.054688 C 366.304688 640.09375 369.015625 638.09375 371.691406 636.050781 C 376.09375 634.683594 380.46875 633.246094 384.816406 631.734375 C 382.050781 633.574219 379.253906 635.378906 376.429688 637.136719 C 372.167969 638.855469 367.875 640.5 363.558594 642.0625 Z M 388.199219 630.503906 C 391.609375 629.285156 395.011719 628.042969 398.386719 626.730469 C 396.070312 628.09375 393.726562 629.417969 391.367188 630.734375 C 388 632.257812 384.609375 633.734375 381.195312 635.15625 C 383.554688 633.652344 385.878906 632.085938 388.195312 630.515625 Z M 391.640625 628.140625 C 394.304688 626.277344 396.957031 624.398438 399.558594 622.460938 C 403.761719 621.113281 407.945312 619.699219 412.105469 618.222656 C 409.460938 619.941406 406.804688 621.640625 404.109375 623.292969 C 399.976562 624.980469 395.820312 626.605469 391.636719 628.160156 Z M 415.804688 616.910156 C 418.992188 615.75 422.15625 614.53125 425.3125 613.292969 C 423.183594 614.527344 421.042969 615.75 418.882812 616.945312 C 415.613281 618.429688 412.335938 619.910156 409.023438 621.320312 C 411.300781 619.878906 413.558594 618.410156 415.796875 616.917969 Z M 419.566406 614.359375 C 422.125 612.605469 424.675781 610.847656 427.175781 609.03125 C 431.15625 607.726562 435.113281 606.363281 439.050781 604.941406 C 436.554688 606.53125 434.050781 608.117188 431.515625 609.652344 C 427.558594 611.285156 423.570312 612.855469 419.5625 614.367188 Z M 443.355469 603.371094 C 446.167969 602.328125 448.972656 601.253906 451.765625 600.15625 C 449.882812 601.222656 448.015625 602.308594 446.117188 603.347656 C 443.257812 604.652344 440.355469 605.871094 437.460938 607.113281 C 439.425781 605.882812 441.402344 604.652344 443.347656 603.378906 Z M 465.480469 593.21875 C 480.296875 584.085938 494.425781 573.988281 507.863281 562.925781 C 521.296875 551.859375 533.914062 539.929688 545.714844 527.132812 C 589.292969 479.507812 610.6875 428.609375 601.546875 394.289062 C 598.917969 384.433594 594.589844 378.46875 588.335938 376.066406 C 572.398438 369.960938 545.25 387.652344 507.65625 412.15625 C 462.796875 441.390625 401.359375 481.429688 326.511719 501.371094 C 252.921875 520.988281 180.0625 518.179688 121.523438 515.941406 C 77.46875 514.242188 44.113281 512.957031 28.613281 522.488281 C 26.671875 518.433594 25.144531 514.230469 24.027344 509.875 C 23.992188 509.734375 23.976562 509.605469 23.941406 509.46875 C 24.394531 508.683594 24.902344 507.9375 25.472656 507.234375 C 30.0625 501.585938 38.351562 498.324219 49.742188 496.578125 C 68.570312 493.691406 95.851562 494.960938 128.835938 496.492188 C 190.851562 499.375 268.03125 502.964844 346.25 482.796875 C 425.808594 462.285156 491.261719 420.371094 539.054688 389.765625 C 578.769531 364.332031 607.464844 345.949219 623.75 352.355469 C 630 354.8125 634.304688 360.910156 636.902344 371 C 646.195312 407.027344 623.21875 460.324219 576.949219 510.085938 C 562.011719 526.003906 545.894531 540.621094 528.601562 553.941406 C 511.308594 567.265625 493.0625 579.117188 473.859375 589.496094 C 471.078125 590.765625 468.28125 592.007812 465.472656 593.226562 Z M 22.054688 530.886719 C 23.277344 535.191406 24.910156 539.335938 26.957031 543.320312 C 24.875 544.550781 23.078125 546.109375 21.558594 547.988281 C 21.492188 548.070312 21.449219 548.160156 21.386719 548.242188 C 19.582031 541.128906 19.8125 535.410156 22.054688 530.886719 Z M 20.976562 550.675781 C 22.332031 555.164062 24.148438 559.453125 26.429688 563.550781 C 24.0625 564.773438 22.023438 566.398438 20.304688 568.433594 C 20.296875 568.394531 20.277344 568.355469 20.269531 568.320312 C 18.242188 560.980469 18.476562 555.183594 20.976562 550.675781 Z M 19.019531 587.800781 C 16.9375 580.558594 17.25 574.902344 19.925781 570.550781 C 21.417969 575.164062 23.410156 579.550781 25.914062 583.707031 C 23.359375 584.882812 21.148438 586.515625 19.269531 588.609375 C 19.195312 588.34375 19.09375 588.074219 19.019531 587.800781 Z M 17.761719 607.285156 C 15.617188 600.132812 16.003906 594.621094 18.894531 590.429688 C 20.566406 595.222656 22.804688 599.738281 25.605469 603.972656 C 22.820312 605.054688 20.367188 606.648438 18.246094 608.757812 C 18.085938 608.269531 17.910156 607.777344 17.761719 607.285156 Z M 16.507812 626.769531 C 14.351562 619.90625 14.714844 614.636719 17.617188 610.648438 C 17.695312 610.535156 17.800781 610.445312 17.882812 610.339844 C 19.765625 615.300781 22.277344 619.925781 25.410156 624.214844 C 22.363281 625.207031 19.636719 626.765625 17.238281 628.886719 C 16.984375 628.183594 16.730469 627.476562 16.507812 626.769531 Z M 15.257812 646.257812 C 13.164062 639.945312 13.425781 635.0625 16.054688 631.335938 C 16.335938 630.96875 16.632812 630.617188 16.949219 630.285156 C 19.078125 635.421875 21.898438 640.148438 25.410156 644.464844 C 22.070312 645.386719 19.046875 646.925781 16.335938 649.082031 C 15.933594 648.140625 15.566406 647.199219 15.257812 646.257812 Z M 14.003906 665.742188 C 11.972656 659.972656 12.128906 655.484375 14.484375 652.015625 C 14.9375 651.359375 15.449219 650.753906 16.027344 650.199219 C 18.472656 655.550781 21.6875 660.390625 25.671875 664.722656 C 21.980469 665.5625 18.574219 667.054688 15.449219 669.195312 C 14.914062 668.042969 14.410156 666.902344 14 665.734375 Z M 215.761719 719.054688 C 205.402344 722.984375 194.820312 726.171875 184.011719 728.617188 C 173.207031 731.058594 162.28125 732.730469 151.238281 733.636719 C 140.195312 734.539062 129.144531 734.667969 118.085938 734.015625 C 107.023438 733.367188 96.0625 731.945312 85.203125 729.75 C 47.878906 721.828125 20.117188 704.769531 12.746094 685.21875 C 10.78125 680 10.839844 675.902344 12.914062 672.691406 C 13.554688 671.753906 14.3125 670.925781 15.191406 670.207031 C 25.082031 690.289062 53.953125 707.921875 92.214844 716.925781 C 107.964844 720.53125 123.917969 722.613281 140.066406 723.171875 C 156.214844 723.726562 172.269531 722.753906 188.234375 720.246094 C 204.519531 717.757812 220.429688 713.78125 235.972656 708.320312 C 240.753906 706.636719 245.46875 704.785156 250.140625 702.828125 C 239.109375 709.144531 227.648438 714.554688 215.761719 719.054688 Z M 259.058594 698.179688 C 261.601562 696.585938 264.109375 694.949219 266.589844 693.265625 C 269.867188 692.035156 273.121094 690.738281 276.347656 689.382812 C 270.703125 692.519531 264.9375 695.445312 259.054688 698.171875 Z M 287.261719 683.734375 C 289.539062 682.328125 291.796875 680.890625 294.027344 679.425781 C 296.957031 678.300781 299.851562 677.125 302.738281 675.917969 C 297.667969 678.671875 292.5 681.265625 287.261719 683.726562 Z M 315.164062 669.554688 C 317.230469 668.28125 319.289062 667.011719 321.324219 665.707031 C 323.695312 664.78125 326.066406 663.859375 328.414062 662.882812 C 324.050781 665.191406 319.640625 667.429688 315.160156 669.542969 Z M 344.121094 654.878906 C 345.664062 653.941406 347.179688 652.976562 348.703125 652.007812 C 350.726562 651.210938 352.734375 650.394531 354.738281 649.554688 C 351.234375 651.382812 347.695312 653.15625 344.121094 654.867188 Z M 372.390625 640.644531 C 373.640625 639.890625 374.875 639.113281 376.113281 638.347656 C 377.730469 637.699219 379.332031 637.019531 380.9375 636.351562 C 378.105469 637.800781 375.265625 639.257812 372.386719 640.632812 Z M 400.984375 626.242188 C 401.921875 625.683594 402.855469 625.125 403.785156 624.558594 C 404.8125 624.144531 405.84375 623.742188 406.863281 623.320312 C 404.914062 624.308594 402.957031 625.289062 400.988281 626.25 Z M 430.027344 611.667969 C 430.421875 611.433594 430.816406 611.210938 431.203125 610.980469 C 431.628906 610.804688 432.0625 610.648438 432.488281 610.472656 C 431.671875 610.878906 430.851562 611.265625 430.027344 611.667969 Z M 608.949219 493.730469 C 591.527344 512.007812 572.644531 528.628906 552.300781 543.59375 C 531.957031 558.558594 510.464844 571.632812 487.824219 582.820312 C 504.457031 573.03125 520.304688 562.109375 535.371094 550.050781 C 550.4375 537.992188 564.566406 524.921875 577.761719 510.84375 C 624.289062 460.816406 647.359375 407.109375 637.976562 370.71875 C 635.28125 360.261719 630.753906 353.914062 624.148438 351.316406 C 607.347656 344.71875 578.441406 363.214844 538.449219 388.828125 C 490.722656 419.390625 425.359375 461.25 345.972656 481.71875 C 267.914062 501.847656 190.828125 498.261719 128.890625 495.382812 C 75.625 492.90625 37.136719 491.113281 24.605469 506.53125 C 24.242188 506.984375 23.9375 507.46875 23.617188 507.945312 C 21.671875 498.761719 22.769531 491.730469 27.039062 486.550781 C 31.824219 480.75 40.332031 477.382812 51.984375 475.597656 C 71.898438 472.546875 100.964844 474.109375 136.191406 476 C 201.617188 479.515625 283.03125 483.890625 365.71875 463.195312 C 449.828125 442.148438 519.210938 398.414062 569.871094 366.488281 C 611.976562 339.949219 642.398438 320.777344 659.523438 327.648438 C 666.101562 330.285156 670.597656 336.75 673.265625 347.417969 C 682.804688 385.507812 658.15625 441.570312 608.949219 493.730469 Z M 608.949219 493.730469 " fill-opacity="1" fill-rule="nonzero"/></g></g></g><g clip-path="url(#0e203c7f45)"><g clip-path="url(#bffc51771e)"><g clip-path="url(#05ea72a966)"><path fill="#09515a" d="M 870.988281 493.238281 C 875.613281 503.652344 881.433594 509.472656 888.757812 511.027344 C 907.390625 514.976562 934.261719 490.6875 971.433594 457.078125 C 1015.792969 416.960938 1076.539062 362.023438 1155.605469 326.90625 C 1233.332031 292.386719 1314.199219 282.691406 1379.171875 274.921875 C 1435.042969 268.226562 1475.417969 263.402344 1485.773438 245.167969 C 1489.429688 238.738281 1489.1875 230.921875 1485.070312 221.320312 C 1486.929688 215.757812 1486.171875 209.230469 1482.703125 201.46875 C 1484.746094 195.992188 1483.988281 189.535156 1480.425781 181.832031 C 1480.378906 181.738281 1480.328125 181.644531 1480.285156 181.550781 C 1482.476562 176.238281 1481.8125 169.980469 1478.25 162.445312 C 1478.125 162.183594 1477.980469 161.925781 1477.851562 161.667969 C 1480.210938 156.515625 1479.648438 150.425781 1476.0625 143.0625 C 1475.855469 142.632812 1475.628906 142.230469 1475.410156 141.8125 C 1475.421875 141.789062 1475.441406 141.773438 1475.453125 141.746094 C 1477.992188 136.757812 1477.484375 130.851562 1473.890625 123.667969 C 1473.582031 123.054688 1473.246094 122.453125 1472.910156 121.847656 C 1473.070312 121.578125 1473.261719 121.335938 1473.394531 121.0625 C 1475.691406 116.394531 1475.148438 110.90625 1471.710938 104.28125 C 1471.304688 103.492188 1470.867188 102.710938 1470.402344 101.933594 C 1470.746094 101.4375 1471.054688 100.917969 1471.328125 100.378906 C 1473.375 96.035156 1472.796875 90.96875 1469.53125 84.894531 C 1469.015625 83.933594 1468.441406 82.988281 1467.828125 82.054688 C 1468.390625 81.320312 1468.867188 80.535156 1469.261719 79.699219 C 1471.070312 75.675781 1470.449219 71.03125 1467.347656 65.507812 C 1466.6875 64.347656 1465.96875 63.222656 1465.191406 62.136719 C 1466.019531 61.199219 1466.6875 60.160156 1467.195312 59.015625 C 1468.773438 55.308594 1468.113281 51.089844 1465.175781 46.117188 C 1454.457031 27.953125 1423.984375 15.808594 1385.660156 14.433594 C 1371.824219 14.007812 1358.0625 14.820312 1344.371094 16.871094 C 1330.683594 18.925781 1317.285156 22.183594 1304.183594 26.652344 C 1289.402344 31.613281 1275.242188 37.957031 1261.703125 45.679688 C 1248.160156 53.402344 1235.492188 62.359375 1223.699219 72.554688 C 1215.261719 78.183594 1207.175781 84.277344 1199.4375 90.832031 C 1190.9375 96.511719 1182.761719 102.625 1174.910156 109.171875 C 1166.351562 114.917969 1158.085938 121.0625 1150.175781 127.585938 C 1141.867188 133.195312 1133.835938 139.148438 1126.085938 145.449219 C 1117.484375 151.246094 1109.1875 157.441406 1101.15625 163.929688 C 1092.648438 169.699219 1084.398438 175.78125 1076.40625 182.1875 C 1068 187.902344 1059.828125 193.910156 1051.890625 200.203125 C 1043.296875 206.054688 1034.9375 212.195312 1026.8125 218.625 C 1015.230469 226.480469 1004.054688 234.875 993.285156 243.804688 C 982.511719 252.738281 972.195312 262.167969 962.332031 272.09375 C 952.472656 282.019531 943.109375 292.398438 934.246094 303.226562 C 925.386719 314.054688 917.0625 325.285156 909.285156 336.914062 C 869.5625 397.089844 854.890625 456.992188 870.988281 493.238281 Z M 1484.375 219.757812 C 1482.542969 215.835938 1480.371094 212.113281 1477.855469 208.59375 C 1479.355469 207.183594 1480.621094 205.582031 1481.648438 203.796875 C 1481.8125 203.492188 1481.933594 203.171875 1482.078125 202.863281 C 1483.378906 205.476562 1484.226562 208.226562 1484.621094 211.121094 C 1485.011719 214.011719 1484.929688 216.890625 1484.375 219.757812 Z M 1223.367188 77.238281 C 1270.589844 51.878906 1324.847656 40.070312 1376.148438 43.984375 C 1409.167969 46.515625 1436.964844 55.566406 1454.21875 68.773438 C 1451.976562 69.757812 1449.496094 70.710938 1446.769531 71.621094 C 1443.851562 72.605469 1440.644531 73.558594 1437.226562 74.507812 C 1419.617188 65.984375 1397.023438 60.050781 1371.480469 57.699219 C 1361.140625 56.8125 1350.78125 56.464844 1340.402344 56.652344 C 1330.023438 56.839844 1319.683594 57.5625 1309.382812 58.824219 C 1299.078125 60.082031 1288.871094 61.871094 1278.753906 64.1875 C 1268.636719 66.503906 1258.664062 69.339844 1248.839844 72.691406 C 1233.84375 77.738281 1219.316406 83.894531 1205.257812 91.160156 L 1205.183594 91.199219 C 1207.769531 88.421875 1210.417969 85.703125 1213.136719 83.046875 C 1216.519531 81.039062 1219.914062 79.09375 1223.367188 77.238281 Z M 1215.433594 80.859375 C 1218.121094 78.304688 1220.859375 75.796875 1223.667969 73.359375 C 1229.34375 69.5625 1235.152344 65.960938 1241.117188 62.613281 C 1251.695312 56.644531 1262.644531 51.441406 1273.957031 47.011719 C 1285.269531 42.582031 1296.835938 38.964844 1308.660156 36.164062 C 1320.480469 33.363281 1332.441406 31.40625 1344.539062 30.289062 C 1356.636719 29.171875 1368.753906 28.90625 1380.890625 29.496094 C 1420.035156 31.765625 1451.402344 44.144531 1464.417969 62.136719 C 1461.675781 64.863281 1458.515625 66.960938 1454.9375 68.421875 C 1437.582031 55.015625 1409.535156 45.816406 1376.203125 43.269531 C 1357.765625 41.972656 1339.382812 42.515625 1321.054688 44.898438 C 1302.726562 47.28125 1284.816406 51.457031 1267.320312 57.425781 C 1252.015625 62.574219 1237.25 68.96875 1223.023438 76.605469 C 1220.464844 77.980469 1217.945312 79.410156 1215.433594 80.859375 Z M 1366.664062 72.960938 C 1381.277344 74.441406 1395.636719 77.234375 1409.738281 81.34375 C 1400.066406 83.65625 1389.785156 86.144531 1379.105469 89.066406 C 1373.558594 88.066406 1367.863281 87.222656 1362.023438 86.527344 C 1349.394531 85.132812 1336.726562 84.4375 1324.019531 84.433594 C 1311.3125 84.433594 1298.644531 85.125 1286.015625 86.515625 C 1273.386719 87.902344 1260.871094 89.976562 1248.46875 92.738281 C 1236.066406 95.5 1223.851562 98.933594 1211.824219 103.035156 C 1203.730469 105.761719 1195.730469 108.8125 1187.832031 112.113281 C 1190.050781 109.089844 1192.347656 106.113281 1194.71875 103.183594 C 1248.808594 77.675781 1309.550781 66.921875 1366.664062 72.957031 Z M 1195.980469 101.660156 C 1198.421875 98.703125 1200.976562 95.8125 1203.5625 92.976562 C 1204.253906 92.613281 1204.929688 92.222656 1205.617188 91.863281 C 1257.109375 65.226562 1315.996094 53.367188 1371.410156 58.476562 C 1396.480469 60.789062 1418.695312 66.546875 1436.089844 74.820312 C 1429.113281 76.722656 1421.199219 78.617188 1412.566406 80.679688 L 1411.378906 80.964844 C 1396.785156 76.59375 1381.910156 73.644531 1366.753906 72.109375 C 1355.265625 70.976562 1343.753906 70.457031 1332.210938 70.554688 C 1320.667969 70.648438 1309.164062 71.363281 1297.699219 72.6875 C 1286.234375 74.015625 1274.871094 75.949219 1263.613281 78.488281 C 1252.355469 81.03125 1241.261719 84.164062 1230.339844 87.890625 C 1218.628906 91.84375 1207.175781 96.429688 1195.976562 101.652344 Z M 1414.910156 163.566406 C 1402.035156 158.285156 1388.839844 153.984375 1375.328125 150.652344 C 1384.378906 148.902344 1393.144531 147.316406 1401.519531 145.8125 L 1405.953125 145.011719 C 1416.917969 148.851562 1427.488281 153.574219 1437.667969 159.183594 C 1430.792969 160.703125 1423.183594 162.128906 1414.910156 163.566406 Z M 1438.777344 159.816406 C 1446.234375 164 1453.242188 168.828125 1459.804688 174.308594 C 1458.667969 174.746094 1457.5 175.167969 1456.273438 175.582031 C 1452.808594 176.746094 1448.972656 177.820312 1444.816406 178.835938 C 1435.71875 173.1875 1426.226562 168.300781 1416.34375 164.179688 C 1424.480469 162.75 1432.019531 161.332031 1438.777344 159.816406 Z M 1343.175781 100.453125 C 1333.941406 103.867188 1324.644531 107.769531 1315.421875 112.265625 C 1291.542969 111.539062 1267.785156 112.933594 1244.15625 116.453125 C 1220.527344 119.976562 1197.394531 125.566406 1174.765625 133.222656 C 1174.472656 133.320312 1174.179688 133.421875 1173.886719 133.519531 C 1175.691406 130.355469 1177.582031 127.230469 1179.558594 124.144531 C 1192.539062 119.160156 1205.757812 114.910156 1219.214844 111.402344 C 1232.671875 107.890625 1246.28125 105.136719 1260.042969 103.144531 C 1273.804688 101.152344 1287.636719 99.933594 1301.535156 99.480469 C 1315.433594 99.03125 1329.3125 99.355469 1343.175781 100.453125 Z M 1180.441406 122.765625 C 1182.460938 119.660156 1184.5625 116.601562 1186.75 113.589844 C 1242.554688 89.9375 1304.078125 80.640625 1361.914062 87.429688 C 1367.078125 88.035156 1372.136719 88.765625 1377.082031 89.617188 C 1366.769531 92.476562 1356.128906 95.753906 1345.378906 99.648438 C 1332.558594 98.546875 1319.714844 98.109375 1306.847656 98.335938 C 1293.980469 98.558594 1281.160156 99.449219 1268.386719 101.003906 C 1255.613281 102.554688 1242.953125 104.761719 1230.40625 107.625 C 1217.859375 110.488281 1205.496094 113.992188 1193.3125 118.132812 C 1188.988281 119.605469 1184.707031 121.160156 1180.441406 122.769531 Z M 1326.859375 142.117188 C 1315.375 140.84375 1303.789062 140.019531 1292.128906 139.714844 C 1300.964844 135.246094 1309.875 131.316406 1318.785156 127.828125 C 1328.492188 128.488281 1338.125 129.507812 1347.683594 130.894531 C 1352.027344 131.523438 1356.296875 132.226562 1360.496094 133.003906 C 1349.539062 135.609375 1338.273438 138.589844 1326.863281 142.121094 Z M 1362.21875 133.328125 C 1376.570312 135.996094 1390.648438 139.710938 1404.453125 144.472656 L 1401.386719 145.027344 C 1392.496094 146.632812 1383.15625 148.328125 1373.503906 150.210938 C 1363.789062 147.84375 1353.664062 145.84375 1343.121094 144.21875 C 1338.324219 143.488281 1333.496094 142.867188 1328.652344 142.308594 C 1340.046875 138.832031 1351.285156 135.902344 1362.210938 133.335938 Z M 1313.402344 113.242188 C 1308.039062 115.914062 1302.703125 118.773438 1297.429688 121.886719 C 1295.25 123.171875 1293.121094 124.496094 1291.003906 125.835938 C 1270.164062 125.917969 1249.441406 127.519531 1228.835938 130.644531 C 1208.230469 133.765625 1187.964844 138.378906 1168.035156 144.476562 C 1168.273438 144 1168.484375 143.523438 1168.726562 143.046875 C 1170.113281 140.308594 1171.578125 137.605469 1173.085938 134.917969 C 1195.640625 127.152344 1218.703125 121.449219 1242.277344 117.808594 C 1265.851562 114.167969 1289.558594 112.648438 1313.40625 113.246094 Z M 1289.289062 126.933594 C 1282.980469 131.003906 1276.972656 135.296875 1271.238281 139.730469 C 1234.492188 140.59375 1198.394531 145.882812 1162.945312 155.589844 C 1164.28125 152.402344 1165.757812 149.167969 1167.339844 145.921875 C 1187.097656 139.808594 1207.191406 135.160156 1227.625 131.976562 C 1248.058594 128.796875 1268.613281 127.117188 1289.292969 126.9375 Z M 1184.558594 227.039062 C 1178.234375 232.691406 1172.804688 235.878906 1168.050781 235.433594 C 1164.289062 235.082031 1161.011719 232.457031 1158.039062 227.417969 C 1148.878906 211.902344 1150.691406 185.722656 1162.390625 156.984375 C 1197.5 147.28125 1233.261719 141.925781 1269.675781 140.917969 C 1243.824219 161.160156 1223.6875 184.105469 1207.914062 202.070312 L 1205.1875 205.175781 C 1197.691406 212.816406 1190.828125 220.199219 1184.558594 227.039062 Z M 1270.683594 140.894531 C 1276.644531 140.753906 1282.59375 140.730469 1288.527344 140.828125 C 1286.222656 142.035156 1283.914062 143.261719 1281.621094 144.546875 C 1253.976562 160.0625 1230.957031 179.703125 1211.808594 198.542969 C 1227.148438 181.089844 1246.414062 159.789062 1270.683594 140.894531 Z M 1272.242188 139.710938 C 1278.003906 135.28125 1284.023438 130.988281 1290.363281 126.929688 C 1299.34375 126.890625 1308.289062 127.164062 1317.195312 127.753906 C 1308.332031 131.265625 1299.46875 135.214844 1290.691406 139.703125 C 1284.554688 139.5625 1278.402344 139.585938 1272.242188 139.710938 Z M 1162.226562 155.796875 C 1155.257812 157.714844 1148.335938 159.828125 1141.453125 162.082031 C 1143.179688 158.941406 1144.984375 155.835938 1146.867188 152.765625 C 1153.382812 150.394531 1159.957031 148.210938 1166.570312 146.164062 C 1165.015625 149.394531 1163.542969 152.613281 1162.226562 155.796875 Z M 1161.683594 157.179688 C 1150.066406 185.929688 1148.328125 212.125 1157.53125 227.714844 C 1160.609375 232.933594 1164.035156 235.648438 1167.996094 236.019531 C 1172.039062 236.402344 1176.511719 234.265625 1181.542969 230.324219 C 1161.925781 251.710938 1147.761719 267.171875 1137.054688 265.921875 C 1132.941406 265.445312 1129.417969 262.492188 1126.277344 256.894531 C 1115.066406 236.914062 1120.332031 201.570312 1140.027344 164.660156 C 1140.222656 164.292969 1140.4375 163.9375 1140.632812 163.566406 C 1147.597656 161.269531 1154.613281 159.140625 1161.683594 157.179688 Z M 1139.4375 164.355469 C 1119.640625 201.460938 1114.371094 237.042969 1125.683594 257.222656 C 1128.933594 263.019531 1132.621094 266.082031 1136.957031 266.582031 C 1142.839844 267.261719 1149.660156 263.125 1157.734375 255.875 L 1155.1875 258.542969 C 1133.402344 281.441406 1117.65625 297.984375 1106.035156 296.421875 C 1101.570312 295.820312 1097.792969 292.539062 1094.484375 286.378906 C 1082.683594 264.410156 1089.125 226.050781 1111.292969 186.269531 C 1114.253906 180.960938 1117.421875 175.742188 1120.796875 170.613281 C 1127.046875 168.222656 1133.347656 165.976562 1139.699219 163.875 C 1139.617188 164.046875 1139.53125 164.191406 1139.4375 164.355469 Z M 1182.042969 230.746094 C 1183.167969 229.515625 1184.339844 228.246094 1185.5 226.976562 C 1192.28125 220.492188 1198.710938 213.671875 1204.789062 206.519531 C 1225.3125 185.53125 1250.652344 162.675781 1281.933594 145.125 C 1284.566406 143.644531 1287.210938 142.226562 1289.867188 140.851562 C 1301.355469 141.089844 1312.769531 141.808594 1324.109375 143 C 1303.917969 149.261719 1284.484375 157.332031 1265.804688 167.222656 C 1230.621094 186.125 1202.082031 211.167969 1179.046875 234.019531 Z M 1347.847656 129.796875 C 1339.015625 128.515625 1330.097656 127.578125 1321.132812 126.914062 C 1331.699219 122.871094 1342.230469 119.433594 1352.566406 116.433594 C 1367.117188 118.394531 1381.441406 121.40625 1395.550781 125.46875 C 1385.214844 127.523438 1374.351562 129.761719 1363.132812 132.378906 C 1358.132812 131.421875 1353.039062 130.5625 1347.847656 129.796875 Z M 1319.597656 126.808594 C 1310.484375 126.171875 1301.324219 125.847656 1292.121094 125.839844 C 1293.96875 124.679688 1295.816406 123.519531 1297.726562 122.390625 C 1303.3125 119.097656 1308.96875 116.09375 1314.648438 113.296875 C 1326.785156 113.667969 1338.875 114.648438 1350.914062 116.234375 C 1340.617188 119.257812 1330.117188 122.734375 1319.597656 126.808594 Z M 1352.570312 115.371094 C 1340.738281 113.75 1328.757812 112.75 1316.699219 112.300781 C 1325.988281 107.828125 1335.335938 103.953125 1344.621094 100.558594 C 1348.824219 100.9375 1353.011719 101.394531 1357.179688 101.921875 C 1366.953125 103.164062 1376.640625 104.894531 1386.238281 107.113281 C 1375.691406 109.535156 1364.679688 112.265625 1353.429688 115.5 C 1353.144531 115.460938 1352.863281 115.414062 1352.574219 115.375 Z M 1173.03125 133.832031 C 1166.925781 135.917969 1160.863281 138.148438 1154.851562 140.519531 C 1156.949219 137.515625 1159.121094 134.558594 1161.371094 131.640625 C 1167.074219 129.121094 1172.835938 126.738281 1178.652344 124.496094 C 1176.707031 127.570312 1174.835938 130.683594 1173.035156 133.835938 Z M 1172.226562 135.226562 C 1170.832031 137.722656 1169.492188 140.242188 1168.203125 142.78125 C 1167.875 143.429688 1167.582031 144.074219 1167.265625 144.722656 C 1163.570312 145.855469 1159.890625 147.039062 1156.222656 148.265625 C 1153.40625 149.214844 1150.605469 150.210938 1147.804688 151.21875 C 1149.703125 148.171875 1151.652344 145.144531 1153.691406 142.171875 C 1159.824219 139.714844 1165.996094 137.382812 1172.230469 135.230469 Z M 1146.832031 151.5625 C 1140.964844 153.691406 1135.148438 155.964844 1129.375 158.355469 C 1131.542969 155.429688 1133.765625 152.542969 1136.050781 149.699219 C 1141.519531 147.195312 1147.054688 144.851562 1152.625 142.597656 C 1150.621094 145.550781 1148.691406 148.550781 1146.835938 151.566406 Z M 1145.890625 153.101562 C 1144.035156 156.160156 1142.25 159.25 1140.539062 162.367188 C 1139.589844 162.6875 1138.628906 162.96875 1137.679688 163.289062 C 1132.378906 165.074219 1127.117188 166.984375 1121.882812 168.964844 C 1123.871094 165.972656 1125.933594 163.023438 1128.0625 160.117188 C 1133.960938 157.652344 1139.90625 155.3125 1145.894531 153.105469 Z M 1120.710938 169.410156 C 1115.09375 171.550781 1109.519531 173.8125 1103.988281 176.1875 C 1106.167969 173.382812 1108.398438 170.613281 1110.679688 167.882812 C 1112.742188 166.910156 1114.78125 165.890625 1116.859375 164.953125 C 1120.128906 163.472656 1123.4375 162.082031 1126.742188 160.6875 C 1124.667969 163.566406 1122.660156 166.476562 1120.714844 169.417969 Z M 1119.660156 171.0625 C 1116.492188 175.933594 1113.472656 180.882812 1110.664062 185.921875 C 1088.375 225.914062 1081.933594 264.539062 1093.859375 286.714844 C 1097.28125 293.089844 1101.234375 296.492188 1105.945312 297.125 C 1117.933594 298.742188 1133.78125 282.085938 1155.71875 259.035156 C 1181.898438 231.519531 1217.757812 193.847656 1266.152344 167.839844 C 1285.285156 157.71875 1305.203125 149.5 1325.90625 143.175781 C 1331.613281 143.796875 1337.292969 144.53125 1342.945312 145.382812 C 1352.542969 146.847656 1361.808594 148.636719 1370.738281 150.757812 C 1333.003906 158.230469 1290.5625 168.882812 1249.996094 189.867188 C 1197.105469 217.230469 1157.644531 257.429688 1128.824219 286.78125 C 1104.875 311.171875 1087.585938 328.804688 1075.027344 326.914062 C 1070.210938 326.191406 1066.183594 322.574219 1062.710938 315.863281 C 1050.316406 291.910156 1057.933594 250.542969 1082.574219 207.886719 C 1088.589844 197.53125 1095.242188 187.597656 1102.527344 178.089844 C 1108.195312 175.632812 1113.910156 173.289062 1119.664062 171.066406 Z M 1081.894531 207.492188 C 1057.117188 250.367188 1049.5 292.03125 1062.011719 316.222656 C 1065.597656 323.171875 1069.828125 326.921875 1074.910156 327.683594 C 1087.851562 329.628906 1105.269531 311.886719 1129.382812 287.328125 C 1158.164062 258.015625 1197.574219 217.867188 1250.355469 190.5625 C 1291.433594 169.3125 1334.46875 158.671875 1372.570312 151.195312 C 1386.265625 154.457031 1399.648438 158.703125 1412.71875 163.941406 C 1407.886719 164.773438 1402.882812 165.613281 1397.652344 166.484375 C 1349.90625 174.445312 1290.492188 184.351562 1234.179688 212.53125 C 1176.902344 241.195312 1133.871094 283.863281 1102.457031 315.015625 C 1076.34375 340.910156 1057.484375 359.621094 1044.019531 357.410156 C 1038.847656 356.558594 1034.566406 352.617188 1030.933594 345.347656 C 1017.949219 319.402344 1026.734375 275.015625 1053.863281 229.5 C 1063.128906 214.035156 1073.675781 199.503906 1085.503906 185.902344 C 1090.007812 183.722656 1094.546875 181.613281 1099.117188 179.574219 C 1099.769531 179.289062 1100.410156 179.015625 1101.054688 178.734375 C 1094.078125 187.929688 1087.691406 197.515625 1081.898438 207.492188 Z M 1408.109375 144.613281 C 1417.019531 142.992188 1425.242188 141.453125 1432.6875 139.851562 C 1440.84375 143.90625 1448.539062 148.703125 1455.777344 154.234375 C 1455.40625 154.359375 1455.070312 154.5 1454.695312 154.625 C 1450.175781 156.148438 1444.96875 157.515625 1439.253906 158.8125 C 1429.261719 153.21875 1418.882812 148.484375 1408.109375 144.613281 Z M 1406.648438 144.078125 C 1393 139.25 1379.070312 135.460938 1364.855469 132.714844 C 1376.003906 130.140625 1386.800781 127.9375 1397.054688 125.902344 C 1408.941406 129.378906 1420.441406 133.84375 1431.5625 139.289062 C 1424.027344 140.898438 1415.664062 142.445312 1406.648438 144.078125 Z M 1399.210938 125.476562 L 1405.257812 124.28125 C 1412.664062 122.824219 1419.605469 121.453125 1426.050781 120.082031 C 1434.988281 123.953125 1443.460938 128.660156 1451.460938 134.210938 C 1446.152344 135.910156 1440.015625 137.453125 1433.179688 138.9375 C 1422.238281 133.484375 1410.917969 128.996094 1399.210938 125.476562 Z M 1405.109375 123.578125 C 1402.699219 124.050781 1400.242188 124.535156 1397.765625 125.027344 C 1383.734375 120.875 1369.476562 117.777344 1354.988281 115.730469 C 1366.210938 112.539062 1377.183594 109.851562 1387.6875 107.453125 C 1400.445312 110.417969 1412.851562 114.46875 1424.902344 119.597656 C 1418.75 120.894531 1412.128906 122.199219 1405.109375 123.578125 Z M 1389.867188 106.964844 C 1396.4375 105.476562 1402.832031 104.089844 1408.976562 102.765625 C 1412.347656 102.039062 1415.59375 101.335938 1418.757812 100.640625 C 1428.574219 104.226562 1437.917969 108.773438 1446.800781 114.277344 C 1440.898438 116.015625 1434.078125 117.632812 1426.539062 119.246094 C 1414.671875 114.085938 1402.445312 109.992188 1389.867188 106.964844 Z M 1408.839844 102.125 C 1402.292969 103.539062 1395.457031 105.019531 1388.414062 106.617188 C 1378.144531 104.167969 1367.773438 102.28125 1357.300781 100.953125 C 1353.808594 100.507812 1350.304688 100.117188 1346.789062 99.78125 C 1357.519531 95.941406 1368.136719 92.699219 1378.410156 89.875 C 1391.777344 92.1875 1404.84375 95.636719 1417.605469 100.230469 C 1414.757812 100.847656 1411.851562 101.476562 1408.839844 102.125 Z M 1380.457031 89.320312 C 1391.0625 86.441406 1401.28125 83.972656 1410.867188 81.6875 C 1421.59375 84.851562 1431.871094 89.101562 1441.703125 94.4375 C 1435.128906 96.28125 1427.585938 98.035156 1419.265625 99.863281 C 1406.636719 95.214844 1393.703125 91.699219 1380.457031 89.320312 Z M 1186.769531 112.582031 C 1181.519531 114.800781 1176.320312 117.125 1171.183594 119.59375 C 1173.652344 116.746094 1176.210938 113.957031 1178.808594 111.214844 C 1181.804688 109.59375 1184.816406 108.003906 1187.863281 106.480469 C 1189.726562 105.546875 1191.625 104.679688 1193.507812 103.78125 C 1191.1875 106.664062 1188.941406 109.601562 1186.769531 112.582031 Z M 1170.117188 121.101562 C 1175.246094 118.605469 1180.453125 116.285156 1185.6875 114.046875 C 1183.554688 117.027344 1181.496094 120.054688 1179.519531 123.125 C 1173.859375 125.28125 1168.230469 127.542969 1162.667969 129.964844 C 1164.949219 127.039062 1167.285156 124.144531 1169.703125 121.3125 C 1169.847656 121.238281 1169.976562 121.164062 1170.113281 121.101562 Z M 1161.417969 130.515625 C 1158.242188 131.914062 1155.082031 133.34375 1151.945312 134.828125 C 1150.058594 135.714844 1148.207031 136.683594 1146.339844 137.605469 C 1148.800781 134.878906 1151.324219 132.195312 1153.910156 129.5625 C 1158.628906 126.960938 1163.398438 124.441406 1168.234375 122.054688 C 1165.898438 124.835938 1163.625 127.65625 1161.417969 130.515625 Z M 1152.367188 135.71875 C 1154.925781 134.507812 1157.515625 133.375 1160.101562 132.222656 C 1157.917969 135.105469 1155.78125 138.011719 1153.730469 140.976562 C 1148.269531 143.15625 1142.863281 145.484375 1137.496094 147.90625 C 1139.796875 145.09375 1142.152344 142.316406 1144.566406 139.582031 C 1147.15625 138.277344 1149.742188 136.957031 1152.367188 135.714844 Z M 1136.0625 148.546875 C 1135.433594 148.832031 1134.800781 149.097656 1134.171875 149.390625 C 1129.972656 151.328125 1125.8125 153.34375 1121.691406 155.433594 C 1124.128906 152.820312 1126.621094 150.246094 1129.171875 147.710938 C 1133.695312 145.175781 1138.28125 142.753906 1142.910156 140.402344 C 1140.566406 143.078125 1138.285156 145.789062 1136.0625 148.546875 Z M 1134.613281 150.339844 L 1134.628906 150.332031 C 1132.390625 153.148438 1130.210938 156 1128.089844 158.886719 C 1124.175781 160.519531 1120.273438 162.191406 1116.40625 163.945312 C 1115.046875 164.558594 1113.71875 165.230469 1112.367188 165.859375 C 1114.703125 163.121094 1117.089844 160.417969 1119.527344 157.75 C 1124.507812 155.183594 1129.527344 152.6875 1134.613281 150.335938 Z M 1110.691406 166.652344 C 1106.03125 168.847656 1101.414062 171.125 1096.839844 173.484375 C 1099.234375 170.996094 1101.664062 168.542969 1104.132812 166.121094 C 1108.554688 163.597656 1113.023438 161.15625 1117.542969 158.796875 C 1115.207031 161.378906 1112.925781 163.996094 1110.691406 166.652344 Z M 1109.007812 168.683594 C 1106.792969 171.363281 1104.625 174.078125 1102.511719 176.828125 C 1101.222656 177.390625 1099.921875 177.925781 1098.632812 178.496094 C 1094.855469 180.175781 1091.109375 181.921875 1087.378906 183.703125 C 1089.679688 181.105469 1092.027344 178.535156 1094.425781 175.992188 C 1099.238281 173.460938 1104.097656 171.027344 1109.007812 168.683594 Z M 1085.488281 184.605469 C 1081.039062 186.753906 1076.628906 188.980469 1072.261719 191.277344 C 1074.570312 188.9375 1076.90625 186.605469 1079.28125 184.328125 C 1083.554688 181.855469 1087.875 179.457031 1092.234375 177.128906 C 1089.945312 179.589844 1087.691406 182.078125 1085.488281 184.601562 Z M 1083.585938 186.84375 C 1072.234375 200.050781 1062.082031 214.125 1053.128906 229.066406 C 1025.859375 274.828125 1017.066406 319.527344 1030.179688 345.730469 C 1033.957031 353.253906 1038.433594 357.351562 1043.890625 358.246094 C 1057.769531 360.539062 1076.773438 341.695312 1103.066406 315.621094 C 1134.4375 284.507812 1177.40625 241.898438 1234.558594 213.292969 C 1290.742188 185.179688 1350.101562 175.273438 1397.789062 167.328125 C 1403.503906 166.375 1408.980469 165.449219 1414.214844 164.554688 C 1424.285156 168.65625 1433.960938 173.542969 1443.238281 179.210938 C 1429.777344 182.386719 1413.015625 184.984375 1393.929688 187.941406 C 1342.722656 195.863281 1278.992188 205.722656 1218.367188 235.1875 C 1156.695312 265.167969 1110.105469 310.300781 1076.089844 343.257812 C 1047.828125 370.644531 1027.402344 390.4375 1013.015625 387.90625 C 1007.492188 386.929688 1002.960938 382.65625 999.160156 374.835938 C 985.582031 346.902344 995.535156 299.496094 1025.140625 251.128906 C 1037.828125 230.496094 1052.605469 211.488281 1069.464844 194.097656 C 1074.128906 191.59375 1078.832031 189.175781 1083.585938 186.839844 Z M 1024.367188 250.644531 C 994.605469 299.285156 984.632812 347.027344 998.34375 375.234375 C 1002.28125 383.339844 1007.03125 387.785156 1012.867188 388.808594 C 1027.71875 391.417969 1048.277344 371.496094 1076.738281 343.90625 C 1110.710938 310.992188 1157.238281 265.917969 1218.777344 236.007812 C 1279.273438 206.609375 1342.929688 196.753906 1394.078125 188.835938 C 1413.566406 185.820312 1430.644531 183.171875 1444.308594 179.878906 C 1451.152344 184.132812 1457.566406 188.960938 1463.550781 194.355469 C 1461.746094 195.125 1459.84375 195.851562 1457.78125 196.546875 C 1441.832031 201.921875 1418.378906 205.308594 1390.210938 209.371094 C 1335.542969 217.261719 1267.507812 227.082031 1202.5625 257.828125 C 1136.5 289.109375 1086.351562 336.714844 1049.738281 371.472656 C 1019.308594 400.359375 997.328125 421.226562 982.019531 418.378906 C 976.144531 417.28125 971.359375 412.675781 967.394531 404.296875 C 953.230469 374.375 964.355469 323.957031 996.425781 272.710938 C 1012.746094 246.816406 1032.078125 223.414062 1054.425781 202.503906 C 1058.554688 200.085938 1062.722656 197.738281 1066.925781 195.449219 C 1050.792969 212.347656 1036.605469 230.746094 1024.367188 250.644531 Z M 995.59375 272.214844 C 963.347656 323.742188 952.199219 374.523438 966.503906 404.742188 C 970.617188 413.421875 975.632812 418.210938 981.839844 419.367188 C 997.628906 422.3125 1019.773438 401.300781 1050.410156 372.210938 C 1086.988281 337.496094 1137.0625 289.953125 1202.984375 258.742188 C 1267.789062 228.058594 1335.75 218.25 1390.355469 210.371094 C 1422.441406 205.738281 1448.429688 201.980469 1464.347656 195.097656 C 1468.800781 199.195312 1472.820312 203.6875 1476.398438 208.566406 C 1471.285156 212.722656 1465.566406 215.730469 1459.238281 217.582031 C 1442.238281 223.308594 1416.957031 226.726562 1386.484375 230.84375 C 1328.355469 238.699219 1256.011719 248.484375 1186.746094 280.511719 C 1116.289062 313.097656 1062.582031 363.167969 1023.375 399.738281 C 990.785156 430.125 967.226562 452.082031 951.015625 448.902344 C 944.785156 447.679688 939.753906 442.742188 935.621094 433.804688 C 920.867188 401.902344 933.164062 348.464844 967.710938 294.359375 C 977.71875 278.816406 988.792969 264.082031 1000.941406 250.152344 C 1013.089844 236.222656 1026.179688 223.242188 1040.210938 211.214844 C 1043.726562 208.980469 1047.265625 206.792969 1050.835938 204.648438 C 1029.644531 224.898438 1011.230469 247.414062 995.59375 272.203125 Z M 1465.492188 194.554688 C 1468.613281 193.179688 1471.515625 191.4375 1474.195312 189.324219 C 1477.078125 193.132812 1479.519531 197.210938 1481.519531 201.550781 C 1481.289062 202.148438 1481.027344 202.730469 1480.726562 203.292969 C 1479.796875 204.953125 1478.644531 206.445312 1477.277344 207.769531 C 1473.765625 202.996094 1469.835938 198.589844 1465.492188 194.554688 Z M 1464.730469 193.867188 C 1458.859375 188.523438 1452.566406 183.730469 1445.851562 179.492188 C 1450.855469 178.292969 1455.761719 176.773438 1460.566406 174.9375 C 1465.390625 179.042969 1469.742188 183.59375 1473.628906 188.59375 C 1470.894531 190.738281 1467.925781 192.496094 1464.734375 193.867188 Z M 1461.707031 174.484375 C 1465.117188 173.140625 1468.3125 171.410156 1471.304688 169.292969 C 1474.402344 173.113281 1477.023438 177.234375 1479.167969 181.660156 C 1479.019531 181.992188 1478.898438 182.335938 1478.722656 182.65625 C 1477.605469 184.644531 1476.179688 186.378906 1474.449219 187.859375 C 1470.644531 182.976562 1466.394531 178.511719 1461.703125 174.472656 Z M 1460.953125 173.839844 C 1454.519531 168.417969 1447.644531 163.621094 1440.332031 159.453125 C 1445.828125 158.226562 1451.234375 156.6875 1456.554688 154.84375 C 1461.777344 158.917969 1466.503906 163.5 1470.738281 168.589844 C 1467.695312 170.746094 1464.433594 172.492188 1460.953125 173.832031 Z M 1457.695312 154.4375 C 1461.4375 153.105469 1464.980469 151.363281 1468.320312 149.214844 C 1471.667969 153.054688 1474.496094 157.242188 1476.804688 161.78125 C 1476.769531 161.855469 1476.746094 161.933594 1476.707031 162.007812 C 1475.417969 164.355469 1473.710938 166.339844 1471.582031 167.964844 C 1467.425781 162.96875 1462.796875 158.460938 1457.695312 154.4375 Z M 1456.9375 153.824219 C 1449.84375 148.335938 1442.296875 143.566406 1434.296875 139.511719 C 1441.015625 138.035156 1447.027344 136.484375 1452.257812 134.777344 C 1457.949219 138.800781 1463.121094 143.40625 1467.769531 148.597656 C 1464.359375 150.761719 1460.75 152.5 1456.933594 153.816406 Z M 1453.382812 134.414062 C 1457.507812 133.089844 1461.441406 131.347656 1465.191406 129.179688 C 1468.816406 132.996094 1471.886719 137.21875 1474.398438 141.84375 C 1472.914062 144.339844 1470.96875 146.398438 1468.5625 148.019531 C 1464.007812 142.921875 1458.953125 138.382812 1453.394531 134.40625 Z M 1453.011719 133.734375 C 1452.886719 133.777344 1452.746094 133.824219 1452.621094 133.867188 C 1444.757812 128.34375 1436.429688 123.640625 1427.640625 119.761719 C 1435.0625 118.164062 1441.757812 116.542969 1447.578125 114.789062 C 1453.816406 118.71875 1459.507812 123.320312 1464.652344 128.601562 C 1460.957031 130.722656 1457.082031 132.429688 1453.023438 133.722656 Z M 1448.71875 114.433594 C 1453.28125 113.089844 1457.675781 111.316406 1461.894531 109.121094 C 1465.855469 112.90625 1469.210938 117.164062 1471.960938 121.902344 C 1470.261719 124.464844 1468.09375 126.535156 1465.453125 128.113281 C 1460.40625 122.902344 1454.828125 118.339844 1448.71875 114.433594 Z M 1451.1875 112.894531 C 1450.140625 113.25 1449.019531 113.589844 1447.90625 113.929688 C 1439.1875 108.445312 1430 103.902344 1420.351562 100.296875 C 1428.5625 98.480469 1435.980469 96.734375 1442.46875 94.894531 C 1449.339844 98.683594 1455.640625 103.261719 1461.375 108.625 C 1458.105469 110.328125 1454.714844 111.75 1451.207031 112.890625 Z M 1443.59375 94.570312 C 1448.691406 93.171875 1453.636719 91.355469 1458.425781 89.113281 C 1462.78125 92.851562 1466.476562 97.15625 1469.515625 102.027344 C 1467.507812 104.621094 1465.046875 106.671875 1462.132812 108.183594 C 1456.515625 102.886719 1450.34375 98.347656 1443.613281 94.5625 Z M 1449.15625 92.171875 C 1447.175781 92.839844 1445.03125 93.484375 1442.808594 94.121094 C 1433.148438 88.785156 1423.039062 84.511719 1412.480469 81.300781 L 1412.679688 81.253906 C 1421.589844 79.125 1429.722656 77.183594 1436.878906 75.207031 C 1444.476562 78.773438 1451.488281 83.257812 1457.914062 88.652344 C 1455.078125 90.007812 1452.164062 91.175781 1449.179688 92.164062 Z M 1438.007812 74.890625 C 1443.707031 73.382812 1449.273438 71.472656 1454.703125 69.167969 C 1459.5 72.796875 1463.59375 77.09375 1466.984375 82.0625 C 1464.660156 84.730469 1461.890625 86.804688 1458.679688 88.285156 C 1452.371094 82.929688 1445.488281 78.464844 1438.027344 74.886719 Z M 1203.582031 92.058594 C 1199.410156 94.25 1195.300781 96.550781 1191.234375 98.933594 C 1193.910156 96.464844 1196.636719 94.050781 1199.417969 91.695312 C 1203.207031 89.15625 1207.054688 86.710938 1210.957031 84.359375 C 1208.453125 86.867188 1206 89.433594 1203.601562 92.050781 Z M 1201.960938 93.828125 C 1199.476562 96.589844 1197.046875 99.394531 1194.699219 102.257812 C 1192.28125 103.394531 1189.855469 104.523438 1187.464844 105.722656 C 1185.164062 106.875 1182.902344 108.089844 1180.632812 109.292969 C 1183.214844 106.621094 1185.855469 103.980469 1188.566406 101.410156 C 1192.972656 98.765625 1197.441406 96.234375 1201.980469 93.820312 Z M 1178.832031 110.238281 C 1174.921875 112.339844 1171.046875 114.5 1167.230469 116.757812 C 1169.6875 114.546875 1172.191406 112.375 1174.738281 110.246094 C 1178.5 107.707031 1182.300781 105.226562 1186.179688 102.847656 C 1183.675781 105.265625 1181.226562 107.726562 1178.832031 110.238281 Z M 1176.945312 112.210938 C 1174.472656 114.855469 1172.0625 117.542969 1169.707031 120.277344 C 1165.152344 122.492188 1160.664062 124.832031 1156.210938 127.238281 C 1158.757812 124.691406 1161.351562 122.1875 1164 119.730469 C 1168.265625 117.136719 1172.570312 114.609375 1176.949219 112.207031 Z M 1153.960938 128.484375 C 1150.214844 130.542969 1146.507812 132.667969 1142.839844 134.859375 C 1145.261719 132.722656 1147.726562 130.632812 1150.21875 128.570312 C 1153.746094 126.179688 1157.324219 123.859375 1160.949219 121.609375 C 1158.582031 123.863281 1156.253906 126.152344 1153.96875 128.480469 Z M 1151.65625 130.804688 C 1149.234375 133.328125 1146.867188 135.890625 1144.550781 138.488281 C 1140.234375 140.652344 1135.957031 142.890625 1131.722656 145.210938 C 1134.238281 142.761719 1136.800781 140.355469 1139.40625 137.988281 C 1143.4375 135.511719 1147.527344 133.113281 1151.671875 130.800781 Z M 1129.210938 146.578125 C 1125.726562 148.527344 1122.28125 150.542969 1118.863281 152.597656 C 1121.199219 150.566406 1123.585938 148.597656 1125.988281 146.632812 C 1129.203125 144.457031 1132.453125 142.332031 1135.746094 140.265625 C 1133.535156 142.328125 1131.363281 144.433594 1129.214844 146.570312 Z M 1126.5 149.257812 C 1124.136719 151.660156 1121.808594 154.097656 1119.523438 156.570312 C 1115.421875 158.671875 1111.359375 160.839844 1107.335938 163.078125 C 1109.746094 160.789062 1112.191406 158.535156 1114.671875 156.3125 C 1118.574219 153.886719 1122.519531 151.53125 1126.503906 149.25 Z M 1104.214844 164.871094 C 1101.066406 166.660156 1097.929688 168.46875 1094.828125 170.339844 C 1096.878906 168.597656 1098.957031 166.890625 1101.054688 165.191406 C 1104.109375 163.109375 1107.195312 161.074219 1110.316406 159.085938 C 1108.25 160.972656 1106.226562 162.914062 1104.21875 164.863281 Z M 1101.234375 167.792969 C 1098.929688 170.085938 1096.640625 172.394531 1094.410156 174.75 C 1090.5 176.800781 1086.621094 178.910156 1082.777344 181.082031 C 1085.089844 178.933594 1087.414062 176.800781 1089.785156 174.710938 C 1093.5625 172.339844 1097.378906 170.023438 1101.234375 167.769531 Z M 1079.359375 183.007812 C 1076.417969 184.703125 1073.511719 186.445312 1070.617188 188.207031 C 1072.5 186.625 1074.398438 185.054688 1076.320312 183.507812 C 1079.289062 181.480469 1082.257812 179.457031 1085.28125 177.5 C 1083.289062 179.3125 1081.316406 181.144531 1079.363281 183 Z M 1076.089844 186.171875 C 1073.875 188.335938 1071.664062 190.507812 1069.511719 192.726562 C 1065.816406 194.699219 1062.152344 196.722656 1058.519531 198.796875 C 1060.703125 196.804688 1062.898438 194.808594 1065.128906 192.863281 C 1068.75 190.570312 1072.40625 188.339844 1076.09375 186.160156 Z M 1054.546875 201.082031 C 1051.957031 202.597656 1049.378906 204.136719 1046.816406 205.699219 C 1048.484375 204.324219 1050.136719 202.933594 1051.828125 201.582031 C 1054.425781 199.808594 1057.074219 198.105469 1059.707031 196.386719 C 1057.984375 197.933594 1056.25 199.488281 1054.550781 201.074219 Z M 1034.5 214.890625 C 1021.46875 226.433594 1009.289062 238.808594 997.957031 252.019531 C 986.621094 265.230469 976.242188 279.152344 966.820312 293.789062 C 932.078125 348.195312 919.757812 402.015625 934.664062 434.253906 C 938.945312 443.507812 944.238281 448.640625 950.808594 449.933594 C 967.558594 453.207031 991.261719 431.109375 1024.082031 400.507812 C 1063.25 363.996094 1116.886719 313.988281 1187.1875 281.472656 C 1256.308594 249.5 1328.566406 239.738281 1386.621094 231.875 C 1430.308594 225.976562 1463.386719 221.503906 1477.019531 209.449219 C 1479.628906 213.109375 1481.855469 216.992188 1483.707031 221.085938 C 1483.765625 221.21875 1483.804688 221.34375 1483.859375 221.472656 C 1483.550781 222.324219 1483.175781 223.144531 1482.738281 223.9375 C 1479.1875 230.289062 1471.582031 234.929688 1460.660156 238.609375 C 1442.609375 244.6875 1415.515625 248.132812 1382.757812 252.289062 C 1321.167969 260.117188 1244.523438 269.851562 1170.9375 303.164062 C 1096.089844 337.054688 1038.820312 389.597656 997.003906 427.964844 C 962.25 459.847656 937.144531 482.890625 920 479.378906 C 913.417969 478.035156 908.132812 472.765625 903.835938 463.277344 C 888.488281 429.382812 901.957031 372.929688 938.984375 315.953125 C 950.960938 297.703125 964.324219 280.53125 979.070312 264.433594 C 993.8125 248.339844 1009.753906 233.527344 1026.882812 219.996094 C 1029.40625 218.269531 1031.945312 216.5625 1034.503906 214.882812 Z M 1482.039062 200.050781 C 1480.09375 196.019531 1477.769531 192.214844 1475.070312 188.644531 C 1476.90625 187.074219 1478.414062 185.230469 1479.585938 183.117188 C 1479.636719 183.027344 1479.664062 182.929688 1479.710938 182.839844 C 1482.710938 189.535156 1483.46875 195.207031 1482.039062 200.050781 Z M 1479.695312 180.367188 C 1477.589844 176.183594 1475.058594 172.265625 1472.109375 168.625 C 1474.230469 167.011719 1475.960938 165.058594 1477.304688 162.761719 C 1477.316406 162.800781 1477.34375 162.832031 1477.359375 162.867188 C 1480.617188 169.746094 1481.382812 175.5 1479.695312 180.367188 Z M 1475.242188 143.460938 C 1478.539062 150.238281 1479.203125 155.863281 1477.3125 160.613281 C 1475.050781 156.320312 1472.332031 152.34375 1469.152344 148.679688 C 1471.464844 147.082031 1473.367188 145.09375 1474.855469 142.707031 C 1474.976562 142.957031 1475.117188 143.203125 1475.242188 143.460938 Z M 1473.128906 124.050781 C 1476.472656 130.726562 1477.035156 136.222656 1474.914062 140.851562 C 1472.4375 136.414062 1469.457031 132.351562 1465.96875 128.664062 C 1468.53125 127.117188 1470.671875 125.125 1472.398438 122.683594 C 1472.640625 123.136719 1472.898438 123.589844 1473.128906 124.050781 Z M 1471.015625 104.640625 C 1474.320312 111.03125 1474.867188 116.28125 1472.695312 120.714844 C 1472.636719 120.835938 1472.546875 120.945312 1472.484375 121.0625 C 1469.773438 116.496094 1466.507812 112.375 1462.6875 108.6875 C 1465.515625 107.183594 1467.929688 105.183594 1469.933594 102.679688 C 1470.304688 103.332031 1470.671875 103.984375 1471.015625 104.640625 Z M 1468.894531 85.226562 C 1472.042969 91.085938 1472.625 95.941406 1470.675781 100.066406 C 1470.460938 100.476562 1470.230469 100.871094 1469.976562 101.253906 C 1466.992188 96.558594 1463.402344 92.386719 1459.203125 88.738281 C 1462.332031 87.257812 1465.046875 85.21875 1467.347656 82.628906 C 1467.902344 83.488281 1468.425781 84.355469 1468.894531 85.226562 Z M 1466.78125 65.820312 C 1469.773438 71.152344 1470.390625 75.601562 1468.667969 79.421875 C 1468.332031 80.148438 1467.929688 80.832031 1467.460938 81.476562 C 1464.128906 76.625 1460.128906 72.410156 1455.460938 68.828125 C 1458.953125 67.367188 1462.054688 65.308594 1464.761719 62.664062 C 1465.488281 63.707031 1466.179688 64.742188 1466.785156 65.824219 Z M 1258.859375 47.992188 C 1268.390625 42.335938 1278.265625 37.378906 1288.492188 33.113281 C 1298.71875 28.847656 1309.191406 25.320312 1319.914062 22.53125 C 1330.636719 19.742188 1341.503906 17.71875 1352.511719 16.457031 C 1363.515625 15.195312 1374.558594 14.710938 1385.632812 15.003906 C 1423.765625 16.390625 1454.046875 28.425781 1464.667969 46.417969 C 1467.5 51.21875 1468.148438 55.265625 1466.660156 58.785156 C 1466.191406 59.820312 1465.585938 60.765625 1464.839844 61.625 C 1451.644531 43.542969 1420.171875 31.136719 1380.933594 28.84375 C 1364.796875 28 1348.726562 28.695312 1332.722656 30.921875 C 1316.71875 33.148438 1301.066406 36.867188 1285.773438 42.082031 C 1270.160156 47.335938 1255.167969 53.988281 1240.792969 62.039062 C 1236.375 64.523438 1232.046875 67.15625 1227.78125 69.886719 C 1237.5625 61.765625 1247.921875 54.46875 1258.859375 47.992188 Z M 1219.796875 76 C 1217.566406 78.007812 1215.375 80.050781 1213.222656 82.132812 C 1210.207031 83.914062 1207.222656 85.746094 1204.277344 87.636719 C 1209.300781 83.578125 1214.476562 79.703125 1219.800781 76.007812 Z M 1194.496094 95.078125 C 1192.496094 96.859375 1190.519531 98.660156 1188.574219 100.488281 C 1185.882812 102.097656 1183.230469 103.753906 1180.59375 105.441406 C 1185.117188 101.855469 1189.761719 98.414062 1194.5 95.085938 Z M 1169.449219 113.847656 C 1167.632812 115.453125 1165.824219 117.058594 1164.042969 118.695312 C 1161.867188 120.015625 1159.6875 121.332031 1157.542969 122.699219 C 1161.445312 119.671875 1165.40625 116.710938 1169.453125 113.855469 Z M 1143.449219 133.28125 C 1142.089844 134.46875 1140.757812 135.679688 1139.425781 136.898438 C 1137.574219 138.03125 1135.730469 139.183594 1133.902344 140.351562 C 1137.042969 137.949219 1140.222656 135.59375 1143.449219 133.292969 Z M 1118.046875 152.164062 C 1116.941406 153.121094 1115.863281 154.101562 1114.773438 155.070312 C 1113.292969 155.984375 1111.832031 156.929688 1110.363281 157.863281 C 1112.90625 155.945312 1115.453125 154.023438 1118.050781 152.171875 Z M 1092.351562 171.269531 C 1091.527344 171.980469 1090.699219 172.691406 1089.882812 173.410156 C 1088.945312 173.992188 1088 174.566406 1087.066406 175.160156 C 1088.816406 173.847656 1090.578125 172.546875 1092.351562 171.261719 Z M 1066.25 190.621094 C 1065.902344 190.917969 1065.550781 191.203125 1065.210938 191.5 C 1064.820312 191.746094 1064.421875 191.972656 1064.03125 192.222656 C 1064.765625 191.679688 1065.507812 191.160156 1066.25 190.621094 Z M 910.269531 337.566406 C 924.292969 316.5625 940.035156 296.941406 957.503906 278.703125 C 974.96875 260.464844 993.894531 243.890625 1014.273438 228.976562 C 999.574219 241.476562 985.839844 254.964844 973.070312 269.433594 C 960.304688 283.902344 948.628906 299.207031 938.050781 315.347656 C 900.820312 372.628906 887.328125 429.5 902.824219 463.734375 C 907.28125 473.574219 912.832031 479.050781 919.785156 480.472656 C 937.46875 484.082031 962.765625 460.890625 997.757812 428.785156 C 1039.519531 390.46875 1096.714844 337.996094 1171.394531 304.179688 C 1244.832031 270.929688 1321.386719 261.207031 1382.898438 253.394531 C 1435.796875 246.675781 1474.015625 241.824219 1483.710938 224.480469 C 1483.992188 223.972656 1484.210938 223.441406 1484.441406 222.917969 C 1487.9375 231.628906 1488.0625 238.746094 1484.75 244.582031 C 1481.03125 251.121094 1473.230469 255.898438 1462.058594 259.660156 C 1442.96875 266.089844 1414.066406 269.550781 1379.035156 273.742188 C 1313.980469 281.53125 1233.027344 291.21875 1155.132812 325.824219 C 1075.894531 361.019531 1015.0625 416.03125 970.648438 456.195312 C 933.730469 489.578125 907.058594 513.691406 889.007812 509.871094 C 882.074219 508.402344 876.535156 502.804688 872.070312 492.757812 C 856.125 456.875 870.765625 397.410156 910.269531 337.566406 Z M 910.269531 337.566406 " fill-opacity="1" fill-rule="nonzero"/></g></g></g></svg>