<svg viewBox="0 0 511 511" xmlns="http://www.w3.org/2000/svg"><g id="Layer_2" data-name="Layer 2"><g id="Layer_3_copy" data-name="Layer 3 copy"><g id="_4" data-name="4"><rect fill="#fff" height="511" rx="6.25" width="511"/><rect fill="#b61f8a" height="501" rx="1.25" width="501" x="5" y="5"/><path d="m88.5 93a6.21 6.21 0 0 1 -4.42-1.83l-80.48-80.5a6.25 6.25 0 0 1 4.4-10.67h161a6.25 6.25 0 0 1 4.42 10.67l-80.5 80.48a6.21 6.21 0 0 1 -4.42 1.85z" fill="#fff"/><path d="m169.86 7.14-80.47 80.47a1.25 1.25 0 0 1 -1.77 0l-80.48-80.47a1.25 1.25 0 0 1 .86-2.14h161a1.25 1.25 0 0 1 .86 2.14z" fill="#b0269f"/><path d="m8 177a6.25 6.25 0 0 1 -4.4-10.67l80.48-80.48a6.25 6.25 0 0 1 8.84 0l80.48 80.48a6.25 6.25 0 0 1 -4.4 10.67z" fill="#fff"/><path d="m7.14 169.86 80.48-80.47a1.25 1.25 0 0 1 1.77 0l80.47 80.47a1.25 1.25 0 0 1 -.86 2.14h-161a1.25 1.25 0 0 1 -.86-2.14z" fill="#871c7c"/><path d="m170.74 175.23a6.2 6.2 0 0 1 -4.41-1.83l-80.48-80.48a6.25 6.25 0 0 1 0-8.84l80.48-80.48a6.25 6.25 0 0 1 10.67 4.4v161a6.26 6.26 0 0 1 -6.26 6.23z" fill="#fff"/><path d="m169.86 169.86-80.47-80.47a1.26 1.26 0 0 1 0-1.78l80.47-80.47a1.25 1.25 0 0 1 2.14.86v161a1.25 1.25 0 0 1 -2.14.86z" fill="#961d86"/><path d="m6.26 175.23a6.26 6.26 0 0 1 -6.26-6.23v-161a6.25 6.25 0 0 1 10.67-4.4l80.48 80.48a6.25 6.25 0 0 1 0 8.84l-80.48 80.48a6.2 6.2 0 0 1 -4.41 1.83z" fill="#fff"/><path d="m7.14 7.14 80.48 80.47a1.28 1.28 0 0 1 0 1.78l-80.48 80.47a1.25 1.25 0 0 1 -2.14-.86v-161a1.25 1.25 0 0 1 2.14-.86z" fill="#a62697"/><path d="m255.5 93a6.21 6.21 0 0 1 -4.42-1.83l-80.48-80.5a6.25 6.25 0 0 1 4.4-10.67h161a6.25 6.25 0 0 1 4.42 10.67l-80.5 80.48a6.21 6.21 0 0 1 -4.42 1.85z" fill="#fff"/><path d="m336.86 7.14-80.47 80.47a1.25 1.25 0 0 1 -1.77 0l-80.48-80.47a1.25 1.25 0 0 1 .86-2.14h161a1.25 1.25 0 0 1 .86 2.14z" fill="#d52c53"/><path d="m175 177a6.25 6.25 0 0 1 -4.43-10.67l80.48-80.48a6.25 6.25 0 0 1 8.84 0l80.48 80.48a6.25 6.25 0 0 1 -4.37 10.67z" fill="#fff"/><path d="m174.14 169.86 80.48-80.47a1.25 1.25 0 0 1 1.77 0l80.47 80.47a1.25 1.25 0 0 1 -.86 2.14h-161a1.25 1.25 0 0 1 -.86-2.14z" fill="#a1223f"/><path d="m337.74 175.23a6.2 6.2 0 0 1 -4.41-1.83l-80.48-80.48a6.25 6.25 0 0 1 0-8.84l80.48-80.48a6.25 6.25 0 0 1 10.67 4.4v161a6.26 6.26 0 0 1 -6.26 6.23z" fill="#fff"/><path d="m336.86 169.86-80.47-80.47a1.26 1.26 0 0 1 0-1.78l80.47-80.47a1.25 1.25 0 0 1 2.14.86v161a1.25 1.25 0 0 1 -2.14.86z" fill="#b42448"/><path d="m173.26 175.23a6.26 6.26 0 0 1 -6.26-6.23v-161a6.26 6.26 0 0 1 6.26-6.25 6.19 6.19 0 0 1 4.41 1.83l80.48 80.48a6.25 6.25 0 0 1 0 8.84l-80.48 80.5a6.19 6.19 0 0 1 -4.41 1.83z" fill="#fff"/><path d="m174.14 7.14 80.48 80.47a1.26 1.26 0 0 1 0 1.78l-80.48 80.47a1.25 1.25 0 0 1 -2.14-.86v-161a1.25 1.25 0 0 1 2.14-.86z" fill="#c52a4c"/><path d="m422.5 93a6.21 6.21 0 0 1 -4.42-1.83l-80.47-80.5a6.25 6.25 0 0 1 4.39-10.67h161a6.25 6.25 0 0 1 4.42 10.67l-80.5 80.48a6.18 6.18 0 0 1 -4.42 1.85z" fill="#fff"/><path d="m503.87 7.14-80.48 80.47a1.25 1.25 0 0 1 -1.77 0l-80.48-80.47a1.25 1.25 0 0 1 .86-2.14h161a1.26 1.26 0 0 1 .87 2.14z" fill="#f35c25"/><path d="m342 177a6.25 6.25 0 0 1 -4.42-10.67l80.47-80.48a6.26 6.26 0 0 1 8.85 0l80.47 80.48a6.25 6.25 0 0 1 -4.37 10.67z" fill="#fff"/><path d="m341.14 169.86 80.48-80.47a1.25 1.25 0 0 1 1.77 0l80.48 80.47a1.26 1.26 0 0 1 -.87 2.14h-161a1.25 1.25 0 0 1 -.86-2.14z" fill="#c44c27"/><path d="m504.74 175.23a6.2 6.2 0 0 1 -4.41-1.83l-80.48-80.48a6.27 6.27 0 0 1 0-8.84l80.48-80.48a6.25 6.25 0 0 1 10.67 4.4v161a6.25 6.25 0 0 1 -6.26 6.23z" fill="#fff"/><path d="m503.87 169.86-80.48-80.47a1.26 1.26 0 0 1 0-1.78l80.48-80.47a1.25 1.25 0 0 1 2.13.86v161a1.25 1.25 0 0 1 -2.13.86z" fill="#d15120"/><path d="m340.26 175.23a6.26 6.26 0 0 1 -6.26-6.23v-161a6.26 6.26 0 0 1 10.68-4.4l80.47 80.48a6.26 6.26 0 0 1 0 8.84l-80.47 80.48a6.23 6.23 0 0 1 -4.42 1.83z" fill="#fff"/><path d="m341.14 7.14 80.48 80.47a1.26 1.26 0 0 1 0 1.78l-80.48 80.47a1.25 1.25 0 0 1 -2.14-.86v-161a1.25 1.25 0 0 1 2.14-.86z" fill="#de5624"/><path d="m88.5 260a6.21 6.21 0 0 1 -4.42-1.83l-80.48-80.5a6.25 6.25 0 0 1 4.4-10.67h161a6.25 6.25 0 0 1 4.42 10.67l-80.5 80.48a6.21 6.21 0 0 1 -4.42 1.85z" fill="#fff"/><path d="m169.86 174.14-80.47 80.48a1.25 1.25 0 0 1 -1.77 0l-80.48-80.48a1.25 1.25 0 0 1 .86-2.14h161a1.25 1.25 0 0 1 .86 2.14z" fill="#9b46a3"/><path d="m8 344a6.25 6.25 0 0 1 -4.4-10.67l80.48-80.48a6.21 6.21 0 0 1 4.42-1.85 6.21 6.21 0 0 1 4.42 1.83l80.48 80.48a6.25 6.25 0 0 1 -4.4 10.69z" fill="#fff"/><path d="m7.14 336.86 80.48-80.47a1.25 1.25 0 0 1 1.77 0l80.47 80.47a1.25 1.25 0 0 1 -.86 2.14h-161a1.25 1.25 0 0 1 -.86-2.14z" fill="#743874"/><path d="m170.74 342.23a6.2 6.2 0 0 1 -4.41-1.83l-80.48-80.48a6.25 6.25 0 0 1 0-8.84l80.48-80.48a6.2 6.2 0 0 1 4.41-1.83 6.27 6.27 0 0 1 6.26 6.23v161a6.26 6.26 0 0 1 -6.26 6.23z" fill="#fff"/><path d="m169.86 336.86-80.47-80.47a1.25 1.25 0 0 1 0-1.77l80.47-80.48a1.25 1.25 0 0 1 2.14.86v161a1.25 1.25 0 0 1 -2.14.86z" fill="#853d86"/><path d="m6.26 342.23a6.26 6.26 0 0 1 -6.26-6.23v-161a6.27 6.27 0 0 1 6.26-6.25 6.2 6.2 0 0 1 4.41 1.83l80.48 80.48a6.25 6.25 0 0 1 0 8.84l-80.48 80.5a6.2 6.2 0 0 1 -4.41 1.83z" fill="#fff"/><path d="m7.14 174.14 80.48 80.48a1.27 1.27 0 0 1 0 1.77l-80.48 80.47a1.25 1.25 0 0 1 -2.14-.86v-161a1.25 1.25 0 0 1 2.14-.86z" fill="#8d408e"/><path d="m255.5 260a6.21 6.21 0 0 1 -4.42-1.83l-80.48-80.5a6.25 6.25 0 0 1 4.4-10.67h161a6.25 6.25 0 0 1 4.42 10.67l-80.48 80.48a6.21 6.21 0 0 1 -4.44 1.85z" fill="#fff"/><path d="m336.86 174.14-80.47 80.48a1.25 1.25 0 0 1 -1.77 0l-80.48-80.48a1.25 1.25 0 0 1 .86-2.14h161a1.25 1.25 0 0 1 .86 2.14z" fill="#cf5758"/><path d="m175 344a6.25 6.25 0 0 1 -4.43-10.67l80.48-80.48a6.21 6.21 0 0 1 4.45-1.85 6.21 6.21 0 0 1 4.42 1.83l80.48 80.48a6.25 6.25 0 0 1 -4.4 10.69z" fill="#fff"/><path d="m174.14 336.86 80.48-80.47a1.25 1.25 0 0 1 1.77 0l80.47 80.47a1.25 1.25 0 0 1 -.86 2.14h-161a1.25 1.25 0 0 1 -.86-2.14z" fill="#a14747"/><path d="m337.74 342.23a6.2 6.2 0 0 1 -4.41-1.83l-80.48-80.48a6.25 6.25 0 0 1 0-8.84l80.48-80.48a6.2 6.2 0 0 1 4.41-1.83 6.27 6.27 0 0 1 6.26 6.23v161a6.26 6.26 0 0 1 -6.26 6.23z" fill="#fff"/><path d="m336.86 336.86-80.47-80.47a1.25 1.25 0 0 1 0-1.77l80.47-80.48a1.25 1.25 0 0 1 2.14.86v161a1.25 1.25 0 0 1 -2.14.86z" fill="#b34b4c"/><path d="m173.26 342.23a6.26 6.26 0 0 1 -6.26-6.23v-161a6.27 6.27 0 0 1 6.26-6.25 6.19 6.19 0 0 1 4.41 1.83l80.48 80.48a6.25 6.25 0 0 1 0 8.84l-80.48 80.5a6.19 6.19 0 0 1 -4.41 1.83z" fill="#fff"/><path d="m174.14 174.14 80.48 80.48a1.25 1.25 0 0 1 0 1.77l-80.48 80.47a1.25 1.25 0 0 1 -2.14-.86v-161a1.25 1.25 0 0 1 2.14-.86z" fill="#bf4b4e"/><path d="m422.5 260a6.21 6.21 0 0 1 -4.42-1.83l-80.47-80.48a6.25 6.25 0 0 1 4.39-10.69h161a6.25 6.25 0 0 1 4.42 10.67l-80.48 80.48a6.18 6.18 0 0 1 -4.44 1.85z" fill="#fff"/><path d="m503.87 174.14-80.48 80.48a1.25 1.25 0 0 1 -1.77 0l-80.48-80.48a1.25 1.25 0 0 1 .86-2.14h161a1.26 1.26 0 0 1 .87 2.14z" fill="#f47622"/><path d="m342 344a6.25 6.25 0 0 1 -4.42-10.67l80.47-80.48a6.25 6.25 0 0 1 8.85 0l80.47 80.47a6.25 6.25 0 0 1 -4.37 10.68z" fill="#fff"/><path d="m341.14 336.86 80.48-80.47a1.25 1.25 0 0 1 1.77 0l80.48 80.47a1.26 1.26 0 0 1 -.87 2.14h-161a1.25 1.25 0 0 1 -.86-2.14z" fill="#c65e21"/><path d="m504.74 342.23a6.2 6.2 0 0 1 -4.41-1.83l-80.48-80.48a6.27 6.27 0 0 1 0-8.84l80.48-80.48a6.25 6.25 0 0 1 10.67 4.4v161a6.25 6.25 0 0 1 -6.26 6.23z" fill="#fff"/><path d="m503.87 336.86-80.48-80.47a1.25 1.25 0 0 1 0-1.77l80.48-80.48a1.25 1.25 0 0 1 2.13.86v161a1.25 1.25 0 0 1 -2.13.86z" fill="#d9691f"/><path d="m340.26 342.23a6.26 6.26 0 0 1 -6.26-6.23v-161a6.26 6.26 0 0 1 10.68-4.42l80.47 80.48a6.26 6.26 0 0 1 0 8.84l-80.47 80.5a6.23 6.23 0 0 1 -4.42 1.83z" fill="#fff"/><path d="m341.14 174.14 80.48 80.48a1.25 1.25 0 0 1 0 1.77l-80.48 80.47a1.25 1.25 0 0 1 -2.14-.86v-161a1.25 1.25 0 0 1 2.14-.86z" fill="#e87022"/><path d="m88.5 427a6.21 6.21 0 0 1 -4.42-1.83l-80.48-80.49a6.26 6.26 0 0 1 4.4-10.68h161a6.26 6.26 0 0 1 4.42 10.68l-80.5 80.47a6.21 6.21 0 0 1 -4.42 1.85z" fill="#fff"/><path d="m169.86 341.14-80.47 80.48a1.25 1.25 0 0 1 -1.77 0l-80.48-80.48a1.25 1.25 0 0 1 .86-2.14h161a1.25 1.25 0 0 1 .86 2.14z" fill="#795a9d"/><path d="m8 511a6.25 6.25 0 0 1 -4.4-10.67l80.48-80.48a6.25 6.25 0 0 1 8.84 0l80.48 80.48a6.25 6.25 0 0 1 -4.4 10.67z" fill="#fff"/><path d="m7.14 503.87 80.48-80.48a1.25 1.25 0 0 1 1.77 0l80.47 80.48a1.25 1.25 0 0 1 -.86 2.13h-161a1.25 1.25 0 0 1 -.86-2.13z" fill="#62477e"/><path d="m170.74 509.23a6.2 6.2 0 0 1 -4.41-1.83l-80.48-80.48a6.25 6.25 0 0 1 0-8.84l80.48-80.47a6.17 6.17 0 0 1 4.41-1.84 6.27 6.27 0 0 1 6.26 6.23v161a6.26 6.26 0 0 1 -6.26 6.23z" fill="#fff"/><path d="m169.86 503.87-80.47-80.48a1.25 1.25 0 0 1 0-1.77l80.47-80.48a1.25 1.25 0 0 1 2.14.86v161a1.26 1.26 0 0 1 -2.14.87z" fill="#6c5893"/><path d="m6.26 509.23a6.26 6.26 0 0 1 -6.26-6.23v-161a6.27 6.27 0 0 1 6.26-6.26 6.17 6.17 0 0 1 4.41 1.84l80.48 80.47a6.25 6.25 0 0 1 0 8.84l-80.48 80.51a6.2 6.2 0 0 1 -4.41 1.83z" fill="#fff"/><path d="m7.14 341.14 80.48 80.48a1.27 1.27 0 0 1 0 1.77l-80.48 80.48a1.26 1.26 0 0 1 -2.14-.87v-161a1.25 1.25 0 0 1 2.14-.86z" fill="#6b5a91"/><path d="m255.5 427a6.21 6.21 0 0 1 -4.42-1.83l-80.48-80.49a6.26 6.26 0 0 1 4.4-10.68h161a6.26 6.26 0 0 1 4.42 10.68l-80.48 80.47a6.21 6.21 0 0 1 -4.44 1.85z" fill="#fff"/><path d="m336.86 341.14-80.47 80.48a1.25 1.25 0 0 1 -1.77 0l-80.48-80.48a1.25 1.25 0 0 1 .86-2.14h161a1.25 1.25 0 0 1 .86 2.14z" fill="#c0906a"/><path d="m175 511a6.25 6.25 0 0 1 -4.43-10.67l80.48-80.48a6.25 6.25 0 0 1 8.84 0l80.48 80.48a6.25 6.25 0 0 1 -4.37 10.67z" fill="#fff"/><path d="m174.14 503.87 80.48-80.48a1.25 1.25 0 0 1 1.77 0l80.47 80.48a1.25 1.25 0 0 1 -.86 2.13h-161a1.25 1.25 0 0 1 -.86-2.13z" fill="#936f4d"/><path d="m337.74 509.23a6.2 6.2 0 0 1 -4.41-1.83l-80.48-80.48a6.25 6.25 0 0 1 0-8.84l80.48-80.47a6.17 6.17 0 0 1 4.41-1.84 6.27 6.27 0 0 1 6.26 6.23v161a6.26 6.26 0 0 1 -6.26 6.23z" fill="#fff"/><path d="m336.86 503.87-80.47-80.48a1.25 1.25 0 0 1 0-1.77l80.47-80.48a1.25 1.25 0 0 1 2.14.86v161a1.26 1.26 0 0 1 -2.14.87z" fill="#9c7a55"/><path d="m173.26 509.23a6.26 6.26 0 0 1 -6.26-6.23v-161a6.27 6.27 0 0 1 6.26-6.26 6.16 6.16 0 0 1 4.41 1.84l80.48 80.47a6.25 6.25 0 0 1 0 8.84l-80.48 80.51a6.19 6.19 0 0 1 -4.41 1.83z" fill="#fff"/><path d="m174.14 341.14 80.48 80.48a1.25 1.25 0 0 1 0 1.77l-80.48 80.48a1.26 1.26 0 0 1 -2.14-.87v-161a1.25 1.25 0 0 1 2.14-.86z" fill="#b2855b"/><path d="m422.5 427a6.21 6.21 0 0 1 -4.42-1.83l-80.47-80.47a6.25 6.25 0 0 1 4.39-10.7h161a6.25 6.25 0 0 1 4.42 10.68l-80.48 80.47a6.18 6.18 0 0 1 -4.44 1.85z" fill="#fff"/><path d="m503.87 341.14-80.48 80.48a1.25 1.25 0 0 1 -1.77 0l-80.48-80.48a1.25 1.25 0 0 1 .86-2.14h161a1.26 1.26 0 0 1 .87 2.14z" fill="#f9a83c"/><path d="m342 511a6.25 6.25 0 0 1 -4.42-10.67l80.47-80.48a6.21 6.21 0 0 1 4.45-1.85 6.18 6.18 0 0 1 4.43 1.84l80.47 80.47a6.25 6.25 0 0 1 -4.4 10.69z" fill="#fff"/><path d="m341.14 503.87 80.48-80.48a1.25 1.25 0 0 1 1.77 0l80.48 80.48a1.25 1.25 0 0 1 -.87 2.13h-161a1.25 1.25 0 0 1 -.86-2.13z" fill="#c38434"/><path d="m504.74 509.23a6.2 6.2 0 0 1 -4.41-1.83l-80.48-80.48a6.27 6.27 0 0 1 0-8.84l80.48-80.47a6.17 6.17 0 0 1 4.41-1.84 6.26 6.26 0 0 1 6.26 6.23v161a6.25 6.25 0 0 1 -6.26 6.23z" fill="#fff"/><path d="m503.87 503.87-80.48-80.48a1.25 1.25 0 0 1 0-1.77l80.48-80.48a1.25 1.25 0 0 1 2.13.86v161a1.25 1.25 0 0 1 -2.13.87z" fill="#dc953b"/><path d="m340.26 509.23a6.26 6.26 0 0 1 -6.26-6.23v-161a6.27 6.27 0 0 1 6.26-6.26 6.2 6.2 0 0 1 4.42 1.84l80.47 80.47a6.26 6.26 0 0 1 0 8.84l-80.47 80.51a6.23 6.23 0 0 1 -4.42 1.83z" fill="#fff"/><path d="m341.14 341.14 80.48 80.48a1.25 1.25 0 0 1 0 1.77l-80.48 80.48a1.26 1.26 0 0 1 -2.14-.87v-161a1.25 1.25 0 0 1 2.14-.86z" fill="#e99b36"/></g></g></g></svg>