<svg height="512" viewBox="0 0 96 96" width="512" xmlns="http://www.w3.org/2000/svg"><g id="Bathub"><path d="m51.52 39.46a5.25 5.25 0 0 1 4.72 3 3.55 3.55 0 0 1 4.51-.82 3.6 3.6 0 0 1 6.58-2 3.58 3.58 0 0 1 4.61-1.19 3.59 3.59 0 0 1 6.73-2.45 3.6 3.6 0 0 1 6.58 2 3.55 3.55 0 0 1 -.57 2 3.59 3.59 0 0 1 2.66 6.21 6.08 6.08 0 0 1 -11.78 2.63 5.6 5.6 0 0 1 -2.2-1.28 6.08 6.08 0 0 1 -9.24 3.92 6.08 6.08 0 0 1 -10.59-1.88 5.27 5.27 0 1 1 -2-10.14z" fill="#cbf4ff"/><path d="m53 50.83a6.26 6.26 0 1 1 3.51-9.94 4.57 4.57 0 0 1 3.49-.65 4.6 4.6 0 0 1 7.36-2.09 4.6 4.6 0 0 1 3.5-1.07 4.6 4.6 0 0 1 8-2.64 4.6 4.6 0 0 1 7.31 4.69 4.59 4.59 0 0 1 2.24 7.43 7.08 7.08 0 0 1 -13.56 3 5.88 5.88 0 0 1 -.91-.44 7.09 7.09 0 0 1 -9.55 3.56 7.07 7.07 0 0 1 -11.39-1.85zm.58-2.23a1 1 0 0 1 .95.69 5.08 5.08 0 0 0 8.85 1.56 1 1 0 0 1 1.33-.23 5.08 5.08 0 0 0 7.72-3.28 1 1 0 0 1 .68-.76c1-.3 1 .71 2.8 1.28a1 1 0 0 1 .64.62 5.08 5.08 0 0 0 9.84-2.2 1 1 0 0 1 .31-.82 2.58 2.58 0 0 0 -1.96-4.46 1 1 0 0 1 -.9-1.54 2.6 2.6 0 0 0 -4.34-2.85 1 1 0 0 1 -1.74-.14 2.58 2.58 0 0 0 -4.85 1.74 1 1 0 0 1 -1.42 1.16 2.58 2.58 0 0 0 -3.33.85 1 1 0 0 1 -1.66 0 2.6 2.6 0 0 0 -4.75 1.42 1 1 0 0 1 -1.49.86 2.56 2.56 0 0 0 -3.25.59 1 1 0 0 1 -1.67-.21 4.23 4.23 0 0 0 -3.82-2.4 4.27 4.27 0 1 0 0 8.54 9.63 9.63 0 0 0 2.01-.42z" fill="#302d3d"/><path d="m29 41.15a5.27 5.27 0 0 1 4.59 2.71 3.24 3.24 0 1 1 0 5.17 5.28 5.28 0 1 1 -4.59-7.88z" fill="#cbf4ff"/><path d="m22.66 46.44a6.28 6.28 0 0 1 11.19-3.91 4.25 4.25 0 1 1 0 7.83 6.28 6.28 0 0 1 -11.19-3.92zm6.34-4.29a4.3 4.3 0 1 0 3.72 6.39 1 1 0 0 1 .66-.49c.81-.17 1 .64 2.16.64a2.25 2.25 0 1 0 0-4.5c-1.25 0-1.32.82-2.16.65a1 1 0 0 1 -.66-.49 4.31 4.31 0 0 0 -3.72-2.2z" fill="#302d3d"/><path d="m91.12 52.86-5.48 18.61a10.36 10.36 0 0 1 -10 7.45h-55.33a10.36 10.36 0 0 1 -9.95-7.45l-5.48-18.61z" fill="#6c89d1"/><path d="m38.08 71.38a2.76 2.76 0 0 1 -2.64 3.54h-15.13a6.39 6.39 0 0 1 -6.11-4.57l-2.66-9a3.47 3.47 0 0 1 3.32-4.45h10.21a11.69 11.69 0 0 1 11.21 8.39c.87 2.91 1.42 4.81 1.8 6.09z" fill="#536bae"/><path d="m91.12 52.86-5.48 18.61a10.36 10.36 0 0 1 -10 7.45h-23.41a10.36 10.36 0 0 1 -9.95-7.45l-5.48-18.61z" fill="#b2d4f4"/><path d="m58.42 70h-.8a4.24 4.24 0 0 1 -4.24-4.24v-3.53a4.32 4.32 0 0 0 -3.83-4.35 4.23 4.23 0 0 0 -4.47 5.41l2 6.78a5.38 5.38 0 0 0 5.15 3.85h6.18a2 2 0 0 0 0-3.92z" fill="#f3edf4"/><path d="m76.23 67.12h-.51a3.59 3.59 0 0 0 -2.72 1.36 4.16 4.16 0 0 1 -3.2 1.52h-4.91a2 2 0 0 0 0 3.92h10.8c5.62 0 4.73-6.8.54-6.8z" fill="#f3edf4"/><path d="m56.38 52.86h14.66v14.14h-14.66z" fill="#6c89d1"/><path d="m25.12 75.92h-4.81a7.43 7.43 0 0 1 -7.08-5.29l-1.31-4.46a1 1 0 1 1 1.92-.56l1.31 4.45a5.41 5.41 0 0 0 5.16 3.86h4.81a1 1 0 1 1 0 2z" fill="#302d3d"/><path d="m3.68 52.86h88.64a2.69 2.69 0 0 0 0-5.37h-88.64a2.69 2.69 0 0 0 0 5.37z" fill="#b2d4f4"/><path d="m3.68 52.86h22.89a2.69 2.69 0 0 0 0-5.37h-22.89a2.69 2.69 0 0 0 0 5.37z" fill="#6c89d1"/><path d="m28.28 52.86h17a2.69 2.69 0 0 0 0-5.37h-17a2.69 2.69 0 0 0 0 5.37z" fill="#f3edf4"/><path d="m55.67 47.49h21.33v5.37h-21.33z" fill="#6c89d1" transform="matrix(-1 0 0 -1 132.67 100.35)"/><path d="m75.69 79.92h-55.38a11.44 11.44 0 0 1 -10.91-8.16l-5.48-18.62a1 1 0 0 1 1-1.28h86.2a1 1 0 0 1 1 1.28l-5.52 18.62a11.44 11.44 0 0 1 -10.91 8.16zm-69.47-26.06 5.1 17.33a9.42 9.42 0 0 0 9 6.73h55.37a9.42 9.42 0 0 0 9-6.73l5.1-17.33z" fill="#302d3d"/><path d="m92.32 53.86h-88.64a3.69 3.69 0 0 1 0-7.37h88.64a3.69 3.69 0 0 1 0 7.37zm-88.64-5.37a1.69 1.69 0 0 0 0 3.37h88.64a1.69 1.69 0 0 0 0-3.37z" fill="#302d3d"/><path d="m23.64 86.88h-6.66l3.33-7.96h6.65z" fill="#b2d4f4"/><path d="m72.36 86.88h6.66l-3.33-7.96h-6.66z" fill="#b2d4f4"/><path d="m25.19 83.17 1.77-4.25h-6.65l-1.78 4.25z" fill="#6c89d1"/><path d="m77.47 83.17-1.78-4.25h-6.66l1.78 4.25z" fill="#6c89d1"/><path d="m23.64 87.88h-6.64a1 1 0 0 1 -.92-1.39l3.33-8a1 1 0 0 1 .92-.61h6.67a1 1 0 0 1 .93 1.39l-3.33 8a1 1 0 0 1 -.96.61zm-5.16-2h4.52l2.49-6h-4.49z" fill="#302d3d"/><path d="m79 87.88h-6.64a1 1 0 0 1 -.92-.62l-3.33-8a1 1 0 0 1 .89-1.34h6.65a1 1 0 0 1 .92.61l3.33 8a1 1 0 0 1 -.9 1.35zm-6-2h4.49l-2.49-6h-4.46z" fill="#302d3d"/><path d="m11.62 37a1 1 0 0 1 -1-1v-19.56a8.32 8.32 0 1 1 16.63 0v1.1a1 1 0 0 1 -2 0v-1.1a6.32 6.32 0 1 0 -12.63 0v19.56a1 1 0 0 1 -1 1z" fill="#302d3d"/><path d="m22 22.29h8.5v-.5a4.25 4.25 0 0 0 -8.5 0z" fill="#6184a8"/><path d="m30.5 23.29h-8.5a1 1 0 0 1 -1-1v-.5a5.25 5.25 0 0 1 10.5 0v.5a1 1 0 0 1 -1 1zm-7.46-2h6.42a3.25 3.25 0 0 0 -6.42 0z" fill="#302d3d"/><rect fill="#6184a8" height="7.83" rx="1.19" transform="matrix(-1 0 0 -1 23.25 79.91)" width="4.38" x="9.44" y="36.04"/><path d="m12.62 44.87h-2a2.19 2.19 0 0 1 -2.18-2.19v-5.45a2.19 2.19 0 0 1 2.18-2.23h2a2.19 2.19 0 0 1 2.19 2.19v5.45a2.19 2.19 0 0 1 -2.19 2.23zm-2-7.83a.18.18 0 0 0 -.18.19v5.45a.18.18 0 0 0 .18.19h2a.18.18 0 0 0 .19-.19v-5.45a.18.18 0 0 0 -.19-.19z" fill="#302d3d"/><path d="m6.37 43.87h10.5a0 0 0 0 1 0 0v1.7a1.92 1.92 0 0 1 -1.87 1.92h-6.71a1.92 1.92 0 0 1 -1.92-1.92v-1.7a0 0 0 0 1 0 0z" fill="#6184a8" transform="matrix(-1 0 0 -1 23.25 91.36)"/><g fill="#302d3d"><path d="m16.88 48.49h-10.5a1 1 0 0 1 -1-1v-1.7a2.91 2.91 0 0 1 2.91-2.92h6.71a2.92 2.92 0 0 1 2.92 2.92v1.7a1 1 0 0 1 -1.04 1zm-9.5-2h8.5v-.7a.92.92 0 0 0 -.92-.92h-6.67a.92.92 0 0 0 -.91.92z"/><path d="m30.5 29.87a1 1 0 0 1 -1-1v-2a1 1 0 0 1 2 0v2a1 1 0 0 1 -1 1z"/><path d="m30.5 35.43a1 1 0 0 1 -1-1v-2a1 1 0 0 1 2 0v2a1 1 0 0 1 -1 1z"/><path d="m26.38 34.41a1 1 0 0 1 -1-1v-5.41a1 1 0 0 1 2 0v5.41a1 1 0 0 1 -1 1z"/><path d="m22 28.54a1 1 0 0 1 -1-1v-2a1 1 0 0 1 2 0v2a1 1 0 0 1 -1 1z"/><path d="m22 35.46a1 1 0 0 1 -1-1v-3.75a1 1 0 0 1 2 0v3.75a1 1 0 0 1 -1 1z"/></g><path d="m74 46.79v17.75h-14.64v-17.75a2.34 2.34 0 0 1 2.33-2.34h10a2.34 2.34 0 0 1 2.31 2.34z" fill="#d1d3d4"/><path d="m74 46.79v17.75h-10v-17.75a2.33 2.33 0 0 1 2.33-2.34h5.4a2.34 2.34 0 0 1 2.27 2.34z" fill="#f1f2f2"/><rect fill="#fff" height="7.49" rx=".73" width="4.07" x="66.96" y="47.45"/><path d="m74 65.54h-14.64a1 1 0 0 1 -1-1v-17.75a3.34 3.34 0 0 1 3.33-3.33h10a3.34 3.34 0 0 1 3.31 3.33v17.75a1 1 0 0 1 -1 1zm-13.67-2h12.67v-16.75a1.33 1.33 0 0 0 -1.34-1.33h-10a1.33 1.33 0 0 0 -1.33 1.33z" fill="#302d3d"/><path d="m59.36 60.2h14.67v4.33h-14.67z" fill="#eec84b"/><path d="m59.36 60.2h6.6v4.33h-6.6z" fill="#ee914b"/><path d="m74 65.54h-14.64a1 1 0 0 1 -1-1v-4.33a1 1 0 0 1 1-1h14.64a1 1 0 0 1 1 1v4.33a1 1 0 0 1 -1 1zm-13.67-2h12.67v-2.33h-12.64z" fill="#302d3d"/></g></svg>