<svg enable-background="new 0 0 512 512" viewBox="0 0 512 512" xmlns="http://www.w3.org/2000/svg" xmlns:xlink="http://www.w3.org/1999/xlink" width="300" height="300" version="1.1" xmlns:svgjs="http://svgjs.dev/svgjs"><g width="100%" height="100%" transform="matrix(1,0,0,1,0,0)"><linearGradient id="SVGID_1_" gradientUnits="userSpaceOnUse" x1="37.229" x2="474.76" y1="460.882" y2="23.35"><stop offset="0" stop-color="#696eff"/><stop offset="1" stop-color="#f8acff"/></linearGradient><g id="_x30_1_Curtain"><path d="m128.691 274.896c-.581 0-1.169-.106-1.741-.327-2.482-.962-3.713-3.753-2.753-6.235 7.664-19.777 13.078-43.314 16.097-69.957.299-2.642 2.664-4.539 5.332-4.245 2.642.299 4.544 2.687 4.245 5.332-3.111 27.462-8.725 51.803-16.685 72.352-.742 1.908-2.563 3.08-4.495 3.08zm326.506-84.44v-89.926c0-2.661-2.158-4.819-4.819-4.819s-4.819 2.158-4.819 4.819v89.927c0 2.661 2.158 4.819 4.819 4.819s4.819-2.159 4.819-4.82zm46.568-134.831v12.887c0 7.026-5.715 12.741-12.741 12.741h-9.732v234.819c3.669 3.719 5.946 8.815 5.946 14.44s-2.277 10.721-5.946 14.44v109.443c0 1.393-.639 2.858-1.994 3.852-1.658 1.216-3.812 1.178-5.305.279-16.58-9.948-27.8-19.124-57.366-.08-22.144 14.244-45.532 14.204-67.665.005-2.125-1.365-2.838-4.139-1.633-6.358 5.729-10.546 10.803-20.317 15.303-29.706h-209.257c4.502 9.391 9.565 19.156 15.297 29.706 1.205 2.219.492 4.993-1.633 6.358-11.078 7.108-22.469 10.664-33.85 10.664-30.41 0-46.25-27.34-72.627-20.778-4.148 1.721-14.729 7.895-18.553 10.189-1.333.801-3.395.893-4.854.061-1.336-.755-2.445-2.452-2.445-4.193v-108.75h.797c-4.116-3.766-6.745-9.128-6.745-15.133 0-5.625 2.278-10.723 5.948-14.441v-234.816h-9.732c-7.026 0-12.741-5.715-12.741-12.741v-12.888c0-7.026 5.715-12.741 12.741-12.741h466.048c7.024 0 12.739 5.715 12.739 12.741zm-454.424 285.832h68.799c6.033 0 10.941-4.908 10.941-10.944 0-6.035-4.908-10.944-10.941-10.944h-68.799c-6.035 0-10.944 4.908-10.944 10.944.001 6.036 4.909 10.944 10.944 10.944zm49.916-31.525h18.883c4.299 0 8.287 1.334 11.591 3.597 32.905-49.262 45.422-127.15 37.005-232.274h-48.898c4.46 101.072-1.812 177.72-18.581 228.677zm37.027 11.075c1.504 2.857 2.436 6.059 2.436 9.506 0 7.13-3.649 13.417-9.173 17.112 2.03 14.077 5.153 27.02 9.426 39.79h101.905v-280.826h-62.91c4.655 95.648-9.353 167.545-41.684 214.418zm-28.068-239.753h-63.87v229.362c1.608-.405 3.264-.684 4.995-.684h39.802c17.178-49.716 23.62-126.378 19.073-228.678zm-12.728 363.636-15.823-93.795c-30.153-.25-30.402.554-35.32-.684v94.512c4.44-2.737 8.974-4.701 13.553-5.868.024-.006.047-.008.071-.014 12.804-4.748 25.749-.57 37.519 5.849zm24.835-94.016c-3.73.4-10.83.126-30.885.221l16.913 100.249c17.122 10.324 34.472 10.82 51.651 1.288-20.139-37.456-32.266-65.98-37.679-101.758zm246.741 61.876c2.36-5.289 4.585-10.521 6.554-15.697h-103.321c-2.661 0-4.819-2.158-4.819-4.819v-290.464c0-2.661 2.158-4.819 4.819-4.819h68.202c.312-5.146.724-10.418 1.142-15.697h-163.283c.417 5.278.831 10.551 1.144 15.697h68.194c2.661 0 4.819 2.158 4.819 4.819v290.465c0 2.661-2.158 4.819-4.819 4.819h-103.301c1.971 5.179 4.157 10.405 6.52 15.697h218.149zm31.096-331.496h-48.9c-8.414 105.125 4.101 183.014 37.003 232.277 3.306-2.264 7.295-3.599 11.596-3.599h18.842c-16.752-50.963-22.999-127.639-18.541-228.678zm28.727 228.678h39.771c1.732 0 3.387.279 4.995.684v-229.362h-63.87c-4.548 102.328 1.916 178.964 19.104 228.678zm-88.855-203.343h-62.916v280.827h101.873c4.27-12.768 7.381-25.747 9.411-39.819-5.497-3.699-9.122-9.975-9.122-17.084 0-3.45.934-6.655 2.441-9.514-32.331-46.868-46.338-118.766-41.687-214.41zm88.53 244.506c-36.944-.175-26.933.203-30.884-.221-5.414 35.776-17.541 64.303-37.68 101.757 17.176 9.532 34.525 9.036 51.649-1.286zm45.092-.684c-4.868 1.225-4.439.428-35.32.684l-15.825 93.797c17.728-9.674 32.63-11.386 51.145.031zm5.946-19.898c0-6.035-4.908-10.944-10.941-10.944h-68.799c-6.035 0-10.944 4.908-10.944 10.944 0 6.035 4.908 10.944 10.944 10.944h68.799c6.033 0 10.941-4.908 10.941-10.944zm16.527-274.888c0-1.711-1.393-3.104-3.104-3.104h-466.047c-1.711 0-3.104 1.393-3.104 3.104v12.887c0 1.711 1.393 3.104 3.104 3.104h466.048c1.711 0 3.104-1.393 3.104-3.104v-12.887z" fill="#01020d" data-original-color="SVGID_1_" stroke="none" stroke-opacity="1" fill-opacity="1"/></g><g id="Layer_1"/></g></svg>