<?xml version="1.0"?>
<svg xmlns="http://www.w3.org/2000/svg" id="Objects" viewBox="0 0 64 64" width="512" height="512"><path d="M21.555,34.533l-1.893.648a11.081,11.081,0,0,0,6.709,6.792l.672-1.885A9.061,9.061,0,0,1,21.555,34.533Z"/><path d="M12.168,25.21a3.6,3.6,0,0,0,1.906,3.165v3.258a15.967,15.967,0,0,0,7.071,13.255L19.133,56.427H17.906a1,1,0,0,0-1,1v4.694a1,1,0,0,0,1,1H41.66a14.135,14.135,0,1,0,3.957-27.916,16,16,0,0,0,.4-3.572V28.374a3.6,3.6,0,0,0-.954-6.693V7.924A3.61,3.61,0,0,0,44.313.783H15.78a3.61,3.61,0,0,0-.754,7.141V21.681A3.615,3.615,0,0,0,12.168,25.21Zm30.9-17.2V10.75H38.128a3.6,3.6,0,1,0,0,7.206h4.937V21.6H17.026V8.005Zm0,7.951H38.128a1.6,1.6,0,1,1,0-3.206h4.937ZM16.074,31.633v-2.81H44.019v2.81a14.013,14.013,0,0,1-.472,3.579A14.155,14.155,0,0,0,31.024,45.551c-.326.022-.652.055-.978.055A13.989,13.989,0,0,1,16.074,31.633Zm6.918,14.309a15.849,15.849,0,0,0,7.054,1.664c.192,0,.382-.026.574-.033A14.255,14.255,0,0,0,30.5,49.3a14.032,14.032,0,0,0,1.947,7.127H21.163ZM18.906,61.121V58.427H33.86A14.253,14.253,0,0,0,36.9,61.121Zm23.25.064V56.6a1,1,0,0,0-.567-.9,7.072,7.072,0,0,1-2.033-11.29V48.9a1,1,0,0,0,.51.872l4.093,2.3a1,1,0,0,0,.979,0l4.091-2.3a1,1,0,0,0,.511-.872V44.4a7.187,7.187,0,0,1,1.985,4.916,6.976,6.976,0,0,1-4,6.374,1,1,0,0,0-.585.91v4.582a12.072,12.072,0,0,1-4.984,0ZM56.793,49.3A12.158,12.158,0,0,1,49.14,60.574V57.218a9.006,9.006,0,0,0,4.585-7.9,9.147,9.147,0,0,0-4.487-7.829,1,1,0,0,0-1.5.867v5.954l-3.092,1.735L41.556,48.31V42.357a1,1,0,0,0-1.508-.861,9.076,9.076,0,0,0,.108,15.71v3.367A12.14,12.14,0,1,1,56.793,49.3ZM45.924,25.21a1.614,1.614,0,0,1-1.611,1.613H15.78a1.612,1.612,0,1,1,0-3.224H44.313A1.613,1.613,0,0,1,45.924,25.21ZM14.168,4.394A1.613,1.613,0,0,1,15.78,2.783H44.313a1.611,1.611,0,0,1,0,3.222H15.78A1.613,1.613,0,0,1,14.168,4.394Z"/></svg>
