<svg id="Layer_1" viewBox="0 0 512 512" xmlns="http://www.w3.org/2000/svg" data-name="Layer 1"><g id="Layer_1-2" data-name="Layer_1"><g id="_352514912" data-name=" 352514912"><g id="_352516808" data-name=" 352516808"><path d="m302 493.5a157.91 157.91 0 0 1 -157.61-157.59v-47.67a7.5 7.5 0 0 1 7.5-7.5h83.77a7.5 7.5 0 0 1 7.5 7.5v47.67a58.82 58.82 0 0 0 117.64 0v-128.66a7.5 7.5 0 0 1 7.5-7.5h83.77a7.5 7.5 0 0 1 7.5 7.5v128.66a157.91 157.91 0 0 1 -157.57 157.59zm-142.61-197.76v40.17a142.59 142.59 0 0 0 285.18 0v-121.16h-68.77v121.16a73.82 73.82 0 0 1 -147.64 0v-40.17zm76.27-41.19h-83.77a7.5 7.5 0 0 1 -7.5-7.5v-27.21h-46.08a7.5 7.5 0 0 1 -7.5-7.5v-83.77a7.5 7.5 0 0 1 7.5-7.5h67.54a77.37 77.37 0 0 1 77.31 77.31v48.67a7.5 7.5 0 0 1 -7.5 7.5zm-76.27-15h68.77v-41.17a62.38 62.38 0 0 0 -62.31-62.31h-60v68.77h46.08a7.5 7.5 0 0 1 7.5 7.5zm292.68-66h-83.77a7.5 7.5 0 0 1 -7.5-7.5v-57.05a77.37 77.37 0 0 1 77.31-77.31h46.3a7.5 7.5 0 0 1 7.36 7.5v83.81a7.5 7.5 0 0 1 -7.36 7.5h-24.84v35.59a7.5 7.5 0 0 1 -7.5 7.48zm-76.27-15h68.77v-35.55a7.5 7.5 0 0 1 7.5-7.5h24.7v-68.79h-38.66a62.38 62.38 0 0 0 -62.31 62.29z"/></g><g id="_352517024" data-name=" 352517024"><path d="m154.59 371.84a7.5 7.5 0 0 1 -1.16-14.91c42.26-6.7 66.62-23 77.38-32.14a7.5 7.5 0 0 1 9.7 11.44c-14.6 12.39-41.15 28.61-84.74 35.52a7.81 7.81 0 0 1 -1.18.09z"/></g><g id="_352516424" data-name=" 352516424"><path d="m448.75 374.84h-.25c-32.05-1.06-60.58-7.15-84.79-18.11a7.5 7.5 0 1 1 6.18-13.66c22.41 10.14 49 15.79 79.11 16.78a7.5 7.5 0 0 1 -.25 15z"/></g><g id="_352516520" data-name=" 352516520"><path d="m251.29 295.74h-115a7.5 7.5 0 0 1 -7.5-7.5v-41.19a7.49 7.49 0 0 1 7.5-7.5h115a7.5 7.5 0 0 1 7.5 7.5v41.19a7.5 7.5 0 0 1 -7.5 7.5zm-107.53-15h100v-26.19h-100z"/></g><g id="_352516856" data-name=" 352516856"><path d="m467.71 214.75h-115a7.5 7.5 0 0 1 -7.5-7.5v-41.18a7.5 7.5 0 0 1 7.5-7.5h115a7.5 7.5 0 0 1 7.5 7.5v41.18a7.5 7.5 0 0 1 -7.5 7.5zm-107.54-15h100v-26.18h-100z"/></g><g id="_352516112" data-name=" 352516112"><path d="m224.07 437.8a24.26 24.26 0 1 1 24.25-24.26 24.28 24.28 0 0 1 -24.25 24.26zm0-33.51a9.26 9.26 0 1 0 9.25 9.25 9.26 9.26 0 0 0 -9.25-9.25z"/></g><g id="_352516088" data-name=" 352516088"><path d="m298.06 465.73a24.26 24.26 0 1 1 24.26-24.26 24.28 24.28 0 0 1 -24.26 24.26zm0-33.51a9.26 9.26 0 1 0 9.26 9.25 9.26 9.26 0 0 0 -9.26-9.25z"/></g><g id="_352515776" data-name=" 352515776"><path d="m350.42 444.09a7.52 7.52 0 0 1 -7.05-10l6.28-17.45a7.5 7.5 0 1 1 14.11 5.08l-6.28 17.45a7.5 7.5 0 0 1 -7.06 4.92z"/></g><g id="_352516232" data-name=" 352516232"><path d="m402.84 405.73a6.94 6.94 0 0 1 -1.2-.1l-21.64-3.49a7.5 7.5 0 0 1 2.38-14.81l21.62 3.49a7.5 7.5 0 0 1 -1.18 14.91z"/></g><g id="_352515584" data-name=" 352515584"><path d="m77.57 178h-34.79a7.5 7.5 0 0 1 0-15h34.79a7.5 7.5 0 0 1 0 15z"/></g><g id="_352515728" data-name=" 352515728"><path d="m62.52 145h-34.79a7.5 7.5 0 1 1 0-15h34.79a7.5 7.5 0 0 1 0 15z"/></g><g id="_352516064" data-name=" 352516064"><path d="m62.52 210.91h-34.79a7.5 7.5 0 1 1 0-15h34.79a7.5 7.5 0 0 1 0 15z"/></g><g id="_352515896" data-name=" 352515896"><path d="m278 148.25a7.52 7.52 0 0 1 -6.61-3.95l-11.87-22-22.05-11.88a7.5 7.5 0 0 1 0-13.2l22.05-11.87 11.87-22.05a7.5 7.5 0 0 1 13.21 0l11.87 22.05 22.05 11.87a7.5 7.5 0 0 1 0 13.2l-22.05 11.88-11.87 22a7.51 7.51 0 0 1 -6.6 3.95zm-21.15-44.47 11.76 6.34a7.44 7.44 0 0 1 3.05 3l6.34 11.81 6.33-11.77a7.5 7.5 0 0 1 3.05-3l11.76-6.34-11.76-6.33a7.59 7.59 0 0 1 -3.05-3l-6.33-11.86-6.37 11.77a7.53 7.53 0 0 1 -3.05 3z"/></g><g id="_352514888" data-name=" 352514888"><path d="m154.85 107.43a7.49 7.49 0 0 1 -6.6-3.94l-11.87-22-22-11.87a7.51 7.51 0 0 1 0-13.21l22-11.87 11.87-22a7.51 7.51 0 0 1 13.21 0l11.87 22.05 22 11.87a7.51 7.51 0 0 1 0 13.21l-22 11.87-11.87 22a7.51 7.51 0 0 1 -6.61 3.89zm-21.14-44.43 11.76 6.33a7.59 7.59 0 0 1 3.05 3l6.33 11.76 6.34-11.76a7.47 7.47 0 0 1 3.05-3l11.76-6.33-11.76-6.34a7.35 7.35 0 0 1 -3.05-3.05l-6.34-11.76-6.33 11.76a7.47 7.47 0 0 1 -3.05 3.05z"/></g><g id="_352515200" data-name=" 352515200"><path d="m313 312.56a7.5 7.5 0 0 1 -6.6-3.94l-10.1-18.77-18.77-10.11a7.5 7.5 0 0 1 0-13.2l18.77-10.11 10.1-18.76a7.5 7.5 0 0 1 13.21 0l10.1 18.76 18.77 10.11a7.49 7.49 0 0 1 0 13.2l-18.77 10.11-10.1 18.77a7.51 7.51 0 0 1 -6.61 3.94zm-16.1-39.42 8.49 4.57a7.53 7.53 0 0 1 3.05 3.05l4.56 8.48 4.57-8.48a7.47 7.47 0 0 1 3.05-3.05l8.49-4.57-8.49-4.57a7.47 7.47 0 0 1 -3.05-3.05l-4.57-8.52-4.56 8.48a7.47 7.47 0 0 1 -3.05 3.05z"/></g></g></g></svg>