<svg id="Icons" height="512" viewBox="0 0 60 60" width="512" xmlns="http://www.w3.org/2000/svg"><path d="m30 0a26 26 0 0 0 -10.131 49.953l7.866 9.012a3 3 0 0 0 4.528 0l7.868-9.014a26 26 0 0 0 -10.131-49.951zm9.148 48.2a1 1 0 0 0 -.371.267l-8.022 9.191a1.019 1.019 0 0 1 -1.512 0l-8.02-9.189a1 1 0 0 0 -.371-.267 24 24 0 1 1 18.3 0z"/><path d="m30 5a21 21 0 1 0 21 21 21.024 21.024 0 0 0 -21-21zm0 40a19 19 0 1 1 19-19 19.021 19.021 0 0 1 -19 19z"/><path d="m38.348 22h-7.116a.231.231 0 0 1 -.232-.225v-9.545a2.233 2.233 0 0 0 -4.229-1l-7.488 14.937a2.645 2.645 0 0 0 2.369 3.833h7.116a.231.231 0 0 1 .232.229v9.541a2.194 2.194 0 0 0 1.717 2.168 2.374 2.374 0 0 0 .538.064 2.192 2.192 0 0 0 1.974-1.234l7.488-14.935a2.645 2.645 0 0 0 -2.369-3.833zm.582 2.933-7.489 14.938a.212.212 0 0 1 -.263.121.2.2 0 0 1 -.178-.222v-9.545a2.233 2.233 0 0 0 -2.232-2.225h-7.116a.646.646 0 0 1 -.582-.933l7.489-14.934a.2.2 0 0 1 .19-.13.337.337 0 0 1 .073.009.2.2 0 0 1 .178.218v9.545a2.233 2.233 0 0 0 2.232 2.225h7.116a.646.646 0 0 1 .582.933z"/></svg>