<svg id="Layer_1" enable-background="new 0 0 64 64" viewBox="0 0 64 64" xmlns="http://www.w3.org/2000/svg"><g><g><g><path d="m2.79 54.23c-.54 0-.97-.43-.97-.97v-30.52c0-9.8 7.97-17.78 17.77-17.78s17.78 7.97 17.78 17.78v18.19c0 3.88 3.16 7.03 7.04 7.03s7.03-3.15 7.03-7.03v-30.18c0-.54.43-.97.97-.97s.97.43.97.97v30.18c0 4.95-4.02 8.97-8.97 8.97s-8.98-4.02-8.98-8.97v-18.19c0-8.73-7.1-15.84-15.84-15.84-8.73 0-15.84 7.1-15.84 15.84v30.52c.01.54-.42.97-.96.97z"/></g><g><path d="m44.41 58.69c-9.8 0-17.77-7.97-17.77-17.76v-18.19c0-3.88-3.16-7.04-7.04-7.04s-7.04 3.16-7.04 7.04v30.52c0 .54-.43.97-.97.97s-.97-.43-.97-.97v-30.52c0-4.95 4.03-8.98 8.98-8.98s8.98 4.03 8.98 8.98v18.19c0 8.73 7.1 15.82 15.84 15.82 8.73 0 15.82-7.1 15.82-15.82v-30.18c0-.54.43-.97.97-.97s.97.43.97.97v30.18c0 9.79-7.97 17.76-17.77 17.76z"/></g></g><g><path d="m53.83 31.27c-.48 0-1-.04-1.57-.13-.53-.09-.89-.59-.8-1.11.09-.53.59-.89 1.11-.8 1.75.29 2.95-.07 4.11-.41 1.53-.45 3.1-.92 5.11.59.43.32.52.93.19 1.36-.32.43-.93.52-1.36.19-1.23-.92-2-.69-3.4-.28-.91.27-2 .59-3.39.59z"/></g><g><g><path d="m61.93 11.71h-10.24c-1.14 0-2.07-.93-2.07-2.07v-4.63c0-1.14.93-2.07 2.07-2.07h10.24c1.14 0 2.07.93 2.07 2.07v4.64c0 1.13-.93 2.06-2.07 2.06zm-10.24-6.83c-.07 0-.13.06-.13.13v4.64c0 .07.06.13.13.13h10.24c.07 0 .13-.06.13-.13v-4.64c0-.07-.06-.13-.13-.13z"/></g><g><g><path d="m54.7 11.71c-.54 0-.97-.43-.97-.97v-6.83c0-.54.43-.97.97-.97s.97.43.97.97v6.84c0 .53-.43.96-.97.96z"/></g><g><path d="m58.92 11.71c-.54 0-.97-.43-.97-.97v-6.83c0-.54.43-.97.97-.97s.97.43.97.97v6.84c0 .53-.43.96-.97.96z"/></g></g></g><g><g><path d="m12.31 61.06h-10.24c-1.14 0-2.07-.92-2.07-2.07v-4.64c0-1.14.93-2.07 2.07-2.07h10.24c1.14 0 2.07.93 2.07 2.07v4.64c0 1.15-.93 2.07-2.07 2.07zm-10.24-6.83c-.07 0-.13.06-.13.13v4.64c0 .07.06.13.13.13h10.24c.07 0 .13-.06.13-.13v-4.64c0-.07-.06-.13-.13-.13z"/></g><g><g><path d="m5.08 61.06c-.54 0-.97-.43-.97-.97v-6.84c0-.54.43-.97.97-.97s.97.43.97.97v6.84c0 .54-.44.97-.97.97z"/></g><g><path d="m9.3 61.06c-.54 0-.97-.43-.97-.97v-6.84c0-.54.43-.97.97-.97s.97.43.97.97v6.84c0 .54-.43.97-.97.97z"/></g></g></g></g></svg>