<svg enable-background="new 0 0 512 512" viewBox="0 0 512 512" xmlns="http://www.w3.org/2000/svg"><g id="_x30_7_Picture"><g><path d="m54.902 183.944c-19.812 0-35.93 16.118-35.93 35.933v250.19c0 19.815 16.118 35.933 35.93 35.933h402.197c19.812 0 35.93-16.118 35.93-35.933v-250.19c0-19.815-16.118-35.933-35.93-35.933h-77.926l-86.517-110.741c-2.206-2.816-6.272-3.322-9.09-1.116-2.818 2.201-3.319 6.272-1.116 9.09l80.27 102.749h-213.555l79.479-103.144c2.183-2.834 1.655-6.902-1.176-9.085-2.841-2.186-6.902-1.655-9.085 1.176l-85.584 111.07h-77.897zm425.173 35.933v250.19c0 12.67-10.307 22.98-22.977 22.98h-402.196c-12.67 0-22.977-10.31-22.977-22.98v-250.19c0-12.67 10.307-22.98 22.977-22.98h402.197c12.669.001 22.976 10.31 22.976 22.98z"/><path d="m63.825 437.294c13.657 0 24.766 11.109 24.766 24.766 0 2.686 1.636 4.988 3.965 5.97.777.33 1.632.515 2.53.515h320.376 1.455c3.577 0 6.477-2.899 6.477-6.477 0-13.435 10.755-24.348 24.098-24.728.233.017.466.051.699.051 3.577 0 6.477-2.899 6.477-6.477v-.121-50.607-119.703c0-3.577-2.899-6.477-6.477-6.477-.509 0-1.02.048-1.455.121-13.672 0-24.796-11.124-24.786-24.718.063-.511.111-1.022.111-1.533 0-3.577-2.899-6.477-6.477-6.477h-320.621c-3.577 0-6.477 2.899-6.477 6.477 0 .511.048 1.022.121 1.455 0 13.672-11.124 24.796-24.796 24.796-3.577 0-6.477 2.899-6.477 6.477v170.187c0 .901.187 1.757.52 2.537.982 2.33 3.285 3.966 5.971 3.966zm173.727 18.289h-136.549c-2.717-15.628-15.075-27.989-30.702-30.708v-41.522l73.943-57.852c3.345-2.616 7.506-3.744 11.706-3.15 4.192.587 7.871 2.793 10.353 6.206l81.698 112.625zm16.002 0 92.148-127.001c2.487-3.428 6.168-5.642 10.363-6.231 4.217-.595 8.351.526 11.686 3.132l73.961 57.86v41.304c-16.318 2.181-29.373 14.826-32.171 30.944-44.279-.003 70.098.003-155.987-.008zm-152.324-221.229h308.085c2.244 16.806 15.59 30.152 32.396 32.396v100.148l-65.981-51.615c-6.133-4.797-13.74-6.836-21.469-5.758-7.709 1.083-14.471 5.151-19.043 11.453l-79.216 109.177-79.218-109.208c-4.572-6.289-11.334-10.348-19.04-11.425-7.721-1.08-15.352.977-21.484 5.781l-65.971 51.614v-100.392c16.116-2.799 28.76-15.853 30.941-32.171z"/><path d="m236.489 334.78c20.647 0 37.443-16.796 37.443-37.443 0-20.685-16.796-37.512-37.443-37.512-20.685 0-37.512 16.827-37.512 37.512 0 20.647 16.827 37.443 37.512 37.443zm0-62.001c13.505 0 24.49 11.018 24.49 24.558 0 13.505-10.985 24.49-24.49 24.49-13.54 0-24.558-10.985-24.558-24.49 0-13.54 11.018-24.558 24.558-24.558z"/><path d="m241.817 61.135h28.366c15.2 0 27.566-12.366 27.566-27.569 0-15.2-12.366-27.566-27.566-27.566h-28.366c-15.2 0-27.566 12.366-27.566 27.566 0 15.203 12.366 27.569 27.566 27.569zm0-42.182h28.366c8.058 0 14.613 6.555 14.613 14.613s-6.555 14.616-14.613 14.616h-28.366c-8.058 0-14.613-6.558-14.613-14.616s6.555-14.613 14.613-14.613z"/></g></g><g id="Layer_1"/></svg>