<svg id="line_icons" height="512" viewBox="0 0 74 74" width="512" xmlns="http://www.w3.org/2000/svg" data-name="line icons"><path d="m70.827 47.321h-67.654a1 1 0 0 1 -1-1v-5.362a1 1 0 0 1 1-1h67.654a1 1 0 0 1 1 1v5.361a1 1 0 0 1 -1 1.001zm-66.654-2h65.654v-3.362h-65.654z"/><path d="m50.931 64.767h-27.862a18.467 18.467 0 0 1 -18.446-18.446 1 1 0 0 1 1-1h62.754a1 1 0 0 1 1 1 18.467 18.467 0 0 1 -18.446 18.446zm-44.278-17.446a16.468 16.468 0 0 0 16.416 15.446h27.862a16.468 16.468 0 0 0 16.416-15.446z"/><path d="m43.434 72h-12.868a1 1 0 0 1 -1-1v-7.233a1 1 0 0 1 1-1h12.868a1 1 0 0 1 1 1v7.233a1 1 0 0 1 -1 1zm-11.868-2h10.868v-5.233h-10.868z"/><path d="m67.355 41.959h-60.404a1 1 0 0 1 -1-1v-37.959a1 1 0 0 1 1-1h60.4a1 1 0 0 1 1 1v37.959a1 1 0 0 1 -.996 1zm-59.4-2h58.4v-35.959h-58.404z"/><path d="m62.4 41.959a1 1 0 0 1 -1-1v-32h-48.489v32a1 1 0 0 1 -2 0v-33a1 1 0 0 1 1-1h50.489a1 1 0 0 1 1 1v33a1 1 0 0 1 -1 1z"/><path d="m25.74 41.959h-9.565a1 1 0 0 1 -1-1v-4.629a1 1 0 0 1 1-1h9.565a1 1 0 0 1 1 1v4.629a1 1 0 0 1 -1 1zm-8.565-2h7.565v-2.629h-7.565z"/><path d="m58.132 41.959h-9.566a1 1 0 0 1 -1-1v-4.629a1 1 0 0 1 1-1h9.565a1 1 0 0 1 1 1v4.629a1 1 0 0 1 -.999 1zm-8.565-2h7.565v-2.629h-7.566z"/><path d="m40.948 41.959h-7.591a1 1 0 0 1 -1-1v-6.943a1 1 0 0 1 1-1h7.591a1 1 0 0 1 1 1v6.944a1 1 0 0 1 -1 .999zm-6.591-2h5.591v-4.943h-5.591z"/><path d="m43.456 35.021h-12.605a1 1 0 0 1 0-2h12.605a1 1 0 0 1 0 2z"/></svg>