<svg id="Capa_1" enable-background="new 0 0 512 512" height="512" viewBox="0 0 512 512" width="512" xmlns="http://www.w3.org/2000/svg"><g><g id="_Abstract_Shapes_131_"><g><path d="m436 512h-390c-5.391 0-10.4-2.9-13.066-7.603-2.637-4.702-2.578-10.474.205-15.117l90-150c4.014-6.738 12.568-9.199 19.57-5.698l300 150c6.211 3.105 9.492 10.093 7.881 16.86-1.582 6.768-7.647 11.558-14.59 11.558z" fill="#f66"/></g><g><path d="m369.291 178.418-300-150c-6.211-3.105-9.492-10.093-7.881-16.86 1.582-6.768 7.647-11.558 14.59-11.558h390c5.391 0 10.4 2.9 13.066 7.603 2.637 4.702 2.578 10.474-.205 15.117l-90 150c-4.032 6.749-12.608 9.179-19.57 5.698z" fill="#ffef40"/></g><g><g><path d="m489.295 478.861-150-90c-6.738-4.028-9.229-12.554-5.713-19.57l150-300c3.105-6.226 9.932-9.434 16.875-7.896 6.768 1.597 11.543 7.647 11.543 14.605v390c0 5.405-2.9 10.386-7.617 13.052-4.645 2.65-10.417 2.606-15.088-.191z" fill="#73d0ff"/></g></g><g><path d="m282.455 368.91-132.656-66.328c-7.412-3.706-10.4-12.715-6.709-20.127l66.328-132.656c3.75-7.427 12.744-10.371 20.127-6.709l132.656 66.328c7.412 3.706 10.4 12.715 6.709 20.127l-66.328 132.656c-3.654 7.289-12.542 10.451-20.127 6.709z" fill="#5c5c99"/></g><g><path d="m11.543 450.604c-6.768-1.596-11.543-7.646-11.543-14.604v-390c0-5.405 2.9-10.386 7.617-13.052 4.658-2.666 10.43-2.593 15.088.19l150 90c6.738 4.028 9.229 12.554 5.713 19.57l-150 300c-2.988 5.995-9.737 9.503-16.875 7.896z" fill="#8cd96b"/></g></g><path d="m466 0h-210v121.772l113.291 56.646c6.962 3.481 15.538 1.051 19.57-5.698l90-150c2.783-4.644 2.842-10.415.205-15.117-2.666-4.703-7.675-7.603-13.066-7.603z" fill="#ffcf40"/><path d="m442.709 483.582-186.709-93.354v121.772h180c6.943 0 13.008-4.79 14.59-11.558 1.611-6.767-1.67-13.754-7.881-16.86z" fill="#f23c5c"/><path d="m362.201 209.418-106.201-53.101v199.365l26.455 13.228c7.588 3.741 16.472.579 20.127-6.709l66.328-132.656c3.692-7.412.703-16.421-6.709-20.127z" fill="#443d66"/></g></svg>