<svg viewBox="0 0 511 511" xmlns="http://www.w3.org/2000/svg"><g id="Layer_2" data-name="Layer 2"><g id="Layer_3_copy" data-name="Layer 3 copy"><g id="_29" data-name="29"><rect fill="#fff" height="511" rx="6.25" width="511"/><rect fill="#ffe5e4" height="501" rx="1.25" width="501" x="5" y="5"/><rect fill="#fff" height="260.07" rx="6.25" width="260.5" x="250.5" y="250.94"/><rect fill="#009a85" height="250.07" rx="1.25" width="250.5" x="255.5" y="255.94"/><path d="m256.75 511a6.26 6.26 0 0 1 -6.25-6.25v-247.56a6.26 6.26 0 0 1 6.25-6.25h19.81.57a256.2 256.2 0 0 1 233.87 233.63v.53 19.65a6.25 6.25 0 0 1 -6.25 6.25z" fill="#fff"/><path d="m255.5 257.19v247.56a1.25 1.25 0 0 0 1.25 1.25h248a1.25 1.25 0 0 0 1.25-1.25v-19.75c-10.11-121.78-107.34-218.89-229.32-229h-19.93a1.25 1.25 0 0 0 -1.25 1.19z" fill="#00ce66"/><rect fill="#fff" height="260.07" rx="6.25" width="260.5" y="250.94"/><rect fill="#22b2fd" height="250.07" rx="1.25" width="250.5" x="5" y="255.94"/><path d="m6.25 511a6.25 6.25 0 0 1 -6.25-6.25v-245.75a6.27 6.27 0 0 1 6.26-6.26 6.2 6.2 0 0 1 4.41 1.83l246.22 245.8a6.25 6.25 0 0 1 -4.42 10.63z" fill="#fff"/><path d="m5 259v245.75a1.25 1.25 0 0 0 1.25 1.25h246.22a1.25 1.25 0 0 0 .89-2.14l-246.22-245.79a1.25 1.25 0 0 0 -2.14.93z" fill="#2c80fd"/><rect fill="#fff" height="260.07" rx="6.25" width="260.5"/><rect fill="#fbdc77" height="250.07" rx="1.25" width="250.5" x="5" y="5"/><path d="m6.25 260.07a6.26 6.26 0 0 1 -6.25-6.26v-19.65c0-.17 0-.33 0-.5a256.21 256.21 0 0 1 233.91-233.66h.53 19.81a6.25 6.25 0 0 1 6.25 6.25v247.56a6.26 6.26 0 0 1 -6.25 6.26z" fill="#fff"/><path d="m255.5 6.25v247.56a1.25 1.25 0 0 1 -1.25 1.26h-248a1.25 1.25 0 0 1 -1.25-1.26v-19.76c10.12-121.79 107.34-218.89 229.33-229.05h19.92a1.25 1.25 0 0 1 1.25 1.25z" fill="#186979"/><rect fill="#fff" height="260.07" rx="6.25" width="260.5" x="250.5"/><rect fill="#ff8de4" height="250.07" rx="1.25" width="250.5" x="255.5" y="5"/><path d="m258.53 260.07a6.26 6.26 0 0 1 -4.42-10.68l246.22-245.8a6.26 6.26 0 0 1 10.67 4.41v245.81a6.26 6.26 0 0 1 -6.25 6.26z" fill="#fff"/><path d="m506 8v245.81a1.25 1.25 0 0 1 -1.25 1.26h-246.22a1.25 1.25 0 0 1 -.89-2.14l246.23-245.8a1.25 1.25 0 0 1 2.13.87z" fill="#ff0068"/></g></g></g></svg>