<svg id="Layer_1" enable-background="new 0 0 48 48" height="300" viewBox="0 0 48 48" width="300" xmlns="http://www.w3.org/2000/svg" xmlns:xlink="http://www.w3.org/1999/xlink" version="1.1" xmlns:svgjs="http://svgjs.dev/svgjs"><g width="100%" height="100%" transform="matrix(1,0,0,1,0,0)"><pattern id="Unnamed_Pattern_11" height="86" overflow="visible" patternUnits="userSpaceOnUse" viewBox="0 -86 98 86" width="98" x="-544"><g><path d="m0 0h98v-86h-98z" fill="none" fill-opacity="1" stroke="none" stroke-opacity="1"/><path d="m98 0h-98v-86h98z" fill="#dad9d9" fill-opacity="1" data-original-color="#6e6eaaff" stroke="none" stroke-opacity="1"/></g></pattern><g fill="url(#Unnamed_Pattern_11)"><path d="m47.698 41.692-21.736-37.648c-.404-.701-1.152-1.132-1.961-1.132-.811 0-1.557.432-1.961 1.132l-21.736 37.648c-.404.701-.404 1.563 0 2.264s1.152 1.132 1.961 1.132h43.473c.809 0 1.557-.432 1.961-1.132.402-.701.402-1.563-.001-2.264zm-41.511-1.132 17.814-30.856 17.814 30.856z" fill="url(#Unnamed_Pattern_11)" data-original-color="Unnamed_Pattern_11" stroke="none" stroke-opacity="1"/><path d="m21.735 20.833v7.033c0 1.25 1.014 2.264 2.266 2.264 1.25 0 2.264-1.013 2.264-2.264v-7.033c0-1.25-1.014-2.265-2.264-2.265-1.252 0-2.266 1.014-2.266 2.265z" fill="url(#Unnamed_Pattern_11)" data-original-color="Unnamed_Pattern_11" stroke="none" stroke-opacity="1"/><path d="m24.019 33.038h-.01c-1.25 0-2.26 1.014-2.26 2.264 0 1.251 1.02 2.264 2.27 2.264s2.264-1.013 2.264-2.264c-.001-1.251-1.014-2.264-2.264-2.264z" fill="url(#Unnamed_Pattern_11)" data-original-color="Unnamed_Pattern_11" stroke="none" stroke-opacity="1"/></g></g></svg>