<svg id="Capa_1" enable-background="new 0 0 497.559 497.559" height="512" viewBox="0 0 497.559 497.559" width="512" xmlns="http://www.w3.org/2000/svg"><g><g><path d="m497.559 118.309-44.855 10-47.714-10 9.683-118.029h68.234c8.092 0 14.652 6.56 14.652 14.652z" fill="#ffbd86"/><path d="m482.907 497.279h-67.917l-10-378.971h92.569v364.319c0 8.092-6.56 14.652-14.652 14.652z" fill="#ffe5c2"/><path d="m482.907.279h-15.348v118.029h30v-103.376c0-8.092-6.56-14.653-14.652-14.653z" fill="#f6a96c"/><g fill="#fed2a4"><path d="m467.559 118.309v334.318c0 8.092-6.56 14.652-14.652 14.652h-47.917l9.683 30h68.234c8.092 0 14.652-6.56 14.652-14.652v-364.318z"/><path d="m442.446 158.409c-1.98 0-3.909-.8-5.3-2.19-.35-.35-.66-.729-.94-1.14-.271-.41-.5-.85-.69-1.3-.18-.45-.33-.92-.42-1.4-.1-.49-.15-.979-.15-1.47 0-.49.051-.98.15-1.46.09-.48.24-.95.42-1.4.19-.46.42-.89.69-1.3.279-.41.59-.79.94-1.14 1.74-1.74 4.32-2.55 6.761-2.05.48.1.949.239 1.409.43.45.189.891.42 1.29.689.41.271.801.58 1.141.931 1.399 1.399 2.199 3.33 2.199 5.3 0 1.98-.8 3.91-2.199 5.31-.34.341-.73.66-1.141.931-.4.27-.84.5-1.29.689-.46.19-.93.33-1.409.42-.48.101-.971.15-1.461.15z"/><path d="m470.736 158.409c-1.97 0-3.909-.8-5.3-2.19-.35-.35-.66-.729-.939-1.14-.271-.41-.5-.85-.69-1.3-.18-.45-.33-.92-.42-1.4-.1-.479-.15-.979-.15-1.47 0-.48.051-.98.15-1.46.09-.48.24-.95.42-1.4.19-.46.42-.89.69-1.3.279-.41.59-.79.939-1.14 1.391-1.4 3.32-2.2 5.3-2.2 1.971 0 3.91.8 5.301 2.2.35.35.659.73.939 1.14.26.41.5.84.681 1.3.19.45.34.92.43 1.4.1.479.149.979.149 1.46 0 .49-.05.99-.149 1.47-.09.48-.24.95-.43 1.4-.181.45-.421.89-.681 1.3-.28.41-.59.79-.939 1.14-1.391 1.391-3.33 2.19-5.301 2.19z"/></g><path d="m477.657 148.049c-.181-.46-.421-.89-.681-1.3-.28-.41-.59-.79-.939-1.14-1.391-1.4-3.33-2.2-5.301-2.2-1.104 0-2.189.257-3.177.72v13.561c.991.462 2.077.72 3.177.72 1.971 0 3.91-.8 5.301-2.19.35-.35.659-.729.939-1.14.26-.41.5-.85.681-1.3.19-.45.34-.92.43-1.4.1-.479.149-.979.149-1.47 0-.48-.05-.98-.149-1.46-.09-.481-.241-.951-.43-1.401z" fill="#ffbd86"/><path d="m442.446 94.919c-1.98 0-3.909-.8-5.3-2.2-.35-.35-.66-.729-.94-1.14-.271-.41-.5-.84-.69-1.3-.18-.45-.33-.92-.42-1.4-.1-.479-.15-.979-.15-1.47 0-.48.051-.98.15-1.46.09-.48.24-.95.42-1.4.19-.46.42-.89.69-1.3.279-.41.59-.79.94-1.14 1.73-1.74 4.32-2.54 6.761-2.05.48.1.949.239 1.409.43.45.189.891.42 1.29.689.41.271.801.591 1.141.931 1.399 1.399 2.199 3.33 2.199 5.3 0 .49-.05.99-.149 1.47-.09.48-.24.95-.42 1.4-.191.46-.42.89-.691 1.3-.279.41-.59.79-.939 1.14-1.391 1.4-3.33 2.2-5.301 2.2z" fill="#f6a96c"/><path d="m470.736 94.919c-1.97 0-3.909-.81-5.3-2.2-.35-.35-.66-.729-.939-1.14-.271-.41-.5-.84-.69-1.3-.18-.45-.33-.92-.42-1.4-.1-.479-.15-.979-.15-1.46 0-1.979.801-3.91 2.2-5.31 1.391-1.391 3.32-2.19 5.3-2.19 1.971 0 3.91.8 5.301 2.19 1.399 1.399 2.199 3.33 2.199 5.31 0 .48-.05.98-.149 1.46-.09.48-.24.95-.43 1.4-.181.46-.421.89-.681 1.3-.28.41-.59.79-.939 1.14-1.392 1.391-3.331 2.2-5.302 2.2z" fill="#f6a96c"/><path d="m467.559 94.194c.991.465 2.077.726 3.177.726 1.971 0 3.91-.81 5.301-2.2.35-.35.659-.729.939-1.14.26-.41.5-.84.681-1.3.19-.45.34-.92.43-1.4.1-.479.149-.979.149-1.46 0-1.979-.8-3.91-2.199-5.31-1.391-1.391-3.33-2.19-5.301-2.19-1.104 0-2.189.257-3.177.718z" fill="#ea9b58"/></g><g><path d="m341.507 248.309-51.285 10-51.284-10 9.683-248.03h83.483z" fill="#ffbd86"/><path d="m331.507 497.279h-82.569l-10-248.97h102.569z" fill="#ffe5c2"/><g fill="#fed2a4"><path d="m248.621 497.279h83.483l9.403-30h-102.569z"/><path d="m276.306 288.409c-.49 0-.979-.05-1.47-.14-.47-.101-.95-.24-1.4-.431-.45-.19-.89-.42-1.29-.69-.42-.27-.8-.59-1.14-.931-.35-.35-.66-.73-.94-1.14-.27-.41-.5-.84-.689-1.3-.181-.45-.33-.92-.42-1.4-.1-.48-.15-.98-.15-1.47s.05-.98.15-1.46c.09-.48.239-.95.42-1.41.189-.45.42-.88.689-1.29.28-.41.591-.79.94-1.14.34-.351.72-.66 1.14-.931.4-.27.84-.5 1.29-.689.45-.19.931-.33 1.4-.43.97-.19 1.97-.2 2.939 0 .471.1.95.239 1.4.43.45.189.89.42 1.29.689.41.27.8.58 1.14.931.35.35.66.729.931 1.14.27.41.51.84.689 1.29.19.46.34.93.431 1.41.1.48.149.97.149 1.46s-.05.99-.149 1.47c-.091.48-.24.95-.431 1.4-.18.46-.42.89-.689 1.3-.271.41-.58.79-.931 1.14-.34.341-.729.66-1.14.931-.4.27-.84.5-1.29.69s-.93.33-1.4.431c-.488.091-.978.14-1.469.14z"/><path d="m304.596 288.409c-.49 0-.979-.05-1.47-.15-.48-.09-.95-.229-1.4-.42-.45-.19-.89-.42-1.29-.69-.42-.27-.8-.59-1.149-.931-.341-.35-.65-.73-.931-1.14-.27-.41-.5-.85-.69-1.3-.181-.45-.33-.92-.42-1.4-.101-.48-.15-.98-.15-1.47 0-1.97.8-3.91 2.19-5.3.35-.351.729-.66 1.149-.931.4-.27.84-.5 1.29-.689.45-.19.92-.33 1.4-.43 2.43-.49 5.03.31 6.77 2.05.351.35.66.729.931 1.14.279.41.51.84.689 1.29.19.46.34.93.43 1.41.101.48.15.98.15 1.46 0 .49-.05.99-.15 1.47-.09.48-.239.95-.43 1.4-.18.45-.41.89-.689 1.3-.271.41-.58.79-.931 1.14-1.388 1.392-3.329 2.191-5.299 2.191z"/></g><path d="m276.306 224.919c-.49 0-.979-.05-1.47-.149-.47-.101-.95-.24-1.4-.431-.45-.189-.89-.42-1.29-.689-.42-.271-.8-.59-1.14-.931-.35-.35-.66-.729-.94-1.14-.27-.41-.5-.84-.689-1.3-.181-.45-.33-.92-.42-1.4-.1-.479-.15-.979-.15-1.46 0-.49.05-.99.15-1.47.09-.48.239-.95.42-1.4.189-.46.42-.89.689-1.3.28-.41.591-.79.94-1.14.34-.34.72-.66 1.14-.931.4-.27.84-.5 1.29-.689.45-.191.931-.33 1.4-.43.97-.191 1.97-.191 2.939 0 .471.1.95.239 1.4.43.45.189.89.42 1.29.689.41.271.8.591 1.14.931.35.35.66.73.931 1.14.27.41.51.84.689 1.3.19.45.34.92.431 1.4.1.479.149.979.149 1.47 0 .48-.05.98-.149 1.46-.091.48-.24.95-.431 1.4-.18.46-.42.89-.689 1.3-.271.41-.58.79-.931 1.14-.34.341-.729.66-1.14.931-.4.27-.84.5-1.29.689-.45.19-.93.33-1.4.431-.488.099-.978.149-1.469.149z" fill="#f6a96c"/><path d="m304.596 224.919c-.49 0-.979-.05-1.47-.149-.48-.101-.95-.24-1.4-.431-.45-.189-.89-.42-1.29-.689-.42-.271-.8-.59-1.149-.931-1.391-1.4-2.19-3.33-2.19-5.3 0-.49.05-.99.15-1.47.09-.48.239-.95.42-1.4.19-.46.42-.89.69-1.3.28-.41.59-.79.931-1.14.35-.34.729-.66 1.149-.931.4-.27.84-.5 1.29-.689.45-.191.92-.33 1.4-.43 2.439-.49 5.03.309 6.77 2.05.351.35.66.73.931 1.14.279.41.51.84.689 1.3.19.45.34.92.43 1.4.101.479.15.979.15 1.47 0 .49-.05.98-.15 1.46-.09.48-.239.95-.43 1.41-.18.45-.41.88-.689 1.29-.271.41-.58.79-.931 1.14-.34.341-.73.66-1.14.931-.4.27-.84.5-1.29.689-.46.19-.93.33-1.41.431-.48.099-.97.149-1.461.149z" fill="#f6a96c"/></g><g><g><path d="m92.569 248.779-51.285 10-41.284-10v-233.847c0-8.093 6.56-14.653 14.652-14.653h68.234z" fill="#ea9b58"/><path d="m82.569 497.279h-67.917c-8.092 0-14.652-6.56-14.652-14.652v-233.848h92.569z" fill="#fed2a4"/></g><path d="m0 452.627v30c0 8.092 6.56 14.652 14.652 14.652h68.234l9.683-18.509-9.683-11.491h-68.234c-8.092 0-14.652-6.56-14.652-14.652z" fill="#ffbd86"/><path d="m55.426 288.429c-.49 0-.979-.05-1.46-.14-.48-.1-.95-.24-1.41-.43-.45-.191-.88-.42-1.29-.691-.41-.28-.79-.59-1.14-.93-.351-.351-.66-.73-.93-1.141-.271-.409-.511-.85-.69-1.3-.19-.45-.33-.92-.43-1.399-.101-.49-.15-.98-.15-1.471 0-1.97.8-3.909 2.2-5.3.35-.35.729-.66 1.14-.93.41-.27.84-.51 1.29-.69.46-.189.93-.33 1.41-.43.96-.19 1.96-.19 2.93 0 .481.1.95.24 1.4.43.45.181.89.42 1.3.69s.79.58 1.14.93c1.391 1.391 2.19 3.33 2.19 5.3 0 1.98-.8 3.91-2.19 5.311-.35.34-.729.649-1.14.93-.41.271-.85.5-1.3.691-.45.189-.92.33-1.4.43-.489.09-.979.14-1.47.14z" fill="#ffbd86"/><path d="m55.426 224.929c-.49 0-.979-.04-1.46-.14-.48-.1-.95-.24-1.41-.43-.45-.19-.88-.42-1.29-.69s-.79-.59-1.14-.93c-1.4-1.4-2.2-3.33-2.2-5.311 0-.479.05-.979.15-1.46.1-.479.239-.949.43-1.4.18-.46.42-.891.69-1.3.27-.41.579-.79.93-1.141.35-.34.729-.66 1.14-.93.41-.271.84-.5 1.29-.69.46-.19.93-.33 1.41-.43.96-.19 1.96-.19 2.93 0 .481.1.95.24 1.4.43s.89.42 1.3.69.79.59 1.14.93c1.391 1.4 2.19 3.33 2.19 5.3 0 1.98-.8 3.91-2.19 5.311-.35.34-.729.66-1.14.93-.41.271-.85.5-1.3.69-.45.189-.92.33-1.4.43-.489.101-.979.141-1.47.141z" fill="#d88a55"/><g><path d="m175.455 358.309-51.345 10-41.224-10v-358.03h83.166z" fill="#ffbd86"/><path d="m165.455 497.279h-82.569v-138.97h92.569z" fill="#ffe5c2"/><g fill="#fed2a4"><path d="m82.886 497.279h83.166l9.403-15-9.403-15h-83.166z"/><path d="m110.167 398.409c-.49 0-.98-.05-1.47-.14-.471-.101-.95-.24-1.4-.431-.45-.19-.89-.42-1.3-.69s-.79-.59-1.141-.931c-1.39-1.4-2.189-3.33-2.189-5.31 0-.48.05-.98.14-1.46.101-.48.24-.95.43-1.41.19-.45.421-.88.69-1.29.271-.41.59-.8.93-1.14.351-.351.73-.66 1.141-.931.41-.27.85-.5 1.3-.689.45-.19.93-.33 1.4-.43.97-.19 1.97-.19 2.93 0 .479.1.95.239 1.41.43.449.189.89.42 1.29.689.409.27.8.58 1.14.931.35.34.66.729.93 1.14.28.41.511.84.7 1.29.18.46.33.93.42 1.41.101.48.15.98.15 1.46 0 1.979-.8 3.91-2.2 5.31-1.391 1.393-3.332 2.192-5.301 2.192z"/><path d="m138.457 398.409c-.49 0-.98-.05-1.471-.14-.479-.101-.949-.24-1.399-.431-.45-.19-.89-.42-1.3-.69s-.79-.59-1.141-.931c-1.39-1.4-2.189-3.33-2.189-5.31 0-1.97.8-3.9 2.189-5.3.351-.351.73-.66 1.141-.931.41-.27.85-.5 1.3-.689.45-.19.92-.33 1.399-.43.971-.19 1.971-.2 2.931 0 .479.1.95.239 1.41.43.449.189.88.42 1.29.689.409.27.8.58 1.14.931 1.4 1.399 2.2 3.33 2.2 5.3 0 1.979-.8 3.91-2.2 5.31-.34.341-.73.66-1.14.931-.41.27-.841.5-1.29.69-.46.19-.931.33-1.41.431-.481.091-.97.14-1.46.14z"/></g><path d="m110.167 334.909c-.49 0-.98-.04-1.47-.14-.471-.101-.95-.24-1.4-.431-.45-.19-.89-.42-1.3-.69s-.79-.58-1.141-.931c-.34-.35-.659-.73-.93-1.14-.27-.41-.5-.84-.69-1.3-.189-.45-.329-.92-.43-1.4-.09-.48-.14-.98-.14-1.47 0-1.97.8-3.9 2.189-5.3.351-.34.73-.66 1.141-.931.41-.27.85-.5 1.3-.689.45-.19.93-.33 1.4-.43 2.439-.49 5.029.31 6.77 2.05 1.4 1.399 2.2 3.33 2.2 5.3 0 .49-.05.99-.15 1.47-.09.48-.24.95-.42 1.4-.189.46-.42.89-.7 1.3-.27.41-.58.79-.93 1.14-.34.35-.73.66-1.14.931-.4.27-.841.5-1.29.69-.46.19-.931.33-1.41.431-.48.1-.969.14-1.459.14z" fill="#f6a96c"/><path d="m138.457 334.909c-.49 0-.98-.04-1.471-.14-.479-.101-.949-.24-1.399-.431-.45-.19-.89-.42-1.3-.69s-.79-.59-1.141-.931c-.34-.35-.66-.73-.93-1.14s-.5-.84-.69-1.3c-.18-.45-.329-.92-.42-1.4-.1-.48-.15-.98-.15-1.47 0-.48.05-.98.15-1.46.091-.48.24-.95.42-1.4.19-.46.421-.89.69-1.3.28-.41.59-.79.93-1.14.351-.351.73-.66 1.141-.931.41-.27.85-.5 1.3-.689.45-.19.92-.33 1.399-.43.971-.19 1.971-.19 2.931 0 .479.1.95.239 1.41.43.449.189.88.42 1.29.689.409.27.8.58 1.14.931.35.35.66.729.93 1.14.27.41.511.84.69 1.3.189.45.34.92.43 1.4.101.48.15.98.15 1.46 0 .49-.05.99-.15 1.47-.09.48-.24.95-.43 1.4-.18.46-.42.89-.69 1.3s-.58.79-.93 1.14c-.34.341-.73.66-1.14.931-.41.27-.841.5-1.29.69-.46.19-.931.33-1.41.431-.481.1-.97.14-1.46.14z" fill="#f6a96c"/></g></g><path d="m27.136 288.429c-.49 0-.979-.05-1.46-.14-.479-.1-.95-.24-1.41-.43-.45-.191-.88-.42-1.29-.691-.41-.28-.79-.59-1.14-.939-1.4-1.391-2.2-3.32-2.2-5.301 0-1.97.8-3.909 2.2-5.3.35-.35.729-.66 1.14-.93.41-.27.84-.51 1.29-.69.46-.189.931-.33 1.41-.43 2.43-.49 5.021.31 6.77 2.05 1.39 1.391 2.189 3.33 2.189 5.3 0 1.98-.8 3.91-2.189 5.301-1.399 1.4-3.329 2.2-5.31 2.2z" fill="#ffbd86"/><path d="m27.136 224.94c-.49 0-.979-.051-1.46-.15-.479-.1-.95-.24-1.41-.43-.45-.19-.88-.42-1.29-.69s-.79-.59-1.14-.93c-.351-.351-.66-.73-.93-1.141-.271-.409-.511-.84-.69-1.3-.19-.45-.33-.92-.43-1.399-.101-.48-.15-.98-.15-1.46 0-.49.05-.99.15-1.471.1-.479.239-.949.43-1.4.18-.46.42-.891.69-1.3.27-.41.579-.79.93-1.141.35-.34.729-.66 1.14-.93.41-.271.84-.5 1.29-.69.46-.19.931-.33 1.41-.43 2.43-.49 5.021.31 6.77 2.05.34.351.659.73.93 1.141.269.409.5.84.689 1.3.19.45.33.92.431 1.4.09.48.14.98.14 1.471 0 .479-.05.979-.14 1.46-.101.479-.24.949-.431 1.399-.189.46-.42.891-.689 1.3-.271.41-.59.79-.93 1.141-1.399 1.389-3.329 2.2-5.31 2.2z" fill="#d88a55"/><path d="m166.052.279h82.569v497h-82.569z" fill="#ea9b58"/><path d="m332.104.279h82.569v497h-82.569z" fill="#ea9b58"/><g fill="#d88a55"><path d="m166.052 467.279h82.569v30h-82.569z"/><path d="m332.104 467.279h82.569v30h-82.569z"/><path d="m193.186 42.039c-.49 0-.98-.05-1.46-.15-.48-.09-.95-.239-1.41-.42-.449-.189-.88-.42-1.29-.699-.409-.271-.79-.58-1.14-.931-.34-.34-.66-.729-.93-1.14-.27-.4-.5-.84-.69-1.29-.189-.46-.33-.93-.43-1.41-.101-.479-.15-.97-.15-1.46s.05-.979.15-1.47c.1-.48.24-.95.43-1.4s.42-.89.69-1.29c.27-.42.59-.8.93-1.14.35-.351.73-.66 1.14-.941.41-.27.841-.5 1.29-.689.46-.181.931-.33 1.41-.431.96-.189 1.96-.189 2.931 0 .479.101.949.25 1.399.431.45.189.89.42 1.3.689.41.28.79.59 1.141.941 1.39 1.39 2.189 3.32 2.189 5.3 0 .49-.05.98-.14 1.46-.101.48-.24.95-.43 1.41-.19.45-.421.89-.69 1.29-.27.41-.59.8-.93 1.14-.351.351-.73.66-1.141.931-.41.279-.85.51-1.3.699-.45.181-.92.33-1.399.42-.48.1-.98.15-1.47.15z"/><path d="m221.476 42.039c-.49 0-.98-.05-1.46-.15-.479-.09-.95-.239-1.41-.43-.449-.18-.88-.41-1.29-.689-.409-.271-.79-.58-1.14-.931-.35-.34-.66-.729-.93-1.14-.27-.4-.5-.84-.69-1.29-.189-.46-.33-.93-.43-1.41-.101-.479-.15-.97-.15-1.46s.05-.979.15-1.47c.1-.48.24-.95.43-1.4s.42-.89.69-1.29c.27-.42.58-.8.93-1.14.35-.351.73-.66 1.14-.941.41-.27.841-.5 1.29-.689.46-.191.931-.33 1.41-.431.97-.189 1.96-.189 2.93 0 .48.101.95.24 1.4.431.46.189.89.42 1.3.689.41.28.79.59 1.141.941.34.34.659.72.93 1.14.269.4.5.84.69 1.29.189.45.329.92.43 1.4.1.49.149.979.149 1.47 0 .49-.05.98-.149 1.46-.101.48-.24.95-.43 1.41-.19.45-.421.89-.69 1.29-.271.41-.59.8-.93 1.14-.351.351-.73.66-1.141.931-.41.279-.84.51-1.3.689-.45.19-.92.34-1.4.43-.479.1-.979.15-1.47.15z"/><path d="m359.247 42.039c-1.98 0-3.91-.8-5.311-2.2-.34-.34-.66-.729-.93-1.14-.271-.4-.5-.84-.69-1.29-.189-.46-.33-.93-.43-1.41-.09-.479-.14-.97-.14-1.46s.05-.979.14-1.47c.1-.48.24-.95.43-1.4s.42-.89.69-1.29c.27-.42.59-.8.93-1.14 1.75-1.75 4.33-2.55 6.771-2.061.479.101.95.25 1.4.431.46.189.891.42 1.301.689.409.28.789.59 1.14.941 1.399 1.39 2.2 3.32 2.2 5.3 0 .49-.051.98-.15 1.46-.1.48-.24.95-.43 1.41-.19.45-.42.89-.69 1.29-.27.41-.58.8-.93 1.14-1.402 1.4-3.332 2.2-5.301 2.2z"/><path d="m387.526 42.039c-.479 0-.979-.05-1.46-.15-.479-.1-.949-.239-1.399-.43-.45-.18-.891-.42-1.3-.689-.41-.271-.79-.58-1.141-.931-.34-.34-.66-.729-.93-1.14-.271-.4-.5-.84-.69-1.29-.19-.46-.33-.93-.43-1.41-.09-.479-.14-.97-.14-1.46s.05-.979.14-1.47c.1-.48.24-.95.43-1.4s.42-.89.69-1.29c.27-.42.59-.8.93-1.14.351-.351.73-.66 1.141-.941.409-.27.85-.5 1.3-.689.45-.181.92-.33 1.399-.42.971-.2 1.96-.2 2.931 0 .479.09.949.239 1.399.42.46.189.891.42 1.3.689.41.28.79.59 1.141.941.34.34.66.72.93 1.14.271.4.5.84.69 1.29s.33.92.43 1.4c.09.49.14.979.14 1.47 0 .49-.05.98-.14 1.46-.1.48-.24.95-.43 1.41-.19.45-.42.89-.69 1.29-.27.41-.59.8-.93 1.14-.351.351-.73.66-1.141.931-.409.27-.84.51-1.3.689-.45.19-.92.33-1.399.43-.481.1-.981.15-1.471.15z"/><path d="m193.186 460.989c-.49 0-.98-.05-1.46-.15s-.95-.24-1.41-.43c-.449-.19-.88-.42-1.29-.69-.409-.27-.79-.58-1.14-.93-1.4-1.4-2.2-3.33-2.2-5.3 0-.49.05-.98.15-1.47.1-.48.24-.95.43-1.4s.42-.89.69-1.3.59-.79.93-1.141c.35-.34.73-.659 1.14-.93.41-.27.841-.5 1.29-.689.46-.181.931-.33 1.41-.421.96-.199 1.96-.199 2.931 0 .479.091.949.24 1.399.421.45.189.89.42 1.3.689.41.271.79.59 1.141.93.34.351.66.73.93 1.141.27.41.5.85.69 1.3.189.45.329.92.43 1.4.09.489.14.979.14 1.47 0 1.97-.8 3.899-2.189 5.3-.351.35-.73.66-1.141.93-.41.27-.85.5-1.3.69-.45.189-.92.33-1.399.43-.482.101-.982.15-1.472.15z"/><path d="m221.476 460.989c-.49 0-.98-.05-1.46-.15-.479-.09-.95-.24-1.41-.43-.449-.18-.88-.42-1.29-.69-.409-.27-.79-.58-1.14-.93s-.66-.729-.93-1.14c-.27-.41-.5-.84-.69-1.29-.189-.46-.33-.931-.43-1.41-.101-.48-.15-.97-.15-1.46s.05-.98.15-1.47c.1-.48.24-.95.43-1.4s.42-.89.69-1.3.58-.79.93-1.141c.35-.34.73-.659 1.14-.93.41-.27.841-.5 1.29-.689.46-.19.931-.33 1.41-.431.97-.189 1.96-.189 2.93 0 .48.101.95.24 1.4.431.46.189.89.42 1.3.689.41.271.79.59 1.141.93.34.351.659.73.93 1.141.269.41.5.85.69 1.3.189.45.329.92.43 1.4.1.489.149.979.149 1.47 0 .49-.05.98-.149 1.46-.101.48-.24.95-.43 1.41-.19.45-.421.88-.69 1.29-.271.41-.59.79-.93 1.14-.351.35-.73.66-1.141.93-.41.27-.84.511-1.3.69-.45.189-.92.34-1.4.43-.479.101-.979.15-1.47.15z"/><path d="m359.247 460.989c-1.98 0-3.91-.8-5.311-2.2-.34-.34-.66-.729-.93-1.14-.271-.41-.5-.84-.69-1.29-.189-.46-.33-.931-.43-1.41-.09-.48-.14-.97-.14-1.46s.05-.98.14-1.47c.1-.48.24-.95.43-1.4s.42-.89.69-1.3.59-.79.93-1.141c1.4-1.39 3.33-2.189 5.311-2.189 1.97 0 3.91.8 5.3 2.189 1.399 1.4 2.2 3.33 2.2 5.311 0 .49-.051.98-.15 1.46-.1.48-.24.95-.43 1.41-.19.45-.42.88-.69 1.29s-.58.8-.93 1.14c-1.401 1.401-3.331 2.2-5.3 2.2z"/><path d="m387.526 460.989c-.479 0-.979-.05-1.46-.15-.479-.1-.949-.24-1.399-.43-.45-.18-.891-.42-1.3-.69-.41-.27-.79-.58-1.141-.93-.34-.35-.66-.729-.93-1.14-.271-.41-.5-.84-.69-1.301-.19-.449-.33-.92-.43-1.399-.09-.48-.14-.97-.14-1.46s.05-.98.14-1.47c.1-.48.24-.95.43-1.4s.42-.89.69-1.3.59-.79.93-1.141c.351-.34.73-.659 1.141-.93.409-.27.85-.5 1.3-.689.45-.181.92-.33 1.399-.421.971-.199 1.96-.199 2.931 0 .479.091.949.24 1.399.421.46.189.891.42 1.3.689.41.271.79.59 1.141.93.34.351.66.73.93 1.141.271.41.5.85.69 1.3s.33.92.43 1.4c.09.489.14.979.14 1.47 0 .49-.05.98-.14 1.46-.1.48-.24.95-.43 1.399-.19.461-.42.891-.69 1.301s-.59.79-.93 1.14c-.351.35-.73.66-1.141.93-.409.27-.84.511-1.3.69-.45.189-.92.33-1.399.43-.481.101-.981.15-1.471.15z"/></g></g></svg>