<svg height="512" viewBox="0 0 128 128" width="512" xmlns="http://www.w3.org/2000/svg"><g><path d="m1.75 1.747h124.5v124.5h-124.5z" fill="#ffc080"/><path d="m1.75 89.783 18.231 18.231 17.607-17.607-35.838-35.838z" fill="#cc825d"/><path d="m37.588 90.407-17.607 17.607 18.233 18.233h35.214z" fill="#995a4d"/><path d="m90.409 37.587 17.607-17.607-18.233-18.233h-35.214z" fill="#cc825d"/><path d="m126.25 38.214-18.234-18.234-17.607 17.607 35.841 35.841z" fill="#995a4d"/><path d="m1.75 54.569 4.28 4.28 17.607-17.607-21.887-21.887z" fill="#ffc080"/><path d="m33.944 36.972h24.9v89.269h-24.9z" fill="#e69f6e" transform="matrix(.707 -.707 .707 .707 -44.116 56.708)"/><path d="m86.759 104.365-17.607 17.607 4.276 4.275h35.214z" fill="#cc825d"/><path d="m1.75 19.355 53.445 53.445 17.607-17.606-53.447-53.447h-17.605z" fill="#995a4d"/><path d="m126.25 108.642-53.448-53.448-17.607 17.606 53.447 53.447h17.608z" fill="#ffc080"/><path d="m41.243 23.635 17.607-17.607-4.281-4.281h-35.214z" fill="#ffc080"/><path d="m69.158 1.759h24.9v89.269h-24.9z" fill="#e69f6e" transform="matrix(.707 -.707 .707 .707 -8.902 71.294)"/><path d="m126.25 73.428-4.277-4.277-17.607 17.607 21.884 21.884z" fill="#cc825d"/></g></svg>