<svg id="Layer_1" enable-background="new 0 0 256 256" height="512" viewBox="0 0 256 256" width="512" xmlns="http://www.w3.org/2000/svg"><g><path d="m47.411 25.927s3.408 12.659 13.222 13.246c0 0-13.1 4.525-13.321 14.202 0 0-2.579-13.572-12.925-14.059 0 .001 12.05-1.825 13.024-13.389z" fill="#d7e057"/><path d="m47.311 54.875c-.713 0-1.335-.506-1.472-1.217-.024-.124-2.495-12.418-11.523-12.843-.77-.037-1.387-.651-1.427-1.421-.04-.771.511-1.445 1.273-1.561.441-.069 10.894-1.817 11.754-12.032.061-.725.634-1.301 1.359-1.367.731-.057 1.393.399 1.584 1.102.032.116 3.259 11.626 11.863 12.14.714.043 1.298.584 1.396 1.292s-.319 1.388-.994 1.623c-.121.042-12.118 4.311-12.313 12.819-.018.767-.61 1.396-1.374 1.459-.042.005-.085.006-.126.006zm-7.741-15.729c3.878 1.969 6.23 5.746 7.587 8.876 2.026-4.021 5.941-6.787 8.949-8.427-4.134-1.842-6.783-5.651-8.334-8.722-1.794 4.359-5.272 6.868-8.202 8.273z" fill="#3a312a"/><path d="m25.712 42.908s2.411 8.954 9.352 9.369c0 0-9.266 3.201-9.422 10.045 0 0-1.824-9.6-9.142-9.944 0 0 8.524-1.291 9.212-9.47z" fill="#d7e057"/><path d="m25.641 63.822c-.713 0-1.337-.507-1.472-1.22-.016-.082-1.704-8.442-7.739-8.726-.77-.037-1.387-.651-1.427-1.421-.04-.771.511-1.445 1.273-1.561.296-.047 7.364-1.243 7.942-8.113.061-.726.635-1.303 1.36-1.368.726-.067 1.392.399 1.582 1.101.021.079 2.228 7.92 7.994 8.264.715.043 1.299.584 1.396 1.293.098.709-.319 1.388-.996 1.622-.081.028-8.282 2.953-8.413 8.662-.018.767-.611 1.397-1.376 1.461-.041.005-.083.006-.124.006zm-4.519-11.527c2.107 1.333 3.523 3.394 4.447 5.28 1.376-2.232 3.515-3.872 5.365-4.973-2.287-1.269-3.884-3.35-4.941-5.224-1.174 2.287-3.015 3.875-4.871 4.917z" fill="#3a312a"/><path d="m25.712 16.25s2.411 8.954 9.352 9.37c0 0-9.266 3.201-9.422 10.045 0 0-1.824-9.6-9.142-9.944 0 0 8.524-1.292 9.212-9.471z" fill="#d7e057"/><path d="m25.641 37.165c-.713 0-1.337-.507-1.472-1.22-.016-.082-1.704-8.442-7.739-8.726-.771-.037-1.388-.651-1.428-1.421-.04-.771.511-1.445 1.273-1.56.296-.047 7.364-1.243 7.942-8.114.061-.726.635-1.303 1.36-1.368.726-.068 1.392.399 1.582 1.101.021.079 2.228 7.92 7.994 8.265.714.043 1.299.584 1.396 1.293.098.709-.32 1.388-.996 1.622-.081.028-8.282 2.952-8.413 8.662-.018.767-.611 1.397-1.376 1.461-.04.004-.082.005-.123.005zm-4.519-11.528c2.107 1.333 3.523 3.395 4.447 5.28 1.376-2.232 3.515-3.872 5.365-4.972-2.287-1.269-3.884-3.35-4.941-5.224-1.174 2.286-3.015 3.875-4.871 4.916z" fill="#3a312a"/><path d="m222 46.7v52.65l-30.5-27.76v-24.89z" fill="#87796f"/><path d="m222 100.85c-.366 0-.728-.134-1.01-.391l-30.5-27.76c-.313-.284-.49-.687-.49-1.109v-24.89c0-.829.672-1.5 1.5-1.5h30.5c.828 0 1.5.671 1.5 1.5v52.65c0 .594-.351 1.132-.894 1.372-.194.086-.401.128-.606.128zm-29-29.923 27.5 25.03v-47.757h-27.5z" fill="#3a312a"/><path d="m184.5 43.598v-10.946c0-1.711 1.387-3.099 3.099-3.099h38.303c1.711 0 3.099 1.387 3.099 3.099v10.946c0 1.711-1.387 3.099-3.099 3.099h-38.303c-1.712 0-3.099-1.388-3.099-3.099z" fill="#87796f"/><path d="m225.901 48.197h-38.303c-2.536 0-4.599-2.063-4.599-4.599v-10.946c0-2.536 2.062-4.599 4.599-4.599h38.303c2.536 0 4.599 2.063 4.599 4.599v10.946c0 2.536-2.063 4.599-4.599 4.599zm-38.302-17.144c-.882 0-1.599.717-1.599 1.599v10.946c0 .881.717 1.599 1.599 1.599h38.303c.882 0 1.599-.717 1.599-1.599v-10.946c0-.881-.717-1.599-1.599-1.599z" fill="#3a312a"/><path d="m222 108.82v118.64h-188v-118.64l94-85.57z" fill="#fce8cb"/><path d="m222 228.96h-188c-.829 0-1.5-.671-1.5-1.5v-118.64c0-.422.178-.825.49-1.109l94-85.57c.572-.521 1.447-.521 2.02 0l94 85.57c.313.284.49.687.49 1.109v118.64c0 .829-.672 1.5-1.5 1.5zm-186.5-3h185v-116.477l-92.5-84.205-92.5 84.205z" fill="#3a312a"/><path d="m154.5 190.719v36.689c0 .028-.023.051-.051.051h-52.898c-.028 0-.051-.023-.051-.051v-36.048c0-14.581 11.504-26.914 26.084-27.137 7.485-.115 14.265 2.866 19.156 7.757 4.8 4.799 7.76 11.419 7.76 18.739z" fill="#87796f"/><path d="m154.449 228.96h-52.898c-.829 0-1.551-.723-1.551-1.551v-36.049c0-15.558 12.364-28.404 27.561-28.637 7.647-.095 14.838 2.793 20.24 8.196 5.287 5.287 8.199 12.319 8.199 19.8v36.689c0 .829-.723 1.552-1.551 1.552zm-51.449-3h50v-35.24c0-6.68-2.6-12.958-7.32-17.679-4.823-4.824-11.226-7.444-18.073-7.317-13.568.206-24.607 11.707-24.607 25.635z" fill="#3a312a"/><path d="m128 228.96c-.829 0-1.5-.671-1.5-1.5v-63.24c0-.829.671-1.5 1.5-1.5s1.5.671 1.5 1.5v63.24c0 .828-.671 1.5-1.5 1.5z" fill="#3a312a"/><circle cx="128" cy="98.25" fill="#8ac6dd" r="26.875"/><path d="m128 126.625c-15.646 0-28.375-12.729-28.375-28.375s12.729-28.375 28.375-28.375 28.375 12.729 28.375 28.375-12.729 28.375-28.375 28.375zm0-53.75c-13.992 0-25.375 11.383-25.375 25.375s11.383 25.375 25.375 25.375 25.375-11.383 25.375-25.375-11.383-25.375-25.375-25.375z" fill="#3a312a"/><path d="m128 126.625c-.829 0-1.5-.671-1.5-1.5v-53.75c0-.829.671-1.5 1.5-1.5s1.5.671 1.5 1.5v53.75c0 .829-.671 1.5-1.5 1.5z" fill="#3a312a"/><path d="m154.875 99.75h-53.75c-.829 0-1.5-.671-1.5-1.5s.671-1.5 1.5-1.5h53.75c.828 0 1.5.671 1.5 1.5s-.672 1.5-1.5 1.5z" fill="#3a312a"/><path d="m128 34.74-7.5 6.83 85 77.38v107.01h15v-107.01z" fill="#decaad"/><path d="m150.431 239.75h89.069v-2.708c0-5.292-4.29-9.581-9.582-9.581h-203.837c-5.292 0-9.581 4.29-9.581 9.581v2.708h116.069z" fill="#87796f"/><path d="m239.5 241.25h-89.069c-.828 0-1.5-.671-1.5-1.5s.672-1.5 1.5-1.5h87.569v-1.208c0-4.456-3.625-8.081-8.081-8.081h-203.838c-4.456 0-8.081 3.625-8.081 8.081v1.208h114.569c.828 0 1.5.671 1.5 1.5s-.672 1.5-1.5 1.5h-116.069c-.829 0-1.5-.671-1.5-1.5v-2.708c0-6.11 4.971-11.081 11.081-11.081h203.837c6.11 0 11.081 4.971 11.081 11.081v2.708c.001.829-.671 1.5-1.499 1.5z" fill="#3a312a"/><path d="m84.672 53.227-65.743 59.847c-2.859 2.603-3.067 7.03-.465 9.889 2.602 2.858 7.03 3.066 9.889.464l99.647-90.711 99.647 90.71c1.342 1.222 3.028 1.824 4.71 1.824 1.901 0 3.797-.771 5.179-2.288 2.603-2.859 2.395-7.286-.465-9.889l-104.359-95c-2.67-2.432-6.754-2.432-9.424 0l-24.989 22.749z" fill="#ed6e7a"/><path d="m232.357 126.75c-2.12 0-4.151-.787-5.72-2.214l-98.637-89.792-98.638 89.792c-3.466 3.154-8.854 2.902-12.007-.563-1.529-1.679-2.312-3.853-2.205-6.121.106-2.268 1.09-4.359 2.769-5.887l65.743-59.847c.613-.559 1.562-.513 2.119.1.558.613.513 1.562-.1 2.119l-65.743 59.847c-1.087.989-1.723 2.342-1.792 3.809-.069 1.468.438 2.874 1.427 3.96 2.041 2.242 5.527 2.406 7.77.364l99.647-90.711c.572-.521 1.447-.521 2.02 0l99.647 90.711c1.015.924 2.329 1.433 3.7 1.433 1.546 0 3.029-.655 4.069-1.798.989-1.086 1.496-2.492 1.427-3.96-.069-1.467-.705-2.82-1.792-3.809l-104.359-95c-2.111-1.923-5.293-1.922-7.404 0l-24.989 22.748c-.613.558-1.562.513-2.119-.1-.558-.613-.513-1.562.1-2.119l24.989-22.748c3.263-2.97 8.183-2.97 11.443 0l104.359 95c1.679 1.528 2.663 3.619 2.77 5.887.106 2.268-.677 4.441-2.205 6.121-1.609 1.766-3.901 2.778-6.289 2.778z" fill="#3a312a"/><path d="m196.635 173.679h-25.63c-3.515 0-6.365-2.85-6.365-6.365v-25.63c0-3.515 2.85-6.365 6.365-6.365h25.63c3.515 0 6.365 2.85 6.365 6.365v25.63c0 3.516-2.85 6.365-6.365 6.365z" fill="#8ac6dd"/><path d="m196.636 175.179h-25.63c-4.336 0-7.864-3.528-7.864-7.864v-25.63c0-4.337 3.528-7.864 7.864-7.864h25.63c4.336 0 7.864 3.528 7.864 7.864v25.63c0 4.336-3.528 7.864-7.864 7.864zm-25.63-38.358c-2.683 0-4.864 2.182-4.864 4.864v25.63c0 2.682 2.182 4.864 4.864 4.864h25.63c2.683 0 4.864-2.182 4.864-4.864v-25.63c0-2.682-2.182-4.864-4.864-4.864z" fill="#3a312a"/><path d="m183.82 175.179c-.828 0-1.5-.671-1.5-1.5v-38.358c0-.829.672-1.5 1.5-1.5s1.5.671 1.5 1.5v38.358c0 .829-.672 1.5-1.5 1.5z" fill="#3a312a"/><path d="m203 156h-38.358c-.828 0-1.5-.671-1.5-1.5s.672-1.5 1.5-1.5h38.358c.828 0 1.5.671 1.5 1.5s-.672 1.5-1.5 1.5z" fill="#3a312a"/><path d="m70.765 57.437c0-3.003-2.434-5.437-5.437-5.437h-.388c-3.003 0-5.437 2.434-5.437 5.437v116.16h11.261v-116.16z" fill="#87796f"/><path d="m70.765 175.096h-11.261c-.829 0-1.5-.671-1.5-1.5v-116.159c0-3.825 3.112-6.937 6.937-6.937h.388c3.825 0 6.937 3.112 6.937 6.937v116.16c-.001.828-.673 1.499-1.501 1.499zm-9.761-3h8.261v-114.659c0-2.17-1.766-3.937-3.937-3.937h-.388c-2.17 0-3.937 1.766-3.937 3.937v114.659z" fill="#3a312a"/><path d="m91.162 187.723v-6.609c0-4.152-3.366-7.518-7.518-7.518h-37.019c-4.152 0-7.518 3.366-7.518 7.518v6.609z" fill="#d7e057"/><path d="m91.162 189.224h-52.056c-.829 0-1.5-.671-1.5-1.5v-6.609c0-4.973 4.046-9.018 9.019-9.018h37.019c4.973 0 9.019 4.046 9.019 9.018v6.609c-.001.828-.672 1.5-1.501 1.5zm-50.556-3h49.056v-5.109c0-3.319-2.7-6.018-6.019-6.018h-37.018c-3.319 0-6.019 2.7-6.019 6.018z" fill="#3a312a"/><path d="m27.64 227.46 11.465-39.737h52.059l11.464 39.737z" fill="#ed6e7a"/><g fill="#3a312a"><path d="m102.628 228.96h-74.988c-.471 0-.916-.222-1.199-.598-.283-.377-.373-.865-.243-1.318l11.465-39.736c.186-.642.773-1.084 1.441-1.084h52.059c.668 0 1.256.442 1.441 1.084l11.465 39.736c.13.453.041.941-.243 1.318-.282.376-.726.598-1.198.598zm-72.994-3h71l-10.599-36.736h-49.802z"/><path d="m80.084 228.96c-.829 0-1.5-.671-1.5-1.5v-22.032c0-.829.671-1.5 1.5-1.5s1.5.671 1.5 1.5v22.032c0 .829-.671 1.5-1.5 1.5z"/><path d="m65.134 228.96c-.829 0-1.5-.671-1.5-1.5v-22.032c0-.829.671-1.5 1.5-1.5s1.5.671 1.5 1.5v22.032c0 .829-.671 1.5-1.5 1.5z"/><path d="m50.184 228.96c-.829 0-1.5-.671-1.5-1.5v-22.032c0-.829.671-1.5 1.5-1.5s1.5.671 1.5 1.5v22.032c0 .829-.671 1.5-1.5 1.5z"/></g></g></svg>