<svg version="1.1" id="svg1500" xml:space="preserve" width="300" height="300" viewBox="0 0 682.66669 682.66669" xmlns="http://www.w3.org/2000/svg" xmlns:svg="http://www.w3.org/2000/svg" xmlns:xlink="http://www.w3.org/1999/xlink" xmlns:svgjs="http://svgjs.dev/svgjs"><g width="100%" height="100%" transform="matrix(1,0,0,1,0,0)"><defs id="defs1504"><clipPath clipPathUnits="userSpaceOnUse" id="clipPath1530"><path d="M 0,512 H 512 V 0 H 0 Z" id="path1528" fill="#000000" fill-opacity="1" data-original-color="#000000ff" stroke="none" stroke-opacity="1"/></clipPath></defs><g id="g1506" transform="matrix(1.3333333,0,0,-1.3333333,0,682.66667)"><g id="g1508" transform="translate(398.1719,423.2861)"><path d="M 0,0 20,-11.547 40,0 V 23.094 L 20,34.641 0,23.094 Z" style="fill-rule: evenodd;" id="path1510" fill="#faf7f6" fill-opacity="1" data-original-color="#faf7f6ff" stroke="none" stroke-opacity="1"/></g><g id="g1512" transform="translate(270.1714,345.2861)"><path d="M 0,0 V 23.095 L -20,34.642 -40,23.095 V 0 l 20,-11.547 z" style="fill-rule: evenodd;" id="path1514" fill="#faf7f6" fill-opacity="1" data-original-color="#faf7f6ff" stroke="none" stroke-opacity="1"/></g><g id="g1516" transform="translate(357.1719,258.9272)"><path d="m 0,0 -20,-11.547 v -23.094 l 20,-11.547 20,11.547 v 23.094 z" style="fill-rule: evenodd;" id="path1518" fill="#faf7f6" fill-opacity="1" data-original-color="#faf7f6ff" stroke="none" stroke-opacity="1"/></g><g id="g1520" transform="translate(121.2495,78.6875)"><path d="M 0,0 -20,11.547 -35.661,2.505 -40,0 v -23.095 l 20,-11.547 17.342,10.013 2.658,1.534 z" style="fill-rule: evenodd;" id="path1522" fill="#faf7f6" fill-opacity="1" data-original-color="#faf7f6ff" stroke="none" stroke-opacity="1"/></g><g id="g1524"><g id="g1526" clip-path="url(#clipPath1530)"><g id="g1532" transform="translate(101.2495,90.2344)"><path d="m 0,0 20,-11.547 v -23.095 l -2.658,-1.534 c 40.346,-27.787 89.238,-44.058 141.93,-44.058 56.554,0 108.755,18.767 150.716,50.418 42.935,32.385 75.118,78.273 90.235,131.352 1.494,5.264 -0.215,11.144 -4.784,14.735 -6.036,4.745 -14.776,3.698 -19.521,-2.338 -18.153,-23.071 -41.38,-41.921 -67.977,-54.846 -25.613,-12.447 -54.418,-19.43 -84.9,-19.43 -53.682,0 -102.282,21.759 -137.46,56.936 -35.178,35.177 -56.937,83.777 -56.937,137.458 0,30.481 6.982,59.285 19.43,84.899 12.863,26.467 31.594,49.596 54.513,67.711 4.533,3.344 6.751,9.264 5.119,15 -2.102,7.387 -9.795,11.672 -17.183,9.57 -53.079,-15.118 -98.968,-47.3 -131.354,-90.235 -31.651,-41.96 -50.419,-94.16 -50.419,-150.712 0,-69.178 28.042,-131.807 73.378,-177.142 0.732,-0.732 1.47,-1.46 2.211,-2.184 z" style="fill-rule: evenodd;" id="path1534" fill="#8c8787" fill-opacity="1" data-original-color="#ffc144ff" stroke="none" stroke-opacity="1"/></g><g id="g1536" transform="translate(90.6216,444.5913)"><path d="m 0,0 c 28.414,26.239 62.917,45.984 101.151,56.875 7.388,2.101 15.081,-2.184 17.183,-9.571 1.632,-5.736 -0.586,-11.656 -5.119,-15 C 90.296,14.189 71.564,-8.94 58.702,-35.407 c -12.448,-25.614 -19.43,-54.418 -19.43,-84.899 0,-53.681 21.759,-102.281 56.936,-137.458 35.179,-35.177 83.779,-56.936 137.461,-56.936 30.482,0 59.287,6.983 84.9,19.43 26.597,12.925 49.824,31.775 67.977,54.846 4.745,6.036 13.485,7.083 19.521,2.338 4.569,-3.591 6.278,-9.471 4.784,-14.735 -15.117,-53.079 -47.3,-98.967 -90.235,-131.352 -41.961,-31.651 -94.162,-50.418 -150.716,-50.418 -52.63,0 -101.471,16.233 -141.789,43.962 m -35.355,29.414 c -45.336,45.335 -73.378,107.965 -73.378,177.142 0,40.445 9.601,78.663 26.648,112.502" style="stroke-linecap: round; stroke-linejoin: round; stroke-miterlimit: 2.613; stroke-dasharray: none;" id="path1538" fill="none" fill-opacity="1" stroke="#000000" stroke-opacity="1" data-original-stroke-color="#000000ff" stroke-width="20" data-original-stroke-width="20"/></g><g id="g1540" transform="translate(418.1719,457.9272)"><path d="M 0,0 20,-11.547 V -34.641 L 0,-46.188 -20,-34.641 v 23.094 z" style="stroke-linecap: round; stroke-linejoin: round; stroke-miterlimit: 2.613; stroke-dasharray: none;" id="path1542" fill="none" fill-opacity="1" stroke="#000000" stroke-opacity="1" data-original-stroke-color="#000000ff" stroke-width="20" data-original-stroke-width="20"/></g><g id="g1544" transform="translate(357.1719,258.9272)"><path d="M 0,0 20,-11.547 V -34.641 L 0,-46.188 -20,-34.641 v 23.094 z" style="stroke-linecap: round; stroke-linejoin: round; stroke-miterlimit: 2.613; stroke-dasharray: none;" id="path1546" fill="none" fill-opacity="1" stroke="#000000" stroke-opacity="1" data-original-stroke-color="#000000ff" stroke-width="20" data-original-stroke-width="20"/></g><g id="g1548" transform="translate(250.1719,379.9277)"><path d="M 0,0 20,-11.547 V -34.642 L 0,-46.188 -20,-34.642 v 23.095 z" style="stroke-linecap: round; stroke-linejoin: round; stroke-miterlimit: 2.613; stroke-dasharray: none;" id="path1550" fill="none" fill-opacity="1" stroke="#000000" stroke-opacity="1" data-original-stroke-color="#000000ff" stroke-width="20" data-original-stroke-width="20"/></g><g id="g1552" transform="translate(101.2495,90.2344)"><path d="M 0,0 20,-11.547 V -34.642 L 0,-46.188 -20,-34.642 v 23.095 z" style="stroke-linecap: round; stroke-linejoin: round; stroke-miterlimit: 2.613; stroke-dasharray: none;" id="path1554" fill="none" fill-opacity="1" stroke="#000000" stroke-opacity="1" data-original-stroke-color="#000000ff" stroke-width="20" data-original-stroke-width="20"/></g><g id="g1556" transform="translate(84.1641,237.5127)"><path d="M 0,0 H 0.007" style="stroke-linecap: round; stroke-linejoin: round; stroke-miterlimit: 22.926; stroke-dasharray: none;" id="path1558" fill="none" fill-opacity="1" stroke="#000000" stroke-opacity="1" data-original-stroke-color="#000000ff" stroke-width="20" data-original-stroke-width="20"/></g><g id="g1560" transform="translate(255.9927,256.0005)"><path d="M 0,0 H 0.007" style="stroke-linecap: round; stroke-linejoin: round; stroke-miterlimit: 22.926; stroke-dasharray: none;" id="path1562" fill="none" fill-opacity="1" stroke="#000000" stroke-opacity="1" data-original-stroke-color="#000000ff" stroke-width="20" data-original-stroke-width="20"/></g><g id="g1564" transform="translate(322.1641,465.5127)"><path d="M 0,0 H 0.007" style="stroke-linecap: round; stroke-linejoin: round; stroke-miterlimit: 22.926; stroke-dasharray: none;" id="path1566" fill="none" fill-opacity="1" stroke="#000000" stroke-opacity="1" data-original-stroke-color="#000000ff" stroke-width="20" data-original-stroke-width="20"/></g><g id="g1568" transform="translate(422.1641,335.5127)"><path d="M 0,0 H 0.007" style="stroke-linecap: round; stroke-linejoin: round; stroke-miterlimit: 22.926; stroke-dasharray: none;" id="path1570" fill="none" fill-opacity="1" stroke="#000000" stroke-opacity="1" data-original-stroke-color="#000000ff" stroke-width="20" data-original-stroke-width="20"/></g><g id="g1572" transform="translate(230.1641,85.5127)"><path d="M 0,0 H 0.007" style="stroke-linecap: round; stroke-linejoin: round; stroke-miterlimit: 22.926; stroke-dasharray: none;" id="path1574" fill="none" fill-opacity="1" stroke="#000000" stroke-opacity="1" data-original-stroke-color="#000000ff" stroke-width="20" data-original-stroke-width="20"/></g><g id="g1576" transform="translate(60.4185,411.2305)"><path d="M 0,0 H 0.007" style="stroke-linecap: round; stroke-linejoin: round; stroke-miterlimit: 2.613; stroke-dasharray: none;" id="path1578" fill="none" fill-opacity="1" stroke="#000000" stroke-opacity="1" data-original-stroke-color="#000000ff" stroke-width="20" data-original-stroke-width="20"/></g></g></g></g></g></svg>