<svg id="Object" height="512" viewBox="0 0 32 32" width="512" xmlns="http://www.w3.org/2000/svg"><rect fill="#ff6a66" height="16" rx="2" width="16" x="1" y="15"/><path d="m17 17v12a2 2 0 0 1 -2 2h-6v-16h6a2 2 0 0 1 2 2z" fill="#eb675e"/><rect fill="#87cc9c" height="16" rx="2" width="16" x="8" y="8"/><path d="m24 10v12a2 2 0 0 1 -2 2h-6v-16h6a2 2 0 0 1 2 2z" fill="#7bbd91"/><rect fill="#45ace5" height="16" rx="2" width="16" x="15" y="1"/><path d="m31 3v12a2 2 0 0 1 -2 2h-6v-16h6a2 2 0 0 1 2 2z" fill="#3c96d1"/></svg>