<svg viewBox="0 0 511 511" xmlns="http://www.w3.org/2000/svg"><g id="Layer_2" data-name="Layer 2"><g id="Layer_3_copy" data-name="Layer 3 copy"><g id="_18" data-name="18"><rect fill="#fff" height="511" rx="6.25" width="511"/><rect fill="#e4f0fd" height="501" rx="1.25" width="501" x="5" y="5"/><path d="m504.74 509.2a6.21 6.21 0 0 1 -4.41-1.84l-500.33-499.82v-7.54h253.26a6.25 6.25 0 0 1 4.43 1.83l251.48 251.49a6.19 6.19 0 0 1 1.83 4.42v245.2a6.26 6.26 0 0 1 -6.26 6.26z" fill="#fff"/><path d="m506 257.74v245.2a1.25 1.25 0 0 1 -2.13.89l-.65-.65-257.8-257.53-240.42-240.18v-.47h248.26a1.26 1.26 0 0 1 .89.37l251.49 251.49a1.25 1.25 0 0 1 .36.88z" fill="#186979"/><path d="m504.74 261.64a6.2 6.2 0 0 1 -4.41-1.83l-249.14-249.14a6.25 6.25 0 0 1 4.42-10.67h249.14a6.25 6.25 0 0 1 6.25 6.25v249.13a6.26 6.26 0 0 1 -6.26 6.26z" fill="#fff"/><path d="m506 6.25v249.13a1.25 1.25 0 0 1 -2.13.89l-249.15-249.13a1.26 1.26 0 0 1 .89-2.14h249.14a1.25 1.25 0 0 1 1.25 1.25z" fill="#00cd66"/><path d="m7.86 511a6.25 6.25 0 0 1 -4.59-10.49l237.6-257.3a6.27 6.27 0 0 1 4.59-2 6.21 6.21 0 0 1 4.42 1.83l256.9 256.64.68.69a6.25 6.25 0 0 1 -4.46 10.63z" fill="#fff"/><path d="m503 506h-495.14a1.25 1.25 0 0 1 -.92-2.1l237.6-257.29a1.24 1.24 0 0 1 1.8 0l256.87 256.6.68.69a1.25 1.25 0 0 1 -.89 2.1z" fill="#e42a1b"/><path d="m6.26 509.06a6.27 6.27 0 0 1 -6.26-6.26v-494.31a6.25 6.25 0 0 1 10.67-4.42l237.44 237.19a6.23 6.23 0 0 1 .17 8.66l-237.43 257.08a6.3 6.3 0 0 1 -4.59 2.06z" fill="#fff"/><path d="m244.61 246.53-237.44 257.12a1.25 1.25 0 0 1 -2.17-.85v-494.31a1.25 1.25 0 0 1 2.14-.88l237.43 237.19a1.25 1.25 0 0 1 .04 1.73z" fill="#ff8848"/></g></g></g></svg>