<svg xmlns="http://www.w3.org/2000/svg" version="1.1" xmlns:xlink="http://www.w3.org/1999/xlink" xmlns:svgjs="http://svgjs.dev/svgjs" viewBox="0 0 640 800"><g fill="hsl(262, 85%, 25%)" transform="matrix(0.8,0,0,0.8,65.19999999999999,81.09999999999997)"><circle r="0.5" cx="325" cy="400" opacity="1.00"></circle><circle r="0.5" cx="324" cy="404" opacity="1.00"></circle><circle r="0.5" cx="320" cy="407" opacity="1.00"></circle><circle r="0.5" cx="315" cy="406" opacity="1.00"></circle><circle r="0.5" cx="312" cy="401" opacity="0.99"></circle><circle r="0.5" cx="313" cy="395" opacity="0.99"></circle><circle r="0.5" cx="319" cy="391" opacity="0.99"></circle><circle r="0.5" cx="326" cy="392" opacity="0.99"></circle><circle r="0.5" cx="331" cy="398" opacity="0.99"></circle><circle r="0.5" cx="330" cy="406" opacity="0.99"></circle><circle r="0.5" cx="323" cy="412" opacity="0.99"></circle><circle r="0.5" cx="314" cy="412" opacity="0.98"></circle><circle r="1" cx="307" cy="404" opacity="0.98"></circle><circle r="1" cx="307" cy="393" opacity="0.98"></circle><circle r="1" cx="315" cy="385" opacity="0.98"></circle><circle r="1" cx="326" cy="385" opacity="0.98"></circle><circle r="1" cx="336" cy="393" opacity="0.98"></circle><circle r="1" cx="337" cy="406" opacity="0.98"></circle><circle r="1" cx="328" cy="417" opacity="0.97"></circle><circle r="1" cx="314" cy="419" opacity="0.97"></circle><circle r="1" cx="302" cy="410" opacity="0.97"></circle><circle r="1" cx="300" cy="395" opacity="0.97"></circle><circle r="1" cx="308" cy="382" opacity="0.97"></circle><circle r="1" cx="324" cy="378" opacity="0.97"></circle><circle r="1" cx="339" cy="387" opacity="0.96"></circle><circle r="1" cx="344" cy="404" opacity="0.96"></circle><circle r="1" cx="335" cy="420" opacity="0.96"></circle><circle r="1" cx="317" cy="425" opacity="0.96"></circle><circle r="1" cx="300" cy="417" opacity="0.96"></circle><circle r="1" cx="293" cy="399" opacity="0.96"></circle><circle r="1" cx="301" cy="380" opacity="0.96"></circle><circle r="1" cx="320" cy="371" opacity="0.95"></circle><circle r="1" cx="340" cy="379" opacity="0.95"></circle><circle r="1" cx="350" cy="398" opacity="0.95"></circle><circle r="1" cx="343" cy="420" opacity="0.95"></circle><circle r="1" cx="323" cy="431" opacity="0.95"></circle><circle r="1" cx="300" cy="426" opacity="0.95"></circle><circle r="1" cx="287" cy="405" opacity="0.95"></circle><circle r="1" cx="292" cy="381" opacity="0.94"></circle><circle r="1" cx="313" cy="366" opacity="0.94"></circle><circle r="1" cx="339" cy="370" opacity="0.94"></circle><circle r="1" cx="355" cy="391" opacity="0.94"></circle><circle r="1" cx="352" cy="418" opacity="0.94"></circle><circle r="1" cx="331" cy="436" opacity="0.94"></circle><circle r="1" cx="303" cy="435" opacity="0.94"></circle><circle r="1" cx="283" cy="414" opacity="0.93"></circle><circle r="1" cx="283" cy="384" opacity="0.93"></circle><circle r="1" cx="304" cy="363" opacity="0.93"></circle><circle r="1" cx="334" cy="361" opacity="0.93"></circle><circle r="1" cx="358" cy="381" opacity="0.93"></circle><circle r="1" cx="361" cy="413" opacity="0.93"></circle><circle r="1" cx="341" cy="438" opacity="0.93"></circle><circle r="1" cx="309" cy="443" opacity="0.92"></circle><circle r="1" cx="282" cy="424" opacity="0.92"></circle><circle r="1" cx="275" cy="391" opacity="0.92"></circle><circle r="1" cx="293" cy="362" opacity="0.92"></circle><circle r="1" cx="327" cy="353" opacity="0.92"></circle><circle r="1" cx="358" cy="370" opacity="0.92"></circle><circle r="1" cx="369" cy="405" opacity="0.92"></circle><circle r="1" cx="353" cy="438" opacity="0.91"></circle><circle r="1" cx="318" cy="451" opacity="0.91"></circle><circle r="1" cx="283" cy="436" opacity="0.91"></circle><circle r="1" cx="268" cy="400" opacity="0.91"></circle><circle r="1" cx="282" cy="364" opacity="0.91"></circle><circle r="1" cx="317" cy="346" opacity="0.91"></circle><circle r="1" cx="355" cy="359" opacity="0.90"></circle><circle r="1" cx="375" cy="394" opacity="0.90"></circle><circle r="1" cx="364" cy="434" opacity="0.90"></circle><circle r="1" cx="329" cy="456" opacity="0.90"></circle><circle r="1.5" cx="287" cy="447" opacity="0.90"></circle><circle r="1.5" cx="263" cy="412" opacity="0.90"></circle><circle r="1.5" cx="270" cy="369" opacity="0.90"></circle><circle r="1.5" cx="305" cy="342" opacity="0.89"></circle><circle r="1.5" cx="349" cy="347" opacity="0.89"></circle><circle r="1.5" cx="378" cy="381" opacity="0.89"></circle><circle r="1.5" cx="376" cy="427" opacity="0.89"></circle><circle r="1.5" cx="342" cy="459" opacity="0.89"></circle><circle r="1.5" cx="295" cy="458" opacity="0.89"></circle><circle r="1.5" cx="261" cy="426" opacity="0.89"></circle><circle r="1.5" cx="259" cy="378" opacity="0.88"></circle><circle r="1.5" cx="291" cy="341" opacity="0.88"></circle><circle r="1.5" cx="340" cy="336" opacity="0.88"></circle><circle r="1.5" cx="379" cy="367" opacity="0.88"></circle><circle r="1.5" cx="386" cy="417" opacity="0.88"></circle><circle r="1.5" cx="357" cy="458" opacity="0.88"></circle><circle r="1.5" cx="306" cy="468" opacity="0.88"></circle><circle r="1.5" cx="262" cy="441" opacity="0.87"></circle><circle r="1.5" cx="250" cy="390" opacity="0.87"></circle><circle r="1.5" cx="276" cy="343" opacity="0.87"></circle><circle r="1.5" cx="327" cy="328" opacity="0.87"></circle><circle r="1.5" cx="375" cy="352" opacity="0.87"></circle><circle r="1.5" cx="394" cy="403" opacity="0.87"></circle><circle r="1.5" cx="372" cy="454" opacity="0.87"></circle><circle r="1.5" cx="320" cy="476" opacity="0.86"></circle><circle r="1.5" cx="268" cy="456" opacity="0.86"></circle><circle r="1.5" cx="243" cy="404" opacity="0.86"></circle><circle r="1.5" cx="261" cy="350" opacity="0.86"></circle><circle r="1.5" cx="312" cy="322" opacity="0.86"></circle><circle r="1.5" cx="368" cy="337" opacity="0.86"></circle><circle r="1.5" cx="399" cy="387" opacity="0.86"></circle><circle r="1.5" cx="387" cy="446" opacity="0.85"></circle><circle r="1.5" cx="337" cy="480" opacity="0.85"></circle><circle r="1.5" cx="277" cy="470" opacity="0.85"></circle><circle r="1.5" cx="240" cy="421" opacity="0.85"></circle><circle r="1.5" cx="246" cy="360" opacity="0.85"></circle><circle r="1.5" cx="294" cy="319" opacity="0.85"></circle><circle r="1.5" cx="357" cy="323" opacity="0.84"></circle><circle r="1.5" cx="401" cy="369" opacity="0.84"></circle><circle r="1.5" cx="400" cy="434" opacity="0.84"></circle><circle r="1.5" cx="355" cy="480" opacity="0.84"></circle><circle r="1.5" cx="290" cy="483" opacity="0.84"></circle><circle r="1.5" cx="240" cy="440" opacity="0.84"></circle><circle r="1.5" cx="234" cy="374" opacity="0.84"></circle><circle r="1.5" cx="275" cy="321" opacity="0.83"></circle><circle r="1.5" cx="342" cy="311" opacity="0.83"></circle><circle r="1.5" cx="398" cy="351" opacity="0.83"></circle><circle r="1.5" cx="411" cy="418" opacity="0.83"></circle><circle r="1.5" cx="374" cy="477" opacity="0.83"></circle><circle r="1.5" cx="306" cy="494" opacity="0.83"></circle><circle r="1.5" cx="245" cy="459" opacity="0.83"></circle><circle r="1.5" cx="224" cy="391" opacity="0.82"></circle><circle r="1.5" cx="256" cy="327" opacity="0.82"></circle><circle r="1.5" cx="324" cy="302" opacity="0.82"></circle><circle r="1.5" cx="391" cy="332" opacity="0.82"></circle><circle r="1.5" cx="419" cy="399" opacity="0.82"></circle><circle r="1.5" cx="393" cy="468" opacity="0.82"></circle><circle r="1.5" cx="326" cy="501" opacity="0.82"></circle><circle r="2" cx="254" cy="478" opacity="0.81"></circle><circle r="2" cx="218" cy="411" opacity="0.81"></circle><circle r="2" cx="238" cy="338" opacity="0.81"></circle><circle r="2" cx="303" cy="298" opacity="0.81"></circle><circle r="2" cx="379" cy="314" opacity="0.81"></circle><circle r="2" cx="423" cy="378" opacity="0.81"></circle><circle r="2" cx="410" cy="455" opacity="0.81"></circle><circle r="2" cx="348" cy="503" opacity="0.80"></circle><circle r="2" cx="269" cy="495" opacity="0.80"></circle><circle r="2" cx="217" cy="433" opacity="0.80"></circle><circle r="2" cx="222" cy="353" opacity="0.80"></circle><circle r="2" cx="281" cy="297" opacity="0.80"></circle><circle r="2" cx="363" cy="298" opacity="0.80"></circle><circle r="2" cx="422" cy="355" opacity="0.79"></circle><circle r="2" cx="426" cy="438" opacity="0.79"></circle><circle r="2" cx="371" cy="501" opacity="0.79"></circle><circle r="2" cx="287" cy="509" opacity="0.79"></circle><circle r="2" cx="220" cy="456" opacity="0.79"></circle><circle r="2" cx="208" cy="372" opacity="0.79"></circle><circle r="2" cx="258" cy="302" opacity="0.79"></circle><circle r="2" cx="342" cy="285" opacity="0.78"></circle><circle r="2" cx="416" cy="332" opacity="0.78"></circle><circle r="2" cx="437" cy="417" opacity="0.78"></circle><circle r="2" cx="394" cy="493" opacity="0.78"></circle><circle r="2" cx="309" cy="519" opacity="0.78"></circle><circle r="2" cx="229" cy="479" opacity="0.78"></circle><circle r="2" cx="199" cy="395" opacity="0.78"></circle><circle r="2" cx="235" cy="312" opacity="0.77"></circle><circle r="2" cx="319" cy="277" opacity="0.77"></circle><circle r="2" cx="404" cy="310" opacity="0.77"></circle><circle r="2" cx="444" cy="392" opacity="0.77"></circle><circle r="2" cx="416" cy="481" opacity="0.77"></circle><circle r="2" cx="334" cy="525" opacity="0.77"></circle><circle r="2" cx="244" cy="501" opacity="0.77"></circle><circle r="2" cx="194" cy="421" opacity="0.76"></circle><circle r="2" cx="214" cy="328" opacity="0.76"></circle><circle r="2" cx="293" cy="274" opacity="0.76"></circle><circle r="2" cx="387" cy="289" opacity="0.76"></circle><circle r="2" cx="446" cy="366" opacity="0.76"></circle><circle r="2" cx="435" cy="462" opacity="0.76"></circle><circle r="2" cx="361" cy="525" opacity="0.76"></circle><circle r="2" cx="263" cy="520" opacity="0.75"></circle><circle r="2" cx="195" cy="448" opacity="0.75"></circle><circle r="2" cx="196" cy="348" opacity="0.75"></circle><circle r="2" cx="265" cy="277" opacity="0.75"></circle><circle r="2" cx="366" cy="272" opacity="0.75"></circle><circle r="2" cx="442" cy="339" opacity="0.75"></circle><circle r="2" cx="451" cy="440" opacity="0.75"></circle><circle r="2" cx="388" cy="520" opacity="0.74"></circle><circle r="2" cx="287" cy="535" opacity="0.74"></circle><circle r="2" cx="202" cy="475" opacity="0.74"></circle><circle r="2" cx="182" cy="373" opacity="0.74"></circle><circle r="2" cx="238" cy="285" opacity="0.74"></circle><circle r="2" cx="340" cy="260" opacity="0.74"></circle><circle r="2" cx="432" cy="311" opacity="0.73"></circle><circle r="2" cx="463" cy="413" opacity="0.73"></circle><circle r="2" cx="415" cy="508" opacity="0.73"></circle><circle r="2.5" cx="314" cy="545" opacity="0.73"></circle><circle r="2.5" cx="216" cy="502" opacity="0.73"></circle><circle r="2.5" cx="174" cy="402" opacity="0.73"></circle><circle r="2.5" cx="212" cy="300" opacity="0.73"></circle><circle r="2.5" cx="311" cy="252" opacity="0.72"></circle><circle r="2.5" cx="415" cy="286" opacity="0.72"></circle><circle r="2.5" cx="468" cy="383" opacity="0.72"></circle><circle r="2.5" cx="440" cy="490" opacity="0.72"></circle><circle r="2.5" cx="345" cy="549" opacity="0.72"></circle><circle r="2.5" cx="235" cy="526" opacity="0.72"></circle><circle r="2.5" cx="171" cy="433" opacity="0.72"></circle><circle r="2.5" cx="189" cy="321" opacity="0.71"></circle><circle r="2.5" cx="280" cy="251" opacity="0.71"></circle><circle r="2.5" cx="393" cy="264" opacity="0.71"></circle><circle r="2.5" cx="468" cy="352" opacity="0.71"></circle><circle r="2.5" cx="461" cy="467" opacity="0.71"></circle><circle r="2.5" cx="376" cy="547" opacity="0.71"></circle><circle r="2.5" cx="260" cy="546" opacity="0.71"></circle><circle r="2.5" cx="175" cy="464" opacity="0.70"></circle><circle r="2.5" cx="170" cy="347" opacity="0.70"></circle><circle r="2.5" cx="248" cy="257" opacity="0.70"></circle><circle r="2.5" cx="366" cy="246" opacity="0.70"></circle><circle r="2.5" cx="460" cy="320" opacity="0.70"></circle><circle r="2.5" cx="478" cy="439" opacity="0.70"></circle><circle r="2.5" cx="408" cy="537" opacity="0.70"></circle><circle r="2.5" cx="289" cy="561" opacity="0.69"></circle><circle r="2.5" cx="186" cy="496" opacity="0.69"></circle><circle r="2.5" cx="156" cy="377" opacity="0.69"></circle><circle r="2.5" cx="217" cy="270" opacity="0.69"></circle><circle r="2.5" cx="335" cy="234" opacity="0.69"></circle><circle r="2.5" cx="446" cy="289" opacity="0.69"></circle><circle r="2.5" cx="488" cy="406" opacity="0.69"></circle><circle r="2.5" cx="438" cy="521" opacity="0.68"></circle><circle r="2.5" cx="322" cy="570" opacity="0.68"></circle><circle r="2.5" cx="204" cy="525" opacity="0.68"></circle><circle r="2.5" cx="149" cy="411" opacity="0.68"></circle><circle r="2.5" cx="188" cy="290" opacity="0.68"></circle><circle r="2.5" cx="300" cy="228" opacity="0.68"></circle><circle r="2.5" cx="424" cy="261" opacity="0.67"></circle><circle r="2.5" cx="492" cy="371" opacity="0.67"></circle><circle r="2.5" cx="465" cy="498" opacity="0.67"></circle><circle r="2.5" cx="358" cy="572" opacity="0.67"></circle><circle r="2.5" cx="229" cy="551" opacity="0.67"></circle><circle r="2.5" cx="149" cy="447" opacity="0.67"></circle><circle r="2.5" cx="163" cy="316" opacity="0.67"></circle><circle r="2.5" cx="264" cy="230" opacity="0.66"></circle><circle r="2.5" cx="397" cy="237" opacity="0.66"></circle><circle r="2.5" cx="488" cy="335" opacity="0.66"></circle><circle r="2.5" cx="488" cy="469" opacity="0.66"></circle><circle r="2.5" cx="394" cy="566" opacity="0.66"></circle><circle r="2.5" cx="259" cy="572" opacity="0.66"></circle><circle r="2.5" cx="156" cy="483" opacity="0.66"></circle><circle r="2.5" cx="143" cy="347" opacity="0.65"></circle><circle r="2.5" cx="228" cy="239" opacity="0.65"></circle><circle r="2.5" cx="364" cy="219" opacity="0.65"></circle><circle r="2.5" cx="477" cy="299" opacity="0.65"></circle><circle r="2.5" cx="504" cy="435" opacity="0.65"></circle><circle r="2.5" cx="430" cy="553" opacity="0.65"></circle><circle r="3" cx="294" cy="587" opacity="0.65"></circle><circle r="3" cx="172" cy="518" opacity="0.64"></circle><circle r="3" cx="130" cy="384" opacity="0.64"></circle><circle r="3" cx="193" cy="257" opacity="0.64"></circle><circle r="3" cx="327" cy="208" opacity="0.64"></circle><circle r="3" cx="458" cy="265" opacity="0.64"></circle><circle r="3" cx="513" cy="397" opacity="0.64"></circle><circle r="3" cx="463" cy="532" opacity="0.64"></circle><circle r="3" cx="333" cy="595" opacity="0.63"></circle><circle r="3" cx="195" cy="551" opacity="0.63"></circle><circle r="3" cx="125" cy="423" opacity="0.63"></circle><circle r="3" cx="162" cy="282" opacity="0.63"></circle><circle r="3" cx="287" cy="205" opacity="0.63"></circle><circle r="3" cx="431" cy="235" opacity="0.63"></circle><circle r="3" cx="515" cy="357" opacity="0.63"></circle><circle r="3" cx="492" cy="503" opacity="0.62"></circle><circle r="3" cx="374" cy="594" opacity="0.62"></circle><circle r="3" cx="225" cy="578" opacity="0.62"></circle><circle r="3" cx="128" cy="464" opacity="0.62"></circle><circle r="3" cx="136" cy="313" opacity="0.62"></circle><circle r="3" cx="246" cy="210" opacity="0.62"></circle><circle r="3" cx="398" cy="210" opacity="0.61"></circle><circle r="3" cx="508" cy="316" opacity="0.61"></circle><circle r="3" cx="515" cy="468" opacity="0.61"></circle><circle r="3" cx="414" cy="584" opacity="0.61"></circle><circle r="3" cx="261" cy="599" opacity="0.61"></circle><circle r="3" cx="139" cy="504" opacity="0.61"></circle><circle r="3" cx="116" cy="351" opacity="0.61"></circle><circle r="3" cx="206" cy="224" opacity="0.60"></circle><circle r="3" cx="359" cy="193" opacity="0.60"></circle><circle r="3" cx="492" cy="276" opacity="0.60"></circle><circle r="3" cx="531" cy="429" opacity="0.60"></circle><circle r="3" cx="453" cy="566" opacity="0.60"></circle><circle r="3" cx="302" cy="613" opacity="0.60"></circle><circle r="3" cx="159" cy="543" opacity="0.60"></circle><circle r="3" cx="105" cy="393" opacity="0.59"></circle><circle r="3" cx="168" cy="246" opacity="0.59"></circle><circle r="3" cx="316" cy="183" opacity="0.59"></circle><circle r="3" cx="467" cy="240" opacity="0.59"></circle><circle r="3" cx="538" cy="385" opacity="0.59"></circle><circle r="3" cx="489" cy="540" opacity="0.59"></circle><circle r="3" cx="346" cy="619" opacity="0.59"></circle><circle r="3" cx="188" cy="577" opacity="0.58"></circle><circle r="3" cx="102" cy="437" opacity="0.58"></circle><circle r="3" cx="135" cy="276" opacity="0.58"></circle><circle r="3" cx="271" cy="182" opacity="0.58"></circle><circle r="3" cx="435" cy="208" opacity="0.58"></circle><circle r="3" cx="536" cy="340" opacity="0.58"></circle><circle r="3" cx="519" cy="506" opacity="0.58"></circle><circle r="3" cx="392" cy="615" opacity="0.57"></circle><circle r="3" cx="224" cy="606" opacity="0.57"></circle><circle r="3" cx="108" cy="483" opacity="0.57"></circle><circle r="3" cx="108" cy="314" opacity="0.57"></circle><circle r="3" cx="226" cy="191" opacity="0.57"></circle><circle r="3" cx="396" cy="183" opacity="0.57"></circle><circle r="3" cx="525" cy="295" opacity="0.57"></circle><circle r="3" cx="542" cy="465" opacity="0.56"></circle><circle r="3.5" cx="436" cy="601" opacity="0.56"></circle><circle r="3.5" cx="266" cy="627" opacity="0.56"></circle><circle r="3.5" cx="124" cy="527" opacity="0.56"></circle><circle r="3.5" cx="89" cy="357" opacity="0.56"></circle><circle r="3.5" cx="182" cy="209" opacity="0.56"></circle><circle r="3.5" cx="351" cy="166" opacity="0.55"></circle><circle r="3.5" cx="504" cy="251" opacity="0.55"></circle><circle r="3.5" cx="557" cy="419" opacity="0.55"></circle><circle r="3.5" cx="479" cy="578" opacity="0.55"></circle><circle r="3.5" cx="313" cy="639" opacity="0.55"></circle><circle r="3.5" cx="149" cy="569" opacity="0.55"></circle><circle r="3.5" cx="79" cy="405" opacity="0.55"></circle><circle r="3.5" cx="142" cy="237" opacity="0.54"></circle><circle r="3.5" cx="303" cy="158" opacity="0.54"></circle><circle r="3.5" cx="475" cy="213" opacity="0.54"></circle><circle r="3.5" cx="562" cy="371" opacity="0.54"></circle><circle r="3.5" cx="516" cy="546" opacity="0.54"></circle><circle r="3.5" cx="362" cy="642" opacity="0.54"></circle><circle r="3.5" cx="184" cy="605" opacity="0.54"></circle><circle r="3.5" cx="79" cy="454" opacity="0.53"></circle><circle r="3.5" cx="107" cy="273" opacity="0.53"></circle><circle r="3.5" cx="253" cy="161" opacity="0.53"></circle><circle r="3.5" cx="436" cy="180" opacity="0.53"></circle><circle r="3.5" cx="557" cy="320" opacity="0.53"></circle><circle r="3.5" cx="547" cy="506" opacity="0.53"></circle><circle r="3.5" cx="412" cy="634" opacity="0.53"></circle><circle r="3.5" cx="225" cy="634" opacity="0.52"></circle><circle r="3.5" cx="90" cy="504" opacity="0.52"></circle><circle r="3.5" cx="81" cy="317" opacity="0.52"></circle><circle r="3.5" cx="203" cy="174" opacity="0.52"></circle><circle r="3.5" cx="391" cy="155" opacity="0.52"></circle><circle r="3.5" cx="541" cy="271" opacity="0.52"></circle><circle r="3.5" cx="570" cy="459" opacity="0.52"></circle><circle r="3.5" cx="461" cy="615" opacity="0.51"></circle><circle r="3.5" cx="273" cy="654" opacity="0.51"></circle><circle r="3.5" cx="111" cy="552" opacity="0.51"></circle><circle r="3.5" cx="63" cy="366" opacity="0.51"></circle><circle r="3.5" cx="156" cy="198" opacity="0.51"></circle><circle r="3.5" cx="341" cy="140" opacity="0.51"></circle><circle r="3.5" cx="515" cy="225" opacity="0.50"></circle><circle r="3.5" cx="583" cy="408" opacity="0.50"></circle><circle r="3.5" cx="506" cy="587" opacity="0.50"></circle><circle r="3.5" cx="326" cy="664" opacity="0.50"></circle><circle r="3.5" cx="142" cy="596" opacity="0.50"></circle><circle r="3.5" cx="55" cy="419" opacity="0.50"></circle><circle r="3.5" cx="114" cy="231" opacity="0.50"></circle><circle r="3.5" cx="287" cy="135" opacity="0.49"></circle><circle r="3.5" cx="479" cy="185" opacity="0.49"></circle><circle r="3.5" cx="585" cy="354" opacity="0.49"></circle><circle r="3.5" cx="544" cy="549" opacity="0.49"></circle><circle r="3.5" cx="380" cy="663" opacity="0.49"></circle><circle r="3.5" cx="182" cy="633" opacity="0.49"></circle><circle r="3.5" cx="58" cy="474" opacity="0.49"></circle><circle r="3.5" cx="79" cy="273" opacity="0.48"></circle><circle r="3.5" cx="232" cy="141" opacity="0.48"></circle><circle r="3.5" cx="435" cy="151" opacity="0.48"></circle><circle r="3.5" cx="576" cy="299" opacity="0.48"></circle><circle r="3.5" cx="576" cy="503" opacity="0.48"></circle><circle r="4" cx="435" cy="651" opacity="0.48"></circle><circle r="4" cx="230" cy="662" opacity="0.48"></circle><circle r="4" cx="73" cy="528" opacity="0.47"></circle><circle r="4" cx="52" cy="323" opacity="0.47"></circle><circle r="4" cx="179" cy="159" opacity="0.47"></circle><circle r="4" cx="384" cy="127" opacity="0.47"></circle><circle r="4" cx="555" cy="246" opacity="0.47"></circle><circle r="4" cx="597" cy="450" opacity="0.47"></circle><circle r="4" cx="487" cy="628" opacity="0.47"></circle><circle r="4" cx="284" cy="681" opacity="0.46"></circle><circle r="4" cx="100" cy="579" opacity="0.46"></circle><circle r="4" cx="36" cy="378" opacity="0.46"></circle><circle r="4" cx="129" cy="188" opacity="0.46"></circle><circle r="4" cx="328" cy="114" opacity="0.46"></circle><circle r="4" cx="523" cy="198" opacity="0.46"></circle><circle r="4" cx="608" cy="393" opacity="0.46"></circle><circle r="4" cx="534" cy="594" opacity="0.45"></circle><circle r="4" cx="341" cy="688" opacity="0.45"></circle><circle r="4" cx="136" cy="624" opacity="0.45"></circle><circle r="4" cx="32" cy="436" opacity="0.45"></circle><circle r="4" cx="85" cy="227" opacity="0.45"></circle><circle r="4" cx="269" cy="112" opacity="0.45"></circle><circle r="4" cx="482" cy="156" opacity="0.44"></circle><circle r="4" cx="606" cy="334" opacity="0.44"></circle><circle r="4" cx="574" cy="550" opacity="0.44"></circle><circle r="4" cx="401" cy="684" opacity="0.44"></circle><circle r="4" cx="183" cy="662" opacity="0.44"></circle><circle r="4" cx="39" cy="496" opacity="0.44"></circle><circle r="4" cx="50" cy="275" opacity="0.44"></circle><circle r="4" cx="210" cy="123" opacity="0.43"></circle><circle r="4" cx="431" cy="122" opacity="0.43"></circle><circle r="4" cx="593" cy="275" opacity="0.43"></circle><circle r="4" cx="604" cy="498" opacity="0.43"></circle><circle r="4" cx="459" cy="667" opacity="0.43"></circle><circle r="4" cx="237" cy="690" opacity="0.43"></circle><circle r="4" cx="59" cy="553" opacity="0.43"></circle><circle r="4" cx="24" cy="331" opacity="0.42"></circle><circle r="4" cx="153" cy="146" opacity="0.42"></circle><circle r="4" cx="374" cy="100" opacity="0.42"></circle><circle r="4" cx="567" cy="219" opacity="0.42"></circle><circle r="4" cx="624" cy="439" opacity="0.42"></circle><circle r="4" cx="514" cy="638" opacity="0.42"></circle><circle r="4" cx="297" cy="707" opacity="0.42"></circle><circle r="4" cx="91" cy="607" opacity="0.41"></circle><circle r="4" cx="10" cy="392" opacity="0.41"></circle><circle r="4" cx="100" cy="180" opacity="0.41"></circle><circle r="4" cx="312" cy="89" opacity="0.41"></circle><circle r="4" cx="529" cy="168" opacity="0.41"></circle><circle r="4" cx="632" cy="376" opacity="0.41"></circle><circle r="4" cx="563" cy="598" opacity="0.41"></circle><circle r="4" cx="360" cy="712" opacity="0.40"></circle><circle r="4" cx="134" cy="654" opacity="0.40"></circle><circle r="4" cx="9" cy="456" opacity="0.40"></circle><circle r="4" cx="56" cy="226" opacity="0.40"></circle><circle r="4" cx="248" cy="91" opacity="0.40"></circle><circle r="4" cx="481" cy="126" opacity="0.40"></circle><circle r="4" cx="627" cy="312" opacity="0.40"></circle><circle r="4.5" cx="603" cy="548" opacity="0.39"></circle><circle r="4.5" cx="424" cy="703" opacity="0.39"></circle><circle r="4.5" cx="186" cy="692" opacity="0.39"></circle><circle r="4.5" cx="21" cy="520" opacity="0.39"></circle><circle r="4.5" cx="20" cy="281" opacity="0.39"></circle><circle r="4.5" cx="185" cy="106" opacity="0.39"></circle><circle r="4.5" cx="425" cy="93" opacity="0.38"></circle><circle r="4.5" cx="608" cy="249" opacity="0.38"></circle><circle r="4.5" cx="633" cy="489" opacity="0.38"></circle><circle r="4.5" cx="486" cy="681" opacity="0.38"></circle><circle r="4.5" cx="246" cy="719" opacity="0.38"></circle><circle r="4.5" cx="46" cy="581" opacity="0.38"></circle><circle r="4.5" cx="-4" cy="342" opacity="0.38"></circle><circle r="4.5" cx="125" cy="135" opacity="0.37"></circle><circle r="4.5" cx="361" cy="72" opacity="0.37"></circle><circle r="4.5" cx="576" cy="190" opacity="0.37"></circle><circle r="4.5" cx="651" cy="425" opacity="0.37"></circle><circle r="4.5" cx="543" cy="646" opacity="0.37"></circle><circle r="4.5" cx="312" cy="733" opacity="0.37"></circle><circle r="4.5" cx="84" cy="637" opacity="0.37"></circle><circle r="4.5" cx="-15" cy="409" opacity="0.36"></circle><circle r="4.5" cx="71" cy="176" opacity="0.36"></circle><circle r="4.5" cx="294" cy="65" opacity="0.36"></circle><circle r="4.5" cx="532" cy="138" opacity="0.36"></circle><circle r="4.5" cx="655" cy="357" opacity="0.36"></circle><circle r="4.5" cx="593" cy="600" opacity="0.36"></circle><circle r="4.5" cx="381" cy="734" opacity="0.36"></circle><circle r="4.5" cx="133" cy="684" opacity="0.35"></circle><circle r="4.5" cx="-12" cy="478" opacity="0.35"></circle><circle r="4.5" cx="25" cy="227" opacity="0.35"></circle><circle r="4.5" cx="225" cy="71" opacity="0.35"></circle><circle r="4.5" cx="478" cy="95" opacity="0.35"></circle><circle r="4.5" cx="645" cy="288" opacity="0.35"></circle><circle r="4.5" cx="634" cy="543" opacity="0.35"></circle><circle r="4.5" cx="449" cy="720" opacity="0.34"></circle><circle r="4.5" cx="192" cy="722" opacity="0.34"></circle><circle r="4.5" cx="5" cy="546" opacity="0.34"></circle><circle r="4.5" cx="-9" cy="288" opacity="0.34"></circle><circle r="4.5" cx="158" cy="92" opacity="0.34"></circle><circle r="4.5" cx="415" cy="64" opacity="0.34"></circle><circle r="4.5" cx="621" cy="221" opacity="0.34"></circle><circle r="4.5" cx="662" cy="478" opacity="0.33"></circle><circle r="4.5" cx="514" cy="693" opacity="0.33"></circle><circle r="4.5" cx="259" cy="747" opacity="0.33"></circle><circle r="4.5" cx="36" cy="610" opacity="0.33"></circle><circle r="4.5" cx="-31" cy="357" opacity="0.33"></circle><circle r="4.5" cx="95" cy="126" opacity="0.33"></circle><circle r="4.5" cx="346" cy="46" opacity="0.32"></circle><circle r="4.5" cx="583" cy="160" opacity="0.32"></circle><circle r="4.5" cx="677" cy="408" opacity="0.32"></circle><circle r="4.5" cx="574" cy="652" opacity="0.32"></circle><circle r="4.5" cx="330" cy="758" opacity="0.32"></circle><circle r="4.5" cx="80" cy="667" opacity="0.32"></circle><circle r="4.5" cx="-39" cy="429" opacity="0.32"></circle><circle r="4.5" cx="40" cy="173" opacity="0.31"></circle><circle r="4.5" cx="273" cy="42" opacity="0.31"></circle><circle r="4.5" cx="533" cy="107" opacity="0.31"></circle><circle r="5" cx="677" cy="334" opacity="0.31"></circle><circle r="5" cx="625" cy="599" opacity="0.31"></circle><circle r="5" cx="404" cy="755" opacity="0.31"></circle><circle r="5" cx="136" cy="716" opacity="0.31"></circle><circle r="5" cx="-31" cy="502" opacity="0.30"></circle><circle r="5" cx="-6" cy="232" opacity="0.30"></circle><circle r="5" cx="200" cy="53" opacity="0.30"></circle><circle r="5" cx="472" cy="65" opacity="0.30"></circle><circle r="5" cx="662" cy="261" opacity="0.30"></circle><circle r="5" cx="664" cy="536" opacity="0.30"></circle><circle r="5" cx="476" cy="736" opacity="0.30"></circle><circle r="5" cx="202" cy="752" opacity="0.29"></circle><circle r="5" cx="-9" cy="574" opacity="0.29"></circle><circle r="5" cx="-39" cy="299" opacity="0.29"></circle><circle r="5" cx="129" cy="79" opacity="0.29"></circle><circle r="5" cx="403" cy="35" opacity="0.29"></circle><circle r="5" cx="632" cy="192" opacity="0.29"></circle><circle r="5" cx="690" cy="464" opacity="0.29"></circle><circle r="5" cx="545" cy="702" opacity="0.28"></circle><circle r="5" cx="274" cy="775" opacity="0.28"></circle><circle r="5" cx="28" cy="641" opacity="0.28"></circle><circle r="5" cx="-58" cy="373" opacity="0.28"></circle><circle r="5" cx="64" cy="120" opacity="0.28"></circle><circle r="5" cx="327" cy="20" opacity="0.28"></circle><circle r="5" cx="588" cy="129" opacity="0.28"></circle><circle r="5" cx="702" cy="388" opacity="0.27"></circle><circle r="5" cx="605" cy="655" opacity="0.27"></circle><circle r="5" cx="351" cy="782" opacity="0.27"></circle><circle r="5" cx="79" cy="699" opacity="0.27"></circle><circle r="5" cx="-62" cy="451" opacity="0.27"></circle><circle r="5" cx="8" cy="174" opacity="0.27"></circle><circle r="5" cx="249" cy="20" opacity="0.26"></circle><circle r="5" cx="531" cy="75" opacity="0.26"></circle><circle r="5" cx="697" cy="310" opacity="0.26"></circle><circle r="5" cx="656" cy="595" opacity="0.26"></circle><circle r="5" cx="430" cy="774" opacity="0.26"></circle><circle r="5" cx="142" cy="747" opacity="0.26"></circle><circle r="5" cx="-49" cy="529" opacity="0.26"></circle><circle r="5" cx="-37" cy="239" opacity="0.25"></circle><circle r="5" cx="172" cy="36" opacity="0.25"></circle><circle r="5" cx="463" cy="34" opacity="0.25"></circle><circle r="5" cx="677" cy="233" opacity="0.25"></circle><circle r="5" cx="695" cy="525" opacity="0.25"></circle><circle r="5" cx="506" cy="749" opacity="0.25"></circle><circle r="5" cx="214" cy="782" opacity="0.25"></circle><circle r="5" cx="-21" cy="604" opacity="0.24"></circle><circle r="5" cx="-68" cy="313" opacity="0.24"></circle><circle r="5" cx="98" cy="69" opacity="0.24"></circle><circle r="5" cx="388" cy="6" opacity="0.24"></circle><circle r="5" cx="641" cy="161" opacity="0.24"></circle><circle r="5" cx="718" cy="448" opacity="0.24"></circle><circle r="5" cx="576" cy="709" opacity="0.24"></circle><circle r="5" cx="292" cy="802" opacity="0.23"></circle><circle r="5" cx="23" cy="673" opacity="0.23"></circle><circle r="5" cx="-84" cy="393" opacity="0.23"></circle><circle r="5" cx="32" cy="116" opacity="0.23"></circle><circle r="5" cx="307" cy="-5" opacity="0.23"></circle><circle r="5" cx="590" cy="96" opacity="0.23"></circle><circle r="5.5" cx="726" cy="366" opacity="0.23"></circle><circle r="5.5" cx="638" cy="655" opacity="0.22"></circle><circle r="5.5" cx="375" cy="805" opacity="0.22"></circle><circle r="5.5" cx="80" cy="732" opacity="0.22"></circle><circle r="5.5" cx="-83" cy="476" opacity="0.22"></circle><circle r="5.5" cx="-25" cy="177" opacity="0.22"></circle><circle r="5.5" cx="224" cy="0" opacity="0.22"></circle><circle r="5.5" cx="526" cy="43" opacity="0.21"></circle><circle r="5.5" cx="716" cy="283" opacity="0.21"></circle><circle r="5.5" cx="688" cy="589" opacity="0.21"></circle><circle r="5.5" cx="457" cy="791" opacity="0.21"></circle><circle r="5.5" cx="150" cy="779" opacity="0.21"></circle><circle r="5.5" cx="-65" cy="558" opacity="0.21"></circle><circle r="5.5" cx="-69" cy="249" opacity="0.21"></circle><circle r="5.5" cx="142" cy="22" opacity="0.20"></circle><circle r="5.5" cx="452" cy="3" opacity="0.20"></circle><circle r="5.5" cx="690" cy="203" opacity="0.20"></circle><circle r="5.5" cx="725" cy="512" opacity="0.20"></circle><circle r="5.5" cx="537" cy="761" opacity="0.20"></circle><circle r="5.5" cx="228" cy="811" opacity="0.20"></circle><circle r="5.5" cx="-30" cy="636" opacity="0.20"></circle><circle r="5.5" cx="-97" cy="329" opacity="0.19"></circle><circle r="5.5" cx="66" cy="61" opacity="0.19"></circle><circle r="5.5" cx="370" cy="-22" opacity="0.19"></circle><circle r="5.5" cx="647" cy="128" opacity="0.19"></circle><circle r="5.5" cx="745" cy="428" opacity="0.19"></circle><circle r="5.5" cx="609" cy="714" opacity="0.19"></circle><circle r="5.5" cx="313" cy="828" opacity="0.19"></circle><circle r="5.5" cx="20" cy="706" opacity="0.18"></circle><circle r="5.5" cx="-109" cy="415" opacity="0.18"></circle><circle r="5.5" cx="-2" cy="115" opacity="0.18"></circle><circle r="5.5" cx="283" cy="-29" opacity="0.18"></circle><circle r="5.5" cx="589" cy="63" opacity="0.18"></circle><circle r="5.5" cx="748" cy="341" opacity="0.18"></circle><circle r="5.5" cx="671" cy="653" opacity="0.18"></circle><circle r="5.5" cx="401" cy="826" opacity="0.17"></circle><circle r="5.5" cx="85" cy="765" opacity="0.17"></circle><circle r="5.5" cx="-103" cy="503" opacity="0.17"></circle><circle r="5.5" cx="-58" cy="183" opacity="0.17"></circle><circle r="5.5" cx="196" cy="-19" opacity="0.17"></circle><circle r="5.5" cx="519" cy="10" opacity="0.17"></circle><circle r="5.5" cx="733" cy="254" opacity="0.17"></circle><circle r="5.5" cx="721" cy="579" opacity="0.16"></circle><circle r="5.5" cx="487" cy="807" opacity="0.16"></circle><circle r="5.5" cx="161" cy="811" opacity="0.16"></circle><circle r="5.5" cx="-79" cy="588" opacity="0.16"></circle><circle r="5.5" cx="-100" cy="262" opacity="0.16"></circle><circle r="5.5" cx="111" cy="10" opacity="0.16"></circle><circle r="5.5" cx="437" cy="-28" opacity="0.15"></circle><circle r="5.5" cx="700" cy="170" opacity="0.15"></circle><circle r="5.5" cx="755" cy="496" opacity="0.15"></circle><circle r="5.5" cx="569" cy="769" opacity="0.15"></circle><circle r="5.5" cx="246" cy="840" opacity="0.15"></circle><circle r="5.5" cx="-38" cy="669" opacity="0.15"></circle><circle r="5.5" cx="-125" cy="348" opacity="0.15"></circle><circle r="5.5" cx="32" cy="55" opacity="0.14"></circle><circle r="5.5" cx="349" cy="-49" opacity="0.14"></circle><circle r="6" cx="651" cy="94" opacity="0.14"></circle><circle r="6" cx="771" cy="406" opacity="0.14"></circle><circle r="6" cx="643" cy="716" opacity="0.14"></circle><circle r="6" cx="337" cy="852" opacity="0.14"></circle><circle r="6" cx="20" cy="740" opacity="0.14"></circle><circle r="6" cx="-132" cy="440" opacity="0.13"></circle><circle r="6" cx="-36" cy="117" opacity="0.13"></circle><circle r="6" cx="257" cy="-51" opacity="0.13"></circle><circle r="6" cx="586" cy="29" opacity="0.13"></circle><circle r="6" cx="769" cy="314" opacity="0.13"></circle><circle r="6" cx="705" cy="647" opacity="0.13"></circle><circle r="6" cx="429" cy="846" opacity="0.13"></circle><circle r="6" cx="92" cy="799" opacity="0.12"></circle><circle r="6" cx="-121" cy="532" opacity="0.12"></circle><circle r="6" cx="-91" cy="192" opacity="0.12"></circle><circle r="6" cx="165" cy="-35" opacity="0.12"></circle><circle r="6" cx="508" cy="-23" opacity="0.12"></circle><circle r="6" cx="748" cy="223" opacity="0.12"></circle><circle r="6" cx="753" cy="567" opacity="0.12"></circle><circle r="6" cx="519" cy="820" opacity="0.11"></circle><circle r="6" cx="175" cy="842" opacity="0.11"></circle><circle r="6" cx="-91" cy="621" opacity="0.11"></circle><circle r="6" cx="-131" cy="277" opacity="0.11"></circle><circle r="6" cx="77" cy="0" opacity="0.11"></circle><circle r="6" cx="420" cy="-58" opacity="0.11"></circle><circle r="6" cx="709" cy="137" opacity="0.11"></circle><circle r="6" cx="784" cy="477" opacity="0.10"></circle><circle r="6" cx="604" cy="776" opacity="0.10"></circle><circle r="6" cx="267" cy="869" opacity="0.10"></circle></g></svg>