<svg xmlns="http://www.w3.org/2000/svg" version="1.1" xmlns:xlink="http://www.w3.org/1999/xlink" xmlns:svgjs="http://svgjs.dev/svgjs" viewBox="0 0 1422 800"><g fill="hsl(262, 85%, 25%)" transform="matrix(0.8,0,0,0.8,143.39999999999998,81.09999999999997)"><circle r="0.5" cx="716" cy="400" opacity="1.00"></circle><circle r="0.5" cx="715" cy="404" opacity="1.00"></circle><circle r="0.5" cx="711" cy="407" opacity="1.00"></circle><circle r="0.5" cx="706" cy="406" opacity="1.00"></circle><circle r="0.5" cx="703" cy="401" opacity="0.99"></circle><circle r="0.5" cx="704" cy="395" opacity="0.99"></circle><circle r="0.5" cx="710" cy="391" opacity="0.99"></circle><circle r="0.5" cx="717" cy="392" opacity="0.99"></circle><circle r="0.5" cx="722" cy="398" opacity="0.99"></circle><circle r="0.5" cx="721" cy="406" opacity="0.99"></circle><circle r="0.5" cx="714" cy="412" opacity="0.99"></circle><circle r="0.5" cx="705" cy="412" opacity="0.98"></circle><circle r="1" cx="698" cy="404" opacity="0.98"></circle><circle r="1" cx="698" cy="393" opacity="0.98"></circle><circle r="1" cx="706" cy="385" opacity="0.98"></circle><circle r="1" cx="717" cy="385" opacity="0.98"></circle><circle r="1" cx="727" cy="393" opacity="0.98"></circle><circle r="1" cx="728" cy="406" opacity="0.98"></circle><circle r="1" cx="719" cy="417" opacity="0.97"></circle><circle r="1" cx="705" cy="419" opacity="0.97"></circle><circle r="1" cx="693" cy="410" opacity="0.97"></circle><circle r="1" cx="691" cy="395" opacity="0.97"></circle><circle r="1" cx="699" cy="382" opacity="0.97"></circle><circle r="1" cx="715" cy="378" opacity="0.97"></circle><circle r="1" cx="730" cy="387" opacity="0.96"></circle><circle r="1" cx="735" cy="404" opacity="0.96"></circle><circle r="1" cx="726" cy="420" opacity="0.96"></circle><circle r="1" cx="708" cy="425" opacity="0.96"></circle><circle r="1" cx="691" cy="417" opacity="0.96"></circle><circle r="1" cx="684" cy="399" opacity="0.96"></circle><circle r="1" cx="692" cy="380" opacity="0.96"></circle><circle r="1" cx="711" cy="371" opacity="0.95"></circle><circle r="1" cx="731" cy="379" opacity="0.95"></circle><circle r="1" cx="741" cy="398" opacity="0.95"></circle><circle r="1" cx="734" cy="420" opacity="0.95"></circle><circle r="1" cx="714" cy="431" opacity="0.95"></circle><circle r="1" cx="691" cy="426" opacity="0.95"></circle><circle r="1" cx="678" cy="405" opacity="0.95"></circle><circle r="1" cx="683" cy="381" opacity="0.94"></circle><circle r="1" cx="704" cy="366" opacity="0.94"></circle><circle r="1" cx="730" cy="370" opacity="0.94"></circle><circle r="1" cx="746" cy="391" opacity="0.94"></circle><circle r="1" cx="743" cy="418" opacity="0.94"></circle><circle r="1" cx="722" cy="436" opacity="0.94"></circle><circle r="1" cx="694" cy="435" opacity="0.94"></circle><circle r="1" cx="674" cy="414" opacity="0.93"></circle><circle r="1" cx="674" cy="384" opacity="0.93"></circle><circle r="1" cx="695" cy="363" opacity="0.93"></circle><circle r="1" cx="725" cy="361" opacity="0.93"></circle><circle r="1" cx="749" cy="381" opacity="0.93"></circle><circle r="1" cx="752" cy="413" opacity="0.93"></circle><circle r="1" cx="732" cy="438" opacity="0.93"></circle><circle r="1" cx="700" cy="443" opacity="0.92"></circle><circle r="1" cx="673" cy="424" opacity="0.92"></circle><circle r="1" cx="666" cy="391" opacity="0.92"></circle><circle r="1" cx="684" cy="362" opacity="0.92"></circle><circle r="1" cx="718" cy="353" opacity="0.92"></circle><circle r="1" cx="749" cy="370" opacity="0.92"></circle><circle r="1" cx="760" cy="405" opacity="0.92"></circle><circle r="1" cx="744" cy="438" opacity="0.91"></circle><circle r="1" cx="709" cy="451" opacity="0.91"></circle><circle r="1" cx="674" cy="436" opacity="0.91"></circle><circle r="1" cx="659" cy="400" opacity="0.91"></circle><circle r="1" cx="673" cy="364" opacity="0.91"></circle><circle r="1" cx="708" cy="346" opacity="0.91"></circle><circle r="1" cx="746" cy="359" opacity="0.90"></circle><circle r="1" cx="766" cy="394" opacity="0.90"></circle><circle r="1" cx="755" cy="434" opacity="0.90"></circle><circle r="1" cx="720" cy="456" opacity="0.90"></circle><circle r="1.5" cx="678" cy="447" opacity="0.90"></circle><circle r="1.5" cx="654" cy="412" opacity="0.90"></circle><circle r="1.5" cx="661" cy="369" opacity="0.90"></circle><circle r="1.5" cx="696" cy="342" opacity="0.89"></circle><circle r="1.5" cx="740" cy="347" opacity="0.89"></circle><circle r="1.5" cx="769" cy="381" opacity="0.89"></circle><circle r="1.5" cx="767" cy="427" opacity="0.89"></circle><circle r="1.5" cx="733" cy="459" opacity="0.89"></circle><circle r="1.5" cx="686" cy="458" opacity="0.89"></circle><circle r="1.5" cx="652" cy="426" opacity="0.89"></circle><circle r="1.5" cx="650" cy="378" opacity="0.88"></circle><circle r="1.5" cx="682" cy="341" opacity="0.88"></circle><circle r="1.5" cx="731" cy="336" opacity="0.88"></circle><circle r="1.5" cx="770" cy="367" opacity="0.88"></circle><circle r="1.5" cx="777" cy="417" opacity="0.88"></circle><circle r="1.5" cx="748" cy="458" opacity="0.88"></circle><circle r="1.5" cx="697" cy="468" opacity="0.88"></circle><circle r="1.5" cx="653" cy="441" opacity="0.87"></circle><circle r="1.5" cx="641" cy="390" opacity="0.87"></circle><circle r="1.5" cx="667" cy="343" opacity="0.87"></circle><circle r="1.5" cx="718" cy="328" opacity="0.87"></circle><circle r="1.5" cx="766" cy="352" opacity="0.87"></circle><circle r="1.5" cx="785" cy="403" opacity="0.87"></circle><circle r="1.5" cx="763" cy="454" opacity="0.87"></circle><circle r="1.5" cx="711" cy="476" opacity="0.86"></circle><circle r="1.5" cx="659" cy="456" opacity="0.86"></circle><circle r="1.5" cx="634" cy="404" opacity="0.86"></circle><circle r="1.5" cx="652" cy="350" opacity="0.86"></circle><circle r="1.5" cx="703" cy="322" opacity="0.86"></circle><circle r="1.5" cx="759" cy="337" opacity="0.86"></circle><circle r="1.5" cx="790" cy="387" opacity="0.86"></circle><circle r="1.5" cx="778" cy="446" opacity="0.85"></circle><circle r="1.5" cx="728" cy="480" opacity="0.85"></circle><circle r="1.5" cx="668" cy="470" opacity="0.85"></circle><circle r="1.5" cx="631" cy="421" opacity="0.85"></circle><circle r="1.5" cx="637" cy="360" opacity="0.85"></circle><circle r="1.5" cx="685" cy="319" opacity="0.85"></circle><circle r="1.5" cx="748" cy="323" opacity="0.84"></circle><circle r="1.5" cx="792" cy="369" opacity="0.84"></circle><circle r="1.5" cx="791" cy="434" opacity="0.84"></circle><circle r="1.5" cx="746" cy="480" opacity="0.84"></circle><circle r="1.5" cx="681" cy="483" opacity="0.84"></circle><circle r="1.5" cx="631" cy="440" opacity="0.84"></circle><circle r="1.5" cx="625" cy="374" opacity="0.84"></circle><circle r="1.5" cx="666" cy="321" opacity="0.83"></circle><circle r="1.5" cx="733" cy="311" opacity="0.83"></circle><circle r="1.5" cx="789" cy="351" opacity="0.83"></circle><circle r="1.5" cx="802" cy="418" opacity="0.83"></circle><circle r="1.5" cx="765" cy="477" opacity="0.83"></circle><circle r="1.5" cx="697" cy="494" opacity="0.83"></circle><circle r="1.5" cx="636" cy="459" opacity="0.83"></circle><circle r="1.5" cx="615" cy="391" opacity="0.82"></circle><circle r="1.5" cx="647" cy="327" opacity="0.82"></circle><circle r="1.5" cx="715" cy="302" opacity="0.82"></circle><circle r="1.5" cx="782" cy="332" opacity="0.82"></circle><circle r="1.5" cx="810" cy="399" opacity="0.82"></circle><circle r="1.5" cx="784" cy="468" opacity="0.82"></circle><circle r="1.5" cx="717" cy="501" opacity="0.82"></circle><circle r="2" cx="645" cy="478" opacity="0.81"></circle><circle r="2" cx="609" cy="411" opacity="0.81"></circle><circle r="2" cx="629" cy="338" opacity="0.81"></circle><circle r="2" cx="694" cy="298" opacity="0.81"></circle><circle r="2" cx="770" cy="314" opacity="0.81"></circle><circle r="2" cx="814" cy="378" opacity="0.81"></circle><circle r="2" cx="801" cy="455" opacity="0.81"></circle><circle r="2" cx="739" cy="503" opacity="0.80"></circle><circle r="2" cx="660" cy="495" opacity="0.80"></circle><circle r="2" cx="608" cy="433" opacity="0.80"></circle><circle r="2" cx="613" cy="353" opacity="0.80"></circle><circle r="2" cx="672" cy="297" opacity="0.80"></circle><circle r="2" cx="754" cy="298" opacity="0.80"></circle><circle r="2" cx="813" cy="355" opacity="0.79"></circle><circle r="2" cx="817" cy="438" opacity="0.79"></circle><circle r="2" cx="762" cy="501" opacity="0.79"></circle><circle r="2" cx="678" cy="509" opacity="0.79"></circle><circle r="2" cx="611" cy="456" opacity="0.79"></circle><circle r="2" cx="599" cy="372" opacity="0.79"></circle><circle r="2" cx="649" cy="302" opacity="0.79"></circle><circle r="2" cx="733" cy="285" opacity="0.78"></circle><circle r="2" cx="807" cy="332" opacity="0.78"></circle><circle r="2" cx="828" cy="417" opacity="0.78"></circle><circle r="2" cx="785" cy="493" opacity="0.78"></circle><circle r="2" cx="700" cy="519" opacity="0.78"></circle><circle r="2" cx="620" cy="479" opacity="0.78"></circle><circle r="2" cx="590" cy="395" opacity="0.78"></circle><circle r="2" cx="626" cy="312" opacity="0.77"></circle><circle r="2" cx="710" cy="277" opacity="0.77"></circle><circle r="2" cx="795" cy="310" opacity="0.77"></circle><circle r="2" cx="835" cy="392" opacity="0.77"></circle><circle r="2" cx="807" cy="481" opacity="0.77"></circle><circle r="2" cx="725" cy="525" opacity="0.77"></circle><circle r="2" cx="635" cy="501" opacity="0.77"></circle><circle r="2" cx="585" cy="421" opacity="0.76"></circle><circle r="2" cx="605" cy="328" opacity="0.76"></circle><circle r="2" cx="684" cy="274" opacity="0.76"></circle><circle r="2" cx="778" cy="289" opacity="0.76"></circle><circle r="2" cx="837" cy="366" opacity="0.76"></circle><circle r="2" cx="826" cy="462" opacity="0.76"></circle><circle r="2" cx="752" cy="525" opacity="0.76"></circle><circle r="2" cx="654" cy="520" opacity="0.75"></circle><circle r="2" cx="586" cy="448" opacity="0.75"></circle><circle r="2" cx="587" cy="348" opacity="0.75"></circle><circle r="2" cx="656" cy="277" opacity="0.75"></circle><circle r="2" cx="757" cy="272" opacity="0.75"></circle><circle r="2" cx="833" cy="339" opacity="0.75"></circle><circle r="2" cx="842" cy="440" opacity="0.75"></circle><circle r="2" cx="779" cy="520" opacity="0.74"></circle><circle r="2" cx="678" cy="535" opacity="0.74"></circle><circle r="2" cx="593" cy="475" opacity="0.74"></circle><circle r="2" cx="573" cy="373" opacity="0.74"></circle><circle r="2" cx="629" cy="285" opacity="0.74"></circle><circle r="2" cx="731" cy="260" opacity="0.74"></circle><circle r="2" cx="823" cy="311" opacity="0.73"></circle><circle r="2" cx="854" cy="413" opacity="0.73"></circle><circle r="2" cx="806" cy="508" opacity="0.73"></circle><circle r="2.5" cx="705" cy="545" opacity="0.73"></circle><circle r="2.5" cx="607" cy="502" opacity="0.73"></circle><circle r="2.5" cx="565" cy="402" opacity="0.73"></circle><circle r="2.5" cx="603" cy="300" opacity="0.73"></circle><circle r="2.5" cx="702" cy="252" opacity="0.72"></circle><circle r="2.5" cx="806" cy="286" opacity="0.72"></circle><circle r="2.5" cx="859" cy="383" opacity="0.72"></circle><circle r="2.5" cx="831" cy="490" opacity="0.72"></circle><circle r="2.5" cx="736" cy="549" opacity="0.72"></circle><circle r="2.5" cx="626" cy="526" opacity="0.72"></circle><circle r="2.5" cx="562" cy="433" opacity="0.72"></circle><circle r="2.5" cx="580" cy="321" opacity="0.71"></circle><circle r="2.5" cx="671" cy="251" opacity="0.71"></circle><circle r="2.5" cx="784" cy="264" opacity="0.71"></circle><circle r="2.5" cx="859" cy="352" opacity="0.71"></circle><circle r="2.5" cx="852" cy="467" opacity="0.71"></circle><circle r="2.5" cx="767" cy="547" opacity="0.71"></circle><circle r="2.5" cx="651" cy="546" opacity="0.71"></circle><circle r="2.5" cx="566" cy="464" opacity="0.70"></circle><circle r="2.5" cx="561" cy="347" opacity="0.70"></circle><circle r="2.5" cx="639" cy="257" opacity="0.70"></circle><circle r="2.5" cx="757" cy="246" opacity="0.70"></circle><circle r="2.5" cx="851" cy="320" opacity="0.70"></circle><circle r="2.5" cx="869" cy="439" opacity="0.70"></circle><circle r="2.5" cx="799" cy="537" opacity="0.70"></circle><circle r="2.5" cx="680" cy="561" opacity="0.69"></circle><circle r="2.5" cx="577" cy="496" opacity="0.69"></circle><circle r="2.5" cx="547" cy="377" opacity="0.69"></circle><circle r="2.5" cx="608" cy="270" opacity="0.69"></circle><circle r="2.5" cx="726" cy="234" opacity="0.69"></circle><circle r="2.5" cx="837" cy="289" opacity="0.69"></circle><circle r="2.5" cx="879" cy="406" opacity="0.69"></circle><circle r="2.5" cx="829" cy="521" opacity="0.68"></circle><circle r="2.5" cx="713" cy="570" opacity="0.68"></circle><circle r="2.5" cx="595" cy="525" opacity="0.68"></circle><circle r="2.5" cx="540" cy="411" opacity="0.68"></circle><circle r="2.5" cx="579" cy="290" opacity="0.68"></circle><circle r="2.5" cx="691" cy="228" opacity="0.68"></circle><circle r="2.5" cx="815" cy="261" opacity="0.67"></circle><circle r="2.5" cx="883" cy="371" opacity="0.67"></circle><circle r="2.5" cx="856" cy="498" opacity="0.67"></circle><circle r="2.5" cx="749" cy="572" opacity="0.67"></circle><circle r="2.5" cx="620" cy="551" opacity="0.67"></circle><circle r="2.5" cx="540" cy="447" opacity="0.67"></circle><circle r="2.5" cx="554" cy="316" opacity="0.67"></circle><circle r="2.5" cx="655" cy="230" opacity="0.66"></circle><circle r="2.5" cx="788" cy="237" opacity="0.66"></circle><circle r="2.5" cx="879" cy="335" opacity="0.66"></circle><circle r="2.5" cx="879" cy="469" opacity="0.66"></circle><circle r="2.5" cx="785" cy="566" opacity="0.66"></circle><circle r="2.5" cx="650" cy="572" opacity="0.66"></circle><circle r="2.5" cx="547" cy="483" opacity="0.66"></circle><circle r="2.5" cx="534" cy="347" opacity="0.65"></circle><circle r="2.5" cx="619" cy="239" opacity="0.65"></circle><circle r="2.5" cx="755" cy="219" opacity="0.65"></circle><circle r="2.5" cx="868" cy="299" opacity="0.65"></circle><circle r="2.5" cx="895" cy="435" opacity="0.65"></circle><circle r="2.5" cx="821" cy="553" opacity="0.65"></circle><circle r="3" cx="685" cy="587" opacity="0.65"></circle><circle r="3" cx="563" cy="518" opacity="0.64"></circle><circle r="3" cx="521" cy="384" opacity="0.64"></circle><circle r="3" cx="584" cy="257" opacity="0.64"></circle><circle r="3" cx="718" cy="208" opacity="0.64"></circle><circle r="3" cx="849" cy="265" opacity="0.64"></circle><circle r="3" cx="904" cy="397" opacity="0.64"></circle><circle r="3" cx="854" cy="532" opacity="0.64"></circle><circle r="3" cx="724" cy="595" opacity="0.63"></circle><circle r="3" cx="586" cy="551" opacity="0.63"></circle><circle r="3" cx="516" cy="423" opacity="0.63"></circle><circle r="3" cx="553" cy="282" opacity="0.63"></circle><circle r="3" cx="678" cy="205" opacity="0.63"></circle><circle r="3" cx="822" cy="235" opacity="0.63"></circle><circle r="3" cx="906" cy="357" opacity="0.63"></circle><circle r="3" cx="883" cy="503" opacity="0.62"></circle><circle r="3" cx="765" cy="594" opacity="0.62"></circle><circle r="3" cx="616" cy="578" opacity="0.62"></circle><circle r="3" cx="519" cy="464" opacity="0.62"></circle><circle r="3" cx="527" cy="313" opacity="0.62"></circle><circle r="3" cx="637" cy="210" opacity="0.62"></circle><circle r="3" cx="789" cy="210" opacity="0.61"></circle><circle r="3" cx="899" cy="316" opacity="0.61"></circle><circle r="3" cx="906" cy="468" opacity="0.61"></circle><circle r="3" cx="805" cy="584" opacity="0.61"></circle><circle r="3" cx="652" cy="599" opacity="0.61"></circle><circle r="3" cx="530" cy="504" opacity="0.61"></circle><circle r="3" cx="507" cy="351" opacity="0.61"></circle><circle r="3" cx="597" cy="224" opacity="0.60"></circle><circle r="3" cx="750" cy="193" opacity="0.60"></circle><circle r="3" cx="883" cy="276" opacity="0.60"></circle><circle r="3" cx="922" cy="429" opacity="0.60"></circle><circle r="3" cx="844" cy="566" opacity="0.60"></circle><circle r="3" cx="693" cy="613" opacity="0.60"></circle><circle r="3" cx="550" cy="543" opacity="0.60"></circle><circle r="3" cx="496" cy="393" opacity="0.59"></circle><circle r="3" cx="559" cy="246" opacity="0.59"></circle><circle r="3" cx="707" cy="183" opacity="0.59"></circle><circle r="3" cx="858" cy="240" opacity="0.59"></circle><circle r="3" cx="929" cy="385" opacity="0.59"></circle><circle r="3" cx="880" cy="540" opacity="0.59"></circle><circle r="3" cx="737" cy="619" opacity="0.59"></circle><circle r="3" cx="579" cy="577" opacity="0.58"></circle><circle r="3" cx="493" cy="437" opacity="0.58"></circle><circle r="3" cx="526" cy="276" opacity="0.58"></circle><circle r="3" cx="662" cy="182" opacity="0.58"></circle><circle r="3" cx="826" cy="208" opacity="0.58"></circle><circle r="3" cx="927" cy="340" opacity="0.58"></circle><circle r="3" cx="910" cy="506" opacity="0.58"></circle><circle r="3" cx="783" cy="615" opacity="0.57"></circle><circle r="3" cx="615" cy="606" opacity="0.57"></circle><circle r="3" cx="499" cy="483" opacity="0.57"></circle><circle r="3" cx="499" cy="314" opacity="0.57"></circle><circle r="3" cx="617" cy="191" opacity="0.57"></circle><circle r="3" cx="787" cy="183" opacity="0.57"></circle><circle r="3" cx="916" cy="295" opacity="0.57"></circle><circle r="3" cx="933" cy="465" opacity="0.56"></circle><circle r="3.5" cx="827" cy="601" opacity="0.56"></circle><circle r="3.5" cx="657" cy="627" opacity="0.56"></circle><circle r="3.5" cx="515" cy="527" opacity="0.56"></circle><circle r="3.5" cx="480" cy="357" opacity="0.56"></circle><circle r="3.5" cx="573" cy="209" opacity="0.56"></circle><circle r="3.5" cx="742" cy="166" opacity="0.55"></circle><circle r="3.5" cx="895" cy="251" opacity="0.55"></circle><circle r="3.5" cx="948" cy="419" opacity="0.55"></circle><circle r="3.5" cx="870" cy="578" opacity="0.55"></circle><circle r="3.5" cx="704" cy="639" opacity="0.55"></circle><circle r="3.5" cx="540" cy="569" opacity="0.55"></circle><circle r="3.5" cx="470" cy="405" opacity="0.55"></circle><circle r="3.5" cx="533" cy="237" opacity="0.54"></circle><circle r="3.5" cx="694" cy="158" opacity="0.54"></circle><circle r="3.5" cx="866" cy="213" opacity="0.54"></circle><circle r="3.5" cx="953" cy="371" opacity="0.54"></circle><circle r="3.5" cx="907" cy="546" opacity="0.54"></circle><circle r="3.5" cx="753" cy="642" opacity="0.54"></circle><circle r="3.5" cx="575" cy="605" opacity="0.54"></circle><circle r="3.5" cx="470" cy="454" opacity="0.53"></circle><circle r="3.5" cx="498" cy="273" opacity="0.53"></circle><circle r="3.5" cx="644" cy="161" opacity="0.53"></circle><circle r="3.5" cx="827" cy="180" opacity="0.53"></circle><circle r="3.5" cx="948" cy="320" opacity="0.53"></circle><circle r="3.5" cx="938" cy="506" opacity="0.53"></circle><circle r="3.5" cx="803" cy="634" opacity="0.53"></circle><circle r="3.5" cx="616" cy="634" opacity="0.52"></circle><circle r="3.5" cx="481" cy="504" opacity="0.52"></circle><circle r="3.5" cx="472" cy="317" opacity="0.52"></circle><circle r="3.5" cx="594" cy="174" opacity="0.52"></circle><circle r="3.5" cx="782" cy="155" opacity="0.52"></circle><circle r="3.5" cx="932" cy="271" opacity="0.52"></circle><circle r="3.5" cx="961" cy="459" opacity="0.52"></circle><circle r="3.5" cx="852" cy="615" opacity="0.51"></circle><circle r="3.5" cx="664" cy="654" opacity="0.51"></circle><circle r="3.5" cx="502" cy="552" opacity="0.51"></circle><circle r="3.5" cx="454" cy="366" opacity="0.51"></circle><circle r="3.5" cx="547" cy="198" opacity="0.51"></circle><circle r="3.5" cx="732" cy="140" opacity="0.51"></circle><circle r="3.5" cx="906" cy="225" opacity="0.50"></circle><circle r="3.5" cx="974" cy="408" opacity="0.50"></circle><circle r="3.5" cx="897" cy="587" opacity="0.50"></circle><circle r="3.5" cx="717" cy="664" opacity="0.50"></circle><circle r="3.5" cx="533" cy="596" opacity="0.50"></circle><circle r="3.5" cx="446" cy="419" opacity="0.50"></circle><circle r="3.5" cx="505" cy="231" opacity="0.50"></circle><circle r="3.5" cx="678" cy="135" opacity="0.49"></circle><circle r="3.5" cx="870" cy="185" opacity="0.49"></circle><circle r="3.5" cx="976" cy="354" opacity="0.49"></circle><circle r="3.5" cx="935" cy="549" opacity="0.49"></circle><circle r="3.5" cx="771" cy="663" opacity="0.49"></circle><circle r="3.5" cx="573" cy="633" opacity="0.49"></circle><circle r="3.5" cx="449" cy="474" opacity="0.49"></circle><circle r="3.5" cx="470" cy="273" opacity="0.48"></circle><circle r="3.5" cx="623" cy="141" opacity="0.48"></circle><circle r="3.5" cx="826" cy="151" opacity="0.48"></circle><circle r="3.5" cx="967" cy="299" opacity="0.48"></circle><circle r="3.5" cx="967" cy="503" opacity="0.48"></circle><circle r="4" cx="826" cy="651" opacity="0.48"></circle><circle r="4" cx="621" cy="662" opacity="0.48"></circle><circle r="4" cx="464" cy="528" opacity="0.47"></circle><circle r="4" cx="443" cy="323" opacity="0.47"></circle><circle r="4" cx="570" cy="159" opacity="0.47"></circle><circle r="4" cx="775" cy="127" opacity="0.47"></circle><circle r="4" cx="946" cy="246" opacity="0.47"></circle><circle r="4" cx="988" cy="450" opacity="0.47"></circle><circle r="4" cx="878" cy="628" opacity="0.47"></circle><circle r="4" cx="675" cy="681" opacity="0.46"></circle><circle r="4" cx="491" cy="579" opacity="0.46"></circle><circle r="4" cx="427" cy="378" opacity="0.46"></circle><circle r="4" cx="520" cy="188" opacity="0.46"></circle><circle r="4" cx="719" cy="114" opacity="0.46"></circle><circle r="4" cx="914" cy="198" opacity="0.46"></circle><circle r="4" cx="999" cy="393" opacity="0.46"></circle><circle r="4" cx="925" cy="594" opacity="0.45"></circle><circle r="4" cx="732" cy="688" opacity="0.45"></circle><circle r="4" cx="527" cy="624" opacity="0.45"></circle><circle r="4" cx="423" cy="436" opacity="0.45"></circle><circle r="4" cx="476" cy="227" opacity="0.45"></circle><circle r="4" cx="660" cy="112" opacity="0.45"></circle><circle r="4" cx="873" cy="156" opacity="0.44"></circle><circle r="4" cx="997" cy="334" opacity="0.44"></circle><circle r="4" cx="965" cy="550" opacity="0.44"></circle><circle r="4" cx="792" cy="684" opacity="0.44"></circle><circle r="4" cx="574" cy="662" opacity="0.44"></circle><circle r="4" cx="430" cy="496" opacity="0.44"></circle><circle r="4" cx="441" cy="275" opacity="0.44"></circle><circle r="4" cx="601" cy="123" opacity="0.43"></circle><circle r="4" cx="822" cy="122" opacity="0.43"></circle><circle r="4" cx="984" cy="275" opacity="0.43"></circle><circle r="4" cx="995" cy="498" opacity="0.43"></circle><circle r="4" cx="850" cy="667" opacity="0.43"></circle><circle r="4" cx="628" cy="690" opacity="0.43"></circle><circle r="4" cx="450" cy="553" opacity="0.43"></circle><circle r="4" cx="415" cy="331" opacity="0.42"></circle><circle r="4" cx="544" cy="146" opacity="0.42"></circle><circle r="4" cx="765" cy="100" opacity="0.42"></circle><circle r="4" cx="958" cy="219" opacity="0.42"></circle><circle r="4" cx="1015" cy="439" opacity="0.42"></circle><circle r="4" cx="905" cy="638" opacity="0.42"></circle><circle r="4" cx="688" cy="707" opacity="0.42"></circle><circle r="4" cx="482" cy="607" opacity="0.41"></circle><circle r="4" cx="401" cy="392" opacity="0.41"></circle><circle r="4" cx="491" cy="180" opacity="0.41"></circle><circle r="4" cx="703" cy="89" opacity="0.41"></circle><circle r="4" cx="920" cy="168" opacity="0.41"></circle><circle r="4" cx="1023" cy="376" opacity="0.41"></circle><circle r="4" cx="954" cy="598" opacity="0.41"></circle><circle r="4" cx="751" cy="712" opacity="0.40"></circle><circle r="4" cx="525" cy="654" opacity="0.40"></circle><circle r="4" cx="400" cy="456" opacity="0.40"></circle><circle r="4" cx="447" cy="226" opacity="0.40"></circle><circle r="4" cx="639" cy="91" opacity="0.40"></circle><circle r="4" cx="872" cy="126" opacity="0.40"></circle><circle r="4" cx="1018" cy="312" opacity="0.40"></circle><circle r="4.5" cx="994" cy="548" opacity="0.39"></circle><circle r="4.5" cx="815" cy="703" opacity="0.39"></circle><circle r="4.5" cx="577" cy="692" opacity="0.39"></circle><circle r="4.5" cx="412" cy="520" opacity="0.39"></circle><circle r="4.5" cx="411" cy="281" opacity="0.39"></circle><circle r="4.5" cx="576" cy="106" opacity="0.39"></circle><circle r="4.5" cx="816" cy="93" opacity="0.38"></circle><circle r="4.5" cx="999" cy="249" opacity="0.38"></circle><circle r="4.5" cx="1024" cy="489" opacity="0.38"></circle><circle r="4.5" cx="877" cy="681" opacity="0.38"></circle><circle r="4.5" cx="637" cy="719" opacity="0.38"></circle><circle r="4.5" cx="437" cy="581" opacity="0.38"></circle><circle r="4.5" cx="387" cy="342" opacity="0.38"></circle><circle r="4.5" cx="516" cy="135" opacity="0.37"></circle><circle r="4.5" cx="752" cy="72" opacity="0.37"></circle><circle r="4.5" cx="967" cy="190" opacity="0.37"></circle><circle r="4.5" cx="1042" cy="425" opacity="0.37"></circle><circle r="4.5" cx="934" cy="646" opacity="0.37"></circle><circle r="4.5" cx="703" cy="733" opacity="0.37"></circle><circle r="4.5" cx="475" cy="637" opacity="0.37"></circle><circle r="4.5" cx="376" cy="409" opacity="0.36"></circle><circle r="4.5" cx="462" cy="176" opacity="0.36"></circle><circle r="4.5" cx="685" cy="65" opacity="0.36"></circle><circle r="4.5" cx="923" cy="138" opacity="0.36"></circle><circle r="4.5" cx="1046" cy="357" opacity="0.36"></circle><circle r="4.5" cx="984" cy="600" opacity="0.36"></circle><circle r="4.5" cx="772" cy="734" opacity="0.36"></circle><circle r="4.5" cx="524" cy="684" opacity="0.35"></circle><circle r="4.5" cx="379" cy="478" opacity="0.35"></circle><circle r="4.5" cx="416" cy="227" opacity="0.35"></circle><circle r="4.5" cx="616" cy="71" opacity="0.35"></circle><circle r="4.5" cx="869" cy="95" opacity="0.35"></circle><circle r="4.5" cx="1036" cy="288" opacity="0.35"></circle><circle r="4.5" cx="1025" cy="543" opacity="0.35"></circle><circle r="4.5" cx="840" cy="720" opacity="0.34"></circle><circle r="4.5" cx="583" cy="722" opacity="0.34"></circle><circle r="4.5" cx="396" cy="546" opacity="0.34"></circle><circle r="4.5" cx="382" cy="288" opacity="0.34"></circle><circle r="4.5" cx="549" cy="92" opacity="0.34"></circle><circle r="4.5" cx="806" cy="64" opacity="0.34"></circle><circle r="4.5" cx="1012" cy="221" opacity="0.34"></circle><circle r="4.5" cx="1053" cy="478" opacity="0.33"></circle><circle r="4.5" cx="905" cy="693" opacity="0.33"></circle><circle r="4.5" cx="650" cy="747" opacity="0.33"></circle><circle r="4.5" cx="427" cy="610" opacity="0.33"></circle><circle r="4.5" cx="360" cy="357" opacity="0.33"></circle><circle r="4.5" cx="486" cy="126" opacity="0.33"></circle><circle r="4.5" cx="737" cy="46" opacity="0.32"></circle><circle r="4.5" cx="974" cy="160" opacity="0.32"></circle><circle r="4.5" cx="1068" cy="408" opacity="0.32"></circle><circle r="4.5" cx="965" cy="652" opacity="0.32"></circle><circle r="4.5" cx="721" cy="758" opacity="0.32"></circle><circle r="4.5" cx="471" cy="667" opacity="0.32"></circle><circle r="4.5" cx="352" cy="429" opacity="0.32"></circle><circle r="4.5" cx="431" cy="173" opacity="0.31"></circle><circle r="4.5" cx="664" cy="42" opacity="0.31"></circle><circle r="4.5" cx="924" cy="107" opacity="0.31"></circle><circle r="5" cx="1068" cy="334" opacity="0.31"></circle><circle r="5" cx="1016" cy="599" opacity="0.31"></circle><circle r="5" cx="795" cy="755" opacity="0.31"></circle><circle r="5" cx="527" cy="716" opacity="0.31"></circle><circle r="5" cx="360" cy="502" opacity="0.30"></circle><circle r="5" cx="385" cy="232" opacity="0.30"></circle><circle r="5" cx="591" cy="53" opacity="0.30"></circle><circle r="5" cx="863" cy="65" opacity="0.30"></circle><circle r="5" cx="1053" cy="261" opacity="0.30"></circle><circle r="5" cx="1055" cy="536" opacity="0.30"></circle><circle r="5" cx="867" cy="736" opacity="0.30"></circle><circle r="5" cx="593" cy="752" opacity="0.29"></circle><circle r="5" cx="382" cy="574" opacity="0.29"></circle><circle r="5" cx="352" cy="299" opacity="0.29"></circle><circle r="5" cx="520" cy="79" opacity="0.29"></circle><circle r="5" cx="794" cy="35" opacity="0.29"></circle><circle r="5" cx="1023" cy="192" opacity="0.29"></circle><circle r="5" cx="1081" cy="464" opacity="0.29"></circle><circle r="5" cx="936" cy="702" opacity="0.28"></circle><circle r="5" cx="665" cy="775" opacity="0.28"></circle><circle r="5" cx="419" cy="641" opacity="0.28"></circle><circle r="5" cx="333" cy="373" opacity="0.28"></circle><circle r="5" cx="455" cy="120" opacity="0.28"></circle><circle r="5" cx="718" cy="20" opacity="0.28"></circle><circle r="5" cx="979" cy="129" opacity="0.28"></circle><circle r="5" cx="1093" cy="388" opacity="0.27"></circle><circle r="5" cx="996" cy="655" opacity="0.27"></circle><circle r="5" cx="742" cy="782" opacity="0.27"></circle><circle r="5" cx="470" cy="699" opacity="0.27"></circle><circle r="5" cx="329" cy="451" opacity="0.27"></circle><circle r="5" cx="399" cy="174" opacity="0.27"></circle><circle r="5" cx="640" cy="20" opacity="0.26"></circle><circle r="5" cx="922" cy="75" opacity="0.26"></circle><circle r="5" cx="1088" cy="310" opacity="0.26"></circle><circle r="5" cx="1047" cy="595" opacity="0.26"></circle><circle r="5" cx="821" cy="774" opacity="0.26"></circle><circle r="5" cx="533" cy="747" opacity="0.26"></circle><circle r="5" cx="342" cy="529" opacity="0.26"></circle><circle r="5" cx="354" cy="239" opacity="0.25"></circle><circle r="5" cx="563" cy="36" opacity="0.25"></circle><circle r="5" cx="854" cy="34" opacity="0.25"></circle><circle r="5" cx="1068" cy="233" opacity="0.25"></circle><circle r="5" cx="1086" cy="525" opacity="0.25"></circle><circle r="5" cx="897" cy="749" opacity="0.25"></circle><circle r="5" cx="605" cy="782" opacity="0.25"></circle><circle r="5" cx="370" cy="604" opacity="0.24"></circle><circle r="5" cx="323" cy="313" opacity="0.24"></circle><circle r="5" cx="489" cy="69" opacity="0.24"></circle><circle r="5" cx="779" cy="6" opacity="0.24"></circle><circle r="5" cx="1032" cy="161" opacity="0.24"></circle><circle r="5" cx="1109" cy="448" opacity="0.24"></circle><circle r="5" cx="967" cy="709" opacity="0.24"></circle><circle r="5" cx="683" cy="802" opacity="0.23"></circle><circle r="5" cx="414" cy="673" opacity="0.23"></circle><circle r="5" cx="307" cy="393" opacity="0.23"></circle><circle r="5" cx="423" cy="116" opacity="0.23"></circle><circle r="5" cx="698" cy="-5" opacity="0.23"></circle><circle r="5" cx="981" cy="96" opacity="0.23"></circle><circle r="5.5" cx="1117" cy="366" opacity="0.23"></circle><circle r="5.5" cx="1029" cy="655" opacity="0.22"></circle><circle r="5.5" cx="766" cy="805" opacity="0.22"></circle><circle r="5.5" cx="471" cy="732" opacity="0.22"></circle><circle r="5.5" cx="308" cy="476" opacity="0.22"></circle><circle r="5.5" cx="366" cy="177" opacity="0.22"></circle><circle r="5.5" cx="615" cy="0" opacity="0.22"></circle><circle r="5.5" cx="917" cy="43" opacity="0.21"></circle><circle r="5.5" cx="1107" cy="283" opacity="0.21"></circle><circle r="5.5" cx="1079" cy="589" opacity="0.21"></circle><circle r="5.5" cx="848" cy="791" opacity="0.21"></circle><circle r="5.5" cx="541" cy="779" opacity="0.21"></circle><circle r="5.5" cx="326" cy="558" opacity="0.21"></circle><circle r="5.5" cx="322" cy="249" opacity="0.21"></circle><circle r="5.5" cx="533" cy="22" opacity="0.20"></circle><circle r="5.5" cx="843" cy="3" opacity="0.20"></circle><circle r="5.5" cx="1081" cy="203" opacity="0.20"></circle><circle r="5.5" cx="1116" cy="512" opacity="0.20"></circle><circle r="5.5" cx="928" cy="761" opacity="0.20"></circle><circle r="5.5" cx="619" cy="811" opacity="0.20"></circle><circle r="5.5" cx="361" cy="636" opacity="0.20"></circle><circle r="5.5" cx="294" cy="329" opacity="0.19"></circle><circle r="5.5" cx="457" cy="61" opacity="0.19"></circle><circle r="5.5" cx="761" cy="-22" opacity="0.19"></circle><circle r="5.5" cx="1038" cy="128" opacity="0.19"></circle><circle r="5.5" cx="1136" cy="428" opacity="0.19"></circle><circle r="5.5" cx="1000" cy="714" opacity="0.19"></circle><circle r="5.5" cx="704" cy="828" opacity="0.19"></circle><circle r="5.5" cx="411" cy="706" opacity="0.18"></circle><circle r="5.5" cx="282" cy="415" opacity="0.18"></circle><circle r="5.5" cx="389" cy="115" opacity="0.18"></circle><circle r="5.5" cx="674" cy="-29" opacity="0.18"></circle><circle r="5.5" cx="980" cy="63" opacity="0.18"></circle><circle r="5.5" cx="1139" cy="341" opacity="0.18"></circle><circle r="5.5" cx="1062" cy="653" opacity="0.18"></circle><circle r="5.5" cx="792" cy="826" opacity="0.17"></circle><circle r="5.5" cx="476" cy="765" opacity="0.17"></circle><circle r="5.5" cx="288" cy="503" opacity="0.17"></circle><circle r="5.5" cx="333" cy="183" opacity="0.17"></circle><circle r="5.5" cx="587" cy="-19" opacity="0.17"></circle><circle r="5.5" cx="910" cy="10" opacity="0.17"></circle><circle r="5.5" cx="1124" cy="254" opacity="0.17"></circle><circle r="5.5" cx="1112" cy="579" opacity="0.16"></circle><circle r="5.5" cx="878" cy="807" opacity="0.16"></circle><circle r="5.5" cx="552" cy="811" opacity="0.16"></circle><circle r="5.5" cx="312" cy="588" opacity="0.16"></circle><circle r="5.5" cx="291" cy="262" opacity="0.16"></circle><circle r="5.5" cx="502" cy="10" opacity="0.16"></circle><circle r="5.5" cx="828" cy="-28" opacity="0.15"></circle><circle r="5.5" cx="1091" cy="170" opacity="0.15"></circle><circle r="5.5" cx="1146" cy="496" opacity="0.15"></circle><circle r="5.5" cx="960" cy="769" opacity="0.15"></circle><circle r="5.5" cx="637" cy="840" opacity="0.15"></circle><circle r="5.5" cx="353" cy="669" opacity="0.15"></circle><circle r="5.5" cx="266" cy="348" opacity="0.15"></circle><circle r="5.5" cx="423" cy="55" opacity="0.14"></circle><circle r="5.5" cx="740" cy="-49" opacity="0.14"></circle><circle r="6" cx="1042" cy="94" opacity="0.14"></circle><circle r="6" cx="1162" cy="406" opacity="0.14"></circle><circle r="6" cx="1034" cy="716" opacity="0.14"></circle><circle r="6" cx="728" cy="852" opacity="0.14"></circle><circle r="6" cx="411" cy="740" opacity="0.14"></circle><circle r="6" cx="259" cy="440" opacity="0.13"></circle><circle r="6" cx="355" cy="117" opacity="0.13"></circle><circle r="6" cx="648" cy="-51" opacity="0.13"></circle><circle r="6" cx="977" cy="29" opacity="0.13"></circle><circle r="6" cx="1160" cy="314" opacity="0.13"></circle><circle r="6" cx="1096" cy="647" opacity="0.13"></circle><circle r="6" cx="820" cy="846" opacity="0.13"></circle><circle r="6" cx="483" cy="799" opacity="0.12"></circle><circle r="6" cx="270" cy="532" opacity="0.12"></circle><circle r="6" cx="300" cy="192" opacity="0.12"></circle><circle r="6" cx="556" cy="-35" opacity="0.12"></circle><circle r="6" cx="899" cy="-23" opacity="0.12"></circle><circle r="6" cx="1139" cy="223" opacity="0.12"></circle><circle r="6" cx="1144" cy="567" opacity="0.12"></circle><circle r="6" cx="910" cy="820" opacity="0.11"></circle><circle r="6" cx="566" cy="842" opacity="0.11"></circle><circle r="6" cx="300" cy="621" opacity="0.11"></circle><circle r="6" cx="260" cy="277" opacity="0.11"></circle><circle r="6" cx="468" cy="0" opacity="0.11"></circle><circle r="6" cx="811" cy="-58" opacity="0.11"></circle><circle r="6" cx="1100" cy="137" opacity="0.11"></circle><circle r="6" cx="1175" cy="477" opacity="0.10"></circle><circle r="6" cx="995" cy="776" opacity="0.10"></circle><circle r="6" cx="658" cy="869" opacity="0.10"></circle></g></svg>