<svg id="Objects" height="512" viewBox="0 0 64 64" width="512" xmlns="http://www.w3.org/2000/svg"><path d="m9.137 44.343h-2a9.443 9.443 0 0 0 9.433 9.432v-2a7.441 7.441 0 0 1 -7.433-7.432z"/><path d="m39.362 5.234h-3.145v2h2.145v24.119h-30.862v-18.3a2.992 2.992 0 0 1 2.988-2.989h7.268l2.935 2.936a5.191 5.191 0 0 0 -5.03 5.177 1 1 0 0 0 1 1h13.039a1 1 0 0 0 1-1 5.2 5.2 0 0 0 -5.193-5.194h-2l-4.63-4.63a1 1 0 0 0 -.707-.293h-7.686a4.994 4.994 0 0 0 -4.984 4.989v18.3h-1.261a3.659 3.659 0 0 0 -1.569 6.972v6.022a13.9 13.9 0 0 0 6.108 11.5v5.772a1 1 0 0 0 1 1h.006l5.2-.03a1 1 0 0 0 .841-.468l2.441-3.878h22.14l2.441 3.878a1 1 0 0 0 .841.468l5.2.03h.006a1 1 0 0 0 1-1v-5.777a13.9 13.9 0 0 0 3.091-2.883h7.851a1 1 0 0 0 1-1v-44.721h2.146v-2zm-10.824 11.943h-10.717a3.2 3.2 0 0 1 3.034-2.194h4.65a3.2 3.2 0 0 1 3.033 2.194zm-24.299 16.176h34.123v3.334h-34.123a1.667 1.667 0 0 1 0-3.334zm10.182 27.239-3.643.021v-3.65a13.792 13.792 0 0 0 5.142 1.247zm33.469.021-3.643-.021-1.5-2.388a13.872 13.872 0 0 0 5.145-1.255zm-5.79-4.37h-25.53a11.914 11.914 0 0 1 -11.9-11.9v-5.656h33.692v13.268a1 1 0 0 0 1 1h10.915a11.932 11.932 0 0 1 -8.177 3.288zm17.734-5.288h-5.84v-15.912h-2v15.912h-11.632v-43.721h5.613v16.6h2v-16.6h11.857z"/></svg>