<svg height="512" viewBox="0 0 251.941 251.941" width="512" xmlns="http://www.w3.org/2000/svg"><g id="Layer_2" data-name="Layer 2"><g id="_1" data-name="1"><g id="bookshelf"><path d="m22.433 15.53h207.075v103.538h-207.075z" fill="#edc16b"/><path d="m229.508 120.794h-207.075a1.724 1.724 0 0 1 -1.725-1.726v-103.538a1.723 1.723 0 0 1 1.725-1.724h207.075a1.724 1.724 0 0 1 1.726 1.724v103.538a1.724 1.724 0 0 1 -1.726 1.726zm-205.349-3.451h203.623v-100.086h-203.623z" fill="#1b3249"/><path d="m22.433 132.873h207.075v103.538h-207.075z" fill="#edc16b"/><path d="m229.508 238.137h-207.075a1.725 1.725 0 0 1 -1.725-1.726v-103.538a1.724 1.724 0 0 1 1.725-1.725h207.075a1.725 1.725 0 0 1 1.726 1.725v103.538a1.726 1.726 0 0 1 -1.726 1.726zm-205.349-3.451h203.623v-100.086h-203.623z" fill="#1b3249"/><path d="m250.216 125.971a6.9 6.9 0 0 0 -6.9-6.9v-103.541a6.9 6.9 0 1 0 0-13.8h-234.688a6.9 6.9 0 0 0 0 13.8v103.538a6.9 6.9 0 0 0 0 13.8v103.543a6.9 6.9 0 0 0 0 13.805h234.685a6.9 6.9 0 1 0 0-13.805v-103.538a6.9 6.9 0 0 0 6.903-6.902zm-227.783-110.441h207.075v103.538h-207.075zm207.075 220.881h-207.075v-103.538h207.075z" fill="#f29e8c"/><path d="m243.313 251.941h-234.685a8.629 8.629 0 0 1 -1.728-17.083v-100.431a8.631 8.631 0 0 1 0-16.912v-100.43a8.63 8.63 0 0 1 1.728-17.085h234.685a8.63 8.63 0 0 1 1.726 17.085v100.43a8.631 8.631 0 0 1 0 16.912v100.431a8.629 8.629 0 0 1 -1.726 17.083zm-234.685-248.49a5.178 5.178 0 0 0 0 10.355 1.724 1.724 0 0 1 1.726 1.724v103.538a1.724 1.724 0 0 1 -1.726 1.726 5.177 5.177 0 0 0 0 10.354 1.725 1.725 0 0 1 1.726 1.725v103.538a1.726 1.726 0 0 1 -1.726 1.726 5.177 5.177 0 1 0 0 10.353h234.685a5.177 5.177 0 1 0 0-10.353 1.726 1.726 0 0 1 -1.726-1.726v-103.538a1.725 1.725 0 0 1 1.726-1.725 5.177 5.177 0 1 0 0-10.354 1.724 1.724 0 0 1 -1.726-1.726v-103.538a1.724 1.724 0 0 1 1.726-1.724 5.178 5.178 0 0 0 0-10.355zm220.88 234.686h-207.075a1.725 1.725 0 0 1 -1.725-1.726v-103.538a1.724 1.724 0 0 1 1.725-1.725h207.075a1.725 1.725 0 0 1 1.726 1.725v103.538a1.726 1.726 0 0 1 -1.726 1.726zm-205.349-3.451h203.623v-100.086h-203.623zm205.349-113.892h-207.075a1.724 1.724 0 0 1 -1.725-1.726v-103.538a1.723 1.723 0 0 1 1.725-1.724h207.075a1.724 1.724 0 0 1 1.726 1.724v103.538a1.724 1.724 0 0 1 -1.726 1.726zm-205.349-3.451h203.623v-100.086h-203.623z" fill="#1b3249"/><path d="m15.531 17.257h-6.9a1.726 1.726 0 1 1 0-3.451h6.9a1.726 1.726 0 0 1 0 3.451z" fill="#1b3249"/><path d="m15.531 120.794h-6.9a1.726 1.726 0 1 1 0-3.451h6.9a1.726 1.726 0 0 1 0 3.451z" fill="#1b3249"/><path d="m15.531 134.6h-6.9a1.726 1.726 0 1 1 0-3.451h6.9a1.726 1.726 0 0 1 0 3.451z" fill="#1b3249"/><path d="m15.531 238.137h-6.9a1.726 1.726 0 1 1 0-3.451h6.9a1.726 1.726 0 0 1 0 3.451z" fill="#1b3249"/><path d="m236.411 17.257h-6.9a1.726 1.726 0 1 1 0-3.451h6.9a1.726 1.726 0 0 1 0 3.451z" fill="#1b3249"/><path d="m236.411 120.794h-6.9a1.726 1.726 0 1 1 0-3.451h6.9a1.726 1.726 0 0 1 0 3.451z" fill="#1b3249"/><path d="m236.411 134.6h-6.9a1.726 1.726 0 1 1 0-3.451h6.9a1.726 1.726 0 0 1 0 3.451z" fill="#1b3249"/><path d="m236.411 238.137h-6.9a1.726 1.726 0 1 1 0-3.451h6.9a1.726 1.726 0 0 1 0 3.451z" fill="#1b3249"/><path d="m25.884 153.581h20.708a3.451 3.451 0 0 1 3.451 3.451v79.379a0 0 0 0 1 0 0h-27.61a0 0 0 0 1 0 0v-79.379a3.451 3.451 0 0 1 3.451-3.451z" fill="#edc16b"/><path d="m60.4 36.238h20.7a3.451 3.451 0 0 1 3.451 3.451v79.379a0 0 0 0 1 0 0h-27.606a0 0 0 0 1 0 0v-79.378a3.451 3.451 0 0 1 3.455-3.452z" fill="#edc16b"/><path d="m136.324 146.679h13.805a3.451 3.451 0 0 1 3.451 3.451v86.281a0 0 0 0 1 0 0h-20.707a0 0 0 0 1 0 0v-86.281a3.451 3.451 0 0 1 3.451-3.451z" fill="#edc16b"/><path d="m53.494 167.386h13.806a3.451 3.451 0 0 1 3.451 3.451v65.574a0 0 0 0 1 0 0h-20.708a0 0 0 0 1 0 0v-65.574a3.451 3.451 0 0 1 3.451-3.451z" fill="#fff"/><path d="m74.2 160.483h13.807a3.451 3.451 0 0 1 3.451 3.451v72.477a0 0 0 0 1 0 0h-20.707a0 0 0 0 1 0 0v-72.476a3.451 3.451 0 0 1 3.449-3.452z" fill="#f29e8c"/><path d="m194.3 161.036a3.454 3.454 0 0 0 -4.285-2.339l-13.244 3.9a3.449 3.449 0 0 0 -2.337 4.284l20.439 69.534 16.557-4.867a3.451 3.451 0 0 0 2.337-4.283z" fill="#fff"/><path d="m104.564 43.693a3.455 3.455 0 0 0 -4.286-2.338l-13.243 3.9a3.448 3.448 0 0 0 -2.335 4.279l20.44 69.534 16.556-4.867a3.452 3.452 0 0 0 2.338-4.283z" fill="#f29e8c"/><path d="m157.032 160.483h13.805a3.451 3.451 0 0 1 3.451 3.451v72.477a0 0 0 0 1 0 0h-20.707a0 0 0 0 1 0 0v-72.476a3.451 3.451 0 0 1 3.451-3.452z" fill="#f29e8c"/><path d="m94.909 174.288h6.9a3.451 3.451 0 0 1 3.451 3.451v58.672a0 0 0 0 1 0 0h-13.802a0 0 0 0 1 0 0v-58.672a3.451 3.451 0 0 1 3.451-3.451z" fill="#fff"/><path d="m191.544 50.043h13.8a3.452 3.452 0 0 1 3.452 3.452v65.574a0 0 0 0 1 0 0h-20.703a0 0 0 0 1 0 0v-65.575a3.451 3.451 0 0 1 3.451-3.451z" fill="#f29e8c"/><path d="m212.252 43.141h13.8a3.452 3.452 0 0 1 3.452 3.452v72.476a0 0 0 0 1 0 0h-20.704a0 0 0 0 1 0 0v-72.477a3.451 3.451 0 0 1 3.452-3.451z" fill="#fff"/><path d="m157.032 36.238h13.805a3.451 3.451 0 0 1 3.451 3.451v79.379a0 0 0 0 1 0 0h-20.707a0 0 0 0 1 0 0v-79.378a3.451 3.451 0 0 1 3.451-3.452z" fill="#fff"/><path d="m177.739 56.946h6.9a3.452 3.452 0 0 1 3.452 3.452v58.67a0 0 0 0 1 0 0h-13.803a0 0 0 0 1 0 0v-58.668a3.451 3.451 0 0 1 3.451-3.454z" fill="#fff"/><path d="m25.884 43.141h13.806a3.451 3.451 0 0 1 3.451 3.451v72.477a0 0 0 0 1 0 0h-20.708a0 0 0 0 1 0 0v-72.477a3.451 3.451 0 0 1 3.451-3.451z" fill="#fff"/><path d="m46.592 56.946h6.9a3.451 3.451 0 0 1 3.453 3.454v58.671a0 0 0 0 1 0 0h-13.8a0 0 0 0 1 0 0v-58.671a3.451 3.451 0 0 1 3.447-3.454z" fill="#f29e8c"/><g fill="#1b3249"><path d="m50.043 238.137h-27.61a1.725 1.725 0 0 1 -1.725-1.726v-79.379a5.182 5.182 0 0 1 5.176-5.176h20.708a5.183 5.183 0 0 1 5.177 5.176v79.379a1.726 1.726 0 0 1 -1.726 1.726zm-25.884-3.451h24.158v-77.654a1.727 1.727 0 0 0 -1.725-1.725h-20.708a1.727 1.727 0 0 0 -1.725 1.725z"/><path d="m84.556 120.794h-27.611a1.724 1.724 0 0 1 -1.725-1.726v-79.378a5.182 5.182 0 0 1 5.18-5.177h20.705a5.182 5.182 0 0 1 5.176 5.177v79.378a1.724 1.724 0 0 1 -1.725 1.726zm-25.885-3.451h24.159v-77.653a1.727 1.727 0 0 0 -1.725-1.726h-20.705a1.728 1.728 0 0 0 -1.726 1.726z"/><path d="m153.581 238.137h-20.708a1.725 1.725 0 0 1 -1.725-1.726v-86.281a5.182 5.182 0 0 1 5.176-5.177h13.8a5.182 5.182 0 0 1 5.177 5.177v86.281a1.725 1.725 0 0 1 -1.72 1.726zm-18.981-3.451h17.256v-84.556a1.728 1.728 0 0 0 -1.726-1.726h-13.8a1.727 1.727 0 0 0 -1.725 1.726z"/><path d="m70.751 238.137h-20.708a1.726 1.726 0 0 1 -1.726-1.726v-65.574a5.184 5.184 0 0 1 5.177-5.177h13.806a5.183 5.183 0 0 1 5.177 5.177v65.574a1.725 1.725 0 0 1 -1.726 1.726zm-18.982-3.451h17.256v-63.849a1.728 1.728 0 0 0 -1.726-1.726h-13.805a1.728 1.728 0 0 0 -1.725 1.726z"/><path d="m91.458 238.137h-20.707a1.726 1.726 0 0 1 -1.726-1.726v-72.476a5.182 5.182 0 0 1 5.177-5.177h13.805a5.183 5.183 0 0 1 5.177 5.177v72.476a1.726 1.726 0 0 1 -1.726 1.726zm-18.982-3.451h17.257v-70.751a1.728 1.728 0 0 0 -1.726-1.726h-13.807a1.728 1.728 0 0 0 -1.726 1.726z"/><path d="m194.869 238.137a1.691 1.691 0 0 1 -.825-.213 1.711 1.711 0 0 1 -.83-1.027l-20.439-69.535a5.167 5.167 0 0 1 3.507-6.423l13.242-3.9a5.186 5.186 0 0 1 6.427 3.506l19.468 66.224a5.182 5.182 0 0 1 -3.507 6.424l-16.556 4.867a1.723 1.723 0 0 1 -.487.077zm-3.888-77.853a1.736 1.736 0 0 0 -.485.068l-13.242 3.9a1.728 1.728 0 0 0 -1.17 2.144l19.955 67.876 14.9-4.378a1.729 1.729 0 0 0 1.17-2.141l-19.466-66.227a1.737 1.737 0 0 0 -1.662-1.242z"/><path d="m105.137 120.794a1.693 1.693 0 0 1 -.826-.212 1.714 1.714 0 0 1 -.829-1.028l-20.439-69.534a5.167 5.167 0 0 1 3.506-6.42l13.243-3.9a5.185 5.185 0 0 1 6.427 3.506l19.467 66.225a5.18 5.18 0 0 1 -3.507 6.423l-16.555 4.868a1.733 1.733 0 0 1 -.487.072zm-3.888-77.852a1.7 1.7 0 0 0 -.485.068l-13.242 3.9a1.728 1.728 0 0 0 -1.17 2.144l19.954 67.876 14.9-4.378a1.73 1.73 0 0 0 1.171-2.141l-19.468-66.232a1.734 1.734 0 0 0 -1.66-1.237z"/><path d="m174.288 238.137h-20.707a1.726 1.726 0 0 1 -1.726-1.726v-72.476a5.182 5.182 0 0 1 5.177-5.177h13.8a5.183 5.183 0 0 1 5.177 5.177v72.476a1.726 1.726 0 0 1 -1.721 1.726zm-18.982-3.451h17.256v-70.751a1.727 1.727 0 0 0 -1.725-1.726h-13.8a1.728 1.728 0 0 0 -1.726 1.726z"/><path d="m105.263 238.137h-13.805a1.725 1.725 0 0 1 -1.725-1.726v-58.672a5.183 5.183 0 0 1 5.176-5.177h6.9a5.183 5.183 0 0 1 5.177 5.177v58.672a1.726 1.726 0 0 1 -1.723 1.726zm-12.079-3.451h10.354v-56.947a1.728 1.728 0 0 0 -1.726-1.725h-6.9a1.727 1.727 0 0 0 -1.725 1.725z"/><path d="m208.8 120.794h-20.707a1.724 1.724 0 0 1 -1.725-1.726v-65.574a5.183 5.183 0 0 1 5.176-5.177h13.8a5.183 5.183 0 0 1 5.177 5.177v65.574a1.724 1.724 0 0 1 -1.721 1.726zm-18.982-3.451h17.256v-63.849a1.728 1.728 0 0 0 -1.726-1.725h-13.8a1.727 1.727 0 0 0 -1.725 1.725z"/><path d="m229.508 120.794h-20.708a1.724 1.724 0 0 1 -1.726-1.726v-72.476a5.182 5.182 0 0 1 5.177-5.177h13.8a5.182 5.182 0 0 1 5.177 5.177v72.476a1.724 1.724 0 0 1 -1.72 1.726zm-18.982-3.451h17.256v-70.751a1.728 1.728 0 0 0 -1.725-1.726h-13.8a1.729 1.729 0 0 0 -1.726 1.726z"/><path d="m174.288 120.794h-20.707a1.724 1.724 0 0 1 -1.726-1.726v-79.378a5.182 5.182 0 0 1 5.177-5.177h13.8a5.183 5.183 0 0 1 5.177 5.177v79.378a1.724 1.724 0 0 1 -1.721 1.726zm-18.982-3.451h17.256v-77.653a1.727 1.727 0 0 0 -1.725-1.726h-13.8a1.728 1.728 0 0 0 -1.726 1.726z"/><path d="m188.093 120.794h-13.8a1.724 1.724 0 0 1 -1.726-1.726v-58.668a5.183 5.183 0 0 1 5.177-5.178h6.9a5.183 5.183 0 0 1 5.177 5.178v58.67a1.724 1.724 0 0 1 -1.728 1.724zm-12.079-3.451h10.354v-56.943a1.728 1.728 0 0 0 -1.726-1.726h-6.9a1.727 1.727 0 0 0 -1.725 1.726z"/><path d="m43.141 120.794h-20.708a1.724 1.724 0 0 1 -1.725-1.726v-72.476a5.182 5.182 0 0 1 5.176-5.177h13.806a5.182 5.182 0 0 1 5.176 5.177v72.476a1.724 1.724 0 0 1 -1.725 1.726zm-18.982-3.451h17.256v-70.751a1.728 1.728 0 0 0 -1.725-1.726h-13.806a1.728 1.728 0 0 0 -1.725 1.726z"/><path d="m56.945 120.794h-13.8a1.724 1.724 0 0 1 -1.726-1.726v-58.668a5.183 5.183 0 0 1 5.177-5.178h6.9a5.183 5.183 0 0 1 5.175 5.178v58.67a1.724 1.724 0 0 1 -1.726 1.724zm-12.079-3.451h10.354v-56.943a1.728 1.728 0 0 0 -1.726-1.726h-6.9a1.728 1.728 0 0 0 -1.728 1.726z"/></g></g></g></g></svg>