<?xml version="1.0" encoding="UTF-8" standalone="no"?>
<!-- Created with Inkscape (http://www.inkscape.org/) -->

<svg
   version="1.1"
   id="svg2094"
   xml:space="preserve"
   width="682.66669"
   height="682.66669"
   viewBox="0 0 682.66669 682.66669"
   xmlns="http://www.w3.org/2000/svg"
   xmlns:svg="http://www.w3.org/2000/svg"><defs
     id="defs2098"><clipPath
       clipPathUnits="userSpaceOnUse"
       id="clipPath2108"><path
         d="M 0,512 H 512 V 0 H 0 Z"
         id="path2106" /></clipPath></defs><g
     id="g2100"
     transform="matrix(1.3333333,0,0,-1.3333333,0,682.66667)"><g
       id="g2102"><g
         id="g2104"
         clip-path="url(#clipPath2108)"><g
           id="g2110"
           transform="translate(481.2197,113.9453)"><path
             d="m 0,0 v -49.3 c 0,-5.53 -4.479,-10 -10,-10 h -430.439 c -5.521,0 -10,4.47 -10,10 V 0 Z"
             style="fill:#ffeed2;fill-opacity:1;fill-rule:nonzero;stroke:none"
             id="path2112" /></g><g
           id="g2114"
           transform="translate(481.2197,113.9453)"><path
             d="m 0,0 v -49.3 c 0,-5.53 -4.479,-10 -10,-10 h -38 c 5.521,0 10,4.47 10,10 V 0 Z"
             style="fill:#fedba6;fill-opacity:1;fill-rule:nonzero;stroke:none"
             id="path2116" /></g><g
           id="g2118"
           transform="translate(481.2197,113.9453)"><path
             d="m 0,0 v -31.02 c -0.07,-0.01 -0.15,-0.01 -0.22,-0.01 h -450 c -0.07,0 -0.15,0 -0.219,0.01 V 0 Z"
             style="fill:#fedba6;fill-opacity:1;fill-rule:nonzero;stroke:none"
             id="path2120" /></g><g
           id="g2122"
           transform="translate(471.2187,54.6421)"><path
             d="m 0,0 h -430.437 c -5.523,0 -10,4.477 -10,10 V 59.301 H 10 V 10 C 10,4.477 5.523,0 0,0 Z"
             style="fill:none;stroke:#000000;stroke-width:15;stroke-linecap:round;stroke-linejoin:round;stroke-miterlimit:10;stroke-dasharray:none;stroke-opacity:1"
             id="path2124" /></g><g
           id="g2126"
           transform="translate(491,423.9199)"><path
             d="m 0,0 v -311 c 0,-5.53 -4.48,-10 -10,-10 h -450 c -5.52,0 -10,4.47 -10,10 V 0 c 0,5.52 4.48,10 10,10 H -10 C -4.48,10 0,5.52 0,0"
             style="fill:#fedba6;fill-opacity:1;fill-rule:nonzero;stroke:none"
             id="path2128" /></g><g
           id="g2130"
           transform="translate(491,423.9155)"><path
             d="m 0,0 v -311 c 0,-5.52 -4.48,-10 -10,-10 h -38 c 5.52,0 10,4.48 10,10 V 0 c 0,5.52 -4.48,10 -10,10 h 38 C -4.48,10 0,5.52 0,0"
             style="fill:#fdc266;fill-opacity:1;fill-rule:nonzero;stroke:none"
             id="path2132" /></g><g
           id="g2134"
           transform="translate(491,339)"><path
             d="m 0,0 v -226.08 c 0,-5.52 -4.48,-10 -10,-10 h -450 c -5.52,0 -10,4.47 -10,10 V 0 Z"
             style="fill:#91deb6;fill-opacity:1;fill-rule:nonzero;stroke:none"
             id="path2136" /></g><g
           id="g2138"
           transform="translate(325.1357,268.4609)"><path
             d="m 0,0 v 17.106 c 0,2.762 2.238,5 5,5 h 78.931 c 2.761,0 5,-2.238 5,-5 V 0 c 0,-2.761 -2.239,-5 -5,-5 H 5 C 2.238,-5 0,-2.761 0,0"
             style="fill:#46cc8d;fill-opacity:1;fill-rule:nonzero;stroke:none"
             id="path2140" /></g><g
           id="g2142"
           transform="translate(97.9336,268.4609)"><path
             d="m 0,0 v 17.106 c 0,2.762 2.238,5 5,5 h 78.931 c 2.761,0 5,-2.238 5,-5 V 0 c 0,-2.761 -2.239,-5 -5,-5 H 5 C 2.238,-5 0,-2.761 0,0"
             style="fill:#46cc8d;fill-opacity:1;fill-rule:nonzero;stroke:none"
             id="path2144" /></g><g
           id="g2146"
           transform="translate(491,339)"><path
             d="m 0,0 v -226.08 c 0,-5.52 -4.48,-10 -10,-10 h -38 c 5.52,0 10,4.48 10,10 V 0 Z"
             style="fill:#46cc8d;fill-opacity:1;fill-rule:nonzero;stroke:none"
             id="path2148" /></g><g
           id="g2150"
           transform="translate(491,391.4155)"><path
             d="m 0,0 v 32.5 c 0,5.523 -4.477,10 -10,10 h -450 c -5.523,0 -10,-4.477 -10,-10 V 0 Z"
             style="fill:#fdc266;fill-opacity:1;fill-rule:nonzero;stroke:none"
             id="path2152" /></g><g
           id="g2154"
           transform="translate(21,186.8364)"><path
             d="m 0,0 v -73.921 c 0,-5.523 4.477,-10 10,-10 h 450 c 5.523,0 10,4.477 10,10 V 84.667"
             style="fill:none;stroke:#000000;stroke-width:15;stroke-linecap:round;stroke-linejoin:round;stroke-miterlimit:10;stroke-dasharray:none;stroke-opacity:1"
             id="path2156" /></g><g
           id="g2158"
           transform="translate(491,305.1636)"><path
             d="m 0,0 v 118.752 c 0,5.523 -4.477,10 -10,10 h -450 c -5.523,0 -10,-4.477 -10,-10 V -84.667"
             style="fill:none;stroke:#000000;stroke-width:15;stroke-linecap:round;stroke-linejoin:round;stroke-miterlimit:10;stroke-dasharray:none;stroke-opacity:1"
             id="path2160" /></g><g
           id="g2162"
           transform="translate(494.5,416.4731)"><path
             d="m 0,0 h -477 c -5.523,0 -10,4.477 -10,10 v 20.885 c 0,5.523 4.477,10 10,10 H 0 c 5.523,0 10,-4.477 10,-10 V 10 C 10,4.477 5.523,0 0,0"
             style="fill:#ffeed2;fill-opacity:1;fill-rule:nonzero;stroke:none"
             id="path2164" /></g><g
           id="g2166"
           transform="translate(504.5,447.3555)"><path
             d="m 0,0 v -20.88 c 0,-5.53 -4.48,-10 -10,-10 h -38 c 5.52,0 10,4.47 10,10 V 0 c 0,5.53 -4.48,10 -10,10 h 38 C -4.48,10 0,5.53 0,0"
             style="fill:#fedba6;fill-opacity:1;fill-rule:nonzero;stroke:none"
             id="path2168" /></g><g
           id="g2170"
           transform="translate(249.8301,416.4731)"><path
             d="m 0,0 h 244.67 c 5.523,0 10,4.477 10,10 v 20.885 c 0,5.523 -4.477,10 -10,10 h -477 c -5.523,0 -10,-4.477 -10,-10 V 10 c 0,-5.523 4.477,-10 10,-10 h 198.67"
             style="fill:none;stroke:#000000;stroke-width:15;stroke-linecap:round;stroke-linejoin:round;stroke-miterlimit:10;stroke-dasharray:none;stroke-opacity:1"
             id="path2172" /></g><g
           id="g2174"
           transform="translate(21,339)"><path
             d="M 0,0 H 470"
             style="fill:none;stroke:#000000;stroke-width:15;stroke-linecap:round;stroke-linejoin:round;stroke-miterlimit:10;stroke-dasharray:none;stroke-opacity:1"
             id="path2176" /></g><g
           id="g2178"
           transform="translate(256,339)"><path
             d="M 0,0 V -233.084"
             style="fill:none;stroke:#000000;stroke-width:15;stroke-linecap:round;stroke-linejoin:round;stroke-miterlimit:10;stroke-dasharray:none;stroke-opacity:1"
             id="path2180" /></g><g
           id="g2182"
           transform="translate(97.9336,286.4609)"><path
             d="m 0,0 v 17.106 c 0,2.762 2.238,5 5,5 h 78.931 c 2.761,0 5,-2.238 5,-5 V 0 c 0,-2.761 -2.239,-5 -5,-5 H 5 C 2.238,-5 0,-2.761 0,0"
             style="fill:#d9e7eb;fill-opacity:1;fill-rule:nonzero;stroke:none"
             id="path2184" /></g><g
           id="g2186"
           transform="translate(97.9336,286.4609)"><path
             d="m 0,0 v 17.106 c 0,2.762 2.238,5 5,5 h 78.931 c 2.761,0 5,-2.238 5,-5 V 0 c 0,-2.761 -2.239,-5 -5,-5 H 5 C 2.238,-5 0,-2.761 0,0 Z"
             style="fill:none;stroke:#000000;stroke-width:15;stroke-linecap:round;stroke-linejoin:round;stroke-miterlimit:10;stroke-dasharray:none;stroke-opacity:1"
             id="path2188" /></g><g
           id="g2190"
           transform="translate(325.1357,286.4609)"><path
             d="m 0,0 v 17.106 c 0,2.762 2.238,5 5,5 h 78.931 c 2.761,0 5,-2.238 5,-5 V 0 c 0,-2.761 -2.239,-5 -5,-5 H 5 C 2.238,-5 0,-2.761 0,0"
             style="fill:#d9e7eb;fill-opacity:1;fill-rule:nonzero;stroke:none"
             id="path2192" /></g><g
           id="g2194"
           transform="translate(325.1357,286.4609)"><path
             d="m 0,0 v 17.106 c 0,2.762 2.238,5 5,5 h 78.931 c 2.761,0 5,-2.238 5,-5 V 0 c 0,-2.761 -2.239,-5 -5,-5 H 5 C 2.238,-5 0,-2.761 0,0 Z"
             style="fill:none;stroke:#000000;stroke-width:15;stroke-linecap:round;stroke-linejoin:round;stroke-miterlimit:10;stroke-dasharray:none;stroke-opacity:1"
             id="path2196" /></g><g
           id="g2198"
           transform="translate(177.6665,416.4756)"><path
             d="M 0,0 V -73.549"
             style="fill:none;stroke:#000000;stroke-width:15;stroke-linecap:round;stroke-linejoin:round;stroke-miterlimit:10;stroke-dasharray:none;stroke-opacity:1"
             id="path2200" /></g><g
           id="g2202"
           transform="translate(334.3335,416.4756)"><path
             d="M 0,0 V -73.549"
             style="fill:none;stroke:#000000;stroke-width:15;stroke-linecap:round;stroke-linejoin:round;stroke-miterlimit:10;stroke-dasharray:none;stroke-opacity:1"
             id="path2204" /></g><g
           id="g2206"
           transform="translate(89.8281,383.6665)"><path
             d="M 0,0 H 20.505"
             style="fill:none;stroke:#000000;stroke-width:15;stroke-linecap:round;stroke-linejoin:round;stroke-miterlimit:10;stroke-dasharray:none;stroke-opacity:1"
             id="path2208" /></g><g
           id="g2210"
           transform="translate(245.7476,383.6665)"><path
             d="M 0,0 H 20.505"
             style="fill:none;stroke:#000000;stroke-width:15;stroke-linecap:round;stroke-linejoin:round;stroke-miterlimit:10;stroke-dasharray:none;stroke-opacity:1"
             id="path2212" /></g><g
           id="g2214"
           transform="translate(401.6665,383.6665)"><path
             d="M 0,0 H 20.505"
             style="fill:none;stroke:#000000;stroke-width:15;stroke-linecap:round;stroke-linejoin:round;stroke-miterlimit:10;stroke-dasharray:none;stroke-opacity:1"
             id="path2216" /></g></g></g></g></svg>
