<svg height="512" viewBox="0 0 64 64" width="512" xmlns="http://www.w3.org/2000/svg"><g id="Fill_1" data-name="Fill 1"><path d="m4 14h56v6h-56z" fill="#74360f"/><g fill="#f5c585"><path d="m6 20h18v30h-18z"/><path d="m24 20h18v30h-18z"/><path d="m42 20h16v15h-16z"/><path d="m42 35h16v15h-16z"/></g></g><g id="Highlight_1" fill="#c68f51" data-name="Highlight 1"><path d="m11.299 47 9.701-16.169v16.169z"/><path d="m29.299 47 9.701-16.169v16.169z"/><path d="m49.586 32 5.414-5.075v5.075z"/><path d="m49.586 47 5.414-5.075v5.075z"/></g><g id="Line"><path d="m48 27h4a1 1 0 0 0 0-2h-4a1 1 0 0 0 0 2z"/><path d="m48 42h4a1 1 0 0 0 0-2h-4a1 1 0 0 0 0 2z"/><path d="m60 13h-6a1 1 0 0 0 0 2h5v4h-54v-4h43a1 1 0 0 0 0-2h-44a1 1 0 0 0 -1 1v6a1 1 0 0 0 1 1h19v28h-16v-23a1 1 0 0 0 -2 0v24a1 1 0 0 0 1 1h36a1 1 0 0 0 1-1v-14h14v13h-9a1 1 0 0 0 0 2h10a1 1 0 0 0 1-1v-29h1a1 1 0 0 0 1-1v-6a1 1 0 0 0 -1-1zm-35 8h16v28h-16zm32 13h-14v-13h14z"/><path d="m30 30a1 1 0 0 0 -1 1v8a1 1 0 0 0 2 0v-8a1 1 0 0 0 -1-1z"/><path d="m19 39v-8a1 1 0 0 0 -2 0v8a1 1 0 0 0 2 0z"/></g></svg>