<svg id="Room" viewBox="0 0 64 64" xmlns="http://www.w3.org/2000/svg"><path d="m58 40.1v-6.1c0-2.21-1.79-4-4-4h-13c-1.2 0-2.27.54-3 1.38-.73-.84-1.8-1.38-3-1.38h-13c-2.21 0-4 1.79-4 4v6.1c-2.28.46-4 2.48-4 4.9v16c0 .55.45 1 1 1h46c.55 0 1-.45 1-1v-16c0-2.41-1.72-4.43-4-4.9zm-17-8.1h13c1.1 0 2 .9 2 2v6.1c-2.28.46-4 2.48-4 4.9v2h-10c-1.13 0-2.16.39-3 1.03v-14.03c0-1.1.9-2 2-2zm-17 20v-3h10c1.65 0 3 1.35 3 3zm28 0h-13c0-1.65 1.35-3 3-3h10zm-30-20h13c1.1 0 2 .9 2 2v14.03c-.84-.63-1.87-1.03-3-1.03h-10v-2c0-2.41-1.72-4.43-4-4.9v-6.1c0-1.1.9-2 2-2zm-6 13c0-1.65 1.35-3 3-3s3 1.35 3 3v15h-6zm8 9h28v6h-28zm36 6h-6v-15c0-1.65 1.35-3 3-3s3 1.35 3 3z"/><path d="m10 6h-6c-1.1 0-2 .9-2 2v10c0 1.1.9 2 2 2h2v36h-1c-1.65 0-3 1.35-3 3v2c0 .55.45 1 1 1h8c.55 0 1-.45 1-1v-2c0-1.65-1.35-3-3-3h-1v-36h2c1.1 0 2-.9 2-2v-10c0-1.1-.9-2-2-2zm0 53v1h-6v-1c0-.55.45-1 1-1h4c.55 0 1 .45 1 1zm-6-41v-10h6v10s-6 0-6 0z"/><path d="m21 26h34c1.65 0 3-1.35 3-3v-14c0-1.65-1.35-3-3-3h-34c-1.65 0-3 1.35-3 3v14c0 1.65 1.35 3 3 3zm34-2h-34c-.55 0-1-.45-1-1v-3.79c1.19.83 2.95 1.69 5.26 1.78h.44c3.84 0 7.89-2.11 12.04-6.29l2.37 4.71c.16.32.48.53.83.55.37.02.7-.15.89-.44.04-.05 3.63-5.31 8.07-5.5 2.12-.09 4.18 1.04 6.1 3.33v5.65c0 .55-.45 1-1 1zm-34-16h34c.55 0 1 .45 1 1v5.47c-1.92-1.71-3.99-2.53-6.19-2.44-3.91.17-7.08 3.25-8.63 5.07l-2.29-4.55c-.15-.29-.43-.5-.75-.54s-.65.07-.87.31c-4.24 4.57-8.23 6.81-11.89 6.67-2.97-.11-4.8-1.78-5.38-2.4v-7.6c0-.55.45-1 1-1z"/></svg>