<?xml version="1.0" encoding="iso-8859-1"?>
<!-- Generator: Adobe Illustrator 19.0.0, SVG Export Plug-In . SVG Version: 6.00 Build 0)  -->
<svg xmlns="http://www.w3.org/2000/svg" xmlns:xlink="http://www.w3.org/1999/xlink" version="1.1" id="Capa_1" x="0px" y="0px" viewBox="0 0 512 512" style="enable-background:new 0 0 512 512;" xml:space="preserve" width="512" height="512">
<g>
	<polygon style="fill:#FF9100;" points="512,0 256,0 256,0 235.984,120.084 256,256 339.667,200.148 384,128  "/>
	<polygon style="fill:#D10050;" points="256,256 256,256 256,256  "/>
	<polygon style="fill:#D10050;" points="256,256 256,256 256,256  "/>
	<polygon style="fill:#FFDE55;" points="256,0 128,128 167,205.667 256,256 256,256  "/>
	<polygon style="fill:#FFF79F;" points="0.001,256 128,279.667 256,256 0,0  "/>
	<polygon style="fill:#00CC76;" points="0.001,256 128,384 197.667,347.667 256,256  "/>
	<polygon style="fill:#CCFC5C;" points="0,512 256,512 273,384 256,256 256,256  "/>
	<polygon style="fill:#2682FF;" points="384,384 335.667,311.667 256,256 256,512  "/>
	<polygon style="fill:#8CBCFF;" points="512,512 512,256 384,225 256,256 256,256  "/>
	<polygon style="fill:#FF3939;" points="256,256 256,256 512,256 384,128  "/>
</g>















</svg>
