<svg xmlns="http://www.w3.org/2000/svg" xmlns:xlink="http://www.w3.org/1999/xlink" width="100" zoomAndPan="magnify" viewBox="0 0 75 74.999997" height="100" preserveAspectRatio="xMidYMid meet" version="1.0"><path stroke-linecap="butt" transform="matrix(0.75, 0, 0, 0.75, 4.949183, 24.524889)" fill="none" stroke-linejoin="miter" d="M 0.0000471122 0.998065 L 86.802138 0.998065 " stroke="#000000" stroke-width="2" stroke-opacity="1" stroke-miterlimit="4"/><path stroke-linecap="butt" transform="matrix(0.75, 0, 0, 0.75, 10.199266, 48.975105)" fill="none" stroke-linejoin="miter" d="M -0.0000623961 1.001943 L 79.802027 1.001943 " stroke="#000000" stroke-width="2" stroke-opacity="1" stroke-miterlimit="4"/><path stroke-linecap="butt" transform="matrix(0.75, 0, 0, 0.75, 4.199183, 24.524889)" fill="none" stroke-linejoin="miter" d="M 1.000047 -0.00193533 L 1.000047 13.800149 C 1.000047 15.732441 2.567756 17.300149 4.500047 17.300149 C 6.432339 17.300149 8.000048 18.867858 8.000048 20.80015 L 8.000048 34.602234 " stroke="#000000" stroke-width="2" stroke-opacity="1" stroke-miterlimit="4"/><path stroke-linecap="butt" transform="matrix(0, 0.75, -0.75, 0, 70.798361, 24.527341)" fill="none" stroke-linejoin="miter" d="M 0.00000388409 1.001982 L 34.598965 1.001982 " stroke="#000000" stroke-width="2" stroke-opacity="1" stroke-miterlimit="4"/><path stroke-linecap="butt" transform="matrix(0.75, 0, 0, 0.75, 10.199266, 44.924842)" fill="none" stroke-linejoin="miter" d="M -0.0000623961 1.001253 L 79.802027 1.001253 " stroke="#000000" stroke-width="2" stroke-opacity="1" stroke-miterlimit="4"/><path stroke-linecap="butt" transform="matrix(0.75, 0, 0, 0.75, 5.09763, 29.474414)" fill="none" stroke-linejoin="miter" d="M 0.0000345151 0.997656 L 86.604208 0.997656 " stroke="#000000" stroke-width="2" stroke-opacity="1" stroke-miterlimit="4"/></svg>