<svg enable-background="new 0 0 66 66" height="512" viewBox="0 0 66 66" width="512" xmlns="http://www.w3.org/2000/svg"><g id="icons"><g style="fill:none;stroke:#000;stroke-width:2;stroke-linecap:round;stroke-linejoin:round;stroke-miterlimit:10"><g><g><path d="m64 33.3c0-8.4-7.3-15.1-15.9-14.2-6.5.7-11.5 5.6-12.5 12-.7 4.7.9 9 3.8 12 3.2 3.3 4.9 7.8 4.9 12.4v.2h10.9c0-4.7 1.7-9.3 4.9-12.8 2.5-2.5 3.9-5.9 3.9-9.6z"/><path d="m54.6 59.7h-9.8c-.8 0-1.5-.7-1.5-1.5v-1c0-.8.7-1.5 1.5-1.5h9.8c.8 0 1.5.7 1.5 1.5v1c0 .8-.6 1.5-1.5 1.5z"/><path d="m55 59.8v.1 1.8c0 1.3-1 2.3-2.3 2.3h-6c-1.3 0-2.3-1-2.3-2.3v-1.7-.1"/></g><path d="m47.9 55.7v-12.2l-4.6-4.6h12.8l-4.5 4.6v12.2"/></g><g><g><path d="m30.5 16.3c0-8.4-7.3-15.1-15.9-14.2-6.4.7-11.5 5.5-12.4 12-.7 4.7.9 9 3.8 12 3.2 3.3 4.9 7.8 4.9 12.4v.2h10.9c0-4.7 1.7-9.3 4.9-12.8 2.4-2.5 3.8-5.9 3.8-9.6z"/><path d="m21.2 42.7h-9.8c-.8 0-1.5-.7-1.5-1.5v-1c0-.8.7-1.5 1.5-1.5h9.8c.8 0 1.5.7 1.5 1.5v1c0 .8-.7 1.5-1.5 1.5z"/><path d="m21.6 42.8v.1 1.8c0 1.3-1 2.3-2.3 2.3h-6c-1.3 0-2.3-1-2.3-2.3v-1.7-.1"/></g><path d="m14.4 38.7v-12.2l-4.5-4.6h12.8l-4.6 4.6v12.2"/></g><path d="m57.2 9.1-.8 2.8-3.5-6.4 6.4-3.5-.7 2.3c4.2 2 6.3 6.8 5.1 11.2-1.5-2.7-3.7-4.9-6.5-6.4z"/><path d="m8.8 56.9.8-2.8 3.5 6.4-6.4 3.5.7-2.3c-4.2-2-6.3-6.8-5.1-11.2 1.5 2.7 3.7 4.9 6.5 6.4z"/></g></g></svg>