<svg enable-background="new 0 0 512 512" viewBox="0 0 512 512" xmlns="http://www.w3.org/2000/svg"><g id="_x30_4_Chandelier"><g><path d="m56.936 69.774h17.259v48.394c0 12.764 10.383 23.149 23.149 23.149h23.728v242.012c-31.347 2.657-56.157 28.957-56.157 61.1 0 33.837 27.525 61.366 61.361 61.366s61.366-27.53 61.366-61.366c0-31.689-24.31-58.395-56.162-61.1v-242.012h119.313v176.877c-31.637 2.682-56.157 29.207-56.157 61.1 0 33.837 27.525 61.366 61.361 61.366s61.367-27.53 61.367-61.366c0-10.523-2.668-20.431-7.354-29.095-.027-.055-.036-.116-.065-.17-.152-.28-.352-.522-.508-.799-9.825-17.387-27.847-29.305-48.235-31.036v-176.877h119.313v242.012c-31.691 2.687-56.162 29.246-56.162 61.1 0 33.837 27.53 61.366 61.367 61.366s61.366-27.53 61.366-61.366c0-31.88-24.513-58.413-56.162-61.1v-242.012h23.733c12.761 0 23.144-10.385 23.144-23.149v-48.394h17.264c12.766 0 23.149-10.385 23.149-23.149v-22c0-10.157-8.264-18.42-18.423-18.42h-407.581c-10.159 0-18.423 8.264-18.423 18.42v22c0 12.763 10.383 23.149 23.149 23.149zm115.44 353.082c3.084 6.562 4.859 13.856 4.859 21.574 0 28.099-22.859 50.958-50.958 50.958-28.094 0-50.953-22.859-50.953-50.958 0-7.717 1.775-15.011 4.859-21.574zm-6.484-10.408h-79.226c9.94-12.323 24.961-18.974 39.611-18.974 15.481 0 30.287 7.409 39.615 18.974zm136.205-54.727c3.084 6.562 4.859 13.856 4.859 21.574 0 28.099-22.859 50.958-50.958 50.958-28.094 0-50.953-22.859-50.953-50.958 0-7.717 1.775-15.011 4.859-21.574zm-6.484-10.408h-79.227c9.94-12.323 24.961-18.974 39.611-18.974 15.768 0 30.366 7.506 39.616 18.974zm136.205 75.543c3.084 6.562 4.859 13.856 4.859 21.574 0 28.099-22.859 50.958-50.958 50.958s-50.958-22.859-50.958-50.958c0-7.717 1.775-15.011 4.859-21.574zm-6.484-10.408h-79.231c9.174-11.381 23.862-18.974 39.616-18.974 15.019 0 29.907 6.938 39.615 18.974zm2.058-294.28c0 7.026-5.712 12.741-12.736 12.741h-317.312c-7.023 0-12.741-5.715-12.741-12.741v-48.394h342.788v48.394zm-383.197-93.544c0-4.419 3.593-8.012 8.014-8.012h407.58c4.421 0 8.014 3.593 8.014 8.012v22c0 7.026-5.717 12.741-12.741 12.741-161.287 0-227.463 0-398.128 0-7.023 0-12.741-5.715-12.741-12.741v-22z"/></g></g><g id="Layer_1"/></svg>