<?xml version="1.0" encoding="UTF-8" standalone="no"?>
<!-- Created with Inkscape (http://www.inkscape.org/) -->

<svg
   version="1.1"
   id="svg1065"
   xml:space="preserve"
   width="682.66669"
   height="682.66669"
   viewBox="0 0 682.66669 682.66669"
   xmlns="http://www.w3.org/2000/svg"
   xmlns:svg="http://www.w3.org/2000/svg"><defs
     id="defs1069"><clipPath
       clipPathUnits="userSpaceOnUse"
       id="clipPath1079"><path
         d="M 0,512 H 512 V 0 H 0 Z"
         id="path1077" /></clipPath></defs><g
     id="g1071"
     transform="matrix(1.3333333,0,0,-1.3333333,0,682.66667)"><g
       id="g1073"><g
         id="g1075"
         clip-path="url(#clipPath1079)"><g
           id="g1081"
           transform="translate(199.2373,246.8223)"><path
             d="m 0,0 v -25.426 c 0,-9.758 7.993,-17.762 17.801,-17.762 h 77.924 c 9.779,0 17.8,8.004 17.8,17.762 V 0"
             style="fill:none;stroke:#000000;stroke-width:20;stroke-linecap:round;stroke-linejoin:round;stroke-miterlimit:10;stroke-dasharray:none;stroke-opacity:1"
             id="path1083" /></g><g
           id="g1085"
           transform="translate(208.0244,501.4531)"><path
             d="M 0,0 V -21.834 C 0,-33.826 9.836,-43.669 21.883,-43.669 H 74.04 c 12.047,0 21.883,9.843 21.883,21.835 V 0"
             style="fill:none;stroke:#000000;stroke-width:20;stroke-linecap:round;stroke-linejoin:round;stroke-miterlimit:10;stroke-dasharray:none;stroke-opacity:1"
             id="path1087" /></g><g
           id="g1089"
           transform="translate(304.9961,417.3398)"><path
             d="M 0,0 H -98.021"
             style="fill:none;stroke:#000000;stroke-width:20;stroke-linecap:round;stroke-linejoin:round;stroke-miterlimit:10;stroke-dasharray:none;stroke-opacity:1"
             id="path1091" /></g><g
           id="g1093"
           transform="translate(339.0107,296.2324)"><path
             d="m 0,0 c 13.437,17.592 21.969,39.511 21.969,63.212 v 96.869 c 0,24.833 -20.353,45.14 -45.212,45.14 h -119.535 c -24.888,0 -45.241,-20.307 -45.241,-45.14 V 63.212 c 0,-23.701 8.561,-45.62 21.969,-63.212"
             style="fill:none;stroke:#000000;stroke-width:20;stroke-linecap:round;stroke-linejoin:round;stroke-miterlimit:10;stroke-dasharray:none;stroke-opacity:1"
             id="path1095" /></g><g
           id="g1097"
           transform="translate(137.5,145.3149)"><path
             d="M 0,0 26.985,-35.184 0,-70.368 26.985,-105.523"
             style="fill:none;stroke:#000000;stroke-width:20;stroke-linecap:round;stroke-linejoin:round;stroke-miterlimit:10;stroke-dasharray:none;stroke-opacity:1"
             id="path1099" /></g><g
           id="g1101"
           transform="translate(374.5,145.3149)"><path
             d="M 0,0 -27.014,-35.184 0,-70.368 -27.014,-105.523"
             style="fill:none;stroke:#000000;stroke-width:20;stroke-linecap:round;stroke-linejoin:round;stroke-miterlimit:10;stroke-dasharray:none;stroke-opacity:1"
             id="path1103" /></g><g
           id="g1105"
           transform="translate(304.4287,376.895)"><path
             d="M 0,0 H -97.991"
             style="fill:none;stroke:#000000;stroke-width:20;stroke-linecap:round;stroke-linejoin:round;stroke-miterlimit:10;stroke-dasharray:none;stroke-opacity:1"
             id="path1107" /></g><g
           id="g1109"
           transform="translate(281.2988,246.7939)"><path
             d="m 0,0 v 64.4 c 0,13.887 -11.396,25.257 -25.313,25.257 -13.917,0 -25.285,-11.37 -25.285,-25.257 V 0"
             style="fill:none;stroke:#000000;stroke-width:20;stroke-linecap:round;stroke-linejoin:round;stroke-miterlimit:10;stroke-dasharray:none;stroke-opacity:1"
             id="path1111" /></g><g
           id="g1113"
           transform="translate(230.7012,296.2324)"><path
             d="m 0,0 h -57.74 v -32.016 c 0,-9.56 7.851,-17.394 17.432,-17.394 H 90.905 c 9.581,0 17.405,7.834 17.405,17.394 L 108.31,0 H 50.598"
             style="fill:none;stroke:#000000;stroke-width:20;stroke-linecap:round;stroke-linejoin:round;stroke-miterlimit:10;stroke-dasharray:none;stroke-opacity:1"
             id="path1115" /></g><g
           id="g1117"
           transform="translate(360.9795,449.0449)"><path
             d="m 0,0 h 33.448 c 6.349,0 11.508,-5.176 11.508,-11.483 v -49.382 c 0,-6.307 -5.159,-11.454 -11.508,-11.454 H 0"
             style="fill:none;stroke:#000000;stroke-width:20;stroke-linecap:round;stroke-linejoin:round;stroke-miterlimit:10;stroke-dasharray:none;stroke-opacity:1"
             id="path1119" /></g><g
           id="g1121"
           transform="translate(405.9355,435.0732)"><path
             d="m 0,0 h 73.813 c 12.246,0 22.251,-9.984 22.251,-22.202 0,-12.19 -10.005,-22.174 -22.251,-22.174 H 0"
             style="fill:none;stroke:#000000;stroke-width:20;stroke-linecap:round;stroke-linejoin:round;stroke-miterlimit:10;stroke-dasharray:none;stroke-opacity:1"
             id="path1123" /></g><g
           id="g1125"
           transform="translate(150.9922,449.0449)"><path
             d="m 0,0 h -33.448 c -6.321,0 -11.508,-5.176 -11.508,-11.483 v -49.382 c 0,-6.307 5.187,-11.454 11.508,-11.454 H 0"
             style="fill:none;stroke:#000000;stroke-width:20;stroke-linecap:round;stroke-linejoin:round;stroke-miterlimit:10;stroke-dasharray:none;stroke-opacity:1"
             id="path1127" /></g><g
           id="g1129"
           transform="translate(106.0361,435.0732)"><path
             d="m 0,0 h -73.813 c -12.217,0 -22.223,-9.984 -22.223,-22.202 0,-12.19 10.006,-22.174 22.223,-22.174 H 0"
             style="fill:none;stroke:#000000;stroke-width:20;stroke-linecap:round;stroke-linejoin:round;stroke-miterlimit:10;stroke-dasharray:none;stroke-opacity:1"
             id="path1131" /></g><g
           id="g1133"
           transform="translate(281.8652,89.3711)"><path
             d="m 0,0 v -12.331 l 11.82,-26.332 -23.498,-40.161 h -28.375 l -23.526,40.161 11.849,26.332 v 126.594 m 51.73,0 V 89.629 M 0,44.857 v -0.028"
             style="fill:none;stroke:#000000;stroke-width:20;stroke-linecap:round;stroke-linejoin:round;stroke-miterlimit:10;stroke-dasharray:none;stroke-opacity:1"
             id="path1135" /></g></g></g></g></svg>
