<svg id="Layer_1" enable-background="new 0 0 500 500" viewBox="0 0 500 500" xmlns="http://www.w3.org/2000/svg"><g><path d="m430.372 86.755h-360.736c-4.179 0-7.569-3.39-7.569-7.569v-46.617c0-4.178 3.39-7.569 7.569-7.569h360.737c4.179 0 7.569 3.39 7.569 7.569v46.618c-.001 4.178-3.391 7.568-7.57 7.568zm-353.167-15.137h345.599v-31.481h-345.599z"/><path d="m339.969 119.369h-179.929c-4.178 0-7.569-3.391-7.569-7.569v-32.613c0-4.179 3.39-7.569 7.569-7.569h179.93c4.178 0 7.568 3.39 7.568 7.569v32.613c-.001 4.178-3.391 7.569-7.569 7.569zm-172.361-15.137h164.792v-17.477h-164.792z"/><path d="m430.372 475h-360.736c-4.179 0-7.569-3.39-7.569-7.569v-45.805c0-4.179 3.39-7.569 7.569-7.569h360.737c4.179 0 7.569 3.39 7.569 7.569v45.805c-.001 4.179-3.391 7.569-7.57 7.569zm-353.167-15.137h345.599v-30.668h-345.599z"/><path d="m330.784 349.331c-48.671 0-88.27-39.599-88.27-88.261s39.599-88.261 88.27-88.261c48.661 0 88.261 39.599 88.261 88.261s-39.6 88.261-88.261 88.261zm0-161.385c-40.331 0-73.133 32.802-73.133 73.124s32.802 73.124 73.133 73.124c40.322 0 73.124-32.802 73.124-73.124s-32.803-73.124-73.124-73.124z"/><path d="m169.226 379.334c-65.212 0-118.265-53.053-118.265-118.264s53.053-118.264 118.265-118.264c14.735 0 29.256 2.774 43.153 8.241 2.898 1.142 4.802 3.932 4.802 7.043-.008 3.111-1.912 5.903-4.802 7.043-39.788 15.622-65.498 53.275-65.498 95.937 0 42.661 25.71 80.315 65.498 95.937 2.898 1.141 4.802 3.932 4.802 7.043s-1.904 5.902-4.802 7.043c-13.922 5.466-28.443 8.241-43.153 8.241zm0-221.392c-56.863 0-103.128 46.265-103.128 103.128 0 56.862 46.265 103.127 103.128 103.127 6.616 0 13.191-.64 19.676-1.921-35.257-21.137-57.158-59.038-57.158-101.206 0-42.169 21.901-80.077 57.158-101.206-6.477-1.282-13.052-1.922-19.676-1.922z"/><path d="m169.226 349.331c-48.662 0-88.261-39.599-88.261-88.261s39.599-88.261 88.261-88.261c1.42 0 2.807.09 4.195.189l1.158.073c3.012.181 5.622 2.134 6.649 4.975 1.034 2.833.279 6.009-1.913 8.078-20.915 19.742-32.433 46.363-32.433 74.946s11.518 55.204 32.433 74.946c2.192 2.069 2.947 5.245 1.913 8.077-1.027 2.84-3.637 4.795-6.649 4.975l-1.158.074c-1.388.098-2.776.189-4.195.189zm-12.987-160.236c-34.149 6.148-60.138 36.086-60.138 71.975s25.989 65.826 60.138 71.975c-15.9-20.546-24.495-45.526-24.495-71.975s8.594-51.429 24.495-71.975z"/><path d="m250 379.334c-65.202 0-118.256-53.053-118.256-118.264s53.053-118.264 118.256-118.264c14.727 0 29.248 2.774 43.154 8.233 2.897 1.142 4.802 3.932 4.802 7.043 0 3.112-1.905 5.903-4.802 7.043-39.788 15.621-65.498 53.284-65.498 95.945s25.71 80.315 65.498 95.937c2.897 1.141 4.802 3.932 4.802 7.043s-1.905 5.902-4.802 7.043c-13.922 5.466-28.444 8.241-43.154 8.241zm0-221.392c-56.862 0-103.119 46.265-103.119 103.128 0 56.862 46.257 103.127 103.119 103.127 6.616 0 13.192-.64 19.676-1.921-35.257-21.137-57.158-59.038-57.158-101.206 0-42.169 21.901-80.069 57.158-101.206-6.484-1.282-13.06-1.922-19.676-1.922z"/><path d="m250 349.331c-48.661 0-88.261-39.599-88.261-88.261s39.6-88.261 88.261-88.261c1.412 0 2.799.09 4.187.189l1.165.073c3.013.181 5.632 2.134 6.657 4.975 1.035 2.833.279 6.009-1.921 8.078-20.916 19.742-32.433 46.355-32.433 74.946 0 28.592 11.517 55.204 32.433 74.946 2.2 2.069 2.956 5.245 1.921 8.077-1.026 2.84-3.645 4.795-6.657 4.975l-1.165.074c-1.388.098-2.775.189-4.187.189zm-12.978-160.236c-34.157 6.141-60.146 36.078-60.146 71.975s25.989 65.835 60.146 71.975c-15.909-20.546-24.504-45.518-24.504-71.975 0-26.458 8.595-51.429 24.504-71.975z"/><path d="m330.784 379.334c-65.211 0-118.265-53.053-118.265-118.264s53.054-118.264 118.265-118.264c65.202 0 118.256 53.053 118.256 118.264-.001 65.211-53.054 118.264-118.256 118.264zm0-221.392c-56.863 0-103.128 46.265-103.128 103.128 0 56.862 46.265 103.127 103.128 103.127 56.862 0 103.119-46.265 103.119-103.127 0-56.863-46.257-103.128-103.119-103.128z"/><path d="m430.372 429.195h-360.736c-4.179 0-7.569-3.391-7.569-7.569v-45.641c0-4.179 3.39-7.569 7.569-7.569 4.178 0 7.569 3.39 7.569 7.569v38.072h345.599v-38.072c0-4.179 3.391-7.569 7.569-7.569 4.179 0 7.569 3.39 7.569 7.569v45.641c-.001 4.178-3.391 7.569-7.57 7.569z"/><path d="m430.372 149.823c-4.178 0-7.569-3.39-7.569-7.569v-55.5h-345.598v55.5c0 4.178-3.39 7.569-7.569 7.569s-7.569-3.39-7.569-7.569v-63.067c0-4.179 3.39-7.569 7.569-7.569h360.737c4.179 0 7.569 3.39 7.569 7.569v63.068c-.001 4.178-3.391 7.568-7.57 7.568z"/></g></svg>