<svg id="Capa_1" enable-background="new 0 0 497 497" height="512" viewBox="0 0 497 497" width="512" xmlns="http://www.w3.org/2000/svg"><g><path d="m492.77 5.695v25c0 2.77-2.24 5-5 5h-30c2.76 0 5-2.23 5-5v-25c0-2.76-2.24-5-5-5h30c2.76 0 5 2.24 5 5z" fill="#fe646f"/><path d="m333.244 161.816h-35v-73.26c0-48.522 39.335-87.857 87.857-87.857h81.665c2.761 0 5 2.239 5 5v25c0 2.762-2.239 5-5 5h-81.666c-29.192 0-52.857 23.665-52.857 52.857v73.26z" fill="#fd8087"/><path d="m163.756 161.816h35l-10-73.26c0-48.522-39.335-87.857-87.857-87.857h-7.999-83.666c-2.761 0-5 2.239-5 5v25c0 2.762 2.239 5 5 5h101.666c29.192 0 52.857 23.665 52.857 52.857v73.26z" fill="#6bd9e7"/><path d="m198.76 88.555v73.26h-18v-73.26c0-48.52-39.34-87.86-87.86-87.86h18c48.52 0 87.86 39.34 87.86 87.86z" fill="#2ed1e2"/><path d="m248 159.014h-12c-2.761 0-5-2.239-5-5v-148.315c0-2.761 2.239-5 5-5h12c2.761 0 5 2.239 5 5v148.315c0 2.762-2.239 5-5 5z" fill="#bbec6c"/><path d="m266 5.695v148.32c0 2.76-2.24 5-5 5h-17c2.76 0 5-2.24 5-5v-148.32c0-2.76-2.24-5-5-5h17c2.76 0 5 2.24 5 5z" fill="#a2e62e"/><path d="m452 496.305h-417c-19.33 0-35-15.67-35-35v-317.68c0-19.33 15.67-35 35-35h417c19.33 0 35 15.67 35 35v317.68c0 19.33-15.67 35-35 35z" fill="#cbc4cc"/><path d="m462 108.625h-30c19.33 0 35 15.67 35 35v317.68c0 19.33-15.67 35-35 35h30c19.33 0 35-15.67 35-35v-317.68c0-19.33-15.67-35-35-35z" fill="#b5adb6"/><path d="m411.859 449.861h-336.718c-15.696 0-28.42-12.724-28.42-28.42v-237.952c0-15.696 12.724-28.42 28.42-28.42h336.719c15.696 0 28.42 12.724 28.42 28.42v237.952c-.001 15.696-12.725 28.42-28.421 28.42z" fill="#f3f0f3"/><path d="m421.859 155.069h-30c15.696 0 28.42 12.724 28.42 28.419v237.952c0 15.696-12.724 28.419-28.42 28.419h30c15.696 0 28.42-12.724 28.42-28.419v-237.951c0-15.696-12.724-28.42-28.42-28.42z" fill="#e2dee2"/><path d="m395.457 385.701h-293.914c-5.523 0-10-4.477-10-10v-154.871c0-5.523 4.477-10 10-10h293.913c5.523 0 10 4.477 10 10v154.871c.001 5.523-4.477 10-9.999 10z" fill="#7a6d79"/><g fill="#f3f0f3"><path d="m196.181 411.895c-4.142 0-7.5-3.357-7.5-7.5v-214.188c0-4.143 3.358-7.5 7.5-7.5s7.5 3.357 7.5 7.5v214.188c0 4.142-3.358 7.5-7.5 7.5z"/><path d="m300.819 411.895c-4.142 0-7.5-3.357-7.5-7.5v-214.188c0-4.143 3.358-7.5 7.5-7.5s7.5 3.357 7.5 7.5v214.188c0 4.142-3.358 7.5-7.5 7.5z"/><path d="m143.862 346.302c-4.142 0-7.5-3.357-7.5-7.5v-71.073c0-4.142 3.358-7.5 7.5-7.5s7.5 3.358 7.5 7.5v71.073c0 4.143-3.358 7.5-7.5 7.5z"/></g><path d="m146.702 279.357h-19.679c-2.761 0-5-2.239-5-5v-19.128c0-2.761 2.239-5 5-5h19.679c2.761 0 5 2.239 5 5v19.128c0 2.761-2.239 5-5 5z" fill="#cbc4cc"/><path d="m248.5 336.302c-4.142 0-7.5-3.357-7.5-7.5v-71.073c0-4.142 3.358-7.5 7.5-7.5s7.5 3.357 7.5 7.5v71.073c0 4.143-3.358 7.5-7.5 7.5z" fill="#f3f0f3"/><path d="m353.138 346.302c-4.142 0-7.5-3.357-7.5-7.5v-71.073c0-4.142 3.358-7.5 7.5-7.5s7.5 3.358 7.5 7.5v71.073c0 4.143-3.358 7.5-7.5 7.5z" fill="#f3f0f3"/><path d="m352.977 279.357h-16.679c-2.761 0-5-2.239-5-5v-19.128c0-2.761 2.239-5 5-5h16.679c2.761 0 5 2.239 5 5v19.128c0 2.761-2.238 5-5 5z" fill="#cbc4cc"/><path d="m374.98 255.225v19.13c0 2.76-2.24 5-5 5h-20c2.76 0 5-2.24 5-5v-19.13c0-2.76-2.24-5-5-5h20c2.76 0 5 2.24 5 5z" fill="#b5adb6"/><path d="m253.34 346.302h-21.68c-2.761 0-5-2.239-5-5v-19.128c0-2.761 2.239-5 5-5h21.679c2.761 0 5 2.239 5 5v19.128c.001 2.762-2.238 5-4.999 5z" fill="#cbc4cc"/><path d="m270.34 322.173v19.13c0 2.76-2.24 5-5 5h-20c2.76 0 5-2.24 5-5v-19.13c0-2.76-2.24-5-5-5h20c2.76 0 5 2.24 5 5z" fill="#b5adb6"/><path d="m165.702 255.228v19.13c0 2.76-2.24 5-5 5h-20c2.76 0 5-2.24 5-5v-19.13c0-2.76-2.24-5-5-5h20c2.76 0 5 2.24 5 5z" fill="#b5adb6"/></g></svg>