<svg id="Layer_2" enable-background="new 0 0 512 512" viewBox="0 0 512 512" xmlns="http://www.w3.org/2000/svg"><g transform="translate(-1124 -1686)"><g transform="matrix(.98 0 0 .98 28.163 39.633)"><g id="Icons_00000034084887627612907730000012603982704099131288_"><path clip-rule="evenodd" d="m1193.97 2156.139h-31.36c-2.76 0-5 2.24-5 5v20.861c0 2.76 2.24 5 5 5h321.28c2.77 0 5-2.24 5-5v-20.86c0-2.76-2.23-5-5-5h-31.36v-22.96c66.026 34.941 151.764-17.292 149.858-92.632 1.911-75.315-83.846-127.598-149.858-92.628v-231.28c0-10.85-8.79-19.64-19.64-19.64-44.08 0-175.2 0-219.28 0-10.85 0-19.64 8.79-19.64 19.64zm4.99 10h-31.35v10.861h311.28v-10.86h-31.36c0-.001-248.568-.001-248.57-.001zm243.57-274.559v-174.94c0-5.32-4.31-9.64-9.64-9.64h-219.28c-5.33 0-9.64 4.32-9.64 9.64v439.5h19.24v-214.57c0-2.76 2.24-5 5-5h81.88c2.76 0 5 2.24 5 5v214.57h16.32v-214.57c0-2.76 2.24-5 5-5h62.26v-12.5h-62.26c-2.76 0-5-2.24-5-5v-62.98c0-2.76 2.24-5 5-5h81.88c2.76 0 5 2.24 5 5v35.49zm-209.32 264.559v-209.57h71.88v209.57zm108.2 0h71.88v-57.27c-22.47-31.041-23.9-79.415-3.11-111.81-4.289-.141-11.251 1.352-11.51-5v-35.49h-57.26zm81.88-44.809v44.81h19.24v-28.7c-7.05-4.58-13.51-9.991-19.24-16.11zm75.55-164.33c123.375 3.174 123.35 183.944-.003 187.1-123.37-3.181-123.345-183.938.003-187.1zm-24.46 121.85v47.13c0 2.76 2.24 5 5 5h38.93c2.76 0 5-2.24 5-5v-47.13c39.011-19.167 38.389-77.676-.981-96.03-1.549-.75-3.379-.66-4.839.26-1.47.91-2.35 2.51-2.35 4.24v42.41h-32.59v-42.41c0-1.73-.89-3.33-2.35-4.24-1.46-.92-3.29-1.01-4.84-.26-39.377 18.347-39.978 76.889-.98 96.03zm38.93 3.92c-9.119 2.625-19.807 2.627-28.93 0v38.21h28.93zm-40.76-86.54v38.5c0 2.77 2.24 5 5 5h42.59c2.76 0 5-2.23 5-5v-38.5c33.061 24.158 15.248 78.978-26.301 78.52-41.542.457-59.349-54.376-26.289-78.52zm-30.02-84.65h-33.86v75.48h8.39c7.12-9.15 15.73-17.07 25.47-23.4zm-21.93 17.49v12.5c.03 6.535 9.97 6.541 10 0v-12.5c-.031-6.535-9.97-6.541-10 0zm-105.51-62.98c0-2.76-2.24-5-5-5h-81.88c-2.76 0-5 2.24-5 5v62.98c0 2.76 2.24 5 5 5h81.88c2.76 0 5-2.24 5-5zm-10 5v52.98h-71.88v-52.98zm108.2 30.49v-30.49h-71.88v52.98h57.26v-17.49c0-2.76 2.24-5 5-5zm10-152.76c0-2.77-2.24-5-5-5h-190.08c-2.76 0-5 2.23-5 5v88.03c0 2.76 2.24 5 5 5h190.08c2.76 0 5-2.24 5-5zm-105.04 5v78.03h-85.04v-78.03zm10 0h85.04v78.03h-85.04z" fill-rule="evenodd"/></g></g></g></svg>