<?xml version="1.0"?>
<svg xmlns="http://www.w3.org/2000/svg" viewBox="0 0 64 64"><title/><g data-name="Layer 9" id="Layer_9"><path d="M27,5H25V2a1,1,0,0,0-1-1H18a1,1,0,0,0-1,1V5H15a4,4,0,0,0-4,4v7a1,1,0,0,0,1,1h1V47H12a1,1,0,0,0-1,1v7a4,4,0,0,0,4,4h2v3a1,1,0,0,0,1,1h6a1,1,0,0,0,1-1V59h2a4,4,0,0,0,4-4V48a1,1,0,0,0-1-1H29V17h1a1,1,0,0,0,1-1V9A4,4,0,0,0,27,5ZM19,3h4V5H19ZM15,17h5v.59l-1.71,1.7a1,1,0,0,0,0,1.42L20.59,23l-2.3,2.29a1,1,0,0,0,0,1.42L20.59,29l-2.3,2.29a1,1,0,0,0,0,1.42L20.59,35l-1.8,1.79a1,1,0,0,0,0,1.42L20.59,40l-2.3,2.29a1,1,0,0,0,0,1.42L20,45.41V47H15Zm8,44H19V59h4Zm6-6a2,2,0,0,1-2,2H15a2,2,0,0,1-2-2V49H29Zm-2-8H22V45a1,1,0,0,0-.29-.71L20.41,43l2.3-2.29a1,1,0,0,0,0-1.42l-1.8-1.79,1.8-1.79a1,1,0,0,0,0-1.42L20.41,32l2.3-2.29a1,1,0,0,0,0-1.42L20.41,26l2.3-2.29a1,1,0,0,0,0-1.42L20.41,20l1.3-1.29A1,1,0,0,0,22,18V17h5Zm2-32H13V9a2,2,0,0,1,2-2H27a2,2,0,0,1,2,2Z"/><path d="M52,17a1,1,0,0,0,1-1V9a4,4,0,0,0-4-4H47V2a1,1,0,0,0-1-1H40a1,1,0,0,0-1,1V5H37a4,4,0,0,0-4,4v7a1,1,0,0,0,1,1h1V47H34a1,1,0,0,0-1,1v7a4,4,0,0,0,4,4h2v3a1,1,0,0,0,1,1h6a1,1,0,0,0,1-1V59h2a4,4,0,0,0,4-4V48a1,1,0,0,0-1-1H51V17ZM41,3h4V5H41ZM35,9a2,2,0,0,1,2-2H49a2,2,0,0,1,2,2v6H35Zm2,8h5v.59l-1.71,1.7a1,1,0,0,0,0,1.42L42.59,23l-2.3,2.29a1,1,0,0,0,0,1.42L42.59,29l-2.3,2.29a1,1,0,0,0,0,1.42L42.59,35l-1.8,1.79a1,1,0,0,0,0,1.42L42.59,40l-2.3,2.29a1,1,0,0,0,0,1.42L42,45.41V47H37Zm8,44H41V59h4Zm6-6a2,2,0,0,1-2,2H37a2,2,0,0,1-2-2V49H51Zm-2-8H44V45a1,1,0,0,0-.29-.71L42.41,43l2.3-2.29a1,1,0,0,0,0-1.42l-1.8-1.79,1.8-1.79a1,1,0,0,0,0-1.42L42.41,32l2.3-2.29a1,1,0,0,0,0-1.42L42.41,26l2.3-2.29a1,1,0,0,0,0-1.42L42.41,20l1.3-1.29A1,1,0,0,0,44,18V17h5Z"/></g></svg>
