<svg id="Image" height="512" viewBox="0 0 32 32" width="512" xmlns="http://www.w3.org/2000/svg"><g><circle cx="22.5" cy="20.5" r="1.5"/><path d="m29 0h-26c-1.654 0-3 1.346-3 3v26c0 1.654 1.346 3 3 3h26c1.654 0 3-1.346 3-3v-26c0-1.654-1.346-3-3-3zm1 29c0 .551-.449 1-1 1h-26c-.551 0-1-.449-1-1v-26c0-.551.449-1 1-1h26c.551 0 1 .449 1 1z"/><path d="m9 14c2.757 0 5-2.243 5-5s-2.243-5-5-5-5 2.243-5 5 2.243 5 5 5zm0-8c1.654 0 3 1.346 3 3s-1.346 3-3 3-3-1.346-3-3 1.346-3 3-3z"/><path d="m22.5 15c-3.033 0-5.5 2.467-5.5 5.5s2.467 5.5 5.5 5.5 5.5-2.467 5.5-5.5-2.467-5.5-5.5-5.5zm0 9c-1.93 0-3.5-1.57-3.5-3.5s1.57-3.5 3.5-3.5 3.5 1.57 3.5 3.5-1.57 3.5-3.5 3.5z"/><path d="m23.5 4c-2.481 0-4.5 2.019-4.5 4.5s2.019 4.5 4.5 4.5 4.5-2.019 4.5-4.5-2.019-4.5-4.5-4.5zm0 7c-1.378 0-2.5-1.122-2.5-2.5s1.122-2.5 2.5-2.5 2.5 1.122 2.5 2.5-1.122 2.5-2.5 2.5z"/><path d="m8.5 16c-2.481 0-4.5 2.019-4.5 4.5s2.019 4.5 4.5 4.5 4.5-2.019 4.5-4.5-2.019-4.5-4.5-4.5zm0 7c-1.378 0-2.5-1.122-2.5-2.5s1.122-2.5 2.5-2.5 2.5 1.122 2.5 2.5-1.122 2.5-2.5 2.5z"/><path d="m6.75 27h-.5c-.552 0-1 .448-1 1s.448 1 1 1h.5c.552 0 1-.448 1-1s-.448-1-1-1z"/><path d="m11 27h-.5c-.552 0-1 .448-1 1s.448 1 1 1h.5c.552 0 1-.448 1-1s-.448-1-1-1z"/><path d="m15.5 27h-.5c-.552 0-1 .448-1 1s.448 1 1 1h.5c.552 0 1-.448 1-1s-.448-1-1-1z"/><path d="m20 27h-.5c-.552 0-1 .448-1 1s.448 1 1 1h.5c.552 0 1-.448 1-1s-.448-1-1-1z"/></g></svg>