<svg id="Layer_1" viewBox="0 0 512 512" xmlns="http://www.w3.org/2000/svg" data-name="Layer 1"><path d="m137.259 205.978h53.802v119.821c0 2.779 1.905 5.195 4.607 5.844.468.112.938.167 1.403.167 2.221 0 4.312-1.236 5.354-3.284l94.365-185.329c.948-1.863.86-4.085-.232-5.867s-3.032-2.869-5.123-2.869h-53.801v-119.822c0-2.779-1.905-5.195-4.607-5.844-2.702-.647-5.496.641-6.758 3.117l-94.366 185.329c-.948 1.863-.86 4.085.232 5.867s3.032 2.869 5.123 2.869zm88.356-166.292v100.784c0 3.319 2.69 6.009 6.01 6.009h50.007l-78.552 154.273v-100.784c0-3.319-2.69-6.009-6.01-6.009h-50.008zm257.267 366.381c-1.098-1.758-3.024-2.826-5.097-2.826h-.011l-43.602.079-13.673-19.598 13.586-19.664 43.601-.106c2.077-.005 4.004-1.082 5.097-2.849 1.092-1.767 1.195-3.972.271-5.833-10.867-21.893-32.854-35.476-57.409-35.476h-.141c-23.332.049-44.314 12.358-55.631 32.372-5.305.012-10.783.027-16.407.042-5.517.015-11.188.03-16.961.044 1.086-3.995 1.452-9.04 1.865-15.001.68-9.779 1.61-23.172 6.934-26.673 2.158-1.419 5.594-1.317 10.213.308.105.037.21.063.316.093.062.018.123.039.185.055.477.123.956.183 1.431.188.021 0 .041.004.062.004.029 0 .059-.005.088-.006.212-.003.422-.017.63-.042.042-.005.084-.008.126-.014.246-.035.489-.084.728-.149.009-.003.019-.003.028-.006.015-.004.027-.012.042-.016.358-.102.705-.236 1.038-.401.031-.015.06-.033.09-.049.319-.166.623-.358.908-.579.027-.021.053-.044.08-.066.28-.224.542-.473.779-.747.022-.025.042-.051.063-.077.23-.275.438-.571.619-.89.008-.015.021-.027.029-.042l16.187-29.055c1.598-2.868.598-6.487-2.245-8.129l-3.11-1.796 10.924-18.939c1.657-2.874.672-6.548-2.201-8.207l-6.128-3.538 70.08-121.385 15.014-13.15c.812-.711 1.418-1.629 1.753-2.655l12.16-37.248c.881-2.698-.246-5.644-2.701-7.065-6.271-3.632-12.513-7.235-18.783-10.838-2.458-1.412-5.569-.914-7.464 1.193l-26.191 29.14c-.724.805-1.217 1.792-1.426 2.854l-3.861 19.573-70.104 121.38-5.944-3.432c-2.873-1.66-6.548-.676-8.208 2.197l-10.938 18.927-4.183-2.415c-1.395-.805-3.055-1.017-4.605-.588-1.553.429-2.867 1.463-3.65 2.87l-16.179 29.072c-.201.359-.363.732-.484 1.115-.019.06-.031.121-.048.181-.036.125-.073.25-.1.377-.123.571-.159 1.149-.115 1.719v.002c.012.156.034.311.058.466.006.037.008.074.014.11.018.1.044.198.066.296.132.582.351 1.146.655 1.672.033.057.062.116.096.172.046.073.099.143.148.215.062.092.123.185.191.273.038.049.082.096.122.144.087.106.174.212.269.312.04.042.083.08.125.121.101.101.202.201.311.295.009.008.017.017.026.025 3.713 3.183 5.519 6.104 5.365 8.683-.378 6.387-11.556 13.877-19.717 19.347-6.848 4.589-12.257 8.214-14.724 12.483-7.21 12.508-14.432 25.003-21.646 37.507-25.952.057-51.559.101-74.969.141l-24.349.043c-11.372-19.915-32.334-32.118-55.603-32.118-.053 0-.105 0-.158 0-24.609.058-46.597 13.754-57.381 35.742-.915 1.865-.802 4.07.3 5.831 1.099 1.757 3.023 2.824 5.096 2.824h.015l43.6-.106 13.673 19.599-13.588 19.688-43.597.08c-2.077.003-4.006 1.08-5.099 2.847-1.094 1.766-1.197 3.972-.274 5.833 10.864 21.901 32.847 35.488 57.396 35.488h.15c23.331-.053 44.305-12.366 55.61-32.384 19.053-.047 40.353-.092 62.596-.121-5.04 8.729-10.075 17.462-15.115 26.19l-1.123 1.946c-4.079 7.066-5.157 15.32-3.035 23.243 2.122 7.924 7.183 14.534 14.25 18.614l18.622 10.743c4.814 2.779 10.075 4.099 15.271 4.099 10.598 0 20.918-5.495 26.586-15.312l20.386-35.292c6.627-11.471 13.247-22.945 19.872-34.416 24.696-.028 48.362-.078 69.314-.129 11.373 19.929 32.344 32.14 55.626 32.14h.149c24.616-.055 46.608-13.749 57.393-35.738.914-1.865.802-4.069-.299-5.83zm-57.209-302.022c.33-.572.563-1.194.691-1.842l3.733-18.928 21.835-24.293c3.443 1.982 6.881 3.966 10.323 5.957l-10.137 31.051-14.521 12.718c-.495.434-.915.946-1.244 1.516l-70.577 122.246-10.708-6.182 70.603-122.243zm-87.763 126.213 4.874 2.814c.304.272.639.518 1.006.73s.748.38 1.136.507l26.177 15.114-7.919 13.73-33.204-19.173 7.931-13.722zm-23.244 18.758 47.112 27.204c.185.138.378.268.583.386.191.11.387.2.584.287l2.623 1.515-10.338 18.556-50.902-29.371 10.339-18.578zm-5.081 35.488 28.541 16.467c-9.743 6.995-10.861 22.734-11.744 35.448-.172 2.476-.364 5.224-.629 7.669l-47.4-27.348c2.006-1.461 4.308-3.005 6.274-4.322 10.615-7.114 23.767-15.936 24.958-27.914zm-170.838 119.417c-2.288.005-4.374 1.309-5.381 3.363-8.888 18.121-26.313 28.966-46.614 29.012h-.129c-16.761 0-31.585-7.374-41.271-20.149l36.02-.065c1.972-.003 3.815-.974 4.936-2.596l17.744-25.71c1.424-2.064 1.417-4.795-.018-6.852l-17.857-25.597c-1.124-1.611-2.965-2.571-4.929-2.571h-.015l-36.022.087c9.652-12.849 24.492-20.294 41.307-20.334h.136c20.243 0 37.662 10.754 46.613 28.786 1.015 2.045 3.101 3.338 5.383 3.337h.011l27.959-.049c21.313-.037 44.446-.077 68.004-.127-7.565 13.109-15.128 26.219-22.695 39.326-26.188.029-51.271.084-73.18.138zm111.286 75.401c-5.134 8.893-16.546 11.95-25.44 6.813l-18.623-10.743c-4.284-2.474-7.355-6.491-8.647-11.313-1.291-4.822-.64-9.838 1.834-14.124l1.123-1.945c1.481-2.565 2.961-5.132 4.442-7.697l50.875 29.377-5.564 9.633zm20.387-35.294-8.811 15.254-50.88-29.379c3.255-5.637 6.506-11.276 9.761-16.913.091-.145.178-.293.257-.445 9.765-16.913 19.525-33.83 29.286-50.746.151-.223.284-.458.405-.701 6.722-11.651 13.452-23.297 20.17-34.951l50.916 29.376c-9.8 16.985-19.609 33.965-29.416 50.945-.077.124-.151.249-.218.378-7.158 12.393-14.31 24.788-21.469 37.182zm155.341-8.413h-.128c-20.257 0-37.686-10.763-46.637-28.81-1.015-2.046-3.102-3.339-5.384-3.339h-.015c-19.877.049-42.364.099-65.955.129 7.566-13.103 15.136-26.204 22.698-39.311 7.931-.015 15.68-.036 23.159-.057 6.907-.019 13.595-.037 20.011-.05 2.287-.004 4.374-1.307 5.383-3.36 8.897-18.118 26.332-28.961 46.637-29.004 16.771-.052 31.693 7.342 41.407 20.145l-36.023.087c-1.969.004-3.811.974-4.93 2.593l-17.745 25.682c-1.426 2.064-1.42 4.797.016 6.854l17.858 25.597c1.124 1.611 2.965 2.571 4.929 2.571h.011l36.03-.065c-9.653 12.853-24.5 20.299-41.322 20.337z"/></svg>