<svg id="Layer_1" viewBox="0 0 96 96" xmlns="http://www.w3.org/2000/svg" data-name="Layer 1"><path d="m18 1h10v88h-10z" fill="#90d1d7"/><path d="m21 1h7a0 0 0 0 1 0 0v85a0 0 0 0 1 0 0 7 7 0 0 1 -7-7v-78a0 0 0 0 1 0 0z" fill="#abd9e6"/><path d="m15 89h66v6h-66z" fill="#8288a1"/><path d="m18 89h63a0 0 0 0 1 0 0v3a0 0 0 0 1 0 0h-60a3 3 0 0 1 -3-3 0 0 0 0 1 0 0z" fill="#969cb2"/><path d="m28 1h50v88h-50z" fill="#90d1d7"/><path d="m78 1v85h-41a6 6 0 0 1 -6-6v-79z" fill="#abd9e6"/><path d="m78 29.64v12.72l-46.64 46.64h-12.72z" fill="#c3e1f5"/><path d="m78 47.64v6.36l-35 35h-6.36z" fill="#c3e1f5"/><path d="m74 38h4v14h-4z" fill="#8288a1"/><path d="m70 43h4v4h-4z" fill="#8288a1"/><path d="m77.36 1-59.36 59.36v-17.36l42-42z" fill="#c3e1f5"/><path d="m50 11h6a4 4 0 0 1 4 4 0 0 0 0 1 0 0h-14a0 0 0 0 1 0 0 4 4 0 0 1 4-4z" fill="#8288a1"/><path d="m56.36 1-38.36 38.36v-12.72l25.64-25.64z" fill="#c3e1f5"/><path d="m81 88h-2v-87a1 1 0 0 0 -1-1h-60a1 1 0 0 0 -1 1v87h-2a1 1 0 0 0 -1 1v6a1 1 0 0 0 1 1h66a1 1 0 0 0 1-1v-6a1 1 0 0 0 -1-1zm-10-44h2v2h-2zm4 3v-7a1 1 0 0 1 1-1h1v12h-1a1 1 0 0 1 -1-1zm-23-45v8h-2a5 5 0 0 0 -4.9 4h-.1a1 1 0 0 0 0 2h16a1 1 0 0 0 0-2h-.1a5 5 0 0 0 -4.9-4h-2v-8h23v35h-1a3 3 0 0 0 -3 3v2h-3a1 1 0 0 0 -1 1v10a1 1 0 0 0 2 0v-5h2v2a3 3 0 0 0 3 3h1v35h-48v-86zm4 10a3 3 0 0 1 2.83 2h-11.66a3 3 0 0 1 2.83-2zm-37-10h8v86h-8zm61 92h-64v-4h64z" fill="#39426a"/><path d="m34 59h2a1 1 0 0 0 0-2h-2a1 1 0 0 1 -1-1v-20a1 1 0 0 1 1-1h2a1 1 0 0 0 0-2h-2a3 3 0 0 0 -3 3v20a3 3 0 0 0 3 3z" fill="#39426a"/><g fill="#f3f4f5"><circle cx="47" cy="19" r="1"/><circle cx="50" cy="23" r="1"/><circle cx="56" cy="23" r="1"/><circle cx="53" cy="19" r="1"/><circle cx="59" cy="19" r="1"/><circle cx="47" cy="27" r="1"/><circle cx="50" cy="31" r="1"/><circle cx="56" cy="31" r="1"/><circle cx="53" cy="27" r="1"/><circle cx="59" cy="27" r="1"/><circle cx="47" cy="35" r="1"/><circle cx="50" cy="39" r="1"/><circle cx="56" cy="39" r="1"/><circle cx="53" cy="35" r="1"/><circle cx="59" cy="35" r="1"/></g></svg>