<svg id="Layer_1" enable-background="new 0 0 512 512" viewBox="0 0 512 512" xmlns="http://www.w3.org/2000/svg"><path d="m398.348 405.31c-1.184-2.378-3.611-3.882-6.268-3.882s-5.084 1.504-6.268 3.882l-19.8 39.802c-3.809 7.656-15.399 30.952 1.317 47.669 6.589 6.589 15.379 10.218 24.751 10.218 9.371 0 18.161-3.629 24.751-10.218 16.716-16.716 5.126-40.013 1.317-47.669zm8.584 77.572c-3.944 3.945-9.219 6.118-14.851 6.118s-10.906-2.172-14.851-6.118c-4.469-4.468-8.356-12.09 1.317-31.534l13.532-27.204 13.534 27.204c9.674 19.445 5.786 27.067 1.319 31.534zm89.068-246.115h-13.23v-68.152c0-76.857-62.527-139.385-139.385-139.385s-139.385 62.528-139.385 139.385v174.77c0 19.512-15.874 35.385-35.386 35.385s-35.385-15.874-35.385-35.385v-188.982h13.23c3.866 0 7-3.134 7-7v-42.378c0-3.866-3.134-7-7-7h-13.23v-14.77h6.401c3.866 0 7-3.134 7-7v-30.254c0-3.866-3.134-7-7-7h-6.401v-23.001c0-3.866-3.134-7-7-7h-90c-3.866 0-7 3.134-7 7v23.001h-6.401c-3.866 0-7 3.134-7 7v30.254c0 3.866 3.134 7 7 7h6.401v14.77h-13.229c-3.866 0-7 3.134-7 7v42.378c0 3.866 3.134 7 7 7h13.229v188.982c0 76.857 62.527 139.385 139.385 139.385s139.386-62.528 139.386-139.385v-174.77c0-19.511 15.873-35.385 35.385-35.385s35.385 15.874 35.385 35.385v68.152h-13.23c-3.866 0-7 3.134-7 7v42.378c0 3.866 3.134 7 7 7h13.229v14.77h-6.4c-3.866 0-7 3.134-7 7v30.254c0 3.866 3.134 7 7 7h6.4v23.001c0 3.866 3.134 7 7 7h90c3.866 0 7-3.134 7-7v-23.001h6.401c3.866 0 7-3.134 7-7v-30.254c0-3.866-3.134-7-7-7h-6.401v-14.77h13.231c3.866 0 7-3.134 7-7v-42.378c0-3.866-3.134-7-7-7zm-452.771-213.767h76v16.001h-76zm-13.401 30.001h102.803v16.254h-102.803zm89.401 30.254v14.77h-76v-14.77zm-96.229 57.148v-28.378h116.46v28.378zm320.385-21.173c-27.23 0-49.385 22.154-49.385 49.385v174.77c0 69.138-56.248 125.385-125.386 125.385s-125.385-56.248-125.385-125.385v-188.982h76v188.982c0 27.231 22.154 49.385 49.385 49.385s49.386-22.154 49.386-49.385v-174.77c0-69.138 56.247-125.385 125.385-125.385s125.385 56.247 125.385 125.385v68.152h-76v-68.152c0-27.231-22.155-49.385-49.385-49.385zm125.385 248.939h-76v-16.001h76zm13.401-30.001h-102.802v-16.254h102.802zm-89.401-30.253v-14.77h76v14.77zm96.23-28.77h-116.46v-28.378h116.46zm-13.274 126.166c-1.184-2.378-3.611-3.882-6.268-3.882s-5.084 1.504-6.268 3.882l-19.801 39.802c-3.809 7.655-15.397 30.952 1.317 47.669 6.59 6.589 15.38 10.218 24.751 10.218 9.372 0 18.162-3.629 24.751-10.218 16.717-16.717 5.126-40.014 1.317-47.669zm8.583 77.571c-3.944 3.945-9.219 6.118-14.851 6.118s-10.906-2.173-14.851-6.118c-4.468-4.468-8.355-12.09 1.317-31.534l13.533-27.204 13.533 27.205c9.675 19.443 5.787 27.065 1.319 31.533z"/></svg>