<svg clip-rule="evenodd" fill-rule="evenodd" stroke-linejoin="round" stroke-miterlimit="2" viewBox="0 0 64 64" xmlns="http://www.w3.org/2000/svg"><g transform="translate(-1848 -328)"><path d="m1859 331h-1c-1.66 0-3 1.343-3 3 0 .768.29 1.469.76 2-.47.531-.76 1.232-.76 2s.29 1.469.76 2c-.47.531-.76 1.232-.76 2 0 1.657 1.34 3 3 3h1v2h-5c-1.66 0-3 1.343-3 3v4c0 .552.45 1 1 1h1v29h-1c-.55 0-1 .448-1 1v4c0 1.657 1.34 3 3 3h52c1.66 0 3-1.343 3-3v-4c0-.552-.45-1-1-1h-1v-29h1c.55 0 1-.448 1-1v-4c0-1.657-1.34-3-3-3h-5v-2h1c1.66 0 3-1.343 3-3 0-.768-.29-1.469-.76-2 .47-.531.76-1.232.76-2s-.29-1.469-.76-2c.47-.531.76-1.232.76-2 0-1.657-1.34-3-3-3h-1v-2c0-.552-.45-1-1-1s-1 .448-1 1v2h-1c-1.66 0-3 1.343-3 3 0 .768.29 1.469.76 2-.47.531-.76 1.232-.76 2s.29 1.469.76 2c-.47.531-.76 1.232-.76 2 0 1.657 1.34 3 3 3h1v2h-18v-2h1c1.66 0 3-1.343 3-3 0-.768-.29-1.469-.76-2 .47-.531.76-1.232.76-2s-.29-1.469-.76-2c.47-.531.76-1.232.76-2 0-1.657-1.34-3-3-3h-1v-2c0-.552-.45-1-1-1s-1 .448-1 1v2h-1c-1.66 0-3 1.343-3 3 0 .768.29 1.469.76 2-.47.531-.76 1.232-.76 2s.29 1.469.76 2c-.47.531-.76 1.232-.76 2 0 1.657 1.34 3 3 3h1v2h-18v-2h1c1.66 0 3-1.343 3-3 0-.768-.29-1.469-.76-2 .47-.531.76-1.232.76-2s-.29-1.469-.76-2c.47-.531.76-1.232.76-2 0-1.657-1.34-3-3-3h-1v-2c0-.552-.45-1-1-1s-1 .448-1 1zm-6 55h54v3c0 .552-.45 1-1 1h-52c-.55 0-1-.448-1-1zm15-33h39v-3c0-.552-.45-1-1-1h-52c-.55 0-1 .448-1 1v3h6c.55 0 1 .448 1 1s-.45 1-1 1h-4v29h50v-29h-37c-.55 0-1-.448-1-1s.45-1 1-1zm-10 6v21c0 .552.45 1 1 1s1-.448 1-1v-21c0-.552-.45-1-1-1s-1 .448-1 1zm4 0v21c0 .552.45 1 1 1s1-.448 1-1v-21c0-.552-.45-1-1-1s-1 .448-1 1zm38 0v21c0 .552.45 1 1 1s1-.448 1-1v-21c0-.552-.45-1-1-1s-1 .448-1 1zm-4 0v21c0 .552.45 1 1 1s1-.448 1-1v-21c0-.552-.45-1-1-1s-1 .448-1 1zm-17.75 1.042-9.99 17.987c-.35.619-.34 1.374.02 1.985s1.02.986 1.73.986h19.98c.71 0 1.37-.375 1.73-.986s.37-1.366.02-1.985c-2.13-3.838-7.81-14.055-9.99-17.987-.35-.635-1.02-1.029-1.75-1.029s-1.4.394-1.75 1.029zm1.75.971 9.99 17.987h-19.98s9.99-17.987 9.99-17.987zm-.93 5.616-2 5c-.12.308-.08.657.1.932.19.274.5.439.83.439h2.52s-1.45 3.629-1.45 3.629c-.2.512.05 1.095.56 1.299.51.205 1.09-.044 1.3-.557l2-5c.12-.308.08-.657-.1-.932-.19-.274-.5-.439-.83-.439h-2.52s1.45-3.629 1.45-3.629c.2-.512-.05-1.095-.56-1.299-.51-.205-1.09.044-1.3.557zm-16.07-11.629h1c.55 0 1-.448 1-1s-.45-1-1-1h-1c-.55 0-1 .448-1 1s.45 1 1 1zm20-13c0 .552-.45 1-1 1h-4c-.55 0-1-.448-1-1s.45-1 1-1h4c.55 0 1 .448 1 1zm20 0c0 .552-.45 1-1 1h-4c-.55 0-1-.448-1-1s.45-1 1-1h4c.55 0 1 .448 1 1zm-40 0c0 .552-.45 1-1 1h-4c-.55 0-1-.448-1-1s.45-1 1-1h4c.55 0 1 .448 1 1zm20-4c0 .552-.45 1-1 1h-4c-.55 0-1-.448-1-1s.45-1 1-1h4c.55 0 1 .448 1 1zm20 0c0 .552-.45 1-1 1h-4c-.55 0-1-.448-1-1s.45-1 1-1h4c.55 0 1 .448 1 1zm-40 0c0 .552-.45 1-1 1h-4c-.55 0-1-.448-1-1s.45-1 1-1h4c.55 0 1 .448 1 1zm0-4c0 .552-.45 1-1 1h-4c-.55 0-1-.448-1-1s.45-1 1-1h4c.55 0 1 .448 1 1zm20 0c0 .552-.45 1-1 1h-4c-.55 0-1-.448-1-1s.45-1 1-1h4c.55 0 1 .448 1 1zm20 0c0 .552-.45 1-1 1h-4c-.55 0-1-.448-1-1s.45-1 1-1h4c.55 0 1 .448 1 1z"/></g></svg>