<svg id="Outline" height="512" viewBox="0 0 600 600" width="512" xmlns="http://www.w3.org/2000/svg"><path d="m405.347 33a124.791 124.791 0 1 0 124.791 124.79 124.931 124.931 0 0 0 -124.791-124.79zm-20.794 234.123v-58.653l10.987 2.557v17.673a6.75 6.75 0 0 0 13.5 0v-19.367a11.318 11.318 0 0 0 -8.79-11.07l-13.391-3.117a54.933 54.933 0 0 1 -12.459-97.712.512.512 0 0 1 .6-.034.45.45 0 0 1 .271.459v30.623a29.494 29.494 0 1 0 58.988 0v-30.623a.45.45 0 0 1 .272-.459.513.513 0 0 1 .593.034 54.933 54.933 0 0 1 -10.105 96.84c-.012 0-.023.012-.036.017-.159.064-.313.137-.466.213-.052.026-.106.048-.157.075-.13.069-.254.145-.379.222-.069.043-.141.082-.208.127-.093.062-.181.13-.27.2s-.183.131-.269.2c-.062.051-.12.108-.18.161-.1.092-.209.182-.307.279-.051.05-.1.106-.146.159-.1.1-.2.207-.289.317-.071.086-.134.177-.2.266s-.126.16-.183.244c-.1.145-.189.3-.276.45-.019.032-.041.063-.059.095q-.144.264-.265.542c0 .013-.012.025-.018.038-.07.163-.131.332-.189.5-.013.038-.029.074-.041.112-.043.134-.076.272-.111.41-.02.079-.043.157-.061.237-.021.1-.035.205-.052.309-.02.121-.042.242-.056.365-.008.075-.01.153-.016.23-.012.151-.022.3-.023.456v.05 67.461a111.373 111.373 0 0 1 -36.2-.885zm49.7-1.859v-60.308a68.428 68.428 0 0 0 8.337-118.767 14.042 14.042 0 0 0 -21.835 11.67v30.623a15.994 15.994 0 1 1 -31.988 0v-30.623a14.042 14.042 0 0 0 -21.835-11.67 68.433 68.433 0 0 0 4.121 116.576v60.9a111.287 111.287 0 1 1 63.2 1.6z"/><path d="m387.885 553.5h-272.45a32.109 32.109 0 0 1 -32.073-32.073v-331.98h157.738a6.75 6.75 0 1 0 0-13.5h-157.738v-45.816a32.109 32.109 0 0 1 32.073-32.073h112.888a6.75 6.75 0 0 0 0-13.5h-112.888a45.624 45.624 0 0 0 -45.573 45.573v391.3a45.624 45.624 0 0 0 45.573 45.569h272.45a45.633 45.633 0 0 0 45.573-45.613l-1.267-211.555a6.75 6.75 0 0 0 -6.749-6.709h-.042a6.75 6.75 0 0 0 -6.71 6.791l1.267 211.513a32.109 32.109 0 0 1 -32.072 32.073z"/><path d="m388.534 516.36h-.053l-24.994.192a6.75 6.75 0 0 0 .051 13.5h.052l24.994-.192a6.75 6.75 0 0 0 -.05-13.5z"/><path d="m259.518 291.509a100.765 100.765 0 1 0 100.765 100.765 100.88 100.88 0 0 0 -100.765-100.765zm0 188.03a87.265 87.265 0 1 1 87.265-87.265 87.365 87.365 0 0 1 -87.265 87.265z"/><path d="m306.764 392.274a54.294 54.294 0 0 1 7-26.683 14.417 14.417 0 0 0 -1.416-16.373 67.793 67.793 0 1 0 .042 86.062 14.386 14.386 0 0 0 1.373-16.325 54.289 54.289 0 0 1 -6.999-26.681zm-4.806 34.437a54.306 54.306 0 0 1 -95.694-26.49 39.39 39.39 0 0 1 6.231 4.015c4.746 3.493 10.653 7.839 19.3 7.839 12.981 0 26.44-10.709 27.932-11.93a6.75 6.75 0 0 0 -8.542-10.454c-3.039 2.471-12.446 8.884-19.39 8.884-4.013 0-6.91-1.981-11.3-5.213-3.8-2.794-8.344-6.129-14.438-7.353a54.5 54.5 0 0 1 52.596-48.009q.666-.016 1.331-.016a54.016 54.016 0 0 1 41.94 19.817 1 1 0 0 1 .09 1.148 67.852 67.852 0 0 0 0 66.657.978.978 0 0 1 -.056 1.105z"/><path d="m283.025 388.674a6.5 6.5 0 0 0 -.619-1.16 5.955 5.955 0 0 0 -.841-1.03 6.769 6.769 0 0 0 -6.09-1.839 6.229 6.229 0 0 0 -1.26.379 7.236 7.236 0 0 0 -1.17.621 6.9 6.9 0 0 0 -1.02.839 6.851 6.851 0 0 0 -1.46 2.19 7.16 7.16 0 0 0 -.39 1.27 6.716 6.716 0 0 0 0 2.63 7.16 7.16 0 0 0 .39 1.27 6.433 6.433 0 0 0 .62 1.16 6.363 6.363 0 0 0 .84 1.03 6.913 6.913 0 0 0 1.02.841 7.386 7.386 0 0 0 1.17.619 6.366 6.366 0 0 0 1.26.381 6.643 6.643 0 0 0 1.32.129 6.792 6.792 0 0 0 4.77-1.97 5.881 5.881 0 0 0 .841-1.03 6.428 6.428 0 0 0 .619-1.16 7.163 7.163 0 0 0 .391-1.27 6.767 6.767 0 0 0 0-2.63 7.163 7.163 0 0 0 -.391-1.27z"/><path d="m154.068 131.409-17.282.192a6.75 6.75 0 0 0 .073 13.5h.077l17.282-.192a6.75 6.75 0 0 0 -.073-13.5z"/><path d="m210.273 131.409-17.282.192a6.75 6.75 0 0 0 .073 13.5h.077l17.282-.192a6.75 6.75 0 0 0 -.073-13.5z"/><path d="m408.885 250.414a7.662 7.662 0 0 0 -.62-1.16 7.554 7.554 0 0 0 -.84-1.03 6.461 6.461 0 0 0 -1.03-.84 6.808 6.808 0 0 0 -1.16-.62 6.277 6.277 0 0 0 -1.26-.38 6.521 6.521 0 0 0 -2.64 0 6.079 6.079 0 0 0 -1.259.38 7.358 7.358 0 0 0 -1.171.62 7.043 7.043 0 0 0 -1.03.84 6.87 6.87 0 0 0 -1.459 2.19 7.854 7.854 0 0 0 -.38 1.27 6.423 6.423 0 0 0 -.13 1.32 6.328 6.328 0 0 0 .13 1.31 7.565 7.565 0 0 0 .38 1.27 6.639 6.639 0 0 0 .62 1.16 6.985 6.985 0 0 0 .839 1.03 7.616 7.616 0 0 0 1.03.84 7.278 7.278 0 0 0 1.171.62 6.86 6.86 0 0 0 1.259.391 7.381 7.381 0 0 0 1.32.129 6.76 6.76 0 0 0 6.75-6.75 6.5 6.5 0 0 0 -.14-1.32 6.387 6.387 0 0 0 -.38-1.27z"/></svg>