<svg id="Line" viewBox="0 0 256 256" xmlns="http://www.w3.org/2000/svg"><path d="m234.3563 21.2813h-215.1816a2.2 2.2 0 0 0 -2.2 2.2v201.9359a2.2 2.2 0 0 0 2.2 2.2h123.6866a56.3384 56.3384 0 0 0 74.4824 0h17.0126a2.2 2.2 0 0 0 2.2-2.2v-201.9359a2.2 2.2 0 0 0 -2.2-2.2zm-54.254 216a52.0537 52.0537 0 1 1 52.054-52.0534 52.1122 52.1122 0 0 1 -52.054 52.0535zm-39.7623-113.6752 24.2137-14.0036a2.2 2.2 0 0 0 .803-3.0062l-4.86-8.4037a2.2 2.2 0 0 0 -3.0056-.8029l-17.151 9.92v-64.25h74.9512v98.0586a56.3442 56.3442 0 0 0 -74.9513 4.0747zm-4.415-2.5294a2.2 2.2 0 0 0 -1.0912 1.7236 6.351 6.351 0 1 1 -3.5935-6.2466 2.2007 2.2007 0 0 0 2.0464-.0821l24.5033-14.1716 2.6571 4.595zm96.2309 102.14h-10.3302a56.6024 56.6024 0 0 0 10.3306-16.1421zm-12.4647-78.1931v-104.1647a2.2 2.2 0 0 0 -2.2-2.2h-79.3512a2.2 2.2 0 0 0 -2.2 2.2v68.9952l-3.9249 2.27a10.7761 10.7761 0 1 0 3.9249 17.9132v20.0657a56.3427 56.3427 0 0 0 2.439 73.1141h-117.0043v-197.5358h210.7816v137.7a56.6617 56.6617 0 0 0 -12.4647-18.3572z"/><path d="m115.3906 38.6589h-79.3512a2.2 2.2 0 0 0 -2.2 2.2v167.1811a2.2 2.2 0 0 0 2.2 2.2h79.3512a2.2 2.2 0 0 0 2.2-2.2v-167.1811a2.2 2.2 0 0 0 -2.2-2.2zm-2.2 167.1807h-74.9512v-162.7807h74.9512z"/><path d="m43.024 62.152h31.048v4.4h-31.048z" transform="matrix(.707 -.707 .707 .707 -28.356 60.248)"/><path d="m41.311 72.706h55.582v4.4h-55.582z" transform="matrix(.707 -.707 .707 .707 -32.727 70.801)"/><path d="m180.1023 139.774a45.4537 45.4537 0 1 0 45.454 45.454 45.5054 45.5054 0 0 0 -45.454-45.454zm2.2 86.447v-10.421h-4.4v10.421a40.9344 40.9344 0 0 1 -5.7527-.72v-2.251a37.7845 37.7845 0 0 0 -5.1349-19.0446c1.6049.6956 3.3251 1.3792 5.1784 2.0537 7.2692 2.6458 13.1157 3.9284 18.0273 3.9284a24.666 24.666 0 0 0 3.8824-.2961 37.4413 37.4413 0 0 0 -5.748 15.5564 40.9544 40.9544 0 0 1 -6.0522.7732zm-14.3013-50.2393a2.2 2.2 0 0 0 1.2412 1.1376l23.9425 8.714a2.2014 2.2014 0 0 0 2.82-1.3148l5.6319-15.4741c5.7315 6.9888 7.2244 16.1755 3.9413 25.1952-2.46 6.7606-6.3049 10.35-12.0981 11.297-4.8993.8014-11.1853-.283-19.7815-3.4122s-14.1077-6.3379-17.3468-10.1014c-3.829-4.4489-4.4666-9.67-2.0061-16.43 3.2828-9.02 10.3316-15.0976 19.2143-16.7675l-5.6321 15.4741a2.199 2.199 0 0 0 .0737 1.6821zm25.0039 48.2109a34.1024 34.1024 0 0 1 10.6088-18.7757l-.0088-.01a23.8739 23.8739 0 0 0 6.1074-9.6626c4.3141-11.8529 1.5448-23.9717-7.4083-32.4183a2.2 2.2 0 0 0 -3.5772.8476l-6.1045 16.7723-19.8078-7.2091 6.1046-16.7723a2.2 2.2 0 0 0 -2.1952-2.9488c-12.288.7155-22.1993 8.2189-26.5133 20.0718-2.978 8.1823-2.0341 15.1825 2.8061 20.8055a24.64 24.64 0 0 0 2.8548 2.79l-.0036.0043a33.2786 33.2786 0 0 1 11.8821 25.5627v1.1291a41.0673 41.0673 0 1 1 25.2553-.1865z"/></svg>