<svg enable-background="new 0 0 512 512" height="512" viewBox="0 0 512 512" width="512" xmlns="http://www.w3.org/2000/svg"><g id="_x33_8_Sink"><g><path d="m389.52 82.761c0 73.733-59.785 133.519-133.519 133.519s-133.519-59.786-133.519-133.519z" fill="#cfe9ff"/><path d="m233.554 82.768c-2.181 5.433-6.861 10.271-12.334 12.611-9.796 4.244-20.94 2.974-31.569 2.301-10.668-.715-22.249-.476-30.696 6.028-9.598 7.376-12.929 21.177-23.201 27.603-1.11.674-2.261 1.268-3.45 1.745-6.345-15.507-9.835-32.481-9.835-50.288z" fill="#e6f5ff"/><path d="m389.534 82.768c0 73.726-59.806 133.493-133.533 133.493-22.09 0-42.951-5.354-61.314-14.872-.436-6.385.833-12.81 4.402-18.085 4.6-6.742 12.334-10.549 19.909-13.682 19.076-7.892 39.263-13.247 59.767-15.824 18.838-2.339 38.47-2.498 55.682-10.509 13.206-6.108 24.113-16.578 32.283-28.635 6.623-9.716 11.501-20.543 14.515-31.885h8.289z" fill="#9cf"/><path d="m389.329 206.138v265.9c0 6.831-5.538 12.369-12.369 12.369h-241.918c-6.831 0-12.369-5.538-12.369-12.369v-265.9c0-6.831 5.538-12.369 12.369-12.369h241.918c6.831-.001 12.369 5.537 12.369 12.369z" fill="#fdbb48"/><path d="m155.861 193.775c-.198.436-.436.872-.714 1.309-4.363 7.138-11.541 12.294-15.428 19.75-3.926 7.575-3.926 16.498-3.847 25.024.198 20.584.357 41.167.555 61.71.079 7.336.119 14.753-2.022 21.733-1.944 6.266-5.949 12.215-11.739 15.15v-132.303c0-6.861 5.552-12.373 12.374-12.373z" fill="#ffd961"/><path d="m389.336 206.148v265.877c0 6.861-5.552 12.373-12.374 12.373h-231.254c.04-3.45.674-6.782 2.261-9.915 5.989-11.937 22.368-14.436 35.297-11.144 12.929 3.332 24.589 10.827 37.676 13.484 15.309 3.094 31.926-.991 44.022-10.906 9.28-7.575 16.538-18.64 28.079-21.97 8.527-2.459 17.767-.079 26.572-1.428 16.935-2.617 29.031-18.838 32.759-35.535s.952-34.068-.991-51.082c-1.943-16.974-2.895-34.899 4.085-50.526 8.13-18.322 26.889-33.512 25.065-53.5-1.19-13.166-11.343-23.677-15.983-36.09-2.617-7.02-3.173-14.634-1.943-22.01h14.357c6.819-.001 12.372 5.511 12.372 12.372z" fill="#f7934e"/><path d="m147.411 218.508h217.18v241.158h-217.18z" fill="#f65e5e"/><path d="m161.691 255.564c-3.331 18.639 9.518 37.319 6.425 55.999-2.181 13.247-12.136 24.628-12.255 38.034-.079 10.43 5.275 22.884-2.3 30.061-1.705 1.626-3.847 2.617-6.147 3.014v-164.15h31.014c-.873 2.816-2.023 5.552-3.331 8.13-4.84 9.518-11.582 18.402-13.406 28.912z" fill="#fe8787"/><path d="m364.588 218.522v241.129h-176.801c3.688-6.544 9.479-11.898 16.459-14.713 13.801-5.553 29.269-1.349 44.022.317 14.753 1.705 32.521-.872 39.421-14.04 5.275-10.113 1.983-22.487 3.926-33.75 3.649-20.781 24.113-34.146 33.512-53.024 7.694-15.468 7.496-33.631 5.751-50.804-1.745-17.213-4.799-34.543-2.181-51.637 1.269-8.21 4.204-16.458 8.765-23.478z" fill="#e53e3e"/><path d="m167.601 509.82 13.289-25.413h-37.402v25.413z" fill="#4d5760"/><path d="m344.401 509.82-13.29-25.413h37.403v25.413z" fill="#4d5760"/><path d="m284.024 325.925v26.326c0 3.213-2.605 5.818-5.818 5.818-3.213 0-5.818-2.605-5.818-5.818v-26.326c0-3.213 2.605-5.818 5.818-5.818 3.213 0 5.818 2.605 5.818 5.818z" fill="#e6f5ff"/><path d="m239.614 325.925v26.326c0 3.213-2.605 5.818-5.818 5.818-3.213 0-5.818-2.605-5.818-5.818v-26.326c0-3.213 2.605-5.818 5.818-5.818 3.213 0 5.818 2.605 5.818 5.818z" fill="#e6f5ff"/><path d="m245.691 5.621c-.333 24.83-1.487 52.55-21.235 77.14h63.09c-19.747-24.59-20.902-52.31-21.235-77.14h-20.62z" fill="#fdbb48"/><path d="m287.53 82.768h-46.124c.634-2.023 1.864-3.808 3.569-5.077 3.649-2.698 8.963-2.895 11.938-6.346 2.221-2.538 2.538-6.226 1.943-9.558-.555-3.292-1.904-6.425-2.697-9.716-1.626-6.743-.754-13.763.119-20.624 1.11-8.606 2.181-17.212 3.292-25.817h6.742c.318 24.827 1.468 52.549 21.218 77.138z" fill="#f7934e"/><path d="m273.095 6.586v9.428c0 2.433-1.973 4.406-4.406 4.406h-25.377c-2.433 0-4.406-1.973-4.406-4.406v-9.428c0-2.433 1.973-4.406 4.406-4.406h25.377c2.434 0 4.406 1.972 4.406 4.406z" fill="#4d5760"/><path d="m200.536 68.662h9.511v14.099h-9.511z" fill="#9cf"/><path d="m301.953 68.662h9.511v14.099h-9.511z" fill="#9cf"/><path d="m212.688 68.663h-14.791c-2.433 0-4.406-1.973-4.406-4.406v-.699c0-2.433 1.973-4.406 4.406-4.406h14.791c2.433 0 4.406 1.973 4.406 4.406v.699c0 2.433-1.973 4.406-4.406 4.406z" fill="#3e484f"/><path d="m314.105 68.663h-14.791c-2.433 0-4.406-1.973-4.406-4.406v-.699c0-2.433 1.973-4.406 4.406-4.406h14.791c2.433 0 4.406 1.973 4.406 4.406v.699c0 2.433-1.973 4.406-4.406 4.406z" fill="#3e484f"/><g><path d="m399.844 80.778h-86.399v-10.131h.658c3.524 0 6.39-2.866 6.39-6.39v-.697c0-3.524-2.866-6.39-6.39-6.39h-14.791c-3.521 0-6.387 2.866-6.387 6.39v.697c0 3.524 2.866 6.39 6.387 6.39h.658v10.132h-11.452c-11.25-14.314-17.228-30.578-19.28-52.611-.105-1.092-1.026-1.863-2.161-1.789-1.088.101-1.89 1.069-1.789 2.161 1.27 13.631 4.566 33.535 18.221 52.239h-55.017c13.651-18.7 16.949-38.608 18.221-52.239.101-1.092-.701-2.06-1.791-2.161-1.081-.077-2.057.697-2.159 1.789-2.056 22.036-8.032 38.301-19.282 52.611h-11.452v-10.132h.658c3.524 0 6.39-2.866 6.39-6.39v-.697c0-3.524-2.866-6.39-6.39-6.39h-14.791c-3.522 0-6.388 2.866-6.388 6.39v.697c0 3.524 2.866 6.39 6.388 6.39h.656v10.132h-86.397c-1.096 0-1.983.887-1.983 1.983s.887 1.983 1.983 1.983h8.384c.575 39.88 18.456 77.194 49.33 102.626.842.697 2.092.576 2.79-.267.697-.848.577-2.095-.269-2.792-29.956-24.675-47.349-60.868-47.924-99.559h263.069c-.573 38.687-17.967 74.88-47.924 99.559-.844.697-.964 1.944-.267 2.792.693.837 1.944.961 2.792.267 30.872-25.432 48.751-62.75 49.326-102.626h8.382c1.096 0 1.983-.887 1.983-1.983 0-1.097-.887-1.984-1.983-1.984zm-102.952-16.522v-.697c0-1.336 1.084-2.424 2.421-2.424h14.791c1.336 0 2.424 1.088 2.424 2.424v.697c0 1.336-1.088 2.424-2.424 2.424-3.845 0-15.499 0-14.791 0-1.337.001-2.421-1.088-2.421-2.424zm7.045 6.391h5.542v10.132h-5.542zm-108.463-6.391v-.697c0-1.336 1.086-2.424 2.423-2.424h14.791c1.336 0 2.424 1.088 2.424 2.424v.697c0 1.336-1.088 2.424-2.424 2.424-5.504 0-11.767 0-14.791 0-1.337.001-2.423-1.088-2.423-2.424zm7.045 6.391h5.544v10.132h-5.544z"/><path d="m376.958 191.786h-241.916c-7.913 0-14.351 6.437-14.351 14.353v265.9c0 7.913 6.439 14.349 14.351 14.349h6.464v23.432c0 1.096.887 1.983 1.983 1.983h24.111c.738 0 1.416-.411 1.756-1.065l12.733-24.349h147.819l12.735 24.349c.345.655 1.019 1.065 1.758 1.065h24.113c1.096 0 1.983-.887 1.983-1.983v-23.432h6.46c7.913 0 14.353-6.437 14.353-14.349v-265.9c.002-7.916-6.439-14.353-14.352-14.353zm-210.559 316.051h-20.928v-21.449h32.144zm200.133 0h-20.93l-11.216-21.449h32.146zm20.814-35.798c0 5.724-4.659 10.383-10.387 10.383-50.192 0-184.967 0-241.916 0-5.726 0-10.385-4.659-10.385-10.383v-265.9c0-5.728 4.659-10.387 10.385-10.387h241.916c5.728 0 10.387 4.659 10.387 10.387z"/><path d="m364.592 216.527h-217.182c-1.096 0-1.983.887-1.983 1.983v241.155c0 1.096.887 1.983 1.983 1.983h217.182c1.096 0 1.983-.887 1.983-1.983v-241.156c0-1.096-.887-1.982-1.983-1.982zm-215.199 3.965h104.625v237.189h-104.625zm213.216 237.19h-104.625v-237.19h104.625z"/><path d="m278.205 360.052c4.303 0 7.8-3.497 7.8-7.8v-26.329c0-4.303-3.497-7.8-7.8-7.8s-7.8 3.497-7.8 7.8v26.329c0 4.302 3.497 7.8 7.8 7.8zm-3.834-34.129c0-2.115 1.72-3.834 3.834-3.834s3.834 1.72 3.834 3.834v26.329c0 2.115-1.72 3.834-3.834 3.834s-3.834-1.72-3.834-3.834z"/><path d="m233.795 318.123c-4.301 0-7.8 3.497-7.8 7.8v26.329c0 4.303 3.499 7.8 7.8 7.8 4.303 0 7.802-3.497 7.802-7.8v-26.329c0-4.303-3.499-7.8-7.802-7.8zm3.836 34.128c0 2.115-1.722 3.834-3.836 3.834s-3.834-1.72-3.834-3.834v-26.329c0-2.115 1.72-3.834 3.834-3.834s3.836 1.72 3.836 3.834z"/><path d="m243.313 22.401h25.376c3.524 0 6.39-2.866 6.39-6.387v-9.427c0-3.524-2.866-6.39-6.39-6.39h-25.376c-3.522 0-6.388 2.866-6.388 6.39v9.427c0 3.521 2.866 6.387 6.388 6.387zm-2.422-15.814c0-1.336 1.086-2.424 2.423-2.424h25.376c1.336 0 2.424 1.088 2.424 2.424v9.427c0 1.336-1.088 2.421-2.424 2.421h-25.376c-1.336 0-2.423-1.084-2.423-2.421z"/></g></g></g></svg>