<svg height="512" viewBox="0 0 64 64" width="512" xmlns="http://www.w3.org/2000/svg"><g id="r"><g><g><path d="m9 63h-4l4-16h6z" fill="#753511"/><path d="m55 63h4l-4-16h-6z" fill="#753511"/><rect fill="#d46120" height="6" rx="2" width="62" x="1" y="41"/><path d="m24 29h16v6c0 3.311-2.689 6-6 6h-4c-3.311 0-6-2.689-6-6z" fill="#f8ead3"/></g><g><path d="m61 40h-22.111c.595-.582 1.083-1.271 1.442-2.033 2.6-.174 4.669-2.323 4.669-4.967 0-2.757-2.243-5-5-5h-16c-.553 0-1 .448-1 1v6c0 1.958.81 3.728 2.111 5h-22.111c-1.654 0-3 1.346-3 3v2c0 1.654 1.346 3 3 3h4.72l-3.689 14.758c-.075.299-.008.615.182.857.189.243.48.385.788.385h4c.417 0 .79-.259.937-.648l5.757-15.352h32.612l5.757 15.352c.146.39.52.648.937.648h4c.308 0 .599-.142.788-.385.189-.242.257-.559.182-.857l-3.689-14.758h4.72c1.654 0 3-1.346 3-3v-2c0-1.654-1.346-3-3-3zm-18-7c0 1.322-.865 2.434-2.054 2.833.033-.274.054-.55.054-.833v-4.816c1.161.414 2 1.514 2 2.816zm-18 2v-5h14v5c0 2.757-2.243 5-5 5h-4c-2.757 0-5-2.243-5-5zm-16.693 27h-2.025l3.5-14h3.775zm49.412 0h-2.025l-5.25-14h3.775zm4.281-17c0 .552-.448 1-1 1h-58c-.552 0-1-.448-1-1v-2c0-.552.448-1 1-1h58c.552 0 1 .448 1 1z"/><path d="m34.333 26c.256 0 .512-.098.707-.293.391-.391.391-1.024 0-1.414-.297-.297-1.123-1.346-1.034-2.245.045-.453.334-.851.882-1.217 2.876-1.918 2.823-4.861 2.394-6.15-.173-.52-.729-.799-1.255-.631-.521.169-.809.732-.645 1.256.074.236.658 2.352-1.604 3.861-1.324.883-1.689 1.947-1.763 2.684-.196 1.987 1.425 3.671 1.61 3.857.195.195.451.293.707.293z"/><path d="m28.333 24c.256 0 .512-.098.707-.293.391-.391.391-1.024 0-1.414-.297-.297-1.123-1.346-1.034-2.245.045-.453.334-.851.882-1.217 2.876-1.918 2.823-4.861 2.394-6.15-.173-.52-.729-.799-1.255-.631-.521.169-.809.732-.645 1.256.074.236.658 2.352-1.604 3.861-1.324.883-1.689 1.947-1.763 2.684-.196 1.987 1.425 3.671 1.61 3.857.195.195.451.293.707.293z"/></g></g></g></svg>