<svg id="Layer_100" viewBox="0 0 100 100" xmlns="http://www.w3.org/2000/svg" data-name="Layer 100"><g fill="#d3af90"><path d="m47.47 58.577h5.06v31.707h-5.06z" transform="matrix(0 1 -1 0 124.431 24.431)"/><path d="m31.37 59.433h4.904v35.541h-4.904z"/><path d="m63.726 59.433h4.904v35.541h-4.904z" transform="matrix(-1 0 0 -1 132.356 154.408)"/></g><path d="m66.625 53.58h-33.251l-1.997-41.14c-.168-4.051 2.688-7.44 6.27-7.44h24.705c3.582 0 6.438 3.389 6.27 7.44z" fill="#6db8c9"/><path d="m33.899 52.771h32.202c2.754 0 4.99 2.236 4.99 4.99v3.003h-42.183v-3.003c0-2.754 2.236-4.99 4.99-4.99z" fill="#bdeeff"/><path d="m67.451 52.187 1.919-39.716c.097-2.307-.715-4.535-2.228-6.112-1.304-1.36-3.006-2.109-4.792-2.109h-24.7c-1.786 0-3.488.749-4.792 2.109-1.512 1.577-2.324 3.805-2.227 6.117l1.918 39.711c-2.515.609-4.391 2.874-4.391 5.574v3.003c0 .414.336.75.75.75h1.712v33.46c0 .414.336.75.75.75h4.904c.414 0 .75-.336.75-.75v-17.264h25.952v17.264c0 .414.336.75.75.75h4.904c.414 0 .75-.336.75-.75v-33.46h1.712c.414 0 .75-.336.75-.75v-3.003c0-2.7-1.876-4.964-4.391-5.574zm-33.511-44.79c1.019-1.062 2.336-1.647 3.709-1.647h24.7c1.374 0 2.691.585 3.709 1.647 1.231 1.283 1.891 3.11 1.812 5.006l-1.914 39.617h-31.915l-1.913-39.612c-.08-1.901.58-3.728 1.811-5.011zm1.584 86.828h-3.404v-32.71h3.404zm27.452-32.711v9.637h-25.952v-9.637zm-25.952 14.696v-3.56h25.952v3.56zm30.856 18.015h-3.404v-32.71h3.404zm2.462-34.211h-40.684v-2.253c0-2.338 1.902-4.241 4.241-4.241h32.202c2.338 0 4.241 1.902 4.241 4.241z"/><path d="m35.584 14.169c-.359 0-.676-.257-.738-.623-.281-1.655.155-4.956 3.819-5.603.404-.072.797.201.869.608s-.201.797-.608.869c-3.052.539-2.656 3.537-2.601 3.877.066.408-.209.794-.617.861-.042.007-.083.01-.124.01z"/><path d="m35.796 17.438c-.414 0-.75-.336-.75-.75v-.153c0-.414.336-.75.75-.75s.75.336.75.75v.153c0 .414-.336.75-.75.75z"/></svg>