<svg clip-rule="evenodd" fill-rule="evenodd" height="512" image-rendering="optimizeQuality" shape-rendering="geometricPrecision" text-rendering="geometricPrecision" viewBox="0 0 512 512" width="512" xmlns="http://www.w3.org/2000/svg" xmlns:xodm="http://www.corel.com/coreldraw/odm/2003"><g id="Layer_x0020_1"><g id="_1693380391792"><path d="m419.61 300.09v-271.83c0-8.4-6.85-15.26-15.26-15.26h-296.7c-8.41 0-15.26 6.85-15.26 15.26v271.83l20.11 5.16 221.14.84z" fill="#553323"/><path d="m404.35 468.98c8.41 0 15.25-6.85 15.26-15.26l.28-145.41h-327.23l-.27 145.41c-.02 8.41 6.85 15.26 15.26 15.26z" fill="#875a48"/><path d="m184.37 511.88h-51.69c-3.31 0-6-2.69-6-6v-30.02c0-3.31 2.69-6 6-6h71.68c2.21 0 4.24 1.22 5.29 3.17 1.04 1.95.92 4.31-.3 6.15l-19.99 30.02c-1.11 1.68-2.99 2.68-4.99 2.68zm194.95 0h-51.69c-2 0-3.88-1-4.99-2.68l-19.99-30.02c-1.23-1.84-1.34-4.2-.3-6.15 1.05-1.95 3.08-3.17 5.29-3.17h71.68c3.31 0 6 2.69 6 6v30.02c0 3.31-2.69 6-6 6z" fill="#553323"/><path d="m256 481.86c-3.31 0-6-2.69-6-6v-169.77c0-3.31 2.69-6 6-6s6 2.69 6 6v169.77c0 3.31-2.69 6-6 6z" fill="#774836"/><path d="m224.81 426.43h-29.59c-3.32 0-6-2.69-6-6v-58.91c0-3.31 2.68-6 6-6h29.59c3.32 0 6 2.69 6 6v58.91c0 3.31-2.68 6-6 6zm91.97 0h-29.59c-3.32 0-6-2.69-6-6v-58.91c0-3.31 2.68-6 6-6h29.59c3.32 0 6 2.69 6 6v58.91c0 3.31-2.68 6-6 6z" fill="#fefa86"/><path d="m256 312.08c-3.31 0-6-2.68-6-5.99v-299.97c0-3.31 2.69-6 6-6s6 2.69 6 6v299.97c0 3.31-2.69 5.99-6 5.99z" fill="#774836"/><path d="m171 160.25c-25.19 0-46.66-17.12-46.66-42.31 0-16.67 9.1-31.95 23.5-39.95v-17.53c0-3.31 2.69-6 6-6h32.38c3.31 0 6 2.69 6 6v17.53c14.4 8 23.51 23.28 23.51 39.95 0 25.2-19.53 42.31-44.73 42.31z" fill="#a3dcf8"/><path d="m330.12 157.63h-35.74c-3.32 0-8.48 3.32-8.48.01v-102.46c0-3.31 2.69-5.99 6-5.99h35.74c3.32 0 6 2.68 6 5.99v102.46c0 3.31-.21-.01-3.52-.01z" fill="#42c7f4"/><path d="m285.9 141.25v-28.68h47.74v28.68z" fill="#e6e6e6"/><path d="m309.77 105.04c-3.31 0-6-2.68-6-6v-26.8c0-3.31 2.69-6 6-6s6 2.69 6 6v26.8c0 3.32-2.69 6-6 6z" fill="#e6e6e6"/><path d="m392.64 160.07h-35.74c-3.32 0-6.6.88-6.6-2.43v-102.46c0-3.31 2.68-5.99 5.99-5.99h35.75c3.31 0 6 2.68 6 5.99v102.46c0 3.31-2.08 2.43-5.4 2.43z" fill="#ed8a19"/><path d="m350.3 141.25v-28.68h47.74v28.68z" fill="#e6e6e6"/><path d="m374.17 105.04c-3.31 0-6-2.68-6-6v-26.8c0-3.31 2.69-6 6-6s5.99 2.69 5.99 6v26.8c0 3.32-2.68 6-5.99 6z" fill="#e6e6e6"/><path d="m198.78 309.32h-56.16c-7.31 0-14.03-2.98-15.05-10.9l-8.13-62.93c-.48-3.66.66-7.26 3.2-10.15 2.77-3.16 6.95-5.05 11.18-5.05h72.42c4.22 0 8.4 1.89 11.18 5.05 2.54 2.89 3.67 6.49 3.2 10.15l-8.13 62.93c-1.02 7.92-6.4 10.9-13.71 10.9z" fill="#a3dcf8"/><path d="m401.02 481.86h-290.04c-18.15 0-32.92-14.77-32.92-32.92v-415.9c0-18.15 14.77-32.92 32.92-32.92h290.04c18.15 0 32.92 14.77 32.92 32.92v415.9c-.01 18.15-14.77 32.92-32.92 32.92zm0-18c8.21 0 14.92-6.7 14.92-14.92v-415.9c0-8.22-6.71-14.92-14.92-14.92h-290.04c-8.22 0-14.92 6.7-14.92 14.92v415.9c0 8.22 6.71 14.92 14.92 14.92z" fill="#774836"/><path d="m427.94 163.63h-343.88c-3.31 0-6-2.68-6-5.99s2.69-6 6-6h343.88c3.31 0 5.99 2.69 5.99 6s-2.68 5.99-5.99 5.99z" fill="#774836"/><path d="m327.96 307.77h-35.75c-3.31 0-6.31 1.63-6.31-1.68v-102.45c0-3.31 2.69-6 6-6h35.74c3.32 0 6 2.69 6 6v102.45c0 3.31-2.37 1.68-5.68 1.68z" fill="#27d674"/><path d="m285.9 289.7v-28.68h47.74v28.68z" fill="#e6e6e6"/><path d="m309.77 253.49c-3.31 0-6-2.68-6-5.99v-26.81c0-3.31 2.69-6 6-6s6 2.69 6 6v26.81c0 3.31-2.69 5.99-6 5.99z" fill="#e6e6e6"/><path d="m393.13 308.55h-35.74c-3.31 0-7.09.85-7.09-2.46v-102.45c0-3.31 2.68-6 5.99-6h35.75c3.31 0 6 2.69 6 6v102.45c0 3.31-1.59 2.46-4.91 2.46z" fill="#f9b938"/><path d="m350.3 289.7v-28.68h47.74v28.68z" fill="#e6e6e6"/><path d="m374.17 253.49c-3.31 0-6-2.68-6-5.99v-26.81c0-3.31 2.69-6 6-6s5.99 2.69 5.99 6v26.81c0 3.31-2.68 5.99-5.99 5.99z" fill="#e6e6e6"/><path d="m427.94 312.08h-343.88c-3.31 0-6-2.68-6-5.99s2.69-6 6-6h343.88c3.31 0 5.99 2.69 5.99 6s-2.68 5.99-5.99 5.99z" fill="#774836"/></g></g></svg>