<svg enable-background="new 0 0 512 512" viewBox="0 0 512 512" xmlns="http://www.w3.org/2000/svg"><g id="_x34_6_dresser"><g><path d="m124.912 273.87v-233.643c0-15.902 12.891-28.794 28.794-28.794h204.588c15.902 0 28.794 12.891 28.794 28.794v233.643z" fill="#d7914c"/><path d="m143.695 255.094v-208.22c0-9.203 7.46-16.663 16.663-16.663h191.283c9.203 0 16.663 7.46 16.663 16.663v208.219h-224.609z" fill="#d2e5ea"/><path d="m369.022 475.588v19.108c0 3.242-2.628 5.87-5.87 5.87h-21.13c-3.242 0-5.87-2.628-5.87-5.87v-19.108z" fill="#656158"/><path d="m168.282 475.588v19.108c0 3.242-2.628 5.87-5.87 5.87h-21.13c-3.242 0-5.87-2.628-5.87-5.87v-19.108z" fill="#656158"/><path d="m100.26 465.901c0 5.349 4.336 9.685 9.685 9.685h292.11c5.349 0 9.685-4.336 9.685-9.685v-58.596h-311.48z" fill="#d7914c"/><path d="m100.26 339.022h311.479v68.283h-311.479z" fill="#d7914c"/><path d="m411.74 339.022v-50.87c0-7.888-6.395-14.283-14.283-14.283h-282.914c-7.888 0-14.283 6.395-14.283 14.283v50.87z" fill="#d7914c"/><g fill="#0e004a"><path d="m351.641 26.952h-191.282c-10.986 0-19.925 8.936-19.925 19.922v208.219c0 1.802 1.46 3.261 3.261 3.261h224.611c1.801 0 3.261-1.458 3.261-3.261v-208.219c-.001-10.987-8.939-19.922-19.926-19.922zm13.404 224.88h-218.09v-204.958c0-7.388 6.012-13.4 13.403-13.4h191.282c7.391 0 13.403 6.012 13.403 13.4v204.958z"/><path d="m397.458 270.61h-7.109v-230.382c0-17.674-14.379-32.055-32.055-32.055h-204.587c-17.675 0-32.055 14.381-32.055 32.055v230.382h-7.109c-9.673 0-17.543 7.869-17.543 17.543v177.747c0 7.14 5.808 12.948 12.946 12.948h22.205v15.849c0 5.035 4.097 9.13 9.131 9.13h21.13c5.035 0 9.13-4.095 9.13-9.13v-15.849h161.348v15.849c0 5.035 4.097 9.13 9.131 9.13h21.13c5.035 0 9.13-4.095 9.13-9.13v-15.849h29.771c7.138 0 12.946-5.808 12.946-12.948 0-37.753 0-139.738 0-177.747.003-9.674-7.868-17.543-17.54-17.543zm-269.284-230.382c0-14.078 11.454-25.533 25.533-25.533h204.587c14.078 0 25.533 11.454 25.533 25.533v230.382h-255.653zm36.847 454.469c0 1.439-1.17 2.608-2.608 2.608h-21.13c-1.439 0-2.61-1.169-2.61-2.608v-15.849h26.348zm200.74 0c0 1.439-1.17 2.608-2.608 2.608h-21.13c-1.439 0-2.61-1.169-2.61-2.608v-15.849h26.348zm42.718-28.797c0 3.544-2.882 6.426-6.425 6.426-63.904 0-229.914 0-292.109 0-3.543 0-6.425-2.882-6.425-6.426v-55.333h304.958v55.333zm0-61.855h-304.958v-61.763h304.958zm0-68.284h-304.958v-47.608c0-6.076 4.944-11.021 11.021-11.021h282.915c6.078 0 11.021 4.945 11.021 11.021v47.608z"/><path d="m282.413 303.184h-52.825c-1.801 0-3.261 1.458-3.261 3.261s1.46 3.261 3.261 3.261h52.825c1.801 0 3.261-1.458 3.261-3.261s-1.46-3.261-3.261-3.261z"/><path d="m229.587 376.423h52.825c1.801 0 3.261-1.458 3.261-3.261s-1.46-3.261-3.261-3.261h-52.825c-1.801 0-3.261 1.458-3.261 3.261s1.461 3.261 3.261 3.261z"/><path d="m229.587 444.708h52.825c1.801 0 3.261-1.458 3.261-3.261s-1.46-3.261-3.261-3.261h-52.825c-1.801 0-3.261 1.458-3.261 3.261s1.461 3.261 3.261 3.261z"/><path d="m311.328 40.301c-1.274-1.274-3.337-1.274-4.611 0s-1.274 3.337 0 4.611l45.783 45.783c1.274 1.274 3.337 1.274 4.611 0s1.274-3.337 0-4.611z"/><path d="m306.632 59.086c-1.274-1.274-3.337-1.274-4.611 0s-1.274 3.337 0 4.611l26.999 26.998c1.274 1.274 3.337 1.274 4.611 0s1.274-3.337 0-4.611z"/><path d="m168.282 80.533c-1.801 0-3.261 1.458-3.261 3.261v86.547c0 1.802 1.46 3.261 3.261 3.261s3.261-1.458 3.261-3.261v-86.547c0-1.802-1.46-3.261-3.261-3.261z"/><path d="m168.282 184.433c-1.801 0-3.261 1.458-3.261 3.261v13.814c0 1.802 1.46 3.261 3.261 3.261s3.261-1.458 3.261-3.261v-13.814c0-1.803-1.46-3.261-3.261-3.261z"/></g></g></g><g id="Layer_1"/></svg>