<svg id="Flat" height="512" viewBox="0 0 64 64" width="512" xmlns="http://www.w3.org/2000/svg"><path d="m51 62h-4l-2-4h6z" fill="#b96c5a"/><path d="m45 58 1 2h5v-2z" fill="#aa5a46"/><path d="m13 62h4l2-4h-6z" fill="#b96c5a"/><path d="m13 60h5l1-2h-6z" fill="#aa5a46"/><path d="m10 14h44a0 0 0 0 1 0 0v41a3 3 0 0 1 -3 3h-38a3 3 0 0 1 -3-3v-41a0 0 0 0 1 0 0z" fill="#ca8871"/><path d="m54 55v-41h-42v41a3 3 0 0 0 3 3h36a3 3 0 0 0 3-3z" fill="#b96c5a"/><path d="m10 14h44v2.5h-44z" fill="#b96c5a"/><path d="m12 14h42v2.5h-42z" fill="#aa5a46"/><path d="m8 10h48v4h-48z" fill="#e9a790"/><path d="m11 12h45v2h-45z" fill="#dc987d"/><path d="m14 38h36v16h-36z" fill="#e9a790"/><path d="m17 40h33v14h-33z" fill="#dc987d"/><path d="m36 45h-8a1 1 0 0 1 -1-1v-2a1 1 0 0 1 2 0v1h6v-1a1 1 0 0 1 2 0v2a1 1 0 0 1 -1 1z" fill="#5a646e"/><path d="m14 18h36v16h-36z" fill="#e9a790"/><path d="m17 20h33v14h-33z" fill="#dc987d"/><path d="m36 25h-8a1 1 0 0 1 -1-1v-2a1 1 0 0 1 2 0v1h6v-1a1 1 0 0 1 2 0v2a1 1 0 0 1 -1 1z" fill="#5a646e"/><path d="m19 2h18v16h-18z" fill="#bfe0e6"/><path d="m23 2h18v16h-18z" fill="#d3e9ee"/><path d="m27 2h18v16h-18z" fill="#fafcff"/><g fill="#5a646e"><path d="m41 7h-10a1 1 0 0 1 0-2h10a1 1 0 0 1 0 2z"/><path d="m41 11h-10a1 1 0 0 1 0-2h10a1 1 0 0 1 0 2z"/><path d="m41 15h-10a1 1 0 0 1 0-2h10a1 1 0 0 1 0 2z"/></g></svg>