<svg id="Layer_1" viewBox="0 0 64 64" xmlns="http://www.w3.org/2000/svg" data-name="Layer 1"><g fill="#9cafb7"><path d="m8 2h4v38h-4z"/><path d="m52 2h4v38h-4z"/><path d="m9 44-3 18h-3l2-18"/><path d="m55 44 3 18h3l-2-18"/></g><path d="m6 40h52a4 4 0 0 1 4 4 0 0 0 0 1 0 0h-60a0 0 0 0 1 0 0 4 4 0 0 1 4-4z" fill="#4281a4"/><path d="m4 8h56v8h-56z" fill="#ead2ac"/><path d="m4 24h56v8h-56z" fill="#e6b89c"/><path d="m58 39h-1v-6h3a1 1 0 0 0 1-1v-8a1 1 0 0 0 -1-1h-3v-6h3a1 1 0 0 0 1-1v-8a1 1 0 0 0 -1-1h-3v-5a1 1 0 0 0 -1-1h-4a1 1 0 0 0 -1 1v5h-38v-5a1 1 0 0 0 -1-1h-4a1 1 0 0 0 -1 1v5h-3a1 1 0 0 0 -1 1v8a1 1 0 0 0 1 1h3v6h-3a1 1 0 0 0 -1 1v8a1 1 0 0 0 1 1h3v6h-1a5 5 0 0 0 -5 5 1 1 0 0 0 1 1h1.88l-1.88 16.89a1 1 0 0 0 .24.78 1 1 0 0 0 .76.33h3a1 1 0 0 0 1-.84l2.85-17.16h44.3l2.85 17.16a1 1 0 0 0 1 .84h3a1 1 0 0 0 .75-.33 1 1 0 0 0 .24-.78l-1.87-16.89h1.88a1 1 0 0 0 1-1 5 5 0 0 0 -5-5zm-5-36h2v4h-2zm-44 0h2v4h-2zm-4 12v-6h54v6zm50 2v6h-2v-6zm-4 0v6h-38v-6zm-40 0v6h-2v-6zm-6 14v-6h54v6zm50 2v6h-2v-6zm-4 0v6h-38v-6zm-40 0v6h-2v-6zm-5.85 28h-1l1.74-16h1.93zm53.7 0-2.67-16h1.93l1.77 16zm-55.68-18a3 3 0 0 1 2.83-2h52a3 3 0 0 1 2.83 2z"/></svg>