<?xml version="1.0" encoding="UTF-8" standalone="no"?>
<!-- Created with Inkscape (http://www.inkscape.org/) -->

<svg
   version="1.1"
   id="svg3483"
   xml:space="preserve"
   width="682.66669"
   height="682.66669"
   viewBox="0 0 682.66669 682.66669"
   xmlns="http://www.w3.org/2000/svg"
   xmlns:svg="http://www.w3.org/2000/svg"><defs
     id="defs3487"><clipPath
       clipPathUnits="userSpaceOnUse"
       id="clipPath3497"><path
         d="M 0,512 H 512 V 0 H 0 Z"
         id="path3495" /></clipPath></defs><g
     id="g3489"
     transform="matrix(1.3333333,0,0,-1.3333333,0,682.66667)"><g
       id="g3491"><g
         id="g3493"
         clip-path="url(#clipPath3497)"><g
           id="g3499"
           transform="translate(410.5898,7.5)"><path
             d="m 0,0 h -309.18 c -5.519,0 -9.993,4.474 -9.993,9.994 V 161.347 H 9.993 V 9.994 C 9.993,4.474 5.52,0 0,0"
             style="fill:#eff5f6;fill-opacity:1;fill-rule:nonzero;stroke:none"
             id="path3501" /></g><path
           d="M 420.583,168.847 H 91.417 v -27.676 h 329.166 z"
           style="fill:#cae5e7;fill-opacity:1;fill-rule:nonzero;stroke:none"
           id="path3503" /><g
           id="g3505"
           transform="translate(388.1143,168.8467)"><path
             d="m 0,0 v -161.347 h 22.476 c 5.518,0 9.993,4.474 9.993,9.994 V 0 Z"
             style="fill:#cae5e7;fill-opacity:1;fill-rule:nonzero;stroke:none"
             id="path3507" /></g><g
           id="g3509"
           transform="translate(91.417,69.8115)"><path
             d="m 0,0 v -52.318 c 0,-5.519 4.474,-9.994 9.993,-9.994 h 309.18 c 5.519,0 9.993,4.475 9.993,9.994 V 99.035 L 0,99.035 V 32.991"
             style="fill:none;stroke:#000000;stroke-width:15;stroke-linecap:round;stroke-linejoin:round;stroke-miterlimit:10;stroke-dasharray:none;stroke-opacity:1"
             id="path3511" /></g><g
           id="g3513"
           transform="translate(414.2773,494.5054)"><path
             d="M 0,0 V -311.689 H -316.555 V 0 c 0,5.516 4.477,9.993 9.993,9.993 H -9.993 C -4.477,9.993 0,5.516 0,0"
             style="fill:#b4daff;fill-opacity:1;fill-rule:nonzero;stroke:none"
             id="path3515" /></g><g
           id="g3517"
           transform="translate(414.2773,494.5054)"><path
             d="M 0,0 V -311.689 H -33.768 V 0 c 0,5.516 -4.477,9.993 -9.994,9.993 H -9.993 C -4.477,9.993 0,5.516 0,0"
             style="fill:#8bc9fe;fill-opacity:1;fill-rule:nonzero;stroke:none"
             id="path3519" /></g><g
           id="g3521"
           transform="translate(414.2773,323.3457)"><path
             d="M 0,0 V -140.529 H -140.529 Z"
             style="fill:#d8ecfe;fill-opacity:1;fill-rule:nonzero;stroke:none"
             id="path3523" /></g><g
           id="g3525"
           transform="translate(380.5098,289.5776)"><path
             d="M 0,0 33.768,33.768 V -106.761 H 0 Z"
             style="fill:#b4daff;fill-opacity:1;fill-rule:nonzero;stroke:none"
             id="path3527" /></g><g
           id="g3529"
           transform="translate(414.2773,413.1777)"><path
             d="m 0,0 v -61.391 l -168.971,-168.97 h -61.389 z"
             style="fill:#d8ecfe;fill-opacity:1;fill-rule:nonzero;stroke:none"
             id="path3531" /></g><g
           id="g3533"
           transform="translate(414.2773,413.1777)"><path
             d="m 0,0 v -61.391 l -33.768,-33.768 v 61.391 z"
             style="fill:#b4daff;fill-opacity:1;fill-rule:nonzero;stroke:none"
             id="path3535" /></g><g
           id="g3537"
           transform="translate(198.1875,504.4985)"><path
             d="m 0,0 -100.465,-100.475 v 35.617 L -35.617,0 Z"
             style="fill:#d8ecfe;fill-opacity:1;fill-rule:nonzero;stroke:none"
             id="path3539" /></g><g
           id="g3541"
           transform="translate(268.9619,504.4985)"><path
             d="m 0,0 -171.239,-171.249 v 35.617 L -35.617,0 Z"
             style="fill:#d8ecfe;fill-opacity:1;fill-rule:nonzero;stroke:none"
             id="path3543" /></g><g
           id="g3545"
           transform="translate(414.2764,410.8286)"><path
             d="m 0,0 v 83.678 c 0,5.519 -4.474,9.993 -9.993,9.993 H -306.56 c -5.518,0 -9.993,-4.474 -9.993,-9.993 V -228.015 H 0 v 195.024"
             style="fill:none;stroke:#000000;stroke-width:15;stroke-linecap:round;stroke-linejoin:round;stroke-miterlimit:10;stroke-dasharray:none;stroke-opacity:1"
             id="path3547" /></g><g
           id="g3549"
           transform="translate(435.5869,160.9468)"><path
             d="m 0,0 h -359.174 c -2.76,0 -4.997,2.237 -4.997,4.997 v 25.378 c 0,2.76 2.237,4.997 4.997,4.997 H 0 c 2.76,0 4.997,-2.237 4.997,-4.997 V 4.997 C 4.997,2.237 2.76,0 0,0"
             style="fill:#3e5958;fill-opacity:1;fill-rule:nonzero;stroke:none"
             id="path3551" /></g><g
           id="g3553"
           transform="translate(440.5811,191.3213)"><path
             d="m 0,0 v -25.374 c 0,-2.768 -2.239,-4.997 -4.997,-4.997 h -29.302 c 2.759,0 4.997,2.229 4.997,4.997 V 0 c 0,2.758 -2.238,4.997 -4.997,4.997 H -4.997 C -2.239,4.997 0,2.758 0,0"
             style="fill:#374848;fill-opacity:1;fill-rule:nonzero;stroke:none"
             id="path3555" /></g><g
           id="g3557"
           transform="translate(189.8174,196.3188)"><path
             d="m 0,0 h -113.404 c -2.76,0 -4.997,-2.237 -4.997,-4.997 v -25.378 c 0,-2.76 2.237,-4.997 4.997,-4.997 H 245.77 c 2.759,0 4.997,2.237 4.997,4.997 v 25.378 c 0,2.76 -2.238,4.997 -4.997,4.997 H 32.99"
             style="fill:none;stroke:#000000;stroke-width:15;stroke-linecap:round;stroke-linejoin:round;stroke-miterlimit:10;stroke-dasharray:none;stroke-opacity:1"
             id="path3559" /></g><g
           id="g3561"
           transform="translate(255.999,160.9468)"><path
             d="M 0,0 V -150.909"
             style="fill:none;stroke:#000000;stroke-width:15;stroke-linecap:round;stroke-linejoin:round;stroke-miterlimit:10;stroke-dasharray:none;stroke-opacity:1"
             id="path3563" /></g><g
           id="g3565"
           transform="translate(308.7676,69.8516)"><path
             d="m 0,0 -16.641,-7.492 c -3.306,-1.489 -7.047,0.93 -7.047,4.556 v 36.699 c 0,3.626 3.741,6.045 7.047,4.556 L 0,30.827 C 1.793,30.02 2.945,28.236 2.945,26.271 V 4.556 C 2.945,2.59 1.793,0.807 0,0"
             style="fill:#26a5fe;fill-opacity:1;fill-rule:nonzero;stroke:none"
             id="path3567" /></g><g
           id="g3569"
           transform="translate(308.7676,69.8516)"><path
             d="m 0,0 -16.641,-7.492 c -3.306,-1.489 -7.047,0.93 -7.047,4.556 v 36.699 c 0,3.626 3.741,6.045 7.047,4.556 L 0,30.827 C 1.793,30.02 2.945,28.236 2.945,26.271 V 4.556 C 2.945,2.59 1.793,0.807 0,0 Z"
             style="fill:none;stroke:#000000;stroke-width:15;stroke-linecap:round;stroke-linejoin:round;stroke-miterlimit:10;stroke-dasharray:none;stroke-opacity:1"
             id="path3571" /></g><g
           id="g3573"
           transform="translate(203.2324,69.8516)"><path
             d="m 0,0 16.641,-7.492 c 3.306,-1.489 7.047,0.93 7.047,4.556 v 36.699 c 0,3.626 -3.741,6.045 -7.047,4.556 L 0,30.827 C -1.793,30.02 -2.945,28.236 -2.945,26.271 V 4.556 C -2.945,2.59 -1.793,0.807 0,0"
             style="fill:#26a5fe;fill-opacity:1;fill-rule:nonzero;stroke:none"
             id="path3575" /></g><g
           id="g3577"
           transform="translate(203.2324,69.8516)"><path
             d="m 0,0 16.641,-7.492 c 3.306,-1.489 7.047,0.93 7.047,4.556 v 36.699 c 0,3.626 -3.741,6.045 -7.047,4.556 L 0,30.827 C -1.793,30.02 -2.945,28.236 -2.945,26.271 V 4.556 C -2.945,2.59 -1.793,0.807 0,0 Z"
             style="fill:none;stroke:#000000;stroke-width:15;stroke-linecap:round;stroke-linejoin:round;stroke-miterlimit:10;stroke-dasharray:none;stroke-opacity:1"
             id="path3579" /></g></g></g></g></svg>
