<svg id="Layer_1" enable-background="new 0 0 64 64" height="512" viewBox="0 0 64 64" width="512" xmlns="http://www.w3.org/2000/svg" xmlns:xlink="http://www.w3.org/1999/xlink"><pattern id="New_Pattern_Swatch_13" height="58.5" overflow="visible" patternUnits="userSpaceOnUse" viewBox="0 -58.5 58.5 58.5" width="58.5" x="-252" y="-756"><g><path d="m0-58.5h58.5v58.5h-58.5z" fill="none"/><path d="m0-58.5h58.5v58.5h-58.5z" fill="#f0b758"/></g></pattern><pattern id="New_Pattern_Swatch_19" height="58.5" overflow="visible" patternUnits="userSpaceOnUse" viewBox="0 -58.5 58.5 58.5" width="58.5" x="-252" y="-756"><g><path d="m0-58.5h58.5v58.5h-58.5z" fill="none"/><path d="m0-58.5h58.5v58.5h-58.5z" fill="#83939f"/></g></pattern><pattern id="New_Pattern_Swatch_21" height="58.5" overflow="visible" patternUnits="userSpaceOnUse" viewBox="0 -58.5 58.5 58.5" width="58.5" x="-252" y="-756"><g><path d="m0-58.5h58.5v58.5h-58.5z" fill="none"/><path d="m0-58.5h58.5v58.5h-58.5z" fill="#7fb3e1"/></g></pattern><pattern id="New_Pattern_Swatch_4" height="58.5" overflow="visible" patternUnits="userSpaceOnUse" viewBox="0 -58.5 58.5 58.5" width="58.5" x="-252" y="-756"><g><path d="m0-58.5h58.5v58.5h-58.5z" fill="none"/><path d="m0-58.5h58.5v58.5h-58.5z" fill="#f06c74"/></g></pattern><pattern id="New_Pattern_Swatch_7" height="58.5" overflow="visible" patternUnits="userSpaceOnUse" viewBox="0 -58.5 58.5 58.5" width="58.5" x="-252" y="-756"><g><path d="m0-58.5h58.5v58.5h-58.5z" fill="none"/><path d="m0-58.5h58.5v58.5h-58.5z" fill="#a6cceb"/></g></pattern><pattern id="SVGID_1_" patternTransform="matrix(.985 0 0 .985 -81.746 -115.59)" xlink:href="#New_Pattern_Swatch_19"/><pattern id="SVGID_2_" patternTransform="matrix(.985 0 0 .985 -81.746 -115.59)" xlink:href="#New_Pattern_Swatch_19"/><pattern id="SVGID_3_" patternTransform="matrix(.985 0 0 .985 -81.746 -115.59)" xlink:href="#New_Pattern_Swatch_19"/><pattern id="SVGID_4_" patternTransform="matrix(.985 0 0 .985 -81.746 -115.59)" xlink:href="#New_Pattern_Swatch_13"/><pattern id="SVGID_5_" patternTransform="matrix(.985 0 0 .985 -81.746 -115.59)" xlink:href="#New_Pattern_Swatch_4"/><pattern id="SVGID_6_" patternTransform="matrix(.985 0 0 .985 -81.746 -115.59)" xlink:href="#New_Pattern_Swatch_4"/><pattern id="SVGID_7_" patternTransform="matrix(.985 0 0 .985 -81.746 -115.59)" xlink:href="#New_Pattern_Swatch_13"/><pattern id="SVGID_8_" patternTransform="matrix(.985 0 0 .985 -81.746 -115.59)" xlink:href="#New_Pattern_Swatch_21"/><pattern id="SVGID_9_" patternTransform="matrix(.985 0 0 .985 -81.746 -115.59)" xlink:href="#New_Pattern_Swatch_7"/><pattern id="SVGID_10_" patternTransform="matrix(.985 0 0 .985 -81.746 -115.59)" xlink:href="#New_Pattern_Swatch_21"/><pattern id="SVGID_11_" patternTransform="matrix(.985 0 0 .985 -81.746 -115.59)" xlink:href="#New_Pattern_Swatch_7"/><pattern id="SVGID_12_" patternTransform="matrix(.985 0 0 .985 -81.746 -115.59)" xlink:href="#New_Pattern_Swatch_4"/><pattern id="SVGID_13_" patternTransform="matrix(.985 0 0 .985 -81.746 -115.59)" xlink:href="#New_Pattern_Swatch_4"/><g><path d="m55.6 22.6h-5.4c-1 0-1.8.6-2.1 1.4-.1.2-.1.5-.1.8v.5c.1 1.2 1 2.1 2.2 2.1h2.4v1.7c0 3.4-2.7 6.3-6.1 6.5-.1-1.6-1-2.9-2.4-3.5v-.4l2.2-18.6.6-4.9c0-.1 0-.1 0-.2.2-2.1-.5-4.1-1.9-5.7-.6-.6-1.2-1.1-1.9-1.5-1.1-.6-2.4-1-3.7-1h-15.6c-2.2 0-4.3 1-5.7 2.7s-2 3.8-1.7 6v.1l4.1 23.4c-1.7.4-3 1.9-3 3.7-3.4-.2-6.1-3.1-6.1-6.5v-1.7h2.4c1.2 0 2.2-1 2.2-2.2v-.3c0-1.2-1-2.2-2.2-2.2h-5.4c-1.2 0-2.2 1-2.2 2.2v.3c0 1.2 1 2.2 2.2 2.2h2v1.7c0 4 3.1 7.3 7 7.5.1 2.2 1.8 3.9 4 3.9h6.7v2.1c0 1.1.7 2 1.6 2.3v4h-5.8c-4.4 0-8.1 3.4-8.4 7.7-1.8.2-3.1 1.7-3.1 3.5 0 2 1.6 3.6 3.6 3.6s3.6-1.6 3.6-3.6c0-1.8-1.3-3.3-3-3.5.4-3.8 3.6-6.8 7.5-6.8h5.8v7.2c-1.1.6-1.8 1.8-1.8 3.1 0 2 1.6 3.6 3.6 3.6s3.6-1.6 3.6-3.6c0-1.3-.7-2.5-1.8-3.1v-7.2h5.9c3.9 0 7.1 2.9 7.5 6.8-1.7.3-3 1.7-3 3.5 0 2 1.6 3.6 3.6 3.6s3.6-1.6 3.6-3.6c0-1.8-1.4-3.3-3.1-3.5-.4-4.4-4-7.7-8.4-7.7h-5.9v-3.9c1.2-.2 2-1.3 2-2.5v-2.1h6.9c2.2 0 4-1.8 4-3.9 3.9-.3 7-3.5 7-7.5v-1.7h2c1.2 0 2.3-1 2.3-2.2v-.3c-.1-1.3-1.1-2.3-2.3-2.3zm-47.2 3.9c-.7 0-1.3-.6-1.3-1.3v-.3c0-.7.6-1.3 1.3-1.3h5.4c.7 0 1.3.6 1.3 1.3v.3c0 .7-.6 1.3-1.3 1.3zm10.3 33.9c0 1.4-1.2 2.6-2.6 2.6s-2.6-1.2-2.6-2.6 1.2-2.6 2.6-2.6c1.5 0 2.6 1.2 2.6 2.6zm31.3 0c0 1.4-1.2 2.6-2.6 2.6s-2.6-1.2-2.6-2.6 1.2-2.6 2.6-2.6c1.5 0 2.6 1.2 2.6 2.6zm-31.1-57.1c1.2-1.5 3-2.3 5-2.3h15.7c1.9 0 3.6.8 4.8 2.2s1.8 3.2 1.6 5h-28.6c-.2-1.8.3-3.5 1.5-4.9zm-1.4 5.9h28.3l-.4 3.1h-27.3zm.8 4h27.1l-2.2 18.6v.1c-.2 0-.5-.1-.7-.1h-17-3.9zm16 47.2c0 1.4-1.2 2.6-2.6 2.6s-2.6-1.2-2.6-2.6 1.2-2.6 2.6-2.6 2.6 1.2 2.6 2.6zm-3.4-3.5v-11.6h1.6v11.7c-.3-.1-.5-.1-.8-.1-.3-.1-.6 0-.8 0zm3.7-14.2c0 .8-.7 1.5-1.5 1.5h-2.2c-.8 0-1.5-.7-1.5-1.5v-2.1h5.3v2.1zm10.9-6.2c0 1.7-1.4 3.1-3.1 3.1h-21c-1.7 0-3.1-1.4-3.1-3.1v-.7c0-1.5 1.1-2.8 2.5-3h.1.1.1.2 21c1.7 0 3.1 1.4 3.1 3.1v.6zm11.3-11.3c0 .7-.6 1.3-1.3 1.3h-5.4c-.7 0-1.3-.6-1.3-1.3v-.3c0-.7.6-1.3 1.3-1.3h5.4c.7 0 1.3.6 1.3 1.3z"/><path d="m34.3 60.4c0 1.4-1.2 2.6-2.6 2.6s-2.6-1.2-2.6-2.6 1.2-2.6 2.6-2.6 2.6 1.2 2.6 2.6z" fill="url(#SVGID_1_)"/><path d="m50 60.4c0 1.4-1.2 2.6-2.6 2.6s-2.6-1.2-2.6-2.6 1.2-2.6 2.6-2.6c1.5 0 2.6 1.2 2.6 2.6z" fill="url(#SVGID_2_)"/><path d="m18.7 60.4c0 1.4-1.2 2.6-2.6 2.6s-2.6-1.2-2.6-2.6 1.2-2.6 2.6-2.6c1.5 0 2.6 1.2 2.6 2.6z" fill="url(#SVGID_3_)"/><path d="m34.6 40.6v2.1c0 .8-.7 1.5-1.5 1.5h-2.2c-.8 0-1.5-.7-1.5-1.5v-2.1z" fill="url(#SVGID_4_)"/><path d="m32.5 45.3v11.7c-.3-.1-.5-.1-.8-.1s-.6 0-.8.1v-11.7z" fill="url(#SVGID_5_)"/><path d="m45.8 9.2-.3 3.1h-27.4l-.6-3.1z" fill="url(#SVGID_6_)"/><path d="m45.5 35.9v.7c0 1.7-1.4 3.1-3.1 3.1h-21c-1.7 0-3.1-1.4-3.1-3.1v-.7c0-1.5 1.1-2.8 2.5-3h.1.1.1.2 21c1.9-.1 3.2 1.3 3.2 3z" fill="url(#SVGID_7_)"/><path d="m25.5 31.8h-3.9l-3.2-18.6h4z" fill="url(#SVGID_8_)"/><path d="m45.4 13.2-2.2 18.6v.1c-.2 0-.5-.1-.7-.1h-17l-3.2-18.6z" fill="url(#SVGID_9_)"/><path d="m27.8 1c-1.9 0-3.7.8-5 2.3-1.2 1.4-1.7 3.1-1.5 4.9h-4c-.2-1.8.3-3.5 1.5-4.9 1.2-1.5 3-2.3 5-2.3h4z" fill="url(#SVGID_10_)"/><path d="m45.9 8.2h-24.5c-.2-1.8.3-3.5 1.5-4.9 1.2-1.5 3-2.3 5-2.3h11.7c1.9 0 3.6.8 4.8 2.2 1.2 1.3 1.7 3.2 1.5 5z" fill="url(#SVGID_11_)"/><path d="m56.8 24.9v.3c0 .7-.6 1.3-1.3 1.3h-5.4c-.7 0-1.3-.6-1.3-1.3v-.3c0-.7.6-1.3 1.3-1.3h5.4c.8 0 1.3.6 1.3 1.3z" fill="url(#SVGID_12_)"/><path d="m15.1 24.9v.3c0 .7-.6 1.3-1.3 1.3h-5.4c-.7 0-1.3-.6-1.3-1.3v-.3c0-.7.6-1.3 1.3-1.3h5.4c.7 0 1.3.6 1.3 1.3z" fill="url(#SVGID_13_)"/></g></svg>