<?xml version="1.0" encoding="UTF-8" standalone="no"?>
<!-- Created with Inkscape (http://www.inkscape.org/) -->

<svg
   version="1.1"
   id="svg6594"
   xml:space="preserve"
   width="682.66669"
   height="682.66669"
   viewBox="0 0 682.66669 682.66669"
   xmlns="http://www.w3.org/2000/svg"
   xmlns:svg="http://www.w3.org/2000/svg"><defs
     id="defs6598"><clipPath
       clipPathUnits="userSpaceOnUse"
       id="clipPath6608"><path
         d="M 0,512 H 512 V 0 H 0 Z"
         id="path6606" /></clipPath></defs><g
     id="g6600"
     transform="matrix(1.3333333,0,0,-1.3333333,0,682.66667)"><g
       id="g6602"><g
         id="g6604"
         clip-path="url(#clipPath6608)"><g
           id="g6610"
           transform="translate(120,385.4189)"><path
             d="m 0,0 v -33.728 c 0,-2.761 2.239,-5 5,-5 h 262 c 2.761,0 5,2.239 5,5 V 0 c 0,2.762 -2.239,5 -5,5 H 5 C 2.239,5 0,2.762 0,0"
             style="fill:#d68376;fill-opacity:1;fill-rule:nonzero;stroke:none"
             id="path6612" /></g><g
           id="g6614"
           transform="translate(387,390.4189)"><path
             d="m 0,0 h -28.245 c 2.762,0 5,-2.238 5,-5 v -33.728 c 0,-2.761 -2.238,-5 -5,-5 H 0 c 2.761,0 5,2.239 5,5 V -5 C 5,-2.238 2.761,0 0,0"
             style="fill:#a65d51;fill-opacity:1;fill-rule:nonzero;stroke:none"
             id="path6616" /></g><g
           id="g6618"
           transform="translate(155.0781,390.4189)"><path
             d="m 0,0 h -30.078 c -2.761,0 -5,-2.238 -5,-5 v -33.728 c 0,-2.761 2.239,-5 5,-5 h 262 c 2.761,0 5,2.239 5,5 V -5 c 0,2.762 -2.239,5 -5,5 H 30"
             style="fill:none;stroke:#000000;stroke-width:15;stroke-linecap:round;stroke-linejoin:round;stroke-miterlimit:10;stroke-dasharray:none;stroke-opacity:1"
             id="path6620" /></g><g
           id="g6622"
           transform="translate(165.3442,333.2754)"><path
             d="M 0,0 V 13.416 H 181.312 V 0 c 0,-6.728 -5.454,-12.182 -12.182,-12.182 H 12.181 C 5.454,-12.182 0,-6.728 0,0"
             style="fill:#f9aa4b;fill-opacity:1;fill-rule:nonzero;stroke:none"
             id="path6624" /></g><g
           id="g6626"
           transform="translate(165.3442,333.2754)"><path
             d="M 0,0 V 13.416 H 181.312 V 0 c 0,-6.728 -5.454,-12.182 -12.182,-12.182 H 12.181 C 5.454,-12.182 0,-6.728 0,0 Z"
             style="fill:none;stroke:#000000;stroke-width:15;stroke-linecap:round;stroke-linejoin:round;stroke-miterlimit:10;stroke-dasharray:none;stroke-opacity:1"
             id="path6628" /></g><g
           id="g6630"
           transform="translate(399.9043,279.832)"><path
             d="m 0,0 v -24.129 c 0,-2.762 2.238,-5 5,-5 h 94.596 c 2.761,0 5,2.238 5,5 V 0 c 0,2.762 -2.239,5 -5,5 H 5 C 2.238,5 0,2.762 0,0"
             style="fill:#d68376;fill-opacity:1;fill-rule:nonzero;stroke:none"
             id="path6632" /></g><g
           id="g6634"
           transform="translate(499.5,284.832)"><path
             d="m 0,0 h -24.527 c 2.762,0 5,-2.238 5,-5 v -24.129 c 0,-2.762 -2.238,-5 -5,-5 H 0 c 2.761,0 5,2.238 5,5 V -5 C 5,-2.238 2.761,0 0,0"
             style="fill:#a65d51;fill-opacity:1;fill-rule:nonzero;stroke:none"
             id="path6636" /></g><g
           id="g6638"
           transform="translate(7.5,279.832)"><path
             d="m 0,0 v -24.129 c 0,-2.762 2.239,-5 5,-5 h 94.596 c 2.761,0 5,2.238 5,5 V 0 c 0,2.762 -2.239,5 -5,5 H 5 C 2.239,5 0,2.762 0,0"
             style="fill:#d68376;fill-opacity:1;fill-rule:nonzero;stroke:none"
             id="path6640" /></g><g
           id="g6642"
           transform="translate(107.0957,284.832)"><path
             d="m 0,0 h -24.526 c 2.761,0 5,-2.238 5,-5 v -24.129 c 0,-2.762 -2.239,-5 -5,-5 H 0 c 2.762,0 5,2.238 5,5 V -5 C 5,-2.238 2.762,0 0,0"
             style="fill:#a65d51;fill-opacity:1;fill-rule:nonzero;stroke:none"
             id="path6644" /></g><g
           id="g6646"
           transform="translate(399.9043,279.832)"><path
             d="m 0,0 v -24.129 c 0,-2.762 2.238,-5 5,-5 h 94.596 c 2.761,0 5,2.238 5,5 V 0 c 0,2.762 -2.239,5 -5,5 H 5 C 2.238,5 0,2.762 0,0 Z"
             style="fill:none;stroke:#000000;stroke-width:15;stroke-linecap:round;stroke-linejoin:round;stroke-miterlimit:10;stroke-dasharray:none;stroke-opacity:1"
             id="path6648" /></g><g
           id="g6650"
           transform="translate(7.5,279.832)"><path
             d="m 0,0 v -24.129 c 0,-2.762 2.239,-5 5,-5 h 94.596 c 2.761,0 5,2.238 5,5 V 0 c 0,2.762 -2.239,5 -5,5 H 5 C 2.239,5 0,2.762 0,0 Z"
             style="fill:none;stroke:#000000;stroke-width:15;stroke-linecap:round;stroke-linejoin:round;stroke-miterlimit:10;stroke-dasharray:none;stroke-opacity:1"
             id="path6652" /></g><g
           id="g6654"
           transform="translate(129.5283,121.5811)"><path
             d="m 0,0 h 48.048 l 63.547,199.513 H 63.546 Z"
             style="fill:#f9aa4b;fill-opacity:1;fill-rule:nonzero;stroke:none"
             id="path6656" /></g><g
           id="g6658"
           transform="translate(152.1396,192.5742)"><path
             d="M 0,0 H 48.048 L 62.199,44.426 H 14.15 Z"
             style="fill:#c1762b;fill-opacity:1;fill-rule:nonzero;stroke:none"
             id="path6660" /></g><g
           id="g6662"
           transform="translate(193.0747,321.0937)"><path
             d="m 0,0 48.048,0.001 -7.644,-24 L -7.645,-24 Z"
             style="fill:#c1762b;fill-opacity:1;fill-rule:nonzero;stroke:none"
             id="path6664" /></g><g
           id="g6666"
           transform="translate(378.6519,121.5811)"><path
             d="m 0,0 h -48.048 l -63.547,199.513 h 48.049 z"
             style="fill:#f9aa4b;fill-opacity:1;fill-rule:nonzero;stroke:none"
             id="path6668" /></g><g
           id="g6670"
           transform="translate(307.9917,192.5742)"><path
             d="M 0,0 H 48.048 L 33.898,44.426 H -14.15 Z"
             style="fill:#c1762b;fill-opacity:1;fill-rule:nonzero;stroke:none"
             id="path6672" /></g><g
           id="g6674"
           transform="translate(315.1055,321.0937)"><path
             d="m 0,0 h -48.048 l 7.644,-24 H 7.644 Z"
             style="fill:#c1762b;fill-opacity:1;fill-rule:nonzero;stroke:none"
             id="path6676" /></g><g
           id="g6678"
           transform="translate(129.5283,121.5811)"><path
             d="m 0,0 h 48.048 l 63.547,199.513 H 63.546 Z"
             style="fill:none;stroke:#000000;stroke-width:15;stroke-linecap:round;stroke-linejoin:round;stroke-miterlimit:10;stroke-dasharray:none;stroke-opacity:1"
             id="path6680" /></g><g
           id="g6682"
           transform="translate(369.147,151.4229)"><path
             d="m 0,0 9.505,-29.842 h -48.048 l -63.547,199.513 h 48.048 L -9.39,29.482"
             style="fill:none;stroke:#000000;stroke-width:15;stroke-linecap:round;stroke-linejoin:round;stroke-miterlimit:10;stroke-dasharray:none;stroke-opacity:1"
             id="path6684" /></g><g
           id="g6686"
           transform="translate(80.6548,216.5732)"><path
             d="m 0,0 h 350.69 c 5.85,0 11.341,2.816 14.754,7.565 L 384.537,34.13 H -33.847 L -14.754,7.565 C -11.34,2.816 -5.849,0 0,0"
             style="fill:#fed89b;fill-opacity:1;fill-rule:nonzero;stroke:none"
             id="path6688" /></g><g
           id="g6690"
           transform="translate(433.6572,250.7031)"><path
             d="m 0,0 -19.093,-26.564 c -3.414,-4.75 -8.905,-7.565 -14.754,-7.565 h 31.535 c 5.849,0 11.34,2.815 14.754,7.565 L 31.535,0 Z"
             style="fill:#e2b074;fill-opacity:1;fill-rule:nonzero;stroke:none"
             id="path6692" /></g><g
           id="g6694"
           transform="translate(80.6548,216.5732)"><path
             d="m 0,0 h 350.69 c 5.85,0 11.341,2.816 14.754,7.565 L 384.537,34.13 H -33.847 L -14.754,7.565 C -11.34,2.816 -5.849,0 0,0 Z"
             style="fill:none;stroke:#000000;stroke-width:15;stroke-linecap:round;stroke-linejoin:round;stroke-miterlimit:10;stroke-dasharray:none;stroke-opacity:1"
             id="path6696" /></g></g></g></g></svg>
