<svg height="512" viewBox="0 0 512 512" width="512" xmlns="http://www.w3.org/2000/svg"><g id="flat"><path d="m160 80a8 8 0 0 1 -5.657-13.657l8-8a8 8 0 0 1 11.314 11.313l-8 8a7.973 7.973 0 0 1 -5.657 2.344z" fill="#1e7c6c"/><path d="m96 104a7.976 7.976 0 0 1 -5.657-2.343l-8-8a8 8 0 0 1 11.314-11.314l8 8a8 8 0 0 1 -5.657 13.657z" fill="#1e7c6c"/><path d="m152.006 120a8 8 0 0 1 -3.584-15.157l16-8a8 8 0 1 1 7.156 14.31l-16 8a7.976 7.976 0 0 1 -3.572.847z" fill="#1e7c6c"/><path d="m112 72a7.973 7.973 0 0 1 -5.657-2.344l-8-8a8 8 0 1 1 11.314-11.313l8 8a8 8 0 0 1 -5.657 13.657z" fill="#1e7c6c"/><path d="m180.57 97.2-2.27 27.25a30.039 30.039 0 0 1 -25.99 27.28 28.587 28.587 0 0 1 -3.95.27h-24.72a28.587 28.587 0 0 1 -3.95-.27 30.039 30.039 0 0 1 -25.99-27.28l-2.27-27.25a38.046 38.046 0 0 1 35.59-41.13c.77-.05 1.54-.07 2.32-.07h13.32c.78 0 1.55.02 2.32.07a38.046 38.046 0 0 1 35.59 41.13z" fill="#299b8b"/><path d="m153.609 73.329-7.629-15.26a3.71 3.71 0 0 0 -3.3-2.069h-13.363a3.707 3.707 0 0 0 -3.3 2.07l-7.627 15.27a60.763 60.763 0 0 0 -6.39 27.06v13.14a60.448 60.448 0 0 0 1.81 14.67l5.88 23.52.55 2.21a8 8 0 0 0 7.75 6.06 8.132 8.132 0 0 0 1.95-.24 8 8 0 0 0 6.06-7.75 8 8 0 0 0 6.06 7.75 8.132 8.132 0 0 0 1.95.24 8 8 0 0 0 7.75-6.06l.55-2.21 5.88-23.52a60.448 60.448 0 0 0 1.81-14.67v-13.14a60.525 60.525 0 0 0 -6.391-27.071zm-17.849 76.731-6.43-25.73a44.652 44.652 0 0 1 -1.33-10.79v-13.14a44.665 44.665 0 0 1 4.7-19.91l3.3-6.6 3.3 6.6a44.665 44.665 0 0 1 4.7 19.91v13.14a44.652 44.652 0 0 1 -1.33 10.79l-6.43 25.73a8.113 8.113 0 0 0 -.24 1.94 8.113 8.113 0 0 0 -.24-1.94z" fill="#1e7c6c"/><path d="m313 66.8-33 13.2v-24l24.72-9.888a11.142 11.142 0 0 1 15.28 10.345 11.143 11.143 0 0 1 -7 10.343z" fill="#5ec3a9"/><path d="m256 112-33-13.2a11.143 11.143 0 0 1 -7-10.345 11.142 11.142 0 0 1 15.28-10.345l24.72 9.89z" fill="#5ec3a9"/><path d="m272 24a24 24 0 0 1 24 24v96a0 0 0 0 1 0 0h-48a0 0 0 0 1 0 0v-96a24 24 0 0 1 24-24z" fill="#29aa96"/><path d="m165.7 192-29.7 8-29.7-8a12.163 12.163 0 0 1 -12-10.163l-3.94-23.675a12.164 12.164 0 0 1 12-14.162h67.284a12.164 12.164 0 0 1 12 14.162l-3.946 23.675a12.163 12.163 0 0 1 -11.998 10.163z" fill="#f25745"/><circle cx="268" cy="76" fill="#5ec3a9" r="4"/><circle cx="276" cy="52" fill="#5ec3a9" r="4"/><circle cx="276" cy="100" fill="#5ec3a9" r="4"/><path d="m281.2 192-17.2 8-9.2-8a22.8 22.8 0 0 1 -22.8-22.8v-41.2h72v41.2a22.8 22.8 0 0 1 -22.8 22.8z" fill="#0d526a"/><path d="m424 152h-56l-5.781-54.25a25.283 25.283 0 0 1 13.781-25.75v-12a20 20 0 0 1 20-20 20 20 0 0 1 20 20v12a25.283 25.283 0 0 1 13.781 25.75z" fill="#82bc88"/><path d="m415.176 192-23.176 8-15.176-8a10.416 10.416 0 0 1 -10.275-8.7l-4.527-27.167a10.416 10.416 0 0 1 10.278-12.133h47.4a10.416 10.416 0 0 1 10.275 12.129l-4.524 27.171a10.416 10.416 0 0 1 -10.275 8.7z" fill="#f3933d"/><g fill="#1e7c6c"><circle cx="388" cy="100" r="4"/><circle cx="404" cy="92" r="4"/><circle cx="396" cy="68" r="4"/><circle cx="380" cy="124" r="4"/><circle cx="412" cy="124" r="4"/><circle cx="396" cy="116" r="4"/><path d="m271.992 344a7.969 7.969 0 0 1 -3.571-.847l-16-8a8 8 0 1 1 7.155-14.31l16 8a8 8 0 0 1 -3.584 15.157z"/><path d="m279.992 312a7.954 7.954 0 0 1 -4.43-1.345l-24-16a8 8 0 1 1 8.875-13.312l24 16a8 8 0 0 1 -4.445 14.657z"/><path d="m288.005 288a8 8 0 0 1 -7.162-4.424l-8-16a8 8 0 0 1 14.311-7.156l8 16a8 8 0 0 1 -7.149 11.58z"/><path d="m328.008 312a8 8 0 0 1 -4.445-14.657l24-16a8 8 0 1 1 8.875 13.312l-24 16a7.962 7.962 0 0 1 -4.43 1.345z"/><path d="m327.994 288a8 8 0 0 1 -7.149-11.58l8-16a8 8 0 1 1 14.31 7.156l-8 16a8 8 0 0 1 -7.161 4.424z"/></g><path d="m349.872 376-45.872 24-42.128-24-4.372-61.222a47.4 47.4 0 0 1 47.279-50.778h2.185a47.4 47.4 0 0 1 47.281 50.778z" fill="#82bc88"/><path d="m336 328a7.976 7.976 0 0 1 -5.657-2.343l-8-8a8 8 0 0 1 11.314-11.314l8 8a8 8 0 0 1 -5.657 13.657z" fill="#1e7c6c"/><path d="m336 352h-8a8 8 0 0 1 0-16h8a8 8 0 0 1 0 16z" fill="#1e7c6c"/><path d="m368 328a8 8 0 0 1 -5.657-13.657l8-8a8 8 0 0 1 11.314 11.314l-8 8a7.976 7.976 0 0 1 -5.657 2.343z" fill="#1e7c6c"/><path d="m376 352h-8a8 8 0 0 1 0-16h8a8 8 0 0 1 0 16z" fill="#1e7c6c"/><path d="m370.936 376-18.936 16-21.064-16-4.908-44.171a25.061 25.061 0 0 1 24.908-27.829 25.061 25.061 0 0 1 24.908 27.829z" fill="#5d9361"/><circle cx="292" cy="300" fill="#1e7c6c" r="5.657"/><circle cx="314.343" cy="285.657" fill="#1e7c6c" r="5.657"/><circle cx="282.343" cy="322.343" fill="#1e7c6c" r="5.657"/><circle cx="306.343" cy="330.343" fill="#1e7c6c" r="5.657"/><circle cx="290.343" cy="349.657" fill="#1e7c6c" r="5.657"/><circle cx="357.657" cy="325.657" fill="#1e7c6c" r="5.657"/><circle cx="346.343" cy="349.657" fill="#1e7c6c" r="5.657"/><path d="m152 360-37.621-12.54a15.18 15.18 0 0 1 -10.379-14.4 15.178 15.178 0 0 1 19.979-14.4l28.021 9.34z" fill="#288976"/><path d="m160 312a32 32 0 0 1 32 32v40a0 0 0 0 1 0 0h-64a0 0 0 0 1 0 0v-40a32 32 0 0 1 32-32z" fill="#1e7c6c"/><path d="m190.5 325.962a5.889 5.889 0 0 0 -5.412.858 5.888 5.888 0 0 1 -9.409-4.794 5.889 5.889 0 0 0 -2.488-4.883 5.888 5.888 0 0 1 1.652-10.43 5.886 5.886 0 0 0 3.875-3.875 5.888 5.888 0 0 1 10.43-1.652 5.889 5.889 0 0 0 4.883 2.488 5.888 5.888 0 0 1 4.794 9.409 5.889 5.889 0 0 0 -.858 5.412 5.888 5.888 0 0 1 -7.467 7.467z" fill="#f5b85f"/><circle cx="148" cy="340" fill="#5ec3a9" r="4"/><circle cx="164" cy="340" fill="#5ec3a9" r="4"/><circle cx="172" cy="356" fill="#5ec3a9" r="4"/><circle cx="148" cy="356" fill="#5ec3a9" r="4"/><path d="m386.624 416-50.624 32h-168l-42.624-32a13.376 13.376 0 0 1 -13.376-13.376v-13.248a13.376 13.376 0 0 1 13.376-13.376h261.248a13.376 13.376 0 0 1 13.376 13.376v13.248a13.376 13.376 0 0 1 -13.376 13.376z" fill="#0d526a"/><path d="m56 448h48a0 0 0 0 1 0 0v16a24 24 0 0 1 -24 24 24 24 0 0 1 -24-24v-16a0 0 0 0 1 0 0z" fill="#9e7669"/><path d="m408 448h48a0 0 0 0 1 0 0v16a24 24 0 0 1 -24 24 24 24 0 0 1 -24-24v-16a0 0 0 0 1 0 0z" fill="#9e7669"/><path d="m48 216h24l-8 208h-24z" fill="#fbd2bb"/><path d="m440 216h24l8 208h-24z" fill="#fbd2bb"/><rect fill="#cf9e89" height="32" rx="16" width="448" x="32" y="192"/><rect fill="#cf9e89" height="40" rx="20" width="464" x="24" y="416"/></g></svg>