<svg id="Capa_1" enable-background="new 0 0 512 512" height="512" viewBox="0 0 512 512" width="512" xmlns="http://www.w3.org/2000/svg"><g><path d="m404.936 38.161v114.633c0 2.845-2.306 5.151-5.151 5.151h-287.57c-2.845 0-5.151-2.306-5.151-5.151v-114.633z" fill="#eaeaea"/><path d="m112.215 157.946h287.569c2.845 0 5.151-2.306 5.151-5.151v-13.429h-297.871v13.429c0 2.845 2.306 5.151 5.151 5.151z" fill="#cbcbcb"/><path d="m404.936 196.108v114.634c0 2.845-2.306 5.151-5.151 5.151h-287.57c-2.845 0-5.151-2.306-5.151-5.151v-114.634z" fill="#eaeaea"/><path d="m112.215 315.892h287.569c2.845 0 5.151-2.306 5.151-5.151v-13.43h-297.871v13.43c0 2.845 2.306 5.151 5.151 5.151z" fill="#cbcbcb"/><path d="m107.064 468.687v-114.633h297.872v114.633c0 2.845-2.306 5.151-5.151 5.151h-287.57c-2.845.001-5.151-2.306-5.151-5.151z" fill="#eaeaea"/><path d="m112.215 473.839h287.569c2.845 0 5.151-2.306 5.151-5.151v-13.429h-297.871v13.429c0 2.844 2.306 5.151 5.151 5.151z" fill="#cbcbcb"/><path d="m156.412 315.892h44.705v-68.098c0-2.845-2.306-5.151-5.151-5.151h-34.403c-2.845 0-5.151 2.306-5.151 5.151z" fill="#8c808a"/><path d="m355.588 157.946h-105.336v-68.098c0-2.845 2.306-5.151 5.151-5.151h95.034c2.845 0 5.151 2.306 5.151 5.151z" fill="#8c808a"/><path d="m233.647 315.892h44.705v-68.098c0-2.845-2.306-5.151-5.151-5.151h-34.403c-2.845 0-5.151 2.306-5.151 5.151z" fill="#f9ef63"/><path d="m299.484 473.839h56.105v-68.098c0-2.845-2.306-5.151-5.151-5.151h-45.802c-2.845 0-5.151 2.306-5.151 5.151v68.098z" fill="#f9ef63"/><g fill="#dd636e"><path d="m212.516 157.946h-56.105v-68.098c0-2.845 2.306-5.151 5.151-5.151h45.802c2.845 0 5.151 2.306 5.151 5.151v68.098z"/><path d="m310.883 315.892h44.705v-68.098c0-2.845-2.306-5.151-5.151-5.151h-34.403c-2.845 0-5.151 2.306-5.151 5.151z"/><path d="m156.412 473.839h105.337v-68.098c0-2.845-2.306-5.151-5.151-5.151h-95.034c-2.845 0-5.151 2.306-5.151 5.151v68.098z"/></g><path d="m68.903 19.829v472.342c0 10.951 8.878 19.829 19.829 19.829h334.537c10.951 0 19.829-8.878 19.829-19.829v-472.342c-.001-10.951-8.878-19.829-19.83-19.829h-334.536c-10.952 0-19.829 8.878-19.829 19.829zm336.033 18.332v114.633c0 2.845-2.306 5.151-5.151 5.151h-287.57c-2.845 0-5.151-2.306-5.151-5.151v-114.633zm0 157.947v114.634c0 2.845-2.306 5.151-5.151 5.151h-287.57c-2.845 0-5.151-2.306-5.151-5.151v-114.634zm-297.872 272.579v-114.633h297.872v114.633c0 2.845-2.306 5.151-5.151 5.151h-287.57c-2.845.001-5.151-2.306-5.151-5.151z" fill="#e7a561"/><g fill="#e49542"><path d="m107.064 182.688v13.419h297.872v-13.419c0-2.85-2.311-5.161-5.161-5.161h-287.55c-2.85 0-5.161 2.311-5.161 5.161z"/><path d="m423.268 493.419h-334.536c-10.951 0-19.829-8.878-19.829-19.829v18.581c0 10.951 8.878 19.829 19.829 19.829h334.537c10.951 0 19.829-8.878 19.829-19.829v-18.581c-.001 10.952-8.878 19.829-19.83 19.829z"/><path d="m107.064 340.635v13.419h297.872v-13.419c0-2.851-2.311-5.161-5.161-5.161h-287.55c-2.85-.001-5.161 2.31-5.161 5.161z"/><path d="m107.064 24.742v13.419h297.872v-13.419c0-2.851-2.311-5.161-5.161-5.161h-287.55c-2.85 0-5.161 2.311-5.161 5.161z"/></g><path d="m156.412 139.365h56.105v18.581h-56.105z" fill="#da4a54"/><path d="m250.252 139.365h105.337v18.581h-105.337z" fill="#7b7179"/><path d="m156.412 297.312h44.705v18.581h-44.705z" fill="#7b7179"/><path d="m233.647 297.312h44.705v18.581h-44.705z" fill="#f1d333"/><path d="m310.883 297.312h44.705v18.581h-44.705z" fill="#da4a54"/><path d="m156.412 455.258h105.337v18.581h-105.337z" fill="#da4a54"/><path d="m299.484 455.258h56.105v18.581h-56.105z" fill="#f1d333"/></g></svg>