<?xml version="1.0" encoding="UTF-8" standalone="no"?>
<!-- Created with Inkscape (http://www.inkscape.org/) -->

<svg
   version="1.1"
   id="svg996"
   xml:space="preserve"
   width="682.66669"
   height="682.66669"
   viewBox="0 0 682.66669 682.66669"
   xmlns="http://www.w3.org/2000/svg"
   xmlns:svg="http://www.w3.org/2000/svg"><defs
     id="defs1000"><clipPath
       clipPathUnits="userSpaceOnUse"
       id="clipPath1010"><path
         d="M 0,512 H 512 V 0 H 0 Z"
         id="path1008" /></clipPath></defs><g
     id="g1002"
     transform="matrix(1.3333333,0,0,-1.3333333,0,682.66667)"><g
       id="g1004"><g
         id="g1006"
         clip-path="url(#clipPath1010)"><g
           id="g1012"
           transform="translate(50.0195,7.5)"><path
             d="m 0,0 h -20.943 c -4.533,0 -8.207,3.675 -8.207,8.208 V 463.61 c 0,18.441 14.949,33.39 33.389,33.39 H 8.208 V 8.208 C 8.208,3.675 4.533,0 0,0"
             style="fill:#918291;fill-opacity:1;fill-rule:nonzero;stroke:none"
             id="path1014" /></g><g
           id="g1016"
           transform="translate(54.2588,504.5)"><path
             d="m 0,0 c -7.471,0 -14.367,-2.455 -19.93,-6.6 v -482.192 c 0,-4.028 -2.903,-7.371 -6.73,-8.068 0.48,-0.088 0.973,-0.14 1.478,-0.14 h 20.943 c 4.533,0 8.208,3.675 8.208,8.208 L 3.969,0 Z"
             style="fill:#7f717f;fill-opacity:1;fill-rule:nonzero;stroke:none"
             id="path1018" /></g><g
           id="g1020"
           transform="translate(482.9233,7.5)"><path
             d="m 0,0 h -20.943 c -4.533,0 -8.208,3.675 -8.208,8.208 V 497 h 3.969 c 18.44,0 33.39,-14.949 33.39,-33.39 V 8.208 C 8.208,3.675 4.533,0 0,0"
             style="fill:#918291;fill-opacity:1;fill-rule:nonzero;stroke:none"
             id="path1022" /></g><g
           id="g1024"
           transform="translate(457.7407,504.5)"><path
             d="M 0,0 H -3.968 V -6.6 C 4.2,-12.687 9.491,-22.42 9.491,-33.39 v -455.402 c 0,-4.028 -2.903,-7.371 -6.729,-8.068 0.48,-0.088 0.972,-0.14 1.477,-0.14 h 20.944 c 4.532,0 8.207,3.675 8.207,8.208 V -33.39 C 33.39,-14.949 18.441,0 0,0"
             style="fill:#7f717f;fill-opacity:1;fill-rule:nonzero;stroke:none"
             id="path1026" /></g><path
           d="M 58.228,350.894 H 453.773 V 457.362 H 58.228 Z"
           style="fill:#eae0dc;fill-opacity:1;fill-rule:nonzero;stroke:none"
           id="path1028" /><path
           d="m 397.534,350.894 h 56.238 v 106.468 h -56.238 z"
           style="fill:#e1d3ce;fill-opacity:1;fill-rule:nonzero;stroke:none"
           id="path1030" /><path
           d="M 58.228,231.774 H 453.773 V 193.076 H 58.228 Z"
           style="fill:#eae0dc;fill-opacity:1;fill-rule:nonzero;stroke:none"
           id="path1032" /><path
           d="m 397.534,193.077 h 56.238 v 38.697 h -56.238 z"
           style="fill:#e1d3ce;fill-opacity:1;fill-rule:nonzero;stroke:none"
           id="path1034" /><path
           d="M 58.228,88.134 H 453.773 V 49.437 H 58.228 Z"
           style="fill:#eae0dc;fill-opacity:1;fill-rule:nonzero;stroke:none"
           id="path1036" /><path
           d="m 397.534,49.437 h 56.238 v 38.697 h -56.238 z"
           style="fill:#e1d3ce;fill-opacity:1;fill-rule:nonzero;stroke:none"
           id="path1038" /><g
           id="g1040"
           transform="translate(287.5186,231.7739)"><path
             d="m 0,0 c 7.003,0 12.681,5.677 12.681,12.681 v 60.988 c 0.331,10.463 -13.859,15.547 -20.287,7.352 -5.608,-6.725 -18.623,-19.306 -37.51,-19.306 -13.141,0 -19.988,6.091 -23.543,12.062 -3.362,5.646 -10.533,7.683 -16.299,4.53 L -105.011,67.34 C -114.55,62.124 -124.928,58.543 -135.702,57.082 -152.11,54.854 -178.951,46.488 -187.711,16.019 -190.022,7.983 -183.836,0 -175.475,0 Z"
             style="fill:#978ecb;fill-opacity:1;fill-rule:nonzero;stroke:none"
             id="path1042" /></g><g
           id="g1044"
           transform="translate(279.9121,312.7944)"><path
             d="m 0,0 c -2.001,-2.399 -4.95,-5.544 -8.768,-8.597 v -59.742 c 0,-7.004 -5.677,-12.682 -12.68,-12.682 H 7.606 c 7.004,0 12.682,5.678 12.682,12.682 V -7.352 C 20.618,3.112 6.428,8.195 0,0"
             style="fill:#8379c1;fill-opacity:1;fill-rule:nonzero;stroke:none"
             id="path1046" /></g><g
           id="g1048"
           transform="translate(222.1733,145.2158)"><path
             d="m 0,0 c -16.384,-2.224 -43.17,-10.568 -51.971,-40.929 -2.343,-8.084 3.782,-16.153 12.198,-16.153 h 175.475 c 7.004,0 12.681,5.678 12.681,12.682 v 82.406 c 0,5.442 -4.412,9.854 -9.855,9.854 h -60.06 c -4.438,0 -8.328,-2.966 -9.503,-7.245 L 64.601,24.716 C 62.021,15.321 54.161,8.32 44.531,6.841 Z"
             style="fill:#d77f4a;fill-opacity:1;fill-rule:nonzero;stroke:none"
             id="path1050" /></g><g
           id="g1052"
           transform="translate(360.7017,193.0767)"><path
             d="m 0,0 h -29.055 c 5.443,0 9.855,-4.412 9.855,-9.855 v -82.406 c 0,-7.004 -5.677,-12.681 -12.681,-12.681 h 29.055 c 7.003,0 12.68,5.677 12.68,12.681 V -9.855 C 9.854,-4.412 5.442,0 0,0"
             style="fill:#c86d36;fill-opacity:1;fill-rule:nonzero;stroke:none"
             id="path1054" /></g><g
           id="g1056"
           transform="translate(50.0195,7.5)"><path
             d="m 0,0 h -20.943 c -4.533,0 -8.207,3.675 -8.207,8.208 V 463.61 c 0,18.441 14.949,33.39 33.389,33.39 H 8.208 V 8.208 C 8.208,3.675 4.533,0 0,0 Z"
             style="fill:none;stroke:#000000;stroke-width:15;stroke-linecap:round;stroke-linejoin:round;stroke-miterlimit:10;stroke-dasharray:none;stroke-opacity:1"
             id="path1058" /></g><g
           id="g1060"
           transform="translate(482.9233,7.5)"><path
             d="m 0,0 h -20.943 c -4.533,0 -8.208,3.675 -8.208,8.208 V 497 h 3.969 c 18.44,0 33.39,-14.949 33.39,-33.39 V 8.208 C 8.208,3.675 4.533,0 0,0 Z"
             style="fill:none;stroke:#000000;stroke-width:15;stroke-linecap:round;stroke-linejoin:round;stroke-miterlimit:10;stroke-dasharray:none;stroke-opacity:1"
             id="path1062" /></g><g
           id="g1064"
           transform="translate(350.6323,457.3618)"><path
             d="M 0,0 H -292.405 V -106.468 H 103.14 V 0 H 35.115"
             style="fill:none;stroke:#000000;stroke-width:15;stroke-linecap:round;stroke-linejoin:round;stroke-miterlimit:10;stroke-dasharray:none;stroke-opacity:1"
             id="path1066" /></g><g
           id="g1068"
           transform="translate(230.6309,415.9561)"><path
             d="m 0,0 h 38.713 c 8.859,0 17.036,4.754 21.418,12.452 L 76.613,41.406 H -37.899 L -21.417,12.452 C -17.035,4.754 -8.858,0 0,0 Z"
             style="fill:none;stroke:#000000;stroke-width:15;stroke-linecap:round;stroke-linejoin:round;stroke-miterlimit:10;stroke-dasharray:none;stroke-opacity:1"
             id="path1070" /></g><path
           d="M 58.228,231.774 H 453.773 V 193.076 H 58.228 Z"
           style="fill:none;stroke:#000000;stroke-width:15;stroke-linecap:round;stroke-linejoin:round;stroke-miterlimit:10;stroke-dasharray:none;stroke-opacity:1"
           id="path1072" /><g
           id="g1074"
           transform="translate(58.2275,49.437)"><path
             d="M 0,0 V 38.697 H 395.545 V 0 H 35.066"
             style="fill:none;stroke:#000000;stroke-width:15;stroke-linecap:round;stroke-linejoin:round;stroke-miterlimit:10;stroke-dasharray:none;stroke-opacity:1"
             id="path1076" /></g><g
           id="g1078"
           transform="translate(287.5186,231.7739)"><path
             d="m 0,0 c 7.003,0 12.681,5.677 12.681,12.681 v 60.988 c 0.331,10.463 -13.859,15.547 -20.287,7.352 -5.608,-6.725 -18.623,-19.306 -37.51,-19.306 -13.141,0 -19.988,6.091 -23.543,12.062 -3.362,5.646 -10.533,7.683 -16.299,4.53 L -105.011,67.34 C -114.55,62.124 -124.928,58.543 -135.702,57.082 -152.11,54.854 -178.951,46.488 -187.711,16.019 -190.022,7.983 -183.836,0 -175.475,0 Z"
             style="fill:none;stroke:#000000;stroke-width:15;stroke-linecap:round;stroke-linejoin:round;stroke-miterlimit:10;stroke-dasharray:none;stroke-opacity:1"
             id="path1080" /></g><g
           id="g1082"
           transform="translate(151.8169,288.8555)"><path
             d="M 0,0 9.138,-21.792"
             style="fill:none;stroke:#000000;stroke-width:15;stroke-linecap:round;stroke-linejoin:round;stroke-miterlimit:10;stroke-dasharray:none;stroke-opacity:1"
             id="path1084" /></g><g
           id="g1086"
           transform="translate(177.9961,296.8008)"><path
             d="M 0,0 9.942,-21.771"
             style="fill:none;stroke:#000000;stroke-width:15;stroke-linecap:round;stroke-linejoin:round;stroke-miterlimit:10;stroke-dasharray:none;stroke-opacity:1"
             id="path1088" /></g><g
           id="g1090"
           transform="translate(222.1733,145.2158)"><path
             d="m 0,0 c -16.384,-2.224 -43.17,-10.568 -51.971,-40.929 -2.343,-8.084 3.782,-16.153 12.198,-16.153 h 175.475 c 7.004,0 12.681,5.678 12.681,12.682 v 82.406 c 0,5.442 -4.412,9.854 -9.855,9.854 h -60.06 c -4.438,0 -8.328,-2.966 -9.503,-7.245 L 64.601,24.716 C 62.021,15.321 54.161,8.32 44.531,6.841 Z"
             style="fill:none;stroke:#000000;stroke-width:15;stroke-linecap:round;stroke-linejoin:round;stroke-miterlimit:10;stroke-dasharray:none;stroke-opacity:1"
             id="path1092" /></g><g
           id="g1094"
           transform="translate(222.1733,145.2158)"><path
             d="M 0,0 7.855,-22.507"
             style="fill:none;stroke:#000000;stroke-width:15;stroke-linecap:round;stroke-linejoin:round;stroke-miterlimit:10;stroke-dasharray:none;stroke-opacity:1"
             id="path1096" /></g><g
           id="g1098"
           transform="translate(258.4502,127.2798)"><path
             d="M 0,0 -9.04,22.12"
             style="fill:none;stroke:#000000;stroke-width:15;stroke-linecap:round;stroke-linejoin:round;stroke-miterlimit:10;stroke-dasharray:none;stroke-opacity:1"
             id="path1100" /></g><g
           id="g1102"
           transform="translate(285.6699,133.96)"><path
             d="M 0,0 -8.99,21.99"
             style="fill:none;stroke:#000000;stroke-width:15;stroke-linecap:round;stroke-linejoin:round;stroke-miterlimit:10;stroke-dasharray:none;stroke-opacity:1"
             id="path1104" /></g><g
           id="g1106"
           transform="translate(370.5562,131.8813)"><path
             d="M 0,0 C 0,0 -44.61,-5.049 -44.61,-43.747"
             style="fill:none;stroke:#000000;stroke-width:15;stroke-linecap:round;stroke-linejoin:round;stroke-miterlimit:10;stroke-dasharray:none;stroke-opacity:1"
             id="path1108" /></g></g></g></g></svg>
