<svg height="480pt" viewBox="0 -64 480 480" width="480pt" xmlns="http://www.w3.org/2000/svg"><path d="m32 31.730469h400v288h-400zm0 0" fill="#ffa900"/><path d="m128 287.730469c0-35.34375-28.652344-64-64-64v-96c35.347656 0 64-28.652344 64-64h248v224zm0 0" fill="#ffdaaa"/><path d="m96 79.730469c0 8.839843-7.164062 16-16 16s-16-7.160157-16-16c0-8.835938 7.164062-16 16-16s16 7.164062 16 16zm0 0" fill="#a65a14"/><path d="m96 271.730469c0 8.839843-7.164062 16-16 16s-16-7.160157-16-16c0-8.835938 7.164062-16 16-16s16 7.164062 16 16zm0 0" fill="#a65a14"/><path d="m104 175.730469 80-80 80 80-80 80zm0 0" fill="#fdb62f"/><path d="m152.003906 175.730469 32.003906-32 32 32-32 32zm0 0" fill="#f80"/><path d="m264.003906 175.730469 79.996094-80 80 80-80 79.996093zm0 0" fill="#fdb62f"/><path d="m312.007812 175.730469 32-32.003907 32 32.003907-32 32zm0 0" fill="#f80"/><path d="m376 15.730469v320c31.15625 10.386719 64.84375 10.386719 96 0v-320c-31.15625-10.382813-64.84375-10.382813-96 0zm0 0" fill="#f80"/><path d="m280 111.730469c0 8.839843-7.164062 16-16 16s-16-7.160157-16-16c0-8.835938 7.164062-16 16-16s16 7.164062 16 16zm0 0" fill="#a65a14"/><path d="m280 239.730469c0 8.839843-7.164062 16-16 16s-16-7.160157-16-16c0-8.835938 7.164062-16 16-16s16 7.164062 16 16zm0 0" fill="#a65a14"/><path d="m80 103.730469c13.253906 0 24-10.742188 24-24 0-13.253907-10.746094-24-24-24s-24 10.746093-24 24c0 13.257812 10.746094 24 24 24zm0-32c4.417969 0 8 3.582031 8 8s-3.582031 8-8 8-8-3.582031-8-8 3.582031-8 8-8zm0 0"/><path d="m80 247.730469c-13.253906 0-24 10.746093-24 24 0 13.257812 10.746094 24 24 24s24-10.742188 24-24c0-13.253907-10.746094-24-24-24zm0 32c-4.417969 0-8-3.582031-8-8s3.582031-8 8-8 8 3.582031 8 8-3.582031 8-8 8zm0 0"/><path d="m178.34375 138.074219-32 32c-3.121094 3.125-3.121094 8.191406 0 11.3125l32 32c3.125 3.125 8.1875 3.125 11.3125 0l32-32c3.121094-3.121094 3.121094-8.1875 0-11.3125l-32-32c-3.125-3.121094-8.1875-3.121094-11.3125 0zm26.34375 37.65625-20.6875 20.691406-20.6875-20.691406 20.6875-20.6875zm0 0"/><path d="m474.527344 8.148438c-32.808594-10.863282-68.246094-10.863282-101.054688 0-3.265625 1.085937-5.46875 4.140624-5.472656 7.582031v8h-360c-4.417969 0-8 3.582031-8 8s3.582031 8 8 8h16v32h-16c-4.417969 0-8 3.582031-8 8s3.582031 8 8 8h16v32h-16c-4.417969 0-8 3.582031-8 8s3.582031 8 8 8h16v32h-16c-4.417969 0-8 3.582031-8 8s3.582031 8 8 8h16v32h-16c-4.417969 0-8 3.582031-8 8s3.582031 8 8 8h16v32h-16c-4.417969 0-8 3.582031-8 8s3.582031 8 8 8h16v32h-16c-4.417969 0-8 3.582031-8 8s3.582031 8 8 8h360v8c.003906 3.445312 2.207031 6.496093 5.472656 7.585937 32.808594 10.867188 68.246094 10.867188 101.054688 0 3.265625-1.089844 5.46875-4.140625 5.472656-7.585937v-320c-.003906-3.441407-2.207031-6.496094-5.472656-7.582031zm-338.96875 271.582031c-3.789063-33.40625-30.152344-59.765625-63.558594-63.550781v-80.894532c33.40625-3.789062 59.769531-30.148437 63.558594-63.554687h232.441406v36.691406l-18.34375-18.347656c-3.125-3.121094-8.1875-3.121094-11.3125 0l-74.34375 74.347656-74.34375-74.347656c-3.125-3.121094-8.1875-3.121094-11.3125 0l-80 80c-3.121094 3.125-3.121094 8.191406 0 11.3125l80 80c3.125 3.125 8.1875 3.125 11.3125 0l74.34375-74.34375 74.34375 74.34375c3.125 3.125 8.1875 3.125 11.3125 0l18.34375-18.34375v36.6875zm214.097656-141.65625c-3.125-3.121094-8.1875-3.121094-11.3125 0l-32 32c-3.121094 3.125-3.121094 8.191406 0 11.3125l32 32c3.125 3.125 8.1875 3.125 11.3125 0l18.34375-18.34375v25.378906l-24 24-68.6875-68.691406 68.6875-68.6875 24 24v25.378906zm15.03125 37.65625-20.6875 20.691406-20.6875-20.691406 20.6875-20.6875zm-112 0-68.6875 68.691406-68.6875-68.691406 68.6875-68.6875zm-212.6875 136v-272h328v16h-240c-4.417969 0-8 3.582031-8 8-.035156 30.914062-25.085938 55.964843-56 56-4.417969 0-8 3.582031-8 8v96c0 4.417969 3.582031 8 8 8 30.914062.035156 55.964844 25.089843 56 56 0 4.417969 3.582031 8 8 8h240v16zm424 18.113281c-26.140625 7.496094-53.859375 7.496094-80 0v-308.222656c26.140625-7.496094 53.859375-7.496094 80 0zm0 0"/><path d="m264 135.730469c13.253906 0 24-10.742188 24-24 0-13.253907-10.746094-24-24-24s-24 10.746093-24 24c0 13.257812 10.746094 24 24 24zm0-32c4.417969 0 8 3.582031 8 8s-3.582031 8-8 8-8-3.582031-8-8 3.582031-8 8-8zm0 0"/><path d="m264 215.730469c-13.253906 0-24 10.746093-24 24 0 13.257812 10.746094 24 24 24s24-10.742188 24-24c0-13.253907-10.746094-24-24-24zm0 32c-4.417969 0-8-3.582031-8-8s3.582031-8 8-8 8 3.582031 8 8-3.582031 8-8 8zm0 0"/></svg>