<?xml version="1.0"?>
<svg xmlns="http://www.w3.org/2000/svg" viewBox="0 0 511 511"><defs><style>.cls-1{fill:#fff7e3;}.cls-2{fill:#fbdc77;}.cls-3{fill:#31a4ad;}</style></defs><g id="Layer_2" data-name="Layer 2"><g id="Layer_3_copy" data-name="Layer 3 copy"><g id="_55" data-name="55"><rect width="511" height="511" rx="6.25"/><rect class="cls-1" x="5" y="5" width="501" height="501" rx="1.25"/><rect width="260.5" height="260.5" rx="6.25"/><rect class="cls-1" x="5" y="5" width="250.5" height="250.5" rx="1.25"/><path d="M130.27,260a6.21,6.21,0,0,1-4.42-1.83L2.37,134.7a6.26,6.26,0,0,1,0-8.85L125.81,2.37a6.25,6.25,0,0,1,8.84,0L258.13,125.81a6.25,6.25,0,0,1,0,8.84L134.7,258.13A6.25,6.25,0,0,1,130.27,260Z"/><rect class="cls-2" x="41.7" y="41.7" width="177.1" height="177.1" rx="1.25" transform="translate(-53.95 130.28) rotate(-45.01)"/><path d="M130.27,245.09a6.21,6.21,0,0,1-4.42-1.83L17.24,134.69a6.25,6.25,0,0,1,0-8.84L125.81,17.24a6.25,6.25,0,0,1,8.84,0L243.26,125.81a6.25,6.25,0,0,1,0,8.84L134.69,243.26A6.21,6.21,0,0,1,130.27,245.09Z"/><rect class="cls-1" x="52.21" y="52.21" width="156.07" height="156.07" rx="1.25" transform="translate(-53.95 130.28) rotate(-45.01)"/><path d="M130.25,191.62c-3.69,0-9.23-1.23-14.6-7.09a6.24,6.24,0,0,1-1.64-4.24V156.55L104,146.49H75.13a6.26,6.26,0,0,1-6.25-6.25v-20A6.26,6.26,0,0,1,75.13,114H104L114,104V85.12a16.26,16.26,0,0,1,16.24-16.24c3.7,0,9.23,1.23,14.6,7.09a6.29,6.29,0,0,1,1.64,4.24V104L156.55,114h28.82a6.25,6.25,0,0,1,6.25,6.25v20a6.25,6.25,0,0,1-6.25,6.25H156.55l-10.06,10.06v18.83A16.26,16.26,0,0,1,130.25,191.62Z"/><path class="cls-3" d="M185.37,119H155a1.26,1.26,0,0,1-.89-.37l-12.25-12.25a1.28,1.28,0,0,1-.37-.89V80.21a1.23,1.23,0,0,0-.33-.86C131.3,68.59,119,75.42,119,85.12V105.5a1.24,1.24,0,0,1-.37.89l-12.25,12.25a1.24,1.24,0,0,1-.89.37H75.13a1.25,1.25,0,0,0-1.25,1.25v20a1.25,1.25,0,0,0,1.25,1.25H105.5a1.28,1.28,0,0,1,.89.37l12.25,12.25a1.26,1.26,0,0,1,.37.89v25.29a1.28,1.28,0,0,0,.33.86c9.86,10.76,22.15,3.93,22.15-5.77V155a1.3,1.3,0,0,1,.37-.89l12.25-12.25a1.3,1.3,0,0,1,.89-.37h30.37a1.25,1.25,0,0,0,1.25-1.25v-20A1.25,1.25,0,0,0,185.37,119Z"/><path d="M130.25,149.6a6.27,6.27,0,0,1-4.44-1.84l-13.07-13.07a6.29,6.29,0,0,1,0-8.88l13.06-13.07a6.28,6.28,0,0,1,8.88,0l13.07,13.07a6.28,6.28,0,0,1,0,8.88l-13.07,13.07A6.27,6.27,0,0,1,130.25,149.6Z"/><rect class="cls-2" x="119.73" y="119.73" width="21.04" height="21.04" rx="1.28" transform="translate(130.25 -53.95) rotate(45)"/><rect x="250.5" width="260.5" height="260.5" rx="6.25"/><rect class="cls-1" x="255.5" y="5" width="250.5" height="250.5" rx="1.25"/><path d="M380.78,260a6.21,6.21,0,0,1-4.42-1.83L252.88,134.7a6.24,6.24,0,0,1-1.84-4.43,6.18,6.18,0,0,1,1.84-4.42L376.31,2.37a6.25,6.25,0,0,1,8.84,0L508.63,125.81a6.25,6.25,0,0,1,0,8.84L385.2,258.13A6.21,6.21,0,0,1,380.78,260Z"/><rect class="cls-2" x="292.2" y="41.7" width="177.1" height="177.1" rx="1.25" transform="translate(19.45 307.45) rotate(-45.01)"/><path d="M380.77,245.09a6.21,6.21,0,0,1-4.42-1.83L267.74,134.69a6.25,6.25,0,0,1,0-8.84L376.31,17.24a6.26,6.26,0,0,1,8.85,0l108.6,108.57a6.23,6.23,0,0,1,0,8.84L385.2,243.26A6.25,6.25,0,0,1,380.77,245.09Z"/><rect class="cls-1" x="302.72" y="52.21" width="156.07" height="156.07" rx="1.25" transform="translate(19.45 307.45) rotate(-45.01)"/><path d="M380.75,191.62c-3.69,0-9.22-1.23-14.6-7.09a6.29,6.29,0,0,1-1.64-4.24V156.55l-10.06-10.06H325.64a6.26,6.26,0,0,1-6.26-6.25v-20a6.26,6.26,0,0,1,6.26-6.25h28.81L364.51,104V85.12a16.26,16.26,0,0,1,16.24-16.24c3.7,0,9.23,1.23,14.6,7.09A6.3,6.3,0,0,1,397,80.21V104L407.05,114h28.82a6.25,6.25,0,0,1,6.25,6.25v20a6.25,6.25,0,0,1-6.25,6.25H407.05L397,156.55v18.83A16.27,16.27,0,0,1,380.75,191.62Z"/><path class="cls-3" d="M435.87,119H405.5a1.22,1.22,0,0,1-.88-.37l-12.26-12.25a1.27,1.27,0,0,1-.36-.89V80.21a1.28,1.28,0,0,0-.33-.86c-9.87-10.76-22.16-3.93-22.16,5.77V105.5a1.24,1.24,0,0,1-.37.89l-12.25,12.25a1.22,1.22,0,0,1-.88.37H325.64a1.25,1.25,0,0,0-1.26,1.25v20a1.25,1.25,0,0,0,1.26,1.25H356a1.26,1.26,0,0,1,.88.37l12.25,12.25a1.26,1.26,0,0,1,.37.89v25.29a1.28,1.28,0,0,0,.33.86c9.86,10.76,22.16,3.93,22.16-5.77V155a1.29,1.29,0,0,1,.36-.89l12.26-12.25a1.26,1.26,0,0,1,.88-.37h30.37a1.25,1.25,0,0,0,1.25-1.25v-20A1.25,1.25,0,0,0,435.87,119Z"/><path d="M380.75,149.6a6.28,6.28,0,0,1-4.44-1.84l-13.06-13.07a6.28,6.28,0,0,1,0-8.88l13.06-13.07a6.28,6.28,0,0,1,8.88,0l13.07,13.07a6.28,6.28,0,0,1,0,8.88l-13.07,13.07A6.25,6.25,0,0,1,380.75,149.6Z"/><rect class="cls-2" x="370.23" y="119.73" width="21.04" height="21.04" rx="1.28" transform="translate(203.62 -231.08) rotate(45)"/><rect x="250.5" y="250.5" width="260.5" height="260.5" rx="6.25"/><rect class="cls-1" x="255.5" y="255.5" width="250.5" height="250.5" rx="1.25"/><path d="M380.78,510.46a6.21,6.21,0,0,1-4.42-1.83L252.88,385.2a6.26,6.26,0,0,1,0-8.85L376.31,252.88a6.23,6.23,0,0,1,8.84,0L508.63,376.31a6.25,6.25,0,0,1,0,8.84L385.2,508.63A6.21,6.21,0,0,1,380.78,510.46Z"/><rect class="cls-2" x="292.2" y="292.2" width="177.1" height="177.1" rx="1.25" transform="translate(-157.71 380.85) rotate(-45.01)"/><path d="M380.77,495.6a6.18,6.18,0,0,1-4.42-1.84L267.74,385.19a6.25,6.25,0,0,1,0-8.84L376.31,267.74a6.25,6.25,0,0,1,8.85,0l108.6,108.56a6.25,6.25,0,0,1,0,8.84L385.2,493.76A6.22,6.22,0,0,1,380.77,495.6Z"/><rect class="cls-1" x="302.72" y="302.72" width="156.07" height="156.07" rx="1.25" transform="translate(-157.71 380.85) rotate(-45.01)"/><path d="M380.75,442.12c-3.69,0-9.22-1.23-14.6-7.09a6.28,6.28,0,0,1-1.64-4.23V407.05L354.45,397H325.64a6.27,6.27,0,0,1-6.26-6.26v-20a6.26,6.26,0,0,1,6.26-6.25h28.81l10.06-10.06V335.62a16.26,16.26,0,0,1,16.24-16.24c3.7,0,9.23,1.23,14.6,7.09a6.26,6.26,0,0,1,1.65,4.24v23.74l10.05,10.06h28.82a6.25,6.25,0,0,1,6.25,6.25v20a6.26,6.26,0,0,1-6.25,6.26H407.05L397,407.05v18.83A16.26,16.26,0,0,1,380.75,442.12Z"/><path class="cls-3" d="M435.87,369.51H405.5a1.22,1.22,0,0,1-.88-.37l-12.26-12.25A1.25,1.25,0,0,1,392,356v-25.3a1.3,1.3,0,0,0-.33-.86c-9.87-10.76-22.16-3.93-22.16,5.78V356a1.22,1.22,0,0,1-.37.88l-12.25,12.25a1.22,1.22,0,0,1-.88.37H325.64a1.25,1.25,0,0,0-1.26,1.25v20a1.26,1.26,0,0,0,1.26,1.26H356a1.25,1.25,0,0,1,.88.36l12.25,12.25a1.26,1.26,0,0,1,.37.89v25.3a1.28,1.28,0,0,0,.33.85c9.86,10.77,22.16,3.93,22.16-5.77V405.5a1.29,1.29,0,0,1,.36-.89l12.26-12.25a1.25,1.25,0,0,1,.88-.36h30.37a1.26,1.26,0,0,0,1.25-1.26v-20A1.25,1.25,0,0,0,435.87,369.51Z"/><path d="M380.75,400.1a6.24,6.24,0,0,1-4.44-1.84l-13.06-13.07a6.28,6.28,0,0,1,0-8.88l13.06-13.06a6.29,6.29,0,0,1,8.88,0l13.07,13.07a6.28,6.28,0,0,1,0,8.88l-13.07,13.07A6.21,6.21,0,0,1,380.75,400.1Z"/><rect class="cls-2" x="370.23" y="370.23" width="21.04" height="21.04" rx="1.28" transform="translate(380.75 -157.71) rotate(45)"/><rect y="250.5" width="260.5" height="260.5" rx="6.25"/><rect class="cls-1" x="5" y="255.5" width="250.5" height="250.5" rx="1.25"/><path d="M130.27,510.46a6.2,6.2,0,0,1-4.41-1.83L2.37,385.2a6.28,6.28,0,0,1,0-8.85L125.81,252.88a6.23,6.23,0,0,1,8.84,0L258.13,376.31a6.25,6.25,0,0,1,0,8.84L134.7,508.63A6.25,6.25,0,0,1,130.27,510.46Z"/><rect class="cls-2" x="41.7" y="292.2" width="177.1" height="177.1" rx="1.25" transform="translate(-231.12 203.69) rotate(-45.01)"/><path d="M130.27,495.6a6.18,6.18,0,0,1-4.42-1.84L17.24,385.19a6.25,6.25,0,0,1,0-8.84L125.81,267.74a6.25,6.25,0,0,1,8.84,0L243.26,376.31a6.25,6.25,0,0,1,0,8.84L134.69,493.76A6.18,6.18,0,0,1,130.27,495.6Z"/><rect class="cls-1" x="52.21" y="302.72" width="156.07" height="156.07" rx="1.25" transform="translate(-231.12 203.69) rotate(-45.01)"/><path d="M130.25,442.12c-3.69,0-9.23-1.23-14.6-7.09A6.23,6.23,0,0,1,114,430.8V407.05L104,397H75.13a6.27,6.27,0,0,1-6.25-6.26v-20a6.26,6.26,0,0,1,6.25-6.25H104L114,354.45V335.62a16.26,16.26,0,0,1,16.24-16.24c3.7,0,9.23,1.23,14.6,7.09a6.29,6.29,0,0,1,1.64,4.24v23.74l10.06,10.06h28.82a6.25,6.25,0,0,1,6.25,6.25v20a6.26,6.26,0,0,1-6.25,6.26H156.55l-10.06,10.05v18.83A16.25,16.25,0,0,1,130.25,442.12Z"/><path class="cls-3" d="M185.37,369.51H155a1.26,1.26,0,0,1-.89-.37l-12.25-12.25a1.26,1.26,0,0,1-.37-.88v-25.3a1.25,1.25,0,0,0-.33-.86c-9.86-10.76-22.15-3.93-22.15,5.78V356a1.22,1.22,0,0,1-.37.88l-12.25,12.25a1.24,1.24,0,0,1-.89.37H75.13a1.25,1.25,0,0,0-1.25,1.25v20A1.26,1.26,0,0,0,75.13,392H105.5a1.27,1.27,0,0,1,.89.36l12.25,12.25a1.26,1.26,0,0,1,.37.89v25.3a1.28,1.28,0,0,0,.33.85c9.86,10.77,22.15,3.93,22.15-5.77V405.5a1.3,1.3,0,0,1,.37-.89l12.25-12.25A1.29,1.29,0,0,1,155,392h30.37a1.26,1.26,0,0,0,1.25-1.26v-20A1.25,1.25,0,0,0,185.37,369.51Z"/><path d="M130.25,400.1a6.22,6.22,0,0,1-4.44-1.84l-13.06-13.07a6.28,6.28,0,0,1,0-8.88l13.06-13.06a6.29,6.29,0,0,1,8.88,0l13.07,13.07a6.28,6.28,0,0,1,0,8.88l-13.07,13.07A6.21,6.21,0,0,1,130.25,400.1Z"/><rect class="cls-2" x="119.73" y="370.23" width="21.04" height="21.04" rx="1.28" transform="translate(307.38 19.42) rotate(45)"/></g></g></g></svg>
