<?xml version="1.0" encoding="iso-8859-1"?>
<!-- Generator: Adobe Illustrator 19.0.0, SVG Export Plug-In . SVG Version: 6.00 Build 0)  -->
<svg version="1.1" id="Capa_1" xmlns="http://www.w3.org/2000/svg" xmlns:xlink="http://www.w3.org/1999/xlink" x="0px" y="0px"
	 viewBox="0 0 512 512" style="enable-background:new 0 0 512 512;" xml:space="preserve">
<path style="fill:#EDEBED;" d="M448.387,504.5H63.613c-8.854,0-16.032-7.178-16.032-16.032V39.565H464.42v448.903
	C464.419,497.322,457.241,504.5,448.387,504.5z"/>
<rect x="47.581" y="39.565" style="fill:#DBD9DC;" width="24.05" height="104.21"/>
<path style="fill:#F7D291;" d="M464.419,39.565H47.581c-4.427,0-8.016-3.589-8.016-8.016V15.516c0-4.427,3.589-8.016,8.016-8.016
	H464.42c4.427,0,8.016,3.589,8.016,8.016v16.032C472.435,35.976,468.847,39.565,464.419,39.565z"/>
<path style="fill:#FFE1A0;" d="M400.29,151.79H288.065c-8.854,0-16.032-7.178-16.032-16.032V87.661
	c0-8.854,7.178-16.032,16.032-16.032H400.29c8.854,0,16.032,7.178,16.032,16.032v48.097
	C416.323,144.612,409.145,151.79,400.29,151.79z"/>
<path style="fill:#F7D291;" d="M296.081,95.677V71.629h-8.016c-8.854,0-16.032,7.178-16.032,16.032v48.097
	c0,8.854,7.178,16.032,16.032,16.032H400.29c8.854,0,16.032-7.178,16.032-16.032v-8.016h-88.177
	C310.436,127.742,296.081,113.386,296.081,95.677z"/>
<path style="fill:#FFE1A0;" d="M223.935,151.79H111.71c-8.854,0-16.032-7.178-16.032-16.032V87.661
	c0-8.854,7.178-16.032,16.032-16.032h112.226c8.854,0,16.032,7.178,16.032,16.032v48.097
	C239.968,144.612,232.79,151.79,223.935,151.79z"/>
<path style="fill:#F7D291;" d="M119.726,95.677V71.629h-8.016c-8.854,0-16.032,7.178-16.032,16.032v48.097
	c0,8.854,7.178,16.032,16.032,16.032h112.226c8.854,0,16.032-7.178,16.032-16.032v-8.016H151.79
	C134.082,127.742,119.726,113.386,119.726,95.677z"/>
<path style="fill:#B7B2B8;" d="M464.419,199.887C288.064,223.935,199.887,111.71,47.58,143.774v344.694
	c0,8.854,7.178,16.032,16.032,16.032h384.774c8.854,0,16.032-7.178,16.032-16.032V199.887H464.419z"/>
<path style="fill:#9C969E;" d="M71.629,464.419V139.881c-7.857,0.934-15.843,2.166-24.048,3.894v344.694
	c0,8.854,7.178,16.032,16.032,16.032h384.774c8.854,0,16.032-7.178,16.032-16.032v-8.016H87.661
	C78.807,480.452,71.629,473.274,71.629,464.419z"/>
<path style="fill:#867E88;" d="M47.581,143.774v31.063c134.27-50.101,238.241,111.91,368.742,113.228l48.097-64.129v-24.048
	C288.065,223.935,199.887,111.71,47.581,143.774z"/>
<path d="M464.419,0H47.581c-8.556,0-15.516,6.96-15.516,15.516v16.032c0,5.836,3.242,10.925,8.016,13.574v443.346
	c0,12.976,10.557,23.532,23.532,23.532h384.774c12.976,0,23.532-10.557,23.532-23.532V45.122c4.774-2.649,8.016-7.738,8.016-13.574
	V15.516C479.936,6.96,472.975,0,464.419,0z M47.064,15.516c0-0.285,0.231-0.516,0.516-0.516h416.839
	c0.285,0,0.516,0.231,0.516,0.516v16.032c0,0.285-0.231,0.516-0.516,0.516h-24.051c-4.142,0-7.5,3.358-7.5,7.5s3.358,7.5,7.5,7.5
	h16.551V193.27c-83.221,9.87-146.413-11.176-207.566-31.56c-4.972-1.657-9.92-3.304-14.859-4.931
	c7.686-3.876,12.973-11.84,12.973-21.021V87.661c0-12.976-10.557-23.532-23.532-23.532H111.709
	c-12.976,0-23.532,10.557-23.532,23.532v43.167c-10.713,0.586-21.728,1.85-33.097,3.869V47.064h353.228c4.142,0,7.5-3.358,7.5-7.5
	s-3.358-7.5-7.5-7.5H47.581c-0.285,0-0.516-0.231-0.516-0.516V15.516H47.064z M232.468,135.758c0,4.705-3.828,8.532-8.532,8.532
	h-29.924c-29.113-8.096-58.74-13.82-90.834-13.853V87.661c0-4.704,3.828-8.532,8.532-8.532h112.226c4.705,0,8.532,3.828,8.532,8.532
	V135.758z M448.387,497H63.613c-4.705,0-8.532-3.828-8.532-8.532v-306.42c16.15-5.336,32.055-7.789,48.465-7.47
	c4.151,0.089,7.565-3.211,7.645-7.352c0.081-4.141-3.211-7.564-7.352-7.645c-16.549-0.323-32.585,1.894-48.758,6.739v-16.38
	c71.383-13.369,128.82,5.764,189.53,26c51.623,17.208,104.644,34.885,170.005,34.883c13.534,0,27.613-0.771,42.304-2.449v13.062
	l-44.226,58.968c-58.15-3.09-108.691-33.084-157.599-62.111c-39.483-23.434-76.776-45.567-117.722-54.616
	c-4.043-0.895-8.048,1.66-8.942,5.705c-0.894,4.044,1.66,8.048,5.705,8.941c38.596,8.53,74.884,30.067,113.303,52.869
	c51.622,30.638,105.002,62.319,168.642,64.369c0.081,0.003,0.162,0.004,0.242,0.004c2.355,0,4.581-1.108,6-3l34.597-46.129v242.032
	C456.919,493.172,453.092,497,448.387,497z"/>
<path d="M288.064,64.129c-12.976,0-23.532,10.557-23.532,23.532v48.097c0,12.976,10.557,23.532,23.532,23.532H400.29
	c12.976,0,23.532-10.557,23.532-23.532V87.661c0-12.976-10.557-23.532-23.532-23.532C400.29,64.129,288.064,64.129,288.064,64.129z
	 M408.823,87.661v48.097c0,4.705-3.828,8.532-8.532,8.532H288.064c-4.705,0-8.532-3.827-8.532-8.532V87.661
	c0-4.704,3.828-8.532,8.532-8.532H400.29C404.995,79.129,408.823,82.957,408.823,87.661z"/>
<g>
</g>
<g>
</g>
<g>
</g>
<g>
</g>
<g>
</g>
<g>
</g>
<g>
</g>
<g>
</g>
<g>
</g>
<g>
</g>
<g>
</g>
<g>
</g>
<g>
</g>
<g>
</g>
<g>
</g>
</svg>
