<?xml version="1.0" encoding="UTF-8"?>
<svg xmlns="http://www.w3.org/2000/svg" xmlns:xlink="http://www.w3.org/1999/xlink" version="1.1" id="Capa_1" x="0px" y="0px" viewBox="0 0 512 512" style="enable-background:new 0 0 512 512;" xml:space="preserve" width="512" height="512">
<g>
	<g>
		<path style="fill:#D88A55;" d="M237.817,142.217l-71.27-34.969c-8.39-4.117-15.011-11.124-18.646-19.734l-18.886-44.739&#10;&#9;&#9;&#9;c-2.017-4.778,0.221-10.285,4.999-12.302l14.023-5.92c4.777-2.017,10.285,0.221,12.302,4.999l13.945,33.035&#10;&#9;&#9;&#9;c3.634,8.61,10.256,15.617,18.645,19.734l59.863,29.373L237.817,142.217z"/>
		<path style="fill:#D88A55;" d="M237.817,320.121l-71.27-34.969c-8.39-4.117-15.011-11.124-18.645-19.734l-18.886-44.739&#10;&#9;&#9;&#9;c-2.017-4.777,0.221-10.285,4.999-12.302l14.023-5.92c4.777-2.017,10.285,0.221,12.302,4.999l13.945,33.035&#10;&#9;&#9;&#9;c3.634,8.609,10.255,15.617,18.645,19.734l59.864,29.374L237.817,320.121z"/>
		<path style="fill:#D88A55;" d="M284.989,383.356l-14.977-30.524l59.863-29.373c8.39-4.116,15.011-11.124,18.645-19.734&#10;&#9;&#9;&#9;l13.945-33.034c2.017-4.777,7.524-7.016,12.302-4.999l14.023,5.92c4.777,2.017,7.016,7.525,4.999,12.302l-18.886,44.739&#10;&#9;&#9;&#9;c-3.635,8.61-10.256,15.617-18.646,19.734L284.989,383.356z"/>
		<path style="fill:#D88A55;" d="M284.989,178.166l-14.977-30.523l56.714-27.827c10.421-5.113,18.645-13.818,23.16-24.512&#10;&#9;&#9;&#9;l12.581-29.802c2.017-4.777,7.524-7.015,12.302-4.999l14.023,5.92c4.777,2.017,7.016,7.525,4.999,12.302l-18.886,44.739&#10;&#9;&#9;&#9;c-3.635,8.61-10.256,15.617-18.646,19.734L284.989,178.166z"/>
		<polygon style="fill:#C57A44;" points="211.146,91.259 211.146,129.131 237.817,142.217 252.793,111.694 &#9;&#9;"/>
		<polygon style="fill:#C57A44;" points="211.146,269.163 211.146,307.035 237.817,320.121 252.793,289.598 &#9;&#9;"/>
		<polygon style="fill:#C57A44;" points="313.957,331.271 270.013,352.833 284.989,383.356 313.957,369.143 &#9;&#9;"/>
		<polygon style="fill:#C57A44;" points="313.957,126.08 270.013,147.643 284.989,178.166 313.957,163.953 &#9;&#9;"/>
		<path style="fill:#FFBD86;" d="M334.72,504.5H190.085c-3.447,0-6.241-2.794-6.241-6.241v-24.173&#10;&#9;&#9;&#9;c0-6.519,5.285-11.804,11.804-11.804h133.511c6.519,0,11.804,5.285,11.804,11.804v24.173&#10;&#9;&#9;&#9;C340.962,501.706,338.167,504.5,334.72,504.5z"/>
		<path style="fill:#FFBD86;" d="M285.501,462.282h-46.197V15.905c0-4.642,3.763-8.405,8.405-8.405h29.387&#10;&#9;&#9;&#9;c4.642,0,8.405,3.763,8.405,8.405V462.282z"/>
		<rect x="239.304" y="429.337" style="fill:#F6A96C;" width="46.197" height="32.945"/>
		<path style="fill:#8795DE;" d="M164.693,393.356H98.095c-7.106,0-12.66-6.135-11.954-13.207l13.271-132.917&#10;&#9;&#9;&#9;c3.072-30.763,28.956-54.191,59.872-54.191l0,0c9.622,0,17.422,7.8,17.422,17.422v170.879&#10;&#9;&#9;&#9;C176.706,387.978,171.327,393.356,164.693,393.356z"/>
		<path style="fill:#FFE177;" d="M363.367,209.651h52.992c5.655,0,10.073-4.882,9.512-10.508l-10.56-105.763&#10;&#9;&#9;&#9;c-2.444-24.478-23.04-43.121-47.64-43.121h0c-7.656,0-13.863,6.207-13.863,13.863v135.97&#10;&#9;&#9;&#9;C353.808,205.371,358.088,209.651,363.367,209.651z"/>
		<path style="fill:#6C7FD8;" d="M159.283,193.042L159.283,193.042c-4.308,0-8.513,0.471-12.578,1.337v156.965&#10;&#9;&#9;&#9;c0,6.635-5.378,12.013-12.013,12.013H87.818l-1.677,16.793c-0.706,7.071,4.847,13.207,11.954,13.207h66.598&#10;&#9;&#9;&#9;c6.635,0,12.013-5.378,12.013-12.013V210.464C176.706,200.842,168.905,193.042,159.283,193.042z"/>
		<path style="fill:#FFD15B;" d="M425.871,199.142l-10.56-105.763c-1.912-19.151-14.936-34.728-32.294-40.602&#10;&#9;&#9;&#9;c1.141,3.374,1.926,6.92,2.294,10.602l10.56,105.763c0.562,5.627-3.857,10.509-9.512,10.509h-32.551v20.441&#10;&#9;&#9;&#9;c0,5.279,4.28,9.559,9.559,9.559h52.992C422.014,209.651,426.433,204.769,425.871,199.142z"/>
	</g>
	<g>
		<path style="fill:none;stroke:#000000;stroke-width:15;stroke-linecap:round;stroke-linejoin:round;stroke-miterlimit:10;" d="&#10;&#9;&#9;&#9;M237.817,142.217l-71.27-34.969c-8.39-4.117-15.011-11.124-18.646-19.734l-18.886-44.739c-2.017-4.778,0.221-10.285,4.999-12.302&#10;&#9;&#9;&#9;l14.023-5.92c4.777-2.017,10.285,0.221,12.302,4.999l13.945,33.035c3.634,8.61,10.256,15.617,18.645,19.734l44.137,21.656"/>
		
			<line style="fill:none;stroke:#000000;stroke-width:15;stroke-linecap:round;stroke-linejoin:round;stroke-miterlimit:10;" x1="236.621" y1="319.535" x2="176.706" y2="290.137"/>
		<path style="fill:none;stroke:#000000;stroke-width:15;stroke-linecap:round;stroke-linejoin:round;stroke-miterlimit:10;" d="&#10;&#9;&#9;&#9;M177.551,246.628c3.789,5.796,9.086,10.51,15.378,13.597l43.691,21.438"/>
		<path style="fill:none;stroke:#000000;stroke-width:15;stroke-linecap:round;stroke-linejoin:round;stroke-miterlimit:10;" d="&#10;&#9;&#9;&#9;M288.185,343.917l41.692-20.457c8.39-4.116,15.011-11.124,18.645-19.734l13.945-33.034c2.017-4.777,7.524-7.016,12.302-4.999&#10;&#9;&#9;&#9;l14.023,5.92c4.777,2.017,7.016,7.525,4.999,12.302l-18.886,44.739c-3.635,8.61-10.256,15.617-18.646,19.734l-68.074,33.401"/>
		
			<line style="fill:none;stroke:#000000;stroke-width:15;stroke-linecap:round;stroke-linejoin:round;stroke-miterlimit:10;" x1="352.432" y1="145.075" x2="288.185" y2="176.598"/>
		<path style="fill:none;stroke:#000000;stroke-width:15;stroke-linecap:round;stroke-linejoin:round;stroke-miterlimit:10;" d="&#10;&#9;&#9;&#9;M289.023,138.315l37.704-18.5c10.421-5.113,18.645-13.818,23.16-24.512l2.546-6.031"/>
		<path style="fill:none;stroke:#000000;stroke-width:15;stroke-linecap:round;stroke-linejoin:round;stroke-miterlimit:10;" d="&#10;&#9;&#9;&#9;M227.403,504.5h-37.318c-3.447,0-6.241-2.794-6.241-6.241v-24.173c0-6.519,5.285-11.804,11.804-11.804h133.511&#10;&#9;&#9;&#9;c6.519,0,11.804,5.285,11.804,11.804v24.173c0,3.447-2.794,6.241-6.241,6.241h-72.318"/>
		<path style="fill:none;stroke:#000000;stroke-width:15;stroke-linecap:round;stroke-linejoin:round;stroke-miterlimit:10;" d="&#10;&#9;&#9;&#9;M239.304,178.825V15.905c0-4.642,3.763-8.405,8.405-8.405h29.387c4.642,0,8.405,3.763,8.405,8.405v446.377h-46.197V213.825"/>
		<path style="fill:none;stroke:#000000;stroke-width:15;stroke-linecap:round;stroke-linejoin:round;stroke-miterlimit:10;" d="&#10;&#9;&#9;&#9;M164.693,393.356H98.095c-7.106,0-12.66-6.135-11.954-13.207l13.271-132.917c3.072-30.763,28.956-54.191,59.872-54.191l0,0&#10;&#9;&#9;&#9;c9.622,0,17.422,7.8,17.422,17.422v170.879C176.706,387.978,171.327,393.356,164.693,393.356z"/>
		
			<line style="fill:none;stroke:#000000;stroke-width:15;stroke-linecap:round;stroke-linejoin:round;stroke-miterlimit:10;" x1="140.436" y1="329.271" x2="140.436" y2="391.356"/>
		<path style="fill:none;stroke:#000000;stroke-width:15;stroke-linecap:round;stroke-linejoin:round;stroke-miterlimit:10;" d="&#10;&#9;&#9;&#9;M363.367,209.651h52.992c5.655,0,10.073-4.882,9.512-10.508l-10.56-105.763c-2.444-24.478-23.04-43.121-47.64-43.121h0&#10;&#9;&#9;&#9;c-7.656,0-13.863,6.207-13.863,13.863v135.97C353.808,205.371,358.088,209.651,363.367,209.651z"/>
		
			<line style="fill:none;stroke:#000000;stroke-width:15;stroke-linecap:round;stroke-linejoin:round;stroke-miterlimit:10;" x1="385.668" y1="158.657" x2="385.668" y2="208.059"/>
	</g>
</g>















</svg>
