<svg viewBox="0 0 48 48" xmlns="http://www.w3.org/2000/svg"><g id="color"><rect fill="#f9695f" height="4.96" rx="1.31" width="42.35" x="2.82" y="14.46"/><path d="m11.51 28.55-4.44 15.52c-.12.41-.64.71-1.25.71h-.84c-.77 0-1.36-.46-1.27-.98l2.61-15.25z" fill="#ff8a73"/><path d="m43.46 44.78h-.84c-.61 0-1.13-.3-1.25-.71l-4.44-15.52h5.18l2.62 15.25c.09.52-.5.98-1.27.98z" fill="#ff8a73"/><g fill="#fcecde"><path d="m16.22 19.37h13.61v9.18h-13.61z"/><path d="m16.22 19.37v9.18h-10.29c-.93 0-1.69-.76-1.69-1.7v-7.48z"/><path d="m43.76 19.37v7.48c0 .93-.74 1.68-1.65 1.7h-12.28v-9.18z"/></g></g><g id="line"><g><path d="m3.49 20.06v6.79c0 1.18.84 2.17 1.95 2.4l-2.47 14.42c-.07.41.05.82.33 1.15.37.44 1 .71 1.68.71h.84c.94 0 1.75-.51 1.97-1.25l4.28-14.98h24.29l4.29 14.98c.22.74 1.03 1.25 1.97 1.25h.84c.68 0 1.31-.26 1.68-.71.28-.33.4-.74.33-1.15l-1.6-9.29c-.07-.41-.46-.68-.87-.61s-.68.46-.61.87l1.61 9.22s-.21.18-.54.18h-.84c-.33 0-.51-.14-.53-.17l-4.17-14.56h3.55l.4 2.31c.07.41.46.68.87.61s.68-.46.61-.87l-.38-2.24c.9-.36 1.54-1.25 1.54-2.27v-6.79c.82-.27 1.42-1.04 1.42-1.95v-2.35c0-1.13-.92-2.06-2.06-2.06h-34.49c-.41 0-.75.34-.75.75s.34.75.75.75h34.49c.31 0 .56.25.56.56v2.35c0 .28-.21.51-.48.54-.06-.02-.12-.04-.18-.04h-39.53c-.06 0-.12.02-.18.04-.27-.04-.48-.26-.48-.54v-2.35c0-.31.25-.56.56-.56h2c.41 0 .75-.34.75-.75s-.34-.75-.75-.75h-2c-1.13 0-2.06.92-2.06 2.06v2.35c0 .91.6 1.67 1.42 1.95zm1.5 6.79v-6.68h10.48v7.63h-9.54c-.52 0-.94-.43-.94-.95zm1.37 17s-.21.18-.54.18h-.84c-.29 0-.47-.11-.52-.11 0 0 0 0-.01 0l2.5-14.63h3.56l-4.16 14.55zm10.61-23.68h12.11v7.63h-12.11zm25.14 7.63h-11.53v-7.63h12.43v6.68c0 .51-.41.94-.9.95z"/><path d="m24.65 22.82h-3.24c-.41 0-.75.34-.75.75s.34.75.75.75h3.24c.41 0 .75-.34.75-.75s-.34-.75-.75-.75z"/><path d="m38.87 22.82h-3.24c-.41 0-.75.34-.75.75s.34.75.75.75h3.24c.41 0 .75-.34.75-.75s-.34-.75-.75-.75z"/><path d="m8.26 24.32h3.24c.41 0 .75-.34.75-.75s-.34-.75-.75-.75h-3.24c-.41 0-.75.34-.75.75s.34.75.75.75z"/></g></g></svg>