<svg id="Capa_1" enable-background="new 0 0 512 512" height="512" viewBox="0 0 512 512" width="512" xmlns="http://www.w3.org/2000/svg"><g><path d="m437.48 220.618h-362.96c-5.523 0-10-4.477-10-10v-11.22c0-5.523 4.477-10 10-10h362.96c5.523 0 10 4.477 10 10v11.22c0 5.523-4.477 10-10 10z" fill="#da8659"/><path d="m422.911 480.78h-333.822c-5.523 0-10-4.477-10-10v-250.162h353.821v250.162c.001 5.523-4.477 10-9.999 10z" fill="#c56e37"/><path d="m79.089 220.618v16.65h326.764c5.747 0 10.406 4.659 10.406 10.406v233.106h6.65c5.523 0 10-4.477 10-10v-250.162z" fill="#a95e2c"/><path d="m214.374 147.772h83.252v291.382h-83.252z" fill="#da8659" transform="matrix(0 1 -1 0 549.463 37.463)"/><path d="m395.854 512h-21.626c-5.523 0-10-4.477-10-10v-21.22h41.626v21.22c0 5.523-4.478 10-10 10z" fill="#a95e2c"/><path d="m116.146 512h21.626c5.523 0 10-4.477 10-10v-21.22h-41.626v21.22c0 5.523 4.477 10 10 10z" fill="#a95e2c"/><circle cx="256" cy="293.463" fill="#ffe02f" r="15.61"/><path d="m214.374 262.244h83.252v291.382h-83.252z" fill="#da8659" transform="matrix(0 1 -1 0 663.935 151.935)"/><circle cx="256" cy="407.935" fill="#ffe02f" r="15.61"/><g><path d="m344.455 150.971v-46.906h-31.22v46.906c0 4.304-2.754 8.126-6.838 9.487l-17.544 5.848c-4.083 1.361-6.838 5.183-6.838 9.487v13.605h93.659v-13.605c0-4.304-2.754-8.126-6.838-9.487l-17.544-5.848c-4.082-1.361-6.837-5.182-6.837-9.487z" fill="#eff3f5"/><path d="m313.236 104.065h31.22v19.772h-31.22z" fill="#c9e2e7"/><path d="m363.031 0h-68.371c-4.416 0-8.309 2.897-9.578 7.127l-26.764 89.214c-1.155 3.85 1.728 7.724 5.747 7.724h129.563c4.019 0 6.902-3.874 5.747-7.724l-26.766-89.214c-1.268-4.23-5.162-7.127-9.578-7.127z" fill="#ffe02f"/><path d="m363.031 0h-19.617l29.138 104.065h21.074c4.019 0 6.902-3.874 5.747-7.724l-26.764-89.214c-1.268-4.23-5.162-7.127-9.578-7.127z" fill="#f9c301"/></g><g><path d="m214.374 189.398h-104.065v-114.878c0-5.523 4.477-10 10-10h84.065c5.523 0 10 4.477 10 10z" fill="#557981"/><path d="m138.753 158.341v-62.764c0-2.209 1.791-4 4-4h39.176c2.209 0 4 1.791 4 4v62.764c0 2.209-1.791 4-4 4h-39.176c-2.209 0-4-1.79-4-4z" fill="#62d8f9"/></g></g></svg>