<svg id="Layer_1" enable-background="new 0 0 33 33" height="300" viewBox="0 0 33 33" width="300" xmlns="http://www.w3.org/2000/svg" version="1.1" xmlns:xlink="http://www.w3.org/1999/xlink" xmlns:svgjs="http://svgjs.dev/svgjs"><g width="100%" height="100%" transform="matrix(1,0,0,1,0,0)"><g fill="#3c3c3b"><path d="m27.407 3.55-9.428 11.616-4.546-5.286c-2.616-3.043-6.79.657-4.274 3.56l6.725 7.759c.593.79 1.358 1.099 2.112 1.09.863.076 1.754-.259 2.385-1.197l11.462-14.192c2.299-2.842-1.98-6.375-4.436-3.35z" fill="#00b9ae" fill-opacity="1" data-original-color="#3c3c3bff" stroke="none" stroke-opacity="1"/><path d="m25.546 19.276v7.526h-20.606v-20.605h16.471v-4.439h-17.919c-1.65 0-2.992 1.343-2.992 2.992v23.501c0 1.65 1.342 2.991 2.991 2.991h23.501c1.65 0 2.992-1.341 2.992-2.991v-8.975z" fill="#00b9ae" fill-opacity="1" data-original-color="#3c3c3bff" stroke="none" stroke-opacity="1"/></g></g></svg>