<svg id="door" enable-background="new 0 0 512 512" height="512" viewBox="0 0 512 512" width="512" xmlns="http://www.w3.org/2000/svg"><path d="m440.5 463.5h-369c-2.761 0-5-2.238-5-5s2.239-5 5-5h58v-400c0-2.761 2.239-5 5-5h243c2.762 0 5 2.239 5 5v400h58c2.762 0 5 2.238 5 5s-2.238 5-5 5zm-80.5-10h12.5v-395h-233v395h12.5v-377.5c0-2.761 2.239-5 5-5h198c2.762 0 5 2.239 5 5zm-198 0h188v-372.5h-188zm166-35h-144c-2.761 0-5-2.238-5-5v-72c0-1.47.646-2.865 1.768-3.815 1.121-.95 2.605-1.361 4.054-1.116 2.925.487 28.865 5.048 38.714 14.896 5.489 5.489 22.826 7.535 32.464 7.535 9.646-.009 26.99-2.062 32.465-7.535 9.849-9.849 35.788-14.409 38.713-14.896 1.452-.244 2.933.166 4.054 1.116 1.122.95 1.769 2.346 1.769 3.815v72c-.001 2.762-2.239 5-5.001 5zm-139-10h134v-60.915c-8.896 1.978-22.363 5.85-27.465 10.95-10.171 10.171-36.559 10.465-39.535 10.465s-29.365-.294-39.536-10.465c-5.101-5.101-18.569-8.973-27.464-10.95zm67-71c-2.976 0-29.365-.294-39.536-10.465-6.439-6.438-26.212-10.92-33.288-12.104-2.41-.403-4.177-2.488-4.177-4.932v-188.999c0-1.785.824-3.502 2.368-4.396 1.523-.881 3.271-.963 4.803-.113.758.278 8.265 2.7 22.593-4.463 18.839-9.419 46.085-9.528 47.236-9.528s28.396.108 47.236 9.528c14.33 7.165 21.833 4.741 22.593 4.463 1.532-.85 3.282-.768 4.803.113 1.545.894 2.368 2.611 2.368 4.396v126c0 2.761-2.238 5-5 5s-5-2.239-5-5v-119.923c-5.282.303-13.388-.68-24.236-6.104-16.706-8.353-42.507-8.472-42.766-8.472-.254 0-26.056.119-42.762 8.472-10.848 5.424-18.953 6.409-24.236 6.104v178.777c8.442 1.729 26.648 6.224 34.536 14.111 5.49 5.489 22.826 7.535 32.464 7.535 9.646-.009 26.99-2.062 32.465-7.535 7.887-7.888 26.094-12.383 34.535-14.111v-4.854c0-2.762 2.238-5 5-5s5 2.238 5 5v9c0 2.443-1.767 4.528-4.177 4.932-7.075 1.184-26.849 5.665-33.288 12.104-10.17 10.17-36.558 10.464-39.534 10.464zm67.5-49.5c-5.959 0-11.061-3.742-13.077-9h-22.923c-2.762 0-5-2.238-5-5s2.238-5 5-5h22.923c2.017-5.258 7.118-9 13.077-9 7.72 0 14 6.28 14 14s-6.28 14-14 14zm0-18c-2.206 0-4 1.794-4 4s1.794 4 4 4 4-1.794 4-4-1.794-4-4-4z" fill="rgb(0,0,0)"/></svg>