<svg id="Layer_3" enable-background="new 0 0 32 32" height="512" viewBox="0 0 32 32" width="512" xmlns="http://www.w3.org/2000/svg"><g><g><path d="m29 21.80615h-2.14349l-4.06158-5.66589v-11.98596h3.54785c.55225 0 1-.44775 1-1s-.44775-1-1-1h-20.68555c-.55225 0-1 .44775-1 1s.44775 1 1 1h3.54785v11.98596l-4.06158 5.66589h-2.1435c-1.10303 0-2 .89697-2 2v4.03955c0 1.10303.89697 2 2 2h26c1.10303 0 2-.89697 2-2v-4.03955c0-1.10302-.89697-2-2-2zm-8.20508-17.65185v11.30762h-9.58984v-11.30762zm-10.07617 13.30761h10.5625l3.11426 4.34424h-16.79102zm-7.71875 10.38379v-4.03955h26l.00146 4.03955z"/></g><g><path d="m6.10492 24.77307c-.58148 0-1.0528.47131-1.0528 1.0528 0 .58142.47131 1.05273 1.0528 1.05273.58142 0 1.05273-.47131 1.05273-1.05273 0-.58149-.47131-1.0528-1.05273-1.0528z"/></g><g><path d="m10.20514 24.77307c-.58142 0-1.05273.47131-1.05273 1.0528 0 .58142.47131 1.05273 1.05273 1.05273s1.0528-.47131 1.0528-1.05273c-.00001-.58149-.47138-1.0528-1.0528-1.0528z"/></g><g><path d="m14.30542 24.77307c-.58142 0-1.0528.47131-1.0528 1.0528 0 .58142.47137 1.05273 1.0528 1.05273s1.0528-.47131 1.0528-1.05273c0-.58149-.47138-1.0528-1.0528-1.0528z"/></g></g></svg>