<svg clip-rule="evenodd" fill-rule="evenodd" stroke-linejoin="round" stroke-miterlimit="2" viewBox="0 0 510 510" xmlns="http://www.w3.org/2000/svg"><g><g><path d="m166.305 54.992h261.072v357.564h-261.072z" fill="#efc7a4"/><g fill="#d5a889"><path d="m276.276 90.13c4.461 0 8.077 3.616 8.077 8.077v271.134c0 4.461-3.616 8.077-8.077 8.077h-74.026c-4.46 0-8.076-3.616-8.076-8.077v-271.134c0-4.461 3.616-8.077 8.076-8.077z"/><path d="m391.432 90.13c4.46 0 8.076 3.616 8.076 8.077v271.134c0 4.461-3.616 8.077-8.076 8.077h-74.026c-4.461 0-8.077-3.616-8.077-8.077v-271.134c0-4.461 3.616-8.077 8.077-8.077z"/><path d="m439.024 40.889c2.788 0 5.048 2.26 5.048 5.048v12.552c0 2.788-2.26 5.048-5.048 5.048h-284.366c-2.788 0-5.048-2.26-5.048-5.048v-12.552c0-2.788 2.26-5.048 5.048-5.048z"/><path d="m439.024 404.011c2.788 0 5.048 2.26 5.048 5.048v12.552c0 2.788-2.26 5.048-5.048 5.048h-284.366c-2.788 0-5.048-2.26-5.048-5.048v-12.552c0-2.788 2.26-5.048 5.048-5.048z"/></g><path d="m90.665 413.713v50.651c0 2.622-2.125 4.747-4.747 4.747h-27.558c-2.622 0-4.748-2.125-4.748-4.747v-50.651z" fill="#efc7a4"/><path d="m207.675 413.713v50.651c0 2.622-2.125 4.747-4.747 4.747h-27.558c-2.622 0-4.748-2.125-4.748-4.747v-50.651z" fill="#efc7a4"/><path d="m200.247 273.047c12.061 0 21.838 9.777 21.838 21.838v127.494h-182.883v-127.494c0-12.061 9.778-21.838 21.839-21.838z" fill="#f76c82"/><path d="m45.458 377.101h172.411v36.612h-172.411z" fill="#d94452"/><path d="m32.091 445.245c-4.533 0-8.88-1.8-12.085-5.006-3.205-3.205-5.006-7.552-5.006-12.085v-60.216c0-5.54 2.201-10.853 6.118-14.77 3.918-3.918 9.231-6.118 14.771-6.118h6.627c11.537 0 20.889 9.352 20.889 20.888v36.781h134.477v-36.781c0-11.536 9.353-20.888 20.889-20.888h6.628c5.54 0 10.853 2.2 14.77 6.118 3.918 3.917 6.118 9.23 6.118 14.77v60.216c0 4.533-1.8 8.88-5.005 12.085-3.206 3.206-7.553 5.006-12.086 5.006z" fill="#eb5463"/><path d="m483.171 306.564v143.549c0 2.142-.851 4.196-2.365 5.711-1.515 1.514-3.569 2.365-5.712 2.365h-105.374c-2.143 0-4.197-.851-5.712-2.365-1.514-1.515-2.365-3.569-2.365-5.711v-143.549z" fill="#fdcd56"/><path d="m483.171 390.495v59.618c0 2.142-.851 4.196-2.365 5.711-1.515 1.514-3.569 2.365-5.712 2.365h-105.374c-2.143 0-4.197-.851-5.712-2.365-1.514-1.515-2.365-3.569-2.365-5.711v-59.618z" fill="#f5b945"/><path d="m489.952 295.766c1.339 0 2.623.532 3.569 1.479.947.946 1.479 2.23 1.479 3.569v11.499c0 1.339-.532 2.623-1.479 3.57-.946.947-2.23 1.478-3.569 1.478h-135.09c-1.339 0-2.623-.531-3.569-1.478-.947-.947-1.479-2.231-1.479-3.57v-11.499c0-1.339.532-2.623 1.479-3.569.946-.947 2.23-1.479 3.569-1.479z" fill="#f5b945"/></g><path d="m46.612 452.245h-14.521c-6.389 0-12.517-2.538-17.035-7.056s-7.056-10.645-7.056-17.035v-60.216c0-7.396 2.938-14.49 8.168-19.72 4.354-4.354 9.999-7.119 16.034-7.924v-45.409c0-15.927 12.912-28.838 28.839-28.838h98.264v-195.51h-4.647c-6.654 0-12.048-5.394-12.048-12.048v-12.552c0-6.654 5.394-12.048 12.048-12.048h284.366c6.654 0 12.048 5.394 12.048 12.048v12.552c0 6.654-5.394 12.048-12.048 12.048h-4.647v218.229h55.575c3.195 0 6.26 1.27 8.519 3.529 2.26 2.259 3.529 5.324 3.529 8.519v11.499c0 3.196-1.269 6.26-3.529 8.52-2.207 2.207-5.184 3.47-8.3 3.526v125.754c0 3.998-1.588 7.833-4.416 10.66-2.827 2.828-6.662 4.416-10.661 4.416h-105.374c-3.999 0-7.834-1.588-10.661-4.416-2.828-2.827-4.416-6.662-4.416-10.66v-16.454h-101.993c-1.017 4.331-3.222 8.334-6.419 11.53-4.518 4.518-10.645 7.056-17.035 7.056h-14.521v12.119c0 6.488-5.259 11.747-11.747 11.747h-27.558c-6.488 0-11.748-5.259-11.748-11.747v-12.119h-65.957v12.119c0 6.488-5.259 11.747-11.747 11.747h-27.558c-6.488 0-11.748-5.259-11.748-11.747zm-.41-111.954c13.661 1.804 24.203 13.495 24.203 27.647v2.163h120.477v-2.163c0-14.152 10.543-25.843 24.203-27.647v-45.406c0-8.195-6.643-14.838-14.838-14.838h-139.206c-8.195 0-14.839 6.643-14.839 14.838zm24.203 43.81v13.618h120.477v-13.618zm158.68-43.807c6.036.805 11.68 3.57 16.034 7.924 5.23 5.23 8.168 12.324 8.168 19.72v2.48h22.989c.595 0 1.077-.482 1.077-1.077v-271.134c0-.595-.482-1.077-1.077-1.077h-74.026c-.594 0-1.076.482-1.076 1.077v167.854c15.498.49 27.911 13.207 27.911 28.824zm24.202 44.124v12.593h101.356v-12.593h-37.237c-8.327 0-15.077-6.75-15.077-15.077v-271.134c0-8.327 6.75-15.077 15.077-15.077h74.026c8.326 0 15.076 6.75 15.076 15.077v190.559h13.869v-218.229h-247.072v195.51h13.869v-167.84c0-8.327 6.75-15.077 15.076-15.077h74.026c8.327 0 15.077 6.75 15.077 15.077v271.134c0 8.327-6.75 15.077-15.077 15.077zm0 26.593v8.648h101.356v-8.648zm-52.612 41.234h-23.053v9.866h23.053zm-117.01 0h-23.053v9.866h23.053zm392.506-127.884h-107.528v59.134h107.528zm-121.528-.002c-3.116-.056-6.092-1.319-8.3-3.526-2.26-2.26-3.529-5.324-3.529-8.52v-11.499c0-3.195 1.269-6.26 3.529-8.519 2.259-2.259 5.324-3.529 8.519-3.529h37.646v-190.559c0-.595-.482-1.077-1.076-1.077h-74.026c-.595 0-1.077.482-1.077 1.077v271.134c0 .595.482 1.077 1.077 1.077h37.237zm14 73.136v52.618c0 .285.113.559.315.761s.476.315.762.315h105.374c.286 0 .56-.113.762-.315s.315-.476.315-.761v-52.618zm-117.947-177.392c0-3.864 3.137-7 7-7s7 3.136 7 7v27.342c0 3.864-3.137 7-7 7s-7-3.136-7-7zm-94.086-163.566h280.462v-8.648h-280.462zm-124.519 381.708h197.105c2.677 0 5.243-1.063 7.136-2.955 1.892-1.893 2.955-4.459 2.955-7.136v-60.216c0-3.683-1.463-7.216-4.068-9.821-2.604-2.604-6.137-4.067-9.82-4.067h-6.628c-7.67 0-13.888 6.218-13.889 13.888v36.781c0 3.866-3.134 7-7 7h-134.477c-3.866 0-7-3.134-7-7v-36.781c0-7.67-6.218-13.888-13.889-13.888h-6.627c-3.684 0-7.216 1.463-9.821 4.067-2.605 2.605-4.068 6.138-4.068 9.821v60.216c0 2.677 1.063 5.243 2.956 7.136 1.892 1.892 4.459 2.955 7.135 2.955zm324.723-135.479v7.595h131.186v-7.595zm51.434 43.336c-3.863 0-7-3.136-7-7 0-3.863 3.137-7 7-7h28.318c3.864 0 7 3.137 7 7 0 3.864-3.136 7-7 7zm-79.262-125.999c0-3.864 3.137-7 7-7s7 3.136 7 7v27.342c0 3.864-3.137 7-7 7s-7-3.136-7-7zm79.262 198.817c-3.863 0-7-3.136-7-7 0-3.863 3.137-7 7-7h28.318c3.864 0 7 3.137 7 7 0 3.864-3.136 7-7 7z"/></g></svg>