<svg id="Icons" viewBox="0 0 60 60" xmlns="http://www.w3.org/2000/svg"><path d="m4 22v26c0 1.105.895 2 2 2h48c1.105 0 2-.895 2-2v-26l-26-16z" fill="#ddd"/><path d="m43 11v-6c0-.55.45-1 1-1h4c.55 0 1 .45 1 1v9.7z" fill="#e24a42"/><path d="m55.997 23c-.536 0-1.079-.144-1.569-.445l-24.428-15.033-24.427 15.033c-1.412.866-3.259.428-4.127-.983s-.428-3.259.983-4.127l25.999-16c.964-.593 2.18-.593 3.144 0l26 16c1.411.869 1.851 2.716.982 4.127-.566.921-1.55 1.428-2.558 1.428z" fill="#f25549"/><path d="m46.27 33.1c-1.56 1.55-3.75 2.05-5.71 1.52l-10.03 10.03-6.91 6.9c.53 1.97.03 4.16-1.52 5.72-1.67 1.66-4.08 2.13-6.16 1.39-.16-.05-.2-.27-.08-.38l3.1-3.11c.29-.28.29-.76 0-1.04l-2.09-2.09c-.28-.29-.76-.29-1.05 0l-3.1 3.09c-.11.13-.33.08-.38-.07-.81-2.31-.16-5.01 1.98-6.67 1.46-1.14 3.38-1.48 5.13-1.01l6.9-6.91 3.12-3.12 6.91-6.91c-.47-1.74-.13-3.66 1.01-5.13 1.66-2.13 4.36-2.78 6.67-1.97.15.05.2.27.08.38l-3.1 3.1c-.29.29-.29.77 0 1.05l2.09 2.08c.28.3.76.3 1.04 0l3.11-3.09c.11-.12.33-.08.38.08.74 2.08.27 4.49-1.39 6.16z" fill="#6479ad"/><path d="m38.058 45.942-17.051-17.051-.67-1.993c-.066-.22-.209-.419-.396-.551l-4.405-3.139c-.441-.319-1.035-.264-1.421.11l-1.795 1.795c-.374.385-.43.98-.11 1.421l3.139 4.405c.132.187.33.33.551.396l1.993.67 17.051 17.051 3.115-3.115z" fill="#a5a5a5"/><path d="m46.703 57.703c-1.718 1.729-4.505 1.729-6.223 0l-5.987-5.977c-.859.859-2.258.859-3.117 0-.429-.429-.639-.991-.639-1.564 0-.562.209-1.123.639-1.553l6.234-6.234c.859-.848 2.258-.848 3.117 0 .429.43.65.991.639 1.564.011.562-.209 1.123-.639 1.553l5.976 5.987c1.729 1.718 1.729 4.505 0 6.223z" fill="#56b0d3"/><path d="m2.952 18.296 2.572-1.583c.47-.289.616-.905.327-1.376-.289-.47-.904-.618-1.376-.327l-2.572 1.583c-1.877 1.157-2.465 3.626-1.31 5.504.562.914 1.439 1.516 2.406 1.766v24.138c0 1.654 1.346 3 3 3h5.336c-.446 1.396-.455 2.921.051 4.358.129.409.472.722.896.816.43.099.878-.043 1.144-.333l2.917-2.916 1.726 1.726-2.921 2.922c-.305.304-.427.755-.319 1.177.106.421.416.745.777.852.747.266 1.523.395 2.296.395 1.807 0 3.588-.707 4.903-2.022 1.601-1.601 2.307-3.893 1.913-6.101l.873-.873h4.267c.143.538.41 1.034.81 1.434 1.004 1.003 2.511 1.199 3.712.594l5.39 5.381c1.021 1.026 2.377 1.592 3.821 1.592s2.799-.564 3.818-1.59c1.025-1.02 1.59-2.376 1.59-3.818 0-1.345-.508-2.603-1.402-3.592h6.402c1.654 0 3-1.346 3-3v-24.126c.991-.253 1.853-.878 2.406-1.777 1.155-1.879.568-4.348-1.31-5.504l-8.097-4.982v-6.61c0-1.103-.897-2-2-2h-4c-1.103 0-2 .897-2 2v1.688l-9.902-6.099c-1.294-.796-2.9-.794-4.192 0l-20.428 12.571c-.47.289-.616.905-.327 1.376.288.469.903.616 1.376.327l20.426-12.571c.646-.396 1.45-.396 2.097 0l26 16c.939.578 1.233 1.813.655 2.753-.561.908-1.834 1.219-2.751.654l-24.428-15.032c-.322-.197-.727-.197-1.049 0l-24.425 15.031c-.94.575-2.175.284-2.753-.654-.577-.938-.283-2.174.655-2.752zm41.048-13.296h4v5.38l-4-2.461v-2.918zm-21.083 45.847c-.253.253-.352.621-.259.967.455 1.691-.03 3.51-1.267 4.746-1.012 1.011-2.401 1.52-3.822 1.421l2.101-2.101c.678-.677.678-1.779 0-2.456l-2.094-2.094c-.668-.668-1.77-.676-2.465 0l-2.096 2.096c-.109-1.613.586-3.214 1.92-4.247 1.18-.918 2.77-1.229 4.253-.837.343.095.713-.006.965-.259l6.2-6.2 2.764 2.764zm14.425-20.669c-.396-1.475-.082-3.064.837-4.252 1.03-1.325 2.627-2.016 4.249-1.906l-2.108 2.103c-.663.684-.658 1.785.012 2.456l2.082 2.072c.646.667 1.846.653 2.466.012l2.106-2.101c.099 1.4-.407 2.812-1.426 3.83-1.237 1.238-3.052 1.72-4.735 1.268-.345-.095-.715.004-.968.257l-6.21 6.201-2.764-2.764 6.201-6.21c.252-.253.351-.621.258-.966zm-2.705 13.758-1.701 1.701-14.337-14.337c-.109-.109-.242-.191-.389-.241l-2.048-.698-3.144-4.412c-.036-.05-.013-.105.008-.127l1.785-1.785c.031-.03.084-.054.144-.013l4.434 3.193.67 1.993c.05.146.132.279.241.389zm-4.105 2.125.99.99-.852.852c-.317.316-.553.69-.711 1.098h-2.367l2.939-2.939zm15.467 10.933s-.003.004-.005.005c-1.283 1.293-3.516 1.296-4.807-.003l-5.987-5.977c-.194-.194-.45-.292-.706-.292s-.512.098-.707.293c-.469.469-1.234.469-1.703 0-.286-.286-.346-.623-.346-.856 0-.323.122-.623.346-.846l6.23-6.229c.47-.467 1.238-.464 1.706-.005.229.229.353.526.346.878.007.303-.116.596-.346.825-.391.391-.391 1.022 0 1.413l5.979 5.991c.646.642 1.002 1.494 1.002 2.401s-.355 1.76-1.002 2.401zm-39.902-33.588 23.903-14.71 23.903 14.71c.342.211.713.362 1.097.462v24.132c0 .552-.448 1-1 1h-8.36l-3.612-3.618c.229-.448.348-.94.337-1.421.018-.86-.313-1.674-.937-2.297-1.248-1.23-3.275-1.23-4.525.005l-.853.853-.989-.989 5.82-5.812c2.203.392 4.491-.312 6.092-1.914 1.877-1.877 2.517-4.703 1.645-7.149-.123-.411-.447-.721-.868-.827-.421-.11-.873.016-1.176.318l-2.923 2.914-1.725-1.718 2.925-2.917c.3-.3.422-.746.319-1.165-.103-.42-.407-.747-.78-.864-2.815-.992-5.947-.068-7.792 2.302-1.181 1.525-1.655 3.513-1.317 5.418l-5.813 5.821-7.588-7.588-.585-1.74c-.132-.436-.408-.819-.774-1.077l-4.398-3.134c-.829-.6-1.967-.517-2.715.213l-1.805 1.805c-.719.739-.804 1.877-.208 2.698l3.135 4.4c.262.371.646.647 1.051.77l1.771.595 7.589 7.589-5.813 5.813c-1.911-.343-3.902.137-5.417 1.316-.526.407-.968.885-1.347 1.401h-6.362c-.552 0-1-.448-1-1v-24.148c.377-.097.748-.232 1.097-.445z" fill="#262626"/></svg>