<svg enable-background="new 0 0 1024 1024" viewBox="0 0 1024 1024" xmlns="http://www.w3.org/2000/svg"><g id="cleaning"/><g id="mirror_cleaning"/><g id="laundry"/><g id="clothes_iron"/><g id="car_wash"/><g id="bathroom_wash"/><g id="vacuum_cleaner"/><g id="clothes_wash"/><g id="sofa_wash"/><g id="dry_cleaning"/><g id="toilet_cleaning"/><g id="dish_wash"/><g id="ac_cleaning"/><g id="garbage"/><g id="dish_cleaning"><g><path d="m596.545 871.99c-5.49 0-10.33 2.85-13.09 7.15-25.87 5.32-52.66 8.11-80.11 8.11-218.57 0-395.75-177.18-395.75-395.75s177.18-395.75 395.75-395.75c160.32 0 298.37 95.32 360.56 232.38" fill="#d9d6e4"/><path d="m550.841 715.035c-3.225 0-6.069 1.674-7.69 4.201-15.198 3.125-30.937 4.764-47.064 4.764-128.408 0-232.5-104.092-232.5-232.5s104.092-232.5 232.5-232.5c94.187 0 175.29 56 211.826 136.521" fill="#c5c2d7"/><path d="m506.48 328.13v334.54h-69.24c-9.89 0-17.9-8.01-17.9-17.9v-298.74c0-9.89 8.01-17.9 17.9-17.9z" fill="#fd7"/><path d="m919.41 346.03v298.74c0 9.89-8.01 17.9-17.91 17.9h-51v-75.46c0-12.45-7.5-23.15-18.23-27.82v-231.26h69.23c9.9 0 17.91 8.01 17.91 17.9z" fill="#fd7"/><path d="m850.5 587.21v75.46h-344.02v-334.54h325.79v231.26c10.73 4.67 18.23 15.37 18.23 27.82z" fill="#6cc186"/><path d="m850.5 587.21v117.2c0 15.65-4.51 30.96-13 44.1l-25.36 39.25c-2.7 4.17-4.13 9.03-4.13 14v70.23h-208.83v-67.98c0-6.47-1.65-12.83-4.78-18.48l-19.67-35.52c-7.86-14.19-11.98-30.14-11.98-46.36v-164.92c0-15.93 13.2-28.77 29.25-28.19 15.29.54 27.19 13.57 27.19 28.87v-82.03c0-15.58 12.63-28.21 28.22-28.21h.65c15.58 0 28.22 12.63 28.22 28.21v-37.32c0-15.58 12.63-28.22 28.21-28.22h.65c15.58 0 28.22 12.64 28.22 28.22v61.22c0-15.93 13.19-28.77 29.25-28.2 15.29.54 27.19 13.58 27.19 28.88v104.81c0-16.46 13.3-29.83 29.76-29.9h.45c4.36-.02 8.51.88 12.26 2.52 10.73 4.67 18.23 15.37 18.23 27.82z" fill="#fddcc6"/><path d="m813.066 928.75h-216.52c-8.605 0-15.582-6.976-15.582-15.582v-25.598c0-8.605 6.976-15.582 15.582-15.582h216.52c8.605 0 15.582 6.976 15.582 15.582v25.598c-.001 8.606-6.977 15.582-15.582 15.582z" fill="#f3889f"/><path d="m199.595 142.53v.44c-11.75 2.69-22.23 8.64-30.44 16.84-8.2 8.21-14.15 18.69-16.84 30.44h-.44c-5.4-23.52-23.76-41.88-47.28-47.28v-.44c11.75-2.69 22.23-8.64 30.44-16.84 8.2-8.21 14.15-18.69 16.84-30.44h.44c2.69 11.75 8.64 22.23 16.84 30.44 8.21 8.2 18.69 14.15 30.44 16.84z" fill="#fd7"/><g fill="#80d7fd"><path d="m449.522 287.54c-8.143-29.658-.476-62.73 22.935-85.912 34.535-34.197 90.253-33.922 124.449.613 17.556 17.73 25.833 40.933 25.186 64.016"/><path d="m363.261 334.381c-22.344-22.565-22.165-58.972.4-81.316s58.972-22.165 81.316.4"/><path d="m620.985 241.829c19.486-12.828 45.654-10.738 62.74 6.518 9.764 9.86 14.606 22.744 14.543 35.604"/></g><path d="m916.584 162.718v.238c-6.37 1.458-12.051 4.684-16.502 9.129-4.445 4.451-7.671 10.132-9.129 16.502h-.239c-2.927-12.75-12.88-22.703-25.631-25.631v-.238c6.37-1.458 12.051-4.684 16.502-9.129 4.445-4.451 7.671-10.132 9.129-16.502h.239c1.458 6.37 4.684 12.051 9.129 16.502 4.451 4.445 10.132 7.67 16.502 9.129z" fill="#fd7"/><circle cx="152.047" cy="877.797" fill="#d9d6e4" r="22.547"/><g id="dish_cleaning_2_" fill="none" stroke="#2d4960" stroke-miterlimit="10" stroke-width="15"><path id="XMLID_20_" d="m789.795 654.308v-172.351c0-15.301-11.898-28.333-27.189-28.877-16.054-.571-29.248 12.274-29.248 28.2v125.746-186.965c0-15.585-12.634-28.218-28.218-28.218h-.646c-15.585 0-28.218 12.634-28.218 28.218v186.965-149.642c0-15.585-12.634-28.218-28.218-28.218h-.651c-15.585 0-28.218 12.634-28.218 28.218v173.925-91.898c0-15.3-11.898-28.331-27.188-28.875-16.054-.571-29.248 12.269-29.248 28.195v164.917c0 16.221 4.123 32.176 11.981 46.366l19.667 35.515c3.133 5.657 4.776 12.017 4.776 18.484v67.978h208.831v-70.226c0-4.968 1.434-9.831 4.13-14.004l25.36-39.253c8.489-13.14 13.005-28.45 13.005-44.094v-117.199c0-16.816-13.674-30.427-30.49-30.349h-.457c-16.458.077-29.76 13.443-29.76 29.902v67.54z"/><path d="m813.066 928.75h-216.52c-8.605 0-15.582-6.976-15.582-15.582v-25.598c0-8.605 6.976-15.582 15.582-15.582h216.52c8.605 0 15.582 6.976 15.582 15.582v25.598c-.001 8.606-6.977 15.582-15.582 15.582z"/><path d="m596.545 871.99c-5.49 0-10.33 2.85-13.09 7.15-25.87 5.32-52.66 8.11-80.11 8.11-218.57 0-395.75-177.18-395.75-395.75s177.18-395.75 395.75-395.75c160.32 0 298.37 95.32 360.56 232.38"/><path d="m349.545 312.07c-14.85 12.74-28.1 27.29-39.4 43.31-27.17 38.48-43.12 85.44-43.12 136.12 0 130.52 105.8 236.32 236.32 236.32 21.02 0 41.4-2.74 60.8-7.9"/><path d="m503.345 813c-177.559 0-321.5-143.94-321.5-321.5"/><path d="m562.755 662.67h-125.51c-9.89 0-17.9-8.01-17.9-17.9v-298.74c0-9.89 8.01-17.9 17.9-17.9h464.26c9.89 0 17.9 8.01 17.9 17.9v298.74c0 9.89-8.01 17.9-17.9 17.9h-51"/><path d="m506.484 327.75v334.976"/><path d="m832.269 327.75v234.37"/><path d="m199.595 142.53v.44c-11.75 2.69-22.23 8.64-30.44 16.84-8.2 8.21-14.15 18.69-16.84 30.44h-.44c-5.4-23.52-23.76-41.88-47.28-47.28v-.44c11.75-2.69 22.23-8.64 30.44-16.84 8.2-8.21 14.15-18.69 16.84-30.44h.44c2.69 11.75 8.64 22.23 16.84 30.44 8.21 8.2 18.69 14.15 30.44 16.84z"/><path d="m449.522 287.54c-8.143-29.658-.476-62.73 22.935-85.912 34.535-34.197 90.253-33.922 124.449.613 17.556 17.73 25.833 40.933 25.186 64.016"/><path d="m502.986 228.393c16.975-16.809 44.362-16.674 61.171.301"/><path d="m363.261 334.381c-22.344-22.565-22.165-58.972.4-81.316s58.972-22.165 81.316.4"/><path d="m620.985 241.829c19.486-12.828 45.654-10.738 62.74 6.518 9.764 9.86 14.606 22.744 14.543 35.604"/><path d="m916.584 162.718v.238c-6.37 1.458-12.051 4.684-16.502 9.129-4.445 4.451-7.671 10.132-9.129 16.502h-.239c-2.927-12.75-12.88-22.703-25.631-25.631v-.238c6.37-1.458 12.051-4.684 16.502-9.129 4.445-4.451 7.671-10.132 9.129-16.502h.239c1.458 6.37 4.684 12.051 9.129 16.502 4.451 4.445 10.132 7.67 16.502 9.129z"/><circle cx="152.047" cy="877.797" r="22.547"/></g></g></g><g id="cleaning_gloves"/><g id="male_sweeper"/><g id="female_sweeper"/><g id="spray_cleaning"/><g id="wet_floor_sign"/><g id="hand_wash"/><g id="home_cleaning"/><g id="sweeping"/><g id="pest_control"/><g id="sanitizer"/><g id="wipe"/><g id="garden_cleaning"/><g id="building_cleaning"/><g id="cleaning_trolley"/><g id="detergent"/></svg>