<svg id="Warstwa_1" enable-background="new 0 0 512 512" height="512" viewBox="0 0 512 512" width="512" xmlns="http://www.w3.org/2000/svg"><path id="_x32_0" d="m484 459h-353v-200h353c13.807 0 25 11.193 25 25v150c0 13.807-11.193 25-25 25z" fill="#ffab96"/><path id="_x31_9" d="m3 443.165v-374.33c0-8.746 7.089-15.835 15.835-15.835h112.165v406h-112.165c-8.746 0-15.835-7.089-15.835-15.835z" fill="#ffab96"/><path id="_x31_8" d="m484 125h-353v-72h353c13.807 0 25 11.193 25 25v22c0 13.807-11.193 25-25 25z" fill="#fff"/><path id="_x31_7" d="m259 259h128v200h-128z" fill="#f8c374"/><path id="_x31_6" d="m275 317h96v96h-96z" fill="#fff"/><g id="_x31_5"><circle cx="497.5" cy="62.5" fill="#ffab96" r="2.5"/><circle cx="497.5" cy="77.5" fill="#ffab96" r="2.5"/><circle cx="497.5" cy="92.5" fill="#ffab96" r="2.5"/><circle cx="497.5" cy="107.5" fill="#ffab96" r="2.5"/><g fill="#fff"><circle cx="497.5" cy="272.5" r="2.5"/><circle cx="497.5" cy="287.5" r="2.5"/><circle cx="2.5" cy="437.5" r="2.5"/><circle cx="17.5" cy="437.5" r="2.5"/><circle cx="32.5" cy="437.5" r="2.5"/><circle cx="47.5" cy="437.5" r="2.5"/><circle cx="62.5" cy="437.5" r="2.5"/><circle cx="77.5" cy="437.5" r="2.5"/><circle cx="92.5" cy="437.5" r="2.5"/><circle cx="107.5" cy="437.5" r="2.5"/><circle cx="122.5" cy="437.5" r="2.5"/><circle cx="137.5" cy="437.5" r="2.5"/><circle cx="152.5" cy="437.5" r="2.5"/><circle cx="167.5" cy="437.5" r="2.5"/><circle cx="182.5" cy="437.5" r="2.5"/><circle cx="197.5" cy="437.5" r="2.5"/><circle cx="212.5" cy="437.5" r="2.5"/><circle cx="227.5" cy="437.5" r="2.5"/><circle cx="242.5" cy="437.5" r="2.5"/><circle cx="257.5" cy="437.5" r="2.5"/><circle cx="272.5" cy="437.5" r="2.5"/><circle cx="287.5" cy="437.5" r="2.5"/><circle cx="302.5" cy="437.5" r="2.5"/><circle cx="317.5" cy="437.5" r="2.5"/><circle cx="332.5" cy="437.5" r="2.5"/><circle cx="347.5" cy="437.5" r="2.5"/><circle cx="362.5" cy="437.5" r="2.5"/><circle cx="377.5" cy="437.5" r="2.5"/><circle cx="392.5" cy="437.5" r="2.5"/><circle cx="407.5" cy="437.5" r="2.5"/><circle cx="422.5" cy="437.5" r="2.5"/><circle cx="437.5" cy="437.5" r="2.5"/><circle cx="452.5" cy="437.5" r="2.5"/><circle cx="467.5" cy="437.5" r="2.5"/><circle cx="497.5" cy="302.5" r="2.5"/><circle cx="497.5" cy="317.5" r="2.5"/><circle cx="497.5" cy="332.5" r="2.5"/><circle cx="497.5" cy="347.5" r="2.5"/><circle cx="497.5" cy="362.5" r="2.5"/><circle cx="497.5" cy="377.5" r="2.5"/><circle cx="497.5" cy="392.5" r="2.5"/><circle cx="497.5" cy="407.5" r="2.5"/><circle cx="482.5" cy="437.5" r="2.5"/><circle cx="497.5" cy="422.5" r="2.5"/><circle cx="497.5" cy="437.5" r="2.5"/><circle cx="2.5" cy="452.5" r="2.5"/><circle cx="17.5" cy="452.5" r="2.5"/><circle cx="32.5" cy="452.5" r="2.5"/><circle cx="47.5" cy="452.5" r="2.5"/><circle cx="62.5" cy="452.5" r="2.5"/><circle cx="77.5" cy="452.5" r="2.5"/><circle cx="92.5" cy="452.5" r="2.5"/><circle cx="107.5" cy="452.5" r="2.5"/><circle cx="122.5" cy="452.5" r="2.5"/><circle cx="137.5" cy="452.5" r="2.5"/><circle cx="152.5" cy="452.5" r="2.5"/><circle cx="167.5" cy="452.5" r="2.5"/><circle cx="182.5" cy="452.5" r="2.5"/><circle cx="197.5" cy="452.5" r="2.5"/><circle cx="212.5" cy="452.5" r="2.5"/><circle cx="227.5" cy="452.5" r="2.5"/><circle cx="242.5" cy="452.5" r="2.5"/><circle cx="257.5" cy="452.5" r="2.5"/><circle cx="272.5" cy="452.5" r="2.5"/><circle cx="287.5" cy="452.5" r="2.5"/><circle cx="302.5" cy="452.5" r="2.5"/><circle cx="317.5" cy="452.5" r="2.5"/><circle cx="332.5" cy="452.5" r="2.5"/><circle cx="347.5" cy="452.5" r="2.5"/><circle cx="362.5" cy="452.5" r="2.5"/><circle cx="377.5" cy="452.5" r="2.5"/><circle cx="392.5" cy="452.5" r="2.5"/><circle cx="407.5" cy="452.5" r="2.5"/><circle cx="422.5" cy="452.5" r="2.5"/><circle cx="437.5" cy="452.5" r="2.5"/><circle cx="452.5" cy="452.5" r="2.5"/><circle cx="467.5" cy="452.5" r="2.5"/><circle cx="482.5" cy="452.5" r="2.5"/><circle cx="497.5" cy="452.5" r="2.5"/></g><circle cx="490" cy="55" fill="#ffab96" r="2.5"/><circle cx="490" cy="70" fill="#ffab96" r="2.5"/><circle cx="490" cy="85" fill="#ffab96" r="2.5"/><circle cx="505" cy="70" fill="#ffab96" r="2.5"/><circle cx="505" cy="85" fill="#ffab96" r="2.5"/><circle cx="490" cy="100" fill="#ffab96" r="2.5"/><circle cx="490" cy="115" fill="#ffab96" r="2.5"/><circle cx="505" cy="100" fill="#ffab96" r="2.5"/><circle cx="490" cy="265" fill="#fff" r="2.5"/><circle cx="490" cy="280" fill="#fff" r="2.5"/><circle cx="490" cy="295" fill="#fff" r="2.5"/><circle cx="505" cy="280" fill="#fff" r="2.5"/><circle cx="505" cy="295" fill="#fff" r="2.5"/><circle cx="10" cy="445" fill="#fff" r="2.5"/><circle cx="25" cy="445" fill="#fff" r="2.5"/><circle cx="40" cy="445" fill="#fff" r="2.5"/><circle cx="55" cy="445" fill="#fff" r="2.5"/><circle cx="70" cy="445" fill="#fff" r="2.5"/><circle cx="85" cy="445" fill="#fff" r="2.5"/><circle cx="100" cy="445" fill="#fff" r="2.5"/><circle cx="115" cy="445" fill="#fff" r="2.5"/><circle cx="130" cy="445" fill="#fff" r="2.5"/><circle cx="145" cy="445" fill="#fff" r="2.5"/><circle cx="160" cy="445" fill="#fff" r="2.5"/><circle cx="175" cy="445" fill="#fff" r="2.5"/><circle cx="190" cy="445" fill="#fff" r="2.5"/><circle cx="205" cy="445" fill="#fff" r="2.5"/><circle cx="220" cy="445" fill="#fff" r="2.5"/><circle cx="235" cy="445" fill="#fff" r="2.5"/><circle cx="250" cy="445" fill="#fff" r="2.5"/><circle cx="265" cy="445" fill="#fff" r="2.5"/><circle cx="280" cy="445" fill="#fff" r="2.5"/><circle cx="295" cy="445" fill="#fff" r="2.5"/><circle cx="310" cy="445" fill="#fff" r="2.5"/><circle cx="325" cy="445" fill="#fff" r="2.5"/><circle cx="340" cy="445" fill="#fff" r="2.5"/><circle cx="355" cy="445" fill="#fff" r="2.5"/><circle cx="370" cy="445" fill="#fff" r="2.5"/><circle cx="385" cy="445" fill="#fff" r="2.5"/><circle cx="400" cy="445" fill="#fff" r="2.5"/><circle cx="415" cy="445" fill="#fff" r="2.5"/><circle cx="430" cy="445" fill="#fff" r="2.5"/><circle cx="445" cy="445" fill="#fff" r="2.5"/><circle cx="460" cy="445" fill="#fff" r="2.5"/><circle cx="475" cy="445" fill="#fff" r="2.5"/><circle cx="490" cy="310" fill="#fff" r="2.5"/><circle cx="490" cy="325" fill="#fff" r="2.5"/><circle cx="505" cy="310" fill="#fff" r="2.5"/><circle cx="505" cy="325" fill="#fff" r="2.5"/><circle cx="490" cy="340" fill="#fff" r="2.5"/><circle cx="490" cy="355" fill="#fff" r="2.5"/><circle cx="505" cy="340" fill="#fff" r="2.5"/><circle cx="505" cy="355" fill="#fff" r="2.5"/><circle cx="490" cy="370" fill="#fff" r="2.5"/><circle cx="490" cy="385" fill="#fff" r="2.5"/><circle cx="505" cy="370" fill="#fff" r="2.5"/><circle cx="505" cy="385" fill="#fff" r="2.5"/><circle cx="490" cy="400" fill="#fff" r="2.5"/><circle cx="490" cy="415" fill="#fff" r="2.5"/><circle cx="505" cy="400" fill="#fff" r="2.5"/><circle cx="505" cy="415" fill="#fff" r="2.5"/><circle cx="490" cy="430" fill="#fff" r="2.5"/><circle cx="490" cy="445" fill="#fff" r="2.5"/><circle cx="505" cy="430" fill="#fff" r="2.5"/><circle cx="505" cy="445" fill="#fff" r="2.5"/></g><g id="_x31_4" fill="#f8c374"><circle cx="287.5" cy="392.5" r="2.5"/><circle cx="287.5" cy="407.5" r="2.5"/><circle cx="302.5" cy="392.5" r="2.5"/><circle cx="302.5" cy="407.5" r="2.5"/><circle cx="317.5" cy="392.5" r="2.5"/><circle cx="317.5" cy="407.5" r="2.5"/><circle cx="347.5" cy="317.5" r="2.5"/><circle cx="347.5" cy="332.5" r="2.5"/><circle cx="347.5" cy="347.5" r="2.5"/><circle cx="347.5" cy="362.5" r="2.5"/><circle cx="347.5" cy="377.5" r="2.5"/><circle cx="332.5" cy="392.5" r="2.5"/><circle cx="332.5" cy="407.5" r="2.5"/><circle cx="347.5" cy="392.5" r="2.5"/><circle cx="347.5" cy="407.5" r="2.5"/><circle cx="362.5" cy="317.5" r="2.5"/><circle cx="362.5" cy="332.5" r="2.5"/><circle cx="362.5" cy="347.5" r="2.5"/><circle cx="362.5" cy="362.5" r="2.5"/><circle cx="362.5" cy="377.5" r="2.5"/><circle cx="362.5" cy="392.5" r="2.5"/><circle cx="362.5" cy="407.5" r="2.5"/><circle cx="280" cy="400" r="2.5"/><circle cx="295" cy="400" r="2.5"/><circle cx="310" cy="400" r="2.5"/><circle cx="325" cy="400" r="2.5"/><circle cx="355" cy="325" r="2.5"/><circle cx="355" cy="340" r="2.5"/><circle cx="355" cy="355" r="2.5"/><circle cx="355" cy="370" r="2.5"/><circle cx="355" cy="385" r="2.5"/><circle cx="340" cy="400" r="2.5"/><circle cx="355" cy="400" r="2.5"/><circle cx="370" cy="325" r="2.5"/><circle cx="370" cy="340" r="2.5"/><circle cx="370" cy="355" r="2.5"/><circle cx="370" cy="370" r="2.5"/><circle cx="370" cy="385" r="2.5"/><circle cx="370" cy="400" r="2.5"/></g><g fill="#2a343b"><path id="_x31_3" d="m512 100v-22c0-15.439-12.561-28-28-28h-350-6-109.165c-10.386 0-18.835 8.449-18.835 18.835v374.33c0 10.386 8.449 18.835 18.835 18.835h109.165 6 122 134 94c15.439 0 28-12.561 28-28v-150c0-15.439-12.561-28-28-28h-94-134-122v-128h350c15.439 0 28-12.561 28-28zm-6-22v22c0 12.131-9.869 22-22 22h-94v-66h94c12.131 0 22 9.869 22 22zm-122 44h-122v-66h122zm-122 334v-164h122v164zm222-194c12.131 0 22 9.869 22 22v150c0 12.131-9.869 22-22 22h-94v-194zm-100 0v24h-122v-24zm-128 0v194h-122v-194zm-128-6v200h-109.165c-7.077 0-12.835-5.758-12.835-12.835v-374.33c0-7.077 5.758-12.835 12.835-12.835h109.165v72zm6-200h122v66h-122z"/><path id="_x31_2" d="m256 134h134v6h-134z"/><path id="_x31_1" d="m272 300h102v6h-102z"/><path id="_x31_0" d="m103 231h6v50h-6z"/><path id="_x39_" d="m231 284h6v50h-6z"/><path id="_x38_" d="m409 284h6v50h-6z"/><path id="_x37_" d="m423 110h50v6h-50z"/><path id="_x36_" d="m298 110h50v6h-50z"/><path id="_x35_" d="m173 110h50v6h-50z"/><circle id="_x34_" cx="278" cy="274" r="8"/><circle id="_x33_" cx="308" cy="274" r="8"/><circle id="_x32_" cx="338" cy="274" r="8"/><circle id="_x31_" cx="368" cy="274" r="8"/><path id="_x30_" d="m272 416h102v-102h-102zm6-96h90v90h-90z"/></g></svg>