<svg xmlns="http://www.w3.org/2000/svg" version="1.1" xmlns:xlink="http://www.w3.org/1999/xlink" xmlns:svgjs="http://svgjs.dev/svgjs" viewBox="0 0 800 800" opacity="0.4"><defs><filter id="bbburst-blur-1" x="-100%" y="-100%" width="400%" height="400%"><feGaussianBlur in="SourceGraphic" stdDeviation="1"></feGaussianBlur></filter><filter id="bbburst-blur-2" x="-100%" y="-100%" width="400%" height="400%"><feGaussianBlur in="SourceGraphic" stdDeviation="2"></feGaussianBlur></filter><filter id="bbburst-blur-3" x="-100%" y="-100%" width="400%" height="400%"><feGaussianBlur in="SourceGraphic" stdDeviation="4"></feGaussianBlur></filter><filter id="bbburst-blur-4" x="-100%" y="-100%" width="400%" height="400%"><feGaussianBlur in="SourceGraphic" stdDeviation="12"></feGaussianBlur></filter><symbol id="bbburst-shape-1" viewBox="0 0 194 167"><path d="m97 0 96.129 166.5H.871L97 0Z"></path></symbol><symbol id="bbburst-shape-4" viewBox="0 0 149 143"><path d="M71.647 2.781c.898-2.764 4.808-2.764 5.706 0l15.445 47.534a3 3 0 0 0 2.853 2.073h49.98c2.906 0 4.115 3.719 1.764 5.427L106.96 87.193a2.999 2.999 0 0 0-1.09 3.354l15.445 47.534c.898 2.764-2.266 5.062-4.617 3.354l-40.435-29.378a3 3 0 0 0-3.526 0l-40.435 29.378c-2.351 1.708-5.515-.59-4.617-3.354L43.13 90.547a3 3 0 0 0-1.09-3.354L1.605 57.815c-2.35-1.708-1.142-5.427 1.764-5.427h49.98a3 3 0 0 0 2.853-2.073L71.647 2.781Z"></path></symbol><symbol id="bbburst-shape-6" viewBox="0 0 133 116"><path d="M59.7487 10.2513c-13.6683-13.66839-35.8291-13.66839-49.4974 0-13.66839 13.6683-13.66839 35.8291 0 49.4974l49.4974-49.4974ZM66.5 66.5 41.7513 91.2487 66.5 115.997l24.7487-24.7483L66.5 66.5Zm56.249-6.7513c13.668-13.6683 13.668-35.8291 0-49.4974-13.669-13.66839-35.8294-13.66839-49.4977 0l49.4977 49.4974Zm-112.4977 0 31.5 31.5 49.4974-49.4974-31.5-31.5-49.4974 49.4974Zm80.9974 31.5 31.5003-31.5-49.4977-49.4974-31.5 31.5 49.4974 49.4974Z"></path></symbol><symbol id="bbburst-shape-8" viewBox="0 0 87 168"><path d="m12 12 31.2546 18.0749c16.4102 9.4902 20.014 31.6325 7.4603 45.8369L36.3296 92.1884c-12.5684 14.2206-8.9394 36.3916 7.5068 45.8636L75 156" stroke-width="14" stroke-linecap="round" stroke-linejoin="round"></path></symbol><symbol id="bbburst-shape-10" viewBox="0 0 145 145"><circle cx="72.5" cy="72.5" r="61.5" fill="none" stroke-width="22"></circle></symbol></defs><use xlink:href="#bbburst-shape-6" width="16.39597297137625" opacity="0.8690970370497484" transform="matrix(0.9969418302101306,-0.07814721477618514,0.07814721477618514,0.9969418302101306,734.8510769232931,273.5121813774034)" fill="#ffa6d5"></use><use xlink:href="#bbburst-shape-1" width="32.618222618400864" opacity="0.3137870583159452" transform="matrix(0.9398440476175116,0.3416038146126774,-0.3416038146126774,0.9398440476175116,243.8594851503127,309.15197046565106)" fill="#ffbd9b" filter="url(#bbburst-blur-2)"></use><use xlink:href="#bbburst-shape-6" width="22.40879440047903" opacity="0.817286303339895" transform="matrix(0.7355878396346274,0.6774293543843976,-0.6774293543843976,0.7355878396346274,975.7787055776104,337.476970286713)" fill="#00a19d"></use><use xlink:href="#bbburst-shape-6" width="67.35566929419683" opacity="0.20296162128863615" transform="matrix(0.9914706962967049,0.1303298062030596,-0.1303298062030596,0.9914706962967049,83.20774143831719,92.00423639503231)" fill="#ffa6d5" filter="url(#bbburst-blur-3)"></use><use xlink:href="#bbburst-shape-4" width="50.32010462222714" opacity="0.3640537154625305" transform="matrix(0.9152576095643764,0.402869095531667,-0.402869095531667,0.9152576095643764,570.7129770856077,-95.2866250068816)" fill="#ffa6d5" filter="url(#bbburst-blur-2)"></use><use xlink:href="#bbburst-shape-10" width="52.518882552843124" opacity="0.2484804645624964" transform="matrix(0.8265698382138675,0.562834169676203,-0.562834169676203,0.8265698382138675,913.7507031571175,-291.55745146794476)" fill="none" stroke="#00a19d" filter="url(#bbburst-blur-3)"></use><use xlink:href="#bbburst-shape-8" width="56.03576863881577" opacity="0.4677244070905022" transform="matrix(0.7302458442492413,0.6831844604180578,-0.6831844604180578,0.7302458442492413,680.6135036518522,108.25504569314813)" fill="none" stroke="#00a19d" filter="url(#bbburst-blur-1)"></use><use xlink:href="#bbburst-shape-1" width="66.02917122583882" opacity="0.3480507309784169" transform="matrix(0.7485090224583714,-0.663124606162683,0.663124606162683,0.7485090224583714,-96.73642467679744,284.23868281708695)" fill="#ff5c58" filter="url(#bbburst-blur-2)"></use><use xlink:href="#bbburst-shape-10" width="41.88792506840652" opacity="0.5169267609365976" transform="matrix(0.8431467511649203,0.53768350913901,-0.53768350913901,0.8431467511649203,734.0491003784497,46.51295094961415)" fill="none" stroke="#ffbd9b" filter="url(#bbburst-blur-1)"></use><use xlink:href="#bbburst-shape-4" width="23.72824397467384" opacity="0.7695652992568545" transform="matrix(0.9667825619511577,-0.255600230647697,0.255600230647697,0.9667825619511577,599.1517357212072,203.01858845536435)" fill="#00a19d"></use><use xlink:href="#bbburst-shape-1" width="21.328884657955886" opacity="0.8673594226718602" transform="matrix(0.7636998099674731,-0.6455715299296009,0.6455715299296009,0.7636998099674731,424.5546750670501,425.974503803894)" fill="#ffa6d5"></use><use xlink:href="#bbburst-shape-4" width="15.568791599734254" opacity="0.9446230245698046" transform="matrix(0.9746763384174396,0.22362029274905415,-0.22362029274905415,0.9746763384174396,828.7808369104234,392.60818500674844)" fill="#ffa6d5"></use><use xlink:href="#bbburst-shape-1" width="37.72513429348696" opacity="0.6879981621083078" transform="matrix(0.8304094819279922,-0.5571535626055742,0.5571535626055742,0.8304094819279922,275.25005174856045,354.26920258755763)" fill="#ffa6d5"></use><use xlink:href="#bbburst-shape-10" width="53.445151904715196" opacity="0.18829348869975626" transform="matrix(0.8822239693487562,0.4708299777058856,-0.4708299777058856,0.8822239693487562,403.76341863330174,-152.1178174586956)" fill="none" stroke="#ffa6d5" filter="url(#bbburst-blur-3)"></use><use xlink:href="#bbburst-shape-6" width="28.25777094645506" opacity="0.4678508652116786" transform="matrix(0.85065397190447,-0.5257259933493389,0.5257259933493389,0.85065397190447,535.9495046795781,-63.342920858755065)" fill="#ffa6d5" filter="url(#bbburst-blur-1)"></use><use xlink:href="#bbburst-shape-6" width="38.5112454426127" opacity="0.6238803925755615" transform="matrix(0.7356348958186207,0.6773782547837854,-0.6773782547837854,0.7356348958186207,843.5877453394044,182.844197098866)" fill="#00a19d" filter="url(#bbburst-blur-1)"></use><use xlink:href="#bbburst-shape-10" width="32.64348825028301" opacity="0.23379723690097898" transform="matrix(0.8023782442637204,-0.5968158452422904,0.5968158452422904,0.8023782442637204,-211.1319301437299,386.2424886680819)" fill="none" stroke="#00a19d" filter="url(#bbburst-blur-3)"></use><use xlink:href="#bbburst-shape-8" width="23.128438144436085" opacity="0.7061880889464481" transform="matrix(0.9835254269373946,0.18076983865572133,-0.18076983865572133,0.9835254269373946,773.8385632655867,123.89327601849061)" fill="none" stroke="#ffa6d5"></use><use xlink:href="#bbburst-shape-1" width="21.717806067715163" opacity="0.8126769384555567" transform="matrix(0.9697994611811437,0.24390367994920317,-0.24390367994920317,0.9697994611811437,718.683058473673,327.29216293966965)" fill="#ffa6d5"></use><use xlink:href="#bbburst-shape-4" width="15.966604788930507" opacity="0.9182764543603901" transform="matrix(0.9674493635727739,0.25306467339918215,-0.25306467339918215,0.9674493635727739,828.2664007047637,361.78512864049225)" fill="#ffa6d5"></use><use xlink:href="#bbburst-shape-4" width="43.53997291795295" opacity="0.20182151509500879" transform="matrix(0.9898687218951343,0.1419856098824572,-0.1419856098824572,0.9898687218951343,555.788257149661,-346.65982675178435)" fill="#ffbd9b" filter="url(#bbburst-blur-3)"></use><use xlink:href="#bbburst-shape-1" width="20.980401552784073" opacity="0.7937158484397572" transform="matrix(0.9999919884828087,0.004002870244990572,-0.004002870244990572,0.9999919884828087,764.1126423969976,195.47847190907936)" fill="#ffa6d5"></use><use xlink:href="#bbburst-shape-6" width="64.1148485489676" opacity="0.33406556414489463" transform="matrix(0.879959927495343,0.4750479196906252,-0.4750479196906252,0.879959927495343,482.83896629929365,-29.87379878521375)" fill="#ff5c58" filter="url(#bbburst-blur-2)"></use><use xlink:href="#bbburst-shape-8" width="18.46492819723966" opacity="0.8642777683456262" transform="matrix(0.9348883811831133,-0.35494184696766556,0.35494184696766556,0.9348883811831133,516.9065404891753,399.8574136675154)" fill="none" stroke="#ffa6d5"></use><use xlink:href="#bbburst-shape-4" width="45.51872722628597" opacity="0.42022036051380296" transform="matrix(0.8960649314352125,-0.443923009824911,0.443923009824911,0.8960649314352125,353.3671075134336,-72.02080479299633)" fill="#ffbd9b" filter="url(#bbburst-blur-2)"></use><use xlink:href="#bbburst-shape-6" width="33.5800577127729" opacity="0.5687513761238188" transform="matrix(0.9325279862535397,0.3610977081814811,-0.3610977081814811,0.9325279862535397,500.69803450658014,368.7755204139712)" fill="#00a19d" filter="url(#bbburst-blur-1)"></use><use xlink:href="#bbburst-shape-8" width="38.34419258101692" opacity="0.36113531349877026" transform="matrix(0.9997333834157724,0.02309030281421624,-0.02309030281421624,0.9997333834157724,728.6060515996312,-236.2372752717364)" fill="none" stroke="#00a19d" filter="url(#bbburst-blur-2)"></use><use xlink:href="#bbburst-shape-4" width="31.52201211722362" opacity="0.48553295725534107" transform="matrix(0.8876515661847689,-0.460515685997477,0.460515685997477,0.8876515661847689,89.42883340739033,406.0154887658754)" fill="#00a19d" filter="url(#bbburst-blur-1)"></use><use xlink:href="#bbburst-shape-6" width="80.50392884337226" opacity="0.0002290936112798736" transform="matrix(0.9890640082700374,-0.14748690635038536,0.14748690635038536,0.9890640082700374,-3.4612249306311185,-298.9154185953282)" fill="#00a19d" filter="url(#bbburst-blur-3)"></use><use xlink:href="#bbburst-shape-8" width="37.90780226871789" opacity="0.5543797331750853" transform="matrix(0.7319417084075348,0.6813672544916283,-0.6813672544916283,0.7319417084075348,1004.5601593124386,51.986309509854834)" fill="none" stroke="#00a19d" filter="url(#bbburst-blur-1)"></use><use xlink:href="#bbburst-shape-1" width="12.617068132825022" opacity="0.9330865023487697" transform="matrix(0.9319148508552216,0.3626771439662141,-0.3626771439662141,0.9319148508552216,919.1928352702521,361.10442690657067)" fill="#00a19d"></use><use xlink:href="#bbburst-shape-8" width="20.914353281847852" opacity="0.6854737404511937" transform="matrix(0.9611510147321197,0.2760230549780516,-0.2760230549780516,0.9611510147321197,870.3747269033508,99.55932215341159)" fill="none" stroke="#ff5c58"></use><use xlink:href="#bbburst-shape-6" width="33.48487232750101" opacity="0.6371162417495921" transform="matrix(0.8195638540195727,-0.5729878612890369,0.5729878612890369,0.8195638540195727,425.1747944390986,143.70779354485512)" fill="#ffa6d5" filter="url(#bbburst-blur-1)"></use><use xlink:href="#bbburst-shape-1" width="49.838591858465996" opacity="0.2704698306400578" transform="matrix(0.8632219314085308,-0.5048246201754881,0.5048246201754881,0.8632219314085308,-31.730904423113486,64.65821124674017)" fill="#00a19d" filter="url(#bbburst-blur-2)"></use><use xlink:href="#bbburst-shape-6" width="27.110482323965783" opacity="0.722011626495371" transform="matrix(0.7959612459257933,0.6053475819595374,-0.6053475819595374,0.7959612459257933,755.706653653623,437.37379633622413)" fill="#ff5c58"></use><use xlink:href="#bbburst-shape-4" width="17.656704897752363" opacity="0.9048313704124836" transform="matrix(0.8943288344468531,0.4474102545504889,-0.4474102545504889,0.8943288344468531,878.2565364716812,417.2541347048942)" fill="#ffa6d5"></use><use xlink:href="#bbburst-shape-6" width="35.78300207527558" opacity="0.3918911593787424" transform="matrix(0.7393453641832901,0.6733263937056665,-0.6733263937056665,0.7393453641832901,450.95156890055387,432.30736536514735)" fill="#ffa6d5" filter="url(#bbburst-blur-2)"></use><use xlink:href="#bbburst-shape-1" width="24.60321005924414" opacity="0.7080831274440638" transform="matrix(0.9035405098004788,0.428502680446098,-0.428502680446098,0.9035405098004788,808.7520787798787,183.82758914587572)" fill="#00a19d"></use><use xlink:href="#bbburst-shape-6" width="11.786318088961139" opacity="0.8990916741536465" transform="matrix(0.9683000677323572,0.2497898693492443,-0.2497898693492443,0.9683000677323572,836.1762050981972,328.6573564907152)" fill="#00a19d"></use><use xlink:href="#bbburst-shape-6" width="48.32328784849464" opacity="0.11060256609273522" transform="matrix(0.9982871124343479,-0.05850505232449412,0.05850505232449412,0.9982871124343479,251.59812374795467,-332.84794185946237)" fill="#00a19d" filter="url(#bbburst-blur-3)"></use><use xlink:href="#bbburst-shape-1" width="38.30638047230394" opacity="0.5706731858296057" transform="matrix(0.7896643303961276,0.6135391147270364,-0.6135391147270364,0.7896643303961276,716.951469455408,178.89381788752263)" fill="#ffbd9b" filter="url(#bbburst-blur-1)"></use><use xlink:href="#bbburst-shape-4" width="38.39074801590844" opacity="0.6147904360732369" transform="matrix(0.9889393184306532,-0.14832068116724345,0.14832068116724345,0.9889393184306532,396.45847291137886,200.8878203362953)" fill="#00a19d" filter="url(#bbburst-blur-1)"></use><use xlink:href="#bbburst-shape-10" width="60.90929071635631" opacity="0.4229380681211281" transform="matrix(0.9713366272279075,0.2377081332338317,-0.2377081332338317,0.9713366272279075,382.5786747551287,88.33683370634924)" fill="none" stroke="#ffbd9b" filter="url(#bbburst-blur-2)"></use><use xlink:href="#bbburst-shape-10" width="40.754114873171424" opacity="0.5193600094345996" transform="matrix(0.8534026055685291,-0.5212523312262934,0.5212523312262934,0.8534026055685291,148.96354692352662,245.05987231896302)" fill="none" stroke="#ffa6d5" filter="url(#bbburst-blur-1)"></use><use xlink:href="#bbburst-shape-8" width="28.230183890889712" opacity="0.761628892388577" transform="matrix(0.9811860017721965,0.19306483347904446,-0.19306483347904446,0.9811860017721965,708.7905535186461,223.350745234932)" fill="none" stroke="#ffbd9b"></use><use xlink:href="#bbburst-shape-6" width="10.148153067257606" opacity="0.9794762246869958" transform="matrix(0.997706098201644,0.0676944725310083,-0.0676944725310083,0.997706098201644,805.4512872258874,388.45568880649245)" fill="#00a19d"></use><use xlink:href="#bbburst-shape-4" width="22.42225558063663" opacity="0.6251481797111826" transform="matrix(0.730686301914785,0.6827133572694294,-0.6827133572694294,0.730686301914785,1014.1335954667768,128.68527916408226)" fill="#ffbd9b" filter="url(#bbburst-blur-1)"></use><use xlink:href="#bbburst-shape-8" width="67.10761333819113" opacity="0.11080885264620266" transform="matrix(0.9943126294646404,-0.10650068021901468,0.10650068021901468,0.9943126294646404,-1.3631189573255256,-108.40431460584443)" fill="none" stroke="#ffa6d5" filter="url(#bbburst-blur-3)"></use><use xlink:href="#bbburst-shape-1" width="34.375146738545304" opacity="0.595442030654066" transform="matrix(0.9091180030930958,0.4165386614133458,-0.4165386614133458,0.9091180030930958,567.8940502308951,299.16144591463404)" fill="#00a19d" filter="url(#bbburst-blur-1)"></use><use xlink:href="#bbburst-shape-1" width="43.80565824650459" opacity="0.3264918849042272" transform="matrix(0.9773107309544973,0.21181061154056077,-0.21181061154056077,0.9773107309544973,660.9732790675075,-237.9058268707757)" fill="#ff5c58" filter="url(#bbburst-blur-2)"></use><use xlink:href="#bbburst-shape-6" width="36.58528633892904" opacity="0.4526222002540661" transform="matrix(0.8732371932389014,-0.4872953974174656,0.4872953974174656,0.8732371932389014,451.4411292789496,-70.163782831898)" fill="#ffbd9b" filter="url(#bbburst-blur-1)"></use><use xlink:href="#bbburst-shape-10" width="19.98507593679779" opacity="0.8170487363153246" transform="matrix(0.7287235402227112,-0.6848080036953997,0.6848080036953997,0.7287235402227112,337.23309963177513,492.8492519704144)" fill="none" stroke="#ffa6d5"></use><use xlink:href="#bbburst-shape-6" width="25.900489460420864" opacity="0.6523722017743068" transform="matrix(0.9970344118623283,-0.07695701113180714,0.07695701113180714,0.9970344118623283,411.4119846204852,358.66719823009777)" fill="#00a19d"></use><use xlink:href="#bbburst-shape-1" width="26.149455284399444" opacity="0.7453612066503248" transform="matrix(0.9001949703183648,-0.43548710131704055,0.43548710131704055,0.9001949703183648,584.5152186134738,192.72605781975267)" fill="#ffa6d5"></use><use xlink:href="#bbburst-shape-4" width="22.92419674377444" opacity="0.7691973726952521" transform="matrix(0.8285816283809689,0.559868274783937,-0.559868274783937,0.8285816283809689,790.3879892899334,406.7480744560868)" fill="#00a19d"></use><use xlink:href="#bbburst-shape-10" width="18.67790074545718" opacity="0.8153655199386676" transform="matrix(0.816666965275291,0.5771092338786883,-0.5771092338786883,0.816666965275291,888.1127825555241,342.0993762909027)" fill="none" stroke="#00a19d"></use><use xlink:href="#bbburst-shape-8" width="19.774934349665873" opacity="0.8607120390886815" transform="matrix(0.7829099803787154,-0.6221350035349236,0.6221350035349236,0.7829099803787154,467.27748915733065,376.3437091385214)" fill="none" stroke="#ff5c58"></use><use xlink:href="#bbburst-shape-4" width="47.85165344013119" opacity="0.4655157502394994" transform="matrix(0.9990194502584028,-0.04427344582702802,0.04427344582702802,0.9990194502584028,246.7337252432084,246.95952475132077)" fill="#00a19d" filter="url(#bbburst-blur-1)"></use><use xlink:href="#bbburst-shape-6" width="33.746474481522085" opacity="0.5483585510977103" transform="matrix(0.9608799685108618,-0.2769651351967706,0.2769651351967706,0.9608799685108618,513.3622021573194,-2.1655845826391555)" fill="#ffbd9b" filter="url(#bbburst-blur-1)"></use><use xlink:href="#bbburst-shape-8" width="11.654121840568726" opacity="0.9571925263432559" transform="matrix(0.8247581594304193,0.5654856129495666,-0.5654856129495666,0.8247581594304193,1000.2137914458822,429.5978814410119)" fill="none" stroke="#00a19d"></use><use xlink:href="#bbburst-shape-1" width="13.32201659643204" opacity="0.9024298765139586" transform="matrix(0.9844756416067195,-0.17552125535967955,0.17552125535967955,0.9844756416067195,703.8739787011134,311.7662676877352)" fill="#00a19d"></use><use xlink:href="#bbburst-shape-10" width="17.672683471606476" opacity="0.8331471106727417" transform="matrix(0.7335715876314332,-0.6796121878100029,0.6796121878100029,0.7335715876314332,491.90450831642283,348.4007697025183)" fill="none" stroke="#ffa6d5"></use><use xlink:href="#bbburst-shape-6" width="30.017953720977065" opacity="0.7491393348326607" transform="matrix(0.9519990541679213,0.3061009651461154,-0.3061009651461154,0.9519990541679213,696.3562049389737,280.1678574518672)" fill="#00a19d"></use><use xlink:href="#bbburst-shape-1" width="42.08943610875463" opacity="0.6830605745048117" transform="matrix(0.7821954017402718,0.6230331881179163,-0.6230331881179163,0.7821954017402718,799.8977087267544,259.0059370307245)" fill="#ff5c58"></use><use xlink:href="#bbburst-shape-6" width="44.725808602156135" opacity="0.25220446727946466" transform="matrix(0.9654969186105533,0.26041447761890407,-0.26041447761890407,0.9654969186105533,507.08938203726905,-238.7128650916068)" fill="#ffa6d5" filter="url(#bbburst-blur-2)"></use></svg>