<svg id="Layer_1" height="512" viewBox="0 0 512 512" width="512" xmlns="http://www.w3.org/2000/svg" data-name="Layer 1"><path d="m385.389 113.545a13 13 0 0 0 -18.389-18.391l-62.948 62.969-29-27.922a13.006 13.006 0 0 0 -18.052 18.729l38.2 36.77a13.008 13.008 0 0 0 18.208-.173z" fill="#00b4ff" fill-rule="evenodd"/><circle cx="321.117" cy="140.34" fill="#00b4ff" r="112.338" transform="matrix(1 -.011 .011 1 -1.523 3.537)"/><path d="m255.616 150.37a15.006 15.006 0 0 1 20.826-21.609l27.584 26.56 61.561-61.581a15 15 0 0 1 21.213 21.22l-71.986 71.98a15.007 15.007 0 0 1 -21.009.2zm223.975 303.86a27.768 27.768 0 1 1 -27.768-27.77 27.807 27.807 0 0 1 27.768 27.77zm-248.6 0a27.768 27.768 0 1 1 -27.837-27.758h.138a27.8 27.8 0 0 1 27.7 27.758zm-50.2-311.789-20.643-1.911v134.5a45.457 45.457 0 0 0 45.409 45.4h228.648a45.452 45.452 0 0 0 45.386-45.4v-104.979l-20.895-1.93c-12.922 64.121-69.696 112.561-137.578 112.561-76.683 0-139.183-61.822-140.328-138.241zm140.327-112.441a110.34 110.34 0 1 0 110.337 110.34 110.459 110.459 0 0 0 -110.337-110.34zm-137.946 320.431h251.033a75.5 75.5 0 0 0 75.4-75.4v-109.911a24.482 24.482 0 0 0 -22.338-24.489l-25.82-2.381c-1.147-76.43-63.647-138.25-140.329-138.25-67.885 0-124.658 48.441-137.579 112.57l-23.392-2.17v-52.529a24.639 24.639 0 0 0 -19.864-24.13l-120.006-23.47a15 15 0 1 0 -5.75 29.438l115.607 22.611v212.712a75.164 75.164 0 0 0 23.392 54.488 52.95 52.95 0 0 0 3.528 90.042 57.766 57.766 0 1 0 96.821 6.91h147.315a57.758 57.758 0 1 0 50.633-30.011c-.687 0-1.375.03-2.062.06-.321-.03-.664-.051-.985-.051h-245.488c-.023 0-.046-.009-.069-.009s-.046.009-.069.009h-19.978a23.02 23.02 0 1 1 0-46.039z" fill="#3e6679" fill-rule="evenodd"/></svg>