<svg xmlns="http://www.w3.org/2000/svg" version="1.1" xmlns:xlink="http://www.w3.org/1999/xlink" xmlns:svgjs="http://svgjs.dev/svgjs" viewBox="0 0 800 800"><defs><filter id="bbburst-blur-1" x="-100%" y="-100%" width="400%" height="400%"><feGaussianBlur in="SourceGraphic" stdDeviation="1"></feGaussianBlur></filter><filter id="bbburst-blur-2" x="-100%" y="-100%" width="400%" height="400%"><feGaussianBlur in="SourceGraphic" stdDeviation="2"></feGaussianBlur></filter><filter id="bbburst-blur-3" x="-100%" y="-100%" width="400%" height="400%"><feGaussianBlur in="SourceGraphic" stdDeviation="4"></feGaussianBlur></filter><filter id="bbburst-blur-4" x="-100%" y="-100%" width="400%" height="400%"><feGaussianBlur in="SourceGraphic" stdDeviation="12"></feGaussianBlur></filter><symbol id="bbburst-shape-1" viewBox="0 0 194 167"><path d="m97 0 96.129 166.5H.871L97 0Z"></path></symbol><symbol id="bbburst-shape-4" viewBox="0 0 149 143"><path d="M71.647 2.781c.898-2.764 4.808-2.764 5.706 0l15.445 47.534a3 3 0 0 0 2.853 2.073h49.98c2.906 0 4.115 3.719 1.764 5.427L106.96 87.193a2.999 2.999 0 0 0-1.09 3.354l15.445 47.534c.898 2.764-2.266 5.062-4.617 3.354l-40.435-29.378a3 3 0 0 0-3.526 0l-40.435 29.378c-2.351 1.708-5.515-.59-4.617-3.354L43.13 90.547a3 3 0 0 0-1.09-3.354L1.605 57.815c-2.35-1.708-1.142-5.427 1.764-5.427h49.98a3 3 0 0 0 2.853-2.073L71.647 2.781Z"></path></symbol><symbol id="bbburst-shape-6" viewBox="0 0 133 116"><path d="M59.7487 10.2513c-13.6683-13.66839-35.8291-13.66839-49.4974 0-13.66839 13.6683-13.66839 35.8291 0 49.4974l49.4974-49.4974ZM66.5 66.5 41.7513 91.2487 66.5 115.997l24.7487-24.7483L66.5 66.5Zm56.249-6.7513c13.668-13.6683 13.668-35.8291 0-49.4974-13.669-13.66839-35.8294-13.66839-49.4977 0l49.4977 49.4974Zm-112.4977 0 31.5 31.5 49.4974-49.4974-31.5-31.5-49.4974 49.4974Zm80.9974 31.5 31.5003-31.5-49.4977-49.4974-31.5 31.5 49.4974 49.4974Z"></path></symbol><symbol id="bbburst-shape-8" viewBox="0 0 87 168"><path d="m12 12 31.2546 18.0749c16.4102 9.4902 20.014 31.6325 7.4603 45.8369L36.3296 92.1884c-12.5684 14.2206-8.9394 36.3916 7.5068 45.8636L75 156" stroke-width="14" stroke-linecap="round" stroke-linejoin="round"></path></symbol><symbol id="bbburst-shape-10" viewBox="0 0 145 145"><circle cx="72.5" cy="72.5" r="61.5" fill="none" stroke-width="22"></circle></symbol><symbol id="bbburst-shape-11" viewBox="0 0 194 167"><path d="M10.398 161 97 11l86.603 150H10.397Z" stroke-width="11"></path></symbol><symbol id="bbburst-shape-12" viewBox="0 0 170 151"><path d="M69.3728 54.2122 85 10.0031l15.627 44.2091c1.413 3.9958 5.19 6.6672 9.428 6.6673h49.312l-39.149 26.1447c-3.803 2.5401-5.399 7.3367-3.875 11.6488l15.179 42.94-40.9683-27.36c-3.3621-2.245-7.7453-2.245-11.1074 0l-40.9682 27.36 15.1785-42.94c1.5243-4.3121-.0712-9.1087-3.8746-11.6488L10.6333 60.8795h49.3112c4.2381-.0001 8.0159-2.6715 9.4283-6.6673Z" stroke-width="12"></path></symbol></defs><use xlink:href="#bbburst-shape-11" width="19.762906738578234" opacity="0.6538794969307546" transform="matrix(0.7889611379720732,0.6144430997007055,-0.6144430997007055,0.7889611379720732,713.7587752796396,214.30772251154838)" fill="none" stroke="#ffbd9b" filter="url(#bbburst-blur-1)"></use><use xlink:href="#bbburst-shape-6" width="43.29263652783361" opacity="0.4322888889195152" transform="matrix(0.9997572295921883,0.022033653309255306,-0.022033653309255306,0.9997572295921883,547.9193713027529,-198.9374881858517)" fill="#ffbd9b" filter="url(#bbburst-blur-2)"></use><use xlink:href="#bbburst-shape-1" width="25.704413050759204" opacity="0.4578647953165518" transform="matrix(0.8499006786876278,0.5269429156619431,-0.5269429156619431,0.8499006786876278,829.873179539975,134.53634820010404)" fill="#2c2891" filter="url(#bbburst-blur-2)"></use><use xlink:href="#bbburst-shape-10" width="18.3331514846904" opacity="0.7357355484345812" transform="matrix(0.9078662408228535,0.4192599298456515,-0.4192599298456515,0.9078662408228535,676.9040353823186,14.836627018476918)" fill="none" stroke="#ffbd9b" filter="url(#bbburst-blur-1)"></use><use xlink:href="#bbburst-shape-11" width="15.968406933173485" opacity="0.8056950506763154" transform="matrix(0.9082678474332576,-0.4183891935972496,0.4183891935972496,0.9082678474332576,223.98414802825718,-47.580767742078535)" fill="none" stroke="#00a19d"></use><use xlink:href="#bbburst-shape-1" width="33.811658638782426" opacity="0.07061612699051512" transform="matrix(1.6925646510315806,0.4446626834785482,-0.4446626834785482,1.6925646510315806,769.1084121368062,-640.2283876662323)" fill="#ffbd9b" filter="url(#bbburst-blur-4)"></use><use xlink:href="#bbburst-shape-8" width="39.312942112033696" opacity="0.062155375325642526" transform="matrix(1.4298565698990418,1.0089649099530402,-1.0089649099530402,1.4298565698990418,422.0311330107452,-422.3902231341069)" fill="none" stroke="#ffbd9b" filter="url(#bbburst-blur-4)"></use><use xlink:href="#bbburst-shape-8" width="19.416966656054463" opacity="0.8532473330195786" transform="matrix(0.7805579568509454,-0.6250834152308614,0.6250834152308614,0.7805579568509454,109.46830578105659,36.597164396571486)" fill="none" stroke="#2c2891"></use><use xlink:href="#bbburst-shape-6" width="31.41122569463655" opacity="0.16817667147836235" transform="matrix(0.9699068598736221,0.7885307116213609,-0.7885307116213609,0.9699068598736221,575.7806540634383,352.6983968718364)" fill="#2c2891" filter="url(#bbburst-blur-3)"></use><use xlink:href="#bbburst-shape-12" width="24.52171797309963" opacity="0.18672425752874633" transform="matrix(0.8839399896097362,0.8838269597431047,-0.8838269597431047,0.8839399896097362,1108.4173216130675,50.08812004405041)" fill="none" stroke="#ffbd9b" filter="url(#bbburst-blur-3)"></use><use xlink:href="#bbburst-shape-12" width="18.2301376786743" opacity="0.8381344425090385" transform="matrix(0.8293700216020278,0.558699711175737,-0.558699711175737,0.8293700216020278,593.5575468573597,132.4478234547326)" fill="none" stroke="#2c2891"></use><use xlink:href="#bbburst-shape-11" width="25.770029613895897" opacity="0.593979131390083" transform="matrix(0.9725703954400704,0.2326087399766937,-0.2326087399766937,0.9725703954400704,514.9148748453564,187.10774223851615)" fill="none" stroke="#2c2891" filter="url(#bbburst-blur-1)"></use><use xlink:href="#bbburst-shape-1" width="16.48232794602015" opacity="0.8569087525053158" transform="matrix(0.9956385247588814,0.09329484453043675,-0.09329484453043675,0.9956385247588814,369.18207869699114,-22.55652747210172)" fill="#2c2891"></use><use xlink:href="#bbburst-shape-8" width="37.6517305334881" opacity="-0.08023433980076744" transform="matrix(1.6820599065754798,-0.4828814250841384,0.4828814250841384,1.6820599065754798,-164.14214481815247,-611.8111221580057)" fill="none" stroke="#00a19d" filter="url(#bbburst-blur-4)"></use><use xlink:href="#bbburst-shape-8" width="36.21269137401608" opacity="0.30147441608363235" transform="matrix(0.9643096580576621,0.7953658801939614,-0.7953658801939614,0.9643096580576621,708.4141782654372,-314.36653808244944)" fill="none" stroke="#ffbd9b" filter="url(#bbburst-blur-3)"></use><use xlink:href="#bbburst-shape-1" width="30.555735758892567" opacity="0.1848644576313917" transform="matrix(1.1385978559232477,0.5158438935249532,-0.5158438935249532,1.1385978559232477,222.85414432295042,-86.61393778090854)" fill="#ffbd9b" filter="url(#bbburst-blur-3)"></use><use xlink:href="#bbburst-shape-10" width="28.80949361390173" opacity="0.5924985561543626" transform="matrix(0.9167259838669152,-0.3995165459692957,0.3995165459692957,0.9167259838669152,170.79329242254298,-135.48849918609733)" fill="none" stroke="#2c2891" filter="url(#bbburst-blur-1)"></use><use xlink:href="#bbburst-shape-12" width="13.542959111375215" opacity="0.7956619307932887" transform="matrix(0.7569937034038535,-0.6534221705811019,0.6534221705811019,0.7569937034038535,66.47897312763973,164.57554791314288)" fill="none" stroke="#ffbd9b"></use><use xlink:href="#bbburst-shape-1" width="24.77518953170332" opacity="0.4888641972141262" transform="matrix(0.8924290819114696,-0.45118769238383644,0.45118769238383644,0.8924290819114696,22.032354620882387,183.33375314195973)" fill="#2c2891" filter="url(#bbburst-blur-2)"></use><use xlink:href="#bbburst-shape-6" width="28.129561565685446" opacity="0.620419103281349" transform="matrix(0.7100919938377646,0.7041089122341146,-0.7041089122341146,0.7100919938377646,792.7075832924305,-14.451396894956986)" fill="#ffbd9b" filter="url(#bbburst-blur-1)"></use><use xlink:href="#bbburst-shape-10" width="37.586883164685496" opacity="0.18862519786330667" transform="matrix(0.9858045873365753,-0.7685631500313845,0.7685631500313845,0.9858045873365753,-279.27190281342627,112.19074451212367)" fill="none" stroke="#2c2891" filter="url(#bbburst-blur-3)"></use><use xlink:href="#bbburst-shape-10" width="30.348809803923547" opacity="0.578530816353221" transform="matrix(0.7744866136690365,0.6325902980978041,-0.6325902980978041,0.7744866136690365,830.7941260196806,88.16674557997686)" fill="none" stroke="#00a19d" filter="url(#bbburst-blur-1)"></use><use xlink:href="#bbburst-shape-1" width="33.25507355653126" opacity="0.521414571030514" transform="matrix(0.9978618550130964,0.065358383623084,-0.065358383623084,0.9978618550130964,574.7435893826979,137.9851290376526)" fill="#2c2891" filter="url(#bbburst-blur-2)"></use><use xlink:href="#bbburst-shape-12" width="28.065510683231963" opacity="0.18511790028795616" transform="matrix(1.2192336379849564,0.2756253544323672,-0.2756253544323672,1.2192336379849564,468.5225011835493,274.24543155995843)" fill="none" stroke="#2c2891" filter="url(#bbburst-blur-3)"></use><use xlink:href="#bbburst-shape-11" width="39.08309309962722" opacity="0.3027904926824019" transform="matrix(1.241702371911612,0.14378880202949304,-0.14378880202949304,1.241702371911612,275.6009645902441,-371.33414676860394)" fill="none" stroke="#2c2891" filter="url(#bbburst-blur-3)"></use><use xlink:href="#bbburst-shape-10" width="40.890313839040296" opacity="0.371544278672968" transform="matrix(0.998114653132268,0.06137702503911697,-0.06137702503911697,0.998114653132268,312.44054728865257,267.0233855224031)" fill="none" stroke="#ffbd9b" filter="url(#bbburst-blur-2)"></use><use xlink:href="#bbburst-shape-6" width="37.680988007732374" opacity="0.12180786833799895" transform="matrix(1.2425572246227674,-0.13620405110629194,0.13620405110629194,1.2425572246227674,31.178291487604938,172.99887391188827)" fill="#00a19d" filter="url(#bbburst-blur-3)"></use><use xlink:href="#bbburst-shape-4" width="19.704554039651626" opacity="0.6673159673726763" transform="matrix(0.9506776439447578,0.3101806204514465,-0.3101806204514465,0.9506776439447578,389.182349502991,98.28449296117037)" fill="#2c2891" filter="url(#bbburst-blur-1)"></use><use xlink:href="#bbburst-shape-6" width="34.591945731725765" opacity="0.16936413824442842" transform="matrix(0.9760492377310299,-0.7809147748152006,0.7809147748152006,0.9760492377310299,164.7202572406489,384.8692813108413)" fill="#00a19d" filter="url(#bbburst-blur-3)"></use><use xlink:href="#bbburst-shape-4" width="34.15745711952916" opacity="0.4970164037396624" transform="matrix(0.9976447352312668,0.06859287328385925,-0.06859287328385925,0.9976447352312668,227.26928224430108,-133.22258911123504)" fill="#00a19d" filter="url(#bbburst-blur-2)"></use><use xlink:href="#bbburst-shape-4" width="19.756965257025513" opacity="0.7273852903769575" transform="matrix(0.9455830086670638,-0.32538096705268976,0.32538096705268976,0.9455830086670638,378.68613044908477,57.93043152068327)" fill="#00a19d" filter="url(#bbburst-blur-1)"></use><use xlink:href="#bbburst-shape-12" width="14.475826807202642" opacity="0.7623355240025986" transform="matrix(0.9975902779501286,-0.06938038151657357,0.06938038151657357,0.9975902779501286,263.6343915633069,35.46816443896)" fill="none" stroke="#ffbd9b" filter="url(#bbburst-blur-1)"></use><use xlink:href="#bbburst-shape-8" width="37.66108230882679" opacity="-0.07964617020808462" transform="matrix(1.71858687112891,-0.3300896338622933,0.3300896338622933,1.71858687112891,575.1114717697405,-628.7455556457102)" fill="none" stroke="#ffbd9b" filter="url(#bbburst-blur-4)"></use><use xlink:href="#bbburst-shape-8" width="35.117272130979465" opacity="0.4363468866385465" transform="matrix(0.9394694563361009,-0.34263266133214887,0.34263266133214887,0.9394694563361009,94.88575535028832,233.6077549138738)" fill="none" stroke="#ffbd9b" filter="url(#bbburst-blur-2)"></use><use xlink:href="#bbburst-shape-11" width="37.454248554890015" opacity="0.3702696275538172" transform="matrix(0.9559380440518631,-0.2935684859352214,0.2935684859352214,0.9559380440518631,449.7897317088841,237.0950330211724)" fill="none" stroke="#00a19d" filter="url(#bbburst-blur-2)"></use><use xlink:href="#bbburst-shape-4" width="16.531088154402642" opacity="0.7874249129766893" transform="matrix(0.7747518450367721,0.63226543366858,-0.63226543366858,0.7747518450367721,551.7503530669175,71.6768983326383)" fill="#ffbd9b"></use><use xlink:href="#bbburst-shape-8" width="29.860779994961565" opacity="0.06679935196910969" transform="matrix(1.6938410012492227,-0.4397756956529444,0.4397756956529444,1.6938410012492227,555.4716522605488,-49.305808784833516)" fill="none" stroke="#00a19d" filter="url(#bbburst-blur-4)"></use><use xlink:href="#bbburst-shape-10" width="32.799688607677815" opacity="0.4833644349152788" transform="matrix(0.9999999616688439,-0.00027687959633692494,0.00027687959633692494,0.9999999616688439,250.43994439920363,-190.64587065434924)" fill="none" stroke="#00a19d" filter="url(#bbburst-blur-2)"></use><use xlink:href="#bbburst-shape-12" width="36.54761660380059" opacity="-0.08912090044872123" transform="matrix(1.74972464979134,-0.03104271110217032,0.03104271110217032,1.74972464979134,4.879418614851403,42.895751631452754)" fill="none" stroke="#2c2891" filter="url(#bbburst-blur-4)"></use><use xlink:href="#bbburst-shape-12" width="17.39627826329371" opacity="0.6896635695469406" transform="matrix(0.9997374739004443,0.022912513593197334,-0.022912513593197334,0.9997374739004443,262.12297150706553,-19.169282758296276)" fill="none" stroke="#2c2891" filter="url(#bbburst-blur-1)"></use><use xlink:href="#bbburst-shape-11" width="31.457467384568645" opacity="0.5163726149191389" transform="matrix(0.8874502737299066,0.46090347325303804,-0.46090347325303804,0.8874502737299066,577.6237031400032,-180.1079231178503)" fill="none" stroke="#2c2891" filter="url(#bbburst-blur-2)"></use><use xlink:href="#bbburst-shape-6" width="34.64051669734173" opacity="0.30701222765600755" transform="matrix(0.8934354752899432,0.8742271166541525,-0.8742271166541525,0.8934354752899432,1004.1032681109626,-128.74575214887477)" fill="#2c2891" filter="url(#bbburst-blur-3)"></use><use xlink:href="#bbburst-shape-6" width="34.81264982020141" opacity="0.4540273735943038" transform="matrix(0.9225129205344227,0.3859662050582279,-0.3859662050582279,0.9225129205344227,778.5570786874462,-27.228500181974766)" fill="#2c2891" filter="url(#bbburst-blur-2)"></use><use xlink:href="#bbburst-shape-11" width="32.86345910432639" opacity="0.5893386397681251" transform="matrix(0.9880555520529214,-0.15409810530112572,0.15409810530112572,0.9880555520529214,396.78012861565537,-162.12648873869833)" fill="none" stroke="#ffbd9b" filter="url(#bbburst-blur-1)"></use><use xlink:href="#bbburst-shape-10" width="42.12435553676049" opacity="0.049558727140406766" transform="matrix(1.2539476532401344,1.2207027823895382,-1.2207027823895382,1.2539476532401344,627.0188891929549,230.16084082104112)" fill="none" stroke="#2c2891" filter="url(#bbburst-blur-4)"></use><use xlink:href="#bbburst-shape-6" width="26.142850376317387" opacity="0.48700960418840356" transform="matrix(0.8527949060634841,-0.5222459652234503,0.5222459652234503,0.8527949060634841,375.54606330289937,-56.90305761750744)" fill="#2c2891" filter="url(#bbburst-blur-2)"></use><use xlink:href="#bbburst-shape-10" width="29.161433175076137" opacity="0.08499750024865271" transform="matrix(1.2376116464578755,-1.237262063005177,1.237262063005177,1.2376116464578755,-317.47003039104953,-434.3706745499396)" fill="none" stroke="#2c2891" filter="url(#bbburst-blur-4)"></use><use xlink:href="#bbburst-shape-1" width="13.763762137593641" opacity="0.9884203416859161" transform="matrix(0.8041178498792171,-0.5944699180830136,0.5944699180830136,0.8041178498792171,152.46025018806773,85.50336123575653)" fill="#00a19d"></use><use xlink:href="#bbburst-shape-4" width="22.485936924331224" opacity="0.7515479424260081" transform="matrix(0.8382559714975896,-0.5452769262023034,0.5452769262023034,0.8382559714975896,262.7098250889645,4.831340488324145)" fill="#2c2891" filter="url(#bbburst-blur-1)"></use><use xlink:href="#bbburst-shape-8" width="36.679722786949775" opacity="0.18333690471235586" transform="matrix(0.9533755090222517,0.8084399413664336,-0.8084399413664336,0.9533755090222517,1054.8162407090372,119.1764735128744)" fill="none" stroke="#2c2891" filter="url(#bbburst-blur-3)"></use><use xlink:href="#bbburst-shape-4" width="22.742501423769166" opacity="0.6387408699840251" transform="matrix(0.9951736066454117,0.09812997827556795,-0.09812997827556795,0.9951736066454117,316.60579708890424,-117.63008834960914)" fill="#ffbd9b" filter="url(#bbburst-blur-1)"></use><use xlink:href="#bbburst-shape-4" width="16.478494419688378" opacity="0.701532730514833" transform="matrix(0.9967204026213444,0.0809224258061078,-0.0809224258061078,0.9967204026213444,305.16816336855976,-61.63976645067254)" fill="#2c2891" filter="url(#bbburst-blur-1)"></use><use xlink:href="#bbburst-shape-12" width="16.549528544911944" opacity="0.9311987002974936" transform="matrix(0.7286374844422292,-0.6848995665538855,0.6848995665538855,0.7286374844422292,150.72480916802965,117.92549097375797)" fill="none" stroke="#00a19d"></use><use xlink:href="#bbburst-shape-4" width="41.6677637074736" opacity="0.3045916577091001" transform="matrix(1.2445433163765673,-0.11667019183328409,0.11667019183328409,1.2445433163765673,74.56207238099176,89.04236692164113)" fill="#ffbd9b" filter="url(#bbburst-blur-3)"></use><use xlink:href="#bbburst-shape-6" width="25.466280668621444" opacity="0.4581164101647679" transform="matrix(0.9999879350148345,-0.004912211799898316,0.004912211799898316,0.9999879350148345,423.0862792384579,240.97015349740525)" fill="#2c2891" filter="url(#bbburst-blur-2)"></use><use xlink:href="#bbburst-shape-1" width="18.828417679847906" opacity="0.5656624019306786" transform="matrix(0.9476517299283395,-0.3193058075948912,0.3193058075948912,0.9476517299283395,68.46214890066352,9.315488154766513)" fill="#ffbd9b" filter="url(#bbburst-blur-1)"></use><use xlink:href="#bbburst-shape-10" width="45.42912503912002" opacity="0.31900965756697575" transform="matrix(1.054787127836996,0.6707638294879804,-0.6707638294879804,1.054787127836996,905.9683912770265,122.42014502235014)" fill="none" stroke="#00a19d" filter="url(#bbburst-blur-3)"></use><use xlink:href="#bbburst-shape-4" width="18.77422347503819" opacity="0.6844291603983379" transform="matrix(0.9758942706127051,-0.21824383745090348,0.21824383745090348,0.9758942706127051,411.5444746586387,103.91465923236171)" fill="#2c2891" filter="url(#bbburst-blur-1)"></use><use xlink:href="#bbburst-shape-8" width="13.402874345717953" opacity="0.9265810146838035" transform="matrix(0.8107885824192788,0.5853391107883843,-0.5853391107883843,0.8107885824192788,597.8564941108046,59.92603935604751)" fill="none" stroke="#ffbd9b"></use><use xlink:href="#bbburst-shape-6" width="20.037364120611315" opacity="0.5717455035589637" transform="matrix(0.7248303460526886,-0.6889274050588637,0.6889274050588637,0.7248303460526886,-62.372440194116905,46.939041980283434)" fill="#ffbd9b" filter="url(#bbburst-blur-1)"></use><use xlink:href="#bbburst-shape-4" width="26.20239515295873" opacity="0.33046875310459645" transform="matrix(1.2434466057751532,0.12783011611608075,-0.12783011611608075,1.2434466057751532,133.54966102314984,-98.52778177777952)" fill="#ffbd9b" filter="url(#bbburst-blur-3)"></use><use xlink:href="#bbburst-shape-10" width="31.909646244635887" opacity="0.22736126435894488" transform="matrix(1.197444104211164,0.35864692566634776,-0.35864692566634776,1.197444104211164,699.7310071302065,215.5157769242985)" fill="none" stroke="#2c2891" filter="url(#bbburst-blur-3)"></use><use xlink:href="#bbburst-shape-1" width="29.31110330523787" opacity="0.6238440148693849" transform="matrix(0.9894914520280583,-0.14459137720972423,0.14459137720972423,0.9894914520280583,486.48671182478995,-52.196215647789984)" fill="#2c2891" filter="url(#bbburst-blur-1)"></use><use xlink:href="#bbburst-shape-8" width="15.198421234256955" opacity="0.8364155603943629" transform="matrix(0.8669447316497498,0.4984042859614503,-0.4984042859614503,0.8669447316497498,651.8571668386196,93.34373144083372)" fill="none" stroke="#2c2891"></use><use xlink:href="#bbburst-shape-1" width="16.77806674085827" opacity="0.9250174570478872" transform="matrix(0.949861596736802,0.31267066866691057,-0.31267066866691057,0.949861596736802,519.0729798825656,-16.23111677182112)" fill="#ffbd9b"></use><use xlink:href="#bbburst-shape-12" width="16.55286654969376" opacity="0.8312159789704612" transform="matrix(0.80819653958548,-0.5889128572225739,0.5889128572225739,0.80819653958548,232.8595723522959,92.71148773013596)" fill="none" stroke="#2c2891"></use><use xlink:href="#bbburst-shape-12" width="29.111796414135704" opacity="0.1864182211782237" transform="matrix(0.9940449437557125,-0.7578750885163743,0.7578750885163743,0.9940449437557125,4.437972611666453,-344.36641962252645)" fill="none" stroke="#2c2891" filter="url(#bbburst-blur-3)"></use><use xlink:href="#bbburst-shape-8" width="37.121986344386755" opacity="0.1592823238574368" transform="matrix(1.249481160015954,-0.03601153655685066,0.03601153655685066,1.249481160015954,100.43705180447361,-372.07404714336604)" fill="none" stroke="#2c2891" filter="url(#bbburst-blur-3)"></use><use xlink:href="#bbburst-shape-1" width="33.62954117572528" opacity="0.2650532173505874" transform="matrix(1.1453913257483543,0.5005783763811891,-0.5005783763811891,1.1453913257483543,725.0230493650836,-364.21969965961307)" fill="#00a19d" filter="url(#bbburst-blur-3)"></use><use xlink:href="#bbburst-shape-1" width="23.676132903348027" opacity="0.6566256644357072" transform="matrix(0.7368996651531733,0.6760021327607931,-0.6760021327607931,0.7368996651531733,649.0697092045544,251.26500275822133)" fill="#2c2891" filter="url(#bbburst-blur-1)"></use><use xlink:href="#bbburst-shape-6" width="39.448343961947096" opacity="0.3219255461587447" transform="matrix(1.2494410562234568,-0.03737709222521875,0.03737709222521875,1.2494410562234568,116.66677250332485,-282.6091252002358)" fill="#2c2891" filter="url(#bbburst-blur-3)"></use><use xlink:href="#bbburst-shape-12" width="23.371095482313613" opacity="0.5755741608362236" transform="matrix(0.9982355615100142,0.05937814191086243,-0.05937814191086243,0.9982355615100142,337.2415159334161,175.68441743312627)" fill="none" stroke="#2c2891" filter="url(#bbburst-blur-1)"></use><use xlink:href="#bbburst-shape-8" width="15.602028980340844" opacity="0.7070487272535564" transform="matrix(0.8910340401689487,0.4539364925407521,-0.4539364925407521,0.8910340401689487,499.8356206684652,148.6057746327989)" fill="none" stroke="#2c2891" filter="url(#bbburst-blur-1)"></use><use xlink:href="#bbburst-shape-4" width="49.02833747591601" opacity="-0.08399426843702429" transform="matrix(1.3612481870242998,-1.0997742374337822,1.0997742374337822,1.3612481870242998,273.08605488185674,226.04877297572023)" fill="#2c2891" filter="url(#bbburst-blur-4)"></use><use xlink:href="#bbburst-shape-6" width="33.14391525934836" opacity="0.3710829422445081" transform="matrix(0.9411835940031107,-0.33789560870095314,0.33789560870095314,0.9411835940031107,-16.200577514266854,127.28461745102624)" fill="#ffbd9b" filter="url(#bbburst-blur-2)"></use><use xlink:href="#bbburst-shape-6" width="26.420107741629703" opacity="0.348873140935129" transform="matrix(0.9793444358647968,0.20219909975235534,-0.20219909975235534,0.9793444358647968,565.9573303846406,281.718638614444)" fill="#ffbd9b" filter="url(#bbburst-blur-2)"></use><use xlink:href="#bbburst-shape-12" width="16.251890154404375" opacity="0.8508916837772025" transform="matrix(0.7435504462222864,-0.6686798441127404,0.6686798441127404,0.7435504462222864,61.86254332240276,126.11878640147614)" fill="none" stroke="#ffbd9b"></use><use xlink:href="#bbburst-shape-10" width="15.192406436619207" opacity="0.7420059537770551" transform="matrix(0.8700154036131448,0.4930245404397805,-0.4930245404397805,0.8700154036131448,558.4572419163958,159.80752789027156)" fill="none" stroke="#2c2891" filter="url(#bbburst-blur-1)"></use><use xlink:href="#bbburst-shape-12" width="27.572993962438716" opacity="0.5017770606129379" transform="matrix(0.8589609054060917,0.5120411731335158,-0.5120411731335158,0.8589609054060917,562.2150082401308,271.39016782577494)" fill="none" stroke="#00a19d" filter="url(#bbburst-blur-2)"></use><use xlink:href="#bbburst-shape-6" width="15.314851514234242" opacity="0.7721402003883074" transform="matrix(0.9491557559461623,0.31480684705747614,-0.31480684705747614,0.9491557559461623,577.5326886516588,101.8747544131752)" fill="#ffbd9b" filter="url(#bbburst-blur-1)"></use><use xlink:href="#bbburst-shape-12" width="33.05261722590546" opacity="0.25935915072629423" transform="matrix(1.2009580392617019,-0.3466984106290202,0.3466984106290202,1.2009580392617019,568.9863147848184,-136.39159883665445)" fill="none" stroke="#2c2891" filter="url(#bbburst-blur-3)"></use><use xlink:href="#bbburst-shape-1" width="26.387358803758335" opacity="0.6784104982858825" transform="matrix(0.8968095334620729,-0.44241684042488616,0.44241684042488616,0.8968095334620729,218.32027524688698,-97.39700442858037)" fill="#00a19d" filter="url(#bbburst-blur-1)"></use><use xlink:href="#bbburst-shape-10" width="44.795457524700446" opacity="0.05848837034447041" transform="matrix(1.403738987419572,-1.0449961029584154,1.0449961029584154,1.403738987419572,297.4858556807535,-381.2937769056041)" fill="none" stroke="#ffbd9b" filter="url(#bbburst-blur-4)"></use><use xlink:href="#bbburst-shape-6" width="23.178608554198064" opacity="0.7272129374983058" transform="matrix(0.9747388276166334,0.22334775113385624,-0.22334775113385624,0.9747388276166334,428.4260809702015,-104.76372544159562)" fill="#00a19d" filter="url(#bbburst-blur-1)"></use><use xlink:href="#bbburst-shape-10" width="10.034631233657628" opacity="0.9236801906799169" transform="matrix(0.9980278314977806,0.06277298428334853,-0.06277298428334853,0.9980278314977806,424.6970160458144,34.50902085871326)" fill="none" stroke="#00a19d"></use><use xlink:href="#bbburst-shape-1" width="24.088771344447267" opacity="0.17094753769842774" transform="matrix(1.055343872105263,0.6698875365386868,-0.6698875365386868,1.055343872105263,734.822155678519,-394.6562875017155)" fill="#2c2891" filter="url(#bbburst-blur-3)"></use><use xlink:href="#bbburst-shape-11" width="32.820800980901424" opacity="0.40723048037983567" transform="matrix(0.9997358958536614,-0.02298126501472388,0.02298126501472388,0.9997358958536614,306.64448628696823,-257.9398522068846)" fill="none" stroke="#ffbd9b" filter="url(#bbburst-blur-2)"></use><use xlink:href="#bbburst-shape-10" width="33.36352939225525" opacity="0.3285508667892658" transform="matrix(1.2306537901678003,0.21906905017739886,-0.21906905017739886,1.2306537901678003,467.1620225218608,206.23613235429048)" fill="none" stroke="#ffbd9b" filter="url(#bbburst-blur-3)"></use><use xlink:href="#bbburst-shape-10" width="19.066869997695086" opacity="0.8554930858287157" transform="matrix(0.9811746177401321,0.19312267992782622,-0.19312267992782622,0.9811746177401321,501.81338420950385,-49.79254416774273)" fill="none" stroke="#2c2891"></use><use xlink:href="#bbburst-shape-8" width="34.318839258510565" opacity="0.1394492484979446" transform="matrix(1.2111235492621968,0.30932143220691777,-0.30932143220691777,1.2111235492621968,864.3770411409681,-228.7852185686492)" fill="none" stroke="#2c2891" filter="url(#bbburst-blur-3)"></use><use xlink:href="#bbburst-shape-12" width="34.867985018012114" opacity="0.36434402627291596" transform="matrix(0.8713883132861581,-0.4905939333790261,0.4905939333790261,0.8713883132861581,472.85688959363813,91.33591968614456)" fill="none" stroke="#ffbd9b" filter="url(#bbburst-blur-2)"></use><use xlink:href="#bbburst-shape-4" width="46.22631365716685" opacity="0.16025860282842974" transform="matrix(0.9948693938093225,0.7567925007962694,-0.7567925007962694,0.9948693938093225,951.5340541619646,247.08479667329925)" fill="#00a19d" filter="url(#bbburst-blur-3)"></use><use xlink:href="#bbburst-shape-4" width="27.5201142703841" opacity="0.4651959919803662" transform="matrix(0.8878030568678045,-0.46022356764531513,0.46022356764531513,0.8878030568678045,-36.29610384676286,69.04324980941595)" fill="#2c2891" filter="url(#bbburst-blur-2)"></use><use xlink:href="#bbburst-shape-4" width="33.85912605887503" opacity="0.3909014140339745" transform="matrix(0.8320037620501815,-0.554769988314387,0.554769988314387,0.8320037620501815,-96.88037160696112,-7.388967296181477)" fill="#ffbd9b" filter="url(#bbburst-blur-2)"></use><use xlink:href="#bbburst-shape-1" width="33.41093348834779" opacity="0.0878676580493899" transform="matrix(1.7459039114304675,0.11966424717430847,-0.11966424717430847,1.7459039114304675,61.156617136465485,-98.6824718713375)" fill="#ffbd9b" filter="url(#bbburst-blur-4)"></use><use xlink:href="#bbburst-shape-6" width="15.080273486829983" opacity="0.9008247331593002" transform="matrix(0.982175863290867,0.18796428801461196,-0.18796428801461196,0.982175863290867,434.6581668478613,35.62384190865697)" fill="#00a19d"></use><use xlink:href="#bbburst-shape-6" width="24.72497294373033" opacity="0.7393395887618636" transform="matrix(0.9682587302656699,0.24995005754012667,-0.24995005754012667,0.9682587302656699,540.3294879041323,-95.37554506294424)" fill="#00a19d" filter="url(#bbburst-blur-1)"></use><use xlink:href="#bbburst-shape-4" width="20.96359530402342" opacity="0.6661447690510253" transform="matrix(0.961158669206176,0.27599639963197464,-0.27599639963197464,0.961158669206176,352.89557217757374,41.59218506772646)" fill="#2c2891" filter="url(#bbburst-blur-1)"></use><use xlink:href="#bbburst-shape-10" width="23.319815868999363" opacity="0.7516685361437864" transform="matrix(0.9906049023601192,-0.13675499047602865,0.13675499047602865,0.9906049023601192,353.15763954996936,115.40315321491812)" fill="none" stroke="#00a19d" filter="url(#bbburst-blur-1)"></use><use xlink:href="#bbburst-shape-6" width="46.97941963140687" opacity="0.18056170912424152" transform="matrix(0.8897184712965028,0.8780097048631148,-0.8780097048631148,0.8897184712965028,383.94337727866537,-103.03659204503037)" fill="#00a19d" filter="url(#bbburst-blur-3)"></use><use xlink:href="#bbburst-shape-1" width="29.56911653069087" opacity="0.4233698530173625" transform="matrix(0.999339053007276,-0.03635185187195748,0.03635185187195748,0.999339053007276,449.25679542043986,-246.462202593968)" fill="#00a19d" filter="url(#bbburst-blur-2)"></use><use xlink:href="#bbburst-shape-8" width="31.343632960118452" opacity="0.5080422672105303" transform="matrix(0.9805793590564393,0.19612271819568136,-0.19612271819568136,0.9805793590564393,569.7053397797861,198.70735546314808)" fill="none" stroke="#2c2891" filter="url(#bbburst-blur-2)"></use><use xlink:href="#bbburst-shape-6" width="30.643251053175945" opacity="0.04828363687256498" transform="matrix(1.464747975041311,0.9576081503477185,-0.9576081503477185,1.464747975041311,990.559682382283,160.7268796174451)" fill="#ffbd9b" filter="url(#bbburst-blur-4)"></use><use xlink:href="#bbburst-shape-4" width="13.68831243218248" opacity="0.8532500080848642" transform="matrix(0.9520505065280849,0.3059408979192175,-0.3059408979192175,0.9520505065280849,576.7195893110843,-8.527308654939247)" fill="#2c2891"></use><use xlink:href="#bbburst-shape-12" width="29.31473482699016" opacity="0.6101054925478475" transform="matrix(0.9961560234001774,-0.08759667255977971,0.08759667255977971,0.9961560234001774,511.5319766778364,72.09234748584788)" fill="none" stroke="#2c2891" filter="url(#bbburst-blur-1)"></use><use xlink:href="#bbburst-shape-4" width="41.38146273013485" opacity="0.2588230171790804" transform="matrix(0.9521291490339192,-0.8099074537006957,0.8099074537006957,0.9521291490339192,-134.25342189683053,309.6310446897311)" fill="#00a19d" filter="url(#bbburst-blur-3)"></use><use xlink:href="#bbburst-shape-11" width="24.492277704394184" opacity="0.5540436367637183" transform="matrix(0.837930537729632,0.5457768902584003,-0.5457768902584003,0.837930537729632,419.0094851940512,124.7480647421421)" fill="none" stroke="#00a19d" filter="url(#bbburst-blur-2)"></use><use xlink:href="#bbburst-shape-12" width="35.19309490625384" opacity="0.22061872147206862" transform="matrix(1.1564837866271618,0.4743893456523889,-0.4743893456523889,1.1564837866271618,811.1849973767953,-325.10731881697626)" fill="none" stroke="#00a19d" filter="url(#bbburst-blur-3)"></use><use xlink:href="#bbburst-shape-6" width="15.505279116028186" opacity="0.7791766821380776" transform="matrix(0.9571080192841279,-0.2897313228182508,0.2897313228182508,0.9571080192841279,202.67868709196927,-46.908273205227715)" fill="#2c2891"></use><use xlink:href="#bbburst-shape-6" width="17.410035411564095" opacity="0.8527828352626106" transform="matrix(0.991237509295619,0.13209163548619418,-0.13209163548619418,0.991237509295619,463.4420085318411,65.74940744987828)" fill="#2c2891"></use><use xlink:href="#bbburst-shape-10" width="27.411312340960762" opacity="0.5925672301023074" transform="matrix(0.7283994662804303,-0.6851526965008489,0.6851526965008489,0.7283994662804303,-4.7388869533027105,256.045549242802)" fill="none" stroke="#00a19d" filter="url(#bbburst-blur-1)"></use></svg>