<svg id="Layer_1" enable-background="new 0 0 500 500" viewBox="0 0 500 500" xmlns="http://www.w3.org/2000/svg"><g clip-rule="evenodd" fill-rule="evenodd"><path d="m180.87 86.217h182.502c13.409 0 24.38 10.971 24.38 24.38v269.868c0 13.409-10.971 24.38-24.38 24.38h-182.502c-13.409 0-24.38-10.971-24.38-24.38v-269.868c0-13.409 10.971-24.38 24.38-24.38z" fill="#b3b3b3"/><path d="m195.315 129.936h153.612c7.271 0 13.221 5.949 13.221 13.221v223.34c0 7.272-5.949 13.221-13.221 13.221h-153.612c-7.272 0-13.221-5.949-13.221-13.221v-223.34c0-7.272 5.949-13.221 13.221-13.221z" fill="#fff"/><path d="m81.271 68.809h128.092c10.201 0 18.548 8.347 18.548 18.548v104.494c0 10.202-8.346 18.548-18.548 18.548h-128.092c-10.202 0-18.548-8.346-18.548-18.548v-104.493c0-10.202 8.347-18.549 18.548-18.549z" fill="#19cfba"/><path d="m81.271 68.809h128.092c10.201 0 18.548 8.346 18.548 18.548v16.85h-165.188v-16.85c0-10.201 8.347-18.548 18.548-18.548z" fill="#ffbf31"/><g fill="#f0b16e"><path d="m141.799 317.479v133.615c0 5.663 4.618 10.281 10.281 10.281h41.108c5.662 0 10.281-4.619 10.281-10.281v-15.414c23.982 1.232 37.003-9.798 41.113-30.835h-46.252c11.459-26.684 6.718-54.075-15.417-82.226l5.139-20.557h4.108c17.551 0 31.866-14.315 31.866-31.866v-5.133c0-2.266-1.848-4.114-4.114-4.114h-41.174c-3.863 0-7.176 1.967-9.026 5.358z"/><path d="m329.368 209.293c8.48 0 15.418 6.938 15.418 15.418v71.948c0-8.48 6.938-15.418 15.418-15.418s15.418 6.937 15.418 15.418v10.278c0-8.48 6.938-15.418 15.417-15.418s15.418 6.938 15.418 15.418v8.566l.095.01c.854-7.686 7.418-13.715 15.323-13.715 8.48 0 15.418 6.938 15.418 15.418v46.252l-3.883 46.588c-.72 8.64-7.779 15.082-16.674 15.082v36.238h-77.087v-36.238h-2.764c-8.147 0-15.152-3.749-19.672-10.528l-34.095-51.142v-51.389c0-2.832 2.31-5.142 5.142-5.142h10.276c8.063 0 14.731 6.272 15.367 14.179l.05-.046v-96.359c-.003-8.48 6.935-15.418 15.415-15.418z"/><path d="m103.699 38.375h24.971v45.781h-24.971z"/><path d="m161.965 38.375h24.971v45.781h-24.971z"/></g><path d="m263.792 115.865h16.647c3.647 0 6.608-2.963 6.608-6.609 0-3.658-2.96-6.61-6.608-6.61h-16.647c-3.648 0-6.613 2.952-6.613 6.61 0 3.646 2.965 6.609 6.613 6.609zm166.879 201.481c0-4.865-3.949-8.813-8.812-8.813-4.415 0-8.267 3.445-8.75 7.834-.408 3.713-3.71 6.191-7.375 5.833-3.358-.362-5.897-3.198-5.897-6.574v-8.565c0-4.856-3.949-8.804-8.812-8.804-4.852 0-8.801 3.948-8.801 8.804 0 3.646-2.96 6.609-6.614 6.609-3.647 0-6.608-2.963-6.608-6.609v-10.276c0-4.855-3.954-8.813-8.812-8.813s-8.807 3.957-8.807 8.813c0 3.649-2.96 6.609-6.608 6.609s-6.608-2.961-6.608-6.609v-71.947c0-4.863-3.96-8.811-8.812-8.811-4.858 0-8.806 3.948-8.806 8.811v132.7c.003 3.65-2.959 6.619-6.608 6.619-3.648 0-6.613-2.952-6.613-6.601l-.051-35.947c-.437-4.467-4.255-7.939-8.755-7.939h-8.806v47.923l32.982 49.472c3.307 4.963 8.21 7.588 14.176 7.588h2.767c3.648 0 6.608 2.961 6.608 6.609v29.629h63.867v-29.629c0-3.713 2.904-6.609 6.886-6.609 5.164 0 9.38-3.877 9.812-9.024l3.858-46.309v-45.974zm-132.329 81.011h-90.593c1.182-3.957 2.04-7.93 2.568-11.905h80.088zm-62.481 13.219h-37.538c-4.722 0-7.938-4.881-6.074-9.217 10.653-24.824 5.903-49.525-14.539-75.532-1.273-1.604-1.716-3.702-1.216-5.684l5.136-20.56c.733-2.943 3.375-5.005 6.409-5.005h4.114c13.926 0 25.255-11.334 25.255-25.256v-2.636h-38.675c-1.454 0-2.54.643-3.227 1.913l-27.107 49.694v131.924c0 2.026 1.648 3.675 3.676 3.675h41.101c2.028 0 3.676-1.649 3.676-3.675v-15.413c0-3.766 3.169-6.81 6.943-6.6 16.709.87 27.072-4.778 32.066-17.628zm-72.769-146.825.807-1.49c2.477-4.529 6.676-7.561 11.573-8.487v-37.638h-12.38zm-81.826-60.833h128.091c6.579 0 11.937-5.357 11.937-11.94v-81.04h-151.971v81.04c0 6.583 5.358 11.94 11.943 11.94zm-11.943-116.439v10.24h151.971v-10.24c0-6.583-5.358-11.931-11.937-11.931h-15.823v8.731c0 3.649-2.96 6.609-6.608 6.609h-24.976c-3.648 0-6.608-2.961-6.608-6.609v-8.731h-20.073v8.731c0 3.649-2.96 6.609-6.608 6.609h-24.965c-3.659 0-6.614-2.961-6.614-6.609v-8.731h-15.816c-6.585 0-11.943 5.348-11.943 11.931zm40.981-9.81v-32.56h11.744v32.56zm58.259 0v-32.56h11.755v32.56zm182.822 147.169c0-12.151-9.875-22.03-22.028-22.03-12.147 0-22.027 9.879-22.027 22.03v77.471c-2.71-1.19-5.693-1.857-8.807-1.857h-10.278c-6.477 0-11.75 5.268-11.75 11.756v51.385c0 1.305.392 2.581 1.114 3.666l3.983 5.975h-70.719c-.841-17.273-7.767-34.66-20.783-51.986l3.113-12.468c20.732-.564 37.425-17.6 37.425-38.458v-5.138c0-5.905-4.812-10.717-10.727-10.717h-31.209v-37.33h20.664c13.869 0 25.158-11.288 25.158-25.159v-55.309h114.404c3.648 0 6.608 2.971 6.608 6.61v131.977c-1.437.309-2.818.759-4.142 1.34v-51.758zm11.977-131.886c9.801 0 17.766 7.974 17.766 17.775v176.673c-.273.133-.545.273-.812.424-2.278-5.087-6.432-9.148-11.568-11.326v-133.219c0-10.935-8.892-19.828-19.829-19.828h-114.404v-30.499zm80.531 224.394v46.247c0 .185-.011.371-.028.546l-3.875 46.591c-.83 9.863-7.596 17.748-16.658 20.278v30.492c0 3.649-2.96 6.609-6.608 6.609h-77.082c-3.659 0-6.613-2.96-6.613-6.609v-29.857c-8.704-1.076-16.335-5.764-21.323-13.245l-4.545-6.822h-57.378c-5.528 19.353-19.107 29.901-39.709 30.862v8.778c0 9.315-7.579 16.894-16.897 16.894h-41.101c-9.318 0-16.897-7.579-16.897-16.894v-133.615c0-1.103.273-2.186.813-3.165l13.88-25.452v-71.848h-68.606c-13.869 0-25.158-11.288-25.158-25.159v-104.498c0-13.871 11.289-25.15 25.158-25.15h15.817v-23.829c0-3.651 2.954-6.609 6.614-6.609h24.965c3.647 0 6.608 2.958 6.608 6.609v23.829h20.073v-23.829c0-3.651 2.96-6.609 6.608-6.609h24.976c3.648 0 6.608 2.958 6.608 6.609v23.829h15.823c11.165 0 20.653 7.313 23.925 17.404h130.08c17.09 0 30.987 13.905 30.987 30.994v174.558c7.505 1.145 13.789 6.09 16.795 12.803 14.533-8.089 32.748 2.372 32.748 19.258zm-263.876-181.6-40.072 51.483c-2.49 3.207-7.264 3.434-10.045.448l-18.92-20.278c-2.494-2.67-2.352-6.847.318-9.339 2.67-2.486 6.858-2.345 9.341.327l13.636 14.61 35.317-45.368c2.244-2.881 6.392-3.4 9.272-1.163 2.88 2.247 3.403 6.397 1.153 9.28z" fill="#1e2f3f"/></g></svg>