<svg fill="none" height="300" viewBox="0 0 12 12" width="300" xmlns="http://www.w3.org/2000/svg" version="1.1" xmlns:xlink="http://www.w3.org/1999/xlink" xmlns:svgjs="http://svgjs.dev/svgjs"><g width="100%" height="100%" transform="matrix(1,0,0,1,0,0)"><g fill="rgb(0,0,0)"><path d="m5 4v6h-1v-6z" fill="#e63811" fill-opacity="1" data-original-color="#000000ff" stroke="none" stroke-opacity="1"/><path d="m7 4v6h-1v-6z" fill="#e63811" fill-opacity="1" data-original-color="#000000ff" stroke="none" stroke-opacity="1"/><path clip-rule="evenodd" d="m4 0c-.55228 0-1 .447715-1 1v1h-3v1h1v7c0 1.1046.89543 2 2 2h5.25c.9665 0 1.75-.7835 1.75-1.75v-7.25h1v-1h-3v-1c0-.552285-.44772-1-1-1zm5 3h-7v7c0 .5523.44772 1 1 1h5.25c.41421 0 .75-.3358.75-.75zm-2-1h-3v-.5c0-.27614.22386-.5.5-.5h2c.27614 0 .5.22386.5.5z" fill-rule="evenodd" fill="#e63811" fill-opacity="1" data-original-color="#000000ff" stroke="none" stroke-opacity="1"/></g></g></svg>