<svg xmlns="http://www.w3.org/2000/svg" xmlns:xlink="http://www.w3.org/1999/xlink" width="100" zoomAndPan="magnify" viewBox="0 0 75 74.999997" height="100" preserveAspectRatio="xMidYMid meet" version="1.0"><defs><clipPath id="1f2c3a4cbb"><path d="M 26.25 2.699219 L 48.75 2.699219 L 48.75 25.199219 L 26.25 25.199219 Z M 26.25 2.699219 " clip-rule="nonzero"/></clipPath><clipPath id="f0ad23f69b"><path d="M 26.25 26.25 L 48.75 26.25 L 48.75 48.75 L 26.25 48.75 Z M 26.25 26.25 " clip-rule="nonzero"/></clipPath><clipPath id="781a54cd78"><path d="M 29.25 26.25 L 45.75 26.25 C 46.546875 26.25 47.308594 26.566406 47.871094 27.128906 C 48.433594 27.691406 48.75 28.453125 48.75 29.25 L 48.75 45.75 C 48.75 46.546875 48.433594 47.308594 47.871094 47.871094 C 47.308594 48.433594 46.546875 48.75 45.75 48.75 L 29.25 48.75 C 28.453125 48.75 27.691406 48.433594 27.128906 47.871094 C 26.566406 47.308594 26.25 46.546875 26.25 45.75 L 26.25 29.25 C 26.25 28.453125 26.566406 27.691406 27.128906 27.128906 C 27.691406 26.566406 28.453125 26.25 29.25 26.25 Z M 29.25 26.25 " clip-rule="nonzero"/></clipPath><clipPath id="ed3ae5bdf4"><path d="M 26.25 49.5 L 48.75 49.5 L 48.75 72 L 26.25 72 Z M 26.25 49.5 " clip-rule="nonzero"/></clipPath><clipPath id="bb3c25ab68"><path d="M 28.273438 62.25 L 36 62.25 L 36 69.976562 L 28.273438 69.976562 Z M 28.273438 62.25 " clip-rule="nonzero"/></clipPath><clipPath id="1a200854a1"><path d="M 32.136719 62.25 C 30.003906 62.25 28.273438 63.980469 28.273438 66.113281 C 28.273438 68.246094 30.003906 69.976562 32.136719 69.976562 C 34.269531 69.976562 36 68.246094 36 66.113281 C 36 63.980469 34.269531 62.25 32.136719 62.25 Z M 32.136719 62.25 " clip-rule="nonzero"/></clipPath><clipPath id="e975a8694c"><path d="M 39.039062 62.25 L 46.761719 62.25 L 46.761719 69.976562 L 39.039062 69.976562 Z M 39.039062 62.25 " clip-rule="nonzero"/></clipPath><clipPath id="5617579e07"><path d="M 42.898438 62.25 C 40.765625 62.25 39.039062 63.980469 39.039062 66.113281 C 39.039062 68.246094 40.765625 69.976562 42.898438 69.976562 C 45.03125 69.976562 46.761719 68.246094 46.761719 66.113281 C 46.761719 63.980469 45.03125 62.25 42.898438 62.25 Z M 42.898438 62.25 " clip-rule="nonzero"/></clipPath><clipPath id="d61cdca647"><path d="M 28.257812 51.636719 L 35.980469 51.636719 L 35.980469 59.363281 L 28.257812 59.363281 Z M 28.257812 51.636719 " clip-rule="nonzero"/></clipPath><clipPath id="57aa947de4"><path d="M 32.117188 51.636719 C 29.984375 51.636719 28.257812 53.367188 28.257812 55.5 C 28.257812 57.632812 29.984375 59.363281 32.117188 59.363281 C 34.253906 59.363281 35.980469 57.632812 35.980469 55.5 C 35.980469 53.367188 34.253906 51.636719 32.117188 51.636719 Z M 32.117188 51.636719 " clip-rule="nonzero"/></clipPath><clipPath id="590245d99a"><path d="M 39.019531 51.636719 L 46.742188 51.636719 L 46.742188 59.363281 L 39.019531 59.363281 Z M 39.019531 51.636719 " clip-rule="nonzero"/></clipPath><clipPath id="967f6f09f8"><path d="M 42.882812 51.636719 C 40.746094 51.636719 39.019531 53.367188 39.019531 55.5 C 39.019531 57.632812 40.746094 59.363281 42.882812 59.363281 C 45.015625 59.363281 46.742188 57.632812 46.742188 55.5 C 46.742188 53.367188 45.015625 51.636719 42.882812 51.636719 Z M 42.882812 51.636719 " clip-rule="nonzero"/></clipPath><clipPath id="7ec8578786"><path d="M 40.21875 34.820312 L 45.46875 34.820312 L 45.46875 40.070312 L 40.21875 40.070312 Z M 40.21875 34.820312 " clip-rule="nonzero"/></clipPath><clipPath id="c57ef25177"><path d="M 42.84375 34.820312 C 41.394531 34.820312 40.21875 35.992188 40.21875 37.445312 C 40.21875 38.894531 41.394531 40.070312 42.84375 40.070312 C 44.292969 40.070312 45.46875 38.894531 45.46875 37.445312 C 45.46875 35.992188 44.292969 34.820312 42.84375 34.820312 Z M 42.84375 34.820312 " clip-rule="nonzero"/></clipPath></defs><g clip-path="url(#1f2c3a4cbb)"><path stroke-linecap="butt" transform="matrix(0.75, 0, 0, 0.75, 26.249999, 2.699818)" fill="none" stroke-linejoin="miter" d="M 0.000000858333 -0.000799271 L 30.000001 -0.000799271 L 30.000001 29.999201 L 0.000000858333 29.999201 Z M 0.000000858333 -0.000799271 " stroke="#000000" stroke-width="4" stroke-opacity="1" stroke-miterlimit="4"/></g><g clip-path="url(#f0ad23f69b)"><g clip-path="url(#781a54cd78)"><path stroke-linecap="butt" transform="matrix(0.75, 0, 0, 0.75, 26.249999, 26.249997)" fill="none" stroke-linejoin="miter" d="M 4.000001 0.00000419167 L 26.000001 0.00000419167 C 27.062501 0.00000419167 28.078126 0.421879 28.828126 1.171879 C 29.578126 1.921879 30.000001 2.937504 30.000001 4.000004 L 30.000001 26.000005 C 30.000001 27.062505 29.578126 28.07813 28.828126 28.82813 C 28.078126 29.57813 27.062501 30.000005 26.000001 30.000005 L 4.000001 30.000005 C 2.937501 30.000005 1.921876 29.57813 1.171876 28.82813 C 0.421876 28.07813 0.000000858333 27.062505 0.000000858333 26.000005 L 0.000000858333 4.000004 C 0.000000858333 2.937504 0.421876 1.921879 1.171876 1.171879 C 1.921876 0.421879 2.937501 0.00000419167 4.000001 0.00000419167 Z M 4.000001 0.00000419167 " stroke="#000000" stroke-width="4" stroke-opacity="1" stroke-miterlimit="4"/></g></g><g clip-path="url(#ed3ae5bdf4)"><path stroke-linecap="butt" transform="matrix(0.75, 0, 0, 0.75, 26.249999, 49.499995)" fill="none" stroke-linejoin="miter" d="M 0.000000858333 0.00000672333 L 30.000001 0.00000672333 L 30.000001 30.000007 L 0.000000858333 30.000007 Z M 0.000000858333 0.00000672333 " stroke="#000000" stroke-width="4" stroke-opacity="1" stroke-miterlimit="4"/></g><g clip-path="url(#bb3c25ab68)"><g clip-path="url(#1a200854a1)"><path fill="#000000" d="M 28.273438 62.25 L 36 62.25 L 36 69.976562 L 28.273438 69.976562 Z M 28.273438 62.25 " fill-opacity="1" fill-rule="nonzero"/></g></g><g clip-path="url(#e975a8694c)"><g clip-path="url(#5617579e07)"><path fill="#000000" d="M 39.039062 62.25 L 46.761719 62.25 L 46.761719 69.976562 L 39.039062 69.976562 Z M 39.039062 62.25 " fill-opacity="1" fill-rule="nonzero"/></g></g><g clip-path="url(#d61cdca647)"><g clip-path="url(#57aa947de4)"><path fill="#000000" d="M 28.257812 51.636719 L 35.980469 51.636719 L 35.980469 59.363281 L 28.257812 59.363281 Z M 28.257812 51.636719 " fill-opacity="1" fill-rule="nonzero"/></g></g><g clip-path="url(#590245d99a)"><g clip-path="url(#967f6f09f8)"><path fill="#000000" d="M 39.019531 51.636719 L 46.742188 51.636719 L 46.742188 59.363281 L 39.019531 59.363281 Z M 39.019531 51.636719 " fill-opacity="1" fill-rule="nonzero"/></g></g><g clip-path="url(#7ec8578786)"><g clip-path="url(#c57ef25177)"><path stroke-linecap="butt" transform="matrix(0.73523, 0, 0, 0.73523, 40.218781, 34.818882)" fill="none" stroke-linejoin="miter" d="M 3.570271 0.00194598 C 1.59916 0.00194598 -0.0000422935 1.595836 -0.0000422935 3.572259 C -0.0000422935 5.543369 1.59916 7.142572 3.570271 7.142572 C 5.541381 7.142572 7.140583 5.543369 7.140583 3.572259 C 7.140583 1.595836 5.541381 0.00194598 3.570271 0.00194598 Z M 3.570271 0.00194598 " stroke="#000000" stroke-width="4" stroke-opacity="1" stroke-miterlimit="4"/></g></g><path stroke-linecap="round" transform="matrix(0.75, 0, 0, 0.75, 27.243859, 36.749996)" fill="none" stroke-linejoin="miter" d="M 0.997771 1.000005 L 11.997772 1.000005 " stroke="#000000" stroke-width="2" stroke-opacity="1" stroke-miterlimit="4"/></svg>