<svg id="Layer_1" enable-background="new 0 0 512 512" viewBox="0 0 512 512" xmlns="http://www.w3.org/2000/svg"><g><path d="m350.5 112.2c-11-8.9-23-16.7-35.8-23-16.7-2.7-34-3.3-50.9-1.4-94.1 9.8-167.5 94.7-161.5 191.5l.1.1c2.7 48.6 24.9 93.5 60.9 125.6l.1-.1c10 9 21.1 16.7 32.9 23.4 28.6 15.6 61.2 23.5 93.8 22.5-37.8-84.1 45.5-171.8 130.9-139.6 2.2-10.1 3.7-20.4 4.2-30.8l.1-.1c4.1-66.3-26.2-129.4-74.8-168.1z" fill="#84af5a"/><path d="m314.7 89.1c-40.3-6.9-84.4.6-119.4 20.7-26.7 4.9-51 16.2-71.8 32.9-107.9 86.6-62.8 260.3 72.8 285.6 28.6 15.6 61.2 23.5 93.8 22.5 1 2.3 2.1 4.5 3.3 6.6-53.6 20-115.6 14.9-165.6-12.8-13.1-7.3-25.3-15.9-36.3-25.7l-.1.1c-39.5-35.5-64.1-84.9-67.1-138.5l-.1-.1c-9-154.8 154.3-259.9 290.5-191.3z" fill="#648940"/><path d="m163.4 404.9c9.7 8.8 20.4 16.3 31.9 22.8-175.5-36-175.5-282 0-317.9-59.2 33-97.1 98.3-92.9 169.5l.1.1c2.6 48.6 24.9 93.4 60.9 125.5z" fill="#d1d3d4"/><path d="m386.4 268.8c0 12.3-1.4 24.3-4.1 35.8-59.5.3-108.4 55.3-100.8 115.4-26.8 10.2-58 13-86.3 7.6-11.5-6.5-22.2-14.1-31.9-22.8l-.1.1c-36-32.1-58.2-77-60.9-125.6l-.1-.1c-3.5-60.2 23.8-117.4 68-152.5 11-8.1 21.9-18.5 36.4-18.6 93.4-11.6 180.8 64.5 179.8 160.7z" fill="#f1f2f2"/><path d="m425.6 496.8c5 0 9.9-.4 14.6-1.2-66.8 44.3-160.5-6.5-159.3-87.3-.4-81.9 91.9-131.1 159.4-87.3-52.5-9.6-104 32.8-103.3 87.3 0 48.8 39.6 88.5 88.6 88.5z" fill="#f79218"/><path d="m488.1 408.2c0 36.7-19.1 69-47.9 87.3-4.7.8-9.7 1.2-14.6 1.2-91-.9-121.7-120-44.3-165.3 17.2-10.1 39-14.1 59-10.6 29 18.8 47.8 50.7 47.8 87.4z" fill="#ffba55"/><g><path d="m368.3 458.5c-4.4.2-9.7-2.4-12-5-.5-.5-19.9-19.9-29.2-29.2-3.5-3.6-4.4-4.3-5.4-5.5-14.7-16.9 9.2-38.4 24.4-23.4.5.5 22.2 22.2 22.2 22.2l54.6-54.6c16.2-15.4 39.4 7.8 23.9 23.9 0 0-66.6 66.6-66.6 66.6-3.1 3.2-7.4 5-11.9 5z" fill="#f1f2f2"/></g><path d="m280.9 16.3c0 8.9-7.3 16.2-16.2 16.2h-79.9c-14.2.4-21.6-18-11.5-27.6 2.9-3 7-4.7 11.5-4.7h79.9c8.9-.1 16.2 7.1 16.2 16.1z" fill="#648940"/><path d="m247.3 32.4v36.8c-14.7-1.7-30.4-1.7-45.1 0v-36.8z" fill="#58595b"/><g fill="#58595b"><path d="m131 354.5-6.5 6.5c-5.2 5.2 2.7 13.2 8 8 0 0 6.5-6.5 6.5-6.5 5.2-5.3-2.7-13.2-8-8z"/><path d="m317 168.5-6.5 6.5c-5.2 5.2 2.7 13.2 8 8 0 0 6.5-6.5 6.5-6.5 5.2-5.3-2.7-13.2-8-8z"/><path d="m97.9 263.1h-9.3c-3.1 0-5.6 2.5-5.6 5.6s2.5 5.6 5.6 5.6h9.3c7.3.1 7.3-11.2 0-11.2z"/><path d="m360.9 263.1h-9.3c-3.1 0-5.6 2.5-5.6 5.6s2.5 5.6 5.6 5.6h9.3c7.4.1 7.4-11.2 0-11.2z"/><path d="m132.5 168.5c-5.2-5.2-13.2 2.7-8 8 0 0 6.5 6.5 6.5 6.5 5.2 5.2 13.2-2.7 8-8 0 0-6.5-6.5-6.5-6.5z"/><path d="m224.7 126.9c-3.1 0-5.6 2.5-5.6 5.6v9.3c0 3.1 2.5 5.6 5.6 5.6s5.6-2.5 5.6-5.6v-9.3c.1-3-2.4-5.6-5.6-5.6z"/><path d="m224.7 390c-3.1 0-5.6 2.5-5.6 5.6v9.3c0 3.1 2.5 5.6 5.6 5.6s5.6-2.5 5.6-5.6v-9.3c.1-3.1-2.4-5.6-5.6-5.6z"/><path d="m218.9 274.8c-2.3-2.1-5.8-2.1-8 .2l-48.8 51.3c-2.2 2.3-2.1 5.8.2 8 2.3 2.1 5.8 2.1 8-.2l48.8-51.3c2.2-2.2 2.1-5.8-.2-8z"/><path d="m224.7 260.3c3.1 0 5.6-2.5 5.6-5.6v-82.1c0-3.1-2.5-5.6-5.6-5.6s-5.6 2.5-5.6 5.6v82.1c-.1 3 2.5 5.6 5.6 5.6z"/></g><path d="m233.6 257.8c-8.7-7.4-23.2-.6-22.9 11 0 7.8 6.3 14.1 14.1 14.1 13.1.2 19-17.3 8.8-25.1z" fill="#76a34e"/></g></svg>