<?xml version="1.0"?>
<svg xmlns="http://www.w3.org/2000/svg" id="Layer_1" data-name="Layer 1" viewBox="0 0 64 64"><path d="M62,18.753V5.949A3.953,3.953,0,0,0,58.052,2H5.95A3.953,3.953,0,0,0,2,5.949V18.743c0,.008,0,.014,0,.022s0,.014,0,.021V58.051A3.953,3.953,0,0,0,5.95,62h52.1A3.953,3.953,0,0,0,62,58.051V18.777l0-.012ZM5.95,4h52.1A1.952,1.952,0,0,1,60,5.949V17.765H4V5.949A1.951,1.951,0,0,1,5.95,4Zm52.1,56H5.95A1.951,1.951,0,0,1,4,58.051V19.765H60V58.051A1.952,1.952,0,0,1,58.052,60Z"/><path d="M55.032,25.226H8.968a1,1,0,0,0-1,1V54.355a1,1,0,0,0,1,1H55.032a1,1,0,0,0,1-1V26.226A1,1,0,0,0,55.032,25.226ZM9.968,33.957H54.032V48.165H9.968Zm34.451-2V27.226h3.71v4.731Zm-2,0h-3.71V27.226h3.71Zm-5.71,0H33V27.226h3.709Zm-5.709,0H27.291V27.226H31Zm-5.709,0h-3.71V27.226h3.71Zm-5.71,0h-3.71V27.226h3.71Zm34.451,0h-3.9V27.226h3.9ZM13.871,27.226v4.731h-3.9V27.226Zm-3.9,26.129v-3.19H54.032v3.19Z"/><path d="M11.145,16.125a5.2,5.2,0,1,0-5.2-5.2A5.2,5.2,0,0,0,11.145,16.125Zm0-8.4a3.192,3.192,0,0,1,3.022,2.2H11.145a1,1,0,0,0,0,2h3.022a3.191,3.191,0,1,1-3.022-4.2Z"/><path d="M23.671,16.125a5.2,5.2,0,1,0-5.2-5.2A5.2,5.2,0,0,0,23.671,16.125Zm-1-8.22v3.022a1,1,0,0,0,2,0V7.905a3.2,3.2,0,1,1-2,0Z"/><path d="M42.05,9.51a.955.955,0,0,0,.33.22,1.066,1.066,0,0,0,.76,0,1.016,1.016,0,0,0,.32-.22.875.875,0,0,0,.22-.32,1.046,1.046,0,0,0,.08-.39,1,1,0,0,0-.08-.38,1.066,1.066,0,0,0-.54-.54,1,1,0,0,0-.76,0,.834.834,0,0,0-.33.22,1.212,1.212,0,0,0-.22.32.986.986,0,0,0-.07.38,1.036,1.036,0,0,0,.07.39A1.212,1.212,0,0,0,42.05,9.51Z"/><path d="M45.92,9.51a.99.99,0,0,0,.71.29,1.007,1.007,0,0,0,.71-.29.988.988,0,0,0,.21-.32,1.046,1.046,0,0,0,.08-.39,1.039,1.039,0,0,0-.29-.7,1.037,1.037,0,0,0-1.42,0,.988.988,0,0,0-.21.32.838.838,0,0,0-.08.38.881.881,0,0,0,.08.39A.988.988,0,0,0,45.92,9.51Z"/><path d="M49.79,9.51a1.014,1.014,0,0,0,1.42,0,.988.988,0,0,0,.21-.32.881.881,0,0,0,.08-.39.838.838,0,0,0-.08-.38.988.988,0,0,0-.21-.32,1.037,1.037,0,0,0-1.42,0,1.039,1.039,0,0,0-.29.7,1.046,1.046,0,0,0,.08.39A.988.988,0,0,0,49.79,9.51Z"/><path d="M53.66,9.51a1.19,1.19,0,0,0,.33.22.99.99,0,0,0,1.3-.54.881.881,0,0,0,.08-.39.838.838,0,0,0-.08-.38.988.988,0,0,0-.21-.32,1.021,1.021,0,0,0-1.09-.22,1,1,0,0,0-.33.22,1.039,1.039,0,0,0-.29.7,1.046,1.046,0,0,0,.08.39A.988.988,0,0,0,53.66,9.51Z"/><path d="M42.38,13.97a.943.943,0,0,0,.76,0,1.155,1.155,0,0,0,.33-.21,1.052,1.052,0,0,0,.29-.71,1.355,1.355,0,0,0-.02-.2.636.636,0,0,0-.06-.18.757.757,0,0,0-.09-.18l-.12-.15a1.155,1.155,0,0,0-.33-.21,1,1,0,0,0-.76,0,.933.933,0,0,0-.33.21,1.576,1.576,0,0,0-.12.15.757.757,0,0,0-.09.18.636.636,0,0,0-.06.18,1.355,1.355,0,0,0-.02.2,1.052,1.052,0,0,0,.29.71A.933.933,0,0,0,42.38,13.97Z"/><path d="M46.63,14.05a.99.99,0,0,0,1-1,1.355,1.355,0,0,0-.02-.2.636.636,0,0,0-.06-.18.757.757,0,0,0-.09-.18l-.12-.15a1,1,0,0,0-1.42,1.42A1.033,1.033,0,0,0,46.63,14.05Z"/><path d="M50.5,14.05a1,1,0,0,0,.38-.08,1.155,1.155,0,0,0,.33-.21,1.014,1.014,0,0,0,0-1.42,1.155,1.155,0,0,0-.33-.21,1.037,1.037,0,0,0-1.09.21l-.12.15a.757.757,0,0,0-.09.18.636.636,0,0,0-.06.18,1.355,1.355,0,0,0-.02.2.99.99,0,0,0,1,1Z"/><path d="M53.99,13.97a.943.943,0,0,0,.76,0,.933.933,0,0,0,.33-.21,1.052,1.052,0,0,0,.29-.71,1.355,1.355,0,0,0-.02-.2.636.636,0,0,0-.06-.18.757.757,0,0,0-.09-.18,1.576,1.576,0,0,0-.12-.15,1.032,1.032,0,0,0-.33-.21,1,1,0,0,0-.76,0,1.155,1.155,0,0,0-.33.21l-.12.15a.757.757,0,0,0-.09.18.636.636,0,0,0-.06.18,1.355,1.355,0,0,0-.02.2,1.052,1.052,0,0,0,.29.71A1.155,1.155,0,0,0,53.99,13.97Z"/></svg>
