<svg id="Layer_1" enable-background="new 0 0 24 24" height="512" viewBox="0 0 24 24" width="512" xmlns="http://www.w3.org/2000/svg"><switch><g><path d="m18 24h-12c-3.3 0-6-2.7-6-6v-12c0-3.3 2.7-6 6-6h12c3.3 0 6 2.7 6 6v12c0 3.3-2.7 6-6 6z" fill="#02bc7d"/><g fill="#fff"><path d="m10 11.4c-.4-.4-.9-.4-1.3 0s-.4.9 0 1.3l2.7 2.7c.2.2.4.3.6.3s.4-.1.6-.3l6.3-7.2c.3-.4.3-1-.2-1.3-.4-.3-.9-.3-1.2.1l-5.5 6.3z"/><path d="m20.1 11.1c-.5 0-.9.4-.9.9 0 3.9-3.2 7.2-7.2 7.2s-7.1-3.3-7.1-7.2c0-1.9.7-3.7 2.1-5 1.3-1.4 3.1-2.2 5.1-2.2.5 0 1.2.1 1.7.2.4.2 1-.1 1.2-.6s-.2-.9-.6-1.1h-.1c-.8-.2-1.5-.3-2.3-.3-4.9 0-9 4-9 9 0 2.3 1 4.7 2.6 6.3 1.7 1.7 3.9 2.6 6.3 2.6 4.9 0 9-4 9-9 .1-.4-.4-.8-.8-.8z"/></g></g></switch></svg>