<svg viewBox="0 0 512 512" xmlns="http://www.w3.org/2000/svg" xmlns:xlink="http://www.w3.org/1999/xlink" width="300" height="300" version="1.1" xmlns:svgjs="http://svgjs.dev/svgjs"><g width="100%" height="100%" transform="matrix(1,0,0,1,0,0)"><linearGradient id="linear-gradient" gradientUnits="userSpaceOnUse" x1="74.98" x2="437.02" y1="74.98" y2="437.02"><stop stop-opacity="1" stop-color="#0b454a" offset="0"/><stop stop-opacity="1" stop-color="#0d5c63" offset="1"/></linearGradient><linearGradient id="linear-gradient-2" gradientUnits="userSpaceOnUse" x1="186.85" x2="416.46" y1="227.97" y2="457.58"><stop stop-opacity="0.6627450980392157" stop-color="#525252" offset="0"/><stop stop-opacity="0" stop-color="#030303" offset="1"/></linearGradient><g id="Layer_2" data-name="Layer 2"><g id="Layer_2_copy_6" data-name="Layer 2 copy 6"><g id="_61" data-name="61"><circle id="background" cx="256" cy="256" fill="url(#linear-gradient)" r="256" data-original-color="linear-gradient" stroke="none" stroke-opacity="1"/><path d="m503.93 320c-28.43 110.43-128.66 192-247.93 192q-5.19 0-10.34-.21l-117.74-117.74 154.36-102.33-74.73-74.72 91.81-101.54z" fill="url(#linear-gradient-2)" data-original-color="linear-gradient-2" stroke="none" stroke-opacity="1"/><g id="_61-2" fill="#4898fd" data-name="61"><path d="m347.81 412c33.75 0 55.9-35.46 40.9-65.69a148.1 148.1 0 0 0 -265.42 0c-15 30.23 7.15 65.69 40.9 65.69z" fill="#4d9de0" fill-opacity="1" data-original-color="#4898fdff" stroke="none" stroke-opacity="1"/><circle cx="256" cy="168.53" r="68.53" fill="#4d9de0" fill-opacity="1" data-original-color="#4898fdff" stroke="none" stroke-opacity="1"/></g></g></g></g></g></svg>