<svg id="Capa_1" enable-background="new 0 0 512 512" height="512" viewBox="0 0 512 512" width="512" xmlns="http://www.w3.org/2000/svg"><g><g><g><g><g><g><g><g><g><circle cx="256" cy="256" fill="#00c8c8" r="256"/></g></g></g></g></g></g></g></g><path d="m437.385 201.473-58.194-58.193 2.035 26.775-50.491-50.491-9.32 4.188-40.08-40.08-23.071 86.533-50.025-50.025-7.057 3.581-31.843-31.843-24.042 73.993 37.692 37.692-3.025 9.699-20.058-20.058-4.95 20.148-20.148-20.148-8.162 30.431-30.431-30.431-14.784 57.331 73.869 73.869-2.754.799-20.23-20.23-37.516-1.242-9.231 40.907 167.306 167.306c1.041.013 2.083.019 3.126.019 141.082 0 255.509-114.125 255.998-255.092l-62.675-62.675z" fill="#1cadb5"/><g><g><path d="m120.022 250.572v-23.035h-23.809v23.035h-14.784v-57.331h14.784v21.402h23.809v-21.402h14.784v57.331z" fill="#fff"/></g><g><path d="m145.121 250.572v-57.331h14.784v57.331z" fill="#fff"/></g><g><path d="m167.296 221.95c0-18.222 13.924-29.654 31.029-29.654 12.807 0 20.543 6.79 24.497 13.924l-12.377 6.446c-2.149-3.782-6.533-7.306-12.12-7.306-9.369 0-15.987 7.22-15.987 16.589s6.619 16.589 15.987 16.589c4.212 0 8.509-1.719 10.572-3.438v-4.469h-12.893v-12.979h27.677v22.777c-6.188 6.79-14.526 11.174-25.356 11.174-17.104.001-31.029-11.431-31.029-29.653z" fill="#e9edf5"/></g><g><path d="m270.956 250.572v-23.035h-23.81v23.035h-14.784v-57.331h14.784v21.402h23.81v-21.402h14.784v57.331z" fill="#e9edf5"/></g><g><path d="m78.507 325.095c0-17.449 13.151-29.654 30.685-29.654s30.599 12.205 30.599 29.654c0 7.907-2.665 14.784-7.22 19.855l3.61 4.383-10.314 8.251-4.212-5.157c-3.782 1.461-7.993 2.32-12.463 2.32-17.534.001-30.685-12.204-30.685-29.652zm34.037 16.245-5.243-6.361 10.229-8.251 5.415 6.533c1.117-2.407 1.805-5.157 1.805-8.166 0-9.369-6.103-16.589-15.558-16.589-9.541 0-15.644 7.22-15.644 16.589 0 9.283 6.103 16.589 15.644 16.589 1.117 0 2.235-.086 3.352-.344z" fill="#fff"/></g><g><path d="m147.269 330.51v-34.124h15.042v33.608c0 6.79 4.04 11.69 12.12 11.69 7.908 0 12.033-4.899 12.033-11.69v-33.608h14.956v34.038c0 14.268-8.682 24.324-26.989 24.324-18.481 0-27.162-10.142-27.162-24.238z" fill="#fff"/></g><g><path d="m247.492 353.717-2.836-8.251h-22.606l-2.836 8.251h-16.761l21.574-57.331h18.565l21.661 57.331zm-14.182-42.719-7.306 21.574h14.612z" fill="#fff"/></g><g><path d="m268.465 353.717v-57.331h14.784v44.438h23.035v12.893z" fill="#e9edf5"/></g><g><path d="m313.934 353.717v-57.331h14.784v57.331z" fill="#e9edf5"/></g><g><path d="m351.839 353.717v-44.438h-16.073v-12.893h46.845v12.893h-15.987v44.438z" fill="#e9edf5"/></g><g><path d="m405.302 353.717v-23.121l-21.746-34.21h16.675l12.463 21.145 12.291-21.145h16.761l-21.66 34.21v23.121z" fill="#e9edf5"/></g></g><g><g><path d="m379.191 143.279 21.672 43.912 48.46 7.042-35.066 34.181 8.278 48.264-43.344-22.787-43.344 22.787 8.278-48.264-35.066-34.181 48.46-7.042z" fill="#fdba12"/></g></g><g><g><path d="m281.335 83.672 15.265 30.932 34.135 4.96-24.7 24.077 5.831 33.997-30.531-16.052-30.532 16.052 5.831-33.997-24.7-24.077 34.135-4.96z" fill="#ffce00"/></g></g><g><g><path d="m281.335 83.672 15.265 30.932 34.135 4.96-24.7 24.077 5.831 33.997-30.531-16.052z" fill="#fdba12"/></g></g><g><g><path d="m169.338 91.917 12.021 24.356 26.879 3.906-19.45 18.96 4.591 26.77-24.041-12.639-24.042 12.639 4.591-26.77-19.45-18.96 26.88-3.906z" fill="#ffce00"/></g></g></g></svg>