<svg id="Capa_1" enable-background="new 0 0 512 512" height="512" viewBox="0 0 512 512" width="512" xmlns="http://www.w3.org/2000/svg"><g><path d="m0 496.112v-69.445l133.87-10.622 133.87 10.622v85.333h-251.852c-8.775 0-15.888-7.113-15.888-15.888z" fill="#995a4d"/><path d="m0 426.667v-85.334l132.191-10.622 135.55 10.622v85.334z" fill="#b37059"/><path d="m0 341.333v-85.333l133.87-10.622 133.871 10.622v85.333z" fill="#995a4d"/><path d="m85.333 256h-85.333v-240.112c0-8.775 7.113-15.888 15.888-15.888h69.445l10.622 128z" fill="#cc825d"/><path d="m170.667 256h-85.334v-256h85.334l10.622 128z" fill="#b37059"/><path d="m256 256h-85.333v-256h85.333l10.622 128z" fill="#cc825d"/><path d="m341.333 512h-85.333v-256l10.622-10.622h74.711l10.623 133.311z" fill="#733a37"/><path d="m426.667 512h-85.334v-266.622h85.334l10.622 133.311z" fill="#884b41"/><path d="m496.112 512h-69.445v-266.622h74.711l10.622 10.622v240.111c0 8.776-7.113 15.889-15.888 15.889z" fill="#733a37"/><path d="m256 85.333v-85.333h240.112c8.775 0 15.888 7.113 15.888 15.888v69.445l-128 10.623z" fill="#995a4d"/><path d="m256 170.667v-85.334h256v85.334l-128 10.622z" fill="#804540"/><path d="m256 256v-85.333h128 128v85.333z" fill="#995a4d"/></g></svg>