<?xml version="1.0" encoding="UTF-8" standalone="no"?>
<!-- Created with Inkscape (http://www.inkscape.org/) -->

<svg
   version="1.1"
   id="svg4917"
   width="682.66669"
   height="682.66669"
   viewBox="0 0 682.66669 682.66669"
   xmlns="http://www.w3.org/2000/svg"
   xmlns:svg="http://www.w3.org/2000/svg">
  <defs
     id="defs4921">
    <clipPath
       clipPathUnits="userSpaceOnUse"
       id="clipPath4939">
      <path
         d="M 0,512 H 512 V 0 H 0 Z"
         id="path4937" />
    </clipPath>
  </defs>
  <g
     id="g4923"
     transform="matrix(1.3333333,0,0,-1.3333333,0,682.66667)">
    <g
       id="g4925"
       transform="translate(379.3318,348.372)">
      <path
         d="M 0,0 H -120.984 L -26.434,-94.551 0,-80.386"
         style="fill:#ffe6c0;fill-opacity:1;fill-rule:nonzero;stroke:#000000;stroke-width:20;stroke-linecap:round;stroke-linejoin:round;stroke-miterlimit:10;stroke-dasharray:none;stroke-opacity:1"
         id="path4927" />
    </g>
    <g
       id="g4929"
       transform="translate(121.3789,66)">
      <path
         d="M 0,0 H 119.283 L 295.921,94.653 283.49,151.911"
         style="fill:#ffcb7c;fill-opacity:1;fill-rule:nonzero;stroke:none"
         id="path4931" />
    </g>
    <g
       id="g4933">
      <g
         id="g4935"
         clip-path="url(#clipPath4939)">
        <g
           id="g4941"
           transform="translate(392.4695,275.0262)">
          <path
             d="m 0,0 -378.86,-203.016 c 1.541,-3.536 5.064,-6.01 9.167,-6.01 h 98.602 L 12.4,-57.115 Z"
             style="fill:#ffe6c0;fill-opacity:1;fill-rule:nonzero;stroke:none"
             id="path4943" />
        </g>
        <g
           id="g4945"
           transform="translate(352.8979,253.8214)">
          <path
             d="M 0,0 -94.551,94.551 H -198.38 L -67.603,-36.226 Z"
             style="fill:#ffcb7c;fill-opacity:1;fill-rule:nonzero;stroke:none"
             id="path4947" />
        </g>
        <g
           id="g4949"
           transform="translate(352.8979,253.8214)">
          <path
             d="M 0,0 -94.551,94.551 H -198.38 L -67.603,-36.226 Z"
             style="fill:none;stroke:#000000;stroke-width:20;stroke-linecap:round;stroke-linejoin:round;stroke-miterlimit:10;stroke-dasharray:none;stroke-opacity:1"
             id="path4951" />
        </g>
        <g
           id="g4953"
           transform="translate(154.5179,348.372)">
          <path
             d="m 0,0 h -115.089 l 170.931,-170.931 74.935,40.154 z"
             style="fill:#ffe6c0;fill-opacity:1;fill-rule:nonzero;stroke:none"
             id="path4955" />
        </g>
        <g
           id="g4957"
           transform="translate(154.5179,348.372)">
          <path
             d="m 0,0 h -115.089 l 170.931,-170.931 74.935,40.154 z"
             style="fill:none;stroke:#000000;stroke-width:20;stroke-linecap:round;stroke-linejoin:round;stroke-miterlimit:10;stroke-dasharray:none;stroke-opacity:1"
             id="path4959" />
        </g>
        <g
           id="g4961"
           transform="translate(121.3789,66)">
          <path
             d="M 0,0 H 119.283"
             style="fill:none;stroke:#000000;stroke-width:20;stroke-linecap:round;stroke-linejoin:round;stroke-miterlimit:10;stroke-dasharray:none;stroke-opacity:1"
             id="path4963" />
        </g>
        <g
           id="g4965"
           transform="translate(379.3318,267.9862)">
          <path
             d="m 0,0 -365.722,-195.976 c 1.541,-3.536 5.063,-6.01 9.167,-6.01 h 98.602 l 107.222,57.456"
             style="fill:none;stroke:#000000;stroke-width:20;stroke-linecap:round;stroke-linejoin:round;stroke-miterlimit:10;stroke-dasharray:none;stroke-opacity:1"
             id="path4967" />
        </g>
        <g
           id="g4969"
           transform="translate(298.4974,160.9825)">
          <path
             d="M 0,0 80.285,42.968"
             style="fill:none;stroke:#000000;stroke-width:20;stroke-linecap:round;stroke-linejoin:round;stroke-miterlimit:10;stroke-dasharray:none;stroke-opacity:1"
             id="path4971" />
        </g>
        <g
           id="g4973"
           transform="translate(378.4184,139.8181)">
          <path
             d="M 0,0 -137.756,-73.818 H 43.95 54.414 59.431"
             style="fill:#ffe6c0;fill-opacity:1;fill-rule:nonzero;stroke:#000000;stroke-width:20;stroke-linecap:round;stroke-linejoin:round;stroke-miterlimit:10;stroke-dasharray:none;stroke-opacity:1"
             id="path4975" />
        </g>
        <g
           id="g4977"
           transform="translate(437.8497,362.9241)">
          <path
             d="m 0,0 c -32.318,0 -58.518,-26.199 -58.518,-58.518 v -92.186 c 0,32.319 26.2,58.518 58.518,58.518 32.318,0 58.518,-26.199 58.518,-58.518 v 92.186 C 58.518,-26.199 32.318,0 0,0"
             style="fill:#ffcb7c;fill-opacity:1;fill-rule:nonzero;stroke:none"
             id="path4979" />
        </g>
        <g
           id="g4981"
           transform="translate(437.8497,362.9241)">
          <path
             d="m 0,0 c -32.318,0 -58.518,-26.199 -58.518,-58.518 v -92.186 c 0,32.319 26.2,58.518 58.518,58.518 32.318,0 58.518,-26.199 58.518,-58.518 v 92.186 C 58.518,-26.199 32.318,0 0,0 Z"
             style="fill:none;stroke:#000000;stroke-width:20;stroke-linecap:round;stroke-linejoin:round;stroke-miterlimit:10;stroke-dasharray:none;stroke-opacity:1"
             id="path4983" />
        </g>
        <g
           id="g4985"
           transform="translate(437.8497,270.7385)">
          <path
             d="m 0,0 c -32.318,0 -58.518,-26.199 -58.518,-58.518 v -87.703 c 0,-32.318 26.2,-58.517 58.518,-58.517 32.318,0 58.518,26.199 58.518,58.517 v 87.703 C 58.518,-26.199 32.318,0 0,0"
             style="fill:#ffe6c0;fill-opacity:1;fill-rule:nonzero;stroke:none"
             id="path4987" />
        </g>
        <g
           id="g4989"
           transform="translate(437.8497,270.7385)">
          <path
             d="m 0,0 c -32.318,0 -58.518,-26.199 -58.518,-58.518 v -87.703 c 0,-32.318 26.2,-58.517 58.518,-58.517 32.318,0 58.518,26.199 58.518,58.517 v 87.703 C 58.518,-26.199 32.318,0 0,0 Z"
             style="fill:none;stroke:#000000;stroke-width:20;stroke-linecap:round;stroke-linejoin:round;stroke-miterlimit:10;stroke-dasharray:none;stroke-opacity:1"
             id="path4991" />
        </g>
        <g
           id="g4993"
           transform="translate(437.8497,455.5)">
          <path
             d="m 0,0 c -32.318,0 -58.518,-26.199 -58.518,-58.518 v -92.576 c 0,32.319 26.2,58.518 58.518,58.518 32.318,0 58.518,-26.199 58.518,-58.518 v 92.576 C 58.518,-26.199 32.318,0 0,0"
             style="fill:#ffe6c0;fill-opacity:1;fill-rule:nonzero;stroke:none"
             id="path4995" />
        </g>
        <g
           id="g4997"
           transform="translate(437.8497,455.5)">
          <path
             d="m 0,0 c -32.318,0 -58.518,-26.199 -58.518,-58.518 v -92.576 c 0,32.319 26.2,58.518 58.518,58.518 32.318,0 58.518,-26.199 58.518,-58.518 v 92.576 C 58.518,-26.199 32.318,0 0,0 Z"
             style="fill:none;stroke:#000000;stroke-width:20;stroke-linecap:round;stroke-linejoin:round;stroke-miterlimit:10;stroke-dasharray:none;stroke-opacity:1"
             id="path4999" />
        </g>
        <g
           id="g5001"
           transform="translate(496.3676,124.5179)">
          <path
             d="m 0,0 c 0,32.319 -26.199,58.518 -58.518,58.518 -32.318,0 -58.518,-26.199 -58.518,-58.518 0,-32.319 26.2,-58.518 58.518,-58.518 C -26.199,-58.518 0,-32.319 0,0"
             style="fill:#ffcb7c;fill-opacity:1;fill-rule:nonzero;stroke:none"
             id="path5003" />
        </g>
        <g
           id="g5005"
           transform="translate(496.3676,124.5179)">
          <path
             d="m 0,0 c 0,32.319 -26.199,58.518 -58.518,58.518 -32.318,0 -58.518,-26.199 -58.518,-58.518 0,-32.319 26.2,-58.518 58.518,-58.518 C -26.199,-58.518 0,-32.319 0,0 Z"
             style="fill:none;stroke:#000000;stroke-width:20;stroke-linecap:round;stroke-linejoin:round;stroke-miterlimit:10;stroke-dasharray:none;stroke-opacity:1"
             id="path5007" />
        </g>
        <g
           id="g5009"
           transform="translate(460.4885,124.5179)">
          <path
             d="m 0,0 c 0,12.503 -10.136,22.639 -22.639,22.639 -12.503,0 -22.639,-10.136 -22.639,-22.639 0,-12.503 10.136,-22.639 22.639,-22.639 C -10.136,-22.639 0,-12.503 0,0"
             style="fill:#f9f9f9;fill-opacity:1;fill-rule:nonzero;stroke:none"
             id="path5011" />
        </g>
        <g
           id="g5013"
           transform="translate(460.4885,124.5179)">
          <path
             d="m 0,0 c 0,12.503 -10.136,22.639 -22.639,22.639 -12.503,0 -22.639,-10.136 -22.639,-22.639 0,-12.503 10.136,-22.639 22.639,-22.639 C -10.136,-22.639 0,-12.503 0,0 Z"
             style="fill:none;stroke:#000000;stroke-width:20;stroke-linecap:round;stroke-linejoin:round;stroke-miterlimit:10;stroke-dasharray:none;stroke-opacity:1"
             id="path5015" />
        </g>
        <g
           id="g5017"
           transform="translate(87.5013,300.2999)">
          <path
             d="m 0,0 -74.725,-39.486 v -62.686 l 115.739,61.159 z"
             style="fill:#ffcb7c;fill-opacity:1;fill-rule:nonzero;stroke:none"
             id="path5019" />
        </g>
        <g
           id="g5021"
           transform="translate(87.5013,300.2999)">
          <path
             d="m 0,0 -74.725,-39.486 v -62.686 l 115.739,61.159 z"
             style="fill:none;stroke:#000000;stroke-width:20;stroke-linecap:round;stroke-linejoin:round;stroke-miterlimit:10;stroke-dasharray:none;stroke-opacity:1"
             id="path5023" />
        </g>
        <g
           id="g5025"
           transform="translate(39.4292,348.372)">
          <path
             d="m 0,0 h -16.652 c -5.523,0 -10,-4.477 -10,-10 v -77.558 l 74.724,39.486 z"
             style="fill:#ffe6c0;fill-opacity:1;fill-rule:nonzero;stroke:none"
             id="path5027" />
        </g>
        <g
           id="g5029"
           transform="translate(39.4292,348.372)">
          <path
             d="m 0,0 h -16.652 c -5.523,0 -10,-4.477 -10,-10 v -77.558 l 74.724,39.486 z"
             style="fill:none;stroke:#000000;stroke-width:20;stroke-linecap:round;stroke-linejoin:round;stroke-miterlimit:10;stroke-dasharray:none;stroke-opacity:1"
             id="path5031" />
        </g>
        <g
           id="g5033"
           transform="translate(128.5149,259.2864)">
          <path
             d="m 0,0 -115.738,-61.159 v -62.249 l 156.466,82.68 z"
             style="fill:#ffe6c0;fill-opacity:1;fill-rule:nonzero;stroke:none"
             id="path5035" />
        </g>
        <g
           id="g5037"
           transform="translate(128.5149,259.2864)">
          <path
             d="m 0,0 -115.738,-61.159 v -62.249 l 156.466,82.68 z"
             style="fill:none;stroke:#000000;stroke-width:20;stroke-linecap:round;stroke-linejoin:round;stroke-miterlimit:10;stroke-dasharray:none;stroke-opacity:1"
             id="path5039" />
        </g>
        <g
           id="g5041"
           transform="translate(169.2427,218.5585)">
          <path
             d="m 0,0 -156.466,-82.681 v -59.878 c 0,-1.419 0.3,-2.767 0.833,-3.99 L 41.118,-41.118 Z"
             style="fill:#ffcb7c;fill-opacity:1;fill-rule:nonzero;stroke:none"
             id="path5043" />
        </g>
        <g
           id="g5045"
           transform="translate(169.2427,218.5585)">
          <path
             d="m 0,0 -156.466,-82.681 v -59.878 c 0,-1.419 0.3,-2.767 0.833,-3.99 L 41.118,-41.118 Z"
             style="fill:none;stroke:#000000;stroke-width:20;stroke-linecap:round;stroke-linejoin:round;stroke-miterlimit:10;stroke-dasharray:none;stroke-opacity:1"
             id="path5047" />
        </g>
        <g
           id="g5049"
           transform="translate(263.3333,142.9557)">
          <path
             d="M 0,0 V 0"
             style="fill:none;stroke:#000000;stroke-width:20;stroke-linecap:round;stroke-linejoin:round;stroke-miterlimit:10;stroke-dasharray:none;stroke-opacity:1"
             id="path5051" />
        </g>
      </g>
    </g>
  </g>
</svg>
