<svg id="Layer_1" enable-background="new 0 0 48 48" height="300" viewBox="0 0 48 48" width="300" xmlns="http://www.w3.org/2000/svg" xmlns:xlink="http://www.w3.org/1999/xlink" version="1.1" xmlns:svgjs="http://svgjs.dev/svgjs"><g width="100%" height="100%" transform="matrix(1,0,0,1,0,0)"><pattern id="Unnamed_Pattern_11" height="86" overflow="visible" patternUnits="userSpaceOnUse" viewBox="0 -86 98 86" width="98" x="-68" y="-340"><g><path d="m0 0h98v-86h-98z" fill="none" fill-opacity="1" stroke="none" stroke-opacity="1"/><path d="m98 0h-98v-86h98z" fill="#dad9d9" fill-opacity="1" data-original-color="#6e6eaaff" stroke="none" stroke-opacity="1"/></g></pattern><g fill="url(#Unnamed_Pattern_11)"><path d="m24 0c-13.234 0-24 10.766-24 24s10.766 24 24 24 24-10.766 24-24-10.766-24-24-24zm0 43.473c-10.737 0-19.472-8.737-19.472-19.473s8.735-19.471 19.472-19.471 19.472 8.735 19.472 19.471-8.735 19.473-19.472 19.473z" fill="url(#Unnamed_Pattern_11)" data-original-color="Unnamed_Pattern_11" stroke="none" stroke-opacity="1"/><path d="m24 29.01c1.25 0 2.264-1.014 2.264-2.264v-14.189c0-1.25-1.014-2.264-2.264-2.264s-2.264 1.014-2.264 2.264v14.189c0 1.25 1.014 2.264 2.264 2.264z" fill="url(#Unnamed_Pattern_11)" data-original-color="Unnamed_Pattern_11" stroke="none" stroke-opacity="1"/><path d="m24.018 33.18h-.009c-1.25 0-2.259 1.014-2.259 2.264 0 1.252 1.018 2.266 2.269 2.266s2.264-1.014 2.264-2.266c-.001-1.251-1.014-2.264-2.265-2.264z" fill="url(#Unnamed_Pattern_11)" data-original-color="Unnamed_Pattern_11" stroke="none" stroke-opacity="1"/></g></g></svg>