<svg xmlns="http://www.w3.org/2000/svg" xmlns:xlink="http://www.w3.org/1999/xlink" width="2000" zoomAndPan="magnify" viewBox="0 0 1500 749.999995" height="1000" preserveAspectRatio="xMidYMid meet" version="1.0"><defs><filter x="0%" y="0%" width="100%" height="100%" id="4fc09d366e"><feColorMatrix values="0 0 0 0 1 0 0 0 0 1 0 0 0 0 1 0 0 0 1 0" color-interpolation-filters="sRGB"/></filter><mask id="adcdfdb66e"><g filter="url(#4fc09d366e)"><rect x="-150" width="1800" fill="#000000" y="-74.999999" height="899.999994" fill-opacity="0.3"/></g></mask><clipPath id="8936758329"><path d="M 10 6 L 677 6 L 677 417 L 10 417 Z M 10 6 " clip-rule="nonzero"/></clipPath><clipPath id="3ae9b3d1d1"><path d="M -29.433594 103.226562 L 673.359375 -4.507812 L 724.839844 331.320312 L 22.050781 439.054688 Z M -29.433594 103.226562 " clip-rule="nonzero"/></clipPath><clipPath id="091494bb9f"><path d="M -29.433594 103.226562 L 673.359375 -4.507812 L 724.839844 331.320312 L 22.050781 439.054688 Z M -29.433594 103.226562 " clip-rule="nonzero"/></clipPath><clipPath id="17763f61c5"><rect x="0" width="722" y="0" height="431"/></clipPath><mask id="9188ebd218"><g filter="url(#4fc09d366e)"><rect x="-150" width="1800" fill="#000000" y="-74.999999" height="899.999994" fill-opacity="0.3"/></g></mask><clipPath id="ca57e74f78"><path d="M 92 14 L 717 14 L 717 512 L 92 512 Z M 92 14 " clip-rule="nonzero"/></clipPath><clipPath id="f22fb7ac2d"><path d="M 779.441406 298.238281 L 105.640625 525.210938 L -2.816406 203.234375 L 670.980469 -23.734375 Z M 779.441406 298.238281 " clip-rule="nonzero"/></clipPath><clipPath id="1fe0de233a"><path d="M 779.441406 298.238281 L 105.640625 525.210938 L -2.816406 203.234375 L 670.980469 -23.734375 Z M 779.441406 298.238281 " clip-rule="nonzero"/></clipPath><clipPath id="7b59eeac80"><rect x="0" width="728" y="0" height="521"/></clipPath></defs><g mask="url(#adcdfdb66e)"><g transform="matrix(1, 0, 0, 1, 0, 319)"><g clip-path="url(#17763f61c5)"><g clip-path="url(#8936758329)"><g clip-path="url(#3ae9b3d1d1)"><g clip-path="url(#091494bb9f)"><path fill="#09515a" d="M 674.414062 28.128906 C 671.648438 17.074219 666.917969 10.34375 659.96875 7.550781 C 642.292969 0.457031 611.644531 19.761719 569.246094 46.484375 C 518.652344 78.375 449.363281 122.046875 365.4375 143.046875 C 282.933594 163.6875 201.601562 159.335938 136.261719 155.816406 C 80.070312 152.804688 39.46875 150.617188 26.128906 166.796875 C 21.425781 172.503906 20.316406 180.242188 22.722656 190.410156 C 19.9375 195.570312 19.5625 202.132812 21.640625 210.375 C 18.691406 215.417969 18.324219 221.90625 20.511719 230.109375 C 20.539062 230.210938 20.570312 230.308594 20.597656 230.410156 C 17.527344 235.265625 17.105469 241.546875 19.320312 249.582031 C 19.398438 249.859375 19.496094 250.140625 19.578125 250.414062 C 16.367188 255.085938 15.875 261.183594 18.140625 269.054688 C 18.269531 269.511719 18.425781 269.949219 18.566406 270.394531 C 18.550781 270.414062 18.53125 270.429688 18.515625 270.453125 C 15.15625 274.929688 14.640625 280.835938 16.945312 288.53125 C 17.144531 289.1875 17.371094 289.839844 17.597656 290.496094 C 17.394531 290.730469 17.164062 290.9375 16.988281 291.183594 C 13.921875 295.386719 13.511719 300.886719 15.757812 308.003906 C 16.023438 308.851562 16.324219 309.699219 16.644531 310.539062 C 16.222656 310.972656 15.828125 311.429688 15.46875 311.914062 C 12.703125 315.839844 12.402344 320.929688 14.574219 327.476562 C 14.914062 328.515625 15.320312 329.542969 15.761719 330.566406 C 15.082031 331.191406 14.476562 331.882812 13.945312 332.640625 C 11.46875 336.292969 11.285156 340.972656 13.390625 346.949219 C 13.839844 348.207031 14.355469 349.4375 14.9375 350.640625 C 13.960938 351.421875 13.125 352.332031 12.425781 353.371094 C 10.230469 356.75 10.160156 361.019531 12.195312 366.425781 C 19.632812 386.160156 47.5625 403.363281 85.078125 411.3125 C 98.636719 414.109375 112.335938 415.675781 126.171875 416.007812 C 140.011719 416.339844 153.769531 415.429688 167.445312 413.285156 C 182.855469 410.9375 197.894531 407.125 212.5625 401.84375 C 227.234375 396.5625 241.253906 389.917969 254.625 381.902344 C 263.902344 377.804688 272.917969 373.195312 281.667969 368.070312 C 291.015625 363.933594 300.121094 359.316406 308.980469 354.21875 C 318.398438 350.03125 327.597656 345.398438 336.515625 340.332031 C 345.660156 336.238281 354.597656 331.75 363.316406 326.878906 C 372.785156 322.644531 382.023438 317.96875 391.050781 312.957031 C 400.425781 308.738281 409.597656 304.164062 418.574219 299.230469 C 427.835938 295.042969 436.917969 290.53125 445.820312 285.695312 C 455.292969 281.410156 464.582031 276.796875 473.695312 271.859375 C 486.453125 266.113281 498.90625 259.769531 511.050781 252.820312 C 523.199219 245.875 534.980469 238.359375 546.40625 230.277344 C 557.828125 222.195312 568.835938 213.582031 579.425781 204.4375 C 590.019531 195.292969 600.144531 185.660156 609.808594 175.539062 C 659.285156 123.089844 684.042969 66.605469 674.414062 28.128906 Z M 23.140625 192.070312 C 24.269531 196.25 25.769531 200.289062 27.644531 204.191406 C 25.921875 205.320312 24.398438 206.679688 23.082031 208.261719 C 22.867188 208.535156 22.691406 208.832031 22.496094 209.109375 C 21.664062 206.308594 21.304688 203.453125 21.414062 200.535156 C 21.523438 197.617188 22.097656 194.796875 23.140625 192.070312 Z M 255.753906 377.34375 C 204.875 394.207031 149.394531 396.511719 99.53125 383.832031 C 67.4375 375.664062 41.609375 361.96875 26.886719 345.992188 C 29.261719 345.40625 31.871094 344.894531 34.710938 344.464844 C 37.757812 344 41.078125 343.609375 44.613281 343.265625 C 60.492188 354.6875 81.730469 364.417969 106.488281 371.128906 C 116.523438 373.777344 126.667969 375.902344 136.921875 377.503906 C 147.179688 379.101562 157.488281 380.167969 167.855469 380.695312 C 178.21875 381.226562 188.585938 381.222656 198.949219 380.679688 C 209.316406 380.136719 219.625 379.058594 229.878906 377.445312 C 245.519531 375.050781 260.890625 371.484375 275.988281 366.746094 L 276.070312 366.71875 C 273.042969 369.007812 269.964844 371.234375 266.832031 373.382812 C 263.152344 374.777344 259.476562 376.109375 255.753906 377.34375 Z M 264.195312 375.140625 C 261.105469 377.195312 257.976562 379.195312 254.789062 381.117188 C 248.546875 383.878906 242.207031 386.429688 235.757812 388.699219 C 224.304688 392.761719 212.628906 396.003906 200.722656 398.421875 C 188.816406 400.839844 176.796875 402.414062 164.671875 403.140625 C 152.542969 403.867188 140.421875 403.742188 128.3125 402.761719 C 116.203125 401.78125 104.222656 399.960938 92.367188 397.292969 C 54.195312 388.324219 25.425781 370.738281 15.699219 350.773438 C 18.867188 348.558594 22.339844 347.039062 26.117188 346.210938 C 40.910156 362.40625 66.957031 376.289062 99.351562 384.53125 C 117.292969 388.976562 135.496094 391.601562 153.960938 392.40625 C 172.425781 393.210938 190.789062 392.175781 209.046875 389.304688 C 225.011719 386.863281 240.65625 383.105469 255.984375 378.027344 C 258.738281 377.113281 261.46875 376.140625 264.195312 375.140625 Z M 113.855469 356.917969 C 99.714844 352.949219 86.050781 347.726562 72.867188 341.253906 C 82.792969 340.640625 93.347656 339.957031 104.371094 338.914062 C 109.664062 340.851562 115.125 342.664062 120.761719 344.355469 C 132.964844 347.898438 145.324219 350.761719 157.839844 352.949219 C 170.355469 355.136719 182.953125 356.632812 195.632812 357.433594 C 208.316406 358.238281 221 358.347656 233.695312 357.761719 C 246.386719 357.171875 259.007812 355.890625 271.5625 353.917969 C 280.003906 352.625 288.410156 350.992188 296.757812 349.101562 C 294.050781 351.699219 291.277344 354.234375 288.4375 356.714844 C 230.769531 372.539062 169.082031 372.691406 113.855469 356.925781 Z M 286.933594 358 C 284.019531 360.488281 281.003906 362.894531 277.972656 365.246094 C 277.226562 365.484375 276.496094 365.753906 275.753906 365.988281 C 220.449219 383.375 160.402344 384.933594 106.691406 370.371094 C 82.390625 363.785156 61.5 354.289062 45.78125 343.148438 C 52.984375 342.476562 61.109375 341.96875 69.964844 341.421875 L 71.183594 341.347656 C 84.808594 348.160156 98.953125 353.625 113.621094 357.742188 C 124.742188 360.835938 135.996094 363.328125 147.382812 365.214844 C 158.769531 367.105469 170.222656 368.382812 181.746094 369.046875 C 193.269531 369.710938 204.796875 369.761719 216.324219 369.195312 C 227.851562 368.625 239.316406 367.445312 250.71875 365.652344 C 262.933594 363.773438 275.003906 361.222656 286.933594 358.003906 Z M 81.90625 259.371094 C 93.683594 266.78125 105.941406 273.292969 118.683594 278.894531 C 109.460938 279.066406 100.554688 279.117188 92.046875 279.160156 L 87.539062 279.1875 C 77.398438 273.519531 67.796875 267.046875 58.738281 259.773438 C 65.769531 259.457031 73.511719 259.363281 81.90625 259.371094 Z M 57.75 258.960938 C 51.125 253.558594 45.054688 247.59375 39.53125 241.066406 C 40.722656 240.832031 41.949219 240.617188 43.226562 240.421875 C 46.839844 239.867188 50.804688 239.46875 55.074219 239.183594 C 63.066406 246.3125 71.574219 252.757812 80.601562 258.519531 C 72.339844 258.527344 64.671875 258.625 57.75 258.960938 Z M 141.722656 333.875 C 151.40625 332.101562 161.234375 329.851562 171.09375 327.011719 C 194.492188 331.835938 218.132812 334.542969 242.019531 335.136719 C 265.902344 335.734375 289.648438 334.203125 313.257812 330.550781 C 313.5625 330.503906 313.867188 330.457031 314.175781 330.410156 C 311.851562 333.21875 309.453125 335.972656 306.976562 338.671875 C 293.332031 341.347656 279.578125 343.261719 265.71875 344.40625 C 251.859375 345.550781 237.980469 345.921875 224.082031 345.519531 C 210.179688 345.113281 196.34375 343.941406 182.578125 341.992188 C 168.808594 340.046875 155.1875 337.339844 141.722656 333.875 Z M 305.867188 339.878906 C 303.347656 342.589844 300.75 345.238281 298.078125 347.832031 C 239.035156 361.535156 176.832031 360.117188 121.023438 343.484375 C 116.039062 342 111.183594 340.410156 106.457031 338.71875 C 117.109375 337.675781 128.15625 336.277344 139.414062 334.289062 C 151.855469 337.578125 164.429688 340.21875 177.144531 342.210938 C 189.859375 344.199219 202.640625 345.527344 215.492188 346.195312 C 228.34375 346.863281 241.195312 346.863281 254.046875 346.199219 C 266.898438 345.539062 279.679688 344.214844 292.394531 342.226562 C 296.90625 341.523438 301.390625 340.722656 305.867188 339.875 Z M 164.957031 295.640625 C 176.054688 298.867188 187.328125 301.671875 198.757812 303.976562 C 189.289062 306.859375 179.832031 309.199219 170.457031 311.101562 C 161.007812 308.785156 151.691406 306.121094 142.515625 303.113281 C 138.347656 301.746094 134.257812 300.320312 130.253906 298.832031 C 141.5 298.148438 153.109375 297.152344 164.957031 295.632812 Z M 128.617188 298.214844 C 114.933594 293.121094 101.707031 287.039062 88.929688 279.976562 L 92.042969 279.957031 C 101.074219 279.902344 110.570312 279.839844 120.398438 279.644531 C 129.5625 283.648438 139.195312 287.355469 149.300781 290.773438 C 153.902344 292.316406 158.550781 293.757812 163.222656 295.140625 C 151.40625 296.609375 139.832031 297.5625 128.621094 298.210938 Z M 173.25 326.394531 C 178.992188 324.6875 184.742188 322.789062 190.472656 320.628906 C 192.839844 319.734375 195.167969 318.796875 197.480469 317.839844 C 218.023438 321.34375 238.714844 323.328125 259.550781 323.796875 C 280.382812 324.261719 301.140625 323.203125 321.824219 320.621094 C 321.507812 321.050781 321.21875 321.484375 320.898438 321.914062 C 319.0625 324.371094 317.152344 326.78125 315.207031 329.171875 C 291.652344 332.945312 267.953125 334.59375 244.101562 334.128906 C 220.253906 333.660156 196.636719 331.082031 173.25 326.390625 Z M 199.359375 317.058594 C 206.273438 314.132812 212.929688 310.933594 219.339844 307.554688 C 255.6875 313.019531 292.15625 314.019531 328.75 310.550781 C 326.886719 313.460938 324.875 316.390625 322.753906 319.320312 C 302.242188 321.945312 281.648438 323.070312 260.972656 322.6875 C 240.296875 322.308594 219.757812 320.429688 199.359375 317.050781 Z M 319.746094 236.449219 C 326.945312 231.964844 332.839844 229.757812 337.449219 231.019531 C 341.09375 232.011719 343.871094 235.160156 345.933594 240.636719 C 352.289062 257.496094 346.003906 282.972656 329.535156 309.269531 C 293.277344 312.792969 257.128906 311.917969 221.085938 306.652344 C 250.03125 291.15625 273.816406 272.015625 292.441406 257.027344 L 295.664062 254.4375 C 304.359375 248.203125 312.390625 242.109375 319.746094 236.449219 Z M 220.089844 306.5 C 214.191406 305.617188 208.328125 304.617188 202.496094 303.5 C 204.976562 302.707031 207.460938 301.894531 209.941406 301.019531 C 239.84375 290.492188 265.894531 275.105469 288 259.835938 C 269.886719 274.390625 247.246094 292.0625 220.089844 306.5 Z M 218.351562 307.398438 C 211.910156 310.773438 205.242188 313.964844 198.300781 316.875 C 189.445312 315.367188 180.683594 313.558594 172.011719 311.449219 C 181.34375 309.511719 190.753906 307.144531 200.175781 304.234375 C 206.195312 305.425781 212.261719 306.464844 218.351562 307.398438 Z M 329.492188 310.46875 C 336.6875 309.777344 343.867188 308.886719 351.039062 307.851562 C 348.796875 310.648438 346.484375 313.394531 344.105469 316.097656 C 337.277344 317.3125 330.425781 318.332031 323.558594 319.214844 C 325.644531 316.296875 327.648438 313.378906 329.492188 310.46875 Z M 330.265625 309.199219 C 346.652344 282.875 352.871094 257.371094 346.484375 240.429688 C 344.347656 234.761719 341.441406 231.496094 337.601562 230.449219 C 333.6875 229.378906 328.914062 230.714844 323.277344 233.734375 C 346.28125 216.035156 362.894531 203.238281 373.226562 206.3125 C 377.195312 207.488281 380.160156 211.003906 382.289062 217.058594 C 389.898438 238.671875 378.636719 272.582031 352.886719 305.558594 C 352.632812 305.882812 352.355469 306.199219 352.101562 306.527344 C 344.84375 307.59375 337.566406 308.484375 330.265625 309.199219 Z M 353.414062 305.957031 C 379.296875 272.808594 390.605469 238.660156 382.933594 216.839844 C 380.726562 210.570312 377.621094 206.917969 373.433594 205.679688 C 367.753906 204 360.328125 206.902344 351.125 212.65625 L 354.089844 210.464844 C 379.492188 191.652344 397.847656 178.0625 409.027344 181.601562 C 413.320312 182.960938 416.476562 186.84375 418.679688 193.480469 C 426.523438 217.152344 413.585938 253.832031 384.90625 289.207031 C 381.078125 293.929688 377.058594 298.527344 372.855469 302.996094 C 366.285156 304.277344 359.691406 305.410156 353.074219 306.382812 C 353.183594 306.230469 353.292969 306.101562 353.414062 305.957031 Z M 322.859375 233.230469 C 321.539062 234.246094 320.167969 235.296875 318.804688 236.347656 C 311.007812 241.570312 303.5 247.183594 296.285156 253.183594 C 272.460938 270.332031 243.566406 288.488281 209.734375 300.398438 C 206.886719 301.402344 204.035156 302.347656 201.183594 303.246094 C 189.90625 301.035156 178.785156 298.367188 167.820312 295.242188 C 188.785156 292.546875 209.320312 287.933594 229.421875 281.40625 C 267.332031 268.832031 299.75 249.070312 326.375 230.523438 Z M 142.164062 304.167969 C 150.644531 306.949219 159.269531 309.402344 167.988281 311.597656 C 156.882812 313.765625 145.917969 315.34375 135.21875 316.519531 C 121.222656 312.085938 107.628906 306.65625 94.429688 300.226562 C 104.964844 299.980469 116.046875 299.640625 127.550781 298.996094 C 132.3125 300.796875 137.183594 302.519531 142.164062 304.167969 Z M 169.480469 311.964844 C 178.347656 314.160156 187.316406 316.054688 196.382812 317.644531 C 194.363281 318.472656 192.34375 319.296875 190.265625 320.078125 C 184.195312 322.363281 178.109375 324.351562 172.03125 326.128906 C 160.140625 323.675781 148.398438 320.628906 136.8125 317 C 147.476562 315.792969 158.417969 314.171875 169.480469 311.964844 Z M 135.035156 317.5625 C 146.410156 321.195312 158.039062 324.242188 169.839844 326.757812 C 159.921875 329.566406 150.046875 331.777344 140.316406 333.523438 C 136.242188 332.425781 132.195312 331.257812 128.179688 330.019531 C 118.765625 327.117188 109.519531 323.746094 100.445312 319.910156 C 111.253906 319.335938 122.570312 318.539062 134.207031 317.289062 C 134.484375 317.378906 134.753906 317.472656 135.03125 317.558594 Z M 315.070312 330.25 C 321.445312 329.242188 327.800781 328.089844 334.128906 326.785156 C 331.550781 329.382812 328.898438 331.925781 326.183594 334.414062 C 320.128906 335.914062 314.046875 337.269531 307.929688 338.480469 C 310.375 335.785156 312.753906 333.039062 315.066406 330.246094 Z M 316.105469 329.015625 C 317.90625 326.796875 319.660156 324.546875 321.367188 322.265625 C 321.804688 321.683594 322.199219 321.097656 322.625 320.511719 C 326.460938 320.03125 330.289062 319.5 334.113281 318.917969 C 337.050781 318.46875 339.980469 317.96875 342.910156 317.457031 C 340.519531 320.136719 338.078125 322.78125 335.558594 325.359375 C 329.09375 326.722656 322.609375 327.964844 316.101562 329.011719 Z M 343.929688 317.289062 C 350.074219 316.199219 356.199219 314.957031 362.292969 313.597656 C 359.65625 316.109375 356.96875 318.570312 354.230469 320.980469 C 348.410156 322.503906 342.558594 323.863281 336.683594 325.125 C 339.164062 322.558594 341.578125 319.9375 343.929688 317.285156 Z M 345.121094 315.933594 C 347.476562 313.238281 349.765625 310.503906 351.988281 307.726562 C 352.976562 307.574219 353.972656 307.464844 354.964844 307.3125 C 360.492188 306.464844 366.003906 305.484375 371.5 304.433594 C 369.027344 307.039062 366.488281 309.589844 363.890625 312.089844 C 357.65625 313.503906 351.398438 314.785156 345.117188 315.929688 Z M 372.730469 304.199219 C 378.632812 303.054688 384.511719 301.785156 390.367188 300.398438 C 387.742188 302.785156 385.066406 305.128906 382.347656 307.425781 C 380.152344 308.03125 377.964844 308.683594 375.757812 309.25 C 372.28125 310.148438 368.785156 310.945312 365.289062 311.753906 C 367.828125 309.277344 370.308594 306.753906 372.726562 304.1875 Z M 374.046875 302.75 C 378.007812 298.496094 381.832031 294.140625 385.464844 289.660156 C 414.300781 254.09375 427.289062 217.152344 419.351562 193.253906 C 417.078125 186.390625 413.769531 182.355469 409.238281 180.921875 C 397.703125 177.269531 379.230469 190.953125 353.65625 209.890625 C 323.132812 232.492188 281.332031 263.4375 229.183594 280.734375 C 208.597656 287.417969 187.5625 292.089844 166.082031 294.757812 C 160.566406 293.167969 155.097656 291.464844 149.675781 289.652344 C 140.472656 286.5625 131.652344 283.203125 123.21875 279.582031 C 161.679688 278.707031 205.316406 275.511719 248.886719 261.8125 C 305.695312 243.953125 351.484375 211.140625 384.921875 187.179688 C 412.703125 167.269531 432.769531 152.871094 444.816406 156.894531 C 449.433594 158.4375 452.78125 162.6875 455.046875 169.898438 C 463.140625 195.628906 448.523438 235.066406 416.917969 272.851562 C 409.207031 282.019531 400.949219 290.660156 392.136719 298.773438 C 386.128906 300.222656 380.097656 301.546875 374.042969 302.746094 Z M 417.515625 273.359375 C 449.296875 235.382812 463.964844 195.648438 455.800781 169.664062 C 453.460938 162.199219 449.9375 157.78125 445.0625 156.15625 C 432.648438 152.011719 412.441406 166.496094 384.460938 186.546875 C 351.070312 210.472656 305.34375 243.246094 248.652344 261.066406 C 204.53125 274.941406 160.308594 278.019531 121.488281 278.835938 C 108.558594 273.269531 96.105469 266.78125 84.132812 259.375 C 89.03125 259.386719 94.109375 259.421875 99.410156 259.460938 C 147.8125 259.828125 208.046875 260.285156 268.367188 242.210938 C 329.71875 223.820312 379.445312 189.1875 415.75 163.898438 C 445.925781 142.882812 467.722656 127.691406 480.605469 132.1875 C 485.550781 133.910156 489.09375 138.53125 491.421875 146.316406 C 499.753906 174.109375 483.46875 216.324219 448.914062 256.496094 C 437.128906 270.136719 424.242188 282.640625 410.25 294.007812 C 405.4375 295.378906 400.605469 296.675781 395.75 297.898438 C 395.058594 298.070312 394.382812 298.226562 393.699219 298.390625 C 402.152344 290.535156 410.089844 282.1875 417.515625 273.355469 Z M 85.347656 279.210938 C 76.292969 279.273438 67.925781 279.375 60.320312 279.671875 C 52.980469 274.277344 46.222656 268.230469 40.046875 261.535156 C 40.429688 261.476562 40.789062 261.394531 41.179688 261.335938 C 45.894531 260.613281 51.257812 260.164062 57.113281 259.863281 C 65.988281 267.09375 75.402344 273.539062 85.347656 279.210938 Z M 86.695312 279.988281 C 99.308594 287.089844 112.382812 293.214844 125.910156 298.367188 C 114.484375 298.988281 103.472656 299.300781 93.019531 299.542969 C 81.910156 294.070312 71.347656 287.699219 61.328125 280.421875 C 69.03125 280.132812 77.535156 280.046875 86.695312 279.988281 Z M 90.824219 299.59375 L 84.660156 299.726562 C 77.113281 299.890625 70.042969 300.046875 63.457031 300.289062 C 55.316406 294.941406 47.78125 288.847656 40.851562 282.003906 C 46.375 281.242188 52.6875 280.773438 59.675781 280.488281 C 69.515625 287.742188 79.898438 294.109375 90.824219 299.589844 Z M 84.6875 300.445312 C 87.144531 300.394531 89.644531 300.339844 92.171875 300.28125 C 105.28125 306.785156 118.792969 312.289062 132.710938 316.796875 C 121.105469 318.011719 109.835938 318.773438 99.078125 319.328125 C 87.019531 314.210938 75.496094 308.089844 64.503906 300.964844 C 70.789062 300.742188 77.535156 300.597656 84.6875 300.445312 Z M 96.847656 319.433594 C 90.117188 319.765625 83.582031 320.035156 77.300781 320.285156 C 73.855469 320.421875 70.53125 320.554688 67.296875 320.695312 C 58.246094 315.476562 49.820312 309.390625 42.019531 302.441406 C 48.128906 301.742188 55.125 301.320312 62.832031 301.03125 C 73.636719 308.152344 84.976562 314.289062 96.847656 319.433594 Z M 77.324219 320.9375 C 84.015625 320.671875 91.007812 320.390625 98.214844 320.023438 C 107.910156 324.203125 117.804688 327.847656 127.894531 330.953125 C 131.257812 331.992188 134.640625 332.980469 138.050781 333.914062 C 126.816406 335.855469 115.800781 337.222656 105.191406 338.238281 C 92.421875 333.664062 80.144531 328.015625 68.363281 321.296875 C 71.273438 321.179688 74.246094 321.058594 77.324219 320.9375 Z M 103.082031 338.433594 C 92.136719 339.441406 81.648438 340.117188 71.8125 340.722656 C 61.789062 335.761719 52.394531 329.804688 43.628906 322.859375 C 50.421875 322.175781 58.152344 321.746094 66.664062 321.371094 C 78.304688 328.125 90.441406 333.8125 103.082031 338.433594 Z M 297.886719 348.820312 C 303.4375 347.539062 308.960938 346.144531 314.445312 344.59375 C 311.519531 346.976562 308.523438 349.28125 305.488281 351.539062 C 302.261719 352.617188 299.023438 353.667969 295.757812 354.644531 C 293.761719 355.242188 291.742188 355.773438 289.730469 356.332031 C 292.515625 353.890625 295.234375 351.386719 297.886719 348.820312 Z M 315.753906 343.292969 C 310.273438 344.867188 304.746094 346.257812 299.199219 347.5625 C 301.816406 344.992188 304.363281 342.363281 306.839844 339.679688 C 312.789062 338.527344 318.71875 337.273438 324.617188 335.839844 C 321.863281 338.332031 319.066406 340.78125 316.199219 343.15625 C 316.042969 343.203125 315.902344 343.253906 315.753906 343.292969 Z M 325.941406 335.511719 C 329.308594 334.683594 332.667969 333.816406 336.015625 332.894531 C 338.027344 332.347656 340.015625 331.710938 342.015625 331.121094 C 339.121094 333.386719 336.175781 335.59375 333.175781 337.742188 C 328.078125 339.496094 322.945312 341.15625 317.773438 342.675781 C 320.554688 340.335938 323.277344 337.949219 325.941406 335.515625 Z M 335.753906 331.945312 C 333.023438 332.699219 330.277344 333.367188 327.53125 334.058594 C 330.179688 331.59375 332.785156 329.097656 335.3125 326.53125 C 341.070312 325.320312 346.792969 323.957031 352.5 322.492188 C 349.746094 324.871094 346.949219 327.199219 344.101562 329.480469 C 341.324219 330.320312 338.550781 331.175781 335.753906 331.949219 Z M 354.019531 322.109375 C 354.6875 321.9375 355.359375 321.785156 356.027344 321.605469 C 360.496094 320.417969 364.941406 319.148438 369.363281 317.796875 C 366.511719 319.953125 363.613281 322.058594 360.664062 324.117188 C 355.773438 325.839844 350.835938 327.4375 345.875 328.957031 C 348.640625 326.726562 351.355469 324.445312 354.023438 322.113281 Z M 355.753906 320.59375 L 355.738281 320.597656 C 358.425781 318.210938 361.066406 315.777344 363.652344 313.296875 C 367.789062 312.359375 371.917969 311.382812 376.03125 310.324219 C 377.476562 309.949219 378.898438 309.519531 380.339844 309.128906 C 377.566406 311.425781 374.753906 313.679688 371.890625 315.886719 C 366.542969 317.558594 361.171875 319.152344 355.753906 320.597656 Z M 382.128906 308.636719 C 387.097656 307.273438 392.035156 305.824219 396.945312 304.289062 C 394.160156 306.328125 391.34375 308.328125 388.496094 310.285156 C 383.707031 312.011719 378.882812 313.652344 374.027344 315.199219 C 376.769531 313.054688 379.46875 310.867188 382.128906 308.640625 Z M 384.132812 306.925781 C 386.777344 304.664062 389.378906 302.363281 391.933594 300.015625 C 393.300781 299.6875 394.675781 299.382812 396.042969 299.042969 C 400.050781 298.039062 404.042969 296.960938 408.023438 295.847656 C 405.308594 298.011719 402.554688 300.140625 399.757812 302.234375 C 394.582031 303.898438 389.375 305.460938 384.132812 306.925781 Z M 410.042969 295.285156 C 414.792969 293.933594 419.519531 292.5 424.21875 290.984375 C 421.539062 292.894531 418.839844 294.789062 416.109375 296.625 C 411.472656 298.328125 406.804688 299.949219 402.109375 301.492188 C 404.789062 299.457031 407.4375 297.398438 410.042969 295.289062 Z M 412.300781 293.40625 C 425.753906 282.347656 438.175781 270.230469 449.5625 257.050781 C 484.292969 216.660156 500.644531 174.136719 492.230469 146.070312 C 489.804688 138.007812 486.097656 133.203125 480.878906 131.382812 C 467.597656 126.738281 445.636719 142.035156 415.253906 163.199219 C 378.996094 188.453125 329.34375 223.042969 268.125 241.394531 C 207.941406 259.425781 147.765625 258.976562 99.421875 258.605469 C 93.628906 258.5625 88.074219 258.53125 82.761719 258.515625 C 73.546875 252.742188 64.855469 246.265625 56.691406 239.082031 C 70.5 238.273438 87.457031 238.59375 106.769531 238.964844 C 158.574219 239.964844 223.050781 241.207031 287.839844 222.609375 C 353.746094 203.675781 407.402344 167.230469 446.578125 140.613281 C 479.128906 118.492188 502.652344 102.507812 516.390625 107.476562 C 521.664062 109.382812 525.390625 114.375 527.792969 122.734375 C 536.367188 152.582031 518.40625 197.574219 480.929688 240.128906 C 464.882812 258.269531 447.058594 274.457031 427.457031 288.6875 C 422.433594 290.355469 417.382812 291.929688 412.300781 293.410156 Z M 481.609375 240.738281 C 519.289062 197.941406 537.320312 152.625 528.667969 122.476562 C 526.179688 113.816406 522.265625 108.625 516.691406 106.609375 C 502.507812 101.484375 478.832031 117.574219 446.050781 139.859375 C 406.925781 166.441406 353.339844 202.847656 287.578125 221.730469 C 222.925781 240.289062 158.523438 239.054688 106.773438 238.058594 C 87.058594 237.675781 69.777344 237.347656 55.753906 238.246094 C 49.742188 232.875 44.253906 227.019531 39.285156 220.671875 C 41.195312 220.226562 43.195312 219.835938 45.34375 219.507812 C 61.980469 216.957031 85.667969 217.652344 114.113281 218.492188 C 169.328125 220.121094 238.035156 222.144531 307.300781 203.019531 C 377.761719 183.566406 435.34375 145.292969 477.390625 117.347656 C 512.335938 94.121094 537.574219 77.347656 552.164062 82.785156 C 557.765625 84.875 561.683594 90.234375 564.152344 99.171875 C 572.960938 131.082031 553.332031 178.835938 512.925781 223.808594 C 492.398438 246.507812 469.328125 266.238281 443.71875 282.996094 C 439.234375 284.664062 434.726562 286.265625 430.191406 287.792969 C 448.988281 273.921875 466.128906 258.238281 481.609375 240.738281 Z M 513.660156 224.4375 C 554.289062 179.222656 574 131.113281 565.101562 98.886719 C 562.546875 89.625 558.425781 84.046875 552.511719 81.84375 C 537.464844 76.222656 512.039062 93.117188 476.851562 116.503906 C 434.851562 144.414062 377.351562 182.636719 307.042969 202.050781 C 237.925781 221.132812 169.292969 219.109375 114.144531 217.484375 C 81.742188 216.53125 55.492188 215.761719 38.628906 219.808594 C 34.945312 215.003906 31.757812 209.890625 29.070312 204.464844 C 34.824219 201.25 40.976562 199.273438 47.527344 198.535156 C 65.261719 195.816406 90.753906 196.796875 121.476562 197.980469 C 180.09375 200.234375 253.039062 203.039062 326.785156 183.394531 C 401.789062 163.410156 463.308594 123.320312 508.222656 94.035156 C 545.550781 69.707031 572.53125 52.125 587.957031 58.046875 C 593.882812 60.320312 597.992188 66.050781 600.527344 75.566406 C 609.570312 109.53125 588.269531 160.058594 544.933594 207.417969 C 532.40625 221.007812 518.960938 233.617188 504.597656 245.253906 C 490.238281 256.886719 475.109375 267.421875 459.21875 276.855469 C 455.375 278.453125 451.507812 280 447.621094 281.496094 C 471.980469 265.195312 493.992188 246.179688 513.660156 224.449219 Z M 37.410156 220.144531 C 34.097656 220.960938 30.9375 222.179688 27.9375 223.800781 C 25.75 219.550781 24.046875 215.113281 22.820312 210.496094 C 23.148438 209.949219 23.511719 209.421875 23.902344 208.917969 C 25.105469 207.441406 26.496094 206.167969 28.070312 205.097656 C 30.707031 210.40625 33.820312 215.421875 37.410156 220.144531 Z M 38.039062 220.953125 C 42.90625 227.226562 48.28125 233.027344 54.164062 238.359375 C 49.03125 238.683594 43.9375 239.335938 38.886719 240.316406 C 34.84375 235.441406 31.335938 230.210938 28.367188 224.617188 C 31.433594 222.972656 34.65625 221.75 38.039062 220.949219 Z M 37.6875 240.566406 C 34.097656 241.304688 30.648438 242.457031 27.339844 244.03125 C 24.945312 239.734375 23.070312 235.222656 21.71875 230.496094 C 21.921875 230.195312 22.101562 229.878906 22.328125 229.589844 C 23.769531 227.824219 25.472656 226.359375 27.433594 225.199219 C 30.34375 230.664062 33.761719 235.792969 37.6875 240.578125 Z M 38.316406 241.332031 C 43.722656 247.78125 49.671875 253.6875 56.160156 259.050781 C 50.535156 259.3125 44.941406 259.898438 39.382812 260.800781 C 34.941406 255.890625 31.070312 250.5625 27.773438 244.820312 C 31.144531 243.222656 34.660156 242.0625 38.316406 241.339844 Z M 38.191406 261.003906 C 34.273438 261.671875 30.488281 262.78125 26.828125 264.324219 C 24.1875 259.964844 22.121094 255.351562 20.628906 250.484375 C 20.675781 250.417969 20.710938 250.34375 20.761719 250.277344 C 22.4375 248.1875 24.460938 246.527344 26.835938 245.292969 C 30.070312 250.925781 33.855469 256.164062 38.191406 261.003906 Z M 38.832031 261.742188 C 44.878906 268.363281 51.492188 274.363281 58.671875 279.730469 C 51.800781 280.03125 45.613281 280.523438 40.164062 281.308594 C 35.25 276.367188 30.949219 270.9375 27.261719 265.023438 C 30.992188 263.480469 34.847656 262.390625 38.832031 261.746094 Z M 38.996094 281.46875 C 34.707031 282.066406 30.527344 283.109375 26.464844 284.597656 C 23.546875 280.210938 21.25 275.527344 19.570312 270.539062 C 21.460938 268.335938 23.730469 266.640625 26.382812 265.457031 C 29.992188 271.261719 34.191406 276.601562 38.984375 281.480469 Z M 39.242188 282.207031 C 39.375 282.183594 39.519531 282.164062 39.652344 282.140625 C 46.449219 288.933594 53.84375 295 61.835938 300.332031 C 54.25 300.628906 47.375 301.074219 41.339844 301.804688 C 35.871094 296.859375 31.054688 291.34375 26.894531 285.261719 C 30.898438 283.804688 35.011719 282.789062 39.234375 282.214844 Z M 40.15625 301.957031 C 35.425781 302.496094 30.796875 303.484375 26.261719 304.925781 C 23.011719 300.515625 20.441406 295.742188 18.542969 290.601562 C 20.65625 288.371094 23.148438 286.703125 26.019531 285.605469 C 30.097656 291.605469 34.808594 297.054688 40.15625 301.957031 Z M 37.460938 303.046875 C 38.550781 302.878906 39.710938 302.738281 40.867188 302.59375 C 48.515625 309.496094 56.785156 315.550781 65.667969 320.761719 C 57.269531 321.136719 49.660156 321.582031 42.953125 322.28125 C 36.835938 317.363281 31.414062 311.773438 26.6875 305.503906 C 30.203125 304.386719 33.785156 303.570312 37.4375 303.050781 Z M 41.789062 322.40625 C 36.527344 322.90625 31.34375 323.847656 26.238281 325.230469 C 22.59375 320.796875 19.691406 315.921875 17.535156 310.601562 C 19.960938 308.394531 22.734375 306.792969 25.863281 305.808594 C 30.488281 311.988281 35.789062 317.523438 41.769531 322.40625 Z M 35.898438 323.8125 C 37.960938 323.496094 40.1875 323.226562 42.484375 322.984375 C 51.082031 329.902344 60.308594 335.847656 70.15625 340.824219 L 69.953125 340.839844 C 60.808594 341.402344 52.464844 341.917969 45.074219 342.632812 C 38.203125 337.8125 32.066406 332.191406 26.664062 325.773438 C 29.691406 324.925781 32.761719 324.273438 35.871094 323.816406 Z M 43.910156 342.75 C 38.03125 343.257812 32.222656 344.183594 26.476562 345.519531 C 22.375 341.121094 19.082031 336.183594 16.597656 330.703125 C 19.34375 328.476562 22.429688 326.910156 25.847656 326.003906 C 31.140625 332.363281 37.152344 337.945312 43.886719 342.753906 Z M 277.792969 366.148438 C 282.28125 364.707031 286.726562 363.144531 291.140625 361.5 C 288.078125 363.472656 284.976562 365.378906 281.832031 367.21875 C 277.664062 369.070312 273.453125 370.820312 269.203125 372.460938 C 272.101562 370.425781 274.957031 368.316406 277.773438 366.152344 Z M 279.695312 364.683594 C 282.617188 362.386719 285.496094 360.046875 288.296875 357.628906 C 290.875 356.921875 293.457031 356.226562 296.023438 355.457031 C 298.484375 354.71875 300.921875 353.910156 303.367188 353.117188 C 300.363281 355.304688 297.304688 357.449219 294.195312 359.519531 C 289.398438 361.367188 284.558594 363.089844 279.675781 364.6875 Z M 305.300781 352.496094 C 309.511719 351.09375 313.703125 349.632812 317.851562 348.066406 C 315.046875 349.824219 312.210938 351.53125 309.332031 353.191406 C 305.191406 355.042969 301.023438 356.835938 296.789062 358.511719 C 299.671875 356.5625 302.511719 354.554688 305.300781 352.496094 Z M 307.5 350.875 C 310.386719 348.695312 313.226562 346.460938 316.015625 344.175781 C 320.882812 342.777344 325.707031 341.242188 330.507812 339.636719 C 327.5625 341.707031 324.574219 343.726562 321.542969 345.695312 C 316.894531 347.515625 312.21875 349.265625 307.492188 350.878906 Z M 332.9375 338.796875 C 336.980469 337.414062 341 335.957031 344.988281 334.429688 C 342.238281 336.117188 339.449219 337.75 336.640625 339.355469 C 332.753906 341.101562 328.828125 342.773438 324.871094 344.367188 C 327.589844 342.554688 330.277344 340.699219 332.929688 338.796875 Z M 335.609375 336.90625 C 338.425781 334.835938 341.199219 332.722656 343.929688 330.558594 C 348.554688 329.171875 353.152344 327.699219 357.722656 326.140625 C 354.820312 328.121094 351.886719 330.054688 348.914062 331.9375 C 344.511719 333.683594 340.074219 335.34375 335.59375 336.910156 Z M 360.433594 325.226562 C 364.199219 323.910156 367.9375 322.515625 371.660156 321.078125 C 369.007812 322.679688 366.316406 324.207031 363.613281 325.726562 C 360.074219 327.320312 356.507812 328.851562 352.910156 330.324219 C 355.441406 328.671875 357.945312 326.96875 360.425781 325.234375 Z M 363.5625 323.054688 C 366.304688 321.09375 369.015625 319.09375 371.691406 317.050781 C 376.09375 315.683594 380.46875 314.246094 384.816406 312.734375 C 382.050781 314.578125 379.253906 316.378906 376.429688 318.136719 C 372.167969 319.855469 367.875 321.5 363.558594 323.0625 Z M 388.199219 311.503906 C 391.609375 310.285156 395.011719 309.042969 398.386719 307.730469 C 396.070312 309.09375 393.726562 310.417969 391.367188 311.734375 C 388 313.257812 384.609375 314.734375 381.195312 316.15625 C 383.554688 314.652344 385.878906 313.085938 388.195312 311.515625 Z M 391.640625 309.140625 C 394.304688 307.277344 396.957031 305.398438 399.558594 303.460938 C 403.761719 302.113281 407.945312 300.703125 412.105469 299.222656 C 409.460938 300.941406 406.804688 302.640625 404.109375 304.292969 C 399.976562 305.980469 395.820312 307.605469 391.636719 309.160156 Z M 415.804688 297.910156 C 418.992188 296.75 422.15625 295.53125 425.3125 294.292969 C 423.183594 295.527344 421.042969 296.75 418.882812 297.945312 C 415.613281 299.429688 412.335938 300.910156 409.023438 302.320312 C 411.300781 300.878906 413.558594 299.410156 415.796875 297.917969 Z M 419.566406 295.359375 C 422.125 293.605469 424.675781 291.847656 427.175781 290.03125 C 431.15625 288.726562 435.113281 287.363281 439.050781 285.941406 C 436.554688 287.53125 434.050781 289.117188 431.515625 290.652344 C 427.558594 292.285156 423.570312 293.855469 419.5625 295.367188 Z M 443.355469 284.371094 C 446.167969 283.328125 448.972656 282.253906 451.765625 281.15625 C 449.882812 282.222656 448.015625 283.308594 446.117188 284.347656 C 443.257812 285.652344 440.355469 286.871094 437.460938 288.113281 C 439.425781 286.882812 441.402344 285.652344 443.347656 284.378906 Z M 465.480469 274.21875 C 480.296875 265.089844 494.425781 254.992188 507.863281 243.925781 C 521.296875 232.859375 533.914062 220.929688 545.714844 208.132812 C 589.292969 160.507812 610.6875 109.609375 601.546875 75.289062 C 598.917969 65.433594 594.589844 59.472656 588.335938 57.066406 C 572.398438 50.960938 545.25 68.652344 507.65625 93.15625 C 462.796875 122.390625 401.359375 162.429688 326.511719 182.371094 C 252.921875 201.988281 180.0625 199.179688 121.523438 196.941406 C 77.46875 195.242188 44.113281 193.957031 28.613281 203.488281 C 26.671875 199.433594 25.144531 195.230469 24.027344 190.875 C 23.992188 190.734375 23.976562 190.605469 23.941406 190.46875 C 24.394531 189.683594 24.902344 188.9375 25.472656 188.234375 C 30.0625 182.589844 38.351562 179.324219 49.742188 177.578125 C 68.570312 174.691406 95.851562 175.960938 128.835938 177.492188 C 190.851562 180.375 268.03125 183.964844 346.25 163.796875 C 425.808594 143.285156 491.261719 101.371094 539.054688 70.765625 C 578.769531 45.332031 607.464844 26.949219 623.75 33.355469 C 630 35.8125 634.304688 41.910156 636.902344 52 C 646.195312 88.027344 623.21875 141.324219 576.949219 191.085938 C 562.011719 207.003906 545.894531 221.621094 528.601562 234.941406 C 511.308594 248.265625 493.0625 260.117188 473.859375 270.496094 C 471.078125 271.765625 468.28125 273.007812 465.472656 274.226562 Z M 22.054688 211.886719 C 23.277344 216.191406 24.910156 220.335938 26.957031 224.320312 C 24.875 225.550781 23.078125 227.109375 21.558594 228.988281 C 21.492188 229.070312 21.449219 229.160156 21.386719 229.242188 C 19.582031 222.128906 19.8125 216.410156 22.054688 211.886719 Z M 20.976562 231.675781 C 22.332031 236.164062 24.148438 240.453125 26.429688 244.550781 C 24.0625 245.773438 22.023438 247.398438 20.304688 249.433594 C 20.296875 249.394531 20.277344 249.355469 20.269531 249.320312 C 18.242188 241.980469 18.476562 236.183594 20.976562 231.675781 Z M 19.019531 268.800781 C 16.9375 261.558594 17.25 255.902344 19.925781 251.550781 C 21.417969 256.164062 23.410156 260.550781 25.914062 264.707031 C 23.359375 265.882812 21.148438 267.515625 19.269531 269.609375 C 19.195312 269.34375 19.09375 269.074219 19.019531 268.800781 Z M 17.761719 288.285156 C 15.617188 281.132812 16.003906 275.621094 18.894531 271.429688 C 20.566406 276.222656 22.804688 280.738281 25.605469 284.972656 C 22.820312 286.054688 20.367188 287.652344 18.246094 289.757812 C 18.085938 289.269531 17.910156 288.777344 17.761719 288.285156 Z M 16.507812 307.769531 C 14.351562 300.90625 14.714844 295.636719 17.617188 291.648438 C 17.695312 291.535156 17.800781 291.445312 17.882812 291.339844 C 19.765625 296.300781 22.277344 300.925781 25.410156 305.214844 C 22.363281 306.207031 19.636719 307.765625 17.238281 309.886719 C 16.984375 309.183594 16.730469 308.476562 16.507812 307.769531 Z M 15.257812 327.257812 C 13.164062 320.945312 13.425781 316.0625 16.054688 312.335938 C 16.335938 311.96875 16.632812 311.617188 16.949219 311.285156 C 19.078125 316.421875 21.898438 321.148438 25.410156 325.464844 C 22.070312 326.386719 19.046875 327.925781 16.335938 330.082031 C 15.933594 329.140625 15.566406 328.199219 15.257812 327.257812 Z M 14.003906 346.742188 C 11.972656 340.972656 12.128906 336.484375 14.484375 333.015625 C 14.9375 332.359375 15.449219 331.753906 16.027344 331.199219 C 18.472656 336.550781 21.6875 341.390625 25.671875 345.722656 C 21.980469 346.5625 18.574219 348.054688 15.449219 350.199219 C 14.914062 349.042969 14.410156 347.902344 14 346.734375 Z M 215.761719 400.054688 C 205.402344 403.984375 194.820312 407.171875 184.011719 409.617188 C 173.207031 412.058594 162.28125 413.730469 151.238281 414.636719 C 140.195312 415.539062 129.144531 415.667969 118.085938 415.015625 C 107.023438 414.367188 96.0625 412.945312 85.203125 410.75 C 47.878906 402.828125 20.117188 385.769531 12.746094 366.21875 C 10.78125 361 10.839844 356.902344 12.914062 353.691406 C 13.554688 352.753906 14.3125 351.925781 15.191406 351.207031 C 25.082031 371.289062 53.953125 388.921875 92.214844 397.925781 C 107.964844 401.53125 123.917969 403.613281 140.066406 404.171875 C 156.214844 404.730469 172.269531 403.753906 188.234375 401.246094 C 204.519531 398.757812 220.429688 394.78125 235.972656 389.320312 C 240.753906 387.636719 245.46875 385.785156 250.140625 383.828125 C 239.109375 390.144531 227.648438 395.554688 215.761719 400.054688 Z M 259.058594 379.179688 C 261.601562 377.585938 264.109375 375.949219 266.589844 374.265625 C 269.867188 373.035156 273.121094 371.738281 276.347656 370.382812 C 270.703125 373.519531 264.9375 376.445312 259.054688 379.171875 Z M 287.261719 364.734375 C 289.539062 363.328125 291.796875 361.890625 294.027344 360.425781 C 296.957031 359.300781 299.851562 358.125 302.738281 356.917969 C 297.667969 359.671875 292.5 362.265625 287.261719 364.726562 Z M 315.164062 350.554688 C 317.230469 349.28125 319.289062 348.011719 321.324219 346.707031 C 323.695312 345.78125 326.066406 344.859375 328.414062 343.882812 C 324.050781 346.191406 319.640625 348.429688 315.160156 350.542969 Z M 344.121094 335.878906 C 345.664062 334.941406 347.179688 333.976562 348.703125 333.007812 C 350.726562 332.210938 352.734375 331.394531 354.738281 330.554688 C 351.234375 332.382812 347.695312 334.15625 344.121094 335.867188 Z M 372.390625 321.644531 C 373.640625 320.890625 374.875 320.113281 376.113281 319.347656 C 377.730469 318.699219 379.332031 318.019531 380.9375 317.351562 C 378.105469 318.800781 375.265625 320.257812 372.386719 321.636719 Z M 400.984375 307.242188 C 401.921875 306.683594 402.855469 306.125 403.785156 305.558594 C 404.8125 305.144531 405.84375 304.742188 406.863281 304.320312 C 404.914062 305.308594 402.957031 306.289062 400.988281 307.25 Z M 430.027344 292.667969 C 430.421875 292.4375 430.816406 292.210938 431.203125 291.980469 C 431.628906 291.804688 432.0625 291.648438 432.488281 291.472656 C 431.671875 291.878906 430.851562 292.265625 430.027344 292.667969 Z M 608.949219 174.730469 C 591.527344 193.007812 572.644531 209.628906 552.300781 224.59375 C 531.957031 239.558594 510.464844 252.632812 487.824219 263.820312 C 504.457031 254.03125 520.304688 243.109375 535.371094 231.050781 C 550.4375 218.992188 564.566406 205.921875 577.761719 191.84375 C 624.289062 141.816406 647.359375 88.109375 637.976562 51.71875 C 635.28125 41.261719 630.753906 34.914062 624.148438 32.316406 C 607.347656 25.71875 578.441406 44.214844 538.449219 69.828125 C 490.722656 100.390625 425.359375 142.25 345.972656 162.71875 C 267.914062 182.847656 190.828125 179.261719 128.890625 176.382812 C 75.625 173.90625 37.136719 172.113281 24.605469 187.53125 C 24.242188 187.984375 23.9375 188.46875 23.617188 188.945312 C 21.671875 179.761719 22.769531 172.730469 27.039062 167.550781 C 31.824219 161.75 40.332031 158.382812 51.984375 156.597656 C 71.898438 153.546875 100.964844 155.109375 136.191406 157 C 201.617188 160.515625 283.03125 164.890625 365.71875 144.195312 C 449.828125 123.148438 519.210938 79.414062 569.871094 47.488281 C 611.976562 20.949219 642.398438 1.777344 659.523438 8.648438 C 666.101562 11.285156 670.597656 17.75 673.265625 28.417969 C 682.804688 66.507812 658.15625 122.570312 608.949219 174.730469 Z M 608.949219 174.730469 " fill-opacity="1" fill-rule="nonzero"/></g></g></g></g></g></g><g mask="url(#9188ebd218)"><g transform="matrix(1, 0, 0, 1, 772, -0.000000000000042435)"><g clip-path="url(#7b59eeac80)"><g clip-path="url(#ca57e74f78)"><g clip-path="url(#f22fb7ac2d)"><g clip-path="url(#1fe0de233a)"><path fill="#09515a" d="M 98.988281 493.238281 C 103.613281 503.652344 109.433594 509.472656 116.757812 511.027344 C 135.390625 514.976562 162.261719 490.6875 199.433594 457.074219 C 243.792969 416.960938 304.539062 362.023438 383.605469 326.90625 C 461.332031 292.386719 542.199219 282.691406 607.171875 274.921875 C 663.042969 268.226562 703.417969 263.402344 713.773438 245.167969 C 717.429688 238.738281 717.1875 230.921875 713.070312 221.320312 C 714.929688 215.757812 714.171875 209.230469 710.703125 201.46875 C 712.746094 195.992188 711.988281 189.535156 708.425781 181.832031 C 708.378906 181.738281 708.328125 181.644531 708.285156 181.550781 C 710.476562 176.238281 709.8125 169.980469 706.25 162.445312 C 706.125 162.183594 705.980469 161.925781 705.851562 161.667969 C 708.210938 156.515625 707.648438 150.425781 704.0625 143.058594 C 703.855469 142.632812 703.628906 142.230469 703.410156 141.8125 C 703.421875 141.789062 703.441406 141.773438 703.453125 141.746094 C 705.992188 136.757812 705.484375 130.851562 701.890625 123.667969 C 701.582031 123.054688 701.246094 122.453125 700.910156 121.847656 C 701.070312 121.578125 701.261719 121.335938 701.394531 121.0625 C 703.691406 116.394531 703.148438 110.90625 699.710938 104.28125 C 699.304688 103.492188 698.867188 102.707031 698.402344 101.933594 C 698.746094 101.4375 699.054688 100.917969 699.328125 100.378906 C 701.375 96.035156 700.796875 90.96875 697.53125 84.894531 C 697.015625 83.929688 696.441406 82.988281 695.828125 82.054688 C 696.390625 81.320312 696.867188 80.535156 697.261719 79.699219 C 699.070312 75.675781 698.449219 71.03125 695.347656 65.507812 C 694.6875 64.347656 693.96875 63.222656 693.191406 62.136719 C 694.019531 61.199219 694.6875 60.160156 695.195312 59.015625 C 696.773438 55.308594 696.113281 51.089844 693.175781 46.117188 C 682.457031 27.953125 651.984375 15.808594 613.660156 14.433594 C 599.824219 14.007812 586.0625 14.820312 572.371094 16.871094 C 558.683594 18.925781 545.285156 22.183594 532.183594 26.648438 C 517.402344 31.613281 503.242188 37.953125 489.703125 45.679688 C 476.160156 53.402344 463.492188 62.359375 451.699219 72.554688 C 443.261719 78.183594 435.175781 84.277344 427.4375 90.832031 C 418.9375 96.511719 410.761719 102.625 402.910156 109.171875 C 394.351562 114.917969 386.085938 121.0625 378.175781 127.585938 C 369.867188 133.195312 361.835938 139.148438 354.085938 145.449219 C 345.484375 151.246094 337.1875 157.441406 329.15625 163.929688 C 320.648438 169.699219 312.398438 175.78125 304.40625 182.1875 C 296 187.902344 287.828125 193.910156 279.890625 200.203125 C 271.296875 206.054688 262.9375 212.195312 254.8125 218.625 C 243.230469 226.480469 232.054688 234.875 221.285156 243.804688 C 210.511719 252.738281 200.195312 262.167969 190.332031 272.09375 C 180.472656 282.019531 171.109375 292.398438 162.246094 303.226562 C 153.386719 314.054688 145.0625 325.285156 137.285156 336.914062 C 97.5625 397.089844 82.890625 456.992188 98.988281 493.238281 Z M 712.375 219.757812 C 710.542969 215.835938 708.371094 212.113281 705.855469 208.59375 C 707.355469 207.183594 708.621094 205.582031 709.648438 203.796875 C 709.8125 203.492188 709.933594 203.167969 710.078125 202.863281 C 711.378906 205.476562 712.226562 208.226562 712.621094 211.121094 C 713.011719 214.011719 712.929688 216.890625 712.375 219.757812 Z M 451.367188 77.238281 C 498.589844 51.878906 552.847656 40.070312 604.148438 43.984375 C 637.167969 46.515625 664.964844 55.566406 682.21875 68.773438 C 679.976562 69.757812 677.496094 70.707031 674.769531 71.621094 C 671.851562 72.605469 668.644531 73.558594 665.226562 74.507812 C 647.617188 65.984375 625.023438 60.050781 599.480469 57.699219 C 589.140625 56.8125 578.78125 56.464844 568.402344 56.652344 C 558.023438 56.839844 547.683594 57.5625 537.382812 58.824219 C 527.078125 60.082031 516.871094 61.871094 506.753906 64.1875 C 496.636719 66.503906 486.664062 69.339844 476.839844 72.691406 C 461.84375 77.738281 447.316406 83.894531 433.257812 91.160156 L 433.183594 91.199219 C 435.769531 88.421875 438.417969 85.703125 441.136719 83.046875 C 444.519531 81.039062 447.914062 79.09375 451.367188 77.238281 Z M 443.433594 80.859375 C 446.121094 78.304688 448.859375 75.796875 451.667969 73.359375 C 457.34375 69.5625 463.152344 65.960938 469.117188 62.613281 C 479.695312 56.644531 490.644531 51.441406 501.957031 47.011719 C 513.269531 42.582031 524.835938 38.964844 536.660156 36.164062 C 548.480469 33.363281 560.441406 31.40625 572.539062 30.289062 C 584.636719 29.171875 596.753906 28.90625 608.890625 29.496094 C 648.035156 31.765625 679.402344 44.144531 692.417969 62.136719 C 689.675781 64.863281 686.515625 66.960938 682.9375 68.421875 C 665.582031 55.011719 637.535156 45.816406 604.203125 43.269531 C 585.765625 41.972656 567.382812 42.515625 549.054688 44.898438 C 530.726562 47.28125 512.816406 51.457031 495.320312 57.425781 C 480.015625 62.574219 465.25 68.96875 451.023438 76.605469 C 448.464844 77.980469 445.945312 79.410156 443.433594 80.859375 Z M 594.664062 72.960938 C 609.277344 74.441406 623.636719 77.234375 637.738281 81.34375 C 628.066406 83.65625 617.785156 86.144531 607.105469 89.066406 C 601.558594 88.066406 595.863281 87.222656 590.023438 86.527344 C 577.394531 85.132812 564.726562 84.4375 552.019531 84.433594 C 539.3125 84.433594 526.644531 85.125 514.015625 86.515625 C 501.386719 87.902344 488.871094 89.976562 476.46875 92.738281 C 464.066406 95.5 451.851562 98.933594 439.824219 103.035156 C 431.730469 105.761719 423.730469 108.8125 415.832031 112.109375 C 418.050781 109.089844 420.347656 106.113281 422.71875 103.183594 C 476.808594 77.675781 537.550781 66.921875 594.664062 72.957031 Z M 423.980469 101.65625 C 426.421875 98.703125 428.976562 95.8125 431.5625 92.976562 C 432.253906 92.613281 432.929688 92.222656 433.617188 91.863281 C 485.109375 65.226562 543.996094 53.367188 599.410156 58.476562 C 624.480469 60.789062 646.695312 66.546875 664.089844 74.820312 C 657.113281 76.722656 649.199219 78.617188 640.566406 80.679688 L 639.378906 80.960938 C 624.785156 76.59375 609.910156 73.644531 594.753906 72.109375 C 583.265625 70.976562 571.753906 70.457031 560.210938 70.554688 C 548.667969 70.648438 537.164062 71.359375 525.699219 72.6875 C 514.234375 74.015625 502.871094 75.949219 491.613281 78.488281 C 480.355469 81.03125 469.261719 84.164062 458.339844 87.890625 C 446.628906 91.84375 435.175781 96.429688 423.976562 101.652344 Z M 642.910156 163.566406 C 630.035156 158.285156 616.839844 153.984375 603.328125 150.652344 C 612.378906 148.902344 621.144531 147.316406 629.519531 145.8125 L 633.953125 145.011719 C 644.917969 148.851562 655.488281 153.574219 665.667969 159.183594 C 658.792969 160.703125 651.183594 162.128906 642.910156 163.566406 Z M 666.777344 159.816406 C 674.234375 164 681.242188 168.828125 687.804688 174.308594 C 686.667969 174.746094 685.5 175.167969 684.273438 175.582031 C 680.808594 176.746094 676.972656 177.820312 672.816406 178.835938 C 663.71875 173.1875 654.226562 168.300781 644.34375 164.179688 C 652.480469 162.75 660.019531 161.332031 666.777344 159.816406 Z M 571.175781 100.453125 C 561.941406 103.867188 552.644531 107.769531 543.421875 112.265625 C 519.542969 111.539062 495.785156 112.933594 472.15625 116.453125 C 448.527344 119.976562 425.394531 125.566406 402.765625 133.222656 C 402.472656 133.320312 402.179688 133.421875 401.886719 133.519531 C 403.691406 130.355469 405.582031 127.230469 407.558594 124.144531 C 420.539062 119.160156 433.757812 114.910156 447.214844 111.402344 C 460.671875 107.890625 474.28125 105.136719 488.042969 103.144531 C 501.804688 101.152344 515.636719 99.929688 529.535156 99.480469 C 543.433594 99.03125 557.3125 99.355469 571.175781 100.453125 Z M 408.441406 122.765625 C 410.460938 119.660156 412.5625 116.601562 414.75 113.589844 C 470.554688 89.9375 532.078125 80.640625 589.914062 87.429688 C 595.078125 88.035156 600.136719 88.765625 605.082031 89.617188 C 594.769531 92.476562 584.128906 95.753906 573.378906 99.648438 C 560.558594 98.546875 547.714844 98.109375 534.847656 98.335938 C 521.980469 98.558594 509.160156 99.449219 496.386719 101.003906 C 483.613281 102.554688 470.953125 104.761719 458.40625 107.625 C 445.859375 110.488281 433.496094 113.992188 421.3125 118.132812 C 416.988281 119.605469 412.707031 121.160156 408.441406 122.769531 Z M 554.859375 142.117188 C 543.375 140.84375 531.789062 140.019531 520.128906 139.714844 C 528.964844 135.246094 537.875 131.316406 546.785156 127.828125 C 556.492188 128.488281 566.125 129.507812 575.683594 130.894531 C 580.027344 131.523438 584.296875 132.226562 588.496094 133 C 577.539062 135.609375 566.273438 138.585938 554.863281 142.121094 Z M 590.21875 133.328125 C 604.570312 135.996094 618.648438 139.710938 632.453125 144.472656 L 629.386719 145.027344 C 620.496094 146.632812 611.15625 148.328125 601.503906 150.210938 C 591.789062 147.84375 581.664062 145.84375 571.121094 144.21875 C 566.324219 143.488281 561.496094 142.867188 556.652344 142.308594 C 568.046875 138.832031 579.285156 135.902344 590.210938 133.335938 Z M 541.402344 113.242188 C 536.039062 115.914062 530.703125 118.773438 525.429688 121.886719 C 523.25 123.171875 521.121094 124.496094 519.003906 125.835938 C 498.164062 125.917969 477.441406 127.519531 456.835938 130.644531 C 436.230469 133.765625 415.964844 138.378906 396.035156 144.476562 C 396.273438 144 396.484375 143.523438 396.726562 143.046875 C 398.113281 140.308594 399.578125 137.605469 401.085938 134.917969 C 423.640625 127.152344 446.703125 121.449219 470.277344 117.808594 C 493.851562 114.167969 517.558594 112.648438 541.40625 113.246094 Z M 517.289062 126.933594 C 510.980469 131.003906 504.972656 135.296875 499.238281 139.730469 C 462.492188 140.59375 426.394531 145.882812 390.945312 155.589844 C 392.28125 152.402344 393.757812 149.167969 395.339844 145.921875 C 415.097656 139.804688 435.191406 135.160156 455.625 131.976562 C 476.058594 128.796875 496.613281 127.117188 517.292969 126.9375 Z M 412.558594 227.039062 C 406.234375 232.691406 400.804688 235.878906 396.050781 235.433594 C 392.289062 235.078125 389.011719 232.457031 386.039062 227.417969 C 376.878906 211.902344 378.691406 185.722656 390.390625 156.984375 C 425.5 147.28125 461.261719 141.925781 497.675781 140.917969 C 471.824219 161.160156 451.6875 184.105469 435.914062 202.070312 L 433.1875 205.175781 C 425.691406 212.816406 418.828125 220.199219 412.558594 227.039062 Z M 498.683594 140.894531 C 504.644531 140.753906 510.59375 140.730469 516.527344 140.828125 C 514.222656 142.035156 511.914062 143.261719 509.621094 144.546875 C 481.976562 160.0625 458.957031 179.699219 439.808594 198.542969 C 455.148438 181.089844 474.414062 159.789062 498.683594 140.894531 Z M 500.242188 139.710938 C 506.003906 135.28125 512.023438 130.988281 518.363281 126.929688 C 527.34375 126.890625 536.289062 127.164062 545.195312 127.753906 C 536.332031 131.265625 527.46875 135.214844 518.691406 139.703125 C 512.554688 139.5625 506.402344 139.585938 500.242188 139.710938 Z M 390.226562 155.796875 C 383.257812 157.714844 376.335938 159.828125 369.453125 162.082031 C 371.179688 158.941406 372.984375 155.835938 374.867188 152.765625 C 381.382812 150.394531 387.957031 148.210938 394.570312 146.164062 C 393.015625 149.394531 391.542969 152.613281 390.226562 155.796875 Z M 389.683594 157.179688 C 378.066406 185.929688 376.328125 212.125 385.53125 227.714844 C 388.609375 232.933594 392.035156 235.648438 395.996094 236.019531 C 400.039062 236.402344 404.511719 234.265625 409.542969 230.324219 C 389.925781 251.710938 375.761719 267.171875 365.054688 265.921875 C 360.941406 265.445312 357.417969 262.492188 354.277344 256.894531 C 343.066406 236.914062 348.332031 201.570312 368.027344 164.660156 C 368.222656 164.292969 368.4375 163.9375 368.632812 163.566406 C 375.597656 161.269531 382.613281 159.140625 389.683594 157.179688 Z M 367.4375 164.355469 C 347.640625 201.460938 342.371094 237.042969 353.683594 257.222656 C 356.933594 263.019531 360.621094 266.082031 364.957031 266.582031 C 370.839844 267.261719 377.660156 263.121094 385.734375 255.875 L 383.1875 258.542969 C 361.402344 281.441406 345.65625 297.984375 334.035156 296.421875 C 329.570312 295.820312 325.792969 292.539062 322.484375 286.378906 C 310.683594 264.410156 317.125 226.050781 339.292969 186.269531 C 342.253906 180.960938 345.421875 175.742188 348.796875 170.613281 C 355.046875 168.222656 361.347656 165.976562 367.699219 163.875 C 367.617188 164.046875 367.53125 164.191406 367.4375 164.355469 Z M 410.042969 230.746094 C 411.167969 229.515625 412.339844 228.246094 413.5 226.976562 C 420.28125 220.492188 426.710938 213.671875 432.789062 206.519531 C 453.3125 185.53125 478.652344 162.675781 509.933594 145.125 C 512.566406 143.644531 515.210938 142.226562 517.867188 140.851562 C 529.355469 141.089844 540.769531 141.808594 552.109375 143 C 531.917969 149.257812 512.484375 157.332031 493.804688 167.222656 C 458.621094 186.125 430.082031 211.167969 407.046875 234.019531 Z M 575.847656 129.796875 C 567.015625 128.515625 558.097656 127.578125 549.132812 126.914062 C 559.699219 122.871094 570.230469 119.433594 580.566406 116.433594 C 595.117188 118.394531 609.441406 121.40625 623.550781 125.46875 C 613.214844 127.523438 602.351562 129.761719 591.132812 132.378906 C 586.132812 131.421875 581.039062 130.5625 575.847656 129.796875 Z M 547.597656 126.808594 C 538.484375 126.171875 529.324219 125.847656 520.121094 125.839844 C 521.96875 124.679688 523.816406 123.519531 525.726562 122.390625 C 531.3125 119.097656 536.96875 116.09375 542.648438 113.296875 C 554.785156 113.667969 566.875 114.648438 578.914062 116.234375 C 568.617188 119.257812 558.117188 122.734375 547.597656 126.808594 Z M 580.570312 115.371094 C 568.738281 113.75 556.757812 112.75 544.699219 112.300781 C 553.988281 107.828125 563.335938 103.953125 572.621094 100.558594 C 576.824219 100.9375 581.011719 101.394531 585.179688 101.921875 C 594.953125 103.164062 604.640625 104.894531 614.238281 107.113281 C 603.691406 109.535156 592.679688 112.265625 581.429688 115.5 C 581.144531 115.460938 580.863281 115.414062 580.574219 115.375 Z M 401.03125 133.832031 C 394.925781 135.917969 388.863281 138.148438 382.851562 140.519531 C 384.949219 137.515625 387.121094 134.558594 389.371094 131.640625 C 395.074219 129.121094 400.835938 126.738281 406.652344 124.496094 C 404.707031 127.570312 402.835938 130.683594 401.035156 133.835938 Z M 400.226562 135.226562 C 398.832031 137.722656 397.492188 140.242188 396.203125 142.78125 C 395.875 143.429688 395.582031 144.074219 395.265625 144.722656 C 391.570312 145.855469 387.890625 147.039062 384.222656 148.265625 C 381.40625 149.214844 378.605469 150.210938 375.804688 151.21875 C 377.703125 148.167969 379.652344 145.144531 381.691406 142.171875 C 387.824219 139.714844 393.996094 137.378906 400.230469 135.230469 Z M 374.832031 151.5625 C 368.964844 153.691406 363.148438 155.964844 357.375 158.355469 C 359.542969 155.429688 361.765625 152.542969 364.050781 149.699219 C 369.519531 147.195312 375.054688 144.851562 380.625 142.597656 C 378.621094 145.550781 376.691406 148.550781 374.835938 151.5625 Z M 373.890625 153.101562 C 372.035156 156.160156 370.25 159.25 368.539062 162.367188 C 367.589844 162.6875 366.628906 162.96875 365.679688 163.289062 C 360.378906 165.074219 355.117188 166.984375 349.882812 168.964844 C 351.871094 165.972656 353.933594 163.023438 356.0625 160.117188 C 361.960938 157.652344 367.90625 155.3125 373.894531 153.105469 Z M 348.710938 169.410156 C 343.09375 171.550781 337.519531 173.8125 331.988281 176.1875 C 334.167969 173.382812 336.398438 170.613281 338.679688 167.882812 C 340.742188 166.910156 342.78125 165.890625 344.859375 164.953125 C 348.128906 163.472656 351.4375 162.082031 354.742188 160.6875 C 352.667969 163.566406 350.660156 166.476562 348.714844 169.417969 Z M 347.660156 171.0625 C 344.492188 175.933594 341.472656 180.882812 338.664062 185.921875 C 316.375 225.914062 309.933594 264.539062 321.859375 286.714844 C 325.28125 293.089844 329.234375 296.492188 333.945312 297.125 C 345.933594 298.742188 361.78125 282.082031 383.71875 259.035156 C 409.898438 231.519531 445.757812 193.847656 494.152344 167.839844 C 513.285156 157.71875 533.203125 149.5 553.90625 143.175781 C 559.613281 143.796875 565.292969 144.53125 570.945312 145.382812 C 580.542969 146.847656 589.808594 148.636719 598.738281 150.757812 C 561.003906 158.230469 518.5625 168.882812 477.996094 189.867188 C 425.105469 217.230469 385.644531 257.425781 356.824219 286.78125 C 332.875 311.171875 315.585938 328.804688 303.027344 326.914062 C 298.210938 326.191406 294.183594 322.574219 290.710938 315.863281 C 278.316406 291.910156 285.933594 250.542969 310.574219 207.886719 C 316.589844 197.53125 323.242188 187.597656 330.527344 178.089844 C 336.195312 175.632812 341.910156 173.289062 347.664062 171.0625 Z M 309.894531 207.492188 C 285.117188 250.367188 277.5 292.03125 290.011719 316.222656 C 293.597656 323.171875 297.828125 326.921875 302.910156 327.683594 C 315.851562 329.628906 333.269531 311.886719 357.382812 287.328125 C 386.164062 258.011719 425.574219 217.867188 478.355469 190.5625 C 519.433594 169.3125 562.46875 158.671875 600.570312 151.195312 C 614.265625 154.457031 627.648438 158.703125 640.71875 163.941406 C 635.886719 164.773438 630.882812 165.609375 625.652344 166.484375 C 577.90625 174.445312 518.492188 184.351562 462.179688 212.53125 C 404.902344 241.195312 361.871094 283.863281 330.457031 315.015625 C 304.34375 340.910156 285.484375 359.621094 272.019531 357.410156 C 266.847656 356.558594 262.566406 352.617188 258.933594 345.347656 C 245.949219 319.402344 254.734375 275.015625 281.863281 229.5 C 291.128906 214.035156 301.675781 199.503906 313.503906 185.902344 C 318.007812 183.722656 322.546875 181.613281 327.117188 179.574219 C 327.769531 179.289062 328.410156 179.015625 329.054688 178.734375 C 322.078125 187.929688 315.691406 197.515625 309.898438 207.492188 Z M 636.109375 144.613281 C 645.019531 142.992188 653.242188 141.453125 660.6875 139.851562 C 668.84375 143.90625 676.539062 148.703125 683.777344 154.234375 C 683.40625 154.359375 683.070312 154.5 682.695312 154.625 C 678.175781 156.148438 672.96875 157.511719 667.253906 158.8125 C 657.261719 153.21875 646.882812 148.484375 636.109375 144.613281 Z M 634.648438 144.078125 C 621 139.25 607.070312 135.460938 592.855469 132.714844 C 604.003906 130.140625 614.800781 127.9375 625.054688 125.902344 C 636.941406 129.378906 648.441406 133.84375 659.5625 139.289062 C 652.027344 140.898438 643.664062 142.441406 634.648438 144.078125 Z M 627.210938 125.476562 L 633.257812 124.28125 C 640.664062 122.824219 647.605469 121.453125 654.050781 120.082031 C 662.988281 123.949219 671.460938 128.660156 679.460938 134.210938 C 674.152344 135.910156 668.015625 137.453125 661.179688 138.9375 C 650.238281 133.484375 638.917969 128.996094 627.210938 125.476562 Z M 633.109375 123.578125 C 630.699219 124.050781 628.242188 124.535156 625.765625 125.027344 C 611.734375 120.875 597.476562 117.777344 582.988281 115.730469 C 594.210938 112.539062 605.183594 109.851562 615.6875 107.453125 C 628.445312 110.417969 640.851562 114.46875 652.902344 119.597656 C 646.75 120.894531 640.128906 122.199219 633.109375 123.578125 Z M 617.867188 106.964844 C 624.4375 105.476562 630.832031 104.089844 636.976562 102.765625 C 640.347656 102.039062 643.59375 101.335938 646.757812 100.640625 C 656.574219 104.226562 665.917969 108.773438 674.800781 114.277344 C 668.898438 116.015625 662.078125 117.632812 654.539062 119.246094 C 642.671875 114.085938 630.445312 109.992188 617.867188 106.964844 Z M 636.839844 102.125 C 630.292969 103.539062 623.457031 105.019531 616.414062 106.617188 C 606.144531 104.167969 595.773438 102.28125 585.300781 100.953125 C 581.808594 100.507812 578.304688 100.117188 574.789062 99.78125 C 585.519531 95.941406 596.136719 92.699219 606.410156 89.875 C 619.777344 92.1875 632.84375 95.636719 645.605469 100.230469 C 642.757812 100.847656 639.851562 101.476562 636.839844 102.125 Z M 608.457031 89.320312 C 619.0625 86.441406 629.28125 83.972656 638.867188 81.6875 C 649.59375 84.851562 659.871094 89.101562 669.703125 94.4375 C 663.128906 96.28125 655.585938 98.035156 647.265625 99.863281 C 634.636719 95.214844 621.703125 91.699219 608.457031 89.320312 Z M 414.769531 112.582031 C 409.519531 114.800781 404.320312 117.125 399.183594 119.59375 C 401.652344 116.746094 404.210938 113.957031 406.808594 111.214844 C 409.804688 109.59375 412.816406 108.003906 415.863281 106.480469 C 417.726562 105.546875 419.625 104.679688 421.507812 103.777344 C 419.1875 106.664062 416.941406 109.601562 414.769531 112.582031 Z M 398.117188 121.101562 C 403.246094 118.605469 408.453125 116.285156 413.6875 114.046875 C 411.554688 117.027344 409.496094 120.054688 407.519531 123.125 C 401.859375 125.28125 396.230469 127.542969 390.667969 129.964844 C 392.949219 127.039062 395.285156 124.144531 397.703125 121.308594 C 397.847656 121.238281 397.976562 121.164062 398.113281 121.101562 Z M 389.417969 130.515625 C 386.242188 131.914062 383.082031 133.34375 379.945312 134.828125 C 378.058594 135.714844 376.207031 136.683594 374.339844 137.605469 C 376.800781 134.878906 379.324219 132.195312 381.910156 129.5625 C 386.628906 126.957031 391.398438 124.441406 396.234375 122.054688 C 393.898438 124.835938 391.625 127.65625 389.417969 130.511719 Z M 380.367188 135.71875 C 382.925781 134.507812 385.515625 133.375 388.101562 132.222656 C 385.917969 135.105469 383.78125 138.011719 381.730469 140.976562 C 376.269531 143.15625 370.863281 145.484375 365.496094 147.90625 C 367.796875 145.09375 370.152344 142.316406 372.566406 139.582031 C 375.15625 138.277344 377.742188 136.957031 380.367188 135.714844 Z M 364.0625 148.546875 C 363.433594 148.832031 362.800781 149.097656 362.171875 149.390625 C 357.972656 151.328125 353.8125 153.34375 349.691406 155.433594 C 352.128906 152.820312 354.621094 150.246094 357.171875 147.710938 C 361.695312 145.175781 366.28125 142.753906 370.910156 140.402344 C 368.566406 143.078125 366.285156 145.789062 364.0625 148.546875 Z M 362.613281 150.339844 L 362.628906 150.332031 C 360.390625 153.148438 358.210938 156 356.089844 158.886719 C 352.175781 160.519531 348.273438 162.191406 344.40625 163.945312 C 343.046875 164.558594 341.71875 165.230469 340.367188 165.859375 C 342.703125 163.121094 345.089844 160.417969 347.527344 157.75 C 352.507812 155.183594 357.527344 152.6875 362.613281 150.335938 Z M 338.691406 166.652344 C 334.03125 168.847656 329.414062 171.125 324.839844 173.484375 C 327.234375 170.996094 329.664062 168.542969 332.132812 166.121094 C 336.554688 163.597656 341.023438 161.15625 345.542969 158.796875 C 343.207031 161.378906 340.925781 163.996094 338.691406 166.652344 Z M 337.007812 168.683594 C 334.792969 171.363281 332.625 174.078125 330.511719 176.828125 C 329.222656 177.390625 327.921875 177.925781 326.632812 178.496094 C 322.855469 180.175781 319.109375 181.921875 315.378906 183.703125 C 317.679688 181.105469 320.027344 178.535156 322.425781 175.992188 C 327.238281 173.460938 332.097656 171.027344 337.007812 168.683594 Z M 313.488281 184.605469 C 309.039062 186.753906 304.628906 188.980469 300.261719 191.277344 C 302.570312 188.9375 304.90625 186.605469 307.28125 184.328125 C 311.554688 181.855469 315.875 179.457031 320.234375 177.128906 C 317.945312 179.589844 315.691406 182.078125 313.488281 184.601562 Z M 311.585938 186.84375 C 300.234375 200.050781 290.082031 214.125 281.128906 229.066406 C 253.859375 274.828125 245.066406 319.527344 258.179688 345.730469 C 261.957031 353.253906 266.433594 357.351562 271.890625 358.246094 C 285.769531 360.535156 304.773438 341.695312 331.066406 315.621094 C 362.4375 284.507812 405.40625 241.898438 462.558594 213.292969 C 518.742188 185.179688 578.101562 175.273438 625.789062 167.328125 C 631.503906 166.375 636.980469 165.449219 642.214844 164.554688 C 652.285156 168.65625 661.960938 173.542969 671.238281 179.210938 C 657.777344 182.386719 641.015625 184.984375 621.929688 187.941406 C 570.722656 195.863281 506.992188 205.722656 446.367188 235.1875 C 384.695312 265.167969 338.105469 310.300781 304.089844 343.257812 C 275.828125 370.644531 255.402344 390.4375 241.015625 387.90625 C 235.492188 386.929688 230.960938 382.65625 227.160156 374.835938 C 213.582031 346.902344 223.535156 299.496094 253.140625 251.128906 C 265.828125 230.496094 280.605469 211.488281 297.464844 194.097656 C 302.128906 191.59375 306.832031 189.175781 311.585938 186.839844 Z M 252.367188 250.644531 C 222.605469 299.285156 212.632812 347.027344 226.34375 375.234375 C 230.28125 383.339844 235.03125 387.78125 240.867188 388.808594 C 255.71875 391.417969 276.277344 371.496094 304.738281 343.90625 C 338.710938 310.992188 385.238281 265.917969 446.777344 236.007812 C 507.273438 206.609375 570.929688 196.753906 622.078125 188.835938 C 641.566406 185.820312 658.644531 183.171875 672.308594 179.878906 C 679.152344 184.132812 685.566406 188.960938 691.550781 194.355469 C 689.746094 195.125 687.84375 195.851562 685.78125 196.546875 C 669.832031 201.921875 646.378906 205.308594 618.210938 209.371094 C 563.542969 217.261719 495.507812 227.082031 430.5625 257.828125 C 364.5 289.109375 314.351562 336.714844 277.738281 371.472656 C 247.308594 400.359375 225.328125 421.226562 210.019531 418.378906 C 204.144531 417.28125 199.359375 412.675781 195.394531 404.296875 C 181.230469 374.375 192.355469 323.957031 224.425781 272.710938 C 240.746094 246.816406 260.078125 223.414062 282.425781 202.503906 C 286.554688 200.085938 290.722656 197.738281 294.925781 195.449219 C 278.792969 212.347656 264.605469 230.746094 252.367188 250.644531 Z M 223.59375 272.214844 C 191.347656 323.742188 180.199219 374.523438 194.503906 404.742188 C 198.617188 413.421875 203.632812 418.210938 209.839844 419.367188 C 225.628906 422.3125 247.773438 401.300781 278.410156 372.210938 C 314.988281 337.496094 365.0625 289.953125 430.984375 258.742188 C 495.789062 228.058594 563.75 218.25 618.355469 210.367188 C 650.441406 205.738281 676.429688 201.980469 692.347656 195.09375 C 696.800781 199.195312 700.820312 203.6875 704.398438 208.566406 C 699.285156 212.722656 693.566406 215.730469 687.238281 217.582031 C 670.238281 223.308594 644.957031 226.726562 614.484375 230.84375 C 556.355469 238.699219 484.011719 248.484375 414.746094 280.511719 C 344.289062 313.097656 290.582031 363.167969 251.375 399.738281 C 218.785156 430.125 195.226562 452.082031 179.015625 448.902344 C 172.785156 447.679688 167.753906 442.742188 163.621094 433.804688 C 148.867188 401.902344 161.164062 348.464844 195.710938 294.359375 C 205.71875 278.816406 216.792969 264.082031 228.941406 250.152344 C 241.089844 236.222656 254.179688 223.242188 268.210938 211.214844 C 271.726562 208.980469 275.265625 206.792969 278.835938 204.648438 C 257.644531 224.898438 239.230469 247.414062 223.59375 272.203125 Z M 693.492188 194.554688 C 696.613281 193.179688 699.515625 191.4375 702.195312 189.324219 C 705.078125 193.132812 707.519531 197.210938 709.519531 201.550781 C 709.289062 202.148438 709.027344 202.726562 708.726562 203.292969 C 707.796875 204.953125 706.644531 206.445312 705.277344 207.769531 C 701.765625 202.996094 697.835938 198.589844 693.492188 194.554688 Z M 692.730469 193.867188 C 686.859375 188.523438 680.566406 183.730469 673.851562 179.492188 C 678.855469 178.292969 683.761719 176.773438 688.566406 174.9375 C 693.390625 179.042969 697.742188 183.59375 701.628906 188.59375 C 698.894531 190.738281 695.925781 192.496094 692.734375 193.867188 Z M 689.707031 174.484375 C 693.117188 173.140625 696.3125 171.410156 699.304688 169.292969 C 702.402344 173.113281 705.023438 177.234375 707.167969 181.660156 C 707.019531 181.992188 706.898438 182.335938 706.722656 182.65625 C 705.605469 184.644531 704.179688 186.378906 702.449219 187.859375 C 698.644531 182.976562 694.394531 178.511719 689.703125 174.472656 Z M 688.953125 173.839844 C 682.519531 168.417969 675.644531 163.621094 668.332031 159.453125 C 673.828125 158.226562 679.234375 156.6875 684.554688 154.84375 C 689.777344 158.917969 694.503906 163.5 698.738281 168.589844 C 695.695312 170.742188 692.433594 172.492188 688.953125 173.832031 Z M 685.695312 154.4375 C 689.4375 153.105469 692.980469 151.363281 696.320312 149.214844 C 699.667969 153.054688 702.496094 157.242188 704.804688 161.78125 C 704.769531 161.855469 704.746094 161.933594 704.707031 162.007812 C 703.417969 164.355469 701.710938 166.339844 699.582031 167.964844 C 695.425781 162.96875 690.796875 158.460938 685.695312 154.4375 Z M 684.9375 153.824219 C 677.84375 148.335938 670.296875 143.566406 662.296875 139.511719 C 669.015625 138.035156 675.027344 136.484375 680.257812 134.777344 C 685.949219 138.800781 691.121094 143.40625 695.769531 148.597656 C 692.359375 150.761719 688.75 152.5 684.933594 153.816406 Z M 681.382812 134.414062 C 685.507812 133.089844 689.441406 131.347656 693.191406 129.179688 C 696.816406 132.996094 699.886719 137.21875 702.398438 141.84375 C 700.914062 144.339844 698.96875 146.398438 696.5625 148.019531 C 692.007812 142.921875 686.953125 138.382812 681.394531 134.402344 Z M 681.011719 133.734375 C 680.886719 133.777344 680.746094 133.824219 680.621094 133.867188 C 672.757812 128.34375 664.429688 123.640625 655.640625 119.761719 C 663.0625 118.164062 669.757812 116.542969 675.578125 114.789062 C 681.816406 118.71875 687.507812 123.320312 692.652344 128.601562 C 688.957031 130.722656 685.082031 132.429688 681.023438 133.722656 Z M 676.71875 114.429688 C 681.28125 113.089844 685.675781 111.316406 689.894531 109.121094 C 693.855469 112.90625 697.210938 117.164062 699.960938 121.902344 C 698.261719 124.464844 696.09375 126.535156 693.453125 128.113281 C 688.40625 122.902344 682.828125 118.339844 676.71875 114.429688 Z M 679.1875 112.894531 C 678.140625 113.25 677.019531 113.589844 675.90625 113.929688 C 667.1875 108.445312 658 103.902344 648.351562 100.292969 C 656.5625 98.480469 663.980469 96.734375 670.46875 94.894531 C 677.339844 98.683594 683.640625 103.261719 689.375 108.625 C 686.105469 110.328125 682.714844 111.75 679.207031 112.890625 Z M 671.59375 94.570312 C 676.691406 93.171875 681.636719 91.351562 686.425781 89.113281 C 690.78125 92.851562 694.476562 97.15625 697.515625 102.027344 C 695.507812 104.621094 693.046875 106.671875 690.132812 108.183594 C 684.515625 102.886719 678.34375 98.347656 671.613281 94.5625 Z M 677.15625 92.171875 C 675.175781 92.839844 673.03125 93.484375 670.808594 94.121094 C 661.148438 88.785156 651.039062 84.511719 640.480469 81.300781 L 640.679688 81.253906 C 649.589844 79.125 657.722656 77.183594 664.878906 75.207031 C 672.476562 78.773438 679.488281 83.257812 685.914062 88.652344 C 683.078125 90.007812 680.164062 91.175781 677.179688 92.164062 Z M 666.007812 74.890625 C 671.707031 73.382812 677.273438 71.472656 682.703125 69.167969 C 687.5 72.796875 691.59375 77.09375 694.984375 82.0625 C 692.660156 84.730469 689.890625 86.804688 686.679688 88.285156 C 680.371094 82.929688 673.488281 78.464844 666.027344 74.886719 Z M 431.582031 92.058594 C 427.410156 94.25 423.300781 96.550781 419.234375 98.933594 C 421.910156 96.464844 424.636719 94.050781 427.417969 91.695312 C 431.207031 89.15625 435.054688 86.710938 438.957031 84.359375 C 436.453125 86.867188 434 89.433594 431.601562 92.050781 Z M 429.960938 93.828125 C 427.476562 96.589844 425.046875 99.394531 422.699219 102.257812 C 420.28125 103.394531 417.855469 104.523438 415.464844 105.722656 C 413.164062 106.875 410.902344 108.089844 408.632812 109.292969 C 411.214844 106.621094 413.855469 103.980469 416.566406 101.410156 C 420.972656 98.765625 425.441406 96.234375 429.980469 93.820312 Z M 406.832031 110.238281 C 402.921875 112.339844 399.046875 114.5 395.230469 116.757812 C 397.6875 114.546875 400.191406 112.375 402.738281 110.246094 C 406.5 107.707031 410.300781 105.226562 414.179688 102.847656 C 411.675781 105.265625 409.226562 107.726562 406.832031 110.238281 Z M 404.945312 112.210938 C 402.472656 114.855469 400.0625 117.542969 397.707031 120.277344 C 393.152344 122.492188 388.664062 124.832031 384.210938 127.238281 C 386.757812 124.691406 389.351562 122.1875 392 119.730469 C 396.265625 117.136719 400.570312 114.609375 404.949219 112.207031 Z M 381.960938 128.484375 C 378.214844 130.542969 374.507812 132.667969 370.839844 134.859375 C 373.261719 132.722656 375.726562 130.632812 378.21875 128.570312 C 381.746094 126.179688 385.324219 123.859375 388.949219 121.609375 C 386.582031 123.863281 384.253906 126.152344 381.96875 128.480469 Z M 379.65625 130.804688 C 377.234375 133.328125 374.867188 135.890625 372.550781 138.488281 C 368.234375 140.652344 363.957031 142.890625 359.722656 145.210938 C 362.238281 142.761719 364.800781 140.355469 367.40625 137.988281 C 371.4375 135.511719 375.527344 133.113281 379.671875 130.800781 Z M 357.210938 146.578125 C 353.726562 148.527344 350.28125 150.542969 346.863281 152.597656 C 349.199219 150.566406 351.585938 148.597656 353.988281 146.632812 C 357.203125 144.457031 360.453125 142.332031 363.746094 140.265625 C 361.535156 142.328125 359.363281 144.433594 357.214844 146.570312 Z M 354.5 149.257812 C 352.136719 151.660156 349.808594 154.097656 347.523438 156.570312 C 343.421875 158.671875 339.359375 160.839844 335.335938 163.078125 C 337.746094 160.789062 340.191406 158.535156 342.671875 156.3125 C 346.574219 153.886719 350.519531 151.53125 354.503906 149.25 Z M 332.214844 164.871094 C 329.066406 166.660156 325.929688 168.46875 322.828125 170.339844 C 324.878906 168.597656 326.957031 166.890625 329.054688 165.191406 C 332.109375 163.109375 335.195312 161.074219 338.316406 159.085938 C 336.25 160.972656 334.226562 162.914062 332.21875 164.863281 Z M 329.234375 167.792969 C 326.929688 170.085938 324.640625 172.394531 322.410156 174.75 C 318.5 176.800781 314.621094 178.910156 310.777344 181.082031 C 313.089844 178.933594 315.414062 176.800781 317.785156 174.710938 C 321.5625 172.335938 325.378906 170.023438 329.234375 167.769531 Z M 307.359375 183.007812 C 304.417969 184.703125 301.511719 186.445312 298.617188 188.207031 C 300.5 186.625 302.398438 185.054688 304.320312 183.503906 C 307.289062 181.480469 310.257812 179.457031 313.28125 177.5 C 311.289062 179.3125 309.316406 181.144531 307.363281 183 Z M 304.089844 186.171875 C 301.875 188.335938 299.664062 190.507812 297.511719 192.726562 C 293.816406 194.699219 290.152344 196.722656 286.519531 198.796875 C 288.703125 196.800781 290.898438 194.808594 293.128906 192.859375 C 296.75 190.570312 300.40625 188.339844 304.09375 186.160156 Z M 282.546875 201.082031 C 279.957031 202.597656 277.378906 204.136719 274.816406 205.699219 C 276.484375 204.324219 278.136719 202.933594 279.828125 201.582031 C 282.425781 199.808594 285.074219 198.105469 287.707031 196.386719 C 285.984375 197.933594 284.25 199.488281 282.550781 201.074219 Z M 262.5 214.890625 C 249.46875 226.433594 237.289062 238.808594 225.957031 252.019531 C 214.621094 265.230469 204.242188 279.152344 194.820312 293.789062 C 160.078125 348.195312 147.757812 402.015625 162.664062 434.253906 C 166.945312 443.507812 172.238281 448.640625 178.808594 449.933594 C 195.558594 453.207031 219.261719 431.109375 252.082031 400.507812 C 291.25 363.996094 344.886719 313.988281 415.1875 281.472656 C 484.308594 249.5 556.566406 239.738281 614.621094 231.875 C 658.308594 225.972656 691.386719 221.503906 705.019531 209.449219 C 707.628906 213.109375 709.855469 216.992188 711.707031 221.085938 C 711.765625 221.21875 711.804688 221.34375 711.859375 221.472656 C 711.550781 222.324219 711.175781 223.144531 710.738281 223.9375 C 707.1875 230.289062 699.582031 234.929688 688.660156 238.609375 C 670.609375 244.6875 643.515625 248.132812 610.757812 252.289062 C 549.167969 260.117188 472.523438 269.851562 398.9375 303.164062 C 324.089844 337.054688 266.820312 389.597656 225.003906 427.964844 C 190.25 459.847656 165.144531 482.890625 148 479.378906 C 141.417969 478.035156 136.132812 472.765625 131.835938 463.277344 C 116.488281 429.382812 129.957031 372.929688 166.984375 315.949219 C 178.960938 297.703125 192.324219 280.53125 207.070312 264.433594 C 221.8125 248.339844 237.753906 233.527344 254.882812 219.996094 C 257.40625 218.269531 259.945312 216.5625 262.503906 214.882812 Z M 710.039062 200.050781 C 708.09375 196.019531 705.769531 192.214844 703.070312 188.644531 C 704.90625 187.074219 706.414062 185.230469 707.585938 183.117188 C 707.636719 183.027344 707.664062 182.929688 707.710938 182.839844 C 710.710938 189.535156 711.46875 195.207031 710.039062 200.050781 Z M 707.695312 180.367188 C 705.589844 176.183594 703.058594 172.265625 700.109375 168.625 C 702.230469 167.011719 703.960938 165.058594 705.304688 162.761719 C 705.316406 162.800781 705.34375 162.832031 705.359375 162.867188 C 708.617188 169.746094 709.382812 175.5 707.695312 180.367188 Z M 703.242188 143.460938 C 706.539062 150.238281 707.203125 155.863281 705.3125 160.613281 C 703.050781 156.320312 700.332031 152.34375 697.152344 148.679688 C 699.464844 147.082031 701.367188 145.09375 702.855469 142.707031 C 702.976562 142.957031 703.117188 143.203125 703.242188 143.460938 Z M 701.128906 124.050781 C 704.472656 130.726562 705.035156 136.222656 702.914062 140.851562 C 700.4375 136.414062 697.457031 132.351562 693.96875 128.664062 C 696.53125 127.117188 698.671875 125.125 700.398438 122.683594 C 700.640625 123.136719 700.898438 123.589844 701.128906 124.050781 Z M 699.015625 104.640625 C 702.320312 111.03125 702.867188 116.28125 700.695312 120.714844 C 700.636719 120.835938 700.546875 120.945312 700.484375 121.0625 C 697.773438 116.496094 694.507812 112.375 690.6875 108.6875 C 693.515625 107.183594 695.929688 105.183594 697.933594 102.679688 C 698.304688 103.332031 698.671875 103.984375 699.015625 104.640625 Z M 696.894531 85.226562 C 700.042969 91.085938 700.625 95.941406 698.675781 100.066406 C 698.460938 100.476562 698.230469 100.871094 697.976562 101.253906 C 694.992188 96.558594 691.402344 92.386719 687.203125 88.738281 C 690.332031 87.257812 693.046875 85.21875 695.347656 82.628906 C 695.902344 83.488281 696.425781 84.355469 696.894531 85.226562 Z M 694.78125 65.820312 C 697.773438 71.152344 698.390625 75.601562 696.667969 79.421875 C 696.332031 80.148438 695.929688 80.832031 695.460938 81.476562 C 692.128906 76.625 688.128906 72.410156 683.460938 68.828125 C 686.953125 67.367188 690.054688 65.308594 692.761719 62.664062 C 693.488281 63.707031 694.179688 64.742188 694.785156 65.824219 Z M 486.859375 47.992188 C 496.390625 42.335938 506.265625 37.378906 516.492188 33.113281 C 526.71875 28.847656 537.191406 25.320312 547.914062 22.53125 C 558.636719 19.742188 569.503906 17.714844 580.511719 16.457031 C 591.515625 15.195312 602.558594 14.710938 613.632812 15.003906 C 651.765625 16.390625 682.046875 28.425781 692.667969 46.417969 C 695.5 51.21875 696.148438 55.265625 694.660156 58.785156 C 694.191406 59.820312 693.585938 60.765625 692.839844 61.625 C 679.644531 43.542969 648.171875 31.136719 608.933594 28.84375 C 592.796875 28 576.726562 28.695312 560.722656 30.921875 C 544.71875 33.148438 529.066406 36.867188 513.773438 42.082031 C 498.160156 47.335938 483.167969 53.988281 468.792969 62.039062 C 464.375 64.523438 460.046875 67.15625 455.78125 69.886719 C 465.5625 61.765625 475.921875 54.46875 486.859375 47.992188 Z M 447.796875 76 C 445.566406 78.007812 443.375 80.050781 441.222656 82.132812 C 438.207031 83.914062 435.222656 85.746094 432.277344 87.636719 C 437.300781 83.578125 442.476562 79.703125 447.800781 76.007812 Z M 422.496094 95.078125 C 420.496094 96.859375 418.519531 98.660156 416.574219 100.488281 C 413.882812 102.097656 411.230469 103.753906 408.59375 105.441406 C 413.117188 101.855469 417.761719 98.414062 422.5 95.085938 Z M 397.449219 113.847656 C 395.632812 115.453125 393.824219 117.058594 392.042969 118.695312 C 389.867188 120.015625 387.6875 121.332031 385.542969 122.695312 C 389.445312 119.671875 393.40625 116.710938 397.453125 113.855469 Z M 371.449219 133.28125 C 370.089844 134.46875 368.757812 135.679688 367.425781 136.898438 C 365.574219 138.03125 363.730469 139.183594 361.902344 140.351562 C 365.042969 137.949219 368.222656 135.59375 371.449219 133.292969 Z M 346.046875 152.164062 C 344.941406 153.121094 343.863281 154.101562 342.773438 155.070312 C 341.292969 155.984375 339.832031 156.929688 338.363281 157.863281 C 340.90625 155.945312 343.453125 154.023438 346.050781 152.171875 Z M 320.351562 171.269531 C 319.527344 171.980469 318.699219 172.691406 317.882812 173.410156 C 316.945312 173.992188 316 174.566406 315.066406 175.160156 C 316.816406 173.847656 318.578125 172.546875 320.351562 171.261719 Z M 294.25 190.621094 C 293.902344 190.917969 293.550781 191.203125 293.210938 191.5 C 292.820312 191.746094 292.421875 191.972656 292.03125 192.222656 C 292.765625 191.679688 293.507812 191.160156 294.25 190.621094 Z M 138.269531 337.566406 C 152.292969 316.5625 168.035156 296.941406 185.503906 278.703125 C 202.96875 260.464844 221.894531 243.890625 242.273438 228.976562 C 227.574219 241.476562 213.839844 254.964844 201.070312 269.433594 C 188.304688 283.902344 176.628906 299.207031 166.050781 315.347656 C 128.820312 372.628906 115.328125 429.5 130.824219 463.734375 C 135.28125 473.574219 140.832031 479.050781 147.785156 480.472656 C 165.46875 484.082031 190.765625 460.890625 225.757812 428.785156 C 267.519531 390.46875 324.714844 337.996094 399.394531 304.179688 C 472.832031 270.929688 549.386719 261.207031 610.898438 253.394531 C 663.796875 246.675781 702.015625 241.824219 711.710938 224.480469 C 711.992188 223.972656 712.210938 223.441406 712.441406 222.917969 C 715.9375 231.628906 716.0625 238.746094 712.75 244.582031 C 709.03125 251.121094 701.230469 255.898438 690.058594 259.660156 C 670.96875 266.089844 642.066406 269.550781 607.035156 273.742188 C 541.980469 281.53125 461.027344 291.21875 383.132812 325.824219 C 303.894531 361.019531 243.0625 416.03125 198.648438 456.195312 C 161.730469 489.578125 135.058594 513.691406 117.007812 509.871094 C 110.074219 508.402344 104.535156 502.804688 100.070312 492.757812 C 84.125 456.875 98.765625 397.410156 138.269531 337.566406 Z M 138.269531 337.566406 " fill-opacity="1" fill-rule="nonzero"/></g></g></g></g></g></g></svg>