<svg xmlns="http://www.w3.org/2000/svg" version="1.1" xmlns:xlink="http://www.w3.org/1999/xlink" xmlns:svgjs="http://svgjs.dev/svgjs" viewBox="0 0 1422 800"><g fill="hsl(231, 100%, 64%)" transform="matrix(0.9,0,0,0.9,70.54999999999995,39.599999999999966)"><circle r="1" cx="716" cy="400" opacity="1.00"></circle><circle r="1" cx="712" cy="406" opacity="1.00"></circle><circle r="1" cx="704" cy="402" opacity="0.99"></circle><circle r="1" cx="707" cy="392" opacity="0.99"></circle><circle r="1" cx="720" cy="394" opacity="0.99"></circle><circle r="1" cx="719" cy="409" opacity="0.98"></circle><circle r="1" cx="703" cy="411" opacity="0.98"></circle><circle r="1.5" cx="698" cy="393" opacity="0.98"></circle><circle r="1.5" cx="717" cy="385" opacity="0.97"></circle><circle r="1.5" cx="728" cy="404" opacity="0.97"></circle><circle r="1.5" cx="710" cy="419" opacity="0.97"></circle><circle r="1.5" cx="690" cy="402" opacity="0.97"></circle><circle r="1.5" cx="706" cy="379" opacity="0.96"></circle><circle r="1.5" cx="733" cy="391" opacity="0.96"></circle><circle r="1.5" cx="724" cy="421" opacity="0.96"></circle><circle r="1.5" cx="691" cy="417" opacity="0.95"></circle><circle r="1.5" cx="690" cy="382" opacity="0.95"></circle><circle r="1.5" cx="727" cy="376" opacity="0.95"></circle><circle r="1.5" cx="739" cy="413" opacity="0.94"></circle><circle r="1.5" cx="702" cy="431" opacity="0.94"></circle><circle r="1.5" cx="678" cy="396" opacity="0.94"></circle><circle r="1.5" cx="710" cy="365" opacity="0.93"></circle><circle r="1.5" cx="747" cy="394" opacity="0.93"></circle><circle r="1.5" cx="723" cy="436" opacity="0.93"></circle><circle r="1.5" cx="676" cy="418" opacity="0.92"></circle><circle r="1.5" cx="687" cy="367" opacity="0.92"></circle><circle r="1.5" cx="741" cy="371" opacity="0.92"></circle><circle r="1.5" cx="746" cy="426" opacity="0.91"></circle><circle r="1.5" cx="690" cy="439" opacity="0.91"></circle><circle r="2" cx="667" cy="385" opacity="0.91"></circle><circle r="2" cx="720" cy="353" opacity="0.91"></circle><circle r="2" cx="760" cy="402" opacity="0.90"></circle><circle r="2" cx="717" cy="450" opacity="0.90"></circle><circle r="2" cx="661" cy="414" opacity="0.90"></circle><circle r="2" cx="690" cy="351" opacity="0.89"></circle><circle r="2" cx="757" cy="371" opacity="0.89"></circle><circle r="2" cx="748" cy="442" opacity="0.89"></circle><circle r="2" cx="674" cy="444" opacity="0.88"></circle><circle r="2" cx="661" cy="369" opacity="0.88"></circle><circle r="2" cx="735" cy="344" opacity="0.88"></circle><circle r="2" cx="771" cy="415" opacity="0.87"></circle><circle r="2" cx="705" cy="463" opacity="0.87"></circle><circle r="2" cx="646" cy="403" opacity="0.87"></circle><circle r="2" cx="698" cy="335" opacity="0.86"></circle><circle r="2" cx="774" cy="377" opacity="0.86"></circle><circle r="2" cx="744" cy="460" opacity="0.86"></circle><circle r="2" cx="655" cy="443" opacity="0.85"></circle><circle r="2" cx="659" cy="350" opacity="0.85"></circle><circle r="2" cx="753" cy="340" opacity="0.85"></circle><circle r="2" cx="778" cy="433" opacity="0.84"></circle><circle r="2" cx="688" cy="472" opacity="0.84"></circle><circle r="2" cx="635" cy="387" opacity="0.84"></circle><circle r="2.5" cx="712" cy="321" opacity="0.84"></circle><circle r="2.5" cx="790" cy="389" opacity="0.83"></circle><circle r="2.5" cx="734" cy="478" opacity="0.83"></circle><circle r="2.5" cx="636" cy="435" opacity="0.83"></circle><circle r="2.5" cx="664" cy="330" opacity="0.82"></circle><circle r="2.5" cx="774" cy="342" opacity="0.82"></circle><circle r="2.5" cx="779" cy="455" opacity="0.82"></circle><circle r="2.5" cx="666" cy="477" opacity="0.81"></circle><circle r="2.5" cx="627" cy="367" opacity="0.81"></circle><circle r="2.5" cx="732" cy="311" opacity="0.81"></circle><circle r="2.5" cx="804" cy="407" opacity="0.80"></circle><circle r="2.5" cx="718" cy="494" opacity="0.80"></circle><circle r="2.5" cx="618" cy="422" opacity="0.80"></circle><circle r="2.5" cx="675" cy="310" opacity="0.79"></circle><circle r="2.5" cx="796" cy="350" opacity="0.79"></circle><circle r="2.5" cx="774" cy="478" opacity="0.79"></circle><circle r="2.5" cx="642" cy="475" opacity="0.78"></circle><circle r="2.5" cx="625" cy="343" opacity="0.78"></circle><circle r="2.5" cx="755" cy="306" opacity="0.78"></circle><circle r="2.5" cx="812" cy="430" opacity="0.78"></circle><circle r="2.5" cx="696" cy="506" opacity="0.77"></circle><circle r="2.5" cx="602" cy="401" opacity="0.77"></circle><circle r="3" cx="693" cy="291" opacity="0.77"></circle><circle r="3" cx="817" cy="366" opacity="0.76"></circle><circle r="3" cx="762" cy="501" opacity="0.76"></circle><circle r="3" cx="618" cy="466" opacity="0.76"></circle><circle r="3" cx="631" cy="317" opacity="0.75"></circle><circle r="3" cx="782" cy="307" opacity="0.75"></circle><circle r="3" cx="815" cy="457" opacity="0.75"></circle><circle r="3" cx="670" cy="513" opacity="0.74"></circle><circle r="3" cx="592" cy="376" opacity="0.74"></circle><circle r="3" cx="717" cy="277" opacity="0.74"></circle><circle r="3" cx="835" cy="388" opacity="0.73"></circle><circle r="3" cx="742" cy="522" opacity="0.73"></circle><circle r="3" cx="594" cy="450" opacity="0.73"></circle><circle r="3" cx="643" cy="291" opacity="0.72"></circle><circle r="3" cx="810" cy="316" opacity="0.72"></circle><circle r="3" cx="810" cy="486" opacity="0.72"></circle><circle r="3" cx="640" cy="512" opacity="0.72"></circle><circle r="3" cx="588" cy="346" opacity="0.71"></circle><circle r="3" cx="746" cy="269" opacity="0.71"></circle><circle r="3" cx="847" cy="415" opacity="0.71"></circle><circle r="3" cx="716" cy="538" opacity="0.70"></circle><circle r="3" cx="574" cy="426" opacity="0.70"></circle><circle r="3.5" cx="664" cy="267" opacity="0.70"></circle><circle r="3.5" cx="837" cy="333" opacity="0.69"></circle><circle r="3.5" cx="797" cy="516" opacity="0.69"></circle><circle r="3.5" cx="609" cy="504" opacity="0.69"></circle><circle r="3.5" cx="592" cy="314" opacity="0.68"></circle><circle r="3.5" cx="779" cy="268" opacity="0.68"></circle><circle r="3.5" cx="853" cy="448" opacity="0.68"></circle><circle r="3.5" cx="685" cy="549" opacity="0.67"></circle><circle r="3.5" cx="558" cy="396" opacity="0.67"></circle><circle r="3.5" cx="692" cy="247" opacity="0.67"></circle><circle r="3.5" cx="861" cy="358" opacity="0.66"></circle><circle r="3.5" cx="776" cy="543" opacity="0.66"></circle><circle r="3.5" cx="578" cy="487" opacity="0.66"></circle><circle r="3.5" cx="605" cy="281" opacity="0.66"></circle><circle r="3.5" cx="814" cy="276" opacity="0.65"></circle><circle r="3.5" cx="850" cy="484" opacity="0.65"></circle><circle r="3.5" cx="649" cy="552" opacity="0.65"></circle><circle r="3.5" cx="550" cy="361" opacity="0.64"></circle><circle r="3.5" cx="726" cy="234" opacity="0.64"></circle><circle r="3.5" cx="879" cy="389" opacity="0.64"></circle><circle r="3.5" cx="747" cy="566" opacity="0.63"></circle><circle r="3.5" cx="551" cy="461" opacity="0.63"></circle><circle r="4" cx="626" cy="250" opacity="0.63"></circle><circle r="4" cx="848" cy="293" opacity="0.62"></circle><circle r="4" cx="839" cy="520" opacity="0.62"></circle><circle r="4" cx="611" cy="546" opacity="0.62"></circle><circle r="4" cx="551" cy="322" opacity="0.61"></circle><circle r="4" cx="764" cy="228" opacity="0.61"></circle><circle r="4" cx="890" cy="427" opacity="0.61"></circle><circle r="4" cx="711" cy="582" opacity="0.60"></circle><circle r="4" cx="529" cy="428" opacity="0.60"></circle><circle r="4" cx="656" cy="223" opacity="0.60"></circle><circle r="4" cx="879" cy="318" opacity="0.60"></circle><circle r="4" cx="818" cy="555" opacity="0.59"></circle><circle r="4" cx="573" cy="530" opacity="0.59"></circle><circle r="4" cx="561" cy="282" opacity="0.59"></circle><circle r="4" cx="806" cy="233" opacity="0.58"></circle><circle r="4" cx="892" cy="469" opacity="0.58"></circle><circle r="4" cx="670" cy="591" opacity="0.58"></circle><circle r="4" cx="515" cy="388" opacity="0.57"></circle><circle r="4" cx="694" cy="203" opacity="0.57"></circle><circle r="4" cx="905" cy="353" opacity="0.57"></circle><circle r="4" cx="787" cy="586" opacity="0.56"></circle><circle r="4" cx="537" cy="504" opacity="0.56"></circle><circle r="4" cx="581" cy="243" opacity="0.56"></circle><circle r="4.5" cx="848" cy="247" opacity="0.55"></circle><circle r="4.5" cx="884" cy="513" opacity="0.55"></circle><circle r="4.5" cx="625" cy="589" opacity="0.55"></circle><circle r="4.5" cx="509" cy="343" opacity="0.54"></circle><circle r="4.5" cx="737" cy="191" opacity="0.54"></circle><circle r="4.5" cx="923" cy="395" opacity="0.54"></circle><circle r="4.5" cx="748" cy="610" opacity="0.53"></circle><circle r="4.5" cx="507" cy="469" opacity="0.53"></circle><circle r="4.5" cx="611" cy="208" opacity="0.53"></circle><circle r="4.5" cx="887" cy="272" opacity="0.53"></circle><circle r="4.5" cx="865" cy="556" opacity="0.52"></circle><circle r="4.5" cx="579" cy="577" opacity="0.52"></circle><circle r="4.5" cx="515" cy="295" opacity="0.52"></circle><circle r="4.5" cx="785" cy="189" opacity="0.51"></circle><circle r="4.5" cx="932" cy="442" opacity="0.51"></circle><circle r="4.5" cx="702" cy="626" opacity="0.51"></circle><circle r="4.5" cx="485" cy="426" opacity="0.50"></circle><circle r="4.5" cx="651" cy="179" opacity="0.50"></circle><circle r="4.5" cx="922" cy="307" opacity="0.50"></circle><circle r="4.5" cx="835" cy="596" opacity="0.49"></circle><circle r="4.5" cx="535" cy="553" opacity="0.49"></circle><circle r="4.5" cx="532" cy="248" opacity="0.49"></circle><circle r="5" cx="835" cy="199" opacity="0.48"></circle><circle r="5" cx="930" cy="493" opacity="0.48"></circle><circle r="5" cx="651" cy="632" opacity="0.48"></circle><circle r="5" cx="471" cy="376" opacity="0.47"></circle><circle r="5" cx="699" cy="158" opacity="0.47"></circle><circle r="5" cx="950" cy="351" opacity="0.47"></circle><circle r="5" cx="795" cy="630" opacity="0.47"></circle><circle r="5" cx="495" cy="519" opacity="0.46"></circle><circle r="5" cx="560" cy="203" opacity="0.46"></circle><circle r="5" cx="884" cy="220" opacity="0.46"></circle><circle r="5" cx="916" cy="545" opacity="0.45"></circle><circle r="5" cx="598" cy="625" opacity="0.45"></circle><circle r="5" cx="470" cy="322" opacity="0.45"></circle><circle r="5" cx="752" cy="148" opacity="0.44"></circle><circle r="5" cx="967" cy="403" opacity="0.44"></circle><circle r="5" cx="747" cy="655" opacity="0.44"></circle><circle r="5" cx="463" cy="474" opacity="0.43"></circle><circle r="5" cx="600" cy="164" opacity="0.43"></circle><circle r="5" cx="929" cy="254" opacity="0.43"></circle><circle r="5" cx="889" cy="594" opacity="0.42"></circle><circle r="5" cx="545" cy="606" opacity="0.42"></circle><circle r="5" cx="481" cy="266" opacity="0.42"></circle><circle r="5.5" cx="810" cy="151" opacity="0.41"></circle><circle r="5.5" cx="973" cy="460" opacity="0.41"></circle><circle r="5.5" cx="691" cy="670" opacity="0.41"></circle><circle r="5.5" cx="440" cy="420" opacity="0.41"></circle><circle r="5.5" cx="650" cy="134" opacity="0.40"></circle><circle r="5.5" cx="967" cy="299" opacity="0.40"></circle><circle r="5.5" cx="850" cy="639" opacity="0.40"></circle><circle r="5.5" cx="495" cy="574" opacity="0.39"></circle><circle r="5.5" cx="505" cy="212" opacity="0.39"></circle><circle r="5.5" cx="867" cy="167" opacity="0.39"></circle><circle r="5.5" cx="966" cy="520" opacity="0.38"></circle><circle r="5.5" cx="630" cy="672" opacity="0.38"></circle><circle r="5.5" cx="429" cy="361" opacity="0.38"></circle><circle r="5.5" cx="707" cy="114" opacity="0.37"></circle><circle r="5.5" cx="995" cy="353" opacity="0.37"></circle><circle r="5.5" cx="800" cy="675" opacity="0.37"></circle><circle r="5.5" cx="451" cy="530" opacity="0.36"></circle><circle r="5.5" cx="542" cy="162" opacity="0.36"></circle><circle r="5.5" cx="922" cy="197" opacity="0.36"></circle><circle r="5.5" cx="945" cy="579" opacity="0.35"></circle><circle r="5.5" cx="568" cy="659" opacity="0.35"></circle><circle r="5.5" cx="432" cy="297" opacity="0.35"></circle><circle r="6" cx="771" cy="107" opacity="0.35"></circle><circle r="6" cx="1011" cy="415" opacity="0.34"></circle><circle r="6" cx="741" cy="700" opacity="0.34"></circle><circle r="6" cx="417" cy="475" opacity="0.34"></circle><circle r="6" cx="592" cy="120" opacity="0.33"></circle><circle r="6" cx="971" cy="239" opacity="0.33"></circle><circle r="6" cx="910" cy="634" opacity="0.33"></circle><circle r="6" cx="508" cy="633" opacity="0.32"></circle><circle r="6" cx="449" cy="234" opacity="0.32"></circle><circle r="6" cx="837" cy="115" opacity="0.32"></circle><circle r="6" cx="1013" cy="482" opacity="0.31"></circle><circle r="6" cx="675" cy="713" opacity="0.31"></circle><circle r="6" cx="395" cy="412" opacity="0.31"></circle><circle r="6" cx="652" cy="88" opacity="0.30"></circle><circle r="6" cx="1012" cy="294" opacity="0.30"></circle><circle r="6" cx="862" cy="683" opacity="0.30"></circle><circle r="6" cx="453" cy="592" opacity="0.29"></circle><circle r="6" cx="481" cy="173" opacity="0.29"></circle><circle r="6" cx="902" cy="137" opacity="0.29"></circle><circle r="6" cx="1000" cy="550" opacity="0.29"></circle><circle r="6" cx="606" cy="710" opacity="0.28"></circle><circle r="6" cx="387" cy="342" opacity="0.28"></circle><circle r="6.5" cx="719" cy="70" opacity="0.28"></circle><circle r="6.5" cx="1040" cy="358" opacity="0.27"></circle><circle r="6.5" cx="802" cy="720" opacity="0.27"></circle><circle r="6.5" cx="407" cy="539" opacity="0.27"></circle><circle r="6.5" cx="527" cy="119" opacity="0.26"></circle><circle r="6.5" cx="963" cy="175" opacity="0.26"></circle><circle r="6.5" cx="972" cy="616" opacity="0.26"></circle><circle r="6.5" cx="536" cy="692" opacity="0.25"></circle><circle r="6.5" cx="395" cy="270" opacity="0.25"></circle><circle r="6.5" cx="792" cy="67" opacity="0.25"></circle><circle r="6.5" cx="1054" cy="430" opacity="0.24"></circle><circle r="6.5" cx="733" cy="745" opacity="0.24"></circle><circle r="6.5" cx="372" cy="474" opacity="0.24"></circle><circle r="6.5" cx="587" cy="74" opacity="0.23"></circle><circle r="6.5" cx="1016" cy="228" opacity="0.23"></circle><circle r="6.5" cx="928" cy="676" opacity="0.23"></circle><circle r="6.5" cx="469" cy="657" opacity="0.22"></circle><circle r="6.5" cx="419" cy="199" opacity="0.22"></circle><circle r="6.5" cx="867" cy="80" opacity="0.22"></circle><circle r="6.5" cx="1052" cy="506" opacity="0.22"></circle><circle r="6.5" cx="657" cy="755" opacity="0.21"></circle><circle r="6.5" cx="351" cy="400" opacity="0.21"></circle><circle r="6.5" cx="657" cy="43" opacity="0.21"></circle><circle r="7" cx="1057" cy="292" opacity="0.20"></circle><circle r="7" cx="870" cy="728" opacity="0.20"></circle><circle r="7" cx="410" cy="607" opacity="0.20"></circle><circle r="7" cx="460" cy="132" opacity="0.19"></circle><circle r="7" cx="939" cy="110" opacity="0.19"></circle><circle r="7" cx="1033" cy="582" opacity="0.19"></circle><circle r="7" cx="579" cy="747" opacity="0.18"></circle><circle r="7" cx="347" cy="321" opacity="0.18"></circle><circle r="7" cx="735" cy="27" opacity="0.18"></circle><circle r="7" cx="1085" cy="367" opacity="0.17"></circle><circle r="7" cx="800" cy="766" opacity="0.17"></circle><circle r="7" cx="361" cy="544" opacity="0.17"></circle><circle r="7" cx="516" cy="74" opacity="0.16"></circle><circle r="7" cx="1005" cy="157" opacity="0.16"></circle><circle r="7" cx="996" cy="655" opacity="0.16"></circle><circle r="7" cx="501" cy="722" opacity="0.16"></circle><circle r="7" cx="360" cy="240" opacity="0.15"></circle><circle r="7" cx="817" cy="28" opacity="0.15"></circle><circle r="7" cx="1096" cy="449" opacity="0.15"></circle><circle r="7" cx="721" cy="790" opacity="0.14"></circle><circle r="7" cx="326" cy="468" opacity="0.14"></circle><circle r="7" cx="585" cy="28" opacity="0.14"></circle><circle r="7.5" cx="1061" cy="219" opacity="0.13"></circle><circle r="7.5" cx="943" cy="720" opacity="0.13"></circle><circle r="7.5" cx="429" cy="679" opacity="0.13"></circle><circle r="7.5" cx="392" cy="162" opacity="0.12"></circle><circle r="7.5" cx="899" cy="47" opacity="0.12"></circle><circle r="7.5" cx="1089" cy="534" opacity="0.12"></circle><circle r="7.5" cx="636" cy="795" opacity="0.11"></circle><circle r="7.5" cx="307" cy="385" opacity="0.11"></circle><circle r="7.5" cx="665" cy="-3" opacity="0.11"></circle><circle r="7.5" cx="1104" cy="294" opacity="0.10"></circle><circle r="7.5" cx="875" cy="774" opacity="0.10"></circle></g></svg>